<?xml version="1.0" encoding="utf-8" standalone="no"?><!DOCTYPE svg PUBLIC "-//W3C//DTD SVG 1.1//EN" "http://www.w3.org/Graphics/SVG/1.1/DTD/svg11.dtd">
<svg preserveAspectRatio="xMinYMin meet" width="100%" height="100%" viewBox="0 0 937.500 421.875"  version="1.1" xmlns="http://www.w3.org/2000/svg" xmlns:xlink="http://www.w3.org/1999/xlink">
  <desc>Matlab Figure Converted by PLOT2SVG written by Juerg Schwizer</desc>
  <g id="topgroup">
  <rect x="0" y="0" width="937.500" height="421.875" fill="#ffffff" stroke="none" />
  <g id ="ID000000">
  <clipPath id="ID000001">
    <rect x="121.875" y="31.641" width="726.563" height="343.828"/>
  </clipPath>
      <polygon fill="#000000" fill-opacity="0.00" stroke="none" stroke-width="0.5pt" stroke-opacity="1.00" stroke-dasharray="none" points="121.875,375.469 848.438,375.469 848.438,31.641 121.875,31.641 "/>
      <polygon fill="#000000" fill-opacity="0.00" stroke="none" stroke-width="0.5pt" stroke-opacity="1.00" stroke-dasharray="none" points="121.875,31.641 848.438,31.641 848.438,31.641 121.875,31.641 "/>
      <polygon fill="#000000" fill-opacity="0.00" stroke="none" stroke-width="0.5pt" stroke-opacity="1.00" stroke-dasharray="none" points="121.875,375.469 121.875,375.469 121.875,31.641 121.875,31.641 "/>
    <g>
<g id="ID000002" clip-path="url(#ID000001)" >
      <polyline fill="none" stroke="#000000" stroke-width="0.5pt" stroke-dasharray="none" points="121.875,373.462 122.457,373.448 123.039,373.434 123.620,373.420 124.202,373.405 124.784,373.391 125.366,373.376 125.948,373.361 126.530,373.347 127.111,373.332 127.693,373.317 128.275,373.302 128.857,373.286 129.439,373.271 130.021,373.256 130.602,373.240 131.184,373.224 131.766,373.209 132.348,373.193 132.930,373.177 133.512,373.161 134.093,373.145 134.675,373.128 135.257,373.112 135.839,373.095 136.421,373.079 137.003,373.062 137.584,373.045 138.166,373.028 138.748,373.011 139.330,372.994 139.912,372.977 140.494,372.959 141.075,372.942 141.657,372.924 142.239,372.906 142.821,372.888 143.403,372.870 143.985,372.852 144.566,372.834 145.148,372.815 145.730,372.797 146.312,372.778 146.894,372.759 147.476,372.740 148.057,372.721 148.639,372.702 149.221,372.683 149.803,372.663 150.385,372.644 150.967,372.624 151.548,372.604 152.130,372.584 152.712,372.564 153.294,372.544 153.876,372.523 154.458,372.503 155.039,372.482 155.621,372.461 156.203,372.440 156.785,372.419 157.367,372.398 157.949,372.377 158.530,372.355 159.112,372.333 159.694,372.312 160.276,372.290 160.858,372.267 161.440,372.245 162.021,372.223 162.603,372.200 163.185,372.177 163.767,372.155 164.349,372.132 164.931,372.108 165.512,372.085 166.094,372.061 166.676,372.038 167.258,372.014 167.840,371.990 168.422,371.966 169.003,371.941 169.585,371.917 170.167,371.892 170.749,371.867 171.331,371.843 171.913,371.817 172.494,371.792 173.076,371.767 173.658,371.741 174.240,371.715 174.822,371.689 175.404,371.663 175.985,371.636 176.567,371.610 177.149,371.583 177.731,371.556 178.313,371.529 178.895,371.502 179.476,371.474 180.058,371.447 180.640,371.419 181.222,371.391 181.804,371.363 182.386,371.334 182.967,371.306 183.549,371.277 184.131,371.248 184.713,371.219 185.295,371.189 185.877,371.160 186.458,371.130 187.040,371.100 187.622,371.070 188.204,371.040 188.786,371.009 189.367,370.978 189.949,370.947 190.531,370.916 191.113,370.885 191.695,370.853 192.277,370.821 192.858,370.789 193.440,370.757 194.022,370.725 194.604,370.692 195.186,370.659 195.768,370.626 196.349,370.593 196.931,370.559 197.513,370.525 198.095,370.491 198.677,370.457 199.259,370.423 199.840,370.388 200.422,370.353 201.004,370.318 201.586,370.282 202.168,370.247 202.750,370.211 203.331,370.175 203.913,370.138 204.495,370.102 205.077,370.065 205.659,370.028 206.241,369.991 206.822,369.953 207.404,369.915 207.986,369.877 208.568,369.839 209.150,369.800 209.732,369.761 210.313,369.722 210.895,369.683 211.477,369.643 212.059,369.603 212.641,369.563 213.223,369.523 213.804,369.482 214.386,369.441 214.968,369.400 215.550,369.358 216.132,369.317 216.714,369.275 217.295,369.232 217.877,369.190 218.459,369.147 219.041,369.103 219.623,369.060 220.205,369.016 220.786,368.972 221.368,368.928 221.950,368.883 222.532,368.838 223.114,368.793 223.696,368.748 224.277,368.702 224.859,368.656 225.441,368.609 226.023,368.563 226.605,368.515 227.187,368.468 227.768,368.420 228.350,368.373 228.932,368.324 229.514,368.276 230.096,368.227 230.678,368.177 231.259,368.128 231.841,368.078 232.423,368.028 233.005,367.977 233.587,367.926 234.169,367.875 234.750,367.824 235.332,367.772 235.914,367.719 236.496,367.667 237.078,367.614 237.660,367.561 238.241,367.507 238.823,367.453 239.405,367.399 239.987,367.344 240.569,367.289 241.151,367.234 241.732,367.178 242.314,367.122 242.896,367.065 243.478,367.008 244.060,366.951 244.642,366.894 245.223,366.836 245.805,366.777 246.387,366.718 246.969,366.659 247.551,366.600 248.133,366.540 248.714,366.480 249.296,366.419 249.878,366.358 250.460,366.297 251.042,366.235 251.623,366.172 252.205,366.110 252.787,366.047 253.369,365.983 253.951,365.919 254.533,365.855 255.114,365.790 255.696,365.725 256.278,365.660 256.860,365.594 257.442,365.527 258.024,365.460 258.605,365.393 259.187,365.325 259.769,365.257 260.351,365.188 260.933,365.119 261.515,365.050 262.096,364.980 262.678,364.910 263.260,364.839 263.842,364.768 264.424,364.696 265.006,364.624 265.587,364.551 266.169,364.478 266.751,364.404 267.333,364.330 267.915,364.255 268.497,364.180 269.078,364.105 269.660,364.029 270.242,363.952 270.824,363.875 271.406,363.798 271.988,363.720 272.569,363.641 273.151,363.562 273.733,363.483 274.315,363.403 274.897,363.322 275.479,363.241 276.060,363.160 276.642,363.078 277.224,362.995 277.806,362.912 278.388,362.829 278.970,362.744 279.551,362.660 280.133,362.574 280.715,362.489 281.297,362.402 281.879,362.315 282.461,362.228 283.042,362.140 283.624,362.051 284.206,361.962 284.788,361.873 285.370,361.782 285.952,361.691 286.533,361.600 287.115,361.508 287.697,361.416 288.279,361.322 288.861,361.229 289.443,361.134 290.024,361.039 290.606,360.944 291.188,360.848 291.770,360.751 292.352,360.654 292.934,360.556 293.515,360.457 294.097,360.358 294.679,360.258 295.261,360.158 295.843,360.057 296.425,359.955 297.006,359.852 297.588,359.749 298.170,359.646 298.752,359.541 299.334,359.437 299.916,359.331 300.497,359.225 301.079,359.118 301.661,359.010 302.243,358.902 302.825,358.793 303.407,358.683 303.988,358.573 304.570,358.462 305.152,358.350 305.734,358.238 306.316,358.125 306.898,358.011 307.479,357.896 308.061,357.781 308.643,357.665 309.225,357.548 309.807,357.431 310.389,357.313 310.970,357.194 311.552,357.074 312.134,356.954 312.716,356.833 313.298,356.711 313.880,356.589 314.461,356.465 315.043,356.341 315.625,356.216 316.207,356.091 316.789,355.964 317.370,355.837 317.952,355.709 318.534,355.580 319.116,355.451 319.698,355.320 320.280,355.189 320.861,355.057 321.443,354.924 322.025,354.791 322.607,354.656 323.189,354.521 323.771,354.385 324.352,354.248 324.934,354.110 325.516,353.972 326.098,353.832 326.680,353.692 327.262,353.551 327.843,353.409 328.425,353.266 329.007,353.122 329.589,352.977 330.171,352.832 330.753,352.685 331.334,352.538 331.916,352.390 332.498,352.241 333.080,352.091 333.662,351.940 334.244,351.788 334.825,351.635 335.407,351.482 335.989,351.327 336.571,351.172 337.153,351.015 337.735,350.858 338.316,350.699 338.898,350.540 339.480,350.380 340.062,350.218 340.644,350.056 341.226,349.893 341.807,349.729 342.389,349.564 342.971,349.397 343.553,349.230 344.135,349.062 344.717,348.893 345.298,348.723 345.880,348.552 346.462,348.379 347.044,348.206 347.626,348.032 348.208,347.856 348.789,347.680 349.371,347.503 349.953,347.324 350.535,347.145 351.117,346.964 351.699,346.782 352.280,346.600 352.862,346.416 353.444,346.231 354.026,346.045 354.608,345.858 355.190,345.669 355.771,345.480 356.353,345.290 356.935,345.098 357.517,344.905 358.099,344.711 358.681,344.516 359.262,344.320 359.844,344.123 360.426,343.924 361.008,343.725 361.590,343.524 362.172,343.322 362.753,343.119 363.335,342.914 363.917,342.709 364.499,342.502 365.081,342.294 365.663,342.085 366.244,341.875 366.826,341.663 367.408,341.450 367.990,341.236 368.572,341.021 369.154,340.804 369.735,340.586 370.317,340.367 370.899,340.147 371.481,339.925 372.063,339.702 372.645,339.478 373.226,339.253 373.808,339.026 374.390,338.798 374.972,338.568 375.554,338.338 376.136,338.106 376.717,337.872 377.299,337.637 377.881,337.401 378.463,337.164 379.045,336.925 379.627,336.685 380.208,336.443 380.790,336.201 381.372,335.956 381.954,335.711 382.536,335.464 383.117,335.215 383.699,334.965 384.281,334.714 384.863,334.461 385.445,334.207 386.027,333.952 386.608,333.695 387.190,333.436 387.772,333.176 388.354,332.915 388.936,332.652 389.518,332.388 390.099,332.122 390.681,331.855 391.263,331.586 391.845,331.315 392.427,331.044 393.009,330.770 393.590,330.495 394.172,330.219 394.754,329.941 395.336,329.662 395.918,329.381 396.500,329.098 397.081,328.814 397.663,328.528 398.245,328.241 398.827,327.952 399.409,327.662 399.991,327.370 400.572,327.076 401.154,326.781 401.736,326.484 402.318,326.185 402.900,325.885 403.482,325.583 404.063,325.280 404.645,324.975 405.227,324.668 405.809,324.360 406.391,324.050 406.973,323.738 407.554,323.424 408.136,323.109 408.718,322.792 409.300,322.474 409.882,322.153 410.464,321.831 411.045,321.508 411.627,321.182 412.209,320.855 412.791,320.526 413.373,320.195 413.955,319.862 414.536,319.528 415.118,319.192 415.700,318.854 416.282,318.515 416.864,318.173 417.446,317.830 418.027,317.485 418.609,317.138 419.191,316.789 419.773,316.439 420.355,316.086 420.937,315.732 421.518,315.376 422.100,315.018 422.682,314.658 423.264,314.296 423.846,313.932 424.428,313.567 425.009,313.199 425.591,312.830 426.173,312.459 426.755,312.086 427.337,311.711 427.919,311.334 428.500,310.955 429.082,310.574 429.664,310.191 430.246,309.806 430.828,309.419 431.410,309.030 431.991,308.640 432.573,308.247 433.155,307.852 433.737,307.455 434.319,307.057 434.901,306.656 435.482,306.253 436.064,305.848 436.646,305.441 437.228,305.032 437.810,304.621 438.392,304.208 438.973,303.793 439.555,303.376 440.137,302.957 440.719,302.536 441.301,302.112 441.883,301.687 442.464,301.259 443.046,300.830 443.628,300.398 444.210,299.964 444.792,299.528 445.373,299.090 445.955,298.649 446.537,298.207 447.119,297.762 447.701,297.316 448.283,296.867 448.864,296.416 449.446,295.962 450.028,295.507 450.610,295.049 451.192,294.590 451.774,294.128 452.355,293.663 452.937,293.197 453.519,292.728 454.101,292.258 454.683,291.785 455.265,291.309 455.846,290.832 456.428,290.352 457.010,289.870 457.592,289.386 458.174,288.899 458.756,288.411 459.337,287.920 459.919,287.426 460.501,286.931 461.083,286.433 461.665,285.933 462.247,285.430 462.828,284.926 463.410,284.419 463.992,283.909 464.574,283.398 465.156,282.884 465.738,282.368 466.319,281.849 466.901,281.328 467.483,280.805 468.065,280.280 468.647,279.752 469.229,279.222 469.810,278.689 470.392,278.154 470.974,277.617 471.556,277.078 472.138,276.536 472.720,275.992 473.301,275.445 473.883,274.896 474.465,274.345 475.047,273.791 475.629,273.235 476.211,272.677 476.792,272.116 477.374,271.553 477.956,270.987 478.538,270.419 479.120,269.849 479.702,269.276 480.283,268.701 480.865,268.124 481.447,267.544 482.029,266.962 482.611,266.377 483.193,265.790 483.774,265.201 484.356,264.609 484.938,264.015 485.520,263.419 486.102,262.820 486.684,262.218 487.265,261.615 487.847,261.009 488.429,260.400 489.011,259.789 489.593,259.176 490.175,258.561 490.756,257.943 491.338,257.322 491.920,256.700 492.502,256.075 493.084,255.447 493.666,254.817 494.247,254.185 494.829,253.550 495.411,252.913 495.993,252.274 496.575,251.632 497.157,250.988 497.738,250.342 498.320,249.693 498.902,249.042 499.484,248.389 500.066,247.733 500.648,247.075 501.229,246.415 501.811,245.752 502.393,245.087 502.975,244.420 503.557,243.750 504.139,243.078 504.720,242.404 505.302,241.727 505.884,241.049 506.466,240.367 507.048,239.684 507.630,238.999 508.211,238.311 508.793,237.621 509.375,236.928 509.957,236.234 510.539,235.537 511.120,234.838 511.702,234.137 512.284,233.434 512.866,232.728 513.448,232.021 514.030,231.311 514.611,230.599 515.193,229.885 515.775,229.169 516.357,228.451 516.939,227.730 517.521,227.008 518.102,226.283 518.684,225.557 519.266,224.828 519.848,224.097 520.430,223.365 521.012,222.630 521.593,221.894 522.175,221.155 522.757,220.414 523.339,219.672 523.921,218.928 524.503,218.181 525.084,217.433 525.666,216.683 526.248,215.931 526.830,215.178 527.412,214.422 527.994,213.665 528.575,212.906 529.157,212.145 529.739,211.382 530.321,210.618 530.903,209.852 531.485,209.085 532.066,208.316 532.648,207.545 533.230,206.772 533.812,205.998 534.394,205.223 534.976,204.446 535.557,203.667 536.139,202.887 536.721,202.106 537.303,201.323 537.885,200.539 538.467,199.753 539.048,198.966 539.630,198.178 540.212,197.389 540.794,196.598 541.376,195.806 541.958,195.013 542.539,194.219 543.121,193.424 543.703,192.627 544.285,191.830 544.867,191.031 545.449,190.232 546.030,189.432 546.612,188.631 547.194,187.829 547.776,187.026 548.358,186.222 548.940,185.418 549.521,184.612 550.103,183.807 550.685,183.000 551.267,182.193 551.849,181.386 552.431,180.578 553.012,179.769 553.594,178.961 554.176,178.151 554.758,177.342 555.340,176.532 555.922,175.722 556.503,174.912 557.085,174.102 557.667,173.292 558.249,172.481 558.831,171.671 559.413,170.861 559.994,170.051 560.576,169.241 561.158,168.431 561.740,167.622 562.322,166.813 562.904,166.005 563.485,165.197 564.067,164.389 564.649,163.582 565.231,162.776 565.813,161.971 566.395,161.166 566.976,160.362 567.558,159.559 568.140,158.758 568.722,157.957 569.304,157.157 569.886,156.359 570.467,155.562 571.049,154.766 571.631,153.971 572.213,153.178 572.795,152.387 573.377,151.597 573.958,150.809 574.540,150.023 575.122,149.239 575.704,148.457 576.286,147.676 576.867,146.898 577.449,146.122 578.031,145.349 578.613,144.577 579.195,143.808 579.777,143.042 580.358,142.279 580.940,141.518 581.522,140.760 582.104,140.005 582.686,139.253 583.268,138.504 583.849,137.758 584.431,137.016 585.013,136.277 585.595,135.542 586.177,134.810 586.759,134.082 587.340,133.358 587.922,132.637 588.504,131.921 589.086,131.209 589.668,130.502 590.250,129.798 590.831,129.100 591.413,128.406 591.995,127.716 592.577,127.032 593.159,126.353 593.741,125.678 594.322,125.009 594.904,124.346 595.486,123.688 596.068,123.035 596.650,122.389 597.232,121.748 597.813,121.113 598.395,120.485 598.977,119.863 599.559,119.247 600.141,118.638 600.723,118.036 601.304,117.440 601.886,116.852 602.468,116.271 603.050,115.697 603.632,115.131 604.214,114.573 604.795,114.022 605.377,113.479 605.959,112.945 606.541,112.419 607.123,111.901 607.705,111.392 608.286,110.892 608.868,110.401 609.450,109.919 610.032,109.447 610.614,108.984 611.196,108.531 611.777,108.088 612.359,107.655 612.941,107.232 613.523,106.820 614.105,106.418 614.687,106.028 615.268,105.648 615.850,105.280 616.432,104.924 617.014,104.579 617.596,104.246 618.178,103.925 618.759,103.617 619.341,103.321 619.923,103.038 620.505,102.768 621.087,102.511 621.669,102.268 622.250,102.039 622.832,101.823 623.414,101.622 623.996,101.435 624.578,101.263 625.160,101.106 625.741,100.964 626.323,100.837 626.905,100.726 627.487,100.632 628.069,100.553 628.651,100.491 629.232,100.445 629.814,100.417 630.396,100.406 630.978,100.413 631.560,100.437 632.142,100.480 632.723,100.541 633.305,100.621 633.887,100.720 634.469,100.839 635.051,100.977 635.633,101.135 636.214,101.313 636.796,101.512 637.378,101.732 637.960,101.973 638.542,102.235 639.123,102.520 639.705,102.826 640.287,103.156 640.869,103.508 641.451,103.884 642.033,104.283 642.614,104.706 643.196,105.153 643.778,105.625 644.360,106.123 644.942,106.645 645.524,107.194 646.105,107.768 646.687,108.370 647.269,108.998 647.851,109.653 648.433,110.337 649.015,111.048 649.596,111.788 650.178,112.558 650.760,113.356 651.342,114.184 651.924,115.043 652.506,115.932 653.087,116.853 653.669,117.805 654.251,118.789 654.833,119.805 655.415,120.855 655.997,121.938 656.578,123.054 657.160,124.206 657.742,125.392 658.324,126.613 658.906,127.870 659.488,129.163 660.069,130.493 660.651,131.861 661.233,133.266 661.815,134.710 662.397,136.192 662.979,137.714 663.560,139.276 664.142,140.878 664.724,142.522 665.306,144.206 665.888,145.934 666.470,147.703 667.051,149.517 667.633,151.374 668.215,153.275 668.797,155.222 669.379,157.214 669.961,159.252 670.542,161.338 671.124,163.470 671.706,165.651 672.288,167.881 672.870,170.160 673.452,172.490 674.033,174.870 674.615,177.301 675.197,179.785 675.779,182.321 676.361,184.910 676.943,187.554 677.524,190.253 678.106,193.007 678.688,195.817 679.270,198.685 679.852,201.610 680.434,204.593 681.015,207.636 681.597,210.739 682.179,213.902 682.761,217.127 683.343,220.415 683.925,223.765 684.506,227.179 685.088,230.658 685.670,234.203 686.252,237.814 686.834,241.492 687.416,245.238 687.997,249.053 688.579,252.938 689.161,256.894 689.743,260.921 690.325,265.020 690.907,269.193 691.488,273.440 692.070,277.762 692.652,282.160 693.234,286.635 693.816,291.189 694.398,295.821 694.979,300.533 695.561,305.326 696.143,310.201 696.725,315.159 697.307,320.201 697.889,325.328 698.470,330.541 699.052,335.841 699.634,341.229 700.216,346.706 700.798,352.273 701.380,357.932 701.961,363.684 702.543,369.529 703.125,375.469 "/>
<g>
</g>
</g>
<g id="ID000003" clip-path="url(#ID000001)" >
      <polyline fill="none" stroke="#000000" stroke-width="0.5pt" stroke-dasharray="8.0,2.0" points="121.875,364.404 122.457,364.330 123.039,364.255 123.620,364.180 124.202,364.105 124.784,364.029 125.366,363.952 125.948,363.875 126.530,363.798 127.111,363.720 127.693,363.641 128.275,363.562 128.857,363.483 129.439,363.403 130.021,363.322 130.602,363.241 131.184,363.160 131.766,363.078 132.348,362.995 132.930,362.912 133.512,362.829 134.093,362.744 134.675,362.660 135.257,362.574 135.839,362.489 136.421,362.402 137.003,362.315 137.584,362.228 138.166,362.140 138.748,362.051 139.330,361.962 139.912,361.873 140.494,361.782 141.075,361.691 141.657,361.600 142.239,361.508 142.821,361.416 143.403,361.322 143.985,361.229 144.566,361.134 145.148,361.039 145.730,360.944 146.312,360.848 146.894,360.751 147.476,360.654 148.057,360.556 148.639,360.457 149.221,360.358 149.803,360.258 150.385,360.158 150.967,360.057 151.548,359.955 152.130,359.852 152.712,359.749 153.294,359.646 153.876,359.541 154.458,359.437 155.039,359.331 155.621,359.225 156.203,359.118 156.785,359.010 157.367,358.902 157.949,358.793 158.530,358.683 159.112,358.573 159.694,358.462 160.276,358.350 160.858,358.238 161.440,358.125 162.021,358.011 162.603,357.896 163.185,357.781 163.767,357.665 164.349,357.548 164.931,357.431 165.512,357.313 166.094,357.194 166.676,357.074 167.258,356.954 167.840,356.833 168.422,356.711 169.003,356.589 169.585,356.465 170.167,356.341 170.749,356.216 171.331,356.091 171.913,355.964 172.494,355.837 173.076,355.709 173.658,355.580 174.240,355.451 174.822,355.320 175.404,355.189 175.985,355.057 176.567,354.924 177.149,354.791 177.731,354.656 178.313,354.521 178.895,354.385 179.476,354.248 180.058,354.110 180.640,353.972 181.222,353.832 181.804,353.692 182.386,353.551 182.967,353.409 183.549,353.266 184.131,353.122 184.713,352.977 185.295,352.832 185.877,352.685 186.458,352.538 187.040,352.390 187.622,352.241 188.204,352.091 188.786,351.940 189.367,351.788 189.949,351.635 190.531,351.482 191.113,351.327 191.695,351.172 192.277,351.015 192.858,350.858 193.440,350.699 194.022,350.540 194.604,350.380 195.186,350.218 195.768,350.056 196.349,349.893 196.931,349.729 197.513,349.564 198.095,349.397 198.677,349.230 199.259,349.062 199.840,348.893 200.422,348.723 201.004,348.552 201.586,348.379 202.168,348.206 202.750,348.032 203.331,347.856 203.913,347.680 204.495,347.503 205.077,347.324 205.659,347.145 206.241,346.964 206.822,346.782 207.404,346.600 207.986,346.416 208.568,346.231 209.150,346.045 209.732,345.858 210.313,345.669 210.895,345.480 211.477,345.290 212.059,345.098 212.641,344.905 213.223,344.711 213.804,344.516 214.386,344.320 214.968,344.123 215.550,343.924 216.132,343.725 216.714,343.524 217.295,343.322 217.877,343.119 218.459,342.914 219.041,342.709 219.623,342.502 220.205,342.294 220.786,342.085 221.368,341.875 221.950,341.663 222.532,341.450 223.114,341.236 223.696,341.021 224.277,340.804 224.859,340.586 225.441,340.367 226.023,340.147 226.605,339.925 227.187,339.702 227.768,339.478 228.350,339.253 228.932,339.026 229.514,338.798 230.096,338.568 230.678,338.338 231.259,338.106 231.841,337.872 232.423,337.637 233.005,337.401 233.587,337.164 234.169,336.925 234.750,336.685 235.332,336.443 235.914,336.201 236.496,335.956 237.078,335.711 237.660,335.464 238.241,335.215 238.823,334.965 239.405,334.714 239.987,334.461 240.569,334.207 241.151,333.952 241.732,333.695 242.314,333.436 242.896,333.176 243.478,332.915 244.060,332.652 244.642,332.388 245.223,332.122 245.805,331.855 246.387,331.586 246.969,331.315 247.551,331.044 248.133,330.770 248.714,330.495 249.296,330.219 249.878,329.941 250.460,329.662 251.042,329.381 251.623,329.098 252.205,328.814 252.787,328.528 253.369,328.241 253.951,327.952 254.533,327.662 255.114,327.370 255.696,327.076 256.278,326.781 256.860,326.484 257.442,326.185 258.024,325.885 258.605,325.583 259.187,325.280 259.769,324.975 260.351,324.668 260.933,324.360 261.515,324.050 262.096,323.738 262.678,323.424 263.260,323.109 263.842,322.792 264.424,322.474 265.006,322.153 265.587,321.831 266.169,321.508 266.751,321.182 267.333,320.855 267.915,320.526 268.497,320.195 269.078,319.862 269.660,319.528 270.242,319.192 270.824,318.854 271.406,318.515 271.988,318.173 272.569,317.830 273.151,317.485 273.733,317.138 274.315,316.789 274.897,316.439 275.479,316.086 276.060,315.732 276.642,315.376 277.224,315.018 277.806,314.658 278.388,314.296 278.970,313.932 279.551,313.567 280.133,313.199 280.715,312.830 281.297,312.459 281.879,312.086 282.461,311.711 283.042,311.334 283.624,310.955 284.206,310.574 284.788,310.191 285.370,309.806 285.952,309.419 286.533,309.030 287.115,308.640 287.697,308.247 288.279,307.852 288.861,307.455 289.443,307.057 290.024,306.656 290.606,306.253 291.188,305.848 291.770,305.441 292.352,305.032 292.934,304.621 293.515,304.208 294.097,303.793 294.679,303.376 295.261,302.957 295.843,302.536 296.425,302.112 297.006,301.687 297.588,301.259 298.170,300.830 298.752,300.398 299.334,299.964 299.916,299.528 300.497,299.090 301.079,298.649 301.661,298.207 302.243,297.762 302.825,297.316 303.407,296.867 303.988,296.416 304.570,295.962 305.152,295.507 305.734,295.049 306.316,294.590 306.898,294.128 307.479,293.663 308.061,293.197 308.643,292.728 309.225,292.258 309.807,291.785 310.389,291.309 310.970,290.832 311.552,290.352 312.134,289.870 312.716,289.386 313.298,288.899 313.880,288.411 314.461,287.920 315.043,287.426 315.625,286.931 316.207,286.433 316.789,285.933 317.370,285.430 317.952,284.926 318.534,284.419 319.116,283.909 319.698,283.398 320.280,282.884 320.861,282.368 321.443,281.849 322.025,281.328 322.607,280.805 323.189,280.280 323.771,279.752 324.352,279.222 324.934,278.689 325.516,278.154 326.098,277.617 326.680,277.078 327.262,276.536 327.843,275.992 328.425,275.445 329.007,274.896 329.589,274.345 330.171,273.791 330.753,273.235 331.334,272.677 331.916,272.116 332.498,271.553 333.080,270.987 333.662,270.419 334.244,269.849 334.825,269.276 335.407,268.701 335.989,268.124 336.571,267.544 337.153,266.962 337.735,266.377 338.316,265.790 338.898,265.201 339.480,264.609 340.062,264.015 340.644,263.419 341.226,262.820 341.807,262.218 342.389,261.615 342.971,261.009 343.553,260.400 344.135,259.789 344.717,259.176 345.298,258.561 345.880,257.943 346.462,257.322 347.044,256.700 347.626,256.075 348.208,255.447 348.789,254.817 349.371,254.185 349.953,253.550 350.535,252.913 351.117,252.274 351.699,251.632 352.280,250.988 352.862,250.342 353.444,249.693 354.026,249.042 354.608,248.389 355.190,247.733 355.771,247.075 356.353,246.415 356.935,245.752 357.517,245.087 358.099,244.420 358.681,243.750 359.262,243.078 359.844,242.404 360.426,241.727 361.008,241.049 361.590,240.367 362.172,239.684 362.753,238.999 363.335,238.311 363.917,237.621 364.499,236.928 365.081,236.234 365.663,235.537 366.244,234.838 366.826,234.137 367.408,233.434 367.990,232.728 368.572,232.021 369.154,231.311 369.735,230.599 370.317,229.885 370.899,229.169 371.481,228.451 372.063,227.730 372.645,227.008 373.226,226.283 373.808,225.557 374.390,224.828 374.972,224.097 375.554,223.365 376.136,222.630 376.717,221.894 377.299,221.155 377.881,220.414 378.463,219.672 379.045,218.928 379.627,218.181 380.208,217.433 380.790,216.683 381.372,215.931 381.954,215.178 382.536,214.422 383.117,213.665 383.699,212.906 384.281,212.145 384.863,211.382 385.445,210.618 386.027,209.852 386.608,209.085 387.190,208.316 387.772,207.545 388.354,206.772 388.936,205.998 389.518,205.223 390.099,204.446 390.681,203.667 391.263,202.887 391.845,202.106 392.427,201.323 393.009,200.539 393.590,199.753 394.172,198.966 394.754,198.178 395.336,197.389 395.918,196.598 396.500,195.806 397.081,195.013 397.663,194.219 398.245,193.424 398.827,192.627 399.409,191.830 399.991,191.031 400.572,190.232 401.154,189.432 401.736,188.631 402.318,187.829 402.900,187.026 403.482,186.222 404.063,185.418 404.645,184.612 405.227,183.807 405.809,183.000 406.391,182.193 406.973,181.386 407.554,180.578 408.136,179.769 408.718,178.961 409.300,178.151 409.882,177.342 410.464,176.532 411.045,175.722 411.627,174.912 412.209,174.102 412.791,173.292 413.373,172.481 413.955,171.671 414.536,170.861 415.118,170.051 415.700,169.241 416.282,168.431 416.864,167.622 417.446,166.813 418.027,166.005 418.609,165.197 419.191,164.389 419.773,163.582 420.355,162.776 420.937,161.971 421.518,161.166 422.100,160.362 422.682,159.559 423.264,158.758 423.846,157.957 424.428,157.157 425.009,156.359 425.591,155.562 426.173,154.766 426.755,153.971 427.337,153.178 427.919,152.387 428.500,151.597 429.082,150.809 429.664,150.023 430.246,149.239 430.828,148.457 431.410,147.676 431.991,146.898 432.573,146.122 433.155,145.349 433.737,144.577 434.319,143.808 434.901,143.042 435.482,142.279 436.064,141.518 436.646,140.760 437.228,140.005 437.810,139.253 438.392,138.504 438.973,137.758 439.555,137.016 440.137,136.277 440.719,135.542 441.301,134.810 441.883,134.082 442.464,133.358 443.046,132.637 443.628,131.921 444.210,131.209 444.792,130.502 445.373,129.798 445.955,129.100 446.537,128.406 447.119,127.716 447.701,127.032 448.283,126.353 448.864,125.678 449.446,125.009 450.028,124.346 450.610,123.688 451.192,123.035 451.774,122.389 452.355,121.748 452.937,121.113 453.519,120.485 454.101,119.863 454.683,119.247 455.265,118.638 455.846,118.036 456.428,117.440 457.010,116.852 457.592,116.271 458.174,115.697 458.756,115.131 459.337,114.573 459.919,114.022 460.501,113.479 461.083,112.945 461.665,112.419 462.247,111.901 462.828,111.392 463.410,110.892 463.992,110.401 464.574,109.919 465.156,109.447 465.738,108.984 466.319,108.531 466.901,108.088 467.483,107.655 468.065,107.232 468.647,106.820 469.229,106.418 469.810,106.028 470.392,105.648 470.974,105.280 471.556,104.924 472.138,104.579 472.720,104.246 473.301,103.925 473.883,103.617 474.465,103.321 475.047,103.038 475.629,102.768 476.211,102.511 476.792,102.268 477.374,102.039 477.956,101.823 478.538,101.622 479.120,101.435 479.702,101.263 480.283,101.106 480.865,100.964 481.447,100.837 482.029,100.726 482.611,100.632 483.193,100.553 483.774,100.491 484.356,100.445 484.938,100.417 485.520,100.406 486.102,100.413 486.684,100.437 487.265,100.480 487.847,100.541 488.429,100.621 489.011,100.720 489.593,100.839 490.175,100.977 490.756,101.135 491.338,101.313 491.920,101.512 492.502,101.732 493.084,101.973 493.666,102.235 494.247,102.520 494.829,102.826 495.411,103.156 495.993,103.508 496.575,103.884 497.157,104.283 497.738,104.706 498.320,105.153 498.902,105.625 499.484,106.123 500.066,106.645 500.648,107.194 501.229,107.768 501.811,108.370 502.393,108.998 502.975,109.653 503.557,110.337 504.139,111.048 504.720,111.788 505.302,112.558 505.884,113.356 506.466,114.184 507.048,115.043 507.630,115.932 508.211,116.853 508.793,117.805 509.375,118.789 509.957,119.805 510.539,120.855 511.120,121.938 511.702,123.054 512.284,124.206 512.866,125.392 513.448,126.613 514.030,127.870 514.611,129.163 515.193,130.493 515.775,131.861 516.357,133.266 516.939,134.710 517.521,136.192 518.102,137.714 518.684,139.276 519.266,140.878 519.848,142.522 520.430,144.206 521.012,145.934 521.593,147.703 522.175,149.517 522.757,151.374 523.339,153.275 523.921,155.222 524.503,157.214 525.084,159.252 525.666,161.338 526.248,163.470 526.830,165.651 527.412,167.881 527.994,170.160 528.575,172.490 529.157,174.870 529.739,177.301 530.321,179.785 530.903,182.321 531.485,184.910 532.066,187.554 532.648,190.253 533.230,193.007 533.812,195.817 534.394,198.685 534.976,201.610 535.557,204.593 536.139,207.636 536.721,210.739 537.303,213.902 537.885,217.127 538.467,220.415 539.048,223.765 539.630,227.179 540.212,230.658 540.794,234.203 541.376,237.814 541.958,241.492 542.539,245.238 543.121,249.053 543.703,252.938 544.285,256.894 544.867,260.921 545.449,265.020 546.030,269.193 546.612,273.440 547.194,277.762 547.776,282.160 548.358,286.635 548.940,291.189 549.521,295.821 550.103,300.533 550.685,305.326 551.267,310.201 551.849,315.159 552.431,320.201 553.012,325.328 553.594,330.541 554.176,335.841 554.758,341.229 555.340,346.706 555.922,352.273 556.503,357.932 557.085,363.684 557.667,369.529 558.249,375.469 "/>
<g>
</g>
</g>
<g id="ID000004" >
  <g transform="translate(484.219,406.391)">
    <g transform="rotate(-0.0)">
      <text x="0.000" y="0.000" font-family="Times New Roman" text-anchor="middle" font-size="9pt" fill="#000000" >Temperature</text>
    </g>
  </g>
</g>
<g id="ID000005" >
  <g transform="translate(92.812,204.492)">
    <g transform="rotate(-90.0)">
      <text x="0.000" y="0.000" font-family="Times New Roman" text-anchor="middle" font-size="9pt" fill="#000000" >Swelling Function</text>
    </g>
  </g>
</g>
<g id="ID000006" >
</g>
<g id="ID000007" >
</g>
<g id="ID000008" >
</g>
    </g>
    <g>
      <polyline fill="none" stroke="#000000" stroke-width="0.5pt" stroke-dasharray="none" points="267.188,375.469 267.188,368.203 "/>
      <polyline fill="none" stroke="#000000" stroke-width="0.5pt" stroke-dasharray="none" points="412.500,375.469 412.500,368.203 "/>
      <polyline fill="none" stroke="#000000" stroke-width="0.5pt" stroke-dasharray="none" points="557.813,375.469 557.813,368.203 "/>
      <polyline fill="none" stroke="#000000" stroke-width="0.5pt" stroke-dasharray="none" points="703.125,375.469 703.125,368.203 "/>
      <polyline fill="none" stroke="#000000" stroke-width="0.5pt" stroke-dasharray="none" points="121.875,375.469 848.438,375.469 "/>
      <polyline fill="none" stroke="#000000" stroke-width="0.5pt" stroke-dasharray="none" points="267.188,31.641 267.188,38.906 "/>
      <polyline fill="none" stroke="#000000" stroke-width="0.5pt" stroke-dasharray="none" points="412.500,31.641 412.500,38.906 "/>
      <polyline fill="none" stroke="#000000" stroke-width="0.5pt" stroke-dasharray="none" points="557.813,31.641 557.813,38.906 "/>
      <polyline fill="none" stroke="#000000" stroke-width="0.5pt" stroke-dasharray="none" points="703.125,31.641 703.125,38.906 "/>
      <polyline fill="none" stroke="#000000" stroke-width="0.5pt" stroke-dasharray="none" points="121.875,31.641 848.438,31.641 "/>
  <g transform="translate(121.875,393.408)">
    <g transform="rotate(-0.0)">
      <text x="0.000" y="0.000" font-family="Times New Roman" text-anchor="middle" font-size="9pt" fill="#000000" >0</text>
    </g>
  </g>
  <g transform="translate(267.188,393.408)">
    <g transform="rotate(-0.0)">
      <text x="0.000" y="0.000" font-family="Times New Roman" text-anchor="middle" font-size="9pt" fill="#000000" >200</text>
    </g>
  </g>
  <g transform="translate(412.500,393.408)">
    <g transform="rotate(-0.0)">
      <text x="0.000" y="0.000" font-family="Times New Roman" text-anchor="middle" font-size="9pt" fill="#000000" >400</text>
    </g>
  </g>
  <g transform="translate(557.813,393.408)">
    <g transform="rotate(-0.0)">
      <text x="0.000" y="0.000" font-family="Times New Roman" text-anchor="middle" font-size="9pt" fill="#000000" >600</text>
    </g>
  </g>
  <g transform="translate(703.125,393.408)">
    <g transform="rotate(-0.0)">
      <text x="0.000" y="0.000" font-family="Times New Roman" text-anchor="middle" font-size="9pt" fill="#000000" >800</text>
    </g>
  </g>
  <g transform="translate(848.438,393.408)">
    <g transform="rotate(-0.0)">
      <text x="0.000" y="0.000" font-family="Times New Roman" text-anchor="middle" font-size="9pt" fill="#000000" >1000</text>
    </g>
  </g>
      <polyline fill="none" stroke="#000000" stroke-width="0.5pt" stroke-dasharray="none" points="121.875,320.456 129.141,320.456 "/>
      <polyline fill="none" stroke="#000000" stroke-width="0.5pt" stroke-dasharray="none" points="121.875,265.444 129.141,265.444 "/>
      <polyline fill="none" stroke="#000000" stroke-width="0.5pt" stroke-dasharray="none" points="121.875,210.431 129.141,210.431 "/>
      <polyline fill="none" stroke="#000000" stroke-width="0.5pt" stroke-dasharray="none" points="121.875,155.419 129.141,155.419 "/>
      <polyline fill="none" stroke="#000000" stroke-width="0.5pt" stroke-dasharray="none" points="121.875,100.406 129.141,100.406 "/>
      <polyline fill="none" stroke="#000000" stroke-width="0.5pt" stroke-dasharray="none" points="121.875,45.394 129.141,45.394 "/>
      <polyline fill="none" stroke="#000000" stroke-width="0.5pt" stroke-dasharray="none" points="121.875,375.469 121.875,31.641 "/>
      <polyline fill="none" stroke="#000000" stroke-width="0.5pt" stroke-dasharray="none" points="848.438,320.456 841.172,320.456 "/>
      <polyline fill="none" stroke="#000000" stroke-width="0.5pt" stroke-dasharray="none" points="848.438,265.444 841.172,265.444 "/>
      <polyline fill="none" stroke="#000000" stroke-width="0.5pt" stroke-dasharray="none" points="848.438,210.431 841.172,210.431 "/>
      <polyline fill="none" stroke="#000000" stroke-width="0.5pt" stroke-dasharray="none" points="848.438,155.419 841.172,155.419 "/>
      <polyline fill="none" stroke="#000000" stroke-width="0.5pt" stroke-dasharray="none" points="848.438,100.406 841.172,100.406 "/>
      <polyline fill="none" stroke="#000000" stroke-width="0.5pt" stroke-dasharray="none" points="848.438,45.394 841.172,45.394 "/>
      <polyline fill="none" stroke="#000000" stroke-width="0.5pt" stroke-dasharray="none" points="848.438,375.469 848.438,31.641 "/>
  <g transform="translate(107.344,379.688)">
    <g transform="rotate(-0.0)">
      <text x="0.000" y="0.000" font-family="Times New Roman" text-anchor="end" font-size="9pt" fill="#000000" >0</text>
    </g>
  </g>
  <g transform="translate(107.344,324.675)">
    <g transform="rotate(-0.0)">
      <text x="0.000" y="0.000" font-family="Times New Roman" text-anchor="end" font-size="9pt" fill="#000000" >0.2</text>
    </g>
  </g>
  <g transform="translate(107.344,269.662)">
    <g transform="rotate(-0.0)">
      <text x="0.000" y="0.000" font-family="Times New Roman" text-anchor="end" font-size="9pt" fill="#000000" >0.4</text>
    </g>
  </g>
  <g transform="translate(107.344,214.650)">
    <g transform="rotate(-0.0)">
      <text x="0.000" y="0.000" font-family="Times New Roman" text-anchor="end" font-size="9pt" fill="#000000" >0.6</text>
    </g>
  </g>
  <g transform="translate(107.344,159.637)">
    <g transform="rotate(-0.0)">
      <text x="0.000" y="0.000" font-family="Times New Roman" text-anchor="end" font-size="9pt" fill="#000000" >0.8</text>
    </g>
  </g>
  <g transform="translate(107.344,104.625)">
    <g transform="rotate(-0.0)">
      <text x="0.000" y="0.000" font-family="Times New Roman" text-anchor="end" font-size="9pt" fill="#000000" >1</text>
    </g>
  </g>
  <g transform="translate(107.344,49.612)">
    <g transform="rotate(-0.0)">
      <text x="0.000" y="0.000" font-family="Times New Roman" text-anchor="end" font-size="9pt" fill="#000000" >1.2</text>
    </g>
  </g>
      <polyline fill="none" stroke="#000000" stroke-width="0.5pt" stroke-dasharray="none" points="121.875,375.469 121.875,372.030 "/>
      <polyline fill="none" stroke="#000000" stroke-width="0.5pt" stroke-dasharray="none" points="121.875,375.469 121.875,375.469 "/>
    </g>
  </g>
  <g id ="ID000009">
  <clipPath id="ID000010">
    <rect x="714.219" y="38.594" width="129.375" height="58.125"/>
  </clipPath>
      <polygon fill="#ffffff" fill-opacity="1.00" stroke="none" stroke-width="0.5pt" stroke-opacity="1.00" stroke-dasharray="none" points="714.219,96.719 843.594,96.719 843.594,38.594 714.219,38.594 "/>
      <polygon fill="#ffffff" fill-opacity="1.00" stroke="none" stroke-width="0.5pt" stroke-opacity="1.00" stroke-dasharray="none" points="714.219,38.594 843.594,38.594 843.594,38.594 714.219,38.594 "/>
      <polygon fill="#ffffff" fill-opacity="1.00" stroke="none" stroke-width="0.5pt" stroke-opacity="1.00" stroke-dasharray="none" points="714.219,96.719 714.219,96.719 714.219,38.594 714.219,38.594 "/>
    <g>
<g id="ID000011" >
  <g transform="translate(763.438,59.219)">
    <g transform="rotate(-0.0)">
      <text x="0.000" y="0.000" font-family="Times New Roman" text-anchor="start" font-size="9pt" fill="#000000" ><tspan>10</tspan><tspan dy="-4.7pt" font-size="7pt">-3</tspan><tspan dy="4.7pt" font-size="9pt"> dpa/sec</tspan></text>
    </g>
  </g>
</g>
<g id="ID000012" clip-path="url(#ID000010)" >
      <polyline fill="none" stroke="#000000" stroke-width="0.5pt" stroke-dasharray="none" points="721.719,54.219 759.219,54.219 "/>
<g>
</g>
</g>
<g id="ID000013" clip-path="url(#ID000010)" >
<g>
</g>
</g>
<g id="ID000014" >
  <g transform="translate(763.438,86.406)">
    <g transform="rotate(-0.0)">
      <text x="0.000" y="0.000" font-family="Times New Roman" text-anchor="start" font-size="9pt" fill="#000000" ><tspan>10</tspan><tspan dy="-4.7pt" font-size="7pt">-6</tspan><tspan dy="4.7pt" font-size="9pt"> dpa/sec</tspan></text>
    </g>
  </g>
</g>
<g id="ID000015" clip-path="url(#ID000010)" >
      <polyline fill="none" stroke="#000000" stroke-width="0.5pt" stroke-dasharray="8.0,2.0" points="721.719,81.094 759.219,81.094 "/>
<g>
</g>
</g>
<g id="ID000016" clip-path="url(#ID000010)" >
<g>
</g>
</g>
<g id="ID000017" >
</g>
<g id="ID000018" >
</g>
<g id="ID000019" >
</g>
    </g>
    <g>
      <polyline fill="none" stroke="#000000" stroke-width="0.5pt" stroke-dasharray="none" points="714.219,96.719 843.594,96.719 "/>
      <polyline fill="none" stroke="#000000" stroke-width="0.5pt" stroke-dasharray="none" points="714.219,38.594 843.594,38.594 "/>
      <polyline fill="none" stroke="#000000" stroke-width="0.5pt" stroke-dasharray="none" points="714.219,96.719 714.219,38.594 "/>
      <polyline fill="none" stroke="#000000" stroke-width="0.5pt" stroke-dasharray="none" points="843.594,96.719 843.594,38.594 "/>
      <polyline fill="none" stroke="#000000" stroke-width="0.5pt" stroke-dasharray="none" points="714.219,96.719 714.219,96.137 "/>
      <polyline fill="none" stroke="#000000" stroke-width="0.5pt" stroke-dasharray="none" points="714.219,96.719 714.219,96.719 "/>
    </g>
  </g>
  </g>
</svg>
