<?xml version="1.0" encoding="UTF-8" standalone="no"?>
<svg
   xmlns:dc="http://purl.org/dc/elements/1.1/"
   xmlns:cc="http://creativecommons.org/ns#"
   xmlns:rdf="http://www.w3.org/1999/02/22-rdf-syntax-ns#"
   xmlns:svg="http://www.w3.org/2000/svg"
   xmlns="http://www.w3.org/2000/svg"
   xmlns:sodipodi="http://sodipodi.sourceforge.net/DTD/sodipodi-0.dtd"
   xmlns:inkscape="http://www.inkscape.org/namespaces/inkscape"
   preserveAspectRatio="xMinYMin meet"
   width="100%"
   height="100%"
   viewBox="0 0 937.500 421.875"
   version="1.1"
   id="svg2"
   inkscape:version="0.48.4 r9939"
   sodipodi:docname="Electronic_Stopping_Plot.svg">
  <metadata
     id="metadata228">
    <rdf:RDF>
      <cc:Work
         rdf:about="">
        <dc:format>image/svg+xml</dc:format>
        <dc:type
           rdf:resource="http://purl.org/dc/dcmitype/StillImage" />
      </cc:Work>
    </rdf:RDF>
  </metadata>
  <defs
     id="defs226">
    <marker
       inkscape:stockid="Arrow1Mend"
       orient="auto"
       refY="0.0"
       refX="0.0"
       id="Arrow1Mend"
       style="overflow:visible;">
      <path
         id="path4123"
         d="M 0.0,0.0 L 5.0,-5.0 L -12.5,0.0 L 5.0,5.0 L 0.0,0.0 z "
         style="fill-rule:evenodd;stroke:#000000;stroke-width:1.0pt;"
         transform="scale(0.4) rotate(180) translate(10,0)" />
    </marker>
  </defs>
  <sodipodi:namedview
     pagecolor="#ffffff"
     bordercolor="#666666"
     borderopacity="1"
     objecttolerance="10"
     gridtolerance="10"
     guidetolerance="10"
     inkscape:pageopacity="0"
     inkscape:pageshadow="2"
     inkscape:window-width="1920"
     inkscape:window-height="1017"
     id="namedview224"
     showgrid="false"
     inkscape:zoom="1.8773333"
     inkscape:cx="385.65341"
     inkscape:cy="210.9375"
     inkscape:window-x="1912"
     inkscape:window-y="-8"
     inkscape:window-maximized="1"
     inkscape:current-layer="svg2" />
  <desc
     id="desc4">Matlab Figure Converted by PLOT2SVG written by Juerg Schwizer</desc>
  <g
     id="ID000000">
    <clipPath
       id="ID000001">
      <rect
         id="rect11"
         height="343.828"
         width="726.56299"
         y="31.641001"
         x="121.875" />
    </clipPath>
    <polygon
       style="fill:#000000;fill-opacity:0;stroke:none"
       id="polygon13"
       points="848.438,31.641 121.875,31.641 121.875,375.469 848.438,375.469 " />
    <polygon
       style="fill:#000000;fill-opacity:0;stroke:none"
       id="polygon15"
       points="848.438,31.641 121.875,31.641 121.875,31.641 848.438,31.641 " />
    <polygon
       style="fill:#000000;fill-opacity:0;stroke:none"
       id="polygon17"
       points="121.875,31.641 121.875,31.641 121.875,375.469 121.875,375.469 " />
    <g
       id="g19">
      <g
         clip-path="url(#ID000001)"
         id="ID000002">
        <polyline
           style="fill:none;stroke:#000000;stroke-width:0.5pt;stroke-dasharray:none"
           id="polyline22"
           points="121.875,306.703 122.602,305.899 123.330,305.109 124.057,304.334 124.784,303.574 125.511,302.828 126.239,302.096 126.966,301.379 127.693,300.676 128.421,299.987 129.148,299.312 129.875,298.651 130.602,298.004 131.330,297.371 132.057,296.751 132.784,296.144 133.512,295.551 134.239,294.971 134.966,294.404 135.694,293.850 136.421,293.309 137.148,292.781 137.875,292.265 138.603,291.762 139.330,291.272 140.057,290.794 140.785,290.328 141.512,289.875 142.239,289.433 142.966,289.004 143.694,288.586 144.421,288.180 145.148,287.786 145.876,287.403 146.603,287.032 147.330,286.672 148.057,286.323 148.785,285.985 149.512,285.658 150.239,285.342 150.967,285.037 151.694,284.743 152.421,284.459 153.148,284.186 153.876,283.923 154.603,283.670 155.330,283.427 156.058,283.194 156.785,282.972 157.512,282.759 158.239,282.556 158.967,282.362 159.694,282.178 160.421,282.003 161.149,281.838 161.876,281.682 162.603,281.535 163.331,281.397 164.058,281.267 164.785,281.147 165.512,281.035 166.240,280.932 166.967,280.837 167.694,280.750 168.422,280.672 169.149,280.601 169.876,280.539 170.603,280.485 171.331,280.438 172.058,280.399 172.785,280.368 173.513,280.344 174.240,280.328 174.967,280.319 175.694,280.317 176.422,280.322 177.149,280.334 177.876,280.352 178.604,280.378 179.331,280.410 180.058,280.449 180.785,280.494 181.513,280.545 182.240,280.603 182.967,280.666 183.695,280.736 184.422,280.812 185.149,280.893 185.877,280.980 186.604,281.072 187.331,281.170 188.058,281.274 188.786,281.382 189.513,281.496 190.240,281.614 190.968,281.738 191.695,281.866 192.422,282.000 193.149,282.137 193.877,282.279 194.604,282.426 195.331,282.577 196.059,282.732 196.786,282.891 197.513,283.054 198.240,283.221 198.968,283.391 199.695,283.566 200.422,283.743 201.150,283.925 201.877,284.109 202.604,284.297 203.331,284.488 204.059,284.682 204.786,284.878 205.513,285.078 206.241,285.280 206.968,285.485 207.695,285.692 208.422,285.901 209.150,286.113 209.877,286.327 210.604,286.543 211.332,286.761 212.059,286.981 212.786,287.202 213.514,287.425 214.241,287.650 214.968,287.876 215.695,288.103 216.423,288.332 217.150,288.561 217.877,288.792 218.605,289.023 219.332,289.255 220.059,289.488 220.786,289.721 221.514,289.955 222.241,290.189 222.968,290.423 223.696,290.657 224.423,290.892 225.150,291.126 225.877,291.360 226.605,291.594 227.332,291.827 228.059,292.060 228.787,292.293 229.514,292.524 230.241,292.755 230.968,292.984 231.696,293.213 232.423,293.441 233.150,293.667 233.878,293.892 234.605,294.115 235.332,294.337 236.059,294.557 236.787,294.775 237.514,294.991 238.241,295.206 238.969,295.418 239.696,295.628 240.423,295.836 241.151,296.041 241.878,296.243 242.605,296.443 243.332,296.641 244.060,296.835 244.787,297.026 245.514,297.215 246.242,297.400 246.969,297.582 247.696,297.760 248.423,297.935 249.151,298.106 249.878,298.274 250.605,298.438 251.333,298.597 252.060,298.753 252.787,298.905 253.514,299.052 254.242,299.195 254.969,299.334 255.696,299.468 256.424,299.597 257.151,299.721 257.878,299.841 258.605,299.955 259.333,300.065 260.060,300.169 260.787,300.268 261.515,300.362 262.242,300.450 262.969,300.532 263.697,300.609 264.424,300.679 265.151,300.744 265.878,300.803 266.606,300.855 267.333,300.902 268.060,300.941 268.788,300.975 269.515,301.002 270.242,301.022 270.969,301.035 271.697,301.041 272.424,301.040 273.151,301.033 273.879,301.017 274.606,300.995 275.333,300.965 276.060,300.928 276.788,300.883 277.515,300.830 278.242,300.769 278.970,300.700 279.697,300.623 280.424,300.538 281.151,300.445 281.879,300.343 282.606,300.233 283.333,300.114 284.061,299.986 284.788,299.850 285.515,299.704 286.242,299.550 286.970,299.386 287.697,299.213 288.424,299.031 289.152,298.839 289.879,298.638 290.606,298.427 291.334,298.206 292.061,297.975 292.788,297.734 293.515,297.483 294.243,297.222 294.970,296.951 295.697,296.669 296.425,296.376 297.152,296.073 297.879,295.759 298.606,295.434 299.334,295.099 300.061,294.752 300.788,294.394 301.516,294.025 302.243,293.644 302.970,293.252 303.697,292.848 304.425,292.433 305.152,292.005 305.879,291.567 306.607,291.117 307.334,290.656 308.061,290.184 308.788,289.701 309.516,289.207 310.243,288.702 310.970,288.186 311.698,287.659 312.425,287.123 313.152,286.575 313.880,286.018 314.607,285.450 315.334,284.872 316.061,284.285 316.789,283.687 317.516,283.079 318.243,282.462 318.971,281.836 319.698,281.200 320.425,280.554 321.152,279.899 321.880,279.236 322.607,278.563 323.334,277.881 324.062,277.190 324.789,276.491 325.516,275.783 326.243,275.067 326.971,274.342 327.698,273.609 328.425,272.867 329.153,272.118 329.880,271.361 330.607,270.595 331.334,269.822 332.062,269.042 332.789,268.253 333.516,267.458 334.244,266.655 334.971,265.844 335.698,265.027 336.425,264.203 337.153,263.371 337.880,262.533 338.607,261.688 339.335,260.837 340.062,259.979 340.789,259.114 341.517,258.244 342.244,257.367 342.971,256.484 343.698,255.595 344.426,254.700 345.153,253.800 345.880,252.893 346.608,251.982 347.335,251.064 348.062,250.142 348.789,249.214 349.517,248.281 350.244,247.343 350.971,246.400 351.699,245.453 352.426,244.500 353.153,243.543 353.880,242.582 354.608,241.616 355.335,240.646 356.062,239.671 356.790,238.693 357.517,237.711 358.244,236.724 358.971,235.734 359.699,234.741 360.426,233.743 361.153,232.743 361.881,231.739 362.608,230.731 363.335,229.721 364.063,228.708 364.790,227.691 365.517,226.672 366.244,225.650 366.972,224.626 367.699,223.599 368.426,222.570 369.154,221.538 369.881,220.504 370.608,219.469 371.335,218.431 372.063,217.391 372.790,216.350 373.517,215.307 374.245,214.262 374.972,213.216 375.699,212.169 376.426,211.120 377.154,210.070 377.881,209.019 378.608,207.968 379.336,206.915 380.063,205.862 380.790,204.808 381.517,203.754 382.245,202.699 382.972,201.644 383.699,200.589 384.427,199.534 385.154,198.479 385.881,197.424 386.608,196.369 387.336,195.314 388.063,194.260 388.790,193.207 389.518,192.154 390.245,191.102 390.972,190.051 391.700,189.001 392.427,187.952 393.154,186.904 393.881,185.858 394.609,184.813 395.336,183.769 396.063,182.727 396.791,181.687 397.518,180.648 398.245,179.612 398.972,178.577 399.700,177.545 400.427,176.515 401.154,175.487 401.882,174.462 402.609,173.439 403.336,172.419 404.063,171.402 404.791,170.388 405.518,169.376 406.245,168.368 406.973,167.363 407.700,166.361 408.427,165.363 409.154,164.368 409.882,163.376 410.609,162.389 411.336,161.405 412.064,160.426 412.791,159.450 413.518,158.478 414.245,157.511 414.973,156.548 415.700,155.589 416.427,154.636 417.155,153.686 417.882,152.742 418.609,151.802 419.337,150.868 420.064,149.938 420.791,149.014 421.518,148.095 422.246,147.181 422.973,146.273 423.700,145.371 424.428,144.474 425.155,143.583 425.882,142.698 426.609,141.819 427.337,140.947 428.064,140.080 428.791,139.220 429.519,138.366 430.246,137.519 430.973,136.679 431.700,135.845 432.428,135.018 433.155,134.199 433.882,133.386 434.610,132.580 435.337,131.782 436.064,130.992 436.791,130.208 437.519,129.433 438.246,128.665 438.973,127.905 439.701,127.153 440.428,126.409 441.155,125.673 441.883,124.945 442.610,124.226 443.337,123.515 444.064,122.813 444.792,122.120 445.519,121.435 446.246,120.759 446.974,120.092 447.701,119.434 448.428,118.786 449.155,118.147 449.883,117.517 450.610,116.896 451.337,116.286 452.065,115.685 452.792,115.094 453.519,114.513 454.246,113.942 454.974,113.381 455.701,112.830 456.428,112.290 457.156,111.760 457.883,111.241 458.610,110.732 459.337,110.234 460.065,109.747 460.792,109.271 461.519,108.807 462.247,108.353 462.974,107.911 463.701,107.480 464.428,107.061 465.156,106.653 465.883,106.257 466.610,105.873 467.338,105.501 468.065,105.141 468.792,104.793 469.520,104.457 470.247,104.134 470.974,103.823 471.701,103.525 472.429,103.239 473.156,102.966 473.883,102.706 474.611,102.460 475.338,102.226 476.065,102.005 476.792,101.798 477.520,101.604 478.247,101.424 478.974,101.257 479.702,101.104 480.429,100.965 481.156,100.840 481.883,100.729 482.611,100.632 483.338,100.550 484.065,100.481 484.793,100.428 485.520,100.388 486.247,100.364 486.974,100.354 487.702,100.358 488.429,100.377 489.156,100.410 489.884,100.456 490.611,100.517 491.338,100.592 492.066,100.681 492.793,100.784 493.520,100.900 494.247,101.030 494.975,101.173 495.702,101.330 496.429,101.500 497.157,101.683 497.884,101.879 498.611,102.088 499.338,102.310 500.066,102.545 500.793,102.793 501.520,103.054 502.248,103.327 502.975,103.612 503.702,103.910 504.429,104.220 505.157,104.542 505.884,104.876 506.611,105.223 507.339,105.581 508.066,105.951 508.793,106.333 509.520,106.726 510.248,107.131 510.975,107.548 511.702,107.975 512.430,108.414 513.157,108.864 513.884,109.326 514.611,109.798 515.339,110.281 516.066,110.775 516.793,111.279 517.521,111.795 518.248,112.320 518.975,112.856 519.703,113.403 520.430,113.960 521.157,114.526 521.884,115.103 522.612,115.690 523.339,116.287 524.066,116.893 524.794,117.510 525.521,118.135 526.248,118.771 526.975,119.415 527.703,120.069 528.430,120.733 529.157,121.405 529.885,122.086 530.612,122.777 531.339,123.476 532.066,124.184 532.794,124.900 533.521,125.625 534.248,126.359 534.976,127.101 535.703,127.851 536.430,128.610 537.157,129.377 537.885,130.151 538.612,130.934 539.339,131.724 540.067,132.522 540.794,133.328 541.521,134.142 542.248,134.962 542.976,135.791 543.703,136.626 544.430,137.469 545.158,138.318 545.885,139.175 546.612,140.039 547.340,140.909 548.067,141.786 548.794,142.670 549.521,143.560 550.249,144.457 550.976,145.360 551.703,146.270 552.431,147.185 553.158,148.107 553.885,149.034 554.612,149.968 555.340,150.907 556.067,151.852 556.794,152.803 557.522,153.759 558.249,154.720 558.976,155.687 559.703,156.659 560.431,157.636 561.158,158.619 561.885,159.606 562.613,160.598 563.340,161.595 564.067,162.597 564.794,163.603 565.522,164.613 566.249,165.629 566.976,166.648 567.704,167.672 568.431,168.699 569.158,169.731 569.886,170.767 570.613,171.806 571.340,172.850 572.067,173.897 572.795,174.947 573.522,176.001 574.249,177.059 574.977,178.119 575.704,179.183 576.431,180.250 577.158,181.320 577.886,182.393 578.613,183.469 579.340,184.548 580.068,185.629 580.795,186.713 581.522,187.799 582.249,188.887 582.977,189.978 583.704,191.071 584.431,192.166 585.159,193.263 585.886,194.363 586.613,195.463 587.340,196.566 588.068,197.670 588.795,198.776 589.522,199.883 590.250,200.991 590.977,202.101 591.704,203.212 592.431,204.324 593.159,205.437 593.886,206.551 594.613,207.666 595.341,208.781 596.068,209.897 596.795,211.014 597.523,212.130 598.250,213.248 598.977,214.365 599.704,215.483 600.432,216.601 601.159,217.718 601.886,218.836 602.614,219.953 603.341,221.070 604.068,222.187 604.795,223.303 605.523,224.418 606.250,225.533 606.977,226.647 607.705,227.760 608.432,228.872 609.159,229.983 609.886,231.093 610.614,232.202 611.341,233.309 612.068,234.415 612.796,235.520 613.523,236.623 614.250,237.724 614.977,238.823 615.705,239.921 616.432,241.016 617.159,242.109 617.887,243.201 618.614,244.290 619.341,245.376 620.069,246.460 620.796,247.542 621.523,248.621 622.250,249.697 622.978,250.771 623.705,251.841 624.432,252.909 625.160,253.973 625.887,255.034 626.614,256.092 627.341,257.147 628.069,258.198 628.796,259.245 629.523,260.289 630.251,261.330 630.978,262.366 631.705,263.398 632.432,264.427 633.160,265.451 633.887,266.471 634.614,267.487 635.342,268.498 636.069,269.505 636.796,270.507 637.523,271.505 638.251,272.498 638.978,273.486 639.705,274.469 640.433,275.447 641.160,276.420 641.887,277.388 642.614,278.350 643.342,279.307 644.069,280.259 644.796,281.205 645.524,282.145 646.251,283.079 646.978,284.008 647.706,284.930 648.433,285.847 649.160,286.757 649.887,287.661 650.615,288.559 651.342,289.451 652.069,290.335 652.797,291.214 653.524,292.085 654.251,292.950 654.978,293.808 655.706,294.659 656.433,295.502 657.160,296.339 657.888,297.168 658.615,297.990 659.342,298.805 660.069,299.612 660.797,300.411 661.524,301.203 662.251,301.987 662.979,302.763 663.706,303.531 664.433,304.291 665.160,305.042 665.888,305.786 666.615,306.521 667.342,307.247 668.070,307.965 668.797,308.675 669.524,309.376 670.252,310.069 670.979,310.754 671.706,311.430 672.433,312.098 673.161,312.758 673.888,313.409 674.615,314.053 675.343,314.688 676.070,315.315 676.797,315.934 677.524,316.545 678.252,317.148 678.979,317.743 679.706,318.330 680.434,318.909 681.161,319.480 681.888,320.043 682.615,320.599 683.343,321.146 684.070,321.686 684.797,322.219 685.525,322.743 686.252,323.260 686.979,323.769 687.706,324.271 688.434,324.765 689.161,325.251 689.888,325.730 690.616,326.202 691.343,326.666 692.070,327.123 692.797,327.572 693.525,328.014 694.252,328.448 694.979,328.876 695.707,329.296 696.434,329.709 697.161,330.114 697.889,330.513 698.616,330.904 699.343,331.289 700.070,331.666 700.798,332.036 701.525,332.399 702.252,332.755 702.980,333.105 703.707,333.447 704.434,333.783 705.161,334.111 705.889,334.433 706.616,334.748 707.343,335.057 708.071,335.358 708.798,335.653 709.525,335.942 710.252,336.223 710.980,336.498 711.707,336.767 712.434,337.029 713.162,337.285 713.889,337.534 714.616,337.776 715.343,338.013 716.071,338.243 716.798,338.466 717.525,338.684 718.253,338.895 718.980,339.099 719.707,339.298 720.434,339.490 721.162,339.677 721.889,339.857 722.616,340.031 723.344,340.199 724.071,340.361 724.798,340.517 725.526,340.667 726.253,340.812 726.980,340.950 727.707,341.082 728.435,341.209 729.162,341.330 729.889,341.445 730.617,341.555 731.344,341.658 732.071,341.756 732.798,341.849 733.526,341.936 734.253,342.017 734.980,342.093 735.708,342.163 736.435,342.227 737.162,342.287 737.889,342.341 738.617,342.389 739.344,342.432 740.071,342.470 740.799,342.503 741.526,342.530 742.253,342.553 742.980,342.569 743.708,342.581 744.435,342.588 745.162,342.590 745.890,342.586 746.617,342.578 747.344,342.564 748.072,342.546 748.799,342.523 749.526,342.494 750.253,342.461 750.981,342.423 751.708,342.381 752.435,342.333 753.163,342.281 753.890,342.224 754.617,342.162 755.344,342.096 756.072,342.025 756.799,341.950 757.526,341.870 758.254,341.785 758.981,341.696 759.708,341.603 760.435,341.505 761.163,341.403 761.890,341.296 762.617,341.185 763.345,341.070 764.072,340.951 764.799,340.827 765.526,340.699 766.254,340.567 766.981,340.431 767.708,340.291 768.436,340.146 769.163,339.998 769.890,339.846 770.617,339.689 771.345,339.529 772.072,339.365 772.799,339.197 773.527,339.025 774.254,338.849 774.981,338.670 775.709,338.486 776.436,338.299 777.163,338.109 777.890,337.915 778.618,337.717 779.345,337.515 780.072,337.310 780.800,337.101 781.527,336.889 782.254,336.674 782.981,336.455 783.709,336.232 784.436,336.007 785.163,335.778 785.891,335.545 786.618,335.310 787.345,335.071 788.072,334.829 788.800,334.583 789.527,334.335 790.254,334.083 790.982,333.829 791.709,333.571 792.436,333.311 793.163,333.047 793.891,332.780 794.618,332.511 795.345,332.238 796.073,331.963 796.800,331.685 797.527,331.404 798.255,331.120 798.982,330.834 799.709,330.545 800.436,330.253 801.164,329.959 801.891,329.662 802.618,329.362 803.346,329.060 804.073,328.756 804.800,328.449 805.527,328.139 806.255,327.827 806.982,327.513 807.709,327.196 808.437,326.877 809.164,326.556 809.891,326.233 810.618,325.907 811.346,325.579 812.073,325.249 812.800,324.917 813.528,324.583 814.255,324.246 814.982,323.908 815.709,323.568 816.437,323.225 817.164,322.881 817.891,322.535 818.619,322.187 819.346,321.837 820.073,321.486 820.800,321.132 821.528,320.777 822.255,320.420 822.982,320.062 823.710,319.701 824.437,319.340 825.164,318.976 825.892,318.611 826.619,318.245 827.346,317.877 828.073,317.507 828.801,317.137 829.528,316.764 830.255,316.391 830.983,316.016 831.710,315.640 832.437,315.262 833.164,314.884 833.892,314.504 834.619,314.123 835.346,313.740 836.074,313.357 836.801,312.973 837.528,312.587 838.255,312.201 838.983,311.814 839.710,311.425 840.437,311.036 841.165,310.646 841.892,310.255 842.619,309.863 843.346,309.471 844.074,309.077 844.801,308.683 845.528,308.288 846.256,307.893 846.983,307.497 847.710,307.100 848.438,306.703 " />
        <g
           id="g24" />
      </g>
      <g
         clip-path="url(#ID000001)"
         id="ID000003">
        <polyline
           style="fill:none;stroke:#000000;stroke-width:0.5pt;stroke-dasharray:8, 2"
           id="polyline27"
           points="303.516,375.469 303.516,31.641 " />
        <g
           id="g29" />
      </g>
      <g
         clip-path="url(#ID000001)"
         id="ID000004">
        <polyline
           style="fill:none;stroke:#000000;stroke-width:0.5pt;stroke-dasharray:8, 2"
           id="polyline32"
           points="485.156,375.469 485.156,31.641 " />
        <g
           id="g34" />
      </g>
      <g
         clip-path="url(#ID000001)"
         id="ID000005">
        <polyline
           style="fill:none;stroke:#000000;stroke-width:0.5pt;stroke-dasharray:8, 2"
           id="polyline37"
           points="666.797,375.469 666.797,31.641 " />
        <g
           id="g39" />
      </g>
      <g
         id="ID000006">
        <g
           id="g42"
           transform="translate(484.219,406.391)">
          <g
             id="g44">
            <text
               style="font-size:11.25px;text-anchor:middle;fill:#000000;font-family:Times New Roman"
               id="text46"
               font-size="9pt"
               y="0"
               x="0">log|E|</text>
          </g>
        </g>
      </g>
      <g
         id="ID000007">
        <g
           id="g49"
           transform="translate(96.563,204.492)">
          <g
             id="g51"
             transform="matrix(0,-1,1,0,0,0)">
            <text
               style="font-size:11.25px;text-anchor:middle;fill:#000000;font-family:Times New Roman"
               id="text53"
               font-size="9pt"
               y="0"
               x="0">log|dE/dx|</text>
          </g>
        </g>
      </g>
      <g
         id="ID000008" />
    </g>
    <g
       id="g56">
      <polyline
         style="fill:none;stroke:#000000;stroke-width:0.5pt;stroke-dasharray:none"
         id="polyline58"
         points="194.531,375.469 194.531,368.203 " />
      <polyline
         style="fill:none;stroke:#000000;stroke-width:0.5pt;stroke-dasharray:none"
         id="polyline60"
         points="267.188,375.469 267.188,368.203 " />
      <polyline
         style="fill:none;stroke:#000000;stroke-width:0.5pt;stroke-dasharray:none"
         id="polyline62"
         points="339.844,375.469 339.844,368.203 " />
      <polyline
         style="fill:none;stroke:#000000;stroke-width:0.5pt;stroke-dasharray:none"
         id="polyline64"
         points="412.500,375.469 412.500,368.203 " />
      <polyline
         style="fill:none;stroke:#000000;stroke-width:0.5pt;stroke-dasharray:none"
         id="polyline66"
         points="485.156,375.469 485.156,368.203 " />
      <polyline
         style="fill:none;stroke:#000000;stroke-width:0.5pt;stroke-dasharray:none"
         id="polyline68"
         points="557.813,375.469 557.813,368.203 " />
      <polyline
         style="fill:none;stroke:#000000;stroke-width:0.5pt;stroke-dasharray:none"
         id="polyline70"
         points="630.469,375.469 630.469,368.203 " />
      <polyline
         style="fill:none;stroke:#000000;stroke-width:0.5pt;stroke-dasharray:none"
         id="polyline72"
         points="703.125,375.469 703.125,368.203 " />
      <polyline
         style="fill:none;stroke:#000000;stroke-width:0.5pt;stroke-dasharray:none"
         id="polyline74"
         points="775.781,375.469 775.781,368.203 " />
      <polyline
         style="fill:none;stroke:#000000;stroke-width:0.5pt;stroke-dasharray:none"
         id="polyline76"
         points="121.875,375.469 848.438,375.469 " />
      <polyline
         style="fill:none;stroke:#000000;stroke-width:0.5pt;stroke-dasharray:none"
         id="polyline78"
         points="194.531,31.641 194.531,38.906 " />
      <polyline
         style="fill:none;stroke:#000000;stroke-width:0.5pt;stroke-dasharray:none"
         id="polyline80"
         points="267.188,31.641 267.188,38.906 " />
      <polyline
         style="fill:none;stroke:#000000;stroke-width:0.5pt;stroke-dasharray:none"
         id="polyline82"
         points="339.844,31.641 339.844,38.906 " />
      <polyline
         style="fill:none;stroke:#000000;stroke-width:0.5pt;stroke-dasharray:none"
         id="polyline84"
         points="412.500,31.641 412.500,38.906 " />
      <polyline
         style="fill:none;stroke:#000000;stroke-width:0.5pt;stroke-dasharray:none"
         id="polyline86"
         points="485.156,31.641 485.156,38.906 " />
      <polyline
         style="fill:none;stroke:#000000;stroke-width:0.5pt;stroke-dasharray:none"
         id="polyline88"
         points="557.813,31.641 557.813,38.906 " />
      <polyline
         style="fill:none;stroke:#000000;stroke-width:0.5pt;stroke-dasharray:none"
         id="polyline90"
         points="630.469,31.641 630.469,38.906 " />
      <polyline
         style="fill:none;stroke:#000000;stroke-width:0.5pt;stroke-dasharray:none"
         id="polyline92"
         points="703.125,31.641 703.125,38.906 " />
      <polyline
         style="fill:none;stroke:#000000;stroke-width:0.5pt;stroke-dasharray:none"
         id="polyline94"
         points="775.781,31.641 775.781,38.906 " />
      <polyline
         style="fill:none;stroke:#000000;stroke-width:0.5pt;stroke-dasharray:none"
         id="polyline96"
         points="121.875,31.641 848.438,31.641 " />
      <g
         id="g98"
         transform="translate(121.875,393.408)">
        <g
           id="g100">
          <text
             style="font-size:11.25px;text-anchor:middle;fill:#000000;font-family:Times New Roman"
             id="text102"
             font-size="9pt"
             y="0"
             x="0">0</text>
        </g>
      </g>
      <g
         id="g104"
         transform="translate(194.531,393.408)">
        <g
           id="g106">
          <text
             style="font-size:11.25px;text-anchor:middle;fill:#000000;font-family:Times New Roman"
             id="text108"
             font-size="9pt"
             y="0"
             x="0">10</text>
        </g>
      </g>
      <g
         id="g110"
         transform="translate(267.188,393.408)">
        <g
           id="g112">
          <text
             style="font-size:11.25px;text-anchor:middle;fill:#000000;font-family:Times New Roman"
             id="text114"
             font-size="9pt"
             y="0"
             x="0">20</text>
        </g>
      </g>
      <g
         id="g116"
         transform="translate(339.844,393.408)">
        <g
           id="g118">
          <text
             style="font-size:11.25px;text-anchor:middle;fill:#000000;font-family:Times New Roman"
             id="text120"
             font-size="9pt"
             y="0"
             x="0">30</text>
        </g>
      </g>
      <g
         id="g122"
         transform="translate(412.5,393.408)">
        <g
           id="g124">
          <text
             style="font-size:11.25px;text-anchor:middle;fill:#000000;font-family:Times New Roman"
             id="text126"
             font-size="9pt"
             y="0"
             x="0">40</text>
        </g>
      </g>
      <g
         id="g128"
         transform="translate(485.156,393.408)">
        <g
           id="g130">
          <text
             style="font-size:11.25px;text-anchor:middle;fill:#000000;font-family:Times New Roman"
             id="text132"
             font-size="9pt"
             y="0"
             x="0">50</text>
        </g>
      </g>
      <g
         id="g134"
         transform="translate(557.813,393.408)">
        <g
           id="g136">
          <text
             style="font-size:11.25px;text-anchor:middle;fill:#000000;font-family:Times New Roman"
             id="text138"
             font-size="9pt"
             y="0"
             x="0">60</text>
        </g>
      </g>
      <g
         id="g140"
         transform="translate(630.469,393.408)">
        <g
           id="g142">
          <text
             style="font-size:11.25px;text-anchor:middle;fill:#000000;font-family:Times New Roman"
             id="text144"
             font-size="9pt"
             y="0"
             x="0">70</text>
        </g>
      </g>
      <g
         id="g146"
         transform="translate(703.125,393.408)">
        <g
           id="g148">
          <text
             style="font-size:11.25px;text-anchor:middle;fill:#000000;font-family:Times New Roman"
             id="text150"
             font-size="9pt"
             y="0"
             x="0">80</text>
        </g>
      </g>
      <g
         id="g152"
         transform="translate(775.781,393.408)">
        <g
           id="g154">
          <text
             style="font-size:11.25px;text-anchor:middle;fill:#000000;font-family:Times New Roman"
             id="text156"
             font-size="9pt"
             y="0"
             x="0">90</text>
        </g>
      </g>
      <g
         id="g158"
         transform="translate(848.438,393.408)">
        <g
           id="g160">
          <text
             style="font-size:11.25px;text-anchor:middle;fill:#000000;font-family:Times New Roman"
             id="text162"
             font-size="9pt"
             y="0"
             x="0">100</text>
        </g>
      </g>
      <polyline
         style="fill:none;stroke:#000000;stroke-width:0.5pt;stroke-dasharray:none"
         id="polyline164"
         points="121.875,306.703 129.141,306.703 " />
      <polyline
         style="fill:none;stroke:#000000;stroke-width:0.5pt;stroke-dasharray:none"
         id="polyline166"
         points="121.875,237.938 129.141,237.938 " />
      <polyline
         style="fill:none;stroke:#000000;stroke-width:0.5pt;stroke-dasharray:none"
         id="polyline168"
         points="121.875,169.172 129.141,169.172 " />
      <polyline
         style="fill:none;stroke:#000000;stroke-width:0.5pt;stroke-dasharray:none"
         id="polyline170"
         points="121.875,100.406 129.141,100.406 " />
      <polyline
         style="fill:none;stroke:#000000;stroke-width:0.5pt;stroke-dasharray:none"
         id="polyline172"
         points="121.875,375.469 121.875,31.641 " />
      <polyline
         style="fill:none;stroke:#000000;stroke-width:0.5pt;stroke-dasharray:none"
         id="polyline174"
         points="848.438,306.703 841.172,306.703 " />
      <polyline
         style="fill:none;stroke:#000000;stroke-width:0.5pt;stroke-dasharray:none"
         id="polyline176"
         points="848.438,237.938 841.172,237.938 " />
      <polyline
         style="fill:none;stroke:#000000;stroke-width:0.5pt;stroke-dasharray:none"
         id="polyline178"
         points="848.438,169.172 841.172,169.172 " />
      <polyline
         style="fill:none;stroke:#000000;stroke-width:0.5pt;stroke-dasharray:none"
         id="polyline180"
         points="848.438,100.406 841.172,100.406 " />
      <polyline
         style="fill:none;stroke:#000000;stroke-width:0.5pt;stroke-dasharray:none"
         id="polyline182"
         points="848.438,375.469 848.438,31.641 " />
      <g
         id="g184"
         transform="translate(107.344,379.688)">
        <g
           id="g186">
          <text
             style="font-size:11.25px;text-anchor:end;fill:#000000;font-family:Times New Roman"
             id="text188"
             font-size="9pt"
             y="0"
             x="0">0</text>
        </g>
      </g>
      <g
         id="g190"
         transform="translate(107.344,310.922)">
        <g
           id="g192">
          <text
             style="font-size:11.25px;text-anchor:end;fill:#000000;font-family:Times New Roman"
             id="text194"
             font-size="9pt"
             y="0"
             x="0">5</text>
        </g>
      </g>
      <g
         id="g196"
         transform="translate(107.344,242.156)">
        <g
           id="g198">
          <text
             style="font-size:11.25px;text-anchor:end;fill:#000000;font-family:Times New Roman"
             id="text200"
             font-size="9pt"
             y="0"
             x="0">10</text>
        </g>
      </g>
      <g
         id="g202"
         transform="translate(107.344,173.391)">
        <g
           id="g204">
          <text
             style="font-size:11.25px;text-anchor:end;fill:#000000;font-family:Times New Roman"
             id="text206"
             font-size="9pt"
             y="0"
             x="0">15</text>
        </g>
      </g>
      <g
         id="g208"
         transform="translate(107.344,104.625)">
        <g
           id="g210">
          <text
             style="font-size:11.25px;text-anchor:end;fill:#000000;font-family:Times New Roman"
             id="text212"
             font-size="9pt"
             y="0"
             x="0">20</text>
        </g>
      </g>
      <g
         id="g214"
         transform="translate(107.344,35.859)">
        <g
           id="g216">
          <text
             style="font-size:11.25px;text-anchor:end;fill:#000000;font-family:Times New Roman"
             id="text218"
             font-size="9pt"
             y="0"
             x="0">25</text>
        </g>
      </g>
      <polyline
         style="fill:none;stroke:#000000;stroke-width:0.5pt;stroke-dasharray:none"
         id="polyline220"
         points="121.875,375.469 121.875,372.030 " />
      <polyline
         style="fill:none;stroke:#000000;stroke-width:0.5pt;stroke-dasharray:none"
         id="polyline222"
         points="121.875,375.469 121.875,375.469 " />
    </g>
  </g>
  <text
     xml:space="preserve"
     style="font-size:40px;font-style:normal;font-variant:normal;font-weight:normal;font-stretch:normal;line-height:125%;letter-spacing:0px;word-spacing:0px;fill:#000000;fill-opacity:1;stroke:none;font-family:Serif;-inkscape-font-specification:Serif"
     x="147.01704"
     y="67.748581"
     id="text3318"
     sodipodi:linespacing="125%"><tspan
       sodipodi:role="line"
       id="tspan3320"
       x="147.01704"
       y="67.748581"
       style="font-size:22px">Nuclear</tspan><tspan
       sodipodi:role="line"
       x="147.01704"
       y="95.248581"
       id="tspan3322"
       style="font-size:22px">Losses</tspan></text>
  <text
     xml:space="preserve"
     style="font-size:40px;font-style:normal;font-variant:normal;font-weight:normal;font-stretch:normal;line-height:125%;letter-spacing:0px;word-spacing:0px;fill:#000000;fill-opacity:1;stroke:none;font-family:Serif;-inkscape-font-specification:Serif"
     x="332.38635"
     y="67.732468"
     id="text3324"
     sodipodi:linespacing="125%"><tspan
       sodipodi:role="line"
       id="tspan3326"
       x="332.38635"
       y="67.732468"
       style="font-size:22px">Lindhardt</tspan><tspan
       sodipodi:role="line"
       x="332.38635"
       y="95.232468"
       id="tspan3328"
       style="font-size:22px">Shraff</tspan></text>
  <text
     xml:space="preserve"
     style="font-size:40px;font-style:normal;font-variant:normal;font-weight:normal;font-stretch:normal;line-height:125%;letter-spacing:0px;word-spacing:0px;fill:#000000;fill-opacity:1;stroke:none;font-family:Serif;-inkscape-font-specification:Serif"
     x="532.13776"
     y="81.498581"
     id="text3330"
     sodipodi:linespacing="125%"><tspan
       sodipodi:role="line"
       id="tspan3332"
       x="532.13776"
       y="81.498581"
       style="font-size:22px">Bethe</tspan></text>
  <text
     xml:space="preserve"
     style="font-size:40px;font-style:normal;font-variant:normal;font-weight:normal;font-stretch:normal;line-height:125%;letter-spacing:0px;word-spacing:0px;fill:#000000;fill-opacity:1;stroke:none;font-family:Serif;-inkscape-font-specification:Serif"
     x="716.97443"
     y="81.498581"
     id="text3334"
     sodipodi:linespacing="125%"><tspan
       sodipodi:role="line"
       id="tspan3336"
       x="716.97443"
       y="81.498581"
       style="font-size:22px">Relativistic</tspan></text>
  <path
     style="fill:none;stroke:#000000;stroke-width:3;stroke-linecap:butt;stroke-linejoin:miter;stroke-miterlimit:4;stroke-opacity:1;stroke-dasharray:none"
     d="m 303,257.875 0,-60"
     id="path3338"
     inkscape:connector-curvature="0"
     sodipodi:nodetypes="cc" />
  <path
     style="fill:none;stroke:#000000;stroke-width:3;stroke-linecap:butt;stroke-linejoin:miter;stroke-miterlimit:4;stroke-opacity:1;stroke-dasharray:none;marker-end:url(#Arrow1Mend)"
     d="m 303.08949,228.875 318.00426,0"
     id="path4108"
     inkscape:connector-curvature="0"
     sodipodi:nodetypes="cc" />
  <text
     xml:space="preserve"
     style="font-size:40px;font-style:normal;font-variant:normal;font-weight:normal;font-stretch:normal;line-height:125%;letter-spacing:0px;word-spacing:0px;fill:#000000;fill-opacity:1;stroke:none;font-family:Serif;-inkscape-font-specification:Serif"
     x="314.80823"
     y="218.64774"
     id="text4554"
     sodipodi:linespacing="125%"><tspan
       sodipodi:role="line"
       id="tspan4556"
       x="314.80823"
       y="218.64774"
       style="font-size:28px">Electronic Losses</tspan></text>
</svg>
