<?xml version="1.0" encoding="UTF-8" standalone="no"?>
<svg
   xmlns:dc="http://purl.org/dc/elements/1.1/"
   xmlns:cc="http://creativecommons.org/ns#"
   xmlns:rdf="http://www.w3.org/1999/02/22-rdf-syntax-ns#"
   xmlns:svg="http://www.w3.org/2000/svg"
   xmlns="http://www.w3.org/2000/svg"
   xmlns:sodipodi="http://sodipodi.sourceforge.net/DTD/sodipodi-0.dtd"
   xmlns:inkscape="http://www.inkscape.org/namespaces/inkscape"
   preserveAspectRatio="xMinYMin meet"
   width="100%"
   height="100%"
   viewBox="0 0 421.875 421.875"
   version="1.1"
   id="svg2"
   inkscape:version="0.48.4 r9939"
   sodipodi:docname="Transition_from_Brittle_to_Ductile.svg">
  <metadata
     id="metadata64">
    <rdf:RDF>
      <cc:Work
         rdf:about="">
        <dc:format>image/svg+xml</dc:format>
        <dc:type
           rdf:resource="http://purl.org/dc/dcmitype/StillImage" />
      </cc:Work>
    </rdf:RDF>
  </metadata>
  <defs
     id="defs62" />
  <sodipodi:namedview
     pagecolor="#ffffff"
     bordercolor="#666666"
     borderopacity="1"
     objecttolerance="10"
     gridtolerance="10"
     guidetolerance="10"
     inkscape:pageopacity="0"
     inkscape:pageshadow="2"
     inkscape:window-width="1920"
     inkscape:window-height="1017"
     id="namedview60"
     showgrid="false"
     inkscape:zoom="1.9626667"
     inkscape:cx="210.9375"
     inkscape:cy="210.9375"
     inkscape:window-x="1912"
     inkscape:window-y="-8"
     inkscape:window-maximized="1"
     inkscape:current-layer="svg2" />
  <desc
     id="desc4">Matlab Figure Converted by PLOT2SVG written by Juerg Schwizer</desc>
  <g
     id="ID000000">
    <clipPath
       id="ID000001">
      <rect
         id="rect11"
         height="343.828"
         width="326.953"
         y="31.641001"
         x="54.844002" />
    </clipPath>
    <polygon
       style="fill:#000000;fill-opacity:0;stroke:none"
       id="polygon13"
       points="381.797,31.641 54.844,31.641 54.844,375.469 381.797,375.469 " />
    <polygon
       style="fill:#000000;fill-opacity:0;stroke:none"
       id="polygon15"
       points="381.797,31.641 54.844,31.641 54.844,31.641 381.797,31.641 " />
    <polygon
       style="fill:#000000;fill-opacity:0;stroke:none"
       id="polygon17"
       points="54.844,31.641 54.844,31.641 54.844,375.469 54.844,375.469 " />
    <g
       id="g19">
      <g
         clip-path="url(#ID000001)"
         id="ID000002">
        <polyline
           style="fill:none;stroke:#000000;stroke-width:0.5pt;stroke-dasharray:none"
           id="polyline22"
           points="54.844,332.490 55.171,332.490 55.498,332.490 55.826,332.490 56.153,332.490 56.480,332.490 56.807,332.490 57.135,332.490 57.462,332.490 57.789,332.490 58.117,332.490 58.444,332.490 58.771,332.490 59.098,332.490 59.426,332.490 59.753,332.490 60.080,332.490 60.408,332.490 60.735,332.490 61.062,332.490 61.389,332.490 61.717,332.490 62.044,332.490 62.371,332.490 62.698,332.490 63.026,332.490 63.353,332.490 63.680,332.490 64.008,332.490 64.335,332.490 64.662,332.490 64.989,332.490 65.317,332.490 65.644,332.490 65.971,332.490 66.299,332.490 66.626,332.490 66.953,332.490 67.280,332.490 67.608,332.490 67.935,332.490 68.262,332.490 68.590,332.490 68.917,332.490 69.244,332.490 69.571,332.490 69.899,332.490 70.226,332.490 70.553,332.490 70.880,332.490 71.208,332.490 71.535,332.490 71.862,332.490 72.190,332.490 72.517,332.490 72.844,332.490 73.171,332.490 73.499,332.490 73.826,332.490 74.153,332.490 74.481,332.490 74.808,332.490 75.135,332.490 75.462,332.490 75.790,332.490 76.117,332.490 76.444,332.490 76.772,332.490 77.099,332.490 77.426,332.490 77.753,332.490 78.081,332.490 78.408,332.490 78.735,332.490 79.063,332.490 79.390,332.490 79.717,332.490 80.044,332.490 80.372,332.490 80.699,332.490 81.026,332.490 81.353,332.490 81.681,332.490 82.008,332.490 82.335,332.490 82.663,332.490 82.990,332.490 83.317,332.490 83.644,332.490 83.972,332.490 84.299,332.490 84.626,332.490 84.954,332.490 85.281,332.490 85.608,332.490 85.935,332.490 86.263,332.490 86.590,332.490 86.917,332.490 87.245,332.490 87.572,332.490 87.899,332.490 88.226,332.490 88.554,332.490 88.881,332.490 89.208,332.490 89.535,332.490 89.863,332.490 90.190,332.490 90.517,332.490 90.845,332.490 91.172,332.490 91.499,332.490 91.826,332.490 92.154,332.490 92.481,332.490 92.808,332.490 93.136,332.490 93.463,332.490 93.790,332.490 94.117,332.490 94.445,332.490 94.772,332.490 95.099,332.490 95.427,332.490 95.754,332.490 96.081,332.490 96.408,332.490 96.736,332.490 97.063,332.490 97.390,332.490 97.717,332.490 98.045,332.490 98.372,332.490 98.699,332.490 99.027,332.490 99.354,332.490 99.681,332.490 100.008,332.490 100.336,332.490 100.663,332.490 100.990,332.490 101.318,332.490 101.645,332.490 101.972,332.490 102.299,332.490 102.627,332.490 102.954,332.490 103.281,332.490 103.609,332.490 103.936,332.490 104.263,332.490 104.590,332.490 104.918,332.490 105.245,332.490 105.572,332.490 105.899,332.490 106.227,332.490 106.554,332.490 106.881,332.490 107.209,332.490 107.536,332.490 107.863,332.490 108.190,332.490 108.518,332.490 108.845,332.490 109.172,332.490 109.500,332.490 109.827,332.490 110.154,332.490 110.481,332.490 110.809,332.490 111.136,332.490 111.463,332.490 111.791,332.490 112.118,332.490 112.445,332.490 112.772,332.490 113.100,332.490 113.427,332.490 113.754,332.490 114.082,332.490 114.409,332.490 114.736,332.490 115.063,332.490 115.391,332.490 115.718,332.490 116.045,332.490 116.372,332.490 116.700,332.490 117.027,332.490 117.354,332.490 117.682,332.490 118.009,332.490 118.336,332.490 118.663,332.490 118.991,332.490 119.318,332.490 119.645,332.490 119.973,332.490 120.300,332.490 120.627,331.630 120.954,330.769 121.282,329.909 121.609,329.048 121.936,328.188 122.264,327.327 122.591,326.467 122.918,325.607 123.245,324.746 123.573,323.886 123.900,323.025 124.227,322.165 124.554,321.304 124.882,320.444 125.209,319.584 125.536,318.723 125.864,317.863 126.191,317.002 126.518,316.142 126.845,315.281 127.173,314.421 127.500,313.561 127.827,312.700 128.155,311.840 128.482,310.979 128.809,310.119 129.136,309.258 129.464,308.398 129.791,307.538 130.118,306.677 130.446,305.817 130.773,304.956 131.100,304.096 131.427,303.235 131.755,302.375 132.082,301.515 132.409,300.654 132.736,299.794 133.064,298.933 133.391,298.073 133.718,297.212 134.046,296.352 134.373,295.492 134.700,294.631 135.027,293.771 135.355,292.910 135.682,292.050 136.009,291.189 136.337,290.329 136.664,289.469 136.991,288.608 137.318,287.748 137.646,286.887 137.973,286.027 138.300,285.166 138.628,284.306 138.955,283.446 139.282,282.585 139.609,281.725 139.937,280.864 140.264,280.004 140.591,279.143 140.918,278.283 141.246,277.422 141.573,276.562 141.900,275.702 142.228,274.841 142.555,273.981 142.882,273.120 143.209,272.260 143.537,271.399 143.864,270.539 144.191,269.679 144.519,268.818 144.846,267.958 145.173,267.097 145.500,266.237 145.828,265.376 146.155,264.516 146.482,263.656 146.810,262.795 147.137,261.935 147.464,261.074 147.791,260.214 148.119,259.353 148.446,258.493 148.773,257.633 149.101,256.772 149.428,255.912 149.755,255.051 150.082,254.191 150.410,253.330 150.737,252.470 151.064,251.610 151.391,250.749 151.719,249.889 152.046,249.028 152.373,248.168 152.701,247.307 153.028,246.447 153.355,245.587 153.682,244.726 154.010,243.866 154.337,243.005 154.664,242.145 154.992,241.284 155.319,240.424 155.646,239.564 155.973,238.703 156.301,237.843 156.628,236.982 156.955,236.122 157.283,235.261 157.610,234.401 157.937,233.541 158.264,232.680 158.592,231.820 158.919,230.959 159.246,230.099 159.573,229.238 159.901,228.378 160.228,227.518 160.555,226.657 160.883,225.797 161.210,224.936 161.537,224.076 161.864,223.215 162.192,222.355 162.519,221.494 162.846,220.634 163.174,219.774 163.501,218.913 163.828,218.053 164.155,217.192 164.483,216.332 164.810,215.471 165.137,214.611 165.465,213.751 165.792,212.890 166.119,212.030 166.446,211.169 166.774,210.309 167.101,209.448 167.428,208.588 167.755,207.728 168.083,206.867 168.410,206.007 168.737,205.146 169.065,204.286 169.392,203.425 169.719,202.565 170.046,201.705 170.374,200.844 170.701,199.984 171.028,199.123 171.356,198.263 171.683,197.402 172.010,196.542 172.337,195.682 172.665,194.821 172.992,193.961 173.319,193.100 173.647,192.240 173.974,191.379 174.301,190.519 174.628,189.659 174.956,188.798 175.283,187.938 175.610,187.077 175.938,186.217 176.265,185.356 176.592,184.496 176.919,183.636 177.247,182.775 177.574,181.915 177.901,181.054 178.228,180.194 178.556,179.333 178.883,178.473 179.210,177.613 179.538,176.752 179.865,175.892 180.192,175.031 180.519,174.171 180.847,173.310 181.174,172.450 181.501,171.590 181.829,170.729 182.156,169.869 182.483,169.008 182.810,168.148 183.138,167.287 183.465,166.427 183.792,165.566 184.120,164.706 184.447,163.846 184.774,162.985 185.101,162.125 185.429,161.264 185.756,160.404 186.083,159.543 186.410,158.683 186.738,157.823 187.065,156.962 187.392,156.102 187.720,155.241 188.047,154.381 188.374,153.520 188.701,152.660 189.029,151.800 189.356,150.939 189.683,150.079 190.011,149.218 190.338,148.358 190.665,147.497 190.992,146.637 191.320,145.777 191.647,144.916 191.974,144.056 192.302,143.195 192.629,142.335 192.956,141.474 193.283,140.614 193.611,139.754 193.938,138.893 194.265,138.033 194.592,137.172 194.920,136.312 195.247,135.451 195.574,134.591 195.902,133.731 196.229,132.870 196.556,132.010 196.883,131.149 197.211,130.289 197.538,129.428 197.865,128.568 198.193,127.708 198.520,126.847 198.847,125.987 199.174,125.126 199.502,124.266 199.829,123.405 200.156,122.545 200.484,121.685 200.811,120.824 201.138,119.964 201.465,119.103 201.793,118.243 202.120,117.382 202.447,116.522 202.774,115.662 203.102,114.801 203.429,113.941 203.756,113.080 204.084,112.220 204.411,111.359 204.738,110.499 205.065,109.638 205.393,108.778 205.720,107.918 206.047,107.057 206.375,106.197 206.702,105.336 207.029,104.476 207.356,103.615 207.684,102.755 208.011,101.895 208.338,101.034 208.666,100.174 208.993,99.313 209.320,98.453 209.647,97.592 209.975,96.732 210.302,95.872 210.629,95.011 210.957,94.151 211.284,93.290 211.611,92.430 211.938,91.569 212.266,90.709 212.593,89.849 212.920,88.988 213.247,88.128 213.575,87.267 213.902,86.407 214.229,85.546 214.557,84.686 214.884,83.826 215.211,82.965 215.538,82.105 215.866,81.244 216.193,80.384 216.520,79.523 216.848,78.663 217.175,77.803 217.502,76.942 217.829,76.082 218.157,75.221 218.484,66.023 218.811,66.023 219.139,66.023 219.466,66.023 219.793,66.023 220.120,66.023 220.448,66.023 220.775,66.023 221.102,66.023 221.429,66.023 221.757,66.023 222.084,66.023 222.411,66.023 222.739,66.023 223.066,66.023 223.393,66.023 223.720,66.023 224.048,66.023 224.375,66.023 224.702,66.023 225.030,66.023 225.357,66.023 225.684,66.023 226.011,66.023 226.339,66.023 226.666,66.023 226.993,66.023 227.321,66.023 227.648,66.023 227.975,66.023 228.302,66.023 228.630,66.023 228.957,66.023 229.284,66.023 229.611,66.023 229.939,66.023 230.266,66.023 230.593,66.023 230.921,66.023 231.248,66.023 231.575,66.023 231.902,66.023 232.230,66.023 232.557,66.023 232.884,66.023 233.212,66.023 233.539,66.023 233.866,66.023 234.193,66.023 234.521,66.023 234.848,66.023 235.175,66.023 235.503,66.023 235.830,66.023 236.157,66.023 236.484,66.023 236.812,66.023 237.139,66.023 237.466,66.023 237.793,66.023 238.121,66.023 238.448,66.023 238.775,66.023 239.103,66.023 239.430,66.023 239.757,66.023 240.084,66.023 240.412,66.023 240.739,66.023 241.066,66.023 241.394,66.023 241.721,66.023 242.048,66.023 242.375,66.023 242.703,66.023 243.030,66.023 243.357,66.023 243.685,66.023 244.012,66.023 244.339,66.023 244.666,66.023 244.994,66.023 245.321,66.023 245.648,66.023 245.976,66.023 246.303,66.023 246.630,66.023 246.957,66.023 247.285,66.023 247.612,66.023 247.939,66.023 248.266,66.023 248.594,66.023 248.921,66.023 249.248,66.023 249.576,66.023 249.903,66.023 250.230,66.023 250.557,66.023 250.885,66.023 251.212,66.023 251.539,66.023 251.867,66.023 252.194,66.023 252.521,66.023 252.848,66.023 253.176,66.023 253.503,66.023 253.830,66.023 254.158,66.023 254.485,66.023 254.812,66.023 255.139,66.023 255.467,66.023 255.794,66.023 256.121,66.023 256.448,66.023 256.776,66.023 257.103,66.023 257.430,66.023 257.758,66.023 258.085,66.023 258.412,66.023 258.739,66.023 259.067,66.023 259.394,66.023 259.721,66.023 260.049,66.023 260.376,66.023 260.703,66.023 261.030,66.023 261.358,66.023 261.685,66.023 262.012,66.023 262.340,66.023 262.667,66.023 262.994,66.023 263.321,66.023 263.649,66.023 263.976,66.023 264.303,66.023 264.630,66.023 264.958,66.023 265.285,66.023 265.612,66.023 265.940,66.023 266.267,66.023 266.594,66.023 266.921,66.023 267.249,66.023 267.576,66.023 267.903,66.023 268.231,66.023 268.558,66.023 268.885,66.023 269.212,66.023 269.540,66.023 269.867,66.023 270.194,66.023 270.522,66.023 270.849,66.023 271.176,66.023 271.503,66.023 271.831,66.023 272.158,66.023 272.485,66.023 272.813,66.023 273.140,66.023 273.467,66.023 273.794,66.023 274.122,66.023 274.449,66.023 274.776,66.023 275.103,66.023 275.431,66.023 275.758,66.023 276.085,66.023 276.413,66.023 276.740,66.023 277.067,66.023 277.394,66.023 277.722,66.023 278.049,66.023 278.376,66.023 278.704,66.023 279.031,66.023 279.358,66.023 279.685,66.023 280.013,66.023 280.340,66.023 280.667,66.023 280.995,66.023 281.322,66.023 281.649,66.023 281.976,66.023 282.304,66.023 282.631,66.023 282.958,66.023 283.285,66.023 283.613,66.023 283.940,66.023 284.267,66.023 284.595,66.023 284.922,66.023 285.249,66.023 285.576,66.023 285.904,66.023 286.231,66.023 286.558,66.023 286.886,66.023 287.213,66.023 287.540,66.023 287.867,66.023 288.195,66.023 288.522,66.023 288.849,66.023 289.177,66.023 289.504,66.023 289.831,66.023 290.158,66.023 290.486,66.023 290.813,66.023 291.140,66.023 291.467,66.023 291.795,66.023 292.122,66.023 292.449,66.023 292.777,66.023 293.104,66.023 293.431,66.023 293.758,66.023 294.086,66.023 294.413,66.023 294.740,66.023 295.068,66.023 295.395,66.023 295.722,66.023 296.049,66.023 296.377,66.023 296.704,66.023 297.031,66.023 297.359,66.023 297.686,66.023 298.013,66.023 298.340,66.023 298.668,66.023 298.995,66.023 299.322,66.023 299.649,66.023 299.977,66.023 300.304,66.023 300.631,66.023 300.959,66.023 301.286,66.023 301.613,66.023 301.940,66.023 302.268,66.023 302.595,66.023 302.922,66.023 303.250,66.023 303.577,66.023 303.904,66.023 304.231,66.023 304.559,66.023 304.886,66.023 305.213,66.023 305.541,66.023 305.868,66.023 306.195,66.023 306.522,66.023 306.850,66.023 307.177,66.023 307.504,66.023 307.832,66.023 308.159,66.023 308.486,66.023 308.813,66.023 309.141,66.023 309.468,66.023 309.795,66.023 310.122,66.023 310.450,66.023 310.777,66.023 311.104,66.023 311.432,66.023 311.759,66.023 312.086,66.023 312.413,66.023 312.741,66.023 313.068,66.023 313.395,66.023 313.723,66.023 314.050,66.023 314.377,66.023 314.704,66.023 315.032,66.023 315.359,66.023 315.686,66.023 316.014,66.023 316.341,66.023 316.668,66.023 316.995,66.023 317.323,66.023 317.650,66.023 317.977,66.023 318.304,66.023 318.632,66.023 318.959,66.023 319.286,66.023 319.614,66.023 319.941,66.023 320.268,66.023 320.595,66.023 320.923,66.023 321.250,66.023 321.577,66.023 321.905,66.023 322.232,66.023 322.559,66.023 322.886,66.023 323.214,66.023 323.541,66.023 323.868,66.023 324.196,66.023 324.523,66.023 324.850,66.023 325.177,66.023 325.505,66.023 325.832,66.023 326.159,66.023 326.486,66.023 326.814,66.023 327.141,66.023 327.468,66.023 327.796,66.023 328.123,66.023 328.450,66.023 328.777,66.023 329.105,66.023 329.432,66.023 329.759,66.023 330.087,66.023 330.414,66.023 330.741,66.023 331.068,66.023 331.396,66.023 331.723,66.023 332.050,66.023 332.378,66.023 332.705,66.023 333.032,66.023 333.359,66.023 333.687,66.023 334.014,66.023 334.341,66.023 334.668,66.023 334.996,66.023 335.323,66.023 335.650,66.023 335.978,66.023 336.305,66.023 336.632,66.023 336.959,66.023 337.287,66.023 337.614,66.023 337.941,66.023 338.269,66.023 338.596,66.023 338.923,66.023 339.250,66.023 339.578,66.023 339.905,66.023 340.232,66.023 340.560,66.023 340.887,66.023 341.214,66.023 341.541,66.023 341.869,66.023 342.196,66.023 342.523,66.023 342.851,66.023 343.178,66.023 343.505,66.023 343.832,66.023 344.160,66.023 344.487,66.023 344.814,66.023 345.141,66.023 345.469,66.023 345.796,66.023 346.123,66.023 346.451,66.023 346.778,66.023 347.105,66.023 347.432,66.023 347.760,66.023 348.087,66.023 348.414,66.023 348.742,66.023 349.069,66.023 349.396,66.023 349.723,66.023 350.051,66.023 350.378,66.023 350.705,66.023 351.033,66.023 351.360,66.023 351.687,66.023 352.014,66.023 352.342,66.023 352.669,66.023 352.996,66.023 353.323,66.023 353.651,66.023 353.978,66.023 354.305,66.023 354.633,66.023 354.960,66.023 355.287,66.023 355.614,66.023 355.942,66.023 356.269,66.023 356.596,66.023 356.924,66.023 357.251,66.023 357.578,66.023 357.905,66.023 358.233,66.023 358.560,66.023 358.887,66.023 359.215,66.023 359.542,66.023 359.869,66.023 360.196,66.023 360.524,66.023 360.851,66.023 361.178,66.023 361.505,66.023 361.833,66.023 362.160,66.023 362.487,66.023 362.815,66.023 363.142,66.023 363.469,66.023 363.796,66.023 364.124,66.023 364.451,66.023 364.778,66.023 365.106,66.023 365.433,66.023 365.760,66.023 366.087,66.023 366.415,66.023 366.742,66.023 367.069,66.023 367.397,66.023 367.724,66.023 368.051,66.023 368.378,66.023 368.706,66.023 369.033,66.023 369.360,66.023 369.688,66.023 370.015,66.023 370.342,66.023 370.669,66.023 370.997,66.023 371.324,66.023 371.651,66.023 371.978,66.023 372.306,66.023 372.633,66.023 372.960,66.023 373.288,66.023 373.615,66.023 373.942,66.023 374.269,66.023 374.597,66.023 374.924,66.023 375.251,66.023 375.579,66.023 375.906,66.023 376.233,66.023 376.560,66.023 376.888,66.023 377.215,66.023 377.542,66.023 377.870,66.023 378.197,66.023 378.524,66.023 378.851,66.023 379.179,66.023 379.506,66.023 379.833,66.023 380.160,66.023 380.488,66.023 380.815,66.023 381.142,66.023 381.470,66.023 381.797,66.023 " />
        <g
           id="g24" />
      </g>
      <g
         clip-path="url(#ID000001)"
         id="ID000003">
        <polyline
           style="fill:none;stroke:#000000;stroke-width:0.5pt;stroke-dasharray:8, 2"
           id="polyline27"
           points="54.844,341.086 55.171,341.086 55.498,341.086 55.826,341.086 56.153,341.086 56.480,341.086 56.807,341.086 57.135,341.086 57.462,341.086 57.789,341.086 58.117,341.086 58.444,341.086 58.771,341.086 59.098,341.086 59.426,341.086 59.753,341.086 60.080,341.086 60.408,341.086 60.735,341.086 61.062,341.086 61.389,341.086 61.717,341.086 62.044,341.086 62.371,341.086 62.698,341.086 63.026,341.086 63.353,341.086 63.680,341.086 64.008,341.086 64.335,341.086 64.662,341.086 64.989,341.086 65.317,341.086 65.644,341.086 65.971,341.086 66.299,341.086 66.626,341.086 66.953,341.086 67.280,341.086 67.608,341.086 67.935,341.086 68.262,341.086 68.590,341.086 68.917,341.086 69.244,341.086 69.571,341.086 69.899,341.086 70.226,341.086 70.553,341.086 70.880,341.086 71.208,341.086 71.535,341.086 71.862,341.086 72.190,341.086 72.517,341.086 72.844,341.086 73.171,341.086 73.499,341.086 73.826,341.086 74.153,341.086 74.481,341.086 74.808,341.086 75.135,341.086 75.462,341.086 75.790,341.086 76.117,341.086 76.444,341.086 76.772,341.086 77.099,341.086 77.426,341.086 77.753,341.086 78.081,341.086 78.408,341.086 78.735,341.086 79.063,341.086 79.390,341.086 79.717,341.086 80.044,341.086 80.372,341.086 80.699,341.086 81.026,341.086 81.353,341.086 81.681,341.086 82.008,341.086 82.335,341.086 82.663,341.086 82.990,341.086 83.317,341.086 83.644,341.086 83.972,341.086 84.299,341.086 84.626,341.086 84.954,341.086 85.281,341.086 85.608,341.086 85.935,341.086 86.263,341.086 86.590,341.086 86.917,341.086 87.245,341.086 87.572,341.086 87.899,341.086 88.226,341.086 88.554,341.086 88.881,341.086 89.208,341.086 89.535,341.086 89.863,341.086 90.190,341.086 90.517,341.086 90.845,341.086 91.172,341.086 91.499,341.086 91.826,341.086 92.154,341.086 92.481,341.086 92.808,341.086 93.136,341.086 93.463,341.086 93.790,341.086 94.117,341.086 94.445,341.086 94.772,341.086 95.099,341.086 95.427,341.086 95.754,341.086 96.081,341.086 96.408,341.086 96.736,341.086 97.063,341.086 97.390,341.086 97.717,341.086 98.045,341.086 98.372,341.086 98.699,341.086 99.027,341.086 99.354,341.086 99.681,341.086 100.008,341.086 100.336,341.086 100.663,341.086 100.990,341.086 101.318,341.086 101.645,341.086 101.972,341.086 102.299,341.086 102.627,341.086 102.954,341.086 103.281,341.086 103.609,341.086 103.936,341.086 104.263,341.086 104.590,341.086 104.918,341.086 105.245,341.086 105.572,341.086 105.899,341.086 106.227,341.086 106.554,341.086 106.881,341.086 107.209,341.086 107.536,341.086 107.863,341.086 108.190,341.086 108.518,341.086 108.845,341.086 109.172,341.086 109.500,341.086 109.827,341.086 110.154,341.086 110.481,341.086 110.809,341.086 111.136,341.086 111.463,341.086 111.791,341.086 112.118,341.086 112.445,341.086 112.772,341.086 113.100,341.086 113.427,341.086 113.754,341.086 114.082,341.086 114.409,341.086 114.736,341.086 115.063,341.086 115.391,341.086 115.718,341.086 116.045,341.086 116.372,341.086 116.700,341.086 117.027,341.086 117.354,341.086 117.682,341.086 118.009,341.086 118.336,341.086 118.663,341.086 118.991,341.086 119.318,341.086 119.645,341.086 119.973,341.086 120.300,341.086 120.627,341.086 120.954,341.086 121.282,341.086 121.609,341.086 121.936,341.086 122.264,341.086 122.591,341.086 122.918,341.086 123.245,341.086 123.573,341.086 123.900,341.086 124.227,341.086 124.554,341.086 124.882,341.086 125.209,341.086 125.536,341.086 125.864,341.086 126.191,341.086 126.518,341.086 126.845,341.086 127.173,341.086 127.500,341.086 127.827,341.086 128.155,341.086 128.482,341.086 128.809,341.086 129.136,341.086 129.464,341.086 129.791,341.086 130.118,341.086 130.446,341.086 130.773,341.086 131.100,341.086 131.427,341.086 131.755,341.086 132.082,341.086 132.409,341.086 132.736,341.086 133.064,341.086 133.391,341.086 133.718,341.086 134.046,341.086 134.373,341.086 134.700,341.086 135.027,341.086 135.355,341.086 135.682,341.086 136.009,341.086 136.337,341.086 136.664,341.086 136.991,341.086 137.318,341.086 137.646,341.086 137.973,341.086 138.300,341.086 138.628,341.086 138.955,341.086 139.282,341.086 139.609,341.086 139.937,341.086 140.264,341.086 140.591,341.086 140.918,341.086 141.246,341.086 141.573,341.086 141.900,341.086 142.228,341.086 142.555,341.086 142.882,341.086 143.209,341.086 143.537,341.086 143.864,341.086 144.191,341.086 144.519,341.086 144.846,341.086 145.173,341.086 145.500,341.086 145.828,341.086 146.155,341.086 146.482,341.086 146.810,341.086 147.137,341.086 147.464,341.086 147.791,341.086 148.119,341.086 148.446,341.086 148.773,341.086 149.101,341.086 149.428,341.086 149.755,341.086 150.082,341.086 150.410,341.086 150.737,341.086 151.064,341.086 151.391,341.086 151.719,341.086 152.046,341.086 152.373,341.086 152.701,341.086 153.028,341.086 153.355,341.086 153.682,341.086 154.010,341.086 154.337,341.086 154.664,341.086 154.992,341.086 155.319,341.086 155.646,341.086 155.973,341.086 156.301,341.086 156.628,341.086 156.955,341.086 157.283,341.086 157.610,341.086 157.937,341.086 158.264,341.086 158.592,341.086 158.919,341.086 159.246,341.086 159.573,341.086 159.901,341.086 160.228,341.086 160.555,341.086 160.883,341.086 161.210,341.086 161.537,341.086 161.864,341.086 162.192,341.086 162.519,341.086 162.846,341.086 163.174,341.086 163.501,341.086 163.828,341.086 164.155,341.086 164.483,341.086 164.810,341.086 165.137,341.086 165.465,341.086 165.792,341.086 166.119,341.086 166.446,341.086 166.774,341.086 167.101,341.086 167.428,341.086 167.755,341.086 168.083,341.086 168.410,341.086 168.737,341.086 169.065,341.086 169.392,341.086 169.719,341.086 170.046,341.086 170.374,341.086 170.701,341.086 171.028,341.086 171.356,341.086 171.683,341.086 172.010,341.086 172.337,341.086 172.665,341.086 172.992,341.086 173.319,341.086 173.647,341.086 173.974,341.086 174.301,341.086 174.628,341.086 174.956,341.086 175.283,341.086 175.610,341.086 175.938,341.086 176.265,341.086 176.592,341.086 176.919,341.086 177.247,341.086 177.574,341.086 177.901,341.086 178.228,341.086 178.556,341.086 178.883,341.086 179.210,341.086 179.538,341.086 179.865,341.086 180.192,341.086 180.519,341.086 180.847,341.086 181.174,341.086 181.501,341.086 181.829,341.086 182.156,341.086 182.483,341.086 182.810,341.086 183.138,341.086 183.465,341.086 183.792,341.086 184.120,341.086 184.447,341.086 184.774,341.086 185.101,341.086 185.429,341.086 185.756,332.490 186.083,331.630 186.410,330.769 186.738,329.909 187.065,329.048 187.392,328.188 187.720,327.327 188.047,326.467 188.374,325.607 188.701,324.746 189.029,323.886 189.356,323.025 189.683,322.165 190.011,321.304 190.338,320.444 190.665,319.584 190.992,318.723 191.320,317.863 191.647,317.002 191.974,316.142 192.302,315.281 192.629,314.421 192.956,313.561 193.283,312.700 193.611,311.840 193.938,310.979 194.265,310.119 194.592,309.258 194.920,308.398 195.247,307.538 195.574,306.677 195.902,305.817 196.229,304.956 196.556,304.096 196.883,303.235 197.211,302.375 197.538,301.515 197.865,300.654 198.193,299.794 198.520,298.933 198.847,298.073 199.174,297.212 199.502,296.352 199.829,295.492 200.156,294.631 200.484,293.771 200.811,292.910 201.138,292.050 201.465,291.189 201.793,290.329 202.120,289.469 202.447,288.608 202.774,287.748 203.102,286.887 203.429,286.027 203.756,285.166 204.084,284.306 204.411,283.446 204.738,282.585 205.065,281.725 205.393,280.864 205.720,280.004 206.047,279.143 206.375,278.283 206.702,277.422 207.029,276.562 207.356,275.702 207.684,274.841 208.011,273.981 208.338,273.120 208.666,272.260 208.993,271.399 209.320,270.539 209.647,269.679 209.975,268.818 210.302,267.958 210.629,267.097 210.957,266.237 211.284,265.376 211.611,264.516 211.938,263.656 212.266,262.795 212.593,261.935 212.920,261.074 213.247,260.214 213.575,259.353 213.902,258.493 214.229,257.633 214.557,256.772 214.884,255.912 215.211,255.051 215.538,254.191 215.866,253.330 216.193,252.470 216.520,251.610 216.848,250.749 217.175,249.889 217.502,249.028 217.829,248.168 218.157,247.307 218.484,246.447 218.811,245.587 219.139,244.726 219.466,243.866 219.793,243.005 220.120,242.145 220.448,241.284 220.775,240.424 221.102,239.564 221.429,238.703 221.757,237.843 222.084,236.982 222.411,236.122 222.739,235.261 223.066,234.401 223.393,233.541 223.720,232.680 224.048,231.820 224.375,230.959 224.702,230.099 225.030,229.238 225.357,228.378 225.684,227.518 226.011,226.657 226.339,225.797 226.666,224.936 226.993,224.076 227.321,223.215 227.648,222.355 227.975,221.494 228.302,220.634 228.630,219.774 228.957,218.913 229.284,218.053 229.611,217.192 229.939,216.332 230.266,215.471 230.593,214.611 230.921,213.751 231.248,212.890 231.575,212.030 231.902,211.169 232.230,210.309 232.557,209.448 232.884,208.588 233.212,207.728 233.539,206.867 233.866,206.007 234.193,205.146 234.521,204.286 234.848,203.425 235.175,202.565 235.503,201.705 235.830,200.844 236.157,199.984 236.484,199.123 236.812,198.263 237.139,197.402 237.466,196.542 237.793,195.682 238.121,194.821 238.448,193.961 238.775,193.100 239.103,192.240 239.430,191.379 239.757,190.519 240.084,189.659 240.412,188.798 240.739,187.938 241.066,187.077 241.394,186.217 241.721,185.356 242.048,184.496 242.375,183.636 242.703,182.775 243.030,181.915 243.357,181.054 243.685,180.194 244.012,179.333 244.339,178.473 244.666,177.613 244.994,176.752 245.321,175.892 245.648,175.031 245.976,174.171 246.303,173.310 246.630,172.450 246.957,171.590 247.285,170.729 247.612,169.869 247.939,169.008 248.266,168.148 248.594,167.287 248.921,166.427 249.248,165.566 249.576,164.706 249.903,163.846 250.230,162.985 250.557,162.125 250.885,161.264 251.212,160.404 251.539,159.543 251.867,158.683 252.194,157.823 252.521,156.962 252.848,156.102 253.176,155.241 253.503,154.381 253.830,153.520 254.158,152.660 254.485,151.800 254.812,150.939 255.139,150.079 255.467,149.218 255.794,148.358 256.121,147.497 256.448,146.637 256.776,145.777 257.103,144.916 257.430,144.056 257.758,143.195 258.085,142.335 258.412,141.474 258.739,140.614 259.067,139.754 259.394,138.893 259.721,138.033 260.049,137.172 260.376,136.312 260.703,135.451 261.030,134.591 261.358,133.731 261.685,132.870 262.012,132.010 262.340,131.149 262.667,130.289 262.994,129.428 263.321,128.568 263.649,127.708 263.976,126.847 264.303,125.987 264.630,125.126 264.958,124.266 265.285,123.405 265.612,122.545 265.940,121.685 266.267,120.824 266.594,119.964 266.921,119.103 267.249,118.243 267.576,117.382 267.903,116.522 268.231,115.662 268.558,114.801 268.885,113.941 269.212,113.080 269.540,112.220 269.867,111.359 270.194,110.499 270.522,109.638 270.849,108.778 271.176,107.918 271.503,107.057 271.831,106.197 272.158,105.336 272.485,104.476 272.813,103.615 273.140,102.755 273.467,101.895 273.794,101.034 274.122,100.174 274.449,99.313 274.776,98.453 275.103,97.592 275.431,96.732 275.758,95.872 276.085,95.011 276.413,94.151 276.740,93.290 277.067,92.430 277.394,91.569 277.722,90.709 278.049,89.849 278.376,88.988 278.704,88.128 279.031,87.267 279.358,86.407 279.685,85.546 280.013,84.686 280.340,83.826 280.667,82.965 280.995,82.105 281.322,81.244 281.649,80.384 281.976,79.523 282.304,78.663 282.631,77.803 282.958,76.942 283.285,76.082 283.613,75.221 283.940,74.619 284.267,74.619 284.595,74.619 284.922,74.619 285.249,74.619 285.576,74.619 285.904,74.619 286.231,74.619 286.558,74.619 286.886,74.619 287.213,74.619 287.540,74.619 287.867,74.619 288.195,74.619 288.522,74.619 288.849,74.619 289.177,74.619 289.504,74.619 289.831,74.619 290.158,74.619 290.486,74.619 290.813,74.619 291.140,74.619 291.467,74.619 291.795,74.619 292.122,74.619 292.449,74.619 292.777,74.619 293.104,74.619 293.431,74.619 293.758,74.619 294.086,74.619 294.413,74.619 294.740,74.619 295.068,74.619 295.395,74.619 295.722,74.619 296.049,74.619 296.377,74.619 296.704,74.619 297.031,74.619 297.359,74.619 297.686,74.619 298.013,74.619 298.340,74.619 298.668,74.619 298.995,74.619 299.322,74.619 299.649,74.619 299.977,74.619 300.304,74.619 300.631,74.619 300.959,74.619 301.286,74.619 301.613,74.619 301.940,74.619 302.268,74.619 302.595,74.619 302.922,74.619 303.250,74.619 303.577,74.619 303.904,74.619 304.231,74.619 304.559,74.619 304.886,74.619 305.213,74.619 305.541,74.619 305.868,74.619 306.195,74.619 306.522,74.619 306.850,74.619 307.177,74.619 307.504,74.619 307.832,74.619 308.159,74.619 308.486,74.619 308.813,74.619 309.141,74.619 309.468,74.619 309.795,74.619 310.122,74.619 310.450,74.619 310.777,74.619 311.104,74.619 311.432,74.619 311.759,74.619 312.086,74.619 312.413,74.619 312.741,74.619 313.068,74.619 313.395,74.619 313.723,74.619 314.050,74.619 314.377,74.619 314.704,74.619 315.032,74.619 315.359,74.619 315.686,74.619 316.014,74.619 316.341,74.619 316.668,74.619 316.995,74.619 317.323,74.619 317.650,74.619 317.977,74.619 318.304,74.619 318.632,74.619 318.959,74.619 319.286,74.619 319.614,74.619 319.941,74.619 320.268,74.619 320.595,74.619 320.923,74.619 321.250,74.619 321.577,74.619 321.905,74.619 322.232,74.619 322.559,74.619 322.886,74.619 323.214,74.619 323.541,74.619 323.868,74.619 324.196,74.619 324.523,74.619 324.850,74.619 325.177,74.619 325.505,74.619 325.832,74.619 326.159,74.619 326.486,74.619 326.814,74.619 327.141,74.619 327.468,74.619 327.796,74.619 328.123,74.619 328.450,74.619 328.777,74.619 329.105,74.619 329.432,74.619 329.759,74.619 330.087,74.619 330.414,74.619 330.741,74.619 331.068,74.619 331.396,74.619 331.723,74.619 332.050,74.619 332.378,74.619 332.705,74.619 333.032,74.619 333.359,74.619 333.687,74.619 334.014,74.619 334.341,74.619 334.668,74.619 334.996,74.619 335.323,74.619 335.650,74.619 335.978,74.619 336.305,74.619 336.632,74.619 336.959,74.619 337.287,74.619 337.614,74.619 337.941,74.619 338.269,74.619 338.596,74.619 338.923,74.619 339.250,74.619 339.578,74.619 339.905,74.619 340.232,74.619 340.560,74.619 340.887,74.619 341.214,74.619 341.541,74.619 341.869,74.619 342.196,74.619 342.523,74.619 342.851,74.619 343.178,74.619 343.505,74.619 343.832,74.619 344.160,74.619 344.487,74.619 344.814,74.619 345.141,74.619 345.469,74.619 345.796,74.619 346.123,74.619 346.451,74.619 346.778,74.619 347.105,74.619 347.432,74.619 347.760,74.619 348.087,74.619 348.414,74.619 348.742,74.619 349.069,74.619 349.396,74.619 349.723,74.619 350.051,74.619 350.378,74.619 350.705,74.619 351.033,74.619 351.360,74.619 351.687,74.619 352.014,74.619 352.342,74.619 352.669,74.619 352.996,74.619 353.323,74.619 353.651,74.619 353.978,74.619 354.305,74.619 354.633,74.619 354.960,74.619 355.287,74.619 355.614,74.619 355.942,74.619 356.269,74.619 356.596,74.619 356.924,74.619 357.251,74.619 357.578,74.619 357.905,74.619 358.233,74.619 358.560,74.619 358.887,74.619 359.215,74.619 359.542,74.619 359.869,74.619 360.196,74.619 360.524,74.619 360.851,74.619 361.178,74.619 361.505,74.619 361.833,74.619 362.160,74.619 362.487,74.619 362.815,74.619 363.142,74.619 363.469,74.619 363.796,74.619 364.124,74.619 364.451,74.619 364.778,74.619 365.106,74.619 365.433,74.619 365.760,74.619 366.087,74.619 366.415,74.619 366.742,74.619 367.069,74.619 367.397,74.619 367.724,74.619 368.051,74.619 368.378,74.619 368.706,74.619 369.033,74.619 369.360,74.619 369.688,74.619 370.015,74.619 370.342,74.619 370.669,74.619 370.997,74.619 371.324,74.619 371.651,74.619 371.978,74.619 372.306,74.619 372.633,74.619 372.960,74.619 373.288,74.619 373.615,74.619 373.942,74.619 374.269,74.619 374.597,74.619 374.924,74.619 375.251,74.619 375.579,74.619 375.906,74.619 376.233,74.619 376.560,74.619 376.888,74.619 377.215,74.619 377.542,74.619 377.870,74.619 378.197,74.619 378.524,74.619 378.851,74.619 379.179,74.619 379.506,74.619 379.833,74.619 380.160,74.619 380.488,74.619 380.815,74.619 381.142,74.619 381.470,74.619 381.797,74.619 " />
        <g
           id="g29" />
      </g>
      <g
         id="ID000004">
        <g
           id="g32"
           transform="translate(217.851,392.338)">
          <g
             id="g34">
            <text
               style="font-size:11.25px;text-anchor:middle;fill:#000000;font-family:Times New Roman"
               id="text36"
               font-size="9pt"
               y="0"
               x="0">Temperature</text>
          </g>
        </g>
      </g>
      <g
         id="ID000005">
        <g
           id="g39"
           transform="translate(46.393,204.492)">
          <g
             id="g41"
             transform="matrix(0,-1,1,0,0,0)">
            <text
               style="font-size:11.25px;text-anchor:middle;fill:#000000;font-family:Times New Roman"
               id="text43"
               font-size="9pt"
               y="0"
               x="0">Material Toughness</text>
          </g>
        </g>
      </g>
      <g
         id="ID000006" />
    </g>
    <g
       id="g46">
      <polyline
         style="fill:none;stroke:#000000;stroke-width:0.5pt;stroke-dasharray:none"
         id="polyline48"
         points="54.844,375.469 381.797,375.469 " />
      <polyline
         style="fill:none;stroke:#000000;stroke-width:0.5pt;stroke-dasharray:none"
         id="polyline50"
         points="54.844,31.641 381.797,31.641 " />
      <polyline
         style="fill:none;stroke:#000000;stroke-width:0.5pt;stroke-dasharray:none"
         id="polyline52"
         points="54.844,375.469 54.844,31.641 " />
      <polyline
         style="fill:none;stroke:#000000;stroke-width:0.5pt;stroke-dasharray:none"
         id="polyline54"
         points="381.797,375.469 381.797,31.641 " />
      <polyline
         style="fill:none;stroke:#000000;stroke-width:0.5pt;stroke-dasharray:none"
         id="polyline56"
         points="54.844,375.469 54.844,372.030 " />
      <polyline
         style="fill:none;stroke:#000000;stroke-width:0.5pt;stroke-dasharray:none"
         id="polyline58"
         points="54.844,375.469 54.844,375.469 " />
    </g>
  </g>
  <text
     xml:space="preserve"
     style="font-size:22px;font-style:normal;font-variant:normal;font-weight:normal;font-stretch:normal;line-height:125%;letter-spacing:0px;word-spacing:0px;fill:#000000;fill-opacity:1;stroke:none;font-family:Serif;-inkscape-font-specification:Serif"
     x="-147.42392"
     y="313.30478"
     id="text3071"
     sodipodi:linespacing="125%"
     transform="matrix(0.36782349,-0.92989563,0.92989563,0.36782349,0,0)"><tspan
       sodipodi:role="line"
       id="tspan3073"
       x="-147.42392"
       y="313.30478">irradiated</tspan></text>
  <text
     xml:space="preserve"
     style="font-size:22px;font-style:normal;font-variant:normal;font-weight:normal;font-stretch:normal;line-height:125%;letter-spacing:0px;word-spacing:0px;fill:#000000;fill-opacity:1;stroke:none;font-family:Serif;-inkscape-font-specification:Serif"
     x="-155.10474"
     y="249.28856"
     id="text3071-1"
     sodipodi:linespacing="125%"
     transform="matrix(0.36782349,-0.92989563,0.92989563,0.36782349,0,0)"><tspan
       sodipodi:role="line"
       id="tspan3073-7"
       x="-155.10474"
       y="249.28856">unirradiated</tspan></text>
  <text
     xml:space="preserve"
     style="font-size:22px;font-style:normal;font-variant:normal;font-weight:normal;font-stretch:normal;line-height:125%;letter-spacing:0px;word-spacing:0px;fill:#000000;fill-opacity:1;stroke:none;font-family:Serif;-inkscape-font-specification:Serif"
     x="246.60326"
     y="59.10326"
     id="text3096"
     sodipodi:linespacing="125%"><tspan
       sodipodi:role="line"
       id="tspan3098"
       x="246.60326"
       y="59.10326">ductile</tspan></text>
  <text
     xml:space="preserve"
     style="font-size:22px;font-style:normal;font-variant:normal;font-weight:normal;font-stretch:normal;line-height:125%;letter-spacing:0px;word-spacing:0px;fill:#000000;fill-opacity:1;stroke:none;font-family:Serif;-inkscape-font-specification:Serif"
     x="91.71196"
     y="369.39539"
     id="text3100"
     sodipodi:linespacing="125%"><tspan
       sodipodi:role="line"
       id="tspan3102"
       x="91.71196"
       y="369.39539">brittle</tspan></text>
</svg>
