<?xml version="1.0" encoding="UTF-8" standalone="no"?>
<svg
   xmlns:dc="http://purl.org/dc/elements/1.1/"
   xmlns:cc="http://creativecommons.org/ns#"
   xmlns:rdf="http://www.w3.org/1999/02/22-rdf-syntax-ns#"
   xmlns:svg="http://www.w3.org/2000/svg"
   xmlns="http://www.w3.org/2000/svg"
   xmlns:sodipodi="http://sodipodi.sourceforge.net/DTD/sodipodi-0.dtd"
   xmlns:inkscape="http://www.inkscape.org/namespaces/inkscape"
   preserveAspectRatio="xMinYMin meet"
   width="100%"
   height="100%"
   viewBox="0 0 638.438 284.063"
   version="1.1"
   id="svg2"
   inkscape:version="0.48.4 r9939"
   sodipodi:docname="chivse.svg">
  <metadata
     id="metadata542">
    <rdf:RDF>
      <cc:Work
         rdf:about="">
        <dc:format>image/svg+xml</dc:format>
        <dc:type
           rdf:resource="http://purl.org/dc/dcmitype/StillImage" />
      </cc:Work>
    </rdf:RDF>
  </metadata>
  <defs
     id="defs540">
    <clipPath
       id="ID000016">
      <rect
         x="90.155998"
         y="28.281"
         width="188.437"
         height="126.25"
         id="rect426" />
    </clipPath>
    <clipPath
       id="ID000001">
      <rect
         x="82.997002"
         y="21.305"
         width="494.789"
         height="214.94501"
         id="rect11" />
    </clipPath>
  </defs>
  <sodipodi:namedview
     pagecolor="#ffffff"
     bordercolor="#666666"
     borderopacity="1"
     objecttolerance="10"
     gridtolerance="10"
     guidetolerance="10"
     inkscape:pageopacity="0"
     inkscape:pageshadow="2"
     inkscape:window-width="1920"
     inkscape:window-height="1138"
     id="namedview538"
     showgrid="false"
     inkscape:zoom="2.8037178"
     inkscape:cx="319.219"
     inkscape:cy="142.0315"
     inkscape:window-x="-8"
     inkscape:window-y="-8"
     inkscape:window-maximized="1"
     inkscape:current-layer="svg2" />
  <desc
     id="desc4">Matlab Figure Converted by PLOT2SVG written by Juerg Schwizer</desc>
  <polygon
     points="82.997,236.25 577.786,236.25 577.786,21.305 82.997,21.305 "
     id="polygon13"
     style="fill:#ffffff;fill-opacity:1;stroke:none" />
  <polygon
     points="82.997,21.305 577.786,21.305 577.786,21.305 82.997,21.305 "
     id="polygon15"
     style="fill:#ffffff;fill-opacity:1;stroke:none" />
  <polygon
     points="82.997,236.25 82.997,236.25 82.997,21.305 82.997,21.305 "
     id="polygon17"
     style="fill:#ffffff;fill-opacity:1;stroke:none" />
  <g
     clip-path="url(#ID000001)"
     id="ID000002">
    <polyline
       style="fill:none;stroke:#000000;stroke-width:0.5pt;stroke-dasharray:8, 2"
       id="polyline22"
       points="495.321,236.250 495.321,21.305 " />
    <g
       id="g24" />
  </g>
  <g
     clip-path="url(#ID000001)"
     id="ID000003">
    <polygon
       style="fill:#a7a9ac;fill-opacity:1;stroke:none"
       id="polygon27"
       points="541.974,161.51 524.06,161.51 524.06,106.73 506.149,106.73 506.149,99.299 495.321,99.299 495.321,236.25 495.321,236.25 577.786,236.25 577.786,236.25 559.877,236.25 559.877,216.291 541.974,216.291 " />
  </g>
  <g
     clip-path="url(#ID000001)"
     id="ID000004">
    <polyline
       style="fill:none;stroke:#000000;stroke-width:0.5pt;stroke-dasharray:8, 2"
       id="polyline30"
       points="495.321,236.250 495.321,21.305 " />
    <g
       id="g32" />
  </g>
  <g
     clip-path="url(#ID000001)"
     id="ID000005">
    <polyline
       style="fill:none;stroke:#0000ff;stroke-width:0.5pt;stroke-dasharray:none"
       id="polyline35"
       points="577.786,236.250 559.877,236.250 559.877,216.291 541.974,216.291 541.974,161.510 524.060,161.510 524.060,106.730 506.149,106.730 506.149,99.299 488.257,99.299 488.257,130.128 470.353,130.128 470.353,168.389 452.440,168.389 452.440,197.683 434.499,197.683 434.499,216.844 416.594,216.844 416.594,225.933 398.727,225.933 398.727,231.153 380.837,231.153 380.837,233.793 362.920,233.793 362.920,235.083 344.913,235.083 344.913,235.697 327.092,235.697 327.092,236.004 309.175,236.004 309.175,236.127 291.224,236.127 291.224,236.189 273.284,236.189 273.284,236.250 255.341,236.250 255.341,236.250 237.576,236.250 237.576,236.250 219.646,236.250 219.646,236.250 201.691,236.250 201.691,236.250 183.828,236.250 183.828,236.250 165.818,236.250 165.818,236.250 147.993,236.250 147.993,236.250 130.143,236.250 130.143,236.250 112.198,236.250 112.198,236.250 112.198,236.250 " />
    <g
       id="g37" />
  </g>
  <g
     clip-path="url(#ID000001)"
     id="ID000006">
    <polyline
       style="fill:none;stroke:#007f00;stroke-width:0.5pt;stroke-dasharray:none"
       id="polyline40"
       points="577.786,236.250 559.877,236.250 559.877,236.250 541.974,236.250 541.974,236.250 524.060,236.250 524.060,236.250 506.149,236.250 506.149,236.250 488.257,236.250 488.257,230.723 470.353,230.723 470.353,223.353 452.440,223.353 452.440,179.136 434.499,179.136 434.499,182.207 416.594,182.207 416.594,140.446 398.727,140.446 398.727,129.391 380.837,129.391 380.837,131.234 362.920,131.234 362.920,155.799 344.913,155.799 344.913,161.940 327.092,161.940 327.092,223.967 309.175,223.967 309.175,230.109 291.224,230.109 291.224,233.179 273.284,233.179 273.284,235.636 255.341,235.636 255.341,236.250 237.576,236.250 237.576,236.250 219.646,236.250 219.646,236.250 201.691,236.250 201.691,236.250 183.828,236.250 183.828,236.250 165.818,236.250 165.818,236.250 147.993,236.250 147.993,236.250 130.143,236.250 130.143,236.250 112.198,236.250 112.198,236.250 112.198,236.250 " />
    <g
       id="g42" />
  </g>
  <g
     clip-path="url(#ID000001)"
     id="ID000007">
    <polyline
       style="fill:none;stroke:#ff0000;stroke-width:0.5pt;stroke-dasharray:none"
       id="polyline45"
       points="577.786,236.250 559.877,236.250 559.877,236.250 541.974,236.250 541.974,236.250 524.060,236.250 524.060,236.250 506.149,236.250 506.149,236.250 488.257,236.250 488.257,222.739 470.353,222.739 470.353,195.717 452.440,195.717 452.440,55.082 434.499,55.082 434.499,168.696 416.594,168.696 416.594,176.065 398.727,176.065 398.727,169.924 380.837,169.924 380.837,170.538 362.920,170.538 362.920,182.207 344.913,182.207 344.913,187.734 327.092,187.734 327.092,228.266 309.175,228.266 309.175,230.723 291.224,230.723 291.224,233.793 273.284,233.793 273.284,235.636 255.341,235.636 255.341,236.250 237.576,236.250 237.576,236.250 219.646,236.250 219.646,236.250 201.691,236.250 201.691,236.250 183.828,236.250 183.828,236.250 165.818,236.250 165.818,236.250 147.993,236.250 147.993,236.250 130.143,236.250 130.143,236.250 112.198,236.250 112.198,236.250 112.198,236.250 " />
    <g
       id="g47" />
  </g>
  <g
     clip-path="url(#ID000001)"
     id="ID000008">
    <polyline
       style="fill:none;stroke:#00bfbf;stroke-width:0.5pt;stroke-dasharray:none"
       id="polyline50"
       points="577.786,236.250 559.877,236.250 559.877,236.250 541.974,236.250 541.974,236.250 524.060,236.250 524.060,236.250 506.149,236.250 506.149,236.250 488.257,236.250 488.257,228.880 470.353,228.880 470.353,193.261 452.440,193.261 452.440,118.951 434.499,118.951 434.499,178.522 416.594,178.522 416.594,176.679 398.727,176.679 398.727,140.446 380.837,140.446 380.837,149.044 362.920,149.044 362.920,163.783 344.913,163.783 344.913,187.120 327.092,187.120 327.092,227.038 309.175,227.038 309.175,228.880 291.224,228.880 291.224,233.179 273.284,233.179 273.284,236.250 255.341,236.250 255.341,236.250 237.576,236.250 237.576,236.250 219.646,236.250 219.646,236.250 201.691,236.250 201.691,236.250 183.828,236.250 183.828,236.250 165.818,236.250 165.818,236.250 147.993,236.250 147.993,236.250 130.143,236.250 130.143,236.250 112.198,236.250 112.198,236.250 112.198,236.250 " />
    <g
       id="g52" />
  </g>
  <g
     clip-path="url(#ID000001)"
     id="ID000009">
    <polyline
       style="fill:none;stroke:#bf00bf;stroke-width:0.5pt;stroke-dasharray:none"
       id="polyline55"
       points="577.786,236.250 559.877,236.250 559.877,236.250 541.974,236.250 541.974,236.250 524.060,236.250 524.060,236.250 506.149,236.250 506.149,230.723 488.257,230.723 488.257,220.897 470.353,220.897 470.353,198.174 452.440,198.174 452.440,123.250 434.499,123.250 434.499,157.641 416.594,157.641 416.594,139.832 398.727,139.832 398.727,169.310 380.837,169.310 380.837,169.310 362.920,169.310 362.920,175.451 344.913,175.451 344.913,181.592 327.092,181.592 327.092,227.038 309.175,227.038 309.175,230.109 291.224,230.109 291.224,233.793 273.284,233.793 273.284,236.250 255.341,236.250 255.341,236.250 237.576,236.250 237.576,236.250 219.646,236.250 219.646,236.250 201.691,236.250 201.691,236.250 183.828,236.250 183.828,236.250 165.818,236.250 165.818,236.250 147.993,236.250 147.993,236.250 130.143,236.250 130.143,236.250 112.198,236.250 112.198,236.250 112.198,236.250 " />
    <g
       id="g57" />
  </g>
  <g
     id="ID000010">
    <g
       id="g60"
       transform="translate(329.453,277.443)">
      <g
         id="g62">
        <text
           style="font-size:13.75px;text-anchor:middle;fill:#000000;font-family:Times New Roman"
           id="text64"
           font-size="11pt"
           y="0"
           x="0">Neutron Emission Spectra ($\ln\left(E\right)$) [$MeV$]</text>
      </g>
    </g>
  </g>
  <g
     id="ID000011">
    <g
       id="g67"
       transform="translate(41.221,129.716)">
      <g
         id="g69"
         transform="matrix(0,-1,1,0,0,0)">
        <text
           style="font-size:13.75px;text-anchor:middle;fill:#000000;font-family:Times New Roman"
           id="text71"
           font-size="11pt"
           y="0"
           x="0">Fraction Emitted ($\chi$) [ ]</text>
      </g>
    </g>
  </g>
  <g
     id="ID000012" />
  <g
     id="ID000013" />
  <g
     id="ID000014" />
  <polyline
     style="fill:none;stroke:#000000;stroke-width:0.5pt;stroke-dasharray:none"
     id="polyline78"
     points="165.462,236.250 165.462,231.302 " />
  <polyline
     style="fill:none;stroke:#000000;stroke-width:0.5pt;stroke-dasharray:none"
     id="polyline80"
     points="247.927,236.250 247.927,231.302 " />
  <polyline
     style="fill:none;stroke:#000000;stroke-width:0.5pt;stroke-dasharray:none"
     id="polyline82"
     points="330.391,236.250 330.391,231.302 " />
  <polyline
     style="fill:none;stroke:#000000;stroke-width:0.5pt;stroke-dasharray:none"
     id="polyline84"
     points="412.856,236.250 412.856,231.302 " />
  <polyline
     style="fill:none;stroke:#000000;stroke-width:0.5pt;stroke-dasharray:none"
     id="polyline86"
     points="495.321,236.250 495.321,231.302 " />
  <polyline
     style="fill:none;stroke:#000000;stroke-width:0.5pt;stroke-dasharray:none"
     id="polyline88"
     points="82.997,236.250 577.786,236.250 " />
  <polyline
     style="fill:none;stroke:#000000;stroke-width:0.5pt;stroke-dasharray:none"
     id="polyline90"
     points="165.462,21.305 165.462,26.253 " />
  <polyline
     style="fill:none;stroke:#000000;stroke-width:0.5pt;stroke-dasharray:none"
     id="polyline92"
     points="247.927,21.305 247.927,26.253 " />
  <polyline
     style="fill:none;stroke:#000000;stroke-width:0.5pt;stroke-dasharray:none"
     id="polyline94"
     points="330.391,21.305 330.391,26.253 " />
  <polyline
     style="fill:none;stroke:#000000;stroke-width:0.5pt;stroke-dasharray:none"
     id="polyline96"
     points="412.856,21.305 412.856,26.253 " />
  <polyline
     style="fill:none;stroke:#000000;stroke-width:0.5pt;stroke-dasharray:none"
     id="polyline98"
     points="495.321,21.305 495.321,26.253 " />
  <polyline
     style="fill:none;stroke:#000000;stroke-width:0.5pt;stroke-dasharray:none"
     id="polyline100"
     points="82.997,21.305 577.786,21.305 " />
  <polyline
     style="fill:none;stroke:#000000;stroke-width:0.5pt;stroke-dasharray:none"
     id="polyline102"
     points="107.821,236.250 107.821,233.776 " />
  <polyline
     style="fill:none;stroke:#000000;stroke-width:0.5pt;stroke-dasharray:none"
     id="polyline104"
     points="122.343,236.250 122.343,233.776 " />
  <polyline
     style="fill:none;stroke:#000000;stroke-width:0.5pt;stroke-dasharray:none"
     id="polyline106"
     points="132.646,236.250 132.646,233.776 " />
  <polyline
     style="fill:none;stroke:#000000;stroke-width:0.5pt;stroke-dasharray:none"
     id="polyline108"
     points="140.637,236.250 140.637,233.776 " />
  <polyline
     style="fill:none;stroke:#000000;stroke-width:0.5pt;stroke-dasharray:none"
     id="polyline110"
     points="147.167,236.250 147.167,233.776 " />
  <polyline
     style="fill:none;stroke:#000000;stroke-width:0.5pt;stroke-dasharray:none"
     id="polyline112"
     points="152.688,236.250 152.688,233.776 " />
  <polyline
     style="fill:none;stroke:#000000;stroke-width:0.5pt;stroke-dasharray:none"
     id="polyline114"
     points="157.470,236.250 157.470,233.776 " />
  <polyline
     style="fill:none;stroke:#000000;stroke-width:0.5pt;stroke-dasharray:none"
     id="polyline116"
     points="161.688,236.250 161.688,233.776 " />
  <polyline
     style="fill:none;stroke:#000000;stroke-width:0.5pt;stroke-dasharray:none"
     id="polyline118"
     points="190.286,236.250 190.286,233.776 " />
  <polyline
     style="fill:none;stroke:#000000;stroke-width:0.5pt;stroke-dasharray:none"
     id="polyline120"
     points="204.807,236.250 204.807,233.776 " />
  <polyline
     style="fill:none;stroke:#000000;stroke-width:0.5pt;stroke-dasharray:none"
     id="polyline122"
     points="215.111,236.250 215.111,233.776 " />
  <polyline
     style="fill:none;stroke:#000000;stroke-width:0.5pt;stroke-dasharray:none"
     id="polyline124"
     points="223.102,236.250 223.102,233.776 " />
  <polyline
     style="fill:none;stroke:#000000;stroke-width:0.5pt;stroke-dasharray:none"
     id="polyline126"
     points="229.632,236.250 229.632,233.776 " />
  <polyline
     style="fill:none;stroke:#000000;stroke-width:0.5pt;stroke-dasharray:none"
     id="polyline128"
     points="235.153,236.250 235.153,233.776 " />
  <polyline
     style="fill:none;stroke:#000000;stroke-width:0.5pt;stroke-dasharray:none"
     id="polyline130"
     points="239.935,236.250 239.935,233.776 " />
  <polyline
     style="fill:none;stroke:#000000;stroke-width:0.5pt;stroke-dasharray:none"
     id="polyline132"
     points="244.153,236.250 244.153,233.776 " />
  <polyline
     style="fill:none;stroke:#000000;stroke-width:0.5pt;stroke-dasharray:none"
     id="polyline134"
     points="272.751,236.250 272.751,233.776 " />
  <polyline
     style="fill:none;stroke:#000000;stroke-width:0.5pt;stroke-dasharray:none"
     id="polyline136"
     points="287.272,236.250 287.272,233.776 " />
  <polyline
     style="fill:none;stroke:#000000;stroke-width:0.5pt;stroke-dasharray:none"
     id="polyline138"
     points="297.575,236.250 297.575,233.776 " />
  <polyline
     style="fill:none;stroke:#000000;stroke-width:0.5pt;stroke-dasharray:none"
     id="polyline140"
     points="305.567,236.250 305.567,233.776 " />
  <polyline
     style="fill:none;stroke:#000000;stroke-width:0.5pt;stroke-dasharray:none"
     id="polyline142"
     points="312.097,236.250 312.097,233.776 " />
  <polyline
     style="fill:none;stroke:#000000;stroke-width:0.5pt;stroke-dasharray:none"
     id="polyline144"
     points="317.617,236.250 317.617,233.776 " />
  <polyline
     style="fill:none;stroke:#000000;stroke-width:0.5pt;stroke-dasharray:none"
     id="polyline146"
     points="322.400,236.250 322.400,233.776 " />
  <polyline
     style="fill:none;stroke:#000000;stroke-width:0.5pt;stroke-dasharray:none"
     id="polyline148"
     points="326.618,236.250 326.618,233.776 " />
  <polyline
     style="fill:none;stroke:#000000;stroke-width:0.5pt;stroke-dasharray:none"
     id="polyline150"
     points="355.216,236.250 355.216,233.776 " />
  <polyline
     style="fill:none;stroke:#000000;stroke-width:0.5pt;stroke-dasharray:none"
     id="polyline152"
     points="369.737,236.250 369.737,233.776 " />
  <polyline
     style="fill:none;stroke:#000000;stroke-width:0.5pt;stroke-dasharray:none"
     id="polyline154"
     points="380.040,236.250 380.040,233.776 " />
  <polyline
     style="fill:none;stroke:#000000;stroke-width:0.5pt;stroke-dasharray:none"
     id="polyline156"
     points="388.032,236.250 388.032,233.776 " />
  <polyline
     style="fill:none;stroke:#000000;stroke-width:0.5pt;stroke-dasharray:none"
     id="polyline158"
     points="394.562,236.250 394.562,233.776 " />
  <polyline
     style="fill:none;stroke:#000000;stroke-width:0.5pt;stroke-dasharray:none"
     id="polyline160"
     points="400.082,236.250 400.082,233.776 " />
  <polyline
     style="fill:none;stroke:#000000;stroke-width:0.5pt;stroke-dasharray:none"
     id="polyline162"
     points="404.865,236.250 404.865,233.776 " />
  <polyline
     style="fill:none;stroke:#000000;stroke-width:0.5pt;stroke-dasharray:none"
     id="polyline164"
     points="409.083,236.250 409.083,233.776 " />
  <polyline
     style="fill:none;stroke:#000000;stroke-width:0.5pt;stroke-dasharray:none"
     id="polyline166"
     points="437.681,236.250 437.681,233.776 " />
  <polyline
     style="fill:none;stroke:#000000;stroke-width:0.5pt;stroke-dasharray:none"
     id="polyline168"
     points="452.202,236.250 452.202,233.776 " />
  <polyline
     style="fill:none;stroke:#000000;stroke-width:0.5pt;stroke-dasharray:none"
     id="polyline170"
     points="462.505,236.250 462.505,233.776 " />
  <polyline
     style="fill:none;stroke:#000000;stroke-width:0.5pt;stroke-dasharray:none"
     id="polyline172"
     points="470.497,236.250 470.497,233.776 " />
  <polyline
     style="fill:none;stroke:#000000;stroke-width:0.5pt;stroke-dasharray:none"
     id="polyline174"
     points="477.026,236.250 477.026,233.776 " />
  <polyline
     style="fill:none;stroke:#000000;stroke-width:0.5pt;stroke-dasharray:none"
     id="polyline176"
     points="482.547,236.250 482.547,233.776 " />
  <polyline
     style="fill:none;stroke:#000000;stroke-width:0.5pt;stroke-dasharray:none"
     id="polyline178"
     points="487.329,236.250 487.329,233.776 " />
  <polyline
     style="fill:none;stroke:#000000;stroke-width:0.5pt;stroke-dasharray:none"
     id="polyline180"
     points="491.548,236.250 491.548,233.776 " />
  <polyline
     style="fill:none;stroke:#000000;stroke-width:0.5pt;stroke-dasharray:none"
     id="polyline182"
     points="520.145,236.250 520.145,233.776 " />
  <polyline
     style="fill:none;stroke:#000000;stroke-width:0.5pt;stroke-dasharray:none"
     id="polyline184"
     points="534.667,236.250 534.667,233.776 " />
  <polyline
     style="fill:none;stroke:#000000;stroke-width:0.5pt;stroke-dasharray:none"
     id="polyline186"
     points="544.970,236.250 544.970,233.776 " />
  <polyline
     style="fill:none;stroke:#000000;stroke-width:0.5pt;stroke-dasharray:none"
     id="polyline188"
     points="552.962,236.250 552.962,233.776 " />
  <polyline
     style="fill:none;stroke:#000000;stroke-width:0.5pt;stroke-dasharray:none"
     id="polyline190"
     points="559.491,236.250 559.491,233.776 " />
  <polyline
     style="fill:none;stroke:#000000;stroke-width:0.5pt;stroke-dasharray:none"
     id="polyline192"
     points="565.012,236.250 565.012,233.776 " />
  <polyline
     style="fill:none;stroke:#000000;stroke-width:0.5pt;stroke-dasharray:none"
     id="polyline194"
     points="569.794,236.250 569.794,233.776 " />
  <polyline
     style="fill:none;stroke:#000000;stroke-width:0.5pt;stroke-dasharray:none"
     id="polyline196"
     points="574.013,236.250 574.013,233.776 " />
  <polyline
     style="fill:none;stroke:#000000;stroke-width:0.5pt;stroke-dasharray:none"
     id="polyline198"
     points="107.821,21.305 107.821,23.779 " />
  <polyline
     style="fill:none;stroke:#000000;stroke-width:0.5pt;stroke-dasharray:none"
     id="polyline200"
     points="122.343,21.305 122.343,23.779 " />
  <polyline
     style="fill:none;stroke:#000000;stroke-width:0.5pt;stroke-dasharray:none"
     id="polyline202"
     points="132.646,21.305 132.646,23.779 " />
  <polyline
     style="fill:none;stroke:#000000;stroke-width:0.5pt;stroke-dasharray:none"
     id="polyline204"
     points="140.637,21.305 140.637,23.779 " />
  <polyline
     style="fill:none;stroke:#000000;stroke-width:0.5pt;stroke-dasharray:none"
     id="polyline206"
     points="147.167,21.305 147.167,23.779 " />
  <polyline
     style="fill:none;stroke:#000000;stroke-width:0.5pt;stroke-dasharray:none"
     id="polyline208"
     points="152.688,21.305 152.688,23.779 " />
  <polyline
     style="fill:none;stroke:#000000;stroke-width:0.5pt;stroke-dasharray:none"
     id="polyline210"
     points="157.470,21.305 157.470,23.779 " />
  <polyline
     style="fill:none;stroke:#000000;stroke-width:0.5pt;stroke-dasharray:none"
     id="polyline212"
     points="161.688,21.305 161.688,23.779 " />
  <polyline
     style="fill:none;stroke:#000000;stroke-width:0.5pt;stroke-dasharray:none"
     id="polyline214"
     points="190.286,21.305 190.286,23.779 " />
  <polyline
     style="fill:none;stroke:#000000;stroke-width:0.5pt;stroke-dasharray:none"
     id="polyline216"
     points="204.807,21.305 204.807,23.779 " />
  <polyline
     style="fill:none;stroke:#000000;stroke-width:0.5pt;stroke-dasharray:none"
     id="polyline218"
     points="215.111,21.305 215.111,23.779 " />
  <polyline
     style="fill:none;stroke:#000000;stroke-width:0.5pt;stroke-dasharray:none"
     id="polyline220"
     points="223.102,21.305 223.102,23.779 " />
  <polyline
     style="fill:none;stroke:#000000;stroke-width:0.5pt;stroke-dasharray:none"
     id="polyline222"
     points="229.632,21.305 229.632,23.779 " />
  <polyline
     style="fill:none;stroke:#000000;stroke-width:0.5pt;stroke-dasharray:none"
     id="polyline224"
     points="235.153,21.305 235.153,23.779 " />
  <polyline
     style="fill:none;stroke:#000000;stroke-width:0.5pt;stroke-dasharray:none"
     id="polyline226"
     points="239.935,21.305 239.935,23.779 " />
  <polyline
     style="fill:none;stroke:#000000;stroke-width:0.5pt;stroke-dasharray:none"
     id="polyline228"
     points="244.153,21.305 244.153,23.779 " />
  <polyline
     style="fill:none;stroke:#000000;stroke-width:0.5pt;stroke-dasharray:none"
     id="polyline230"
     points="272.751,21.305 272.751,23.779 " />
  <polyline
     style="fill:none;stroke:#000000;stroke-width:0.5pt;stroke-dasharray:none"
     id="polyline232"
     points="287.272,21.305 287.272,23.779 " />
  <polyline
     style="fill:none;stroke:#000000;stroke-width:0.5pt;stroke-dasharray:none"
     id="polyline234"
     points="297.575,21.305 297.575,23.779 " />
  <polyline
     style="fill:none;stroke:#000000;stroke-width:0.5pt;stroke-dasharray:none"
     id="polyline236"
     points="305.567,21.305 305.567,23.779 " />
  <polyline
     style="fill:none;stroke:#000000;stroke-width:0.5pt;stroke-dasharray:none"
     id="polyline238"
     points="312.097,21.305 312.097,23.779 " />
  <polyline
     style="fill:none;stroke:#000000;stroke-width:0.5pt;stroke-dasharray:none"
     id="polyline240"
     points="317.617,21.305 317.617,23.779 " />
  <polyline
     style="fill:none;stroke:#000000;stroke-width:0.5pt;stroke-dasharray:none"
     id="polyline242"
     points="322.400,21.305 322.400,23.779 " />
  <polyline
     style="fill:none;stroke:#000000;stroke-width:0.5pt;stroke-dasharray:none"
     id="polyline244"
     points="326.618,21.305 326.618,23.779 " />
  <polyline
     style="fill:none;stroke:#000000;stroke-width:0.5pt;stroke-dasharray:none"
     id="polyline246"
     points="355.216,21.305 355.216,23.779 " />
  <polyline
     style="fill:none;stroke:#000000;stroke-width:0.5pt;stroke-dasharray:none"
     id="polyline248"
     points="369.737,21.305 369.737,23.779 " />
  <polyline
     style="fill:none;stroke:#000000;stroke-width:0.5pt;stroke-dasharray:none"
     id="polyline250"
     points="380.040,21.305 380.040,23.779 " />
  <polyline
     style="fill:none;stroke:#000000;stroke-width:0.5pt;stroke-dasharray:none"
     id="polyline252"
     points="388.032,21.305 388.032,23.779 " />
  <polyline
     style="fill:none;stroke:#000000;stroke-width:0.5pt;stroke-dasharray:none"
     id="polyline254"
     points="394.562,21.305 394.562,23.779 " />
  <polyline
     style="fill:none;stroke:#000000;stroke-width:0.5pt;stroke-dasharray:none"
     id="polyline256"
     points="400.082,21.305 400.082,23.779 " />
  <polyline
     style="fill:none;stroke:#000000;stroke-width:0.5pt;stroke-dasharray:none"
     id="polyline258"
     points="404.865,21.305 404.865,23.779 " />
  <polyline
     style="fill:none;stroke:#000000;stroke-width:0.5pt;stroke-dasharray:none"
     id="polyline260"
     points="409.083,21.305 409.083,23.779 " />
  <polyline
     style="fill:none;stroke:#000000;stroke-width:0.5pt;stroke-dasharray:none"
     id="polyline262"
     points="437.681,21.305 437.681,23.779 " />
  <polyline
     style="fill:none;stroke:#000000;stroke-width:0.5pt;stroke-dasharray:none"
     id="polyline264"
     points="452.202,21.305 452.202,23.779 " />
  <polyline
     style="fill:none;stroke:#000000;stroke-width:0.5pt;stroke-dasharray:none"
     id="polyline266"
     points="462.505,21.305 462.505,23.779 " />
  <polyline
     style="fill:none;stroke:#000000;stroke-width:0.5pt;stroke-dasharray:none"
     id="polyline268"
     points="470.497,21.305 470.497,23.779 " />
  <polyline
     style="fill:none;stroke:#000000;stroke-width:0.5pt;stroke-dasharray:none"
     id="polyline270"
     points="477.026,21.305 477.026,23.779 " />
  <polyline
     style="fill:none;stroke:#000000;stroke-width:0.5pt;stroke-dasharray:none"
     id="polyline272"
     points="482.547,21.305 482.547,23.779 " />
  <polyline
     style="fill:none;stroke:#000000;stroke-width:0.5pt;stroke-dasharray:none"
     id="polyline274"
     points="487.329,21.305 487.329,23.779 " />
  <polyline
     style="fill:none;stroke:#000000;stroke-width:0.5pt;stroke-dasharray:none"
     id="polyline276"
     points="491.548,21.305 491.548,23.779 " />
  <polyline
     style="fill:none;stroke:#000000;stroke-width:0.5pt;stroke-dasharray:none"
     id="polyline278"
     points="520.145,21.305 520.145,23.779 " />
  <polyline
     style="fill:none;stroke:#000000;stroke-width:0.5pt;stroke-dasharray:none"
     id="polyline280"
     points="534.667,21.305 534.667,23.779 " />
  <polyline
     style="fill:none;stroke:#000000;stroke-width:0.5pt;stroke-dasharray:none"
     id="polyline282"
     points="544.970,21.305 544.970,23.779 " />
  <polyline
     style="fill:none;stroke:#000000;stroke-width:0.5pt;stroke-dasharray:none"
     id="polyline284"
     points="552.962,21.305 552.962,23.779 " />
  <polyline
     style="fill:none;stroke:#000000;stroke-width:0.5pt;stroke-dasharray:none"
     id="polyline286"
     points="559.491,21.305 559.491,23.779 " />
  <polyline
     style="fill:none;stroke:#000000;stroke-width:0.5pt;stroke-dasharray:none"
     id="polyline288"
     points="565.012,21.305 565.012,23.779 " />
  <polyline
     style="fill:none;stroke:#000000;stroke-width:0.5pt;stroke-dasharray:none"
     id="polyline290"
     points="569.794,21.305 569.794,23.779 " />
  <polyline
     style="fill:none;stroke:#000000;stroke-width:0.5pt;stroke-dasharray:none"
     id="polyline292"
     points="574.013,21.305 574.013,23.779 " />
  <g
     id="g294"
     transform="translate(82.997,258.324)">
    <g
       id="g296">
      <text
         style="font-size:13.75px;text-anchor:middle;fill:#000000;font-family:Times New Roman"
         id="text298"
         font-size="11pt"
         y="0"
         x="0">
        <tspan
           style="font-size:9.875px"
           id="tspan300"
           font-size="7.9pt">$10^{1}$</tspan>
      </text>
    </g>
  </g>
  <g
     id="g302"
     transform="translate(165.462,258.324)">
    <g
       id="g304">
      <text
         style="font-size:13.75px;text-anchor:middle;fill:#000000;font-family:Times New Roman"
         id="text306"
         font-size="11pt"
         y="0"
         x="0">$10^{2}$</text>
    </g>
  </g>
  <g
     id="g310"
     transform="translate(247.927,258.324)">
    <g
       id="g312">
      <text
         style="font-size:13.75px;text-anchor:middle;fill:#000000;font-family:Times New Roman"
         id="text314"
         font-size="11pt"
         y="0"
         x="0">$10^{3}$</text>
    </g>
  </g>
  <g
     id="g318"
     transform="translate(330.391,258.324)">
    <g
       id="g320">
      <text
         style="font-size:13.75px;text-anchor:middle;fill:#000000;font-family:Times New Roman"
         id="text322"
         font-size="11pt"
         y="0"
         x="0">$10^{4}$</text>
    </g>
  </g>
  <g
     id="g326"
     transform="translate(412.856,258.324)">
    <g
       id="g328">
      <text
         style="font-size:13.75px;text-anchor:middle;fill:#000000;font-family:Times New Roman"
         id="text330"
         font-size="11pt"
         y="0"
         x="0">$10^{5}$</text>
    </g>
  </g>
  <g
     id="g334"
     transform="translate(495.321,258.324)">
    <g
       id="g336">
      <text
         style="font-size:13.75px;text-anchor:middle;fill:#000000;font-family:Times New Roman"
         id="text338"
         font-size="11pt"
         y="0"
         x="0">$10^{6}$</text>
    </g>
  </g>
  <g
     id="g342"
     transform="translate(577.786,258.324)">
    <g
       id="g344">
      <text
         style="font-size:13.75px;text-anchor:middle;fill:#000000;font-family:Times New Roman"
         id="text346"
         font-size="11pt"
         y="0"
         x="0">$10^{7}$</text>
    </g>
  </g>
  <polyline
     style="fill:none;stroke:#000000;stroke-width:0.5pt;stroke-dasharray:none"
     id="polyline350"
     points="82.997,205.544 87.945,205.544 " />
  <polyline
     style="fill:none;stroke:#000000;stroke-width:0.5pt;stroke-dasharray:none"
     id="polyline352"
     points="82.997,174.837 87.945,174.837 " />
  <polyline
     style="fill:none;stroke:#000000;stroke-width:0.5pt;stroke-dasharray:none"
     id="polyline354"
     points="82.997,144.131 87.945,144.131 " />
  <polyline
     style="fill:none;stroke:#000000;stroke-width:0.5pt;stroke-dasharray:none"
     id="polyline356"
     points="82.997,113.424 87.945,113.424 " />
  <polyline
     style="fill:none;stroke:#000000;stroke-width:0.5pt;stroke-dasharray:none"
     id="polyline358"
     points="82.997,82.718 87.945,82.718 " />
  <polyline
     style="fill:none;stroke:#000000;stroke-width:0.5pt;stroke-dasharray:none"
     id="polyline360"
     points="82.997,52.011 87.945,52.011 " />
  <polyline
     style="fill:none;stroke:#000000;stroke-width:0.5pt;stroke-dasharray:none"
     id="polyline362"
     points="82.997,236.250 82.997,21.305 " />
  <polyline
     style="fill:none;stroke:#000000;stroke-width:0.5pt;stroke-dasharray:none"
     id="polyline364"
     points="577.786,205.544 572.838,205.544 " />
  <polyline
     style="fill:none;stroke:#000000;stroke-width:0.5pt;stroke-dasharray:none"
     id="polyline366"
     points="577.786,174.837 572.838,174.837 " />
  <polyline
     style="fill:none;stroke:#000000;stroke-width:0.5pt;stroke-dasharray:none"
     id="polyline368"
     points="577.786,144.131 572.838,144.131 " />
  <polyline
     style="fill:none;stroke:#000000;stroke-width:0.5pt;stroke-dasharray:none"
     id="polyline370"
     points="577.786,113.424 572.838,113.424 " />
  <polyline
     style="fill:none;stroke:#000000;stroke-width:0.5pt;stroke-dasharray:none"
     id="polyline372"
     points="577.786,82.718 572.838,82.718 " />
  <polyline
     style="fill:none;stroke:#000000;stroke-width:0.5pt;stroke-dasharray:none"
     id="polyline374"
     points="577.786,52.011 572.838,52.011 " />
  <polyline
     style="fill:none;stroke:#000000;stroke-width:0.5pt;stroke-dasharray:none"
     id="polyline376"
     points="577.786,236.250 577.786,21.305 " />
  <g
     id="g378"
     transform="translate(73.101,241.313)">
    <g
       id="g380">
      <text
         style="font-size:13.75px;text-anchor:end;fill:#000000;font-family:Times New Roman"
         id="text382"
         font-size="11pt"
         y="0"
         x="0">0</text>
    </g>
  </g>
  <g
     id="g384"
     transform="translate(73.101,210.606)">
    <g
       id="g386">
      <text
         style="font-size:13.75px;text-anchor:end;fill:#000000;font-family:Times New Roman"
         id="text388"
         font-size="11pt"
         y="0"
         x="0">0.05</text>
    </g>
  </g>
  <g
     id="g390"
     transform="translate(73.101,179.9)">
    <g
       id="g392">
      <text
         style="font-size:13.75px;text-anchor:end;fill:#000000;font-family:Times New Roman"
         id="text394"
         font-size="11pt"
         y="0"
         x="0">0.1</text>
    </g>
  </g>
  <g
     id="g396"
     transform="translate(73.101,149.193)">
    <g
       id="g398">
      <text
         style="font-size:13.75px;text-anchor:end;fill:#000000;font-family:Times New Roman"
         id="text400"
         font-size="11pt"
         y="0"
         x="0">0.15</text>
    </g>
  </g>
  <g
     id="g402"
     transform="translate(73.101,118.487)">
    <g
       id="g404">
      <text
         style="font-size:13.75px;text-anchor:end;fill:#000000;font-family:Times New Roman"
         id="text406"
         font-size="11pt"
         y="0"
         x="0">0.2</text>
    </g>
  </g>
  <g
     id="g408"
     transform="translate(73.101,87.78)">
    <g
       id="g410">
      <text
         style="font-size:13.75px;text-anchor:end;fill:#000000;font-family:Times New Roman"
         id="text412"
         font-size="11pt"
         y="0"
         x="0">0.25</text>
    </g>
  </g>
  <g
     id="g414"
     transform="translate(73.101,57.074)">
    <g
       id="g416">
      <text
         style="font-size:13.75px;text-anchor:end;fill:#000000;font-family:Times New Roman"
         id="text418"
         font-size="11pt"
         y="0"
         x="0">0.3</text>
    </g>
  </g>
  <polyline
     style="fill:none;stroke:#000000;stroke-width:0.5pt;stroke-dasharray:none"
     id="polyline420"
     points="82.997,236.250 82.997,234.101 " />
  <polyline
     style="fill:none;stroke:#000000;stroke-width:0.5pt;stroke-dasharray:none"
     id="polyline422"
     points="82.997,236.250 82.997,236.250 " />
  <polygon
     points="90.156,28.281 278.594,28.281 278.594,28.281 90.156,28.281 "
     id="polygon430"
     style="fill:#ffffff;fill-opacity:1;stroke:none" />
  <polygon
     points="90.156,154.531 90.156,154.531 90.156,28.281 90.156,28.281 "
     id="polygon432"
     style="fill:#ffffff;fill-opacity:1;stroke:none" />
  <g
     id="ID000017">
    <g
       id="g437"
       transform="translate(139.375,45.969)">
      <g
         id="g439">
        <text
           style="font-size:13.75px;text-anchor:start;fill:#000000;font-family:Times New Roman"
           id="text441"
           font-size="11pt"
           y="0"
           x="0">Total</text>
      </g>
    </g>
  </g>
  <g
     clip-path="url(#ID000016)"
     id="ID000018">
    <polyline
       style="fill:none;stroke:#0000ff;stroke-width:0.5pt;stroke-dasharray:none"
       id="polyline444"
       points="97.656,40.625 135.156,40.625 " />
    <g
       id="g446" />
  </g>
  <g
     clip-path="url(#ID000016)"
     id="ID000019">
    <g
       id="g449" />
  </g>
  <g
     id="ID000020">
    <g
       id="g452"
       transform="translate(139.375,66.543)">
      <g
         id="g454">
        <text
           style="font-size:13.75px;text-anchor:start;fill:#000000;font-family:Times New Roman"
           id="text456"
           font-size="11pt"
           y="0"
           x="0">Group 1</text>
      </g>
    </g>
  </g>
  <g
     clip-path="url(#ID000016)"
     id="ID000021">
    <polyline
       style="fill:none;stroke:#007f00;stroke-width:0.5pt;stroke-dasharray:none"
       id="polyline459"
       points="97.656,60.937 135.156,60.937 " />
    <g
       id="g461" />
  </g>
  <g
     clip-path="url(#ID000016)"
     id="ID000022">
    <g
       id="g464" />
  </g>
  <g
     id="ID000023">
    <g
       id="g467"
       transform="translate(139.375,87.117)">
      <g
         id="g469">
        <text
           style="font-size:13.75px;text-anchor:start;fill:#000000;font-family:Times New Roman"
           id="text471"
           font-size="11pt"
           y="0"
           x="0">Group 2</text>
      </g>
    </g>
  </g>
  <g
     clip-path="url(#ID000016)"
     id="ID000024">
    <polyline
       style="fill:none;stroke:#ff0000;stroke-width:0.5pt;stroke-dasharray:none"
       id="polyline474"
       points="97.656,81.250 135.156,81.250 " />
    <g
       id="g476" />
  </g>
  <g
     clip-path="url(#ID000016)"
     id="ID000025">
    <g
       id="g479" />
  </g>
  <g
     id="ID000026">
    <g
       id="g482"
       transform="translate(139.375,107.691)">
      <g
         id="g484">
        <text
           style="font-size:13.75px;text-anchor:start;fill:#000000;font-family:Times New Roman"
           id="text486"
           font-size="11pt"
           y="0"
           x="0">Group 3</text>
      </g>
    </g>
  </g>
  <g
     clip-path="url(#ID000016)"
     id="ID000027">
    <polyline
       style="fill:none;stroke:#00bfbf;stroke-width:0.5pt;stroke-dasharray:none"
       id="polyline489"
       points="97.656,101.562 135.156,101.562 " />
    <g
       id="g491" />
  </g>
  <g
     clip-path="url(#ID000016)"
     id="ID000028">
    <g
       id="g494" />
  </g>
  <g
     id="ID000029">
    <g
       id="g497"
       transform="translate(139.375,128.265)">
      <g
         id="g499">
        <text
           style="font-size:13.75px;text-anchor:start;fill:#000000;font-family:Times New Roman"
           id="text501"
           font-size="11pt"
           y="0"
           x="0">Group 4-6</text>
      </g>
    </g>
  </g>
  <g
     clip-path="url(#ID000016)"
     id="ID000030">
    <polyline
       style="fill:none;stroke:#bf00bf;stroke-width:0.5pt;stroke-dasharray:none"
       id="polyline504"
       points="97.656,121.875 135.156,121.875 " />
    <g
       id="g506" />
  </g>
  <g
     clip-path="url(#ID000016)"
     id="ID000031">
    <g
       id="g509" />
  </g>
  <g
     id="ID000032">
    <g
       id="g512"
       transform="translate(139.375,148.839)">
      <g
         id="g514">
        <text
           style="font-size:13.75px;text-anchor:start;fill:#000000;font-family:Times New Roman"
           id="text516"
           font-size="11pt"
           y="0"
           x="0">Fast Fission Fraction</text>
      </g>
    </g>
  </g>
  <g
     clip-path="url(#ID000016)"
     id="ID000033">
    <polygon
       style="fill:#a7a9ac;fill-opacity:1;stroke:none"
       id="polygon519"
       points="135.156,134.625 135.156,149.75 97.656,149.75 97.656,134.625 " />
  </g>
  <g
     id="ID000034" />
  <g
     id="ID000035" />
  <g
     id="ID000036" />
  <polyline
     style="fill:none;stroke:#000000;stroke-width:0.5pt;stroke-dasharray:none"
     id="polyline536"
     points="90.156,154.531 90.156,154.531 " />
</svg>
