<?xml version="1.0" encoding="utf-8" standalone="no"?><!DOCTYPE svg PUBLIC "-//W3C//DTD SVG 1.1//EN" "http://www.w3.org/Graphics/SVG/1.1/DTD/svg11.dtd">
<svg preserveAspectRatio="xMinYMin meet" width="100%" height="100%" viewBox="0 0 638.438 284.063"  version="1.1" xmlns="http://www.w3.org/2000/svg" xmlns:xlink="http://www.w3.org/1999/xlink">
  <desc>Matlab Figure Converted by PLOT2SVG written by Juerg Schwizer</desc>
  <g id="topgroup">
  <rect x="0" y="0" width="638.438" height="284.063" fill="#ffffff" stroke="none" />
  <g id ="ID000000">
  <clipPath id="ID000001">
    <rect x="82.997" y="21.305" width="494.789" height="221.508"/>
  </clipPath>
      <polygon fill="#ffffff" fill-opacity="1.00" stroke="none" stroke-width="0.5pt" stroke-opacity="1.00" stroke-dasharray="none" points="82.997,242.813 577.786,242.813 577.786,21.305 82.997,21.305 "/>
      <polygon fill="#ffffff" fill-opacity="1.00" stroke="none" stroke-width="0.5pt" stroke-opacity="1.00" stroke-dasharray="none" points="82.997,21.305 577.786,21.305 577.786,21.305 82.997,21.305 "/>
      <polygon fill="#ffffff" fill-opacity="1.00" stroke="none" stroke-width="0.5pt" stroke-opacity="1.00" stroke-dasharray="none" points="82.997,242.813 82.997,242.813 82.997,21.305 82.997,21.305 "/>
    <g>
<g id="ID000002" clip-path="url(#ID000001)" >
      <polyline fill="none" stroke="#000000" stroke-width="0.5pt" stroke-dasharray="none" points="82.997,242.813 83.492,242.037 83.987,241.264 84.483,240.493 84.978,239.726 85.473,238.961 85.969,238.198 86.464,237.439 86.959,236.682 87.454,235.927 87.950,235.176 88.445,234.427 88.940,233.680 89.436,232.936 89.931,232.195 90.426,231.457 90.921,230.720 91.417,229.987 91.912,229.256 92.407,228.528 92.903,227.802 93.398,227.079 93.893,226.358 94.388,225.640 94.884,224.924 95.379,224.211 95.874,223.501 96.370,222.792 96.865,222.087 97.360,221.383 97.855,220.683 98.351,219.984 98.846,219.289 99.341,218.595 99.837,217.904 100.332,217.216 100.827,216.529 101.322,215.846 101.818,215.164 102.313,214.485 102.808,213.809 103.304,213.135 103.799,212.463 104.294,211.793 104.789,211.126 105.285,210.461 105.780,209.799 106.275,209.139 106.771,208.481 107.266,207.825 107.761,207.172 108.256,206.521 108.752,205.872 109.247,205.226 109.742,204.582 110.238,203.940 110.733,203.300 111.228,202.663 111.723,202.027 112.219,201.395 112.714,200.764 113.209,200.135 113.705,199.509 114.200,198.885 114.695,198.263 115.190,197.643 115.686,197.025 116.181,196.410 116.676,195.797 117.171,195.186 117.667,194.577 118.162,193.970 118.657,193.365 119.153,192.762 119.648,192.162 120.143,191.564 120.638,190.967 121.134,190.373 121.629,189.781 122.124,189.191 122.620,188.603 123.115,188.017 123.610,187.433 124.105,186.851 124.601,186.271 125.096,185.694 125.591,185.118 126.087,184.544 126.582,183.972 127.077,183.403 127.572,182.835 128.068,182.269 128.563,181.705 129.058,181.144 129.554,180.584 130.049,180.026 130.544,179.470 131.039,178.916 131.535,178.364 132.030,177.814 132.525,177.266 133.021,176.720 133.516,176.175 134.011,175.633 134.506,175.092 135.002,174.554 135.497,174.017 135.992,173.482 136.488,172.949 136.983,172.418 137.478,171.889 137.973,171.361 138.469,170.836 138.964,170.312 139.459,169.790 139.955,169.270 140.450,168.752 140.945,168.236 141.440,167.721 141.936,167.208 142.431,166.697 142.926,166.188 143.422,165.681 143.917,165.175 144.412,164.671 144.907,164.169 145.403,163.668 145.898,163.170 146.393,162.673 146.889,162.178 147.384,161.685 147.879,161.193 148.374,160.703 148.870,160.215 149.365,159.728 149.860,159.243 150.356,158.760 150.851,158.279 151.346,157.799 151.841,157.321 152.337,156.845 152.832,156.370 153.327,155.897 153.823,155.426 154.318,154.956 154.813,154.488 155.308,154.021 155.804,153.556 156.299,153.093 156.794,152.632 157.290,152.172 157.785,151.713 158.280,151.257 158.775,150.801 159.271,150.348 159.766,149.896 160.261,149.446 160.757,148.997 161.252,148.550 161.747,148.104 162.242,147.660 162.738,147.217 163.233,146.776 163.728,146.337 164.224,145.899 164.719,145.463 165.214,145.028 165.709,144.594 166.205,144.163 166.700,143.732 167.195,143.304 167.690,142.876 168.186,142.450 168.681,142.026 169.176,141.603 169.672,141.182 170.167,140.762 170.662,140.344 171.157,139.927 171.653,139.511 172.148,139.097 172.643,138.685 173.139,138.274 173.634,137.864 174.129,137.456 174.624,137.049 175.120,136.644 175.615,136.240 176.110,135.837 176.606,135.436 177.101,135.036 177.596,134.638 178.091,134.241 178.587,133.845 179.082,133.451 179.577,133.059 180.073,132.667 180.568,132.277 181.063,131.888 181.558,131.501 182.054,131.115 182.549,130.731 183.044,130.347 183.540,129.965 184.035,129.585 184.530,129.206 185.025,128.828 185.521,128.451 186.016,128.076 186.511,127.702 187.007,127.329 187.502,126.958 187.997,126.588 188.492,126.219 188.988,125.852 189.483,125.486 189.978,125.121 190.474,124.757 190.969,124.395 191.464,124.034 191.959,123.674 192.455,123.315 192.950,122.958 193.445,122.602 193.941,122.247 194.436,121.894 194.931,121.541 195.426,121.190 195.922,120.841 196.417,120.492 196.912,120.145 197.408,119.798 197.903,119.453 198.398,119.110 198.893,118.767 199.389,118.426 199.884,118.086 200.379,117.747 200.875,117.409 201.370,117.072 201.865,116.737 202.360,116.403 202.856,116.070 203.351,115.738 203.846,115.407 204.342,115.077 204.837,114.749 205.332,114.422 205.827,114.096 206.323,113.771 206.818,113.447 207.313,113.124 207.809,112.802 208.304,112.482 208.799,112.163 209.294,111.844 209.790,111.527 210.285,111.211 210.780,110.896 211.276,110.583 211.771,110.270 212.266,109.958 212.761,109.648 213.257,109.338 213.752,109.030 214.247,108.723 214.743,108.417 215.238,108.112 215.733,107.808 216.228,107.505 216.724,107.203 217.219,106.902 217.714,106.602 218.210,106.303 218.705,106.006 219.200,105.709 219.695,105.413 220.191,105.119 220.686,104.825 221.181,104.533 221.676,104.241 222.172,103.951 222.667,103.661 223.162,103.373 223.658,103.085 224.153,102.799 224.648,102.514 225.143,102.229 225.639,101.946 226.134,101.663 226.629,101.382 227.125,101.101 227.620,100.822 228.115,100.543 228.610,100.266 229.106,99.989 229.601,99.714 230.096,99.439 230.592,99.165 231.087,98.893 231.582,98.621 232.077,98.350 232.573,98.080 233.068,97.811 233.563,97.544 234.059,97.277 234.554,97.010 235.049,96.745 235.544,96.481 236.040,96.218 236.535,95.955 237.030,95.694 237.526,95.433 238.021,95.174 238.516,94.915 239.011,94.657 239.507,94.400 240.002,94.144 240.497,93.889 240.993,93.635 241.488,93.382 241.983,93.129 242.478,92.878 242.974,92.627 243.469,92.377 243.964,92.128 244.460,91.880 244.955,91.633 245.450,91.387 245.945,91.141 246.441,90.897 246.936,90.653 247.431,90.410 247.927,90.168 248.422,89.927 248.917,89.687 249.412,89.447 249.908,89.208 250.403,88.971 250.898,88.734 251.394,88.497 251.889,88.262 252.384,88.028 252.879,87.794 253.375,87.561 253.870,87.329 254.365,87.098 254.861,86.867 255.356,86.638 255.851,86.409 256.346,86.181 256.842,85.954 257.337,85.727 257.832,85.502 258.328,85.277 258.823,85.053 259.318,84.829 259.813,84.607 260.309,84.385 260.804,84.164 261.299,83.944 261.795,83.725 262.290,83.506 262.785,83.288 263.280,83.071 263.776,82.855 264.271,82.639 264.766,82.424 265.262,82.210 265.757,81.997 266.252,81.785 266.747,81.573 267.243,81.362 267.738,81.151 268.233,80.942 268.729,80.733 269.224,80.525 269.719,80.317 270.214,80.111 270.710,79.905 271.205,79.699 271.700,79.495 272.195,79.291 272.691,79.088 273.186,78.886 273.681,78.684 274.177,78.483 274.672,78.283 275.167,78.083 275.662,77.884 276.158,77.686 276.653,77.489 277.148,77.292 277.644,77.096 278.139,76.900 278.634,76.706 279.129,76.512 279.625,76.318 280.120,76.126 280.615,75.934 281.111,75.742 281.606,75.552 282.101,75.362 282.596,75.172 283.092,74.984 283.587,74.796 284.082,74.608 284.578,74.422 285.073,74.236 285.568,74.050 286.063,73.865 286.559,73.681 287.054,73.498 287.549,73.315 288.045,73.133 288.540,72.951 289.035,72.771 289.530,72.590 290.026,72.411 290.521,72.232 291.016,72.053 291.512,71.876 292.007,71.698 292.502,71.522 292.997,71.346 293.493,71.171 293.988,70.996 294.483,70.822 294.979,70.649 295.474,70.476 295.969,70.304 296.464,70.132 296.960,69.961 297.455,69.791 297.950,69.621 298.446,69.452 298.941,69.283 299.436,69.115 299.931,68.947 300.427,68.781 300.922,68.614 301.417,68.449 301.913,68.284 302.408,68.119 302.903,67.955 303.398,67.792 303.894,67.629 304.389,67.467 304.884,67.305 305.380,67.144 305.875,66.983 306.370,66.823 306.865,66.664 307.361,66.505 307.856,66.347 308.351,66.189 308.847,66.032 309.342,65.875 309.837,65.719 310.332,65.563 310.828,65.408 311.323,65.254 311.818,65.100 312.314,64.947 312.809,64.794 313.304,64.641 313.799,64.490 314.295,64.338 314.790,64.188 315.285,64.038 315.781,63.888 316.276,63.739 316.771,63.590 317.266,63.442 317.762,63.294 318.257,63.147 318.752,63.001 319.248,62.855 319.743,62.709 320.238,62.564 320.733,62.420 321.229,62.276 321.724,62.132 322.219,61.989 322.714,61.847 323.210,61.705 323.705,61.563 324.200,61.422 324.696,61.282 325.191,61.142 325.686,61.002 326.181,60.863 326.677,60.725 327.172,60.587 327.667,60.449 328.163,60.312 328.658,60.175 329.153,60.039 329.648,59.903 330.144,59.768 330.639,59.634 331.134,59.499 331.630,59.366 332.125,59.232 332.620,59.099 333.115,58.967 333.611,58.835 334.106,58.704 334.601,58.573 335.097,58.442 335.592,58.312 336.087,58.182 336.582,58.053 337.078,57.925 337.573,57.796 338.068,57.669 338.564,57.541 339.059,57.414 339.554,57.288 340.049,57.162 340.545,57.036 341.040,56.911 341.535,56.786 342.031,56.662 342.526,56.538 343.021,56.415 343.516,56.292 344.012,56.169 344.507,56.047 345.002,55.926 345.498,55.804 345.993,55.683 346.488,55.563 346.983,55.443 347.479,55.324 347.974,55.204 348.469,55.086 348.965,54.967 349.460,54.849 349.955,54.732 350.450,54.615 350.946,54.498 351.441,54.382 351.936,54.266 352.432,54.151 352.927,54.036 353.422,53.921 353.917,53.807 354.413,53.693 354.908,53.579 355.403,53.466 355.899,53.354 356.394,53.242 356.889,53.130 357.384,53.018 357.880,52.907 358.375,52.796 358.870,52.686 359.366,52.576 359.861,52.467 360.356,52.358 360.851,52.249 361.347,52.140 361.842,52.032 362.337,51.925 362.833,51.818 363.328,51.711 363.823,51.604 364.318,51.498 364.814,51.392 365.309,51.287 365.804,51.182 366.300,51.077 366.795,50.973 367.290,50.869 367.785,50.766 368.281,50.662 368.776,50.560 369.271,50.457 369.767,50.355 370.262,50.253 370.757,50.152 371.252,50.051 371.748,49.950 372.243,49.850 372.738,49.750 373.234,49.650 373.729,49.551 374.224,49.452 374.719,49.354 375.215,49.255 375.710,49.157 376.205,49.060 376.700,48.963 377.196,48.866 377.691,48.769 378.186,48.673 378.682,48.577 379.177,48.482 379.672,48.386 380.167,48.292 380.663,48.197 381.158,48.103 381.653,48.009 382.149,47.916 382.644,47.822 383.139,47.729 383.634,47.637 384.130,47.545 384.625,47.453 385.120,47.361 385.616,47.270 386.111,47.179 386.606,47.088 387.101,46.998 387.597,46.908 388.092,46.818 388.587,46.729 389.083,46.640 389.578,46.551 390.073,46.463 390.568,46.375 391.064,46.287 391.559,46.199 392.054,46.112 392.550,46.025 393.045,45.939 393.540,45.853 394.035,45.767 394.531,45.681 395.026,45.595 395.521,45.510 396.017,45.426 396.512,45.341 397.007,45.257 397.502,45.173 397.998,45.089 398.493,45.006 398.988,44.923 399.484,44.840 399.979,44.758 400.474,44.676 400.969,44.594 401.465,44.512 401.960,44.431 402.455,44.350 402.951,44.269 403.446,44.189 403.941,44.109 404.436,44.029 404.932,43.949 405.427,43.870 405.922,43.791 406.418,43.712 406.913,43.634 407.408,43.556 407.903,43.478 408.399,43.400 408.894,43.323 409.389,43.246 409.885,43.169 410.380,43.092 410.875,43.016 411.370,42.940 411.866,42.864 412.361,42.788 412.856,42.713 413.352,42.638 413.847,42.564 414.342,42.489 414.837,42.415 415.333,42.341 415.828,42.267 416.323,42.194 416.819,42.121 417.314,42.048 417.809,41.975 418.304,41.903 418.800,41.831 419.295,41.759 419.790,41.687 420.286,41.616 420.781,41.545 421.276,41.474 421.771,41.403 422.267,41.333 422.762,41.263 423.257,41.193 423.753,41.123 424.248,41.054 424.743,40.984 425.238,40.915 425.734,40.847 426.229,40.778 426.724,40.710 427.219,40.642 427.715,40.574 428.210,40.507 428.705,40.440 429.201,40.373 429.696,40.306 430.191,40.239 430.686,40.173 431.182,40.107 431.677,40.041 432.172,39.975 432.668,39.910 433.163,39.845 433.658,39.780 434.153,39.715 434.649,39.651 435.144,39.587 435.639,39.522 436.135,39.459 436.630,39.395 437.125,39.332 437.620,39.269 438.116,39.206 438.611,39.143 439.106,39.081 439.602,39.018 440.097,38.956 440.592,38.894 441.087,38.833 441.583,38.771 442.078,38.710 442.573,38.649 443.069,38.589 443.564,38.528 444.059,38.468 444.554,38.408 445.050,38.348 445.545,38.288 446.040,38.228 446.536,38.169 447.031,38.110 447.526,38.051 448.021,37.993 448.517,37.934 449.012,37.876 449.507,37.818 450.003,37.760 450.498,37.702 450.993,37.645 451.488,37.588 451.984,37.531 452.479,37.474 452.974,37.417 453.470,37.361 453.965,37.305 454.460,37.249 454.955,37.193 455.451,37.137 455.946,37.082 456.441,37.026 456.937,36.971 457.432,36.916 457.927,36.862 458.422,36.807 458.918,36.753 459.413,36.699 459.908,36.645 460.404,36.591 460.899,36.538 461.394,36.484 461.889,36.431 462.385,36.378 462.880,36.325 463.375,36.273 463.871,36.220 464.366,36.168 464.861,36.116 465.356,36.064 465.852,36.013 466.347,35.961 466.842,35.910 467.338,35.859 467.833,35.808 468.328,35.757 468.823,35.706 469.319,35.656 469.814,35.605 470.309,35.555 470.805,35.505 471.300,35.456 471.795,35.406 472.290,35.357 472.786,35.308 473.281,35.259 473.776,35.210 474.272,35.161 474.767,35.112 475.262,35.064 475.757,35.016 476.253,34.968 476.748,34.920 477.243,34.872 477.738,34.825 478.234,34.777 478.729,34.730 479.224,34.683 479.720,34.636 480.215,34.590 480.710,34.543 481.205,34.497 481.701,34.451 482.196,34.405 482.691,34.359 483.187,34.313 483.682,34.267 484.177,34.222 484.672,34.177 485.168,34.132 485.663,34.087 486.158,34.042 486.654,33.997 487.149,33.953 487.644,33.909 488.139,33.864 488.635,33.820 489.130,33.777 489.625,33.733 490.121,33.689 490.616,33.646 491.111,33.603 491.606,33.560 492.102,33.517 492.597,33.474 493.092,33.431 493.588,33.389 494.083,33.347 494.578,33.304 495.073,33.262 495.569,33.221 496.064,33.179 496.559,33.137 497.055,33.096 497.550,33.054 498.045,33.013 498.540,32.972 499.036,32.931 499.531,32.891 500.026,32.850 500.522,32.810 501.017,32.769 501.512,32.729 502.007,32.689 502.503,32.649 502.998,32.610 503.493,32.570 503.989,32.531 504.484,32.491 504.979,32.452 505.474,32.413 505.970,32.374 506.465,32.335 506.960,32.297 507.456,32.258 507.951,32.220 508.446,32.182 508.941,32.144 509.437,32.106 509.932,32.068 510.427,32.030 510.923,31.993 511.418,31.955 511.913,31.918 512.408,31.881 512.904,31.844 513.399,31.807 513.894,31.770 514.390,31.733 514.885,31.697 515.380,31.660 515.875,31.624 516.371,31.588 516.866,31.552 517.361,31.516 517.857,31.480 518.352,31.445 518.847,31.409 519.342,31.374 519.838,31.338 520.333,31.303 520.828,31.268 521.324,31.233 521.819,31.199 522.314,31.164 522.809,31.129 523.305,31.095 523.800,31.061 524.295,31.027 524.791,30.992 525.286,30.959 525.781,30.925 526.276,30.891 526.772,30.857 527.267,30.824 527.762,30.791 528.258,30.757 528.753,30.724 529.248,30.691 529.743,30.658 530.239,30.626 530.734,30.593 531.229,30.561 531.724,30.528 532.220,30.496 532.715,30.464 533.210,30.432 533.706,30.400 534.201,30.368 534.696,30.336 535.191,30.304 535.687,30.273 536.182,30.241 536.677,30.210 537.173,30.179 537.668,30.148 538.163,30.117 538.658,30.086 539.154,30.055 539.649,30.025 540.144,29.994 540.640,29.964 541.135,29.933 541.630,29.903 542.125,29.873 542.621,29.843 543.116,29.813 543.611,29.783 544.107,29.754 544.602,29.724 545.097,29.695 545.592,29.665 546.088,29.636 546.583,29.607 547.078,29.578 547.574,29.549 548.069,29.520 548.564,29.491 549.059,29.462 549.555,29.434 550.050,29.405 550.545,29.377 551.041,29.349 551.536,29.320 552.031,29.292 552.526,29.264 553.022,29.237 553.517,29.209 554.012,29.181 554.508,29.153 555.003,29.126 555.498,29.099 555.993,29.071 556.489,29.044 556.984,29.017 557.479,28.990 557.975,28.963 558.470,28.936 558.965,28.909 559.460,28.883 559.956,28.856 560.451,28.830 560.946,28.804 561.442,28.777 561.937,28.751 562.432,28.725 562.927,28.699 563.423,28.673 563.918,28.647 564.413,28.622 564.909,28.596 565.404,28.570 565.899,28.545 566.394,28.520 566.890,28.494 567.385,28.469 567.880,28.444 568.376,28.419 568.871,28.394 569.366,28.369 569.861,28.345 570.357,28.320 570.852,28.295 571.347,28.271 571.843,28.246 572.338,28.222 572.833,28.198 573.328,28.174 573.824,28.150 574.319,28.126 574.814,28.102 575.310,28.078 575.805,28.054 576.300,28.031 576.795,28.007 577.291,27.984 577.786,27.960 "/>
<g>
</g>
</g>
<g id="ID000003" >
  <g transform="translate(329.453,277.434)">
    <g transform="rotate(-0.0)">
      <text x="0.000" y="0.000" font-family="Times New Roman" text-anchor="middle" font-size="11pt" fill="#000000" >Time ($t$) [$s$]</text>
    </g>
  </g>
</g>
<g id="ID000004" >
  <g transform="translate(49.671,133.466)">
    <g transform="rotate(-90.0)">
      <text x="0.000" y="0.000" font-family="Times New Roman" text-anchor="middle" font-size="11pt" fill="#000000" >Flux Amplitude ($p$) [ ]</text>
    </g>
  </g>
</g>
<g id="ID000005" clip-path="url(#ID000001)" >
      <polyline fill="none" stroke="#000000" stroke-width="0.5pt" stroke-dasharray="8.0,2.0,2.0,2.0" points="82.997,242.813 83.492,235.185 83.987,227.821 84.483,220.710 84.978,213.843 85.473,207.214 85.969,200.812 86.464,194.631 86.959,188.663 87.454,182.900 87.950,177.336 88.445,171.963 88.940,166.776 89.436,161.767 89.931,156.930 90.426,152.260 90.921,147.751 91.417,143.397 91.912,139.193 92.407,135.134 92.903,131.214 93.398,127.430 93.893,123.775 94.388,120.247 94.884,116.840 95.379,113.550 95.874,110.374 96.370,107.307 96.865,104.346 97.360,101.486 97.855,98.726 98.351,96.060 98.846,93.486 99.341,91.000 99.837,88.600 100.332,86.283 100.827,84.046 101.322,81.885 101.818,79.799 102.313,77.785 102.808,75.840 103.304,73.963 103.799,72.149 104.294,70.399 104.789,68.708 105.285,67.076 105.780,65.500 106.275,63.978 106.771,62.509 107.266,61.090 107.761,59.720 108.256,58.397 108.752,57.120 109.247,55.887 109.742,54.696 110.238,53.546 110.733,52.436 111.228,51.364 111.723,50.329 112.219,49.330 112.714,48.365 113.209,47.433 113.705,46.533 114.200,45.665 114.695,44.826 115.190,44.016 115.686,43.234 116.181,42.479 116.676,41.750 117.171,41.046 117.667,40.366 118.162,39.710 118.657,39.076 119.153,38.464 119.648,37.873 120.143,37.303 120.638,36.752 121.134,36.220 121.629,35.706 122.124,35.210 122.620,34.732 123.115,34.269 123.610,33.823 124.105,33.392 124.601,32.976 125.096,32.574 125.591,32.186 126.087,31.811 126.582,31.449 127.077,31.100 127.572,30.763 128.068,30.437 128.563,30.123 129.058,29.819 129.554,29.526 130.049,29.243 130.544,28.969 131.039,28.705 131.535,28.451 132.030,28.204 132.525,27.967 133.021,27.738 133.516,27.516 134.011,27.302 134.506,27.096 135.002,26.896 135.497,26.704 135.992,26.518 136.488,26.338 136.983,26.165 137.478,25.998 137.973,25.836 138.469,25.680 138.964,25.529 139.459,25.384 139.955,25.243 140.450,25.108 140.945,24.977 141.440,24.850 141.936,24.728 142.431,24.610 142.926,24.497 143.422,24.387 143.917,24.281 144.412,24.178 144.907,24.079 145.403,23.984 145.898,23.891 146.393,23.802 146.889,23.716 147.384,23.633 147.879,23.553 148.374,23.476 148.870,23.401 149.365,23.329 149.860,23.259 150.356,23.192 150.851,23.127 151.346,23.064 151.841,23.003 152.337,22.945 152.832,22.888 153.327,22.834 153.823,22.781 154.318,22.730 154.813,22.681 155.308,22.634 155.804,22.588 156.299,22.544 156.794,22.501 157.290,22.460 157.785,22.420 158.280,22.382 158.775,22.345 159.271,22.309 159.766,22.274 160.261,22.241 160.757,22.209 161.252,22.178 161.747,22.148 162.242,22.119 162.738,22.091 163.233,22.063 163.728,22.037 164.224,22.012 164.719,21.988 165.214,21.964 165.709,21.942 166.205,21.920 166.700,21.898 167.195,21.878 167.690,21.858 168.186,21.839 168.681,21.821 169.176,21.803 169.672,21.786 170.167,21.769 170.662,21.753 171.157,21.738 171.653,21.723 172.148,21.709 172.643,21.695 173.139,21.681 173.634,21.668 174.129,21.656 174.624,21.644 175.120,21.632 175.615,21.621 176.110,21.610 176.606,21.599 177.101,21.589 177.596,21.579 178.091,21.570 178.587,21.561 179.082,21.552 179.577,21.543 180.073,21.535 180.568,21.527 181.063,21.520 181.558,21.512 182.054,21.505 182.549,21.498 183.044,21.492 183.540,21.485 184.035,21.479 184.530,21.473 185.025,21.467 185.521,21.461 186.016,21.456 186.511,21.451 187.007,21.446 187.502,21.441 187.997,21.436 188.492,21.432 188.988,21.427 189.483,21.423 189.978,21.419 190.474,21.415 190.969,21.411 191.464,21.408 191.959,21.404 192.455,21.401 192.950,21.397 193.445,21.394 193.941,21.391 194.436,21.388 194.931,21.385 195.426,21.382 195.922,21.380 196.417,21.377 196.912,21.375 197.408,21.372 197.903,21.370 198.398,21.368 198.893,21.366 199.389,21.363 199.884,21.361 200.379,21.359 200.875,21.358 201.370,21.356 201.865,21.354 202.360,21.352 202.856,21.351 203.351,21.349 203.846,21.348 204.342,21.346 204.837,21.345 205.332,21.343 205.827,21.342 206.323,21.341 206.818,21.339 207.313,21.338 207.809,21.337 208.304,21.336 208.799,21.335 209.294,21.334 209.790,21.333 210.285,21.332 210.780,21.331 211.276,21.330 211.771,21.329 212.266,21.328 212.761,21.328 213.257,21.327 213.752,21.326 214.247,21.325 214.743,21.325 215.238,21.324 215.733,21.323 216.228,21.323 216.724,21.322 217.219,21.321 217.714,21.321 218.210,21.320 218.705,21.320 219.200,21.319 219.695,21.319 220.191,21.318 220.686,21.318 221.181,21.317 221.676,21.317 222.172,21.316 222.667,21.316 223.162,21.316 223.658,21.315 224.153,21.315 224.648,21.315 225.143,21.314 225.639,21.314 226.134,21.314 226.629,21.313 227.125,21.313 227.620,21.313 228.115,21.312 228.610,21.312 229.106,21.312 229.601,21.312 230.096,21.311 230.592,21.311 231.087,21.311 231.582,21.311 232.077,21.311 232.573,21.310 233.068,21.310 233.563,21.310 234.059,21.310 234.554,21.310 235.049,21.309 235.544,21.309 236.040,21.309 236.535,21.309 237.030,21.309 237.526,21.309 238.021,21.309 238.516,21.308 239.011,21.308 239.507,21.308 240.002,21.308 240.497,21.308 240.993,21.308 241.488,21.308 241.983,21.308 242.478,21.307 242.974,21.307 243.469,21.307 243.964,21.307 244.460,21.307 244.955,21.307 245.450,21.307 245.945,21.307 246.441,21.307 246.936,21.307 247.431,21.307 247.927,21.307 248.422,21.307 248.917,21.306 249.412,21.306 249.908,21.306 250.403,21.306 250.898,21.306 251.394,21.306 251.889,21.306 252.384,21.306 252.879,21.306 253.375,21.306 253.870,21.306 254.365,21.306 254.861,21.306 255.356,21.306 255.851,21.306 256.346,21.306 256.842,21.306 257.337,21.306 257.832,21.306 258.328,21.306 258.823,21.306 259.318,21.306 259.813,21.306 260.309,21.305 260.804,21.305 261.299,21.305 261.795,21.305 262.290,21.305 262.785,21.305 263.280,21.305 263.776,21.305 264.271,21.305 264.766,21.305 265.262,21.305 265.757,21.305 266.252,21.305 266.747,21.305 267.243,21.305 267.738,21.305 268.233,21.305 268.729,21.305 269.224,21.305 269.719,21.305 270.214,21.305 270.710,21.305 271.205,21.305 271.700,21.305 272.195,21.305 272.691,21.305 273.186,21.305 273.681,21.305 274.177,21.305 274.672,21.305 275.167,21.305 275.662,21.305 276.158,21.305 276.653,21.305 277.148,21.305 277.644,21.305 278.139,21.305 278.634,21.305 279.129,21.305 279.625,21.305 280.120,21.305 280.615,21.305 281.111,21.305 281.606,21.305 282.101,21.305 282.596,21.305 283.092,21.305 283.587,21.305 284.082,21.305 284.578,21.305 285.073,21.305 285.568,21.305 286.063,21.305 286.559,21.305 287.054,21.305 287.549,21.305 288.045,21.305 288.540,21.305 289.035,21.305 289.530,21.305 290.026,21.305 290.521,21.305 291.016,21.305 291.512,21.305 292.007,21.305 292.502,21.305 292.997,21.305 293.493,21.305 293.988,21.305 294.483,21.305 294.979,21.305 295.474,21.305 295.969,21.305 296.464,21.305 296.960,21.305 297.455,21.305 297.950,21.305 298.446,21.305 298.941,21.305 299.436,21.305 299.931,21.305 300.427,21.305 300.922,21.305 301.417,21.305 301.913,21.305 302.408,21.305 302.903,21.305 303.398,21.305 303.894,21.305 304.389,21.305 304.884,21.305 305.380,21.305 305.875,21.305 306.370,21.305 306.865,21.305 307.361,21.305 307.856,21.305 308.351,21.305 308.847,21.305 309.342,21.305 309.837,21.305 310.332,21.305 310.828,21.305 311.323,21.305 311.818,21.305 312.314,21.305 312.809,21.305 313.304,21.305 313.799,21.305 314.295,21.305 314.790,21.305 315.285,21.305 315.781,21.305 316.276,21.305 316.771,21.305 317.266,21.305 317.762,21.305 318.257,21.305 318.752,21.305 319.248,21.305 319.743,21.305 320.238,21.305 320.733,21.305 321.229,21.305 321.724,21.305 322.219,21.305 322.714,21.305 323.210,21.305 323.705,21.305 324.200,21.305 324.696,21.305 325.191,21.305 325.686,21.305 326.181,21.305 326.677,21.305 327.172,21.305 327.667,21.305 328.163,21.305 328.658,21.305 329.153,21.305 329.648,21.305 330.144,21.305 330.639,21.305 331.134,21.305 331.630,21.305 332.125,21.305 332.620,21.305 333.115,21.305 333.611,21.305 334.106,21.305 334.601,21.305 335.097,21.305 335.592,21.305 336.087,21.305 336.582,21.305 337.078,21.305 337.573,21.305 338.068,21.305 338.564,21.305 339.059,21.305 339.554,21.305 340.049,21.305 340.545,21.305 341.040,21.305 341.535,21.305 342.031,21.305 342.526,21.305 343.021,21.305 343.516,21.305 344.012,21.305 344.507,21.305 345.002,21.305 345.498,21.305 345.993,21.305 346.488,21.305 346.983,21.305 347.479,21.305 347.974,21.305 348.469,21.305 348.965,21.305 349.460,21.305 349.955,21.305 350.450,21.305 350.946,21.305 351.441,21.305 351.936,21.305 352.432,21.305 352.927,21.305 353.422,21.305 353.917,21.305 354.413,21.305 354.908,21.305 355.403,21.305 355.899,21.305 356.394,21.305 356.889,21.305 357.384,21.305 357.880,21.305 358.375,21.305 358.870,21.305 359.366,21.305 359.861,21.305 360.356,21.305 360.851,21.305 361.347,21.305 361.842,21.305 362.337,21.305 362.833,21.305 363.328,21.305 363.823,21.305 364.318,21.305 364.814,21.305 365.309,21.305 365.804,21.305 366.300,21.305 366.795,21.305 367.290,21.305 367.785,21.305 368.281,21.305 368.776,21.305 369.271,21.305 369.767,21.305 370.262,21.305 370.757,21.305 371.252,21.305 371.748,21.305 372.243,21.305 372.738,21.305 373.234,21.305 373.729,21.305 374.224,21.305 374.719,21.305 375.215,21.305 375.710,21.305 376.205,21.305 376.700,21.305 377.196,21.305 377.691,21.305 378.186,21.305 378.682,21.305 379.177,21.305 379.672,21.305 380.167,21.305 380.663,21.305 381.158,21.305 381.653,21.305 382.149,21.305 382.644,21.305 383.139,21.305 383.634,21.305 384.130,21.305 384.625,21.305 385.120,21.305 385.616,21.305 386.111,21.305 386.606,21.305 387.101,21.305 387.597,21.305 388.092,21.305 388.587,21.305 389.083,21.305 389.578,21.305 390.073,21.305 390.568,21.305 391.064,21.305 391.559,21.305 392.054,21.305 392.550,21.305 393.045,21.305 393.540,21.305 394.035,21.305 394.531,21.305 395.026,21.305 395.521,21.305 396.017,21.305 396.512,21.305 397.007,21.305 397.502,21.305 397.998,21.305 398.493,21.305 398.988,21.305 399.484,21.305 399.979,21.305 400.474,21.305 400.969,21.305 401.465,21.305 401.960,21.305 402.455,21.305 402.951,21.305 403.446,21.305 403.941,21.305 404.436,21.305 404.932,21.305 405.427,21.305 405.922,21.305 406.418,21.305 406.913,21.305 407.408,21.305 407.903,21.305 408.399,21.305 408.894,21.305 409.389,21.305 409.885,21.305 410.380,21.305 410.875,21.305 411.370,21.305 411.866,21.305 412.361,21.305 412.856,21.305 413.352,21.305 413.847,21.305 414.342,21.305 414.837,21.305 415.333,21.305 415.828,21.305 416.323,21.305 416.819,21.305 417.314,21.305 417.809,21.305 418.304,21.305 418.800,21.305 419.295,21.305 419.790,21.305 420.286,21.305 420.781,21.305 421.276,21.305 421.771,21.305 422.267,21.305 422.762,21.305 423.257,21.305 423.753,21.305 424.248,21.305 424.743,21.305 425.238,21.305 425.734,21.305 426.229,21.305 426.724,21.305 427.219,21.305 427.715,21.305 428.210,21.305 428.705,21.305 429.201,21.305 429.696,21.305 430.191,21.305 430.686,21.305 431.182,21.305 431.677,21.305 432.172,21.305 432.668,21.305 433.163,21.305 433.658,21.305 434.153,21.305 434.649,21.305 435.144,21.305 435.639,21.305 436.135,21.305 436.630,21.305 437.125,21.305 437.620,21.305 438.116,21.305 438.611,21.305 439.106,21.305 439.602,21.305 440.097,21.305 440.592,21.305 441.087,21.305 441.583,21.305 442.078,21.305 442.573,21.305 443.069,21.305 443.564,21.305 444.059,21.305 444.554,21.305 445.050,21.305 445.545,21.305 446.040,21.305 446.536,21.305 447.031,21.305 447.526,21.305 448.021,21.305 448.517,21.305 449.012,21.305 449.507,21.305 450.003,21.305 450.498,21.305 450.993,21.305 451.488,21.305 451.984,21.305 452.479,21.305 452.974,21.305 453.470,21.305 453.965,21.305 454.460,21.305 454.955,21.305 455.451,21.305 455.946,21.305 456.441,21.305 456.937,21.305 457.432,21.305 457.927,21.305 458.422,21.305 458.918,21.305 459.413,21.305 459.908,21.305 460.404,21.305 460.899,21.305 461.394,21.305 461.889,21.305 462.385,21.305 462.880,21.305 463.375,21.305 463.871,21.305 464.366,21.305 464.861,21.305 465.356,21.305 465.852,21.305 466.347,21.305 466.842,21.305 467.338,21.305 467.833,21.305 468.328,21.305 468.823,21.305 469.319,21.305 469.814,21.305 470.309,21.305 470.805,21.305 471.300,21.305 471.795,21.305 472.290,21.305 472.786,21.305 473.281,21.305 473.776,21.305 474.272,21.305 474.767,21.305 475.262,21.305 475.757,21.305 476.253,21.305 476.748,21.305 477.243,21.305 477.738,21.305 478.234,21.305 478.729,21.305 479.224,21.305 479.720,21.305 480.215,21.305 480.710,21.305 481.205,21.305 481.701,21.305 482.196,21.305 482.691,21.305 483.187,21.305 483.682,21.305 484.177,21.305 484.672,21.305 485.168,21.305 485.663,21.305 486.158,21.305 486.654,21.305 487.149,21.305 487.644,21.305 488.139,21.305 488.635,21.305 489.130,21.305 489.625,21.305 490.121,21.305 490.616,21.305 491.111,21.305 491.606,21.305 492.102,21.305 492.597,21.305 493.092,21.305 493.588,21.305 494.083,21.305 494.578,21.305 495.073,21.305 495.569,21.305 496.064,21.305 496.559,21.305 497.055,21.305 497.550,21.305 498.045,21.305 498.540,21.305 499.036,21.305 499.531,21.305 500.026,21.305 500.522,21.305 501.017,21.305 501.512,21.305 502.007,21.305 502.503,21.305 502.998,21.305 503.493,21.305 503.989,21.305 504.484,21.305 504.979,21.305 505.474,21.305 505.970,21.305 506.465,21.305 506.960,21.305 507.456,21.305 507.951,21.305 508.446,21.305 508.941,21.305 509.437,21.305 509.932,21.305 510.427,21.305 510.923,21.305 511.418,21.305 511.913,21.305 512.408,21.305 512.904,21.305 513.399,21.305 513.894,21.305 514.390,21.305 514.885,21.305 515.380,21.305 515.875,21.305 516.371,21.305 516.866,21.305 517.361,21.305 517.857,21.305 518.352,21.305 518.847,21.305 519.342,21.305 519.838,21.305 520.333,21.305 520.828,21.305 521.324,21.305 521.819,21.305 522.314,21.305 522.809,21.305 523.305,21.305 523.800,21.305 524.295,21.305 524.791,21.305 525.286,21.305 525.781,21.305 526.276,21.305 526.772,21.305 527.267,21.305 527.762,21.305 528.258,21.305 528.753,21.305 529.248,21.305 529.743,21.305 530.239,21.305 530.734,21.305 531.229,21.305 531.724,21.305 532.220,21.305 532.715,21.305 533.210,21.305 533.706,21.305 534.201,21.305 534.696,21.305 535.191,21.305 535.687,21.305 536.182,21.305 536.677,21.305 537.173,21.305 537.668,21.305 538.163,21.305 538.658,21.305 539.154,21.305 539.649,21.305 540.144,21.305 540.640,21.305 541.135,21.305 541.630,21.305 542.125,21.305 542.621,21.305 543.116,21.305 543.611,21.305 544.107,21.305 544.602,21.305 545.097,21.305 545.592,21.305 546.088,21.305 546.583,21.305 547.078,21.305 547.574,21.305 548.069,21.305 548.564,21.305 549.059,21.305 549.555,21.305 550.050,21.305 550.545,21.305 551.041,21.305 551.536,21.305 552.031,21.305 552.526,21.305 553.022,21.305 553.517,21.305 554.012,21.305 554.508,21.305 555.003,21.305 555.498,21.305 555.993,21.305 556.489,21.305 556.984,21.305 557.479,21.305 557.975,21.305 558.470,21.305 558.965,21.305 559.460,21.305 559.956,21.305 560.451,21.305 560.946,21.305 561.442,21.305 561.937,21.305 562.432,21.305 562.927,21.305 563.423,21.305 563.918,21.305 564.413,21.305 564.909,21.305 565.404,21.305 565.899,21.305 566.394,21.305 566.890,21.305 567.385,21.305 567.880,21.305 568.376,21.305 568.871,21.305 569.366,21.305 569.861,21.305 570.357,21.305 570.852,21.305 571.347,21.305 571.843,21.305 572.338,21.305 572.833,21.305 573.328,21.305 573.824,21.305 574.319,21.305 574.814,21.305 575.310,21.305 575.805,21.305 576.300,21.305 576.795,21.305 577.291,21.305 577.786,21.305 "/>
<g>
</g>
</g>
<g id="ID000006" clip-path="url(#ID000001)" >
      <polyline fill="none" stroke="#000000" stroke-width="0.5pt" stroke-dasharray="2.0,2.0" points="82.997,242.813 83.492,177.343 83.987,131.224 84.483,98.736 84.978,75.850 85.473,59.729 85.969,48.372 86.464,40.372 86.959,34.736 87.454,30.766 87.950,27.970 88.445,26.000 88.940,24.612 89.436,23.635 89.931,22.946 90.426,22.461 90.921,22.119 91.417,21.878 91.912,21.709 92.407,21.589 92.903,21.505 93.398,21.446 93.893,21.404 94.388,21.375 94.884,21.354 95.379,21.339 95.874,21.329 96.370,21.322 96.865,21.317 97.360,21.313 97.855,21.311 98.351,21.309 98.846,21.308 99.341,21.307 99.837,21.306 100.332,21.306 100.827,21.305 101.322,21.305 101.818,21.305 102.313,21.305 102.808,21.305 103.304,21.305 103.799,21.305 104.294,21.305 104.789,21.305 105.285,21.305 105.780,21.305 106.275,21.305 106.771,21.305 107.266,21.305 107.761,21.305 108.256,21.305 108.752,21.305 109.247,21.305 109.742,21.305 110.238,21.305 110.733,21.305 111.228,21.305 111.723,21.305 112.219,21.305 112.714,21.305 113.209,21.305 113.705,21.305 114.200,21.305 114.695,21.305 115.190,21.305 115.686,21.305 116.181,21.305 116.676,21.305 117.171,21.305 117.667,21.305 118.162,21.305 118.657,21.305 119.153,21.305 119.648,21.305 120.143,21.305 120.638,21.305 121.134,21.305 121.629,21.305 122.124,21.305 122.620,21.305 123.115,21.305 123.610,21.305 124.105,21.305 124.601,21.305 125.096,21.305 125.591,21.305 126.087,21.305 126.582,21.305 127.077,21.305 127.572,21.305 128.068,21.305 128.563,21.305 129.058,21.305 129.554,21.305 130.049,21.305 130.544,21.305 131.039,21.305 131.535,21.305 132.030,21.305 132.525,21.305 133.021,21.305 133.516,21.305 134.011,21.305 134.506,21.305 135.002,21.305 135.497,21.305 135.992,21.305 136.488,21.305 136.983,21.305 137.478,21.305 137.973,21.305 138.469,21.305 138.964,21.305 139.459,21.305 139.955,21.305 140.450,21.305 140.945,21.305 141.440,21.305 141.936,21.305 142.431,21.305 142.926,21.305 143.422,21.305 143.917,21.305 144.412,21.305 144.907,21.305 145.403,21.305 145.898,21.305 146.393,21.305 146.889,21.305 147.384,21.305 147.879,21.305 148.374,21.305 148.870,21.305 149.365,21.305 149.860,21.305 150.356,21.305 150.851,21.305 151.346,21.305 151.841,21.305 152.337,21.305 152.832,21.305 153.327,21.305 153.823,21.305 154.318,21.305 154.813,21.305 155.308,21.305 155.804,21.305 156.299,21.305 156.794,21.305 157.290,21.305 157.785,21.305 158.280,21.305 158.775,21.305 159.271,21.305 159.766,21.305 160.261,21.305 160.757,21.305 161.252,21.305 161.747,21.305 162.242,21.305 162.738,21.305 163.233,21.305 163.728,21.305 164.224,21.305 164.719,21.305 165.214,21.305 165.709,21.305 166.205,21.305 166.700,21.305 167.195,21.305 167.690,21.305 168.186,21.305 168.681,21.305 169.176,21.305 169.672,21.305 170.167,21.305 170.662,21.305 171.157,21.305 171.653,21.305 172.148,21.305 172.643,21.305 173.139,21.305 173.634,21.305 174.129,21.305 174.624,21.305 175.120,21.305 175.615,21.305 176.110,21.305 176.606,21.305 177.101,21.305 177.596,21.305 178.091,21.305 178.587,21.305 179.082,21.305 179.577,21.305 180.073,21.305 180.568,21.305 181.063,21.305 181.558,21.305 182.054,21.305 182.549,21.305 183.044,21.305 183.540,21.305 184.035,21.305 184.530,21.305 185.025,21.305 185.521,21.305 186.016,21.305 186.511,21.305 187.007,21.305 187.502,21.305 187.997,21.305 188.492,21.305 188.988,21.305 189.483,21.305 189.978,21.305 190.474,21.305 190.969,21.305 191.464,21.305 191.959,21.305 192.455,21.305 192.950,21.305 193.445,21.305 193.941,21.305 194.436,21.305 194.931,21.305 195.426,21.305 195.922,21.305 196.417,21.305 196.912,21.305 197.408,21.305 197.903,21.305 198.398,21.305 198.893,21.305 199.389,21.305 199.884,21.305 200.379,21.305 200.875,21.305 201.370,21.305 201.865,21.305 202.360,21.305 202.856,21.305 203.351,21.305 203.846,21.305 204.342,21.305 204.837,21.305 205.332,21.305 205.827,21.305 206.323,21.305 206.818,21.305 207.313,21.305 207.809,21.305 208.304,21.305 208.799,21.305 209.294,21.305 209.790,21.305 210.285,21.305 210.780,21.305 211.276,21.305 211.771,21.305 212.266,21.305 212.761,21.305 213.257,21.305 213.752,21.305 214.247,21.305 214.743,21.305 215.238,21.305 215.733,21.305 216.228,21.305 216.724,21.305 217.219,21.305 217.714,21.305 218.210,21.305 218.705,21.305 219.200,21.305 219.695,21.305 220.191,21.305 220.686,21.305 221.181,21.305 221.676,21.305 222.172,21.305 222.667,21.305 223.162,21.305 223.658,21.305 224.153,21.305 224.648,21.305 225.143,21.305 225.639,21.305 226.134,21.305 226.629,21.305 227.125,21.305 227.620,21.305 228.115,21.305 228.610,21.305 229.106,21.305 229.601,21.305 230.096,21.305 230.592,21.305 231.087,21.305 231.582,21.305 232.077,21.305 232.573,21.305 233.068,21.305 233.563,21.305 234.059,21.305 234.554,21.305 235.049,21.305 235.544,21.305 236.040,21.305 236.535,21.305 237.030,21.305 237.526,21.305 238.021,21.305 238.516,21.305 239.011,21.305 239.507,21.305 240.002,21.305 240.497,21.305 240.993,21.305 241.488,21.305 241.983,21.305 242.478,21.305 242.974,21.305 243.469,21.305 243.964,21.305 244.460,21.305 244.955,21.305 245.450,21.305 245.945,21.305 246.441,21.305 246.936,21.305 247.431,21.305 247.927,21.305 248.422,21.305 248.917,21.305 249.412,21.305 249.908,21.305 250.403,21.305 250.898,21.305 251.394,21.305 251.889,21.305 252.384,21.305 252.879,21.305 253.375,21.305 253.870,21.305 254.365,21.305 254.861,21.305 255.356,21.305 255.851,21.305 256.346,21.305 256.842,21.305 257.337,21.305 257.832,21.305 258.328,21.305 258.823,21.305 259.318,21.305 259.813,21.305 260.309,21.305 260.804,21.305 261.299,21.305 261.795,21.305 262.290,21.305 262.785,21.305 263.280,21.305 263.776,21.305 264.271,21.305 264.766,21.305 265.262,21.305 265.757,21.305 266.252,21.305 266.747,21.305 267.243,21.305 267.738,21.305 268.233,21.305 268.729,21.305 269.224,21.305 269.719,21.305 270.214,21.305 270.710,21.305 271.205,21.305 271.700,21.305 272.195,21.305 272.691,21.305 273.186,21.305 273.681,21.305 274.177,21.305 274.672,21.305 275.167,21.305 275.662,21.305 276.158,21.305 276.653,21.305 277.148,21.305 277.644,21.305 278.139,21.305 278.634,21.305 279.129,21.305 279.625,21.305 280.120,21.305 280.615,21.305 281.111,21.305 281.606,21.305 282.101,21.305 282.596,21.305 283.092,21.305 283.587,21.305 284.082,21.305 284.578,21.305 285.073,21.305 285.568,21.305 286.063,21.305 286.559,21.305 287.054,21.305 287.549,21.305 288.045,21.305 288.540,21.305 289.035,21.305 289.530,21.305 290.026,21.305 290.521,21.305 291.016,21.305 291.512,21.305 292.007,21.305 292.502,21.305 292.997,21.305 293.493,21.305 293.988,21.305 294.483,21.305 294.979,21.305 295.474,21.305 295.969,21.305 296.464,21.305 296.960,21.305 297.455,21.305 297.950,21.305 298.446,21.305 298.941,21.305 299.436,21.305 299.931,21.305 300.427,21.305 300.922,21.305 301.417,21.305 301.913,21.305 302.408,21.305 302.903,21.305 303.398,21.305 303.894,21.305 304.389,21.305 304.884,21.305 305.380,21.305 305.875,21.305 306.370,21.305 306.865,21.305 307.361,21.305 307.856,21.305 308.351,21.305 308.847,21.305 309.342,21.305 309.837,21.305 310.332,21.305 310.828,21.305 311.323,21.305 311.818,21.305 312.314,21.305 312.809,21.305 313.304,21.305 313.799,21.305 314.295,21.305 314.790,21.305 315.285,21.305 315.781,21.305 316.276,21.305 316.771,21.305 317.266,21.305 317.762,21.305 318.257,21.305 318.752,21.305 319.248,21.305 319.743,21.305 320.238,21.305 320.733,21.305 321.229,21.305 321.724,21.305 322.219,21.305 322.714,21.305 323.210,21.305 323.705,21.305 324.200,21.305 324.696,21.305 325.191,21.305 325.686,21.305 326.181,21.305 326.677,21.305 327.172,21.305 327.667,21.305 328.163,21.305 328.658,21.305 329.153,21.305 329.648,21.305 330.144,21.305 330.639,21.305 331.134,21.305 331.630,21.305 332.125,21.305 332.620,21.305 333.115,21.305 333.611,21.305 334.106,21.305 334.601,21.305 335.097,21.305 335.592,21.305 336.087,21.305 336.582,21.305 337.078,21.305 337.573,21.305 338.068,21.305 338.564,21.305 339.059,21.305 339.554,21.305 340.049,21.305 340.545,21.305 341.040,21.305 341.535,21.305 342.031,21.305 342.526,21.305 343.021,21.305 343.516,21.305 344.012,21.305 344.507,21.305 345.002,21.305 345.498,21.305 345.993,21.305 346.488,21.305 346.983,21.305 347.479,21.305 347.974,21.305 348.469,21.305 348.965,21.305 349.460,21.305 349.955,21.305 350.450,21.305 350.946,21.305 351.441,21.305 351.936,21.305 352.432,21.305 352.927,21.305 353.422,21.305 353.917,21.305 354.413,21.305 354.908,21.305 355.403,21.305 355.899,21.305 356.394,21.305 356.889,21.305 357.384,21.305 357.880,21.305 358.375,21.305 358.870,21.305 359.366,21.305 359.861,21.305 360.356,21.305 360.851,21.305 361.347,21.305 361.842,21.305 362.337,21.305 362.833,21.305 363.328,21.305 363.823,21.305 364.318,21.305 364.814,21.305 365.309,21.305 365.804,21.305 366.300,21.305 366.795,21.305 367.290,21.305 367.785,21.305 368.281,21.305 368.776,21.305 369.271,21.305 369.767,21.305 370.262,21.305 370.757,21.305 371.252,21.305 371.748,21.305 372.243,21.305 372.738,21.305 373.234,21.305 373.729,21.305 374.224,21.305 374.719,21.305 375.215,21.305 375.710,21.305 376.205,21.305 376.700,21.305 377.196,21.305 377.691,21.305 378.186,21.305 378.682,21.305 379.177,21.305 379.672,21.305 380.167,21.305 380.663,21.305 381.158,21.305 381.653,21.305 382.149,21.305 382.644,21.305 383.139,21.305 383.634,21.305 384.130,21.305 384.625,21.305 385.120,21.305 385.616,21.305 386.111,21.305 386.606,21.305 387.101,21.305 387.597,21.305 388.092,21.305 388.587,21.305 389.083,21.305 389.578,21.305 390.073,21.305 390.568,21.305 391.064,21.305 391.559,21.305 392.054,21.305 392.550,21.305 393.045,21.305 393.540,21.305 394.035,21.305 394.531,21.305 395.026,21.305 395.521,21.305 396.017,21.305 396.512,21.305 397.007,21.305 397.502,21.305 397.998,21.305 398.493,21.305 398.988,21.305 399.484,21.305 399.979,21.305 400.474,21.305 400.969,21.305 401.465,21.305 401.960,21.305 402.455,21.305 402.951,21.305 403.446,21.305 403.941,21.305 404.436,21.305 404.932,21.305 405.427,21.305 405.922,21.305 406.418,21.305 406.913,21.305 407.408,21.305 407.903,21.305 408.399,21.305 408.894,21.305 409.389,21.305 409.885,21.305 410.380,21.305 410.875,21.305 411.370,21.305 411.866,21.305 412.361,21.305 412.856,21.305 413.352,21.305 413.847,21.305 414.342,21.305 414.837,21.305 415.333,21.305 415.828,21.305 416.323,21.305 416.819,21.305 417.314,21.305 417.809,21.305 418.304,21.305 418.800,21.305 419.295,21.305 419.790,21.305 420.286,21.305 420.781,21.305 421.276,21.305 421.771,21.305 422.267,21.305 422.762,21.305 423.257,21.305 423.753,21.305 424.248,21.305 424.743,21.305 425.238,21.305 425.734,21.305 426.229,21.305 426.724,21.305 427.219,21.305 427.715,21.305 428.210,21.305 428.705,21.305 429.201,21.305 429.696,21.305 430.191,21.305 430.686,21.305 431.182,21.305 431.677,21.305 432.172,21.305 432.668,21.305 433.163,21.305 433.658,21.305 434.153,21.305 434.649,21.305 435.144,21.305 435.639,21.305 436.135,21.305 436.630,21.305 437.125,21.305 437.620,21.305 438.116,21.305 438.611,21.305 439.106,21.305 439.602,21.305 440.097,21.305 440.592,21.305 441.087,21.305 441.583,21.305 442.078,21.305 442.573,21.305 443.069,21.305 443.564,21.305 444.059,21.305 444.554,21.305 445.050,21.305 445.545,21.305 446.040,21.305 446.536,21.305 447.031,21.305 447.526,21.305 448.021,21.305 448.517,21.305 449.012,21.305 449.507,21.305 450.003,21.305 450.498,21.305 450.993,21.305 451.488,21.305 451.984,21.305 452.479,21.305 452.974,21.305 453.470,21.305 453.965,21.305 454.460,21.305 454.955,21.305 455.451,21.305 455.946,21.305 456.441,21.305 456.937,21.305 457.432,21.305 457.927,21.305 458.422,21.305 458.918,21.305 459.413,21.305 459.908,21.305 460.404,21.305 460.899,21.305 461.394,21.305 461.889,21.305 462.385,21.305 462.880,21.305 463.375,21.305 463.871,21.305 464.366,21.305 464.861,21.305 465.356,21.305 465.852,21.305 466.347,21.305 466.842,21.305 467.338,21.305 467.833,21.305 468.328,21.305 468.823,21.305 469.319,21.305 469.814,21.305 470.309,21.305 470.805,21.305 471.300,21.305 471.795,21.305 472.290,21.305 472.786,21.305 473.281,21.305 473.776,21.305 474.272,21.305 474.767,21.305 475.262,21.305 475.757,21.305 476.253,21.305 476.748,21.305 477.243,21.305 477.738,21.305 478.234,21.305 478.729,21.305 479.224,21.305 479.720,21.305 480.215,21.305 480.710,21.305 481.205,21.305 481.701,21.305 482.196,21.305 482.691,21.305 483.187,21.305 483.682,21.305 484.177,21.305 484.672,21.305 485.168,21.305 485.663,21.305 486.158,21.305 486.654,21.305 487.149,21.305 487.644,21.305 488.139,21.305 488.635,21.305 489.130,21.305 489.625,21.305 490.121,21.305 490.616,21.305 491.111,21.305 491.606,21.305 492.102,21.305 492.597,21.305 493.092,21.305 493.588,21.305 494.083,21.305 494.578,21.305 495.073,21.305 495.569,21.305 496.064,21.305 496.559,21.305 497.055,21.305 497.550,21.305 498.045,21.305 498.540,21.305 499.036,21.305 499.531,21.305 500.026,21.305 500.522,21.305 501.017,21.305 501.512,21.305 502.007,21.305 502.503,21.305 502.998,21.305 503.493,21.305 503.989,21.305 504.484,21.305 504.979,21.305 505.474,21.305 505.970,21.305 506.465,21.305 506.960,21.305 507.456,21.305 507.951,21.305 508.446,21.305 508.941,21.305 509.437,21.305 509.932,21.305 510.427,21.305 510.923,21.305 511.418,21.305 511.913,21.305 512.408,21.305 512.904,21.305 513.399,21.305 513.894,21.305 514.390,21.305 514.885,21.305 515.380,21.305 515.875,21.305 516.371,21.305 516.866,21.305 517.361,21.305 517.857,21.305 518.352,21.305 518.847,21.305 519.342,21.305 519.838,21.305 520.333,21.305 520.828,21.305 521.324,21.305 521.819,21.305 522.314,21.305 522.809,21.305 523.305,21.305 523.800,21.305 524.295,21.305 524.791,21.305 525.286,21.305 525.781,21.305 526.276,21.305 526.772,21.305 527.267,21.305 527.762,21.305 528.258,21.305 528.753,21.305 529.248,21.305 529.743,21.305 530.239,21.305 530.734,21.305 531.229,21.305 531.724,21.305 532.220,21.305 532.715,21.305 533.210,21.305 533.706,21.305 534.201,21.305 534.696,21.305 535.191,21.305 535.687,21.305 536.182,21.305 536.677,21.305 537.173,21.305 537.668,21.305 538.163,21.305 538.658,21.305 539.154,21.305 539.649,21.305 540.144,21.305 540.640,21.305 541.135,21.305 541.630,21.305 542.125,21.305 542.621,21.305 543.116,21.305 543.611,21.305 544.107,21.305 544.602,21.305 545.097,21.305 545.592,21.305 546.088,21.305 546.583,21.305 547.078,21.305 547.574,21.305 548.069,21.305 548.564,21.305 549.059,21.305 549.555,21.305 550.050,21.305 550.545,21.305 551.041,21.305 551.536,21.305 552.031,21.305 552.526,21.305 553.022,21.305 553.517,21.305 554.012,21.305 554.508,21.305 555.003,21.305 555.498,21.305 555.993,21.305 556.489,21.305 556.984,21.305 557.479,21.305 557.975,21.305 558.470,21.305 558.965,21.305 559.460,21.305 559.956,21.305 560.451,21.305 560.946,21.305 561.442,21.305 561.937,21.305 562.432,21.305 562.927,21.305 563.423,21.305 563.918,21.305 564.413,21.305 564.909,21.305 565.404,21.305 565.899,21.305 566.394,21.305 566.890,21.305 567.385,21.305 567.880,21.305 568.376,21.305 568.871,21.305 569.366,21.305 569.861,21.305 570.357,21.305 570.852,21.305 571.347,21.305 571.843,21.305 572.338,21.305 572.833,21.305 573.328,21.305 573.824,21.305 574.319,21.305 574.814,21.305 575.310,21.305 575.805,21.305 576.300,21.305 576.795,21.305 577.291,21.305 577.786,21.305 "/>
<g>
</g>
</g>
<g id="ID000007" >
</g>
<g id="ID000008" >
</g>
<g id="ID000009" >
</g>
    </g>
    <g>
      <polyline fill="none" stroke="#000000" stroke-width="0.5pt" stroke-dasharray="none" points="181.955,242.813 181.955,237.865 "/>
      <polyline fill="none" stroke="#000000" stroke-width="0.5pt" stroke-dasharray="none" points="280.913,242.813 280.913,237.865 "/>
      <polyline fill="none" stroke="#000000" stroke-width="0.5pt" stroke-dasharray="none" points="379.870,242.813 379.870,237.865 "/>
      <polyline fill="none" stroke="#000000" stroke-width="0.5pt" stroke-dasharray="none" points="478.828,242.813 478.828,237.865 "/>
      <polyline fill="none" stroke="#000000" stroke-width="0.5pt" stroke-dasharray="none" points="82.997,242.813 577.786,242.813 "/>
      <polyline fill="none" stroke="#000000" stroke-width="0.5pt" stroke-dasharray="none" points="181.955,21.305 181.955,26.253 "/>
      <polyline fill="none" stroke="#000000" stroke-width="0.5pt" stroke-dasharray="none" points="280.913,21.305 280.913,26.253 "/>
      <polyline fill="none" stroke="#000000" stroke-width="0.5pt" stroke-dasharray="none" points="379.870,21.305 379.870,26.253 "/>
      <polyline fill="none" stroke="#000000" stroke-width="0.5pt" stroke-dasharray="none" points="478.828,21.305 478.828,26.253 "/>
      <polyline fill="none" stroke="#000000" stroke-width="0.5pt" stroke-dasharray="none" points="82.997,21.305 577.786,21.305 "/>
  <g transform="translate(82.997,260.518)">
    <g transform="rotate(-0.0)">
      <text x="0.000" y="0.000" font-family="Times New Roman" text-anchor="middle" font-size="11pt" fill="#000000" >0</text>
    </g>
  </g>
  <g transform="translate(181.955,260.518)">
    <g transform="rotate(-0.0)">
      <text x="0.000" y="0.000" font-family="Times New Roman" text-anchor="middle" font-size="11pt" fill="#000000" >0.01</text>
    </g>
  </g>
  <g transform="translate(280.913,260.518)">
    <g transform="rotate(-0.0)">
      <text x="0.000" y="0.000" font-family="Times New Roman" text-anchor="middle" font-size="11pt" fill="#000000" >0.02</text>
    </g>
  </g>
  <g transform="translate(379.870,260.518)">
    <g transform="rotate(-0.0)">
      <text x="0.000" y="0.000" font-family="Times New Roman" text-anchor="middle" font-size="11pt" fill="#000000" >0.03</text>
    </g>
  </g>
  <g transform="translate(478.828,260.518)">
    <g transform="rotate(-0.0)">
      <text x="0.000" y="0.000" font-family="Times New Roman" text-anchor="middle" font-size="11pt" fill="#000000" >0.04</text>
    </g>
  </g>
  <g transform="translate(577.786,260.518)">
    <g transform="rotate(-0.0)">
      <text x="0.000" y="0.000" font-family="Times New Roman" text-anchor="middle" font-size="11pt" fill="#000000" >0.05</text>
    </g>
  </g>
      <polyline fill="none" stroke="#000000" stroke-width="0.5pt" stroke-dasharray="none" points="82.997,198.511 87.945,198.511 "/>
      <polyline fill="none" stroke="#000000" stroke-width="0.5pt" stroke-dasharray="none" points="82.997,154.209 87.945,154.209 "/>
      <polyline fill="none" stroke="#000000" stroke-width="0.5pt" stroke-dasharray="none" points="82.997,109.908 87.945,109.908 "/>
      <polyline fill="none" stroke="#000000" stroke-width="0.5pt" stroke-dasharray="none" points="82.997,65.606 87.945,65.606 "/>
      <polyline fill="none" stroke="#000000" stroke-width="0.5pt" stroke-dasharray="none" points="82.997,242.813 82.997,21.305 "/>
      <polyline fill="none" stroke="#000000" stroke-width="0.5pt" stroke-dasharray="none" points="577.786,198.511 572.838,198.511 "/>
      <polyline fill="none" stroke="#000000" stroke-width="0.5pt" stroke-dasharray="none" points="577.786,154.209 572.838,154.209 "/>
      <polyline fill="none" stroke="#000000" stroke-width="0.5pt" stroke-dasharray="none" points="577.786,109.908 572.838,109.908 "/>
      <polyline fill="none" stroke="#000000" stroke-width="0.5pt" stroke-dasharray="none" points="577.786,65.606 572.838,65.606 "/>
      <polyline fill="none" stroke="#000000" stroke-width="0.5pt" stroke-dasharray="none" points="577.786,242.813 577.786,21.305 "/>
  <g transform="translate(73.101,247.875)">
    <g transform="rotate(-0.0)">
      <text x="0.000" y="0.000" font-family="Times New Roman" text-anchor="end" font-size="11pt" fill="#000000" >0</text>
    </g>
  </g>
  <g transform="translate(73.101,203.573)">
    <g transform="rotate(-0.0)">
      <text x="0.000" y="0.000" font-family="Times New Roman" text-anchor="end" font-size="11pt" fill="#000000" >0.2</text>
    </g>
  </g>
  <g transform="translate(73.101,159.272)">
    <g transform="rotate(-0.0)">
      <text x="0.000" y="0.000" font-family="Times New Roman" text-anchor="end" font-size="11pt" fill="#000000" >0.4</text>
    </g>
  </g>
  <g transform="translate(73.101,114.970)">
    <g transform="rotate(-0.0)">
      <text x="0.000" y="0.000" font-family="Times New Roman" text-anchor="end" font-size="11pt" fill="#000000" >0.6</text>
    </g>
  </g>
  <g transform="translate(73.101,70.669)">
    <g transform="rotate(-0.0)">
      <text x="0.000" y="0.000" font-family="Times New Roman" text-anchor="end" font-size="11pt" fill="#000000" >0.8</text>
    </g>
  </g>
  <g transform="translate(73.101,26.367)">
    <g transform="rotate(-0.0)">
      <text x="0.000" y="0.000" font-family="Times New Roman" text-anchor="end" font-size="11pt" fill="#000000" >1</text>
    </g>
  </g>
      <polyline fill="none" stroke="#000000" stroke-width="0.5pt" stroke-dasharray="none" points="82.997,242.813 82.997,240.597 "/>
      <polyline fill="none" stroke="#000000" stroke-width="0.5pt" stroke-dasharray="none" points="82.997,242.813 82.997,242.813 "/>
    </g>
  </g>
  <g id ="ID000010">
  <clipPath id="ID000011">
    <rect x="331.719" y="172.656" width="240.937" height="65.313"/>
  </clipPath>
      <polygon fill="#ffffff" fill-opacity="1.00" stroke="none" stroke-width="0.5pt" stroke-opacity="1.00" stroke-dasharray="none" points="331.719,237.969 572.656,237.969 572.656,172.656 331.719,172.656 "/>
      <polygon fill="#ffffff" fill-opacity="1.00" stroke="none" stroke-width="0.5pt" stroke-opacity="1.00" stroke-dasharray="none" points="331.719,172.656 572.656,172.656 572.656,172.656 331.719,172.656 "/>
      <polygon fill="#ffffff" fill-opacity="1.00" stroke="none" stroke-width="0.5pt" stroke-opacity="1.00" stroke-dasharray="none" points="331.719,237.969 331.719,237.969 331.719,172.656 331.719,172.656 "/>
    <g>
<g id="ID000012" >
  <g transform="translate(380.937,190.315)">
    <g transform="rotate(-0.0)">
      <text x="0.000" y="0.000" font-family="Times New Roman" text-anchor="start" font-size="11pt" fill="#000000" >$\Lambda=1\times 10^{-4}$</text>
    </g>
  </g>
</g>
<g id="ID000013" clip-path="url(#ID000011)" >
      <polyline fill="none" stroke="#000000" stroke-width="0.5pt" stroke-dasharray="none" points="339.219,185.000 376.719,185.000 "/>
<g>
</g>
</g>
<g id="ID000014" clip-path="url(#ID000011)" >
<g>
</g>
</g>
<g id="ID000015" >
  <g transform="translate(380.937,211.775)">
    <g transform="rotate(-0.0)">
      <text x="0.000" y="0.000" font-family="Times New Roman" text-anchor="start" font-size="11pt" fill="#000000" >$\Lambda=1\times 10^{-5}$</text>
    </g>
  </g>
</g>
<g id="ID000016" clip-path="url(#ID000011)" >
      <polyline fill="none" stroke="#000000" stroke-width="0.5pt" stroke-dasharray="8.0,2.0,2.0,2.0" points="339.219,205.313 376.719,205.313 "/>
<g>
</g>
</g>
<g id="ID000017" clip-path="url(#ID000011)" >
<g>
</g>
</g>
<g id="ID000018" >
  <g transform="translate(380.937,232.301)">
    <g transform="rotate(-0.0)">
      <text x="0.000" y="0.000" font-family="Times New Roman" text-anchor="start" font-size="11pt" fill="#000000" >$\Lambda=1\times 10^{-6}$</text>
    </g>
  </g>
</g>
<g id="ID000019" clip-path="url(#ID000011)" >
      <polyline fill="none" stroke="#000000" stroke-width="0.5pt" stroke-dasharray="2.0,2.0" points="339.219,225.625 376.719,225.625 "/>
<g>
</g>
</g>
<g id="ID000020" clip-path="url(#ID000011)" >
<g>
</g>
</g>
<g id="ID000021" >
</g>
<g id="ID000022" >
</g>
<g id="ID000023" >
</g>
    </g>
    <g>
      <polyline fill="none" stroke="#000000" stroke-width="0.5pt" stroke-dasharray="none" points="331.719,237.969 572.656,237.969 "/>
      <polyline fill="none" stroke="#000000" stroke-width="0.5pt" stroke-dasharray="none" points="331.719,172.656 572.656,172.656 "/>
      <polyline fill="none" stroke="#000000" stroke-width="0.5pt" stroke-dasharray="none" points="331.719,237.969 331.719,172.656 "/>
      <polyline fill="none" stroke="#000000" stroke-width="0.5pt" stroke-dasharray="none" points="572.656,237.969 572.656,172.656 "/>
      <polyline fill="none" stroke="#000000" stroke-width="0.5pt" stroke-dasharray="none" points="331.719,237.969 331.719,237.316 "/>
      <polyline fill="none" stroke="#000000" stroke-width="0.5pt" stroke-dasharray="none" points="331.719,237.969 331.719,237.969 "/>
    </g>
  </g>
  </g>
</svg>
