<?xml version="1.0" encoding="utf-8" standalone="no"?><!DOCTYPE svg PUBLIC "-//W3C//DTD SVG 1.1//EN" "http://www.w3.org/Graphics/SVG/1.1/DTD/svg11.dtd">
<svg preserveAspectRatio="xMinYMin meet" width="100%" height="100%" viewBox="0 0 638.438 284.063"  version="1.1" xmlns="http://www.w3.org/2000/svg" xmlns:xlink="http://www.w3.org/1999/xlink">
  <desc>Matlab Figure Converted by PLOT2SVG written by Juerg Schwizer</desc>
  <g id="topgroup">
  <rect x="0" y="0" width="638.438" height="284.063" fill="#ffffff" stroke="none" />
  <g id ="ID000000">
  <clipPath id="ID000001">
    <rect x="82.997" y="25.312" width="494.789" height="217.500"/>
  </clipPath>
      <polygon fill="#ffffff" fill-opacity="1.00" stroke="none" stroke-width="0.5pt" stroke-opacity="1.00" stroke-dasharray="none" points="82.997,242.813 577.786,242.813 577.786,25.312 82.997,25.312 "/>
      <polygon fill="#ffffff" fill-opacity="1.00" stroke="none" stroke-width="0.5pt" stroke-opacity="1.00" stroke-dasharray="none" points="82.997,25.312 577.786,25.312 577.786,25.312 82.997,25.312 "/>
      <polygon fill="#ffffff" fill-opacity="1.00" stroke="none" stroke-width="0.5pt" stroke-opacity="1.00" stroke-dasharray="none" points="82.997,242.813 82.997,242.813 82.997,25.312 82.997,25.312 "/>
    <g>
<g id="ID000002" clip-path="url(#ID000001)" >
      <polyline fill="none" stroke="#000000" stroke-width="0.5pt" stroke-dasharray="none" points="82.997,25.312 83.492,26.326 83.987,27.334 84.483,28.336 84.978,29.333 85.473,30.324 85.969,31.309 86.464,32.289 86.959,33.264 87.454,34.233 87.950,35.197 88.445,36.155 88.940,37.108 89.436,38.056 89.931,38.998 90.426,39.935 90.921,40.867 91.417,41.793 91.912,42.715 92.407,43.631 92.903,44.542 93.398,45.448 93.893,46.350 94.388,47.245 94.884,48.136 95.379,49.022 95.874,49.904 96.370,50.780 96.865,51.651 97.360,52.517 97.855,53.379 98.351,54.235 98.846,55.087 99.341,55.935 99.837,56.777 100.332,57.615 100.827,58.448 101.322,59.276 101.818,60.100 102.313,60.919 102.808,61.734 103.304,62.544 103.799,63.349 104.294,64.150 104.789,64.947 105.285,65.739 105.780,66.526 106.275,67.310 106.771,68.089 107.266,68.863 107.761,69.633 108.256,70.399 108.752,71.161 109.247,71.918 109.742,72.671 110.238,73.420 110.733,74.165 111.228,74.905 111.723,75.642 112.219,76.374 112.714,77.102 113.209,77.827 113.705,78.547 114.200,79.263 114.695,79.975 115.190,80.683 115.686,81.387 116.181,82.087 116.676,82.784 117.171,83.476 117.667,84.165 118.162,84.849 118.657,85.530 119.153,86.207 119.648,86.881 120.143,87.550 120.638,88.216 121.134,88.878 121.629,89.536 122.124,90.191 122.620,90.842 123.115,91.489 123.610,92.133 124.105,92.773 124.601,93.410 125.096,94.043 125.591,94.672 126.087,95.298 126.582,95.921 127.077,96.540 127.572,97.156 128.068,97.768 128.563,98.376 129.058,98.982 129.554,99.584 130.049,100.182 130.544,100.777 131.039,101.369 131.535,101.958 132.030,102.543 132.525,103.125 133.021,103.704 133.516,104.279 134.011,104.852 134.506,105.421 135.002,105.987 135.497,106.550 135.992,107.109 136.488,107.666 136.983,108.219 137.478,108.770 137.973,109.317 138.469,109.861 138.964,110.402 139.459,110.940 139.955,111.475 140.450,112.007 140.945,112.537 141.440,113.063 141.936,113.586 142.431,114.106 142.926,114.624 143.422,115.138 143.917,115.650 144.412,116.159 144.907,116.665 145.403,117.168 145.898,117.668 146.393,118.166 146.889,118.661 147.384,119.153 147.879,119.642 148.374,120.128 148.870,120.612 149.365,121.093 149.860,121.572 150.356,122.047 150.851,122.520 151.346,122.991 151.841,123.459 152.337,123.924 152.832,124.386 153.327,124.846 153.823,125.304 154.318,125.759 154.813,126.211 155.308,126.661 155.804,127.108 156.299,127.553 156.794,127.995 157.290,128.435 157.785,128.873 158.280,129.307 158.775,129.740 159.271,130.170 159.766,130.598 160.261,131.023 160.757,131.446 161.252,131.867 161.747,132.285 162.242,132.701 162.738,133.114 163.233,133.526 163.728,133.935 164.224,134.341 164.719,134.746 165.214,135.148 165.709,135.548 166.205,135.945 166.700,136.341 167.195,136.734 167.690,137.125 168.186,137.514 168.681,137.901 169.176,138.285 169.672,138.668 170.167,139.048 170.662,139.426 171.157,139.802 171.653,140.176 172.148,140.548 172.643,140.917 173.139,141.285 173.634,141.651 174.129,142.014 174.624,142.376 175.120,142.735 175.615,143.093 176.110,143.448 176.606,143.802 177.101,144.154 177.596,144.503 178.091,144.851 178.587,145.197 179.082,145.540 179.577,145.882 180.073,146.222 180.568,146.560 181.063,146.896 181.558,147.231 182.054,147.563 182.549,147.894 183.044,148.222 183.540,148.549 184.035,148.874 184.530,149.198 185.025,149.519 185.521,149.839 186.016,150.157 186.511,150.473 187.007,150.787 187.502,151.100 187.997,151.410 188.492,151.719 188.988,152.027 189.483,152.332 189.978,152.636 190.474,152.939 190.969,153.239 191.464,153.538 191.959,153.835 192.455,154.131 192.950,154.425 193.445,154.717 193.941,155.008 194.436,155.297 194.931,155.584 195.426,155.870 195.922,156.154 196.417,156.437 196.912,156.718 197.408,156.997 197.903,157.275 198.398,157.551 198.893,157.826 199.389,158.099 199.884,158.371 200.379,158.641 200.875,158.910 201.370,159.177 201.865,159.443 202.360,159.707 202.856,159.970 203.351,160.231 203.846,160.491 204.342,160.750 204.837,161.007 205.332,161.262 205.827,161.516 206.323,161.769 206.818,162.020 207.313,162.270 207.809,162.518 208.304,162.765 208.799,163.011 209.294,163.256 209.790,163.498 210.285,163.740 210.780,163.980 211.276,164.219 211.771,164.457 212.266,164.693 212.761,164.928 213.257,165.162 213.752,165.394 214.247,165.625 214.743,165.855 215.238,166.083 215.733,166.310 216.228,166.536 216.724,166.761 217.219,166.984 217.714,167.206 218.210,167.427 218.705,167.647 219.200,167.866 219.695,168.083 220.191,168.299 220.686,168.514 221.181,168.727 221.676,168.940 222.172,169.151 222.667,169.361 223.162,169.570 223.658,169.778 224.153,169.984 224.648,170.190 225.143,170.394 225.639,170.597 226.134,170.799 226.629,171.000 227.125,171.200 227.620,171.398 228.115,171.596 228.610,171.792 229.106,171.987 229.601,172.182 230.096,172.375 230.592,172.567 231.087,172.758 231.582,172.948 232.077,173.137 232.573,173.324 233.068,173.511 233.563,173.697 234.059,173.882 234.554,174.065 235.049,174.248 235.544,174.430 236.040,174.610 236.535,174.790 237.030,174.968 237.526,175.146 238.021,175.323 238.516,175.498 239.011,175.673 239.507,175.847 240.002,176.019 240.497,176.191 240.993,176.362 241.488,176.532 241.983,176.701 242.478,176.868 242.974,177.035 243.469,177.202 243.964,177.367 244.460,177.531 244.955,177.694 245.450,177.857 245.945,178.018 246.441,178.179 246.936,178.338 247.431,178.497 247.927,178.655 248.422,178.812 248.917,178.968 249.412,179.124 249.908,179.278 250.403,179.432 250.898,179.584 251.394,179.736 251.889,179.887 252.384,180.037 252.879,180.187 253.375,180.335 253.870,180.483 254.365,180.630 254.861,180.776 255.356,180.921 255.851,181.065 256.346,181.209 256.842,181.352 257.337,181.494 257.832,181.635 258.328,181.775 258.823,181.915 259.318,182.054 259.813,182.192 260.309,182.329 260.804,182.466 261.299,182.602 261.795,182.737 262.290,182.871 262.785,183.004 263.280,183.137 263.776,183.269 264.271,183.401 264.766,183.531 265.262,183.661 265.757,183.790 266.252,183.919 266.747,184.046 267.243,184.173 267.738,184.299 268.233,184.425 268.729,184.550 269.224,184.674 269.719,184.798 270.214,184.920 270.710,185.042 271.205,185.164 271.700,185.285 272.195,185.405 272.691,185.524 273.186,185.643 273.681,185.761 274.177,185.878 274.672,185.995 275.167,186.111 275.662,186.227 276.158,186.342 276.653,186.456 277.148,186.569 277.644,186.682 278.139,186.794 278.634,186.906 279.129,187.017 279.625,187.128 280.120,187.237 280.615,187.347 281.111,187.455 281.606,187.563 282.101,187.671 282.596,187.777 283.092,187.884 283.587,187.989 284.082,188.094 284.578,188.199 285.073,188.302 285.568,188.406 286.063,188.508 286.559,188.610 287.054,188.712 287.549,188.813 288.045,188.913 288.540,189.013 289.035,189.113 289.530,189.211 290.026,189.310 290.521,189.407 291.016,189.504 291.512,189.601 292.007,189.697 292.502,189.792 292.997,189.887 293.493,189.982 293.988,190.076 294.483,190.169 294.979,190.262 295.474,190.354 295.969,190.446 296.464,190.537 296.960,190.628 297.455,190.719 297.950,190.808 298.446,190.898 298.941,190.986 299.436,191.075 299.931,191.163 300.427,191.250 300.922,191.337 301.417,191.423 301.913,191.509 302.408,191.594 302.903,191.679 303.398,191.764 303.894,191.848 304.389,191.931 304.884,192.014 305.380,192.097 305.875,192.179 306.370,192.261 306.865,192.342 307.361,192.423 307.856,192.503 308.351,192.583 308.847,192.662 309.342,192.741 309.837,192.820 310.332,192.898 310.828,192.976 311.323,193.053 311.818,193.130 312.314,193.206 312.809,193.282 313.304,193.358 313.799,193.433 314.295,193.508 314.790,193.582 315.285,193.656 315.781,193.729 316.276,193.802 316.771,193.875 317.266,193.947 317.762,194.019 318.257,194.090 318.752,194.161 319.248,194.232 319.743,194.302 320.238,194.372 320.733,194.442 321.229,194.511 321.724,194.579 322.219,194.648 322.714,194.716 323.210,194.783 323.705,194.850 324.200,194.917 324.696,194.984 325.191,195.050 325.686,195.116 326.181,195.181 326.677,195.246 327.172,195.310 327.667,195.375 328.163,195.439 328.658,195.502 329.153,195.565 329.648,195.628 330.144,195.691 330.639,195.753 331.134,195.815 331.630,195.876 332.125,195.937 332.620,195.998 333.115,196.058 333.611,196.119 334.106,196.178 334.601,196.238 335.097,196.297 335.592,196.356 336.087,196.414 336.582,196.472 337.078,196.530 337.573,196.588 338.068,196.645 338.564,196.702 339.059,196.758 339.554,196.814 340.049,196.870 340.545,196.926 341.040,196.981 341.535,197.036 342.031,197.091 342.526,197.145 343.021,197.199 343.516,197.253 344.012,197.306 344.507,197.360 345.002,197.412 345.498,197.465 345.993,197.517 346.488,197.569 346.983,197.621 347.479,197.672 347.974,197.724 348.469,197.774 348.965,197.825 349.460,197.875 349.955,197.925 350.450,197.975 350.946,198.025 351.441,198.074 351.936,198.123 352.432,198.171 352.927,198.220 353.422,198.268 353.917,198.316 354.413,198.363 354.908,198.410 355.403,198.457 355.899,198.504 356.394,198.551 356.889,198.597 357.384,198.643 357.880,198.689 358.375,198.734 358.870,198.780 359.366,198.825 359.861,198.869 360.356,198.914 360.851,198.958 361.347,199.002 361.842,199.046 362.337,199.089 362.833,199.133 363.328,199.176 363.823,199.218 364.318,199.261 364.814,199.303 365.309,199.345 365.804,199.387 366.300,199.429 366.795,199.470 367.290,199.512 367.785,199.552 368.281,199.593 368.776,199.634 369.271,199.674 369.767,199.714 370.262,199.754 370.757,199.793 371.252,199.833 371.748,199.872 372.243,199.911 372.738,199.950 373.234,199.988 373.729,200.026 374.224,200.065 374.719,200.102 375.215,200.140 375.710,200.178 376.205,200.215 376.700,200.252 377.196,200.289 377.691,200.325 378.186,200.362 378.682,200.398 379.177,200.434 379.672,200.470 380.167,200.505 380.663,200.541 381.158,200.576 381.653,200.611 382.149,200.646 382.644,200.681 383.139,200.715 383.634,200.749 384.130,200.784 384.625,200.817 385.120,200.851 385.616,200.885 386.111,200.918 386.606,200.951 387.101,200.984 387.597,201.017 388.092,201.050 388.587,201.082 389.083,201.114 389.578,201.146 390.073,201.178 390.568,201.210 391.064,201.241 391.559,201.273 392.054,201.304 392.550,201.335 393.045,201.366 393.540,201.397 394.035,201.427 394.531,201.457 395.026,201.488 395.521,201.518 396.017,201.547 396.512,201.577 397.007,201.607 397.502,201.636 397.998,201.665 398.493,201.694 398.988,201.723 399.484,201.752 399.979,201.780 400.474,201.809 400.969,201.837 401.465,201.865 401.960,201.893 402.455,201.921 402.951,201.948 403.446,201.976 403.941,202.003 404.436,202.030 404.932,202.057 405.427,202.084 405.922,202.111 406.418,202.137 406.913,202.164 407.408,202.190 407.903,202.216 408.399,202.242 408.894,202.268 409.389,202.294 409.885,202.319 410.380,202.345 410.875,202.370 411.370,202.395 411.866,202.420 412.361,202.445 412.856,202.470 413.352,202.494 413.847,202.519 414.342,202.543 414.837,202.567 415.333,202.591 415.828,202.615 416.323,202.639 416.819,202.663 417.314,202.686 417.809,202.710 418.304,202.733 418.800,202.756 419.295,202.779 419.790,202.802 420.286,202.825 420.781,202.847 421.276,202.870 421.771,202.892 422.267,202.915 422.762,202.937 423.257,202.959 423.753,202.981 424.248,203.002 424.743,203.024 425.238,203.046 425.734,203.067 426.229,203.088 426.724,203.110 427.219,203.131 427.715,203.152 428.210,203.172 428.705,203.193 429.201,203.214 429.696,203.234 430.191,203.255 430.686,203.275 431.182,203.295 431.677,203.315 432.172,203.335 432.668,203.355 433.163,203.375 433.658,203.394 434.153,203.414 434.649,203.433 435.144,203.452 435.639,203.472 436.135,203.491 436.630,203.510 437.125,203.529 437.620,203.547 438.116,203.566 438.611,203.585 439.106,203.603 439.602,203.621 440.097,203.640 440.592,203.658 441.087,203.676 441.583,203.694 442.078,203.712 442.573,203.729 443.069,203.747 443.564,203.765 444.059,203.782 444.554,203.800 445.050,203.817 445.545,203.834 446.040,203.851 446.536,203.868 447.031,203.885 447.526,203.902 448.021,203.919 448.517,203.935 449.012,203.952 449.507,203.968 450.003,203.985 450.498,204.001 450.993,204.017 451.488,204.033 451.984,204.049 452.479,204.065 452.974,204.081 453.470,204.097 453.965,204.112 454.460,204.128 454.955,204.143 455.451,204.159 455.946,204.174 456.441,204.189 456.937,204.205 457.432,204.220 457.927,204.235 458.422,204.249 458.918,204.264 459.413,204.279 459.908,204.294 460.404,204.308 460.899,204.323 461.394,204.337 461.889,204.352 462.385,204.366 462.880,204.380 463.375,204.394 463.871,204.408 464.366,204.422 464.861,204.436 465.356,204.450 465.852,204.464 466.347,204.477 466.842,204.491 467.338,204.504 467.833,204.518 468.328,204.531 468.823,204.544 469.319,204.558 469.814,204.571 470.309,204.584 470.805,204.597 471.300,204.610 471.795,204.623 472.290,204.636 472.786,204.648 473.281,204.661 473.776,204.674 474.272,204.686 474.767,204.698 475.262,204.711 475.757,204.723 476.253,204.735 476.748,204.748 477.243,204.760 477.738,204.772 478.234,204.784 478.729,204.796 479.224,204.808 479.720,204.819 480.215,204.831 480.710,204.843 481.205,204.854 481.701,204.866 482.196,204.877 482.691,204.889 483.187,204.900 483.682,204.911 484.177,204.923 484.672,204.934 485.168,204.945 485.663,204.956 486.158,204.967 486.654,204.978 487.149,204.989 487.644,205.000 488.139,205.010 488.635,205.021 489.130,205.032 489.625,205.042 490.121,205.053 490.616,205.063 491.111,205.074 491.606,205.084 492.102,205.094 492.597,205.105 493.092,205.115 493.588,205.125 494.083,205.135 494.578,205.145 495.073,205.155 495.569,205.165 496.064,205.175 496.559,205.185 497.055,205.194 497.550,205.204 498.045,205.214 498.540,205.223 499.036,205.233 499.531,205.242 500.026,205.252 500.522,205.261 501.017,205.271 501.512,205.280 502.007,205.289 502.503,205.298 502.998,205.307 503.493,205.316 503.989,205.326 504.484,205.335 504.979,205.343 505.474,205.352 505.970,205.361 506.465,205.370 506.960,205.379 507.456,205.388 507.951,205.396 508.446,205.405 508.941,205.413 509.437,205.422 509.932,205.430 510.427,205.439 510.923,205.447 511.418,205.456 511.913,205.464 512.408,205.472 512.904,205.480 513.399,205.489 513.894,205.497 514.390,205.505 514.885,205.513 515.380,205.521 515.875,205.529 516.371,205.537 516.866,205.545 517.361,205.552 517.857,205.560 518.352,205.568 518.847,205.576 519.342,205.583 519.838,205.591 520.333,205.598 520.828,205.606 521.324,205.613 521.819,205.621 522.314,205.628 522.809,205.636 523.305,205.643 523.800,205.650 524.295,205.658 524.791,205.665 525.286,205.672 525.781,205.679 526.276,205.686 526.772,205.693 527.267,205.700 527.762,205.707 528.258,205.714 528.753,205.721 529.248,205.728 529.743,205.735 530.239,205.742 530.734,205.749 531.229,205.755 531.724,205.762 532.220,205.769 532.715,205.775 533.210,205.782 533.706,205.789 534.201,205.795 534.696,205.802 535.191,205.808 535.687,205.815 536.182,205.821 536.677,205.827 537.173,205.834 537.668,205.840 538.163,205.846 538.658,205.852 539.154,205.859 539.649,205.865 540.144,205.871 540.640,205.877 541.135,205.883 541.630,205.889 542.125,205.895 542.621,205.901 543.116,205.907 543.611,205.913 544.107,205.919 544.602,205.925 545.097,205.930 545.592,205.936 546.088,205.942 546.583,205.948 547.078,205.953 547.574,205.959 548.069,205.965 548.564,205.970 549.059,205.976 549.555,205.981 550.050,205.987 550.545,205.992 551.041,205.998 551.536,206.003 552.031,206.009 552.526,206.014 553.022,206.019 553.517,206.025 554.012,206.030 554.508,206.035 555.003,206.041 555.498,206.046 555.993,206.051 556.489,206.056 556.984,206.061 557.479,206.066 557.975,206.071 558.470,206.076 558.965,206.082 559.460,206.087 559.956,206.091 560.451,206.096 560.946,206.101 561.442,206.106 561.937,206.111 562.432,206.116 562.927,206.121 563.423,206.126 563.918,206.130 564.413,206.135 564.909,206.140 565.404,206.145 565.899,206.149 566.394,206.154 566.890,206.158 567.385,206.163 567.880,206.168 568.376,206.172 568.871,206.177 569.366,206.181 569.861,206.186 570.357,206.190 570.852,206.195 571.347,206.199 571.843,206.203 572.338,206.208 572.833,206.212 573.328,206.216 573.824,206.221 574.319,206.225 574.814,206.229 575.310,206.234 575.805,206.238 576.300,206.242 576.795,206.246 577.291,206.250 577.786,206.254 "/>
<g>
</g>
</g>
<g id="ID000003" >
  <g transform="translate(329.453,277.406)">
    <g transform="rotate(-0.0)">
      <text x="0.000" y="0.000" font-family="Times New Roman" text-anchor="middle" font-size="11pt" fill="#000000" >Time ($t$) [$s$]</text>
    </g>
  </g>
</g>
<g id="ID000004" >
  <g transform="translate(49.671,135.469)">
    <g transform="rotate(-90.0)">
      <text x="0.000" y="0.000" font-family="Times New Roman" text-anchor="middle" font-size="11pt" fill="#000000" >Flux Amplitude ($p$) [ ]</text>
    </g>
  </g>
</g>
<g id="ID000005" clip-path="url(#ID000001)" >
      <polyline fill="none" stroke="#000000" stroke-width="0.5pt" stroke-dasharray="8.0,2.0,2.0,2.0" points="82.997,25.312 83.492,35.194 83.987,44.536 84.483,53.369 84.978,61.721 85.473,69.617 85.969,77.083 86.464,84.142 86.959,90.816 87.454,97.126 87.950,103.093 88.445,108.734 88.940,114.067 89.436,119.110 89.931,123.878 90.426,128.386 90.921,132.649 91.417,136.679 91.912,140.489 92.407,144.092 92.903,147.498 93.398,150.718 93.893,153.763 94.388,156.643 94.884,159.365 95.379,161.938 95.874,164.372 96.370,166.673 96.865,168.848 97.360,170.905 97.855,172.850 98.351,174.689 98.846,176.427 99.341,178.071 99.837,179.625 100.332,181.095 100.827,182.484 101.322,183.798 101.818,185.040 102.313,186.214 102.808,187.325 103.304,188.375 103.799,189.367 104.294,190.306 104.789,191.193 105.285,192.032 105.780,192.826 106.275,193.576 106.771,194.285 107.266,194.956 107.761,195.590 108.256,196.189 108.752,196.756 109.247,197.292 109.742,197.799 110.238,198.278 110.733,198.731 111.228,199.159 111.723,199.565 112.219,199.948 112.714,200.310 113.209,200.652 113.705,200.976 114.200,201.282 114.695,201.571 115.190,201.845 115.686,202.104 116.181,202.349 116.676,202.580 117.171,202.799 117.667,203.006 118.162,203.201 118.657,203.386 119.153,203.561 119.648,203.727 120.143,203.883 120.638,204.031 121.134,204.171 121.629,204.303 122.124,204.428 122.620,204.547 123.115,204.658 123.610,204.764 124.105,204.864 124.601,204.959 125.096,205.048 125.591,205.133 126.087,205.213 126.582,205.288 127.077,205.360 127.572,205.428 128.068,205.492 128.563,205.552 129.058,205.609 129.554,205.664 130.049,205.715 130.544,205.763 131.039,205.809 131.535,205.852 132.030,205.894 132.525,205.932 133.021,205.969 133.516,206.004 134.011,206.037 134.506,206.068 135.002,206.097 135.497,206.125 135.992,206.151 136.488,206.176 136.983,206.200 137.478,206.222 137.973,206.243 138.469,206.263 138.964,206.282 139.459,206.300 139.955,206.317 140.450,206.333 140.945,206.348 141.440,206.362 141.936,206.376 142.431,206.389 142.926,206.401 143.422,206.413 143.917,206.424 144.412,206.434 144.907,206.444 145.403,206.453 145.898,206.462 146.393,206.470 146.889,206.478 147.384,206.486 147.879,206.493 148.374,206.500 148.870,206.506 149.365,206.512 149.860,206.518 150.356,206.523 150.851,206.528 151.346,206.533 151.841,206.538 152.337,206.542 152.832,206.547 153.327,206.551 153.823,206.555 154.318,206.558 154.813,206.562 155.308,206.565 155.804,206.568 156.299,206.571 156.794,206.574 157.290,206.577 157.785,206.579 158.280,206.582 158.775,206.584 159.271,206.586 159.766,206.588 160.261,206.590 160.757,206.592 161.252,206.594 161.747,206.596 162.242,206.597 162.738,206.599 163.233,206.601 163.728,206.602 164.224,206.604 164.719,206.605 165.214,206.606 165.709,206.608 166.205,206.609 166.700,206.610 167.195,206.611 167.690,206.612 168.186,206.613 168.681,206.614 169.176,206.615 169.672,206.616 170.167,206.617 170.662,206.618 171.157,206.619 171.653,206.619 172.148,206.620 172.643,206.621 173.139,206.622 173.634,206.623 174.129,206.623 174.624,206.624 175.120,206.625 175.615,206.625 176.110,206.626 176.606,206.627 177.101,206.627 177.596,206.628 178.091,206.628 178.587,206.629 179.082,206.629 179.577,206.630 180.073,206.631 180.568,206.631 181.063,206.632 181.558,206.632 182.054,206.633 182.549,206.633 183.044,206.634 183.540,206.634 184.035,206.635 184.530,206.635 185.025,206.635 185.521,206.636 186.016,206.636 186.511,206.637 187.007,206.637 187.502,206.638 187.997,206.638 188.492,206.639 188.988,206.639 189.483,206.639 189.978,206.640 190.474,206.640 190.969,206.641 191.464,206.641 191.959,206.642 192.455,206.642 192.950,206.642 193.445,206.643 193.941,206.643 194.436,206.644 194.931,206.644 195.426,206.644 195.922,206.645 196.417,206.645 196.912,206.645 197.408,206.646 197.903,206.646 198.398,206.647 198.893,206.647 199.389,206.647 199.884,206.648 200.379,206.648 200.875,206.649 201.370,206.649 201.865,206.649 202.360,206.650 202.856,206.650 203.351,206.650 203.846,206.651 204.342,206.651 204.837,206.652 205.332,206.652 205.827,206.652 206.323,206.653 206.818,206.653 207.313,206.653 207.809,206.654 208.304,206.654 208.799,206.655 209.294,206.655 209.790,206.655 210.285,206.656 210.780,206.656 211.276,206.656 211.771,206.657 212.266,206.657 212.761,206.657 213.257,206.658 213.752,206.658 214.247,206.659 214.743,206.659 215.238,206.659 215.733,206.660 216.228,206.660 216.724,206.660 217.219,206.661 217.714,206.661 218.210,206.661 218.705,206.662 219.200,206.662 219.695,206.663 220.191,206.663 220.686,206.663 221.181,206.664 221.676,206.664 222.172,206.664 222.667,206.665 223.162,206.665 223.658,206.666 224.153,206.666 224.648,206.666 225.143,206.667 225.639,206.667 226.134,206.667 226.629,206.668 227.125,206.668 227.620,206.668 228.115,206.669 228.610,206.669 229.106,206.670 229.601,206.670 230.096,206.670 230.592,206.671 231.087,206.671 231.582,206.671 232.077,206.672 232.573,206.672 233.068,206.672 233.563,206.673 234.059,206.673 234.554,206.673 235.049,206.674 235.544,206.674 236.040,206.675 236.535,206.675 237.030,206.675 237.526,206.676 238.021,206.676 238.516,206.676 239.011,206.677 239.507,206.677 240.002,206.677 240.497,206.678 240.993,206.678 241.488,206.679 241.983,206.679 242.478,206.679 242.974,206.680 243.469,206.680 243.964,206.680 244.460,206.681 244.955,206.681 245.450,206.681 245.945,206.682 246.441,206.682 246.936,206.683 247.431,206.683 247.927,206.683 248.422,206.684 248.917,206.684 249.412,206.684 249.908,206.685 250.403,206.685 250.898,206.685 251.394,206.686 251.889,206.686 252.384,206.687 252.879,206.687 253.375,206.687 253.870,206.688 254.365,206.688 254.861,206.688 255.356,206.689 255.851,206.689 256.346,206.689 256.842,206.690 257.337,206.690 257.832,206.691 258.328,206.691 258.823,206.691 259.318,206.692 259.813,206.692 260.309,206.692 260.804,206.693 261.299,206.693 261.795,206.693 262.290,206.694 262.785,206.694 263.280,206.695 263.776,206.695 264.271,206.695 264.766,206.696 265.262,206.696 265.757,206.696 266.252,206.697 266.747,206.697 267.243,206.697 267.738,206.698 268.233,206.698 268.729,206.699 269.224,206.699 269.719,206.699 270.214,206.700 270.710,206.700 271.205,206.700 271.700,206.701 272.195,206.701 272.691,206.701 273.186,206.702 273.681,206.702 274.177,206.703 274.672,206.703 275.167,206.703 275.662,206.704 276.158,206.704 276.653,206.704 277.148,206.705 277.644,206.705 278.139,206.705 278.634,206.706 279.129,206.706 279.625,206.706 280.120,206.707 280.615,206.707 281.111,206.708 281.606,206.708 282.101,206.708 282.596,206.709 283.092,206.709 283.587,206.709 284.082,206.710 284.578,206.710 285.073,206.710 285.568,206.711 286.063,206.711 286.559,206.712 287.054,206.712 287.549,206.712 288.045,206.713 288.540,206.713 289.035,206.713 289.530,206.714 290.026,206.714 290.521,206.714 291.016,206.715 291.512,206.715 292.007,206.716 292.502,206.716 292.997,206.716 293.493,206.717 293.988,206.717 294.483,206.717 294.979,206.718 295.474,206.718 295.969,206.718 296.464,206.719 296.960,206.719 297.455,206.720 297.950,206.720 298.446,206.720 298.941,206.721 299.436,206.721 299.931,206.721 300.427,206.722 300.922,206.722 301.417,206.722 301.913,206.723 302.408,206.723 302.903,206.724 303.398,206.724 303.894,206.724 304.389,206.725 304.884,206.725 305.380,206.725 305.875,206.726 306.370,206.726 306.865,206.726 307.361,206.727 307.856,206.727 308.351,206.728 308.847,206.728 309.342,206.728 309.837,206.729 310.332,206.729 310.828,206.729 311.323,206.730 311.818,206.730 312.314,206.730 312.809,206.731 313.304,206.731 313.799,206.732 314.295,206.732 314.790,206.732 315.285,206.733 315.781,206.733 316.276,206.733 316.771,206.734 317.266,206.734 317.762,206.734 318.257,206.735 318.752,206.735 319.248,206.736 319.743,206.736 320.238,206.736 320.733,206.737 321.229,206.737 321.724,206.737 322.219,206.738 322.714,206.738 323.210,206.738 323.705,206.739 324.200,206.739 324.696,206.739 325.191,206.740 325.686,206.740 326.181,206.741 326.677,206.741 327.172,206.741 327.667,206.742 328.163,206.742 328.658,206.742 329.153,206.743 329.648,206.743 330.144,206.743 330.639,206.744 331.134,206.744 331.630,206.745 332.125,206.745 332.620,206.745 333.115,206.746 333.611,206.746 334.106,206.746 334.601,206.747 335.097,206.747 335.592,206.747 336.087,206.748 336.582,206.748 337.078,206.749 337.573,206.749 338.068,206.749 338.564,206.750 339.059,206.750 339.554,206.750 340.049,206.751 340.545,206.751 341.040,206.751 341.535,206.752 342.031,206.752 342.526,206.753 343.021,206.753 343.516,206.753 344.012,206.754 344.507,206.754 345.002,206.754 345.498,206.755 345.993,206.755 346.488,206.755 346.983,206.756 347.479,206.756 347.974,206.757 348.469,206.757 348.965,206.757 349.460,206.758 349.955,206.758 350.450,206.758 350.946,206.759 351.441,206.759 351.936,206.759 352.432,206.760 352.927,206.760 353.422,206.761 353.917,206.761 354.413,206.761 354.908,206.762 355.403,206.762 355.899,206.762 356.394,206.763 356.889,206.763 357.384,206.763 357.880,206.764 358.375,206.764 358.870,206.765 359.366,206.765 359.861,206.765 360.356,206.766 360.851,206.766 361.347,206.766 361.842,206.767 362.337,206.767 362.833,206.767 363.328,206.768 363.823,206.768 364.318,206.768 364.814,206.769 365.309,206.769 365.804,206.770 366.300,206.770 366.795,206.770 367.290,206.771 367.785,206.771 368.281,206.771 368.776,206.772 369.271,206.772 369.767,206.772 370.262,206.773 370.757,206.773 371.252,206.774 371.748,206.774 372.243,206.774 372.738,206.775 373.234,206.775 373.729,206.775 374.224,206.776 374.719,206.776 375.215,206.776 375.710,206.777 376.205,206.777 376.700,206.778 377.196,206.778 377.691,206.778 378.186,206.779 378.682,206.779 379.177,206.779 379.672,206.780 380.167,206.780 380.663,206.780 381.158,206.781 381.653,206.781 382.149,206.782 382.644,206.782 383.139,206.782 383.634,206.783 384.130,206.783 384.625,206.783 385.120,206.784 385.616,206.784 386.111,206.784 386.606,206.785 387.101,206.785 387.597,206.786 388.092,206.786 388.587,206.786 389.083,206.787 389.578,206.787 390.073,206.787 390.568,206.788 391.064,206.788 391.559,206.788 392.054,206.789 392.550,206.789 393.045,206.790 393.540,206.790 394.035,206.790 394.531,206.791 395.026,206.791 395.521,206.791 396.017,206.792 396.512,206.792 397.007,206.792 397.502,206.793 397.998,206.793 398.493,206.793 398.988,206.794 399.484,206.794 399.979,206.795 400.474,206.795 400.969,206.795 401.465,206.796 401.960,206.796 402.455,206.796 402.951,206.797 403.446,206.797 403.941,206.797 404.436,206.798 404.932,206.798 405.427,206.799 405.922,206.799 406.418,206.799 406.913,206.800 407.408,206.800 407.903,206.800 408.399,206.801 408.894,206.801 409.389,206.801 409.885,206.802 410.380,206.802 410.875,206.803 411.370,206.803 411.866,206.803 412.361,206.804 412.856,206.804 413.352,206.804 413.847,206.805 414.342,206.805 414.837,206.805 415.333,206.806 415.828,206.806 416.323,206.807 416.819,206.807 417.314,206.807 417.809,206.808 418.304,206.808 418.800,206.808 419.295,206.809 419.790,206.809 420.286,206.809 420.781,206.810 421.276,206.810 421.771,206.811 422.267,206.811 422.762,206.811 423.257,206.812 423.753,206.812 424.248,206.812 424.743,206.813 425.238,206.813 425.734,206.813 426.229,206.814 426.724,206.814 427.219,206.815 427.715,206.815 428.210,206.815 428.705,206.816 429.201,206.816 429.696,206.816 430.191,206.817 430.686,206.817 431.182,206.817 431.677,206.818 432.172,206.818 432.668,206.819 433.163,206.819 433.658,206.819 434.153,206.820 434.649,206.820 435.144,206.820 435.639,206.821 436.135,206.821 436.630,206.821 437.125,206.822 437.620,206.822 438.116,206.822 438.611,206.823 439.106,206.823 439.602,206.824 440.097,206.824 440.592,206.824 441.087,206.825 441.583,206.825 442.078,206.825 442.573,206.826 443.069,206.826 443.564,206.826 444.059,206.827 444.554,206.827 445.050,206.828 445.545,206.828 446.040,206.828 446.536,206.829 447.031,206.829 447.526,206.829 448.021,206.830 448.517,206.830 449.012,206.830 449.507,206.831 450.003,206.831 450.498,206.832 450.993,206.832 451.488,206.832 451.984,206.833 452.479,206.833 452.974,206.833 453.470,206.834 453.965,206.834 454.460,206.834 454.955,206.835 455.451,206.835 455.946,206.836 456.441,206.836 456.937,206.836 457.432,206.837 457.927,206.837 458.422,206.837 458.918,206.838 459.413,206.838 459.908,206.838 460.404,206.839 460.899,206.839 461.394,206.840 461.889,206.840 462.385,206.840 462.880,206.841 463.375,206.841 463.871,206.841 464.366,206.842 464.861,206.842 465.356,206.842 465.852,206.843 466.347,206.843 466.842,206.844 467.338,206.844 467.833,206.844 468.328,206.845 468.823,206.845 469.319,206.845 469.814,206.846 470.309,206.846 470.805,206.846 471.300,206.847 471.795,206.847 472.290,206.847 472.786,206.848 473.281,206.848 473.776,206.849 474.272,206.849 474.767,206.849 475.262,206.850 475.757,206.850 476.253,206.850 476.748,206.851 477.243,206.851 477.738,206.851 478.234,206.852 478.729,206.852 479.224,206.853 479.720,206.853 480.215,206.853 480.710,206.854 481.205,206.854 481.701,206.854 482.196,206.855 482.691,206.855 483.187,206.855 483.682,206.856 484.177,206.856 484.672,206.857 485.168,206.857 485.663,206.857 486.158,206.858 486.654,206.858 487.149,206.858 487.644,206.859 488.139,206.859 488.635,206.859 489.130,206.860 489.625,206.860 490.121,206.861 490.616,206.861 491.111,206.861 491.606,206.862 492.102,206.862 492.597,206.862 493.092,206.863 493.588,206.863 494.083,206.863 494.578,206.864 495.073,206.864 495.569,206.865 496.064,206.865 496.559,206.865 497.055,206.866 497.550,206.866 498.045,206.866 498.540,206.867 499.036,206.867 499.531,206.867 500.026,206.868 500.522,206.868 501.017,206.868 501.512,206.869 502.007,206.869 502.503,206.870 502.998,206.870 503.493,206.870 503.989,206.871 504.484,206.871 504.979,206.871 505.474,206.872 505.970,206.872 506.465,206.872 506.960,206.873 507.456,206.873 507.951,206.874 508.446,206.874 508.941,206.874 509.437,206.875 509.932,206.875 510.427,206.875 510.923,206.876 511.418,206.876 511.913,206.876 512.408,206.877 512.904,206.877 513.399,206.878 513.894,206.878 514.390,206.878 514.885,206.879 515.380,206.879 515.875,206.879 516.371,206.880 516.866,206.880 517.361,206.880 517.857,206.881 518.352,206.881 518.847,206.882 519.342,206.882 519.838,206.882 520.333,206.883 520.828,206.883 521.324,206.883 521.819,206.884 522.314,206.884 522.809,206.884 523.305,206.885 523.800,206.885 524.295,206.886 524.791,206.886 525.286,206.886 525.781,206.887 526.276,206.887 526.772,206.887 527.267,206.888 527.762,206.888 528.258,206.888 528.753,206.889 529.248,206.889 529.743,206.890 530.239,206.890 530.734,206.890 531.229,206.891 531.724,206.891 532.220,206.891 532.715,206.892 533.210,206.892 533.706,206.892 534.201,206.893 534.696,206.893 535.191,206.893 535.687,206.894 536.182,206.894 536.677,206.895 537.173,206.895 537.668,206.895 538.163,206.896 538.658,206.896 539.154,206.896 539.649,206.897 540.144,206.897 540.640,206.897 541.135,206.898 541.630,206.898 542.125,206.899 542.621,206.899 543.116,206.899 543.611,206.900 544.107,206.900 544.602,206.900 545.097,206.901 545.592,206.901 546.088,206.901 546.583,206.902 547.078,206.902 547.574,206.903 548.069,206.903 548.564,206.903 549.059,206.904 549.555,206.904 550.050,206.904 550.545,206.905 551.041,206.905 551.536,206.905 552.031,206.906 552.526,206.906 553.022,206.907 553.517,206.907 554.012,206.907 554.508,206.908 555.003,206.908 555.498,206.908 555.993,206.909 556.489,206.909 556.984,206.909 557.479,206.910 557.975,206.910 558.470,206.911 558.965,206.911 559.460,206.911 559.956,206.912 560.451,206.912 560.946,206.912 561.442,206.913 561.937,206.913 562.432,206.913 562.927,206.914 563.423,206.914 563.918,206.914 564.413,206.915 564.909,206.915 565.404,206.916 565.899,206.916 566.394,206.916 566.890,206.917 567.385,206.917 567.880,206.917 568.376,206.918 568.871,206.918 569.366,206.918 569.861,206.919 570.357,206.919 570.852,206.920 571.347,206.920 571.843,206.920 572.338,206.921 572.833,206.921 573.328,206.921 573.824,206.922 574.319,206.922 574.814,206.922 575.310,206.923 575.805,206.923 576.300,206.924 576.795,206.924 577.291,206.924 577.786,206.925 "/>
<g>
</g>
</g>
<g id="ID000006" clip-path="url(#ID000001)" >
      <polyline fill="none" stroke="#000000" stroke-width="0.5pt" stroke-dasharray="2.0,2.0" points="82.997,25.312 83.492,103.089 83.987,147.491 84.483,172.840 84.978,187.312 85.473,195.573 85.969,200.290 86.464,202.983 86.959,204.520 87.454,205.398 87.950,205.900 88.445,206.186 88.940,206.350 89.436,206.443 89.931,206.497 90.426,206.528 90.921,206.545 91.417,206.555 91.912,206.562 92.407,206.565 92.903,206.567 93.398,206.569 93.893,206.570 94.388,206.570 94.884,206.571 95.379,206.571 95.874,206.572 96.370,206.572 96.865,206.573 97.360,206.573 97.855,206.573 98.351,206.574 98.846,206.574 99.341,206.574 99.837,206.575 100.332,206.575 100.827,206.576 101.322,206.576 101.818,206.576 102.313,206.577 102.808,206.577 103.304,206.577 103.799,206.578 104.294,206.578 104.789,206.578 105.285,206.579 105.780,206.579 106.275,206.580 106.771,206.580 107.266,206.580 107.761,206.581 108.256,206.581 108.752,206.581 109.247,206.582 109.742,206.582 110.238,206.582 110.733,206.583 111.228,206.583 111.723,206.584 112.219,206.584 112.714,206.584 113.209,206.585 113.705,206.585 114.200,206.585 114.695,206.586 115.190,206.586 115.686,206.586 116.181,206.587 116.676,206.587 117.171,206.588 117.667,206.588 118.162,206.588 118.657,206.589 119.153,206.589 119.648,206.589 120.143,206.590 120.638,206.590 121.134,206.590 121.629,206.591 122.124,206.591 122.620,206.592 123.115,206.592 123.610,206.592 124.105,206.593 124.601,206.593 125.096,206.593 125.591,206.594 126.087,206.594 126.582,206.594 127.077,206.595 127.572,206.595 128.068,206.596 128.563,206.596 129.058,206.596 129.554,206.597 130.049,206.597 130.544,206.597 131.039,206.598 131.535,206.598 132.030,206.598 132.525,206.599 133.021,206.599 133.516,206.600 134.011,206.600 134.506,206.600 135.002,206.601 135.497,206.601 135.992,206.601 136.488,206.602 136.983,206.602 137.478,206.602 137.973,206.603 138.469,206.603 138.964,206.603 139.459,206.604 139.955,206.604 140.450,206.605 140.945,206.605 141.440,206.605 141.936,206.606 142.431,206.606 142.926,206.606 143.422,206.607 143.917,206.607 144.412,206.607 144.907,206.608 145.403,206.608 145.898,206.609 146.393,206.609 146.889,206.609 147.384,206.610 147.879,206.610 148.374,206.610 148.870,206.611 149.365,206.611 149.860,206.611 150.356,206.612 150.851,206.612 151.346,206.613 151.841,206.613 152.337,206.613 152.832,206.614 153.327,206.614 153.823,206.614 154.318,206.615 154.813,206.615 155.308,206.615 155.804,206.616 156.299,206.616 156.794,206.617 157.290,206.617 157.785,206.617 158.280,206.618 158.775,206.618 159.271,206.618 159.766,206.619 160.261,206.619 160.757,206.619 161.252,206.620 161.747,206.620 162.242,206.621 162.738,206.621 163.233,206.621 163.728,206.622 164.224,206.622 164.719,206.622 165.214,206.623 165.709,206.623 166.205,206.623 166.700,206.624 167.195,206.624 167.690,206.625 168.186,206.625 168.681,206.625 169.176,206.626 169.672,206.626 170.167,206.626 170.662,206.627 171.157,206.627 171.653,206.627 172.148,206.628 172.643,206.628 173.139,206.629 173.634,206.629 174.129,206.629 174.624,206.630 175.120,206.630 175.615,206.630 176.110,206.631 176.606,206.631 177.101,206.631 177.596,206.632 178.091,206.632 178.587,206.633 179.082,206.633 179.577,206.633 180.073,206.634 180.568,206.634 181.063,206.634 181.558,206.635 182.054,206.635 182.549,206.635 183.044,206.636 183.540,206.636 184.035,206.637 184.530,206.637 185.025,206.637 185.521,206.638 186.016,206.638 186.511,206.638 187.007,206.639 187.502,206.639 187.997,206.639 188.492,206.640 188.988,206.640 189.483,206.640 189.978,206.641 190.474,206.641 190.969,206.642 191.464,206.642 191.959,206.642 192.455,206.643 192.950,206.643 193.445,206.643 193.941,206.644 194.436,206.644 194.931,206.644 195.426,206.645 195.922,206.645 196.417,206.646 196.912,206.646 197.408,206.646 197.903,206.647 198.398,206.647 198.893,206.647 199.389,206.648 199.884,206.648 200.379,206.648 200.875,206.649 201.370,206.649 201.865,206.650 202.360,206.650 202.856,206.650 203.351,206.651 203.846,206.651 204.342,206.651 204.837,206.652 205.332,206.652 205.827,206.652 206.323,206.653 206.818,206.653 207.313,206.654 207.809,206.654 208.304,206.654 208.799,206.655 209.294,206.655 209.790,206.655 210.285,206.656 210.780,206.656 211.276,206.656 211.771,206.657 212.266,206.657 212.761,206.658 213.257,206.658 213.752,206.658 214.247,206.659 214.743,206.659 215.238,206.659 215.733,206.660 216.228,206.660 216.724,206.660 217.219,206.661 217.714,206.661 218.210,206.662 218.705,206.662 219.200,206.662 219.695,206.663 220.191,206.663 220.686,206.663 221.181,206.664 221.676,206.664 222.172,206.664 222.667,206.665 223.162,206.665 223.658,206.666 224.153,206.666 224.648,206.666 225.143,206.667 225.639,206.667 226.134,206.667 226.629,206.668 227.125,206.668 227.620,206.668 228.115,206.669 228.610,206.669 229.106,206.670 229.601,206.670 230.096,206.670 230.592,206.671 231.087,206.671 231.582,206.671 232.077,206.672 232.573,206.672 233.068,206.672 233.563,206.673 234.059,206.673 234.554,206.674 235.049,206.674 235.544,206.674 236.040,206.675 236.535,206.675 237.030,206.675 237.526,206.676 238.021,206.676 238.516,206.676 239.011,206.677 239.507,206.677 240.002,206.677 240.497,206.678 240.993,206.678 241.488,206.679 241.983,206.679 242.478,206.679 242.974,206.680 243.469,206.680 243.964,206.680 244.460,206.681 244.955,206.681 245.450,206.681 245.945,206.682 246.441,206.682 246.936,206.683 247.431,206.683 247.927,206.683 248.422,206.684 248.917,206.684 249.412,206.684 249.908,206.685 250.403,206.685 250.898,206.685 251.394,206.686 251.889,206.686 252.384,206.687 252.879,206.687 253.375,206.687 253.870,206.688 254.365,206.688 254.861,206.688 255.356,206.689 255.851,206.689 256.346,206.689 256.842,206.690 257.337,206.690 257.832,206.691 258.328,206.691 258.823,206.691 259.318,206.692 259.813,206.692 260.309,206.692 260.804,206.693 261.299,206.693 261.795,206.693 262.290,206.694 262.785,206.694 263.280,206.695 263.776,206.695 264.271,206.695 264.766,206.696 265.262,206.696 265.757,206.696 266.252,206.697 266.747,206.697 267.243,206.697 267.738,206.698 268.233,206.698 268.729,206.699 269.224,206.699 269.719,206.699 270.214,206.700 270.710,206.700 271.205,206.700 271.700,206.701 272.195,206.701 272.691,206.701 273.186,206.702 273.681,206.702 274.177,206.703 274.672,206.703 275.167,206.703 275.662,206.704 276.158,206.704 276.653,206.704 277.148,206.705 277.644,206.705 278.139,206.705 278.634,206.706 279.129,206.706 279.625,206.706 280.120,206.707 280.615,206.707 281.111,206.708 281.606,206.708 282.101,206.708 282.596,206.709 283.092,206.709 283.587,206.709 284.082,206.710 284.578,206.710 285.073,206.710 285.568,206.711 286.063,206.711 286.559,206.712 287.054,206.712 287.549,206.712 288.045,206.713 288.540,206.713 289.035,206.713 289.530,206.714 290.026,206.714 290.521,206.714 291.016,206.715 291.512,206.715 292.007,206.716 292.502,206.716 292.997,206.716 293.493,206.717 293.988,206.717 294.483,206.717 294.979,206.718 295.474,206.718 295.969,206.718 296.464,206.719 296.960,206.719 297.455,206.720 297.950,206.720 298.446,206.720 298.941,206.721 299.436,206.721 299.931,206.721 300.427,206.722 300.922,206.722 301.417,206.722 301.913,206.723 302.408,206.723 302.903,206.724 303.398,206.724 303.894,206.724 304.389,206.725 304.884,206.725 305.380,206.725 305.875,206.726 306.370,206.726 306.865,206.726 307.361,206.727 307.856,206.727 308.351,206.728 308.847,206.728 309.342,206.728 309.837,206.729 310.332,206.729 310.828,206.729 311.323,206.730 311.818,206.730 312.314,206.730 312.809,206.731 313.304,206.731 313.799,206.732 314.295,206.732 314.790,206.732 315.285,206.733 315.781,206.733 316.276,206.733 316.771,206.734 317.266,206.734 317.762,206.734 318.257,206.735 318.752,206.735 319.248,206.736 319.743,206.736 320.238,206.736 320.733,206.737 321.229,206.737 321.724,206.737 322.219,206.738 322.714,206.738 323.210,206.738 323.705,206.739 324.200,206.739 324.696,206.739 325.191,206.740 325.686,206.740 326.181,206.741 326.677,206.741 327.172,206.741 327.667,206.742 328.163,206.742 328.658,206.742 329.153,206.743 329.648,206.743 330.144,206.743 330.639,206.744 331.134,206.744 331.630,206.745 332.125,206.745 332.620,206.745 333.115,206.746 333.611,206.746 334.106,206.746 334.601,206.747 335.097,206.747 335.592,206.747 336.087,206.748 336.582,206.748 337.078,206.749 337.573,206.749 338.068,206.749 338.564,206.750 339.059,206.750 339.554,206.750 340.049,206.751 340.545,206.751 341.040,206.751 341.535,206.752 342.031,206.752 342.526,206.753 343.021,206.753 343.516,206.753 344.012,206.754 344.507,206.754 345.002,206.754 345.498,206.755 345.993,206.755 346.488,206.755 346.983,206.756 347.479,206.756 347.974,206.757 348.469,206.757 348.965,206.757 349.460,206.758 349.955,206.758 350.450,206.758 350.946,206.759 351.441,206.759 351.936,206.759 352.432,206.760 352.927,206.760 353.422,206.761 353.917,206.761 354.413,206.761 354.908,206.762 355.403,206.762 355.899,206.762 356.394,206.763 356.889,206.763 357.384,206.763 357.880,206.764 358.375,206.764 358.870,206.765 359.366,206.765 359.861,206.765 360.356,206.766 360.851,206.766 361.347,206.766 361.842,206.767 362.337,206.767 362.833,206.767 363.328,206.768 363.823,206.768 364.318,206.768 364.814,206.769 365.309,206.769 365.804,206.770 366.300,206.770 366.795,206.770 367.290,206.771 367.785,206.771 368.281,206.771 368.776,206.772 369.271,206.772 369.767,206.772 370.262,206.773 370.757,206.773 371.252,206.774 371.748,206.774 372.243,206.774 372.738,206.775 373.234,206.775 373.729,206.775 374.224,206.776 374.719,206.776 375.215,206.776 375.710,206.777 376.205,206.777 376.700,206.778 377.196,206.778 377.691,206.778 378.186,206.779 378.682,206.779 379.177,206.779 379.672,206.780 380.167,206.780 380.663,206.780 381.158,206.781 381.653,206.781 382.149,206.782 382.644,206.782 383.139,206.782 383.634,206.783 384.130,206.783 384.625,206.783 385.120,206.784 385.616,206.784 386.111,206.784 386.606,206.785 387.101,206.785 387.597,206.786 388.092,206.786 388.587,206.786 389.083,206.787 389.578,206.787 390.073,206.787 390.568,206.788 391.064,206.788 391.559,206.788 392.054,206.789 392.550,206.789 393.045,206.790 393.540,206.790 394.035,206.790 394.531,206.791 395.026,206.791 395.521,206.791 396.017,206.792 396.512,206.792 397.007,206.792 397.502,206.793 397.998,206.793 398.493,206.793 398.988,206.794 399.484,206.794 399.979,206.795 400.474,206.795 400.969,206.795 401.465,206.796 401.960,206.796 402.455,206.796 402.951,206.797 403.446,206.797 403.941,206.797 404.436,206.798 404.932,206.798 405.427,206.799 405.922,206.799 406.418,206.799 406.913,206.800 407.408,206.800 407.903,206.800 408.399,206.801 408.894,206.801 409.389,206.801 409.885,206.802 410.380,206.802 410.875,206.803 411.370,206.803 411.866,206.803 412.361,206.804 412.856,206.804 413.352,206.804 413.847,206.805 414.342,206.805 414.837,206.805 415.333,206.806 415.828,206.806 416.323,206.807 416.819,206.807 417.314,206.807 417.809,206.808 418.304,206.808 418.800,206.808 419.295,206.809 419.790,206.809 420.286,206.809 420.781,206.810 421.276,206.810 421.771,206.811 422.267,206.811 422.762,206.811 423.257,206.812 423.753,206.812 424.248,206.812 424.743,206.813 425.238,206.813 425.734,206.813 426.229,206.814 426.724,206.814 427.219,206.815 427.715,206.815 428.210,206.815 428.705,206.816 429.201,206.816 429.696,206.816 430.191,206.817 430.686,206.817 431.182,206.817 431.677,206.818 432.172,206.818 432.668,206.819 433.163,206.819 433.658,206.819 434.153,206.820 434.649,206.820 435.144,206.820 435.639,206.821 436.135,206.821 436.630,206.821 437.125,206.822 437.620,206.822 438.116,206.822 438.611,206.823 439.106,206.823 439.602,206.824 440.097,206.824 440.592,206.824 441.087,206.825 441.583,206.825 442.078,206.825 442.573,206.826 443.069,206.826 443.564,206.826 444.059,206.827 444.554,206.827 445.050,206.828 445.545,206.828 446.040,206.828 446.536,206.829 447.031,206.829 447.526,206.829 448.021,206.830 448.517,206.830 449.012,206.830 449.507,206.831 450.003,206.831 450.498,206.832 450.993,206.832 451.488,206.832 451.984,206.833 452.479,206.833 452.974,206.833 453.470,206.834 453.965,206.834 454.460,206.834 454.955,206.835 455.451,206.835 455.946,206.836 456.441,206.836 456.937,206.836 457.432,206.837 457.927,206.837 458.422,206.837 458.918,206.838 459.413,206.838 459.908,206.838 460.404,206.839 460.899,206.839 461.394,206.840 461.889,206.840 462.385,206.840 462.880,206.841 463.375,206.841 463.871,206.841 464.366,206.842 464.861,206.842 465.356,206.842 465.852,206.843 466.347,206.843 466.842,206.844 467.338,206.844 467.833,206.844 468.328,206.845 468.823,206.845 469.319,206.845 469.814,206.846 470.309,206.846 470.805,206.846 471.300,206.847 471.795,206.847 472.290,206.847 472.786,206.848 473.281,206.848 473.776,206.849 474.272,206.849 474.767,206.849 475.262,206.850 475.757,206.850 476.253,206.850 476.748,206.851 477.243,206.851 477.738,206.851 478.234,206.852 478.729,206.852 479.224,206.853 479.720,206.853 480.215,206.853 480.710,206.854 481.205,206.854 481.701,206.854 482.196,206.855 482.691,206.855 483.187,206.855 483.682,206.856 484.177,206.856 484.672,206.857 485.168,206.857 485.663,206.857 486.158,206.858 486.654,206.858 487.149,206.858 487.644,206.859 488.139,206.859 488.635,206.859 489.130,206.860 489.625,206.860 490.121,206.861 490.616,206.861 491.111,206.861 491.606,206.862 492.102,206.862 492.597,206.862 493.092,206.863 493.588,206.863 494.083,206.863 494.578,206.864 495.073,206.864 495.569,206.865 496.064,206.865 496.559,206.865 497.055,206.866 497.550,206.866 498.045,206.866 498.540,206.867 499.036,206.867 499.531,206.867 500.026,206.868 500.522,206.868 501.017,206.868 501.512,206.869 502.007,206.869 502.503,206.870 502.998,206.870 503.493,206.870 503.989,206.871 504.484,206.871 504.979,206.871 505.474,206.872 505.970,206.872 506.465,206.872 506.960,206.873 507.456,206.873 507.951,206.874 508.446,206.874 508.941,206.874 509.437,206.875 509.932,206.875 510.427,206.875 510.923,206.876 511.418,206.876 511.913,206.876 512.408,206.877 512.904,206.877 513.399,206.878 513.894,206.878 514.390,206.878 514.885,206.879 515.380,206.879 515.875,206.879 516.371,206.880 516.866,206.880 517.361,206.880 517.857,206.881 518.352,206.881 518.847,206.882 519.342,206.882 519.838,206.882 520.333,206.883 520.828,206.883 521.324,206.883 521.819,206.884 522.314,206.884 522.809,206.884 523.305,206.885 523.800,206.885 524.295,206.886 524.791,206.886 525.286,206.886 525.781,206.887 526.276,206.887 526.772,206.887 527.267,206.888 527.762,206.888 528.258,206.888 528.753,206.889 529.248,206.889 529.743,206.890 530.239,206.890 530.734,206.890 531.229,206.891 531.724,206.891 532.220,206.891 532.715,206.892 533.210,206.892 533.706,206.892 534.201,206.893 534.696,206.893 535.191,206.893 535.687,206.894 536.182,206.894 536.677,206.895 537.173,206.895 537.668,206.895 538.163,206.896 538.658,206.896 539.154,206.896 539.649,206.897 540.144,206.897 540.640,206.897 541.135,206.898 541.630,206.898 542.125,206.899 542.621,206.899 543.116,206.899 543.611,206.900 544.107,206.900 544.602,206.900 545.097,206.901 545.592,206.901 546.088,206.901 546.583,206.902 547.078,206.902 547.574,206.903 548.069,206.903 548.564,206.903 549.059,206.904 549.555,206.904 550.050,206.904 550.545,206.905 551.041,206.905 551.536,206.905 552.031,206.906 552.526,206.906 553.022,206.907 553.517,206.907 554.012,206.907 554.508,206.908 555.003,206.908 555.498,206.908 555.993,206.909 556.489,206.909 556.984,206.909 557.479,206.910 557.975,206.910 558.470,206.911 558.965,206.911 559.460,206.911 559.956,206.912 560.451,206.912 560.946,206.912 561.442,206.913 561.937,206.913 562.432,206.913 562.927,206.914 563.423,206.914 563.918,206.914 564.413,206.915 564.909,206.915 565.404,206.916 565.899,206.916 566.394,206.916 566.890,206.917 567.385,206.917 567.880,206.917 568.376,206.918 568.871,206.918 569.366,206.918 569.861,206.919 570.357,206.919 570.852,206.920 571.347,206.920 571.843,206.920 572.338,206.921 572.833,206.921 573.328,206.921 573.824,206.922 574.319,206.922 574.814,206.922 575.310,206.923 575.805,206.923 576.300,206.924 576.795,206.924 577.291,206.924 577.786,206.925 "/>
<g>
</g>
</g>
<g id="ID000007" >
  <g transform="translate(330.391,15.469)">
    <g transform="rotate(-0.0)">
      <text x="0.000" y="0.000" font-family="Times New Roman" text-anchor="middle" font-size="11pt" fill="#000000" >$rho_{1} = -1.0\$ $</text>
    </g>
  </g>
</g>
<g id="ID000008" >
</g>
<g id="ID000009" >
</g>
    </g>
    <g>
      <polyline fill="none" stroke="#000000" stroke-width="0.5pt" stroke-dasharray="none" points="144.846,242.813 144.846,237.865 "/>
      <polyline fill="none" stroke="#000000" stroke-width="0.5pt" stroke-dasharray="none" points="206.694,242.813 206.694,237.865 "/>
      <polyline fill="none" stroke="#000000" stroke-width="0.5pt" stroke-dasharray="none" points="268.543,242.813 268.543,237.865 "/>
      <polyline fill="none" stroke="#000000" stroke-width="0.5pt" stroke-dasharray="none" points="330.391,242.813 330.391,237.865 "/>
      <polyline fill="none" stroke="#000000" stroke-width="0.5pt" stroke-dasharray="none" points="392.240,242.813 392.240,237.865 "/>
      <polyline fill="none" stroke="#000000" stroke-width="0.5pt" stroke-dasharray="none" points="454.089,242.813 454.089,237.865 "/>
      <polyline fill="none" stroke="#000000" stroke-width="0.5pt" stroke-dasharray="none" points="515.937,242.813 515.937,237.865 "/>
      <polyline fill="none" stroke="#000000" stroke-width="0.5pt" stroke-dasharray="none" points="82.997,242.813 577.786,242.813 "/>
      <polyline fill="none" stroke="#000000" stroke-width="0.5pt" stroke-dasharray="none" points="144.846,25.312 144.846,30.260 "/>
      <polyline fill="none" stroke="#000000" stroke-width="0.5pt" stroke-dasharray="none" points="206.694,25.312 206.694,30.260 "/>
      <polyline fill="none" stroke="#000000" stroke-width="0.5pt" stroke-dasharray="none" points="268.543,25.312 268.543,30.260 "/>
      <polyline fill="none" stroke="#000000" stroke-width="0.5pt" stroke-dasharray="none" points="330.391,25.312 330.391,30.260 "/>
      <polyline fill="none" stroke="#000000" stroke-width="0.5pt" stroke-dasharray="none" points="392.240,25.312 392.240,30.260 "/>
      <polyline fill="none" stroke="#000000" stroke-width="0.5pt" stroke-dasharray="none" points="454.089,25.312 454.089,30.260 "/>
      <polyline fill="none" stroke="#000000" stroke-width="0.5pt" stroke-dasharray="none" points="515.937,25.312 515.937,30.260 "/>
      <polyline fill="none" stroke="#000000" stroke-width="0.5pt" stroke-dasharray="none" points="82.997,25.312 577.786,25.312 "/>
  <g transform="translate(82.997,260.438)">
    <g transform="rotate(-0.0)">
      <text x="0.000" y="0.000" font-family="Times New Roman" text-anchor="middle" font-size="11pt" fill="#000000" >0</text>
    </g>
  </g>
  <g transform="translate(144.846,260.438)">
    <g transform="rotate(-0.0)">
      <text x="0.000" y="0.000" font-family="Times New Roman" text-anchor="middle" font-size="11pt" fill="#000000" >0.005</text>
    </g>
  </g>
  <g transform="translate(206.694,260.438)">
    <g transform="rotate(-0.0)">
      <text x="0.000" y="0.000" font-family="Times New Roman" text-anchor="middle" font-size="11pt" fill="#000000" >0.01</text>
    </g>
  </g>
  <g transform="translate(268.543,260.438)">
    <g transform="rotate(-0.0)">
      <text x="0.000" y="0.000" font-family="Times New Roman" text-anchor="middle" font-size="11pt" fill="#000000" >0.015</text>
    </g>
  </g>
  <g transform="translate(330.391,260.438)">
    <g transform="rotate(-0.0)">
      <text x="0.000" y="0.000" font-family="Times New Roman" text-anchor="middle" font-size="11pt" fill="#000000" >0.02</text>
    </g>
  </g>
  <g transform="translate(392.240,260.438)">
    <g transform="rotate(-0.0)">
      <text x="0.000" y="0.000" font-family="Times New Roman" text-anchor="middle" font-size="11pt" fill="#000000" >0.025</text>
    </g>
  </g>
  <g transform="translate(454.089,260.438)">
    <g transform="rotate(-0.0)">
      <text x="0.000" y="0.000" font-family="Times New Roman" text-anchor="middle" font-size="11pt" fill="#000000" >0.03</text>
    </g>
  </g>
  <g transform="translate(515.937,260.438)">
    <g transform="rotate(-0.0)">
      <text x="0.000" y="0.000" font-family="Times New Roman" text-anchor="middle" font-size="11pt" fill="#000000" >0.035</text>
    </g>
  </g>
  <g transform="translate(577.786,260.438)">
    <g transform="rotate(-0.0)">
      <text x="0.000" y="0.000" font-family="Times New Roman" text-anchor="middle" font-size="11pt" fill="#000000" >0.04</text>
    </g>
  </g>
      <polyline fill="none" stroke="#000000" stroke-width="0.5pt" stroke-dasharray="none" points="82.997,206.563 87.945,206.563 "/>
      <polyline fill="none" stroke="#000000" stroke-width="0.5pt" stroke-dasharray="none" points="82.997,170.313 87.945,170.313 "/>
      <polyline fill="none" stroke="#000000" stroke-width="0.5pt" stroke-dasharray="none" points="82.997,134.063 87.945,134.063 "/>
      <polyline fill="none" stroke="#000000" stroke-width="0.5pt" stroke-dasharray="none" points="82.997,97.812 87.945,97.812 "/>
      <polyline fill="none" stroke="#000000" stroke-width="0.5pt" stroke-dasharray="none" points="82.997,61.563 87.945,61.563 "/>
      <polyline fill="none" stroke="#000000" stroke-width="0.5pt" stroke-dasharray="none" points="82.997,242.813 82.997,25.312 "/>
      <polyline fill="none" stroke="#000000" stroke-width="0.5pt" stroke-dasharray="none" points="577.786,206.563 572.838,206.563 "/>
      <polyline fill="none" stroke="#000000" stroke-width="0.5pt" stroke-dasharray="none" points="577.786,170.313 572.838,170.313 "/>
      <polyline fill="none" stroke="#000000" stroke-width="0.5pt" stroke-dasharray="none" points="577.786,134.063 572.838,134.063 "/>
      <polyline fill="none" stroke="#000000" stroke-width="0.5pt" stroke-dasharray="none" points="577.786,97.812 572.838,97.812 "/>
      <polyline fill="none" stroke="#000000" stroke-width="0.5pt" stroke-dasharray="none" points="577.786,61.563 572.838,61.563 "/>
      <polyline fill="none" stroke="#000000" stroke-width="0.5pt" stroke-dasharray="none" points="577.786,242.813 577.786,25.312 "/>
  <g transform="translate(73.101,247.875)">
    <g transform="rotate(-0.0)">
      <text x="0.000" y="0.000" font-family="Times New Roman" text-anchor="end" font-size="11pt" fill="#000000" >0.4</text>
    </g>
  </g>
  <g transform="translate(73.101,211.625)">
    <g transform="rotate(-0.0)">
      <text x="0.000" y="0.000" font-family="Times New Roman" text-anchor="end" font-size="11pt" fill="#000000" >0.5</text>
    </g>
  </g>
  <g transform="translate(73.101,175.375)">
    <g transform="rotate(-0.0)">
      <text x="0.000" y="0.000" font-family="Times New Roman" text-anchor="end" font-size="11pt" fill="#000000" >0.6</text>
    </g>
  </g>
  <g transform="translate(73.101,139.125)">
    <g transform="rotate(-0.0)">
      <text x="0.000" y="0.000" font-family="Times New Roman" text-anchor="end" font-size="11pt" fill="#000000" >0.7</text>
    </g>
  </g>
  <g transform="translate(73.101,102.875)">
    <g transform="rotate(-0.0)">
      <text x="0.000" y="0.000" font-family="Times New Roman" text-anchor="end" font-size="11pt" fill="#000000" >0.8</text>
    </g>
  </g>
  <g transform="translate(73.101,66.625)">
    <g transform="rotate(-0.0)">
      <text x="0.000" y="0.000" font-family="Times New Roman" text-anchor="end" font-size="11pt" fill="#000000" >0.9</text>
    </g>
  </g>
  <g transform="translate(73.101,30.375)">
    <g transform="rotate(-0.0)">
      <text x="0.000" y="0.000" font-family="Times New Roman" text-anchor="end" font-size="11pt" fill="#000000" >1</text>
    </g>
  </g>
      <polyline fill="none" stroke="#000000" stroke-width="0.5pt" stroke-dasharray="none" points="82.997,242.813 82.997,240.638 "/>
      <polyline fill="none" stroke="#000000" stroke-width="0.5pt" stroke-dasharray="none" points="82.997,242.813 82.997,242.813 "/>
    </g>
  </g>
  <g id ="ID000010">
  <clipPath id="ID000011">
    <rect x="331.719" y="32.031" width="240.937" height="65.313"/>
  </clipPath>
      <polygon fill="#ffffff" fill-opacity="1.00" stroke="none" stroke-width="0.5pt" stroke-opacity="1.00" stroke-dasharray="none" points="331.719,97.344 572.656,97.344 572.656,32.031 331.719,32.031 "/>
      <polygon fill="#ffffff" fill-opacity="1.00" stroke="none" stroke-width="0.5pt" stroke-opacity="1.00" stroke-dasharray="none" points="331.719,32.031 572.656,32.031 572.656,32.031 331.719,32.031 "/>
      <polygon fill="#ffffff" fill-opacity="1.00" stroke="none" stroke-width="0.5pt" stroke-opacity="1.00" stroke-dasharray="none" points="331.719,97.344 331.719,97.344 331.719,32.031 331.719,32.031 "/>
    <g>
<g id="ID000012" >
  <g transform="translate(380.937,49.690)">
    <g transform="rotate(-0.0)">
      <text x="0.000" y="0.000" font-family="Times New Roman" text-anchor="start" font-size="11pt" fill="#000000" >$\Lambda=1\times 10^{-4}$</text>
    </g>
  </g>
</g>
<g id="ID000013" clip-path="url(#ID000011)" >
      <polyline fill="none" stroke="#000000" stroke-width="0.5pt" stroke-dasharray="none" points="339.219,44.375 376.719,44.375 "/>
<g>
</g>
</g>
<g id="ID000014" clip-path="url(#ID000011)" >
<g>
</g>
</g>
<g id="ID000015" >
  <g transform="translate(380.937,71.150)">
    <g transform="rotate(-0.0)">
      <text x="0.000" y="0.000" font-family="Times New Roman" text-anchor="start" font-size="11pt" fill="#000000" >$\Lambda=1\times 10^{-5}$</text>
    </g>
  </g>
</g>
<g id="ID000016" clip-path="url(#ID000011)" >
      <polyline fill="none" stroke="#000000" stroke-width="0.5pt" stroke-dasharray="8.0,2.0,2.0,2.0" points="339.219,64.688 376.719,64.688 "/>
<g>
</g>
</g>
<g id="ID000017" clip-path="url(#ID000011)" >
<g>
</g>
</g>
<g id="ID000018" >
  <g transform="translate(380.937,91.676)">
    <g transform="rotate(-0.0)">
      <text x="0.000" y="0.000" font-family="Times New Roman" text-anchor="start" font-size="11pt" fill="#000000" >$\Lambda=1\times 10^{-6}$</text>
    </g>
  </g>
</g>
<g id="ID000019" clip-path="url(#ID000011)" >
      <polyline fill="none" stroke="#000000" stroke-width="0.5pt" stroke-dasharray="2.0,2.0" points="339.219,85.000 376.719,85.000 "/>
<g>
</g>
</g>
<g id="ID000020" clip-path="url(#ID000011)" >
<g>
</g>
</g>
<g id="ID000021" >
</g>
<g id="ID000022" >
</g>
<g id="ID000023" >
</g>
    </g>
    <g>
      <polyline fill="none" stroke="#000000" stroke-width="0.5pt" stroke-dasharray="none" points="331.719,97.344 572.656,97.344 "/>
      <polyline fill="none" stroke="#000000" stroke-width="0.5pt" stroke-dasharray="none" points="331.719,32.031 572.656,32.031 "/>
      <polyline fill="none" stroke="#000000" stroke-width="0.5pt" stroke-dasharray="none" points="331.719,97.344 331.719,32.031 "/>
      <polyline fill="none" stroke="#000000" stroke-width="0.5pt" stroke-dasharray="none" points="572.656,97.344 572.656,32.031 "/>
      <polyline fill="none" stroke="#000000" stroke-width="0.5pt" stroke-dasharray="none" points="331.719,97.344 331.719,96.691 "/>
      <polyline fill="none" stroke="#000000" stroke-width="0.5pt" stroke-dasharray="none" points="331.719,97.344 331.719,97.344 "/>
    </g>
  </g>
  </g>
</svg>
