<?xml version="1.0" encoding="utf-8" standalone="no"?><!DOCTYPE svg PUBLIC "-//W3C//DTD SVG 1.1//EN" "http://www.w3.org/Graphics/SVG/1.1/DTD/svg11.dtd">
<svg preserveAspectRatio="xMinYMin meet" width="100%" height="100%" viewBox="0 0 638.438 284.063"  version="1.1" xmlns="http://www.w3.org/2000/svg" xmlns:xlink="http://www.w3.org/1999/xlink">
  <desc>Matlab Figure Converted by PLOT2SVG written by Juerg Schwizer</desc>
  <g id="topgroup">
  <rect x="0" y="0" width="638.438" height="284.063" fill="#ffffff" stroke="none" />
  <g id ="ID000000">
  <clipPath id="ID000001">
    <rect x="82.997" y="25.312" width="494.789" height="217.500"/>
  </clipPath>
      <polygon fill="#ffffff" fill-opacity="1.00" stroke="none" stroke-width="0.5pt" stroke-opacity="1.00" stroke-dasharray="none" points="82.997,242.812 577.786,242.812 577.786,25.312 82.997,25.312 "/>
      <polygon fill="#ffffff" fill-opacity="1.00" stroke="none" stroke-width="0.5pt" stroke-opacity="1.00" stroke-dasharray="none" points="82.997,25.312 577.786,25.312 577.786,25.312 82.997,25.312 "/>
      <polygon fill="#ffffff" fill-opacity="1.00" stroke="none" stroke-width="0.5pt" stroke-opacity="1.00" stroke-dasharray="none" points="82.997,242.812 82.997,242.812 82.997,25.312 82.997,25.312 "/>
    <g>
<g id="ID000002" clip-path="url(#ID000001)" >
      <polyline fill="none" stroke="#000000" stroke-width="0.5pt" stroke-dasharray="none" points="82.997,242.812 83.492,241.793 83.987,240.779 84.483,239.771 84.978,238.769 85.473,237.773 85.969,236.783 86.464,235.800 86.959,234.821 87.454,233.849 87.950,232.883 88.445,231.922 88.940,230.967 89.436,230.018 89.931,229.074 90.426,228.136 90.921,227.204 91.417,226.277 91.912,225.356 92.407,224.440 92.903,223.530 93.398,222.625 93.893,221.725 94.388,220.831 94.884,219.942 95.379,219.059 95.874,218.180 96.370,217.307 96.865,216.439 97.360,215.577 97.855,214.719 98.351,213.867 98.846,213.019 99.341,212.177 99.837,211.339 100.332,210.507 100.827,209.680 101.322,208.857 101.818,208.039 102.313,207.227 102.808,206.419 103.304,205.615 103.799,204.817 104.294,204.023 104.789,203.234 105.285,202.450 105.780,201.670 106.275,200.895 106.771,200.125 107.266,199.359 107.761,198.598 108.256,197.841 108.752,197.089 109.247,196.341 109.742,195.597 110.238,194.858 110.733,194.124 111.228,193.393 111.723,192.667 112.219,191.946 112.714,191.228 113.209,190.515 113.705,189.806 114.200,189.101 114.695,188.400 115.190,187.704 115.686,187.012 116.181,186.323 116.676,185.639 117.171,184.959 117.667,184.283 118.162,183.611 118.657,182.942 119.153,182.278 119.648,181.618 120.143,180.961 120.638,180.309 121.134,179.660 121.629,179.015 122.124,178.374 122.620,177.737 123.115,177.103 123.610,176.473 124.105,175.847 124.601,175.225 125.096,174.606 125.591,173.991 126.087,173.379 126.582,172.771 127.077,172.167 127.572,171.566 128.068,170.969 128.563,170.375 129.058,169.784 129.554,169.198 130.049,168.614 130.544,168.034 131.039,167.458 131.535,166.884 132.030,166.315 132.525,165.748 133.021,165.185 133.516,164.625 134.011,164.068 134.506,163.515 135.002,162.965 135.497,162.418 135.992,161.874 136.488,161.334 136.983,160.796 137.478,160.262 137.973,159.731 138.469,159.203 138.964,158.678 139.459,158.156 139.955,157.638 140.450,157.122 140.945,156.609 141.440,156.099 141.936,155.593 142.431,155.089 142.926,154.588 143.422,154.090 143.917,153.595 144.412,153.102 144.907,152.613 145.403,152.127 145.898,151.643 146.393,151.162 146.889,150.684 147.384,150.209 147.879,149.736 148.374,149.267 148.870,148.799 149.365,148.335 149.860,147.873 150.356,147.415 150.851,146.958 151.346,146.505 151.841,146.054 152.337,145.605 152.832,145.159 153.327,144.716 153.823,144.275 154.318,143.837 154.813,143.402 155.308,142.969 155.804,142.538 156.299,142.110 156.794,141.684 157.290,141.261 157.785,140.840 158.280,140.422 158.775,140.006 159.271,139.593 159.766,139.182 160.261,138.773 160.757,138.367 161.252,137.963 161.747,137.561 162.242,137.162 162.738,136.764 163.233,136.370 163.728,135.977 164.224,135.587 164.719,135.199 165.214,134.813 165.709,134.429 166.205,134.048 166.700,133.669 167.195,133.292 167.690,132.917 168.186,132.544 168.681,132.173 169.176,131.805 169.672,131.438 170.167,131.074 170.662,130.712 171.157,130.352 171.653,129.994 172.148,129.638 172.643,129.284 173.139,128.932 173.634,128.582 174.129,128.234 174.624,127.888 175.120,127.544 175.615,127.202 176.110,126.862 176.606,126.523 177.101,126.187 177.596,125.853 178.091,125.520 178.587,125.190 179.082,124.861 179.577,124.534 180.073,124.209 180.568,123.886 181.063,123.565 181.558,123.245 182.054,122.928 182.549,122.612 183.044,122.298 183.540,121.985 184.035,121.675 184.530,121.366 185.025,121.059 185.521,120.753 186.016,120.450 186.511,120.148 187.007,119.848 187.502,119.549 187.997,119.252 188.492,118.957 188.988,118.664 189.483,118.372 189.978,118.082 190.474,117.793 190.969,117.506 191.464,117.221 191.959,116.937 192.455,116.655 192.950,116.374 193.445,116.095 193.941,115.818 194.436,115.542 194.931,115.267 195.426,114.994 195.922,114.723 196.417,114.453 196.912,114.185 197.408,113.918 197.903,113.653 198.398,113.389 198.893,113.127 199.389,112.866 199.884,112.606 200.379,112.348 200.875,112.092 201.370,111.836 201.865,111.583 202.360,111.330 202.856,111.079 203.351,110.830 203.846,110.582 204.342,110.335 204.837,110.089 205.332,109.845 205.827,109.602 206.323,109.361 206.818,109.121 207.313,108.882 207.809,108.645 208.304,108.408 208.799,108.174 209.294,107.940 209.790,107.708 210.285,107.477 210.780,107.247 211.276,107.019 211.771,106.791 212.266,106.565 212.761,106.341 213.257,106.117 213.752,105.895 214.247,105.674 214.743,105.454 215.238,105.235 215.733,105.018 216.228,104.801 216.724,104.586 217.219,104.372 217.714,104.159 218.210,103.948 218.705,103.737 219.200,103.528 219.695,103.319 220.191,103.112 220.686,102.906 221.181,102.701 221.676,102.498 222.172,102.295 222.667,102.093 223.162,101.893 223.658,101.694 224.153,101.495 224.648,101.298 225.143,101.102 225.639,100.907 226.134,100.712 226.629,100.519 227.125,100.327 227.620,100.136 228.115,99.946 228.610,99.757 229.106,99.569 229.601,99.382 230.096,99.196 230.592,99.011 231.087,98.827 231.582,98.644 232.077,98.462 232.573,98.281 233.068,98.101 233.563,97.922 234.059,97.744 234.554,97.566 235.049,97.390 235.544,97.215 236.040,97.040 236.535,96.867 237.030,96.694 237.526,96.522 238.021,96.351 238.516,96.181 239.011,96.012 239.507,95.844 240.002,95.677 240.497,95.510 240.993,95.345 241.488,95.180 241.983,95.016 242.478,94.853 242.974,94.691 243.469,94.530 243.964,94.370 244.460,94.210 244.955,94.051 245.450,93.893 245.945,93.736 246.441,93.580 246.936,93.424 247.431,93.270 247.927,93.116 248.422,92.963 248.917,92.810 249.412,92.659 249.908,92.508 250.403,92.358 250.898,92.209 251.394,92.060 251.889,91.913 252.384,91.766 252.879,91.620 253.375,91.474 253.870,91.330 254.365,91.186 254.861,91.042 255.356,90.900 255.851,90.758 256.346,90.617 256.842,90.477 257.337,90.337 257.832,90.198 258.328,90.060 258.823,89.922 259.318,89.786 259.813,89.649 260.309,89.514 260.804,89.379 261.299,89.245 261.795,89.112 262.290,88.979 262.785,88.847 263.280,88.715 263.776,88.585 264.271,88.454 264.766,88.325 265.262,88.196 265.757,88.068 266.252,87.940 266.747,87.813 267.243,87.687 267.738,87.561 268.233,87.436 268.729,87.312 269.224,87.188 269.719,87.065 270.214,86.942 270.710,86.820 271.205,86.699 271.700,86.578 272.195,86.458 272.691,86.338 273.186,86.219 273.681,86.101 274.177,85.983 274.672,85.865 275.167,85.749 275.662,85.632 276.158,85.517 276.653,85.402 277.148,85.287 277.644,85.173 278.139,85.060 278.634,84.947 279.129,84.835 279.625,84.723 280.120,84.612 280.615,84.501 281.111,84.391 281.606,84.281 282.101,84.172 282.596,84.063 283.092,83.955 283.587,83.847 284.082,83.740 284.578,83.634 285.073,83.528 285.568,83.422 286.063,83.317 286.559,83.212 287.054,83.108 287.549,83.005 288.045,82.902 288.540,82.799 289.035,82.697 289.530,82.595 290.026,82.494 290.521,82.393 291.016,82.293 291.512,82.193 292.007,82.094 292.502,81.995 292.997,81.896 293.493,81.798 293.988,81.701 294.483,81.604 294.979,81.507 295.474,81.411 295.969,81.315 296.464,81.220 296.960,81.125 297.455,81.030 297.950,80.936 298.446,80.843 298.941,80.749 299.436,80.657 299.931,80.564 300.427,80.472 300.922,80.381 301.417,80.290 301.913,80.199 302.408,80.109 302.903,80.019 303.398,79.929 303.894,79.840 304.389,79.752 304.884,79.663 305.380,79.575 305.875,79.488 306.370,79.401 306.865,79.314 307.361,79.228 307.856,79.142 308.351,79.056 308.847,78.971 309.342,78.886 309.837,78.801 310.332,78.717 310.828,78.633 311.323,78.550 311.818,78.467 312.314,78.384 312.809,78.302 313.304,78.220 313.799,78.138 314.295,78.057 314.790,77.976 315.285,77.896 315.781,77.815 316.276,77.735 316.771,77.656 317.266,77.577 317.762,77.498 318.257,77.419 318.752,77.341 319.248,77.263 319.743,77.186 320.238,77.108 320.733,77.031 321.229,76.955 321.724,76.879 322.219,76.803 322.714,76.727 323.210,76.652 323.705,76.577 324.200,76.502 324.696,76.427 325.191,76.353 325.686,76.279 326.181,76.206 326.677,76.133 327.172,76.060 327.667,75.987 328.163,75.915 328.658,75.843 329.153,75.771 329.648,75.700 330.144,75.629 330.639,75.558 331.134,75.487 331.630,75.417 332.125,75.347 332.620,75.277 333.115,75.208 333.611,75.138 334.106,75.069 334.601,75.001 335.097,74.932 335.592,74.864 336.087,74.797 336.582,74.729 337.078,74.662 337.573,74.595 338.068,74.528 338.564,74.461 339.059,74.395 339.554,74.329 340.049,74.263 340.545,74.198 341.040,74.132 341.535,74.067 342.031,74.003 342.526,73.938 343.021,73.874 343.516,73.810 344.012,73.746 344.507,73.682 345.002,73.619 345.498,73.556 345.993,73.493 346.488,73.430 346.983,73.368 347.479,73.306 347.974,73.244 348.469,73.182 348.965,73.121 349.460,73.060 349.955,72.999 350.450,72.938 350.946,72.877 351.441,72.817 351.936,72.757 352.432,72.697 352.927,72.637 353.422,72.578 353.917,72.518 354.413,72.459 354.908,72.400 355.403,72.342 355.899,72.283 356.394,72.225 356.889,72.167 357.384,72.109 357.880,72.052 358.375,71.994 358.870,71.937 359.366,71.880 359.861,71.823 360.356,71.766 360.851,71.710 361.347,71.654 361.842,71.598 362.337,71.542 362.833,71.486 363.328,71.431 363.823,71.375 364.318,71.320 364.814,71.265 365.309,71.211 365.804,71.156 366.300,71.102 366.795,71.048 367.290,70.994 367.785,70.940 368.281,70.886 368.776,70.833 369.271,70.779 369.767,70.726 370.262,70.673 370.757,70.621 371.252,70.568 371.748,70.516 372.243,70.463 372.738,70.411 373.234,70.359 373.729,70.308 374.224,70.256 374.719,70.205 375.215,70.153 375.710,70.102 376.205,70.051 376.700,70.001 377.196,69.950 377.691,69.899 378.186,69.849 378.682,69.799 379.177,69.749 379.672,69.699 380.167,69.649 380.663,69.600 381.158,69.551 381.653,69.501 382.149,69.452 382.644,69.403 383.139,69.355 383.634,69.306 384.130,69.257 384.625,69.209 385.120,69.161 385.616,69.113 386.111,69.065 386.606,69.017 387.101,68.969 387.597,68.922 388.092,68.875 388.587,68.827 389.083,68.780 389.578,68.733 390.073,68.687 390.568,68.640 391.064,68.593 391.559,68.547 392.054,68.501 392.550,68.455 393.045,68.408 393.540,68.363 394.035,68.317 394.531,68.271 395.026,68.226 395.521,68.180 396.017,68.135 396.512,68.090 397.007,68.045 397.502,68.000 397.998,67.955 398.493,67.911 398.988,67.866 399.484,67.822 399.979,67.777 400.474,67.733 400.969,67.689 401.465,67.645 401.960,67.602 402.455,67.558 402.951,67.514 403.446,67.471 403.941,67.427 404.436,67.384 404.932,67.341 405.427,67.298 405.922,67.255 406.418,67.212 406.913,67.170 407.408,67.127 407.903,67.085 408.399,67.042 408.894,67.000 409.389,66.958 409.885,66.916 410.380,66.874 410.875,66.832 411.370,66.790 411.866,66.749 412.361,66.707 412.856,66.666 413.352,66.625 413.847,66.583 414.342,66.542 414.837,66.501 415.333,66.460 415.828,66.419 416.323,66.379 416.819,66.338 417.314,66.297 417.809,66.257 418.304,66.217 418.800,66.176 419.295,66.136 419.790,66.096 420.286,66.056 420.781,66.016 421.276,65.977 421.771,65.937 422.267,65.897 422.762,65.858 423.257,65.818 423.753,65.779 424.248,65.740 424.743,65.701 425.238,65.661 425.734,65.622 426.229,65.584 426.724,65.545 427.219,65.506 427.715,65.467 428.210,65.429 428.705,65.390 429.201,65.352 429.696,65.313 430.191,65.275 430.686,65.237 431.182,65.199 431.677,65.161 432.172,65.123 432.668,65.085 433.163,65.047 433.658,65.010 434.153,64.972 434.649,64.935 435.144,64.897 435.639,64.860 436.135,64.822 436.630,64.785 437.125,64.748 437.620,64.711 438.116,64.674 438.611,64.637 439.106,64.600 439.602,64.563 440.097,64.527 440.592,64.490 441.087,64.453 441.583,64.417 442.078,64.380 442.573,64.344 443.069,64.308 443.564,64.271 444.059,64.235 444.554,64.199 445.050,64.163 445.545,64.127 446.040,64.091 446.536,64.055 447.031,64.020 447.526,63.984 448.021,63.948 448.517,63.913 449.012,63.877 449.507,63.842 450.003,63.806 450.498,63.771 450.993,63.736 451.488,63.701 451.984,63.666 452.479,63.630 452.974,63.595 453.470,63.560 453.965,63.526 454.460,63.491 454.955,63.456 455.451,63.421 455.946,63.387 456.441,63.352 456.937,63.317 457.432,63.283 457.927,63.249 458.422,63.214 458.918,63.180 459.413,63.146 459.908,63.111 460.404,63.077 460.899,63.043 461.394,63.009 461.889,62.975 462.385,62.941 462.880,62.907 463.375,62.873 463.871,62.840 464.366,62.806 464.861,62.772 465.356,62.739 465.852,62.705 466.347,62.672 466.842,62.638 467.338,62.605 467.833,62.571 468.328,62.538 468.823,62.505 469.319,62.472 469.814,62.438 470.309,62.405 470.805,62.372 471.300,62.339 471.795,62.306 472.290,62.273 472.786,62.240 473.281,62.208 473.776,62.175 474.272,62.142 474.767,62.109 475.262,62.077 475.757,62.044 476.253,62.012 476.748,61.979 477.243,61.947 477.738,61.914 478.234,61.882 478.729,61.849 479.224,61.817 479.720,61.785 480.215,61.753 480.710,61.720 481.205,61.688 481.701,61.656 482.196,61.624 482.691,61.592 483.187,61.560 483.682,61.528 484.177,61.496 484.672,61.465 485.168,61.433 485.663,61.401 486.158,61.369 486.654,61.338 487.149,61.306 487.644,61.274 488.139,61.243 488.635,61.211 489.130,61.180 489.625,61.148 490.121,61.117 490.616,61.086 491.111,61.054 491.606,61.023 492.102,60.992 492.597,60.960 493.092,60.929 493.588,60.898 494.083,60.867 494.578,60.836 495.073,60.805 495.569,60.774 496.064,60.743 496.559,60.712 497.055,60.681 497.550,60.650 498.045,60.619 498.540,60.588 499.036,60.557 499.531,60.527 500.026,60.496 500.522,60.465 501.017,60.435 501.512,60.404 502.007,60.373 502.503,60.343 502.998,60.312 503.493,60.282 503.989,60.251 504.484,60.221 504.979,60.191 505.474,60.160 505.970,60.130 506.465,60.100 506.960,60.069 507.456,60.039 507.951,60.009 508.446,59.979 508.941,59.948 509.437,59.918 509.932,59.888 510.427,59.858 510.923,59.828 511.418,59.798 511.913,59.768 512.408,59.738 512.904,59.708 513.399,59.678 513.894,59.648 514.390,59.618 514.885,59.589 515.380,59.559 515.875,59.529 516.371,59.499 516.866,59.470 517.361,59.440 517.857,59.410 518.352,59.380 518.847,59.351 519.342,59.321 519.838,59.292 520.333,59.262 520.828,59.233 521.324,59.203 521.819,59.174 522.314,59.144 522.809,59.115 523.305,59.085 523.800,59.056 524.295,59.027 524.791,58.997 525.286,58.968 525.781,58.939 526.276,58.909 526.772,58.880 527.267,58.851 527.762,58.822 528.258,58.793 528.753,58.763 529.248,58.734 529.743,58.705 530.239,58.676 530.734,58.647 531.229,58.618 531.724,58.589 532.220,58.560 532.715,58.531 533.210,58.502 533.706,58.473 534.201,58.444 534.696,58.415 535.191,58.386 535.687,58.357 536.182,58.329 536.677,58.300 537.173,58.271 537.668,58.242 538.163,58.213 538.658,58.185 539.154,58.156 539.649,58.127 540.144,58.099 540.640,58.070 541.135,58.041 541.630,58.013 542.125,57.984 542.621,57.955 543.116,57.927 543.611,57.898 544.107,57.870 544.602,57.841 545.097,57.813 545.592,57.784 546.088,57.756 546.583,57.727 547.078,57.699 547.574,57.671 548.069,57.642 548.564,57.614 549.059,57.585 549.555,57.557 550.050,57.529 550.545,57.500 551.041,57.472 551.536,57.444 552.031,57.416 552.526,57.387 553.022,57.359 553.517,57.331 554.012,57.303 554.508,57.274 555.003,57.246 555.498,57.218 555.993,57.190 556.489,57.162 556.984,57.134 557.479,57.106 557.975,57.077 558.470,57.049 558.965,57.021 559.460,56.993 559.956,56.965 560.451,56.937 560.946,56.909 561.442,56.881 561.937,56.853 562.432,56.825 562.927,56.797 563.423,56.769 563.918,56.742 564.413,56.714 564.909,56.686 565.404,56.658 565.899,56.630 566.394,56.602 566.890,56.574 567.385,56.546 567.880,56.519 568.376,56.491 568.871,56.463 569.366,56.435 569.861,56.407 570.357,56.380 570.852,56.352 571.347,56.324 571.843,56.297 572.338,56.269 572.833,56.241 573.328,56.213 573.824,56.186 574.319,56.158 574.814,56.130 575.310,56.103 575.805,56.075 576.300,56.048 576.795,56.020 577.291,55.992 577.786,55.965 "/>
<g>
</g>
</g>
<g id="ID000003" >
  <g transform="translate(329.453,277.406)">
    <g transform="rotate(-0.0)">
      <text x="0.000" y="0.000" font-family="Times New Roman" text-anchor="middle" font-size="11pt" fill="#000000" >Time ($t$) [$s$]</text>
    </g>
  </g>
</g>
<g id="ID000004" >
  <g transform="translate(61.876,135.469)">
    <g transform="rotate(-90.0)">
      <text x="0.000" y="0.000" font-family="Times New Roman" text-anchor="middle" font-size="11pt" fill="#000000" >Flux Amplitude ($p$) [ ]</text>
    </g>
  </g>
</g>
<g id="ID000005" clip-path="url(#ID000001)" >
      <polyline fill="none" stroke="#000000" stroke-width="0.5pt" stroke-dasharray="8.0,2.0,2.0,2.0" points="82.997,242.812 83.492,233.089 83.987,223.942 84.483,215.337 84.978,207.243 85.473,199.629 85.969,192.467 86.464,185.729 86.959,179.390 87.454,173.427 87.950,167.817 88.445,162.540 88.940,157.575 89.436,152.904 89.931,148.509 90.426,144.374 90.921,140.484 91.417,136.824 91.912,133.380 92.407,130.139 92.903,127.090 93.398,124.221 93.893,121.521 94.388,118.981 94.884,116.590 95.379,114.339 95.874,112.222 96.370,110.229 96.865,108.353 97.360,106.587 97.855,104.925 98.351,103.360 98.846,101.887 99.341,100.501 99.837,99.195 100.332,97.966 100.827,96.808 101.322,95.718 101.818,94.691 102.313,93.724 102.808,92.813 103.304,91.955 103.799,91.147 104.294,90.385 104.789,89.667 105.285,88.991 105.780,88.353 106.275,87.752 106.771,87.186 107.266,86.651 107.761,86.148 108.256,85.672 108.752,85.224 109.247,84.801 109.742,84.401 110.238,84.024 110.733,83.669 111.228,83.332 111.723,83.015 112.219,82.715 112.714,82.431 113.209,82.163 113.705,81.910 114.200,81.670 114.695,81.443 115.190,81.229 115.686,81.025 116.181,80.833 116.676,80.650 117.171,80.477 117.667,80.313 118.162,80.157 118.657,80.009 119.153,79.869 119.648,79.736 120.143,79.609 120.638,79.488 121.134,79.373 121.629,79.264 122.124,79.159 122.620,79.060 123.115,78.965 123.610,78.874 124.105,78.787 124.601,78.705 125.096,78.625 125.591,78.549 126.087,78.476 126.582,78.407 127.077,78.340 127.572,78.275 128.068,78.213 128.563,78.153 129.058,78.096 129.554,78.040 130.049,77.987 130.544,77.935 131.039,77.885 131.535,77.837 132.030,77.790 132.525,77.744 133.021,77.700 133.516,77.657 134.011,77.615 134.506,77.575 135.002,77.535 135.497,77.496 135.992,77.459 136.488,77.422 136.983,77.386 137.478,77.350 137.973,77.316 138.469,77.282 138.964,77.249 139.459,77.216 139.955,77.184 140.450,77.152 140.945,77.121 141.440,77.091 141.936,77.061 142.431,77.031 142.926,77.002 143.422,76.973 143.917,76.944 144.412,76.916 144.907,76.888 145.403,76.860 145.898,76.833 146.393,76.805 146.889,76.778 147.384,76.752 147.879,76.725 148.374,76.699 148.870,76.673 149.365,76.647 149.860,76.621 150.356,76.595 150.851,76.570 151.346,76.544 151.841,76.519 152.337,76.494 152.832,76.469 153.327,76.444 153.823,76.419 154.318,76.394 154.813,76.370 155.308,76.345 155.804,76.321 156.299,76.296 156.794,76.272 157.290,76.248 157.785,76.224 158.280,76.199 158.775,76.175 159.271,76.151 159.766,76.127 160.261,76.103 160.757,76.079 161.252,76.056 161.747,76.032 162.242,76.008 162.738,75.984 163.233,75.960 163.728,75.937 164.224,75.913 164.719,75.889 165.214,75.866 165.709,75.842 166.205,75.818 166.700,75.795 167.195,75.771 167.690,75.748 168.186,75.724 168.681,75.701 169.176,75.677 169.672,75.653 170.167,75.630 170.662,75.607 171.157,75.583 171.653,75.560 172.148,75.536 172.643,75.513 173.139,75.489 173.634,75.466 174.129,75.442 174.624,75.419 175.120,75.395 175.615,75.372 176.110,75.349 176.606,75.325 177.101,75.302 177.596,75.278 178.091,75.255 178.587,75.232 179.082,75.208 179.577,75.185 180.073,75.161 180.568,75.138 181.063,75.115 181.558,75.091 182.054,75.068 182.549,75.044 183.044,75.021 183.540,74.998 184.035,74.974 184.530,74.951 185.025,74.927 185.521,74.904 186.016,74.881 186.511,74.857 187.007,74.834 187.502,74.810 187.997,74.787 188.492,74.764 188.988,74.740 189.483,74.717 189.978,74.693 190.474,74.670 190.969,74.647 191.464,74.623 191.959,74.600 192.455,74.576 192.950,74.553 193.445,74.530 193.941,74.506 194.436,74.483 194.931,74.459 195.426,74.436 195.922,74.413 196.417,74.389 196.912,74.366 197.408,74.342 197.903,74.319 198.398,74.295 198.893,74.272 199.389,74.249 199.884,74.225 200.379,74.202 200.875,74.178 201.370,74.155 201.865,74.131 202.360,74.108 202.856,74.084 203.351,74.061 203.846,74.037 204.342,74.014 204.837,73.991 205.332,73.967 205.827,73.944 206.323,73.920 206.818,73.897 207.313,73.873 207.809,73.850 208.304,73.826 208.799,73.803 209.294,73.779 209.790,73.756 210.285,73.732 210.780,73.709 211.276,73.685 211.771,73.662 212.266,73.638 212.761,73.615 213.257,73.591 213.752,73.568 214.247,73.544 214.743,73.521 215.238,73.497 215.733,73.474 216.228,73.450 216.724,73.427 217.219,73.403 217.714,73.380 218.210,73.356 218.705,73.333 219.200,73.309 219.695,73.286 220.191,73.262 220.686,73.239 221.181,73.215 221.676,73.191 222.172,73.168 222.667,73.144 223.162,73.121 223.658,73.097 224.153,73.074 224.648,73.050 225.143,73.027 225.639,73.003 226.134,72.979 226.629,72.956 227.125,72.932 227.620,72.909 228.115,72.885 228.610,72.862 229.106,72.838 229.601,72.814 230.096,72.791 230.592,72.767 231.087,72.744 231.582,72.720 232.077,72.697 232.573,72.673 233.068,72.649 233.563,72.626 234.059,72.602 234.554,72.579 235.049,72.555 235.544,72.531 236.040,72.508 236.535,72.484 237.030,72.460 237.526,72.437 238.021,72.413 238.516,72.390 239.011,72.366 239.507,72.342 240.002,72.319 240.497,72.295 240.993,72.271 241.488,72.248 241.983,72.224 242.478,72.200 242.974,72.177 243.469,72.153 243.964,72.130 244.460,72.106 244.955,72.082 245.450,72.059 245.945,72.035 246.441,72.011 246.936,71.988 247.431,71.964 247.927,71.940 248.422,71.917 248.917,71.893 249.412,71.869 249.908,71.845 250.403,71.822 250.898,71.798 251.394,71.774 251.889,71.751 252.384,71.727 252.879,71.703 253.375,71.680 253.870,71.656 254.365,71.632 254.861,71.609 255.356,71.585 255.851,71.561 256.346,71.537 256.842,71.514 257.337,71.490 257.832,71.466 258.328,71.442 258.823,71.419 259.318,71.395 259.813,71.371 260.309,71.348 260.804,71.324 261.299,71.300 261.795,71.276 262.290,71.253 262.785,71.229 263.280,71.205 263.776,71.181 264.271,71.158 264.766,71.134 265.262,71.110 265.757,71.086 266.252,71.063 266.747,71.039 267.243,71.015 267.738,70.991 268.233,70.967 268.729,70.944 269.224,70.920 269.719,70.896 270.214,70.872 270.710,70.849 271.205,70.825 271.700,70.801 272.195,70.777 272.691,70.753 273.186,70.730 273.681,70.706 274.177,70.682 274.672,70.658 275.167,70.634 275.662,70.611 276.158,70.587 276.653,70.563 277.148,70.539 277.644,70.515 278.139,70.491 278.634,70.468 279.129,70.444 279.625,70.420 280.120,70.396 280.615,70.372 281.111,70.348 281.606,70.325 282.101,70.301 282.596,70.277 283.092,70.253 283.587,70.229 284.082,70.205 284.578,70.181 285.073,70.158 285.568,70.134 286.063,70.110 286.559,70.086 287.054,70.062 287.549,70.038 288.045,70.014 288.540,69.991 289.035,69.967 289.530,69.943 290.026,69.919 290.521,69.895 291.016,69.871 291.512,69.847 292.007,69.823 292.502,69.799 292.997,69.775 293.493,69.752 293.988,69.728 294.483,69.704 294.979,69.680 295.474,69.656 295.969,69.632 296.464,69.608 296.960,69.584 297.455,69.560 297.950,69.536 298.446,69.512 298.941,69.488 299.436,69.465 299.931,69.441 300.427,69.417 300.922,69.393 301.417,69.369 301.913,69.345 302.408,69.321 302.903,69.297 303.398,69.273 303.894,69.249 304.389,69.225 304.884,69.201 305.380,69.177 305.875,69.153 306.370,69.129 306.865,69.105 307.361,69.081 307.856,69.057 308.351,69.033 308.847,69.009 309.342,68.985 309.837,68.961 310.332,68.937 310.828,68.913 311.323,68.889 311.818,68.865 312.314,68.841 312.809,68.817 313.304,68.793 313.799,68.769 314.295,68.745 314.790,68.721 315.285,68.697 315.781,68.673 316.276,68.649 316.771,68.625 317.266,68.601 317.762,68.577 318.257,68.553 318.752,68.529 319.248,68.505 319.743,68.481 320.238,68.457 320.733,68.433 321.229,68.409 321.724,68.385 322.219,68.361 322.714,68.337 323.210,68.313 323.705,68.289 324.200,68.265 324.696,68.241 325.191,68.217 325.686,68.192 326.181,68.168 326.677,68.144 327.172,68.120 327.667,68.096 328.163,68.072 328.658,68.048 329.153,68.024 329.648,68.000 330.144,67.976 330.639,67.952 331.134,67.928 331.630,67.903 332.125,67.879 332.620,67.855 333.115,67.831 333.611,67.807 334.106,67.783 334.601,67.759 335.097,67.735 335.592,67.711 336.087,67.686 336.582,67.662 337.078,67.638 337.573,67.614 338.068,67.590 338.564,67.566 339.059,67.542 339.554,67.518 340.049,67.493 340.545,67.469 341.040,67.445 341.535,67.421 342.031,67.397 342.526,67.373 343.021,67.349 343.516,67.324 344.012,67.300 344.507,67.276 345.002,67.252 345.498,67.228 345.993,67.204 346.488,67.179 346.983,67.155 347.479,67.131 347.974,67.107 348.469,67.083 348.965,67.058 349.460,67.034 349.955,67.010 350.450,66.986 350.946,66.962 351.441,66.937 351.936,66.913 352.432,66.889 352.927,66.865 353.422,66.841 353.917,66.816 354.413,66.792 354.908,66.768 355.403,66.744 355.899,66.720 356.394,66.695 356.889,66.671 357.384,66.647 357.880,66.623 358.375,66.598 358.870,66.574 359.366,66.550 359.861,66.526 360.356,66.501 360.851,66.477 361.347,66.453 361.842,66.429 362.337,66.404 362.833,66.380 363.328,66.356 363.823,66.332 364.318,66.307 364.814,66.283 365.309,66.259 365.804,66.235 366.300,66.210 366.795,66.186 367.290,66.162 367.785,66.137 368.281,66.113 368.776,66.089 369.271,66.065 369.767,66.040 370.262,66.016 370.757,65.992 371.252,65.967 371.748,65.943 372.243,65.919 372.738,65.894 373.234,65.870 373.729,65.846 374.224,65.822 374.719,65.797 375.215,65.773 375.710,65.749 376.205,65.724 376.700,65.700 377.196,65.676 377.691,65.651 378.186,65.627 378.682,65.603 379.177,65.578 379.672,65.554 380.167,65.530 380.663,65.505 381.158,65.481 381.653,65.456 382.149,65.432 382.644,65.408 383.139,65.383 383.634,65.359 384.130,65.335 384.625,65.310 385.120,65.286 385.616,65.262 386.111,65.237 386.606,65.213 387.101,65.188 387.597,65.164 388.092,65.140 388.587,65.115 389.083,65.091 389.578,65.066 390.073,65.042 390.568,65.018 391.064,64.993 391.559,64.969 392.054,64.944 392.550,64.920 393.045,64.896 393.540,64.871 394.035,64.847 394.531,64.822 395.026,64.798 395.521,64.774 396.017,64.749 396.512,64.725 397.007,64.700 397.502,64.676 397.998,64.651 398.493,64.627 398.988,64.602 399.484,64.578 399.979,64.554 400.474,64.529 400.969,64.505 401.465,64.480 401.960,64.456 402.455,64.431 402.951,64.407 403.446,64.382 403.941,64.358 404.436,64.333 404.932,64.309 405.427,64.284 405.922,64.260 406.418,64.235 406.913,64.211 407.408,64.187 407.903,64.162 408.399,64.138 408.894,64.113 409.389,64.089 409.885,64.064 410.380,64.040 410.875,64.015 411.370,63.991 411.866,63.966 412.361,63.941 412.856,63.917 413.352,63.892 413.847,63.868 414.342,63.843 414.837,63.819 415.333,63.794 415.828,63.770 416.323,63.745 416.819,63.721 417.314,63.696 417.809,63.672 418.304,63.647 418.800,63.623 419.295,63.598 419.790,63.573 420.286,63.549 420.781,63.524 421.276,63.500 421.771,63.475 422.267,63.451 422.762,63.426 423.257,63.402 423.753,63.377 424.248,63.352 424.743,63.328 425.238,63.303 425.734,63.279 426.229,63.254 426.724,63.229 427.219,63.205 427.715,63.180 428.210,63.156 428.705,63.131 429.201,63.106 429.696,63.082 430.191,63.057 430.686,63.033 431.182,63.008 431.677,62.983 432.172,62.959 432.668,62.934 433.163,62.910 433.658,62.885 434.153,62.860 434.649,62.836 435.144,62.811 435.639,62.786 436.135,62.762 436.630,62.737 437.125,62.712 437.620,62.688 438.116,62.663 438.611,62.639 439.106,62.614 439.602,62.589 440.097,62.565 440.592,62.540 441.087,62.515 441.583,62.491 442.078,62.466 442.573,62.441 443.069,62.417 443.564,62.392 444.059,62.367 444.554,62.343 445.050,62.318 445.545,62.293 446.040,62.268 446.536,62.244 447.031,62.219 447.526,62.194 448.021,62.170 448.517,62.145 449.012,62.120 449.507,62.096 450.003,62.071 450.498,62.046 450.993,62.021 451.488,61.997 451.984,61.972 452.479,61.947 452.974,61.923 453.470,61.898 453.965,61.873 454.460,61.848 454.955,61.824 455.451,61.799 455.946,61.774 456.441,61.749 456.937,61.725 457.432,61.700 457.927,61.675 458.422,61.650 458.918,61.626 459.413,61.601 459.908,61.576 460.404,61.551 460.899,61.527 461.394,61.502 461.889,61.477 462.385,61.452 462.880,61.427 463.375,61.403 463.871,61.378 464.366,61.353 464.861,61.328 465.356,61.304 465.852,61.279 466.347,61.254 466.842,61.229 467.338,61.204 467.833,61.180 468.328,61.155 468.823,61.130 469.319,61.105 469.814,61.080 470.309,61.055 470.805,61.031 471.300,61.006 471.795,60.981 472.290,60.956 472.786,60.931 473.281,60.907 473.776,60.882 474.272,60.857 474.767,60.832 475.262,60.807 475.757,60.782 476.253,60.757 476.748,60.733 477.243,60.708 477.738,60.683 478.234,60.658 478.729,60.633 479.224,60.608 479.720,60.583 480.215,60.559 480.710,60.534 481.205,60.509 481.701,60.484 482.196,60.459 482.691,60.434 483.187,60.409 483.682,60.384 484.177,60.360 484.672,60.335 485.168,60.310 485.663,60.285 486.158,60.260 486.654,60.235 487.149,60.210 487.644,60.185 488.139,60.160 488.635,60.135 489.130,60.110 489.625,60.086 490.121,60.061 490.616,60.036 491.111,60.011 491.606,59.986 492.102,59.961 492.597,59.936 493.092,59.911 493.588,59.886 494.083,59.861 494.578,59.836 495.073,59.811 495.569,59.786 496.064,59.761 496.559,59.736 497.055,59.711 497.550,59.687 498.045,59.662 498.540,59.637 499.036,59.612 499.531,59.587 500.026,59.562 500.522,59.537 501.017,59.512 501.512,59.487 502.007,59.462 502.503,59.437 502.998,59.412 503.493,59.387 503.989,59.362 504.484,59.337 504.979,59.312 505.474,59.287 505.970,59.262 506.465,59.237 506.960,59.212 507.456,59.187 507.951,59.162 508.446,59.137 508.941,59.112 509.437,59.087 509.932,59.062 510.427,59.037 510.923,59.012 511.418,58.987 511.913,58.961 512.408,58.936 512.904,58.911 513.399,58.886 513.894,58.861 514.390,58.836 514.885,58.811 515.380,58.786 515.875,58.761 516.371,58.736 516.866,58.711 517.361,58.686 517.857,58.661 518.352,58.636 518.847,58.611 519.342,58.586 519.838,58.561 520.333,58.535 520.828,58.510 521.324,58.485 521.819,58.460 522.314,58.435 522.809,58.410 523.305,58.385 523.800,58.360 524.295,58.335 524.791,58.310 525.286,58.284 525.781,58.259 526.276,58.234 526.772,58.209 527.267,58.184 527.762,58.159 528.258,58.134 528.753,58.109 529.248,58.084 529.743,58.058 530.239,58.033 530.734,58.008 531.229,57.983 531.724,57.958 532.220,57.933 532.715,57.908 533.210,57.882 533.706,57.857 534.201,57.832 534.696,57.807 535.191,57.782 535.687,57.757 536.182,57.731 536.677,57.706 537.173,57.681 537.668,57.656 538.163,57.631 538.658,57.606 539.154,57.580 539.649,57.555 540.144,57.530 540.640,57.505 541.135,57.480 541.630,57.454 542.125,57.429 542.621,57.404 543.116,57.379 543.611,57.354 544.107,57.328 544.602,57.303 545.097,57.278 545.592,57.253 546.088,57.228 546.583,57.202 547.078,57.177 547.574,57.152 548.069,57.127 548.564,57.101 549.059,57.076 549.555,57.051 550.050,57.026 550.545,57.000 551.041,56.975 551.536,56.950 552.031,56.925 552.526,56.899 553.022,56.874 553.517,56.849 554.012,56.824 554.508,56.798 555.003,56.773 555.498,56.748 555.993,56.723 556.489,56.697 556.984,56.672 557.479,56.647 557.975,56.621 558.470,56.596 558.965,56.571 559.460,56.546 559.956,56.520 560.451,56.495 560.946,56.470 561.442,56.444 561.937,56.419 562.432,56.394 562.927,56.368 563.423,56.343 563.918,56.318 564.413,56.293 564.909,56.267 565.404,56.242 565.899,56.217 566.394,56.191 566.890,56.166 567.385,56.141 567.880,56.115 568.376,56.090 568.871,56.065 569.366,56.039 569.861,56.014 570.357,55.989 570.852,55.963 571.347,55.938 571.843,55.912 572.338,55.887 572.833,55.862 573.328,55.836 573.824,55.811 574.319,55.786 574.814,55.760 575.310,55.735 575.805,55.709 576.300,55.684 576.795,55.659 577.291,55.633 577.786,55.608 "/>
<g>
</g>
</g>
<g id="ID000006" clip-path="url(#ID000001)" >
      <polyline fill="none" stroke="#000000" stroke-width="0.5pt" stroke-dasharray="2.0,2.0" points="82.997,242.812 83.492,168.023 83.987,127.502 84.483,105.543 84.978,93.638 85.473,87.179 85.969,83.670 86.464,81.759 86.959,80.713 87.454,80.136 87.950,79.813 88.445,79.628 88.940,79.517 89.436,79.446 89.931,79.398 90.426,79.361 90.921,79.330 91.417,79.303 91.912,79.278 92.407,79.254 92.903,79.231 93.398,79.207 93.893,79.184 94.388,79.161 94.884,79.138 95.379,79.115 95.874,79.092 96.370,79.069 96.865,79.046 97.360,79.024 97.855,79.001 98.351,78.978 98.846,78.955 99.341,78.932 99.837,78.909 100.332,78.886 100.827,78.863 101.322,78.840 101.818,78.817 102.313,78.794 102.808,78.771 103.304,78.748 103.799,78.725 104.294,78.702 104.789,78.679 105.285,78.656 105.780,78.633 106.275,78.610 106.771,78.587 107.266,78.564 107.761,78.541 108.256,78.518 108.752,78.496 109.247,78.473 109.742,78.450 110.238,78.427 110.733,78.404 111.228,78.381 111.723,78.358 112.219,78.335 112.714,78.312 113.209,78.289 113.705,78.266 114.200,78.243 114.695,78.220 115.190,78.196 115.686,78.173 116.181,78.150 116.676,78.127 117.171,78.104 117.667,78.081 118.162,78.058 118.657,78.035 119.153,78.012 119.648,77.989 120.143,77.966 120.638,77.943 121.134,77.920 121.629,77.897 122.124,77.874 122.620,77.851 123.115,77.828 123.610,77.805 124.105,77.782 124.601,77.759 125.096,77.736 125.591,77.713 126.087,77.690 126.582,77.666 127.077,77.643 127.572,77.620 128.068,77.597 128.563,77.574 129.058,77.551 129.554,77.528 130.049,77.505 130.544,77.482 131.039,77.459 131.535,77.436 132.030,77.413 132.525,77.389 133.021,77.366 133.516,77.343 134.011,77.320 134.506,77.297 135.002,77.274 135.497,77.251 135.992,77.228 136.488,77.205 136.983,77.181 137.478,77.158 137.973,77.135 138.469,77.112 138.964,77.089 139.459,77.066 139.955,77.043 140.450,77.019 140.945,76.996 141.440,76.973 141.936,76.950 142.431,76.927 142.926,76.904 143.422,76.881 143.917,76.857 144.412,76.834 144.907,76.811 145.403,76.788 145.898,76.765 146.393,76.742 146.889,76.718 147.384,76.695 147.879,76.672 148.374,76.649 148.870,76.626 149.365,76.603 149.860,76.579 150.356,76.556 150.851,76.533 151.346,76.510 151.841,76.487 152.337,76.463 152.832,76.440 153.327,76.417 153.823,76.394 154.318,76.371 154.813,76.347 155.308,76.324 155.804,76.301 156.299,76.278 156.794,76.254 157.290,76.231 157.785,76.208 158.280,76.185 158.775,76.162 159.271,76.138 159.766,76.115 160.261,76.092 160.757,76.069 161.252,76.045 161.747,76.022 162.242,75.999 162.738,75.976 163.233,75.952 163.728,75.929 164.224,75.906 164.719,75.883 165.214,75.859 165.709,75.836 166.205,75.813 166.700,75.790 167.195,75.766 167.690,75.743 168.186,75.720 168.681,75.696 169.176,75.673 169.672,75.650 170.167,75.627 170.662,75.603 171.157,75.580 171.653,75.557 172.148,75.533 172.643,75.510 173.139,75.487 173.634,75.464 174.129,75.440 174.624,75.417 175.120,75.394 175.615,75.370 176.110,75.347 176.606,75.324 177.101,75.300 177.596,75.277 178.091,75.254 178.587,75.230 179.082,75.207 179.577,75.184 180.073,75.160 180.568,75.137 181.063,75.114 181.558,75.090 182.054,75.067 182.549,75.044 183.044,75.020 183.540,74.997 184.035,74.974 184.530,74.950 185.025,74.927 185.521,74.904 186.016,74.880 186.511,74.857 187.007,74.833 187.502,74.810 187.997,74.787 188.492,74.763 188.988,74.740 189.483,74.717 189.978,74.693 190.474,74.670 190.969,74.646 191.464,74.623 191.959,74.600 192.455,74.576 192.950,74.553 193.445,74.529 193.941,74.506 194.436,74.483 194.931,74.459 195.426,74.436 195.922,74.412 196.417,74.389 196.912,74.366 197.408,74.342 197.903,74.319 198.398,74.295 198.893,74.272 199.389,74.248 199.884,74.225 200.379,74.202 200.875,74.178 201.370,74.155 201.865,74.131 202.360,74.108 202.856,74.084 203.351,74.061 203.846,74.037 204.342,74.014 204.837,73.991 205.332,73.967 205.827,73.944 206.323,73.920 206.818,73.897 207.313,73.873 207.809,73.850 208.304,73.826 208.799,73.803 209.294,73.779 209.790,73.756 210.285,73.732 210.780,73.709 211.276,73.685 211.771,73.662 212.266,73.638 212.761,73.615 213.257,73.591 213.752,73.568 214.247,73.544 214.743,73.521 215.238,73.497 215.733,73.474 216.228,73.450 216.724,73.427 217.219,73.403 217.714,73.380 218.210,73.356 218.705,73.333 219.200,73.309 219.695,73.286 220.191,73.262 220.686,73.239 221.181,73.215 221.676,73.191 222.172,73.168 222.667,73.144 223.162,73.121 223.658,73.097 224.153,73.074 224.648,73.050 225.143,73.027 225.639,73.003 226.134,72.979 226.629,72.956 227.125,72.932 227.620,72.909 228.115,72.885 228.610,72.862 229.106,72.838 229.601,72.814 230.096,72.791 230.592,72.767 231.087,72.744 231.582,72.720 232.077,72.697 232.573,72.673 233.068,72.649 233.563,72.626 234.059,72.602 234.554,72.579 235.049,72.555 235.544,72.531 236.040,72.508 236.535,72.484 237.030,72.460 237.526,72.437 238.021,72.413 238.516,72.390 239.011,72.366 239.507,72.342 240.002,72.319 240.497,72.295 240.993,72.271 241.488,72.248 241.983,72.224 242.478,72.200 242.974,72.177 243.469,72.153 243.964,72.130 244.460,72.106 244.955,72.082 245.450,72.059 245.945,72.035 246.441,72.011 246.936,71.988 247.431,71.964 247.927,71.940 248.422,71.917 248.917,71.893 249.412,71.869 249.908,71.845 250.403,71.822 250.898,71.798 251.394,71.774 251.889,71.751 252.384,71.727 252.879,71.703 253.375,71.680 253.870,71.656 254.365,71.632 254.861,71.609 255.356,71.585 255.851,71.561 256.346,71.537 256.842,71.514 257.337,71.490 257.832,71.466 258.328,71.442 258.823,71.419 259.318,71.395 259.813,71.371 260.309,71.348 260.804,71.324 261.299,71.300 261.795,71.276 262.290,71.253 262.785,71.229 263.280,71.205 263.776,71.181 264.271,71.158 264.766,71.134 265.262,71.110 265.757,71.086 266.252,71.063 266.747,71.039 267.243,71.015 267.738,70.991 268.233,70.967 268.729,70.944 269.224,70.920 269.719,70.896 270.214,70.872 270.710,70.849 271.205,70.825 271.700,70.801 272.195,70.777 272.691,70.753 273.186,70.730 273.681,70.706 274.177,70.682 274.672,70.658 275.167,70.634 275.662,70.611 276.158,70.587 276.653,70.563 277.148,70.539 277.644,70.515 278.139,70.491 278.634,70.468 279.129,70.444 279.625,70.420 280.120,70.396 280.615,70.372 281.111,70.348 281.606,70.325 282.101,70.301 282.596,70.277 283.092,70.253 283.587,70.229 284.082,70.205 284.578,70.181 285.073,70.158 285.568,70.134 286.063,70.110 286.559,70.086 287.054,70.062 287.549,70.038 288.045,70.014 288.540,69.991 289.035,69.967 289.530,69.943 290.026,69.919 290.521,69.895 291.016,69.871 291.512,69.847 292.007,69.823 292.502,69.799 292.997,69.775 293.493,69.752 293.988,69.728 294.483,69.704 294.979,69.680 295.474,69.656 295.969,69.632 296.464,69.608 296.960,69.584 297.455,69.560 297.950,69.536 298.446,69.512 298.941,69.488 299.436,69.465 299.931,69.441 300.427,69.417 300.922,69.393 301.417,69.369 301.913,69.345 302.408,69.321 302.903,69.297 303.398,69.273 303.894,69.249 304.389,69.225 304.884,69.201 305.380,69.177 305.875,69.153 306.370,69.129 306.865,69.105 307.361,69.081 307.856,69.057 308.351,69.033 308.847,69.009 309.342,68.985 309.837,68.961 310.332,68.937 310.828,68.913 311.323,68.889 311.818,68.865 312.314,68.841 312.809,68.817 313.304,68.793 313.799,68.769 314.295,68.745 314.790,68.721 315.285,68.697 315.781,68.673 316.276,68.649 316.771,68.625 317.266,68.601 317.762,68.577 318.257,68.553 318.752,68.529 319.248,68.505 319.743,68.481 320.238,68.457 320.733,68.433 321.229,68.409 321.724,68.385 322.219,68.361 322.714,68.337 323.210,68.313 323.705,68.289 324.200,68.265 324.696,68.241 325.191,68.217 325.686,68.192 326.181,68.168 326.677,68.144 327.172,68.120 327.667,68.096 328.163,68.072 328.658,68.048 329.153,68.024 329.648,68.000 330.144,67.976 330.639,67.952 331.134,67.928 331.630,67.903 332.125,67.879 332.620,67.855 333.115,67.831 333.611,67.807 334.106,67.783 334.601,67.759 335.097,67.735 335.592,67.711 336.087,67.686 336.582,67.662 337.078,67.638 337.573,67.614 338.068,67.590 338.564,67.566 339.059,67.542 339.554,67.518 340.049,67.493 340.545,67.469 341.040,67.445 341.535,67.421 342.031,67.397 342.526,67.373 343.021,67.349 343.516,67.324 344.012,67.300 344.507,67.276 345.002,67.252 345.498,67.228 345.993,67.204 346.488,67.179 346.983,67.155 347.479,67.131 347.974,67.107 348.469,67.083 348.965,67.058 349.460,67.034 349.955,67.010 350.450,66.986 350.946,66.962 351.441,66.937 351.936,66.913 352.432,66.889 352.927,66.865 353.422,66.841 353.917,66.816 354.413,66.792 354.908,66.768 355.403,66.744 355.899,66.720 356.394,66.695 356.889,66.671 357.384,66.647 357.880,66.623 358.375,66.598 358.870,66.574 359.366,66.550 359.861,66.526 360.356,66.501 360.851,66.477 361.347,66.453 361.842,66.429 362.337,66.404 362.833,66.380 363.328,66.356 363.823,66.332 364.318,66.307 364.814,66.283 365.309,66.259 365.804,66.235 366.300,66.210 366.795,66.186 367.290,66.162 367.785,66.137 368.281,66.113 368.776,66.089 369.271,66.065 369.767,66.040 370.262,66.016 370.757,65.992 371.252,65.967 371.748,65.943 372.243,65.919 372.738,65.894 373.234,65.870 373.729,65.846 374.224,65.822 374.719,65.797 375.215,65.773 375.710,65.749 376.205,65.724 376.700,65.700 377.196,65.676 377.691,65.651 378.186,65.627 378.682,65.603 379.177,65.578 379.672,65.554 380.167,65.530 380.663,65.505 381.158,65.481 381.653,65.456 382.149,65.432 382.644,65.408 383.139,65.383 383.634,65.359 384.130,65.335 384.625,65.310 385.120,65.286 385.616,65.262 386.111,65.237 386.606,65.213 387.101,65.188 387.597,65.164 388.092,65.140 388.587,65.115 389.083,65.091 389.578,65.066 390.073,65.042 390.568,65.018 391.064,64.993 391.559,64.969 392.054,64.944 392.550,64.920 393.045,64.896 393.540,64.871 394.035,64.847 394.531,64.822 395.026,64.798 395.521,64.774 396.017,64.749 396.512,64.725 397.007,64.700 397.502,64.676 397.998,64.651 398.493,64.627 398.988,64.602 399.484,64.578 399.979,64.554 400.474,64.529 400.969,64.505 401.465,64.480 401.960,64.456 402.455,64.431 402.951,64.407 403.446,64.382 403.941,64.358 404.436,64.333 404.932,64.309 405.427,64.284 405.922,64.260 406.418,64.235 406.913,64.211 407.408,64.187 407.903,64.162 408.399,64.138 408.894,64.113 409.389,64.089 409.885,64.064 410.380,64.040 410.875,64.015 411.370,63.991 411.866,63.966 412.361,63.941 412.856,63.917 413.352,63.892 413.847,63.868 414.342,63.843 414.837,63.819 415.333,63.794 415.828,63.770 416.323,63.745 416.819,63.721 417.314,63.696 417.809,63.672 418.304,63.647 418.800,63.623 419.295,63.598 419.790,63.573 420.286,63.549 420.781,63.524 421.276,63.500 421.771,63.475 422.267,63.451 422.762,63.426 423.257,63.402 423.753,63.377 424.248,63.352 424.743,63.328 425.238,63.303 425.734,63.279 426.229,63.254 426.724,63.229 427.219,63.205 427.715,63.180 428.210,63.156 428.705,63.131 429.201,63.106 429.696,63.082 430.191,63.057 430.686,63.033 431.182,63.008 431.677,62.983 432.172,62.959 432.668,62.934 433.163,62.910 433.658,62.885 434.153,62.860 434.649,62.836 435.144,62.811 435.639,62.786 436.135,62.762 436.630,62.737 437.125,62.712 437.620,62.688 438.116,62.663 438.611,62.639 439.106,62.614 439.602,62.589 440.097,62.565 440.592,62.540 441.087,62.515 441.583,62.491 442.078,62.466 442.573,62.441 443.069,62.417 443.564,62.392 444.059,62.367 444.554,62.343 445.050,62.318 445.545,62.293 446.040,62.268 446.536,62.244 447.031,62.219 447.526,62.194 448.021,62.170 448.517,62.145 449.012,62.120 449.507,62.096 450.003,62.071 450.498,62.046 450.993,62.021 451.488,61.997 451.984,61.972 452.479,61.947 452.974,61.923 453.470,61.898 453.965,61.873 454.460,61.848 454.955,61.824 455.451,61.799 455.946,61.774 456.441,61.749 456.937,61.725 457.432,61.700 457.927,61.675 458.422,61.650 458.918,61.626 459.413,61.601 459.908,61.576 460.404,61.551 460.899,61.527 461.394,61.502 461.889,61.477 462.385,61.452 462.880,61.427 463.375,61.403 463.871,61.378 464.366,61.353 464.861,61.328 465.356,61.304 465.852,61.279 466.347,61.254 466.842,61.229 467.338,61.204 467.833,61.180 468.328,61.155 468.823,61.130 469.319,61.105 469.814,61.080 470.309,61.055 470.805,61.031 471.300,61.006 471.795,60.981 472.290,60.956 472.786,60.931 473.281,60.907 473.776,60.882 474.272,60.857 474.767,60.832 475.262,60.807 475.757,60.782 476.253,60.757 476.748,60.733 477.243,60.708 477.738,60.683 478.234,60.658 478.729,60.633 479.224,60.608 479.720,60.583 480.215,60.559 480.710,60.534 481.205,60.509 481.701,60.484 482.196,60.459 482.691,60.434 483.187,60.409 483.682,60.384 484.177,60.360 484.672,60.335 485.168,60.310 485.663,60.285 486.158,60.260 486.654,60.235 487.149,60.210 487.644,60.185 488.139,60.160 488.635,60.135 489.130,60.110 489.625,60.086 490.121,60.061 490.616,60.036 491.111,60.011 491.606,59.986 492.102,59.961 492.597,59.936 493.092,59.911 493.588,59.886 494.083,59.861 494.578,59.836 495.073,59.811 495.569,59.786 496.064,59.761 496.559,59.736 497.055,59.711 497.550,59.687 498.045,59.662 498.540,59.637 499.036,59.612 499.531,59.587 500.026,59.562 500.522,59.537 501.017,59.512 501.512,59.487 502.007,59.462 502.503,59.437 502.998,59.412 503.493,59.387 503.989,59.362 504.484,59.337 504.979,59.312 505.474,59.287 505.970,59.262 506.465,59.237 506.960,59.212 507.456,59.187 507.951,59.162 508.446,59.137 508.941,59.112 509.437,59.087 509.932,59.062 510.427,59.037 510.923,59.012 511.418,58.987 511.913,58.961 512.408,58.936 512.904,58.911 513.399,58.886 513.894,58.861 514.390,58.836 514.885,58.811 515.380,58.786 515.875,58.761 516.371,58.736 516.866,58.711 517.361,58.686 517.857,58.661 518.352,58.636 518.847,58.611 519.342,58.586 519.838,58.561 520.333,58.535 520.828,58.510 521.324,58.485 521.819,58.460 522.314,58.435 522.809,58.410 523.305,58.385 523.800,58.360 524.295,58.335 524.791,58.310 525.286,58.284 525.781,58.259 526.276,58.234 526.772,58.209 527.267,58.184 527.762,58.159 528.258,58.134 528.753,58.109 529.248,58.084 529.743,58.058 530.239,58.033 530.734,58.008 531.229,57.983 531.724,57.958 532.220,57.933 532.715,57.908 533.210,57.882 533.706,57.857 534.201,57.832 534.696,57.807 535.191,57.782 535.687,57.757 536.182,57.731 536.677,57.706 537.173,57.681 537.668,57.656 538.163,57.631 538.658,57.606 539.154,57.580 539.649,57.555 540.144,57.530 540.640,57.505 541.135,57.480 541.630,57.454 542.125,57.429 542.621,57.404 543.116,57.379 543.611,57.354 544.107,57.328 544.602,57.303 545.097,57.278 545.592,57.253 546.088,57.228 546.583,57.202 547.078,57.177 547.574,57.152 548.069,57.127 548.564,57.101 549.059,57.076 549.555,57.051 550.050,57.026 550.545,57.000 551.041,56.975 551.536,56.950 552.031,56.925 552.526,56.899 553.022,56.874 553.517,56.849 554.012,56.824 554.508,56.798 555.003,56.773 555.498,56.748 555.993,56.723 556.489,56.697 556.984,56.672 557.479,56.647 557.975,56.621 558.470,56.596 558.965,56.571 559.460,56.546 559.956,56.520 560.451,56.495 560.946,56.470 561.442,56.444 561.937,56.419 562.432,56.394 562.927,56.368 563.423,56.343 563.918,56.318 564.413,56.293 564.909,56.267 565.404,56.242 565.899,56.217 566.394,56.191 566.890,56.166 567.385,56.141 567.880,56.115 568.376,56.090 568.871,56.065 569.366,56.039 569.861,56.014 570.357,55.989 570.852,55.963 571.347,55.938 571.843,55.912 572.338,55.887 572.833,55.862 573.328,55.836 573.824,55.811 574.319,55.786 574.814,55.760 575.310,55.735 575.805,55.709 576.300,55.684 576.795,55.659 577.291,55.633 577.786,55.608 "/>
<g>
</g>
</g>
<g id="ID000007" >
  <g transform="translate(330.391,15.469)">
    <g transform="rotate(-0.0)">
      <text x="0.000" y="0.000" font-family="Times New Roman" text-anchor="middle" font-size="11pt" fill="#000000" >$rho_{1} = 0.75\$ $</text>
    </g>
  </g>
</g>
<g id="ID000008" >
</g>
<g id="ID000009" >
</g>
    </g>
    <g>
      <polyline fill="none" stroke="#000000" stroke-width="0.5pt" stroke-dasharray="none" points="153.681,242.812 153.681,237.865 "/>
      <polyline fill="none" stroke="#000000" stroke-width="0.5pt" stroke-dasharray="none" points="224.365,242.812 224.365,237.865 "/>
      <polyline fill="none" stroke="#000000" stroke-width="0.5pt" stroke-dasharray="none" points="295.049,242.812 295.049,237.865 "/>
      <polyline fill="none" stroke="#000000" stroke-width="0.5pt" stroke-dasharray="none" points="365.733,242.812 365.733,237.865 "/>
      <polyline fill="none" stroke="#000000" stroke-width="0.5pt" stroke-dasharray="none" points="436.418,242.812 436.418,237.865 "/>
      <polyline fill="none" stroke="#000000" stroke-width="0.5pt" stroke-dasharray="none" points="507.102,242.812 507.102,237.865 "/>
      <polyline fill="none" stroke="#000000" stroke-width="0.5pt" stroke-dasharray="none" points="82.997,242.812 577.786,242.812 "/>
      <polyline fill="none" stroke="#000000" stroke-width="0.5pt" stroke-dasharray="none" points="153.681,25.312 153.681,30.260 "/>
      <polyline fill="none" stroke="#000000" stroke-width="0.5pt" stroke-dasharray="none" points="224.365,25.312 224.365,30.260 "/>
      <polyline fill="none" stroke="#000000" stroke-width="0.5pt" stroke-dasharray="none" points="295.049,25.312 295.049,30.260 "/>
      <polyline fill="none" stroke="#000000" stroke-width="0.5pt" stroke-dasharray="none" points="365.733,25.312 365.733,30.260 "/>
      <polyline fill="none" stroke="#000000" stroke-width="0.5pt" stroke-dasharray="none" points="436.418,25.312 436.418,30.260 "/>
      <polyline fill="none" stroke="#000000" stroke-width="0.5pt" stroke-dasharray="none" points="507.102,25.312 507.102,30.260 "/>
      <polyline fill="none" stroke="#000000" stroke-width="0.5pt" stroke-dasharray="none" points="82.997,25.312 577.786,25.312 "/>
  <g transform="translate(82.997,260.437)">
    <g transform="rotate(-0.0)">
      <text x="0.000" y="0.000" font-family="Times New Roman" text-anchor="middle" font-size="11pt" fill="#000000" >0</text>
    </g>
  </g>
  <g transform="translate(153.681,260.437)">
    <g transform="rotate(-0.0)">
      <text x="0.000" y="0.000" font-family="Times New Roman" text-anchor="middle" font-size="11pt" fill="#000000" >0.05</text>
    </g>
  </g>
  <g transform="translate(224.365,260.437)">
    <g transform="rotate(-0.0)">
      <text x="0.000" y="0.000" font-family="Times New Roman" text-anchor="middle" font-size="11pt" fill="#000000" >0.1</text>
    </g>
  </g>
  <g transform="translate(295.049,260.437)">
    <g transform="rotate(-0.0)">
      <text x="0.000" y="0.000" font-family="Times New Roman" text-anchor="middle" font-size="11pt" fill="#000000" >0.15</text>
    </g>
  </g>
  <g transform="translate(365.733,260.437)">
    <g transform="rotate(-0.0)">
      <text x="0.000" y="0.000" font-family="Times New Roman" text-anchor="middle" font-size="11pt" fill="#000000" >0.2</text>
    </g>
  </g>
  <g transform="translate(436.418,260.437)">
    <g transform="rotate(-0.0)">
      <text x="0.000" y="0.000" font-family="Times New Roman" text-anchor="middle" font-size="11pt" fill="#000000" >0.25</text>
    </g>
  </g>
  <g transform="translate(507.102,260.437)">
    <g transform="rotate(-0.0)">
      <text x="0.000" y="0.000" font-family="Times New Roman" text-anchor="middle" font-size="11pt" fill="#000000" >0.3</text>
    </g>
  </g>
  <g transform="translate(577.786,260.437)">
    <g transform="rotate(-0.0)">
      <text x="0.000" y="0.000" font-family="Times New Roman" text-anchor="middle" font-size="11pt" fill="#000000" >0.35</text>
    </g>
  </g>
      <polyline fill="none" stroke="#000000" stroke-width="0.5pt" stroke-dasharray="none" points="82.997,188.437 87.945,188.437 "/>
      <polyline fill="none" stroke="#000000" stroke-width="0.5pt" stroke-dasharray="none" points="82.997,134.062 87.945,134.062 "/>
      <polyline fill="none" stroke="#000000" stroke-width="0.5pt" stroke-dasharray="none" points="82.997,79.687 87.945,79.687 "/>
      <polyline fill="none" stroke="#000000" stroke-width="0.5pt" stroke-dasharray="none" points="82.997,242.812 82.997,25.312 "/>
      <polyline fill="none" stroke="#000000" stroke-width="0.5pt" stroke-dasharray="none" points="577.786,188.437 572.838,188.437 "/>
      <polyline fill="none" stroke="#000000" stroke-width="0.5pt" stroke-dasharray="none" points="577.786,134.062 572.838,134.062 "/>
      <polyline fill="none" stroke="#000000" stroke-width="0.5pt" stroke-dasharray="none" points="577.786,79.687 572.838,79.687 "/>
      <polyline fill="none" stroke="#000000" stroke-width="0.5pt" stroke-dasharray="none" points="577.786,242.812 577.786,25.312 "/>
  <g transform="translate(73.101,247.875)">
    <g transform="rotate(-0.0)">
      <text x="0.000" y="0.000" font-family="Times New Roman" text-anchor="end" font-size="11pt" fill="#000000" >1</text>
    </g>
  </g>
  <g transform="translate(73.101,193.500)">
    <g transform="rotate(-0.0)">
      <text x="0.000" y="0.000" font-family="Times New Roman" text-anchor="end" font-size="11pt" fill="#000000" >2</text>
    </g>
  </g>
  <g transform="translate(73.101,139.125)">
    <g transform="rotate(-0.0)">
      <text x="0.000" y="0.000" font-family="Times New Roman" text-anchor="end" font-size="11pt" fill="#000000" >3</text>
    </g>
  </g>
  <g transform="translate(73.101,84.750)">
    <g transform="rotate(-0.0)">
      <text x="0.000" y="0.000" font-family="Times New Roman" text-anchor="end" font-size="11pt" fill="#000000" >4</text>
    </g>
  </g>
  <g transform="translate(73.101,30.375)">
    <g transform="rotate(-0.0)">
      <text x="0.000" y="0.000" font-family="Times New Roman" text-anchor="end" font-size="11pt" fill="#000000" >5</text>
    </g>
  </g>
      <polyline fill="none" stroke="#000000" stroke-width="0.5pt" stroke-dasharray="none" points="82.997,242.812 82.997,240.637 "/>
      <polyline fill="none" stroke="#000000" stroke-width="0.5pt" stroke-dasharray="none" points="82.997,242.812 82.997,242.812 "/>
    </g>
  </g>
  <g id ="ID000010">
  <clipPath id="ID000011">
    <rect x="331.719" y="172.656" width="240.937" height="65.313"/>
  </clipPath>
      <polygon fill="#ffffff" fill-opacity="1.00" stroke="none" stroke-width="0.5pt" stroke-opacity="1.00" stroke-dasharray="none" points="331.719,237.969 572.656,237.969 572.656,172.656 331.719,172.656 "/>
      <polygon fill="#ffffff" fill-opacity="1.00" stroke="none" stroke-width="0.5pt" stroke-opacity="1.00" stroke-dasharray="none" points="331.719,172.656 572.656,172.656 572.656,172.656 331.719,172.656 "/>
      <polygon fill="#ffffff" fill-opacity="1.00" stroke="none" stroke-width="0.5pt" stroke-opacity="1.00" stroke-dasharray="none" points="331.719,237.969 331.719,237.969 331.719,172.656 331.719,172.656 "/>
    <g>
<g id="ID000012" >
  <g transform="translate(380.937,190.315)">
    <g transform="rotate(-0.0)">
      <text x="0.000" y="0.000" font-family="Times New Roman" text-anchor="start" font-size="11pt" fill="#000000" >$\Lambda=1\times 10^{-4}$</text>
    </g>
  </g>
</g>
<g id="ID000013" clip-path="url(#ID000011)" >
      <polyline fill="none" stroke="#000000" stroke-width="0.5pt" stroke-dasharray="none" points="339.219,185.000 376.719,185.000 "/>
<g>
</g>
</g>
<g id="ID000014" clip-path="url(#ID000011)" >
<g>
</g>
</g>
<g id="ID000015" >
  <g transform="translate(380.937,211.775)">
    <g transform="rotate(-0.0)">
      <text x="0.000" y="0.000" font-family="Times New Roman" text-anchor="start" font-size="11pt" fill="#000000" >$\Lambda=1\times 10^{-5}$</text>
    </g>
  </g>
</g>
<g id="ID000016" clip-path="url(#ID000011)" >
      <polyline fill="none" stroke="#000000" stroke-width="0.5pt" stroke-dasharray="8.0,2.0,2.0,2.0" points="339.219,205.313 376.719,205.313 "/>
<g>
</g>
</g>
<g id="ID000017" clip-path="url(#ID000011)" >
<g>
</g>
</g>
<g id="ID000018" >
  <g transform="translate(380.937,232.301)">
    <g transform="rotate(-0.0)">
      <text x="0.000" y="0.000" font-family="Times New Roman" text-anchor="start" font-size="11pt" fill="#000000" >$\Lambda=1\times 10^{-6}$</text>
    </g>
  </g>
</g>
<g id="ID000019" clip-path="url(#ID000011)" >
      <polyline fill="none" stroke="#000000" stroke-width="0.5pt" stroke-dasharray="2.0,2.0" points="339.219,225.625 376.719,225.625 "/>
<g>
</g>
</g>
<g id="ID000020" clip-path="url(#ID000011)" >
<g>
</g>
</g>
<g id="ID000021" >
</g>
<g id="ID000022" >
</g>
<g id="ID000023" >
</g>
    </g>
    <g>
      <polyline fill="none" stroke="#000000" stroke-width="0.5pt" stroke-dasharray="none" points="331.719,237.969 572.656,237.969 "/>
      <polyline fill="none" stroke="#000000" stroke-width="0.5pt" stroke-dasharray="none" points="331.719,172.656 572.656,172.656 "/>
      <polyline fill="none" stroke="#000000" stroke-width="0.5pt" stroke-dasharray="none" points="331.719,237.969 331.719,172.656 "/>
      <polyline fill="none" stroke="#000000" stroke-width="0.5pt" stroke-dasharray="none" points="572.656,237.969 572.656,172.656 "/>
      <polyline fill="none" stroke="#000000" stroke-width="0.5pt" stroke-dasharray="none" points="331.719,237.969 331.719,237.316 "/>
      <polyline fill="none" stroke="#000000" stroke-width="0.5pt" stroke-dasharray="none" points="331.719,237.969 331.719,237.969 "/>
    </g>
  </g>
  </g>
</svg>
