<?xml version="1.0" encoding="utf-8" standalone="no"?><!DOCTYPE svg PUBLIC "-//W3C//DTD SVG 1.1//EN" "http://www.w3.org/Graphics/SVG/1.1/DTD/svg11.dtd">
<svg preserveAspectRatio="xMinYMin meet" width="100%" height="100%" viewBox="0 0 638.438 284.063"  version="1.1" xmlns="http://www.w3.org/2000/svg" xmlns:xlink="http://www.w3.org/1999/xlink">
  <desc>Matlab Figure Converted by PLOT2SVG written by Juerg Schwizer</desc>
  <g id="topgroup">
  <rect x="0" y="0" width="638.438" height="284.063" fill="#ffffff" stroke="none" />
  <g id ="ID000000">
  <clipPath id="ID000001">
    <rect x="82.997" y="26.250" width="494.789" height="216.562"/>
  </clipPath>
      <polygon fill="#ffffff" fill-opacity="1.00" stroke="none" stroke-width="0.5pt" stroke-opacity="1.00" stroke-dasharray="none" points="82.997,242.812 577.786,242.812 577.786,26.250 82.997,26.250 "/>
      <polygon fill="#ffffff" fill-opacity="1.00" stroke="none" stroke-width="0.5pt" stroke-opacity="1.00" stroke-dasharray="none" points="82.997,26.250 577.786,26.250 577.786,26.250 82.997,26.250 "/>
      <polygon fill="#ffffff" fill-opacity="1.00" stroke="none" stroke-width="0.5pt" stroke-opacity="1.00" stroke-dasharray="none" points="82.997,242.812 82.997,242.812 82.997,26.250 82.997,26.250 "/>
    <g>
<g id="ID000002" clip-path="url(#ID000001)" >
      <polyline fill="none" stroke="#000000" stroke-width="0.5pt" stroke-dasharray="none" points="82.997,26.250 83.492,27.385 83.987,28.514 84.483,29.636 84.978,30.752 85.473,31.862 85.969,32.966 86.464,34.063 86.959,35.154 87.454,36.240 87.950,37.319 88.445,38.392 88.940,39.459 89.436,40.520 89.931,41.576 90.426,42.625 90.921,43.668 91.417,44.706 91.912,45.738 92.407,46.764 92.903,47.784 93.398,48.799 93.893,49.808 94.388,50.811 94.884,51.809 95.379,52.801 95.874,53.788 96.370,54.769 96.865,55.744 97.360,56.715 97.855,57.679 98.351,58.639 98.846,59.593 99.341,60.541 99.837,61.485 100.332,62.423 100.827,63.356 101.322,64.283 101.818,65.206 102.313,66.123 102.808,67.035 103.304,67.942 103.799,68.844 104.294,69.741 104.789,70.633 105.285,71.520 105.780,72.402 106.275,73.279 106.771,74.151 107.266,75.018 107.761,75.881 108.256,76.738 108.752,77.591 109.247,78.439 109.742,79.282 110.238,80.121 110.733,80.955 111.228,81.784 111.723,82.609 112.219,83.429 112.714,84.244 113.209,85.055 113.705,85.861 114.200,86.663 114.695,87.461 115.190,88.253 115.686,89.042 116.181,89.826 116.676,90.606 117.171,91.381 117.667,92.152 118.162,92.919 118.657,93.681 119.153,94.439 119.648,95.193 120.143,95.943 120.638,96.688 121.134,97.429 121.629,98.167 122.124,98.900 122.620,99.629 123.115,100.353 123.610,101.074 124.105,101.791 124.601,102.504 125.096,103.213 125.591,103.917 126.087,104.618 126.582,105.315 127.077,106.008 127.572,106.698 128.068,107.383 128.563,108.065 129.058,108.742 129.554,109.416 130.049,110.086 130.544,110.753 131.039,111.415 131.535,112.074 132.030,112.730 132.525,113.381 133.021,114.029 133.516,114.674 134.011,115.315 134.506,115.952 135.002,116.585 135.497,117.216 135.992,117.842 136.488,118.465 136.983,119.085 137.478,119.701 137.973,120.314 138.469,120.923 138.964,121.529 139.459,122.131 139.955,122.730 140.450,123.326 140.945,123.919 141.440,124.508 141.936,125.093 142.431,125.676 142.926,126.255 143.422,126.831 143.917,127.404 144.412,127.974 144.907,128.540 145.403,129.104 145.898,129.664 146.393,130.221 146.889,130.775 147.384,131.325 147.879,131.873 148.374,132.418 148.870,132.959 149.365,133.498 149.860,134.034 150.356,134.566 150.851,135.096 151.346,135.622 151.841,136.146 152.337,136.667 152.832,137.185 153.327,137.700 153.823,138.212 154.318,138.721 154.813,139.227 155.308,139.731 155.804,140.232 156.299,140.730 156.794,141.225 157.290,141.717 157.785,142.207 158.280,142.694 158.775,143.178 159.271,143.659 159.766,144.138 160.261,144.614 160.757,145.088 161.252,145.559 161.747,146.027 162.242,146.492 162.738,146.955 163.233,147.416 163.728,147.873 164.224,148.329 164.719,148.781 165.214,149.232 165.709,149.679 166.205,150.124 166.700,150.567 167.195,151.007 167.690,151.445 168.186,151.880 168.681,152.313 169.176,152.743 169.672,153.171 170.167,153.597 170.662,154.020 171.157,154.441 171.653,154.860 172.148,155.276 172.643,155.690 173.139,156.101 173.634,156.511 174.129,156.918 174.624,157.322 175.120,157.725 175.615,158.125 176.110,158.523 176.606,158.919 177.101,159.312 177.596,159.703 178.091,160.092 178.587,160.479 179.082,160.864 179.577,161.247 180.073,161.627 180.568,162.006 181.063,162.382 181.558,162.756 182.054,163.128 182.549,163.498 183.044,163.866 183.540,164.232 184.035,164.596 184.530,164.958 185.025,165.317 185.521,165.675 186.016,166.031 186.511,166.385 187.007,166.736 187.502,167.086 187.997,167.434 188.492,167.780 188.988,168.124 189.483,168.466 189.978,168.806 190.474,169.144 190.969,169.481 191.464,169.815 191.959,170.148 192.455,170.479 192.950,170.808 193.445,171.135 193.941,171.460 194.436,171.783 194.931,172.105 195.426,172.425 195.922,172.743 196.417,173.059 196.912,173.373 197.408,173.686 197.903,173.997 198.398,174.306 198.893,174.614 199.389,174.920 199.884,175.224 200.379,175.526 200.875,175.827 201.370,176.126 201.865,176.423 202.360,176.719 202.856,177.013 203.351,177.305 203.846,177.596 204.342,177.885 204.837,178.173 205.332,178.459 205.827,178.743 206.323,179.026 206.818,179.307 207.313,179.587 207.809,179.865 208.304,180.141 208.799,180.416 209.294,180.689 209.790,180.961 210.285,181.231 210.780,181.500 211.276,181.768 211.771,182.033 212.266,182.298 212.761,182.561 213.257,182.822 213.752,183.082 214.247,183.340 214.743,183.597 215.238,183.853 215.733,184.107 216.228,184.360 216.724,184.611 217.219,184.861 217.714,185.110 218.210,185.357 218.705,185.603 219.200,185.847 219.695,186.090 220.191,186.332 220.686,186.572 221.181,186.811 221.676,187.049 222.172,187.285 222.667,187.520 223.162,187.754 223.658,187.986 224.153,188.217 224.648,188.447 225.143,188.675 225.639,188.903 226.134,189.129 226.629,189.353 227.125,189.577 227.620,189.799 228.115,190.020 228.610,190.240 229.106,190.458 229.601,190.675 230.096,190.891 230.592,191.106 231.087,191.320 231.582,191.532 232.077,191.744 232.573,191.954 233.068,192.163 233.563,192.370 234.059,192.577 234.554,192.782 235.049,192.987 235.544,193.190 236.040,193.392 236.535,193.593 237.030,193.792 237.526,193.991 238.021,194.189 238.516,194.385 239.011,194.580 239.507,194.775 240.002,194.968 240.497,195.160 240.993,195.351 241.488,195.541 241.983,195.730 242.478,195.917 242.974,196.104 243.469,196.290 243.964,196.475 244.460,196.658 244.955,196.841 245.450,197.022 245.945,197.203 246.441,197.383 246.936,197.561 247.431,197.739 247.927,197.915 248.422,198.091 248.917,198.266 249.412,198.439 249.908,198.612 250.403,198.784 250.898,198.954 251.394,199.124 251.889,199.293 252.384,199.461 252.879,199.628 253.375,199.794 253.870,199.959 254.365,200.123 254.861,200.286 255.356,200.449 255.851,200.610 256.346,200.771 256.842,200.930 257.337,201.089 257.832,201.247 258.328,201.404 258.823,201.560 259.318,201.715 259.813,201.870 260.309,202.023 260.804,202.176 261.299,202.328 261.795,202.479 262.290,202.629 262.785,202.778 263.280,202.927 263.776,203.074 264.271,203.221 264.766,203.367 265.262,203.512 265.757,203.656 266.252,203.800 266.747,203.943 267.243,204.085 267.738,204.226 268.233,204.366 268.729,204.506 269.224,204.644 269.719,204.782 270.214,204.920 270.710,205.056 271.205,205.192 271.700,205.327 272.195,205.461 272.691,205.594 273.186,205.727 273.681,205.859 274.177,205.990 274.672,206.121 275.167,206.251 275.662,206.380 276.158,206.508 276.653,206.636 277.148,206.762 277.644,206.889 278.139,207.014 278.634,207.139 279.129,207.263 279.625,207.386 280.120,207.509 280.615,207.631 281.111,207.752 281.606,207.873 282.101,207.993 282.596,208.112 283.092,208.231 283.587,208.349 284.082,208.466 284.578,208.583 285.073,208.699 285.568,208.814 286.063,208.929 286.559,209.043 287.054,209.157 287.549,209.269 288.045,209.382 288.540,209.493 289.035,209.604 289.530,209.714 290.026,209.824 290.521,209.933 291.016,210.042 291.512,210.149 292.007,210.257 292.502,210.363 292.997,210.469 293.493,210.575 293.988,210.680 294.483,210.784 294.979,210.888 295.474,210.991 295.969,211.094 296.464,211.196 296.960,211.297 297.455,211.398 297.950,211.498 298.446,211.598 298.941,211.697 299.436,211.796 299.931,211.894 300.427,211.991 300.922,212.088 301.417,212.185 301.913,212.281 302.408,212.376 302.903,212.471 303.398,212.565 303.894,212.659 304.389,212.752 304.884,212.845 305.380,212.937 305.875,213.029 306.370,213.120 306.865,213.211 307.361,213.301 307.856,213.390 308.351,213.480 308.847,213.568 309.342,213.656 309.837,213.744 310.332,213.831 310.828,213.918 311.323,214.004 311.818,214.090 312.314,214.175 312.809,214.260 313.304,214.344 313.799,214.428 314.295,214.512 314.790,214.594 315.285,214.677 315.781,214.759 316.276,214.840 316.771,214.921 317.266,215.002 317.762,215.082 318.257,215.162 318.752,215.241 319.248,215.320 319.743,215.398 320.238,215.476 320.733,215.554 321.229,215.631 321.724,215.708 322.219,215.784 322.714,215.860 323.210,215.935 323.705,216.010 324.200,216.085 324.696,216.159 325.191,216.232 325.686,216.306 326.181,216.379 326.677,216.451 327.172,216.523 327.667,216.595 328.163,216.666 328.658,216.737 329.153,216.807 329.648,216.878 330.144,216.947 330.639,217.017 331.134,217.086 331.630,217.154 332.125,217.222 332.620,217.290 333.115,217.357 333.611,217.424 334.106,217.491 334.601,217.557 335.097,217.623 335.592,217.689 336.087,217.754 336.582,217.819 337.078,217.883 337.573,217.947 338.068,218.011 338.564,218.074 339.059,218.137 339.554,218.200 340.049,218.262 340.545,218.324 341.040,218.386 341.535,218.447 342.031,218.508 342.526,218.569 343.021,218.629 343.516,218.689 344.012,218.749 344.507,218.808 345.002,218.867 345.498,218.925 345.993,218.984 346.488,219.042 346.983,219.099 347.479,219.156 347.974,219.213 348.469,219.270 348.965,219.326 349.460,219.382 349.955,219.438 350.450,219.494 350.946,219.549 351.441,219.603 351.936,219.658 352.432,219.712 352.927,219.766 353.422,219.820 353.917,219.873 354.413,219.926 354.908,219.979 355.403,220.031 355.899,220.083 356.394,220.135 356.889,220.186 357.384,220.238 357.880,220.289 358.375,220.339 358.870,220.390 359.366,220.440 359.861,220.490 360.356,220.539 360.851,220.588 361.347,220.637 361.842,220.686 362.337,220.734 362.833,220.783 363.328,220.831 363.823,220.878 364.318,220.926 364.814,220.973 365.309,221.020 365.804,221.066 366.300,221.112 366.795,221.159 367.290,221.204 367.785,221.250 368.281,221.295 368.776,221.340 369.271,221.385 369.767,221.430 370.262,221.474 370.757,221.518 371.252,221.562 371.748,221.605 372.243,221.649 372.738,221.692 373.234,221.735 373.729,221.777 374.224,221.819 374.719,221.862 375.215,221.903 375.710,221.945 376.205,221.987 376.700,222.028 377.196,222.069 377.691,222.109 378.186,222.150 378.682,222.190 379.177,222.230 379.672,222.270 380.167,222.310 380.663,222.349 381.158,222.388 381.653,222.427 382.149,222.466 382.644,222.505 383.139,222.543 383.634,222.581 384.130,222.619 384.625,222.656 385.120,222.694 385.616,222.731 386.111,222.768 386.606,222.805 387.101,222.842 387.597,222.878 388.092,222.914 388.587,222.950 389.083,222.986 389.578,223.022 390.073,223.057 390.568,223.092 391.064,223.127 391.559,223.162 392.054,223.197 392.550,223.231 393.045,223.266 393.540,223.300 394.035,223.334 394.531,223.367 395.026,223.401 395.521,223.434 396.017,223.467 396.512,223.500 397.007,223.533 397.502,223.565 397.998,223.598 398.493,223.630 398.988,223.662 399.484,223.694 399.979,223.726 400.474,223.757 400.969,223.788 401.465,223.820 401.960,223.851 402.455,223.881 402.951,223.912 403.446,223.942 403.941,223.973 404.436,224.003 404.932,224.033 405.427,224.063 405.922,224.092 406.418,224.122 406.913,224.151 407.408,224.180 407.903,224.209 408.399,224.238 408.894,224.267 409.389,224.295 409.885,224.323 410.380,224.351 410.875,224.379 411.370,224.407 411.866,224.435 412.361,224.463 412.856,224.490 413.352,224.517 413.847,224.544 414.342,224.571 414.837,224.598 415.333,224.625 415.828,224.651 416.323,224.678 416.819,224.704 417.314,224.730 417.809,224.756 418.304,224.781 418.800,224.807 419.295,224.833 419.790,224.858 420.286,224.883 420.781,224.908 421.276,224.933 421.771,224.958 422.267,224.982 422.762,225.007 423.257,225.031 423.753,225.056 424.248,225.080 424.743,225.104 425.238,225.127 425.734,225.151 426.229,225.175 426.724,225.198 427.219,225.221 427.715,225.245 428.210,225.268 428.705,225.290 429.201,225.313 429.696,225.336 430.191,225.358 430.686,225.381 431.182,225.403 431.677,225.425 432.172,225.447 432.668,225.469 433.163,225.491 433.658,225.513 434.153,225.534 434.649,225.556 435.144,225.577 435.639,225.598 436.135,225.619 436.630,225.640 437.125,225.661 437.620,225.682 438.116,225.702 438.611,225.723 439.106,225.743 439.602,225.764 440.097,225.784 440.592,225.804 441.087,225.824 441.583,225.843 442.078,225.863 442.573,225.883 443.069,225.902 443.564,225.922 444.059,225.941 444.554,225.960 445.050,225.979 445.545,225.998 446.040,226.017 446.536,226.036 447.031,226.054 447.526,226.073 448.021,226.091 448.517,226.110 449.012,226.128 449.507,226.146 450.003,226.164 450.498,226.182 450.993,226.200 451.488,226.217 451.984,226.235 452.479,226.253 452.974,226.270 453.470,226.287 453.965,226.305 454.460,226.322 454.955,226.339 455.451,226.356 455.946,226.373 456.441,226.389 456.937,226.406 457.432,226.423 457.927,226.439 458.422,226.456 458.918,226.472 459.413,226.488 459.908,226.504 460.404,226.520 460.899,226.536 461.394,226.552 461.889,226.568 462.385,226.583 462.880,226.599 463.375,226.615 463.871,226.630 464.366,226.645 464.861,226.661 465.356,226.676 465.852,226.691 466.347,226.706 466.842,226.721 467.338,226.736 467.833,226.750 468.328,226.765 468.823,226.780 469.319,226.794 469.814,226.809 470.309,226.823 470.805,226.837 471.300,226.851 471.795,226.865 472.290,226.879 472.786,226.893 473.281,226.907 473.776,226.921 474.272,226.935 474.767,226.948 475.262,226.962 475.757,226.976 476.253,226.989 476.748,227.002 477.243,227.016 477.738,227.029 478.234,227.042 478.729,227.055 479.224,227.068 479.720,227.081 480.215,227.094 480.710,227.106 481.205,227.119 481.701,227.132 482.196,227.144 482.691,227.157 483.187,227.169 483.682,227.182 484.177,227.194 484.672,227.206 485.168,227.218 485.663,227.230 486.158,227.242 486.654,227.254 487.149,227.266 487.644,227.278 488.139,227.290 488.635,227.301 489.130,227.313 489.625,227.324 490.121,227.336 490.616,227.347 491.111,227.359 491.606,227.370 492.102,227.381 492.597,227.392 493.092,227.403 493.588,227.415 494.083,227.426 494.578,227.436 495.073,227.447 495.569,227.458 496.064,227.469 496.559,227.480 497.055,227.490 497.550,227.501 498.045,227.511 498.540,227.522 499.036,227.532 499.531,227.542 500.026,227.553 500.522,227.563 501.017,227.573 501.512,227.583 502.007,227.593 502.503,227.603 502.998,227.613 503.493,227.623 503.989,227.633 504.484,227.643 504.979,227.652 505.474,227.662 505.970,227.672 506.465,227.681 506.960,227.691 507.456,227.700 507.951,227.710 508.446,227.719 508.941,227.728 509.437,227.737 509.932,227.747 510.427,227.756 510.923,227.765 511.418,227.774 511.913,227.783 512.408,227.792 512.904,227.801 513.399,227.810 513.894,227.818 514.390,227.827 514.885,227.836 515.380,227.845 515.875,227.853 516.371,227.862 516.866,227.870 517.361,227.879 517.857,227.887 518.352,227.896 518.847,227.904 519.342,227.912 519.838,227.920 520.333,227.929 520.828,227.937 521.324,227.945 521.819,227.953 522.314,227.961 522.809,227.969 523.305,227.977 523.800,227.985 524.295,227.992 524.791,228.000 525.286,228.008 525.781,228.016 526.276,228.023 526.772,228.031 527.267,228.039 527.762,228.046 528.258,228.054 528.753,228.061 529.248,228.068 529.743,228.076 530.239,228.083 530.734,228.090 531.229,228.098 531.724,228.105 532.220,228.112 532.715,228.119 533.210,228.126 533.706,228.133 534.201,228.140 534.696,228.147 535.191,228.154 535.687,228.161 536.182,228.168 536.677,228.175 537.173,228.182 537.668,228.188 538.163,228.195 538.658,228.202 539.154,228.208 539.649,228.215 540.144,228.222 540.640,228.228 541.135,228.235 541.630,228.241 542.125,228.247 542.621,228.254 543.116,228.260 543.611,228.266 544.107,228.273 544.602,228.279 545.097,228.285 545.592,228.291 546.088,228.298 546.583,228.304 547.078,228.310 547.574,228.316 548.069,228.322 548.564,228.328 549.059,228.334 549.555,228.340 550.050,228.345 550.545,228.351 551.041,228.357 551.536,228.363 552.031,228.369 552.526,228.374 553.022,228.380 553.517,228.386 554.012,228.391 554.508,228.397 555.003,228.403 555.498,228.408 555.993,228.414 556.489,228.419 556.984,228.424 557.479,228.430 557.975,228.435 558.470,228.441 558.965,228.446 559.460,228.451 559.956,228.456 560.451,228.462 560.946,228.467 561.442,228.472 561.937,228.477 562.432,228.482 562.927,228.487 563.423,228.493 563.918,228.498 564.413,228.503 564.909,228.508 565.404,228.513 565.899,228.517 566.394,228.522 566.890,228.527 567.385,228.532 567.880,228.537 568.376,228.542 568.871,228.546 569.366,228.551 569.861,228.556 570.357,228.561 570.852,228.565 571.347,228.570 571.843,228.575 572.338,228.579 572.833,228.584 573.328,228.588 573.824,228.593 574.319,228.597 574.814,228.602 575.310,228.606 575.805,228.611 576.300,228.615 576.795,228.619 577.291,228.624 577.786,228.628 "/>
<g>
</g>
</g>
<g id="ID000003" >
  <g transform="translate(329.453,277.406)">
    <g transform="rotate(-0.0)">
      <text x="0.000" y="0.000" font-family="Times New Roman" text-anchor="middle" font-size="11pt" fill="#000000" >Time ($t$) [$s$]</text>
    </g>
  </g>
</g>
<g id="ID000004" >
  <g transform="translate(49.671,135.469)">
    <g transform="rotate(-90.0)">
      <text x="0.000" y="0.000" font-family="Times New Roman" text-anchor="middle" font-size="11pt" fill="#000000" >Flux Amplitude ($p$) [ ]</text>
    </g>
  </g>
</g>
<g id="ID000005" clip-path="url(#ID000001)" >
      <polyline fill="none" stroke="#000000" stroke-width="0.5pt" stroke-dasharray="8.0,2.0,2.0,2.0" points="82.997,26.250 83.492,37.318 83.987,47.782 84.483,57.677 84.978,67.031 85.473,75.876 85.969,84.239 86.464,92.145 86.959,99.621 87.454,106.689 87.950,113.372 88.445,119.691 88.940,125.665 89.436,131.314 89.931,136.654 90.426,141.703 90.921,146.478 91.417,150.992 91.912,155.259 92.407,159.295 92.903,163.110 93.398,166.717 93.893,170.128 94.388,173.352 94.884,176.401 95.379,179.284 95.874,182.010 96.370,184.587 96.865,187.023 97.360,189.327 97.855,191.505 98.351,193.564 98.846,195.511 99.341,197.352 99.837,199.093 100.332,200.739 100.827,202.295 101.322,203.766 101.818,205.157 102.313,206.472 102.808,207.716 103.304,208.892 103.799,210.003 104.294,211.054 104.789,212.048 105.285,212.988 105.780,213.876 106.275,214.716 106.771,215.510 107.266,216.261 107.761,216.971 108.256,217.642 108.752,218.277 109.247,218.877 109.742,219.444 110.238,219.981 110.733,220.488 111.228,220.967 111.723,221.421 112.219,221.850 112.714,222.255 113.209,222.638 113.705,223.001 114.200,223.343 114.695,223.667 115.190,223.973 115.686,224.263 116.181,224.537 116.676,224.796 117.171,225.040 117.667,225.272 118.162,225.491 118.657,225.698 119.153,225.893 119.648,226.078 120.143,226.253 120.638,226.419 121.134,226.575 121.629,226.723 122.124,226.863 122.620,226.995 123.115,227.120 123.610,227.238 124.105,227.350 124.601,227.455 125.096,227.555 125.591,227.650 126.087,227.739 126.582,227.823 127.077,227.903 127.572,227.979 128.068,228.050 128.563,228.118 129.058,228.181 129.554,228.242 130.049,228.299 130.544,228.353 131.039,228.404 131.535,228.452 132.030,228.498 132.525,228.541 133.021,228.582 133.516,228.620 134.011,228.657 134.506,228.691 135.002,228.724 135.497,228.755 135.992,228.784 136.488,228.812 136.983,228.838 137.478,228.862 137.973,228.886 138.469,228.908 138.964,228.929 139.459,228.948 139.955,228.967 140.450,228.985 140.945,229.001 141.440,229.017 141.936,229.032 142.431,229.046 142.926,229.060 143.422,229.072 143.917,229.084 144.412,229.095 144.907,229.106 145.403,229.116 145.898,229.126 146.393,229.135 146.889,229.144 147.384,229.152 147.879,229.159 148.374,229.167 148.870,229.173 149.365,229.180 149.860,229.186 150.356,229.192 150.851,229.197 151.346,229.203 151.841,229.208 152.337,229.212 152.832,229.217 153.327,229.221 153.823,229.225 154.318,229.229 154.813,229.232 155.308,229.236 155.804,229.239 156.299,229.242 156.794,229.245 157.290,229.247 157.785,229.250 158.280,229.252 158.775,229.255 159.271,229.257 159.766,229.259 160.261,229.261 160.757,229.263 161.252,229.264 161.747,229.266 162.242,229.268 162.738,229.269 163.233,229.271 163.728,229.272 164.224,229.273 164.719,229.275 165.214,229.276 165.709,229.277 166.205,229.278 166.700,229.279 167.195,229.280 167.690,229.281 168.186,229.282 168.681,229.282 169.176,229.283 169.672,229.284 170.167,229.285 170.662,229.285 171.157,229.286 171.653,229.287 172.148,229.287 172.643,229.288 173.139,229.288 173.634,229.289 174.129,229.289 174.624,229.290 175.120,229.290 175.615,229.291 176.110,229.291 176.606,229.291 177.101,229.292 177.596,229.292 178.091,229.293 178.587,229.293 179.082,229.293 179.577,229.294 180.073,229.294 180.568,229.294 181.063,229.294 181.558,229.295 182.054,229.295 182.549,229.295 183.044,229.295 183.540,229.296 184.035,229.296 184.530,229.296 185.025,229.296 185.521,229.297 186.016,229.297 186.511,229.297 187.007,229.297 187.502,229.297 187.997,229.297 188.492,229.298 188.988,229.298 189.483,229.298 189.978,229.298 190.474,229.298 190.969,229.298 191.464,229.299 191.959,229.299 192.455,229.299 192.950,229.299 193.445,229.299 193.941,229.299 194.436,229.300 194.931,229.300 195.426,229.300 195.922,229.300 196.417,229.300 196.912,229.300 197.408,229.300 197.903,229.300 198.398,229.301 198.893,229.301 199.389,229.301 199.884,229.301 200.379,229.301 200.875,229.301 201.370,229.301 201.865,229.301 202.360,229.302 202.856,229.302 203.351,229.302 203.846,229.302 204.342,229.302 204.837,229.302 205.332,229.302 205.827,229.302 206.323,229.302 206.818,229.303 207.313,229.303 207.809,229.303 208.304,229.303 208.799,229.303 209.294,229.303 209.790,229.303 210.285,229.303 210.780,229.303 211.276,229.304 211.771,229.304 212.266,229.304 212.761,229.304 213.257,229.304 213.752,229.304 214.247,229.304 214.743,229.304 215.238,229.304 215.733,229.305 216.228,229.305 216.724,229.305 217.219,229.305 217.714,229.305 218.210,229.305 218.705,229.305 219.200,229.305 219.695,229.305 220.191,229.305 220.686,229.306 221.181,229.306 221.676,229.306 222.172,229.306 222.667,229.306 223.162,229.306 223.658,229.306 224.153,229.306 224.648,229.306 225.143,229.306 225.639,229.307 226.134,229.307 226.629,229.307 227.125,229.307 227.620,229.307 228.115,229.307 228.610,229.307 229.106,229.307 229.601,229.307 230.096,229.308 230.592,229.308 231.087,229.308 231.582,229.308 232.077,229.308 232.573,229.308 233.068,229.308 233.563,229.308 234.059,229.308 234.554,229.308 235.049,229.309 235.544,229.309 236.040,229.309 236.535,229.309 237.030,229.309 237.526,229.309 238.021,229.309 238.516,229.309 239.011,229.309 239.507,229.309 240.002,229.310 240.497,229.310 240.993,229.310 241.488,229.310 241.983,229.310 242.478,229.310 242.974,229.310 243.469,229.310 243.964,229.310 244.460,229.310 244.955,229.311 245.450,229.311 245.945,229.311 246.441,229.311 246.936,229.311 247.431,229.311 247.927,229.311 248.422,229.311 248.917,229.311 249.412,229.311 249.908,229.312 250.403,229.312 250.898,229.312 251.394,229.312 251.889,229.312 252.384,229.312 252.879,229.312 253.375,229.312 253.870,229.312 254.365,229.312 254.861,229.313 255.356,229.313 255.851,229.313 256.346,229.313 256.842,229.313 257.337,229.313 257.832,229.313 258.328,229.313 258.823,229.313 259.318,229.314 259.813,229.314 260.309,229.314 260.804,229.314 261.299,229.314 261.795,229.314 262.290,229.314 262.785,229.314 263.280,229.314 263.776,229.314 264.271,229.315 264.766,229.315 265.262,229.315 265.757,229.315 266.252,229.315 266.747,229.315 267.243,229.315 267.738,229.315 268.233,229.315 268.729,229.315 269.224,229.316 269.719,229.316 270.214,229.316 270.710,229.316 271.205,229.316 271.700,229.316 272.195,229.316 272.691,229.316 273.186,229.316 273.681,229.316 274.177,229.317 274.672,229.317 275.167,229.317 275.662,229.317 276.158,229.317 276.653,229.317 277.148,229.317 277.644,229.317 278.139,229.317 278.634,229.317 279.129,229.318 279.625,229.318 280.120,229.318 280.615,229.318 281.111,229.318 281.606,229.318 282.101,229.318 282.596,229.318 283.092,229.318 283.587,229.318 284.082,229.319 284.578,229.319 285.073,229.319 285.568,229.319 286.063,229.319 286.559,229.319 287.054,229.319 287.549,229.319 288.045,229.319 288.540,229.320 289.035,229.320 289.530,229.320 290.026,229.320 290.521,229.320 291.016,229.320 291.512,229.320 292.007,229.320 292.502,229.320 292.997,229.320 293.493,229.321 293.988,229.321 294.483,229.321 294.979,229.321 295.474,229.321 295.969,229.321 296.464,229.321 296.960,229.321 297.455,229.321 297.950,229.321 298.446,229.322 298.941,229.322 299.436,229.322 299.931,229.322 300.427,229.322 300.922,229.322 301.417,229.322 301.913,229.322 302.408,229.322 302.903,229.322 303.398,229.323 303.894,229.323 304.389,229.323 304.884,229.323 305.380,229.323 305.875,229.323 306.370,229.323 306.865,229.323 307.361,229.323 307.856,229.323 308.351,229.324 308.847,229.324 309.342,229.324 309.837,229.324 310.332,229.324 310.828,229.324 311.323,229.324 311.818,229.324 312.314,229.324 312.809,229.324 313.304,229.325 313.799,229.325 314.295,229.325 314.790,229.325 315.285,229.325 315.781,229.325 316.276,229.325 316.771,229.325 317.266,229.325 317.762,229.325 318.257,229.326 318.752,229.326 319.248,229.326 319.743,229.326 320.238,229.326 320.733,229.326 321.229,229.326 321.724,229.326 322.219,229.326 322.714,229.327 323.210,229.327 323.705,229.327 324.200,229.327 324.696,229.327 325.191,229.327 325.686,229.327 326.181,229.327 326.677,229.327 327.172,229.327 327.667,229.328 328.163,229.328 328.658,229.328 329.153,229.328 329.648,229.328 330.144,229.328 330.639,229.328 331.134,229.328 331.630,229.328 332.125,229.328 332.620,229.329 333.115,229.329 333.611,229.329 334.106,229.329 334.601,229.329 335.097,229.329 335.592,229.329 336.087,229.329 336.582,229.329 337.078,229.329 337.573,229.330 338.068,229.330 338.564,229.330 339.059,229.330 339.554,229.330 340.049,229.330 340.545,229.330 341.040,229.330 341.535,229.330 342.031,229.330 342.526,229.331 343.021,229.331 343.516,229.331 344.012,229.331 344.507,229.331 345.002,229.331 345.498,229.331 345.993,229.331 346.488,229.331 346.983,229.331 347.479,229.332 347.974,229.332 348.469,229.332 348.965,229.332 349.460,229.332 349.955,229.332 350.450,229.332 350.946,229.332 351.441,229.332 351.936,229.332 352.432,229.333 352.927,229.333 353.422,229.333 353.917,229.333 354.413,229.333 354.908,229.333 355.403,229.333 355.899,229.333 356.394,229.333 356.889,229.334 357.384,229.334 357.880,229.334 358.375,229.334 358.870,229.334 359.366,229.334 359.861,229.334 360.356,229.334 360.851,229.334 361.347,229.334 361.842,229.335 362.337,229.335 362.833,229.335 363.328,229.335 363.823,229.335 364.318,229.335 364.814,229.335 365.309,229.335 365.804,229.335 366.300,229.335 366.795,229.336 367.290,229.336 367.785,229.336 368.281,229.336 368.776,229.336 369.271,229.336 369.767,229.336 370.262,229.336 370.757,229.336 371.252,229.336 371.748,229.337 372.243,229.337 372.738,229.337 373.234,229.337 373.729,229.337 374.224,229.337 374.719,229.337 375.215,229.337 375.710,229.337 376.205,229.337 376.700,229.338 377.196,229.338 377.691,229.338 378.186,229.338 378.682,229.338 379.177,229.338 379.672,229.338 380.167,229.338 380.663,229.338 381.158,229.338 381.653,229.339 382.149,229.339 382.644,229.339 383.139,229.339 383.634,229.339 384.130,229.339 384.625,229.339 385.120,229.339 385.616,229.339 386.111,229.340 386.606,229.340 387.101,229.340 387.597,229.340 388.092,229.340 388.587,229.340 389.083,229.340 389.578,229.340 390.073,229.340 390.568,229.340 391.064,229.341 391.559,229.341 392.054,229.341 392.550,229.341 393.045,229.341 393.540,229.341 394.035,229.341 394.531,229.341 395.026,229.341 395.521,229.341 396.017,229.342 396.512,229.342 397.007,229.342 397.502,229.342 397.998,229.342 398.493,229.342 398.988,229.342 399.484,229.342 399.979,229.342 400.474,229.342 400.969,229.343 401.465,229.343 401.960,229.343 402.455,229.343 402.951,229.343 403.446,229.343 403.941,229.343 404.436,229.343 404.932,229.343 405.427,229.343 405.922,229.344 406.418,229.344 406.913,229.344 407.408,229.344 407.903,229.344 408.399,229.344 408.894,229.344 409.389,229.344 409.885,229.344 410.380,229.344 410.875,229.345 411.370,229.345 411.866,229.345 412.361,229.345 412.856,229.345 413.352,229.345 413.847,229.345 414.342,229.345 414.837,229.345 415.333,229.345 415.828,229.346 416.323,229.346 416.819,229.346 417.314,229.346 417.809,229.346 418.304,229.346 418.800,229.346 419.295,229.346 419.790,229.346 420.286,229.347 420.781,229.347 421.276,229.347 421.771,229.347 422.267,229.347 422.762,229.347 423.257,229.347 423.753,229.347 424.248,229.347 424.743,229.347 425.238,229.348 425.734,229.348 426.229,229.348 426.724,229.348 427.219,229.348 427.715,229.348 428.210,229.348 428.705,229.348 429.201,229.348 429.696,229.348 430.191,229.349 430.686,229.349 431.182,229.349 431.677,229.349 432.172,229.349 432.668,229.349 433.163,229.349 433.658,229.349 434.153,229.349 434.649,229.349 435.144,229.350 435.639,229.350 436.135,229.350 436.630,229.350 437.125,229.350 437.620,229.350 438.116,229.350 438.611,229.350 439.106,229.350 439.602,229.350 440.097,229.351 440.592,229.351 441.087,229.351 441.583,229.351 442.078,229.351 442.573,229.351 443.069,229.351 443.564,229.351 444.059,229.351 444.554,229.351 445.050,229.352 445.545,229.352 446.040,229.352 446.536,229.352 447.031,229.352 447.526,229.352 448.021,229.352 448.517,229.352 449.012,229.352 449.507,229.352 450.003,229.353 450.498,229.353 450.993,229.353 451.488,229.353 451.984,229.353 452.479,229.353 452.974,229.353 453.470,229.353 453.965,229.353 454.460,229.354 454.955,229.354 455.451,229.354 455.946,229.354 456.441,229.354 456.937,229.354 457.432,229.354 457.927,229.354 458.422,229.354 458.918,229.354 459.413,229.355 459.908,229.355 460.404,229.355 460.899,229.355 461.394,229.355 461.889,229.355 462.385,229.355 462.880,229.355 463.375,229.355 463.871,229.355 464.366,229.356 464.861,229.356 465.356,229.356 465.852,229.356 466.347,229.356 466.842,229.356 467.338,229.356 467.833,229.356 468.328,229.356 468.823,229.356 469.319,229.357 469.814,229.357 470.309,229.357 470.805,229.357 471.300,229.357 471.795,229.357 472.290,229.357 472.786,229.357 473.281,229.357 473.776,229.357 474.272,229.358 474.767,229.358 475.262,229.358 475.757,229.358 476.253,229.358 476.748,229.358 477.243,229.358 477.738,229.358 478.234,229.358 478.729,229.358 479.224,229.359 479.720,229.359 480.215,229.359 480.710,229.359 481.205,229.359 481.701,229.359 482.196,229.359 482.691,229.359 483.187,229.359 483.682,229.360 484.177,229.360 484.672,229.360 485.168,229.360 485.663,229.360 486.158,229.360 486.654,229.360 487.149,229.360 487.644,229.360 488.139,229.360 488.635,229.361 489.130,229.361 489.625,229.361 490.121,229.361 490.616,229.361 491.111,229.361 491.606,229.361 492.102,229.361 492.597,229.361 493.092,229.361 493.588,229.362 494.083,229.362 494.578,229.362 495.073,229.362 495.569,229.362 496.064,229.362 496.559,229.362 497.055,229.362 497.550,229.362 498.045,229.362 498.540,229.363 499.036,229.363 499.531,229.363 500.026,229.363 500.522,229.363 501.017,229.363 501.512,229.363 502.007,229.363 502.503,229.363 502.998,229.363 503.493,229.364 503.989,229.364 504.484,229.364 504.979,229.364 505.474,229.364 505.970,229.364 506.465,229.364 506.960,229.364 507.456,229.364 507.951,229.364 508.446,229.365 508.941,229.365 509.437,229.365 509.932,229.365 510.427,229.365 510.923,229.365 511.418,229.365 511.913,229.365 512.408,229.365 512.904,229.365 513.399,229.366 513.894,229.366 514.390,229.366 514.885,229.366 515.380,229.366 515.875,229.366 516.371,229.366 516.866,229.366 517.361,229.366 517.857,229.367 518.352,229.367 518.847,229.367 519.342,229.367 519.838,229.367 520.333,229.367 520.828,229.367 521.324,229.367 521.819,229.367 522.314,229.367 522.809,229.368 523.305,229.368 523.800,229.368 524.295,229.368 524.791,229.368 525.286,229.368 525.781,229.368 526.276,229.368 526.772,229.368 527.267,229.368 527.762,229.369 528.258,229.369 528.753,229.369 529.248,229.369 529.743,229.369 530.239,229.369 530.734,229.369 531.229,229.369 531.724,229.369 532.220,229.369 532.715,229.370 533.210,229.370 533.706,229.370 534.201,229.370 534.696,229.370 535.191,229.370 535.687,229.370 536.182,229.370 536.677,229.370 537.173,229.370 537.668,229.371 538.163,229.371 538.658,229.371 539.154,229.371 539.649,229.371 540.144,229.371 540.640,229.371 541.135,229.371 541.630,229.371 542.125,229.371 542.621,229.372 543.116,229.372 543.611,229.372 544.107,229.372 544.602,229.372 545.097,229.372 545.592,229.372 546.088,229.372 546.583,229.372 547.078,229.372 547.574,229.373 548.069,229.373 548.564,229.373 549.059,229.373 549.555,229.373 550.050,229.373 550.545,229.373 551.041,229.373 551.536,229.373 552.031,229.374 552.526,229.374 553.022,229.374 553.517,229.374 554.012,229.374 554.508,229.374 555.003,229.374 555.498,229.374 555.993,229.374 556.489,229.374 556.984,229.375 557.479,229.375 557.975,229.375 558.470,229.375 558.965,229.375 559.460,229.375 559.956,229.375 560.451,229.375 560.946,229.375 561.442,229.375 561.937,229.376 562.432,229.376 562.927,229.376 563.423,229.376 563.918,229.376 564.413,229.376 564.909,229.376 565.404,229.376 565.899,229.376 566.394,229.376 566.890,229.377 567.385,229.377 567.880,229.377 568.376,229.377 568.871,229.377 569.366,229.377 569.861,229.377 570.357,229.377 570.852,229.377 571.347,229.377 571.843,229.378 572.338,229.378 572.833,229.378 573.328,229.378 573.824,229.378 574.319,229.378 574.814,229.378 575.310,229.378 575.805,229.378 576.300,229.378 576.795,229.379 577.291,229.379 577.786,229.379 "/>
<g>
</g>
</g>
<g id="ID000006" clip-path="url(#ID000001)" >
      <polyline fill="none" stroke="#000000" stroke-width="0.5pt" stroke-dasharray="2.0,2.0" points="82.997,26.250 83.492,113.371 83.987,163.108 84.483,191.502 84.978,207.712 85.473,216.966 85.969,222.249 86.464,225.266 86.959,226.987 87.454,227.971 87.950,228.532 88.445,228.852 88.940,229.035 89.436,229.140 89.931,229.199 90.426,229.234 90.921,229.253 91.417,229.264 91.912,229.271 92.407,229.274 92.903,229.277 93.398,229.278 93.893,229.279 94.388,229.279 94.884,229.279 95.379,229.280 95.874,229.280 96.370,229.280 96.865,229.280 97.360,229.280 97.855,229.280 98.351,229.280 98.846,229.281 99.341,229.281 99.837,229.281 100.332,229.281 100.827,229.281 101.322,229.281 101.818,229.281 102.313,229.281 102.808,229.281 103.304,229.282 103.799,229.282 104.294,229.282 104.789,229.282 105.285,229.282 105.780,229.282 106.275,229.282 106.771,229.282 107.266,229.282 107.761,229.282 108.256,229.283 108.752,229.283 109.247,229.283 109.742,229.283 110.238,229.283 110.733,229.283 111.228,229.283 111.723,229.283 112.219,229.283 112.714,229.283 113.209,229.284 113.705,229.284 114.200,229.284 114.695,229.284 115.190,229.284 115.686,229.284 116.181,229.284 116.676,229.284 117.171,229.284 117.667,229.284 118.162,229.285 118.657,229.285 119.153,229.285 119.648,229.285 120.143,229.285 120.638,229.285 121.134,229.285 121.629,229.285 122.124,229.285 122.620,229.285 123.115,229.286 123.610,229.286 124.105,229.286 124.601,229.286 125.096,229.286 125.591,229.286 126.087,229.286 126.582,229.286 127.077,229.286 127.572,229.286 128.068,229.287 128.563,229.287 129.058,229.287 129.554,229.287 130.049,229.287 130.544,229.287 131.039,229.287 131.535,229.287 132.030,229.287 132.525,229.288 133.021,229.288 133.516,229.288 134.011,229.288 134.506,229.288 135.002,229.288 135.497,229.288 135.992,229.288 136.488,229.288 136.983,229.288 137.478,229.289 137.973,229.289 138.469,229.289 138.964,229.289 139.459,229.289 139.955,229.289 140.450,229.289 140.945,229.289 141.440,229.289 141.936,229.289 142.431,229.290 142.926,229.290 143.422,229.290 143.917,229.290 144.412,229.290 144.907,229.290 145.403,229.290 145.898,229.290 146.393,229.290 146.889,229.290 147.384,229.291 147.879,229.291 148.374,229.291 148.870,229.291 149.365,229.291 149.860,229.291 150.356,229.291 150.851,229.291 151.346,229.291 151.841,229.291 152.337,229.292 152.832,229.292 153.327,229.292 153.823,229.292 154.318,229.292 154.813,229.292 155.308,229.292 155.804,229.292 156.299,229.292 156.794,229.292 157.290,229.293 157.785,229.293 158.280,229.293 158.775,229.293 159.271,229.293 159.766,229.293 160.261,229.293 160.757,229.293 161.252,229.293 161.747,229.293 162.242,229.294 162.738,229.294 163.233,229.294 163.728,229.294 164.224,229.294 164.719,229.294 165.214,229.294 165.709,229.294 166.205,229.294 166.700,229.295 167.195,229.295 167.690,229.295 168.186,229.295 168.681,229.295 169.176,229.295 169.672,229.295 170.167,229.295 170.662,229.295 171.157,229.295 171.653,229.296 172.148,229.296 172.643,229.296 173.139,229.296 173.634,229.296 174.129,229.296 174.624,229.296 175.120,229.296 175.615,229.296 176.110,229.296 176.606,229.297 177.101,229.297 177.596,229.297 178.091,229.297 178.587,229.297 179.082,229.297 179.577,229.297 180.073,229.297 180.568,229.297 181.063,229.297 181.558,229.298 182.054,229.298 182.549,229.298 183.044,229.298 183.540,229.298 184.035,229.298 184.530,229.298 185.025,229.298 185.521,229.298 186.016,229.298 186.511,229.299 187.007,229.299 187.502,229.299 187.997,229.299 188.492,229.299 188.988,229.299 189.483,229.299 189.978,229.299 190.474,229.299 190.969,229.299 191.464,229.300 191.959,229.300 192.455,229.300 192.950,229.300 193.445,229.300 193.941,229.300 194.436,229.300 194.931,229.300 195.426,229.300 195.922,229.301 196.417,229.301 196.912,229.301 197.408,229.301 197.903,229.301 198.398,229.301 198.893,229.301 199.389,229.301 199.884,229.301 200.379,229.301 200.875,229.302 201.370,229.302 201.865,229.302 202.360,229.302 202.856,229.302 203.351,229.302 203.846,229.302 204.342,229.302 204.837,229.302 205.332,229.302 205.827,229.303 206.323,229.303 206.818,229.303 207.313,229.303 207.809,229.303 208.304,229.303 208.799,229.303 209.294,229.303 209.790,229.303 210.285,229.303 210.780,229.304 211.276,229.304 211.771,229.304 212.266,229.304 212.761,229.304 213.257,229.304 213.752,229.304 214.247,229.304 214.743,229.304 215.238,229.304 215.733,229.305 216.228,229.305 216.724,229.305 217.219,229.305 217.714,229.305 218.210,229.305 218.705,229.305 219.200,229.305 219.695,229.305 220.191,229.305 220.686,229.306 221.181,229.306 221.676,229.306 222.172,229.306 222.667,229.306 223.162,229.306 223.658,229.306 224.153,229.306 224.648,229.306 225.143,229.307 225.639,229.307 226.134,229.307 226.629,229.307 227.125,229.307 227.620,229.307 228.115,229.307 228.610,229.307 229.106,229.307 229.601,229.307 230.096,229.308 230.592,229.308 231.087,229.308 231.582,229.308 232.077,229.308 232.573,229.308 233.068,229.308 233.563,229.308 234.059,229.308 234.554,229.308 235.049,229.309 235.544,229.309 236.040,229.309 236.535,229.309 237.030,229.309 237.526,229.309 238.021,229.309 238.516,229.309 239.011,229.309 239.507,229.309 240.002,229.310 240.497,229.310 240.993,229.310 241.488,229.310 241.983,229.310 242.478,229.310 242.974,229.310 243.469,229.310 243.964,229.310 244.460,229.310 244.955,229.311 245.450,229.311 245.945,229.311 246.441,229.311 246.936,229.311 247.431,229.311 247.927,229.311 248.422,229.311 248.917,229.311 249.412,229.311 249.908,229.312 250.403,229.312 250.898,229.312 251.394,229.312 251.889,229.312 252.384,229.312 252.879,229.312 253.375,229.312 253.870,229.312 254.365,229.312 254.861,229.313 255.356,229.313 255.851,229.313 256.346,229.313 256.842,229.313 257.337,229.313 257.832,229.313 258.328,229.313 258.823,229.313 259.318,229.314 259.813,229.314 260.309,229.314 260.804,229.314 261.299,229.314 261.795,229.314 262.290,229.314 262.785,229.314 263.280,229.314 263.776,229.314 264.271,229.315 264.766,229.315 265.262,229.315 265.757,229.315 266.252,229.315 266.747,229.315 267.243,229.315 267.738,229.315 268.233,229.315 268.729,229.315 269.224,229.316 269.719,229.316 270.214,229.316 270.710,229.316 271.205,229.316 271.700,229.316 272.195,229.316 272.691,229.316 273.186,229.316 273.681,229.316 274.177,229.317 274.672,229.317 275.167,229.317 275.662,229.317 276.158,229.317 276.653,229.317 277.148,229.317 277.644,229.317 278.139,229.317 278.634,229.317 279.129,229.318 279.625,229.318 280.120,229.318 280.615,229.318 281.111,229.318 281.606,229.318 282.101,229.318 282.596,229.318 283.092,229.318 283.587,229.318 284.082,229.319 284.578,229.319 285.073,229.319 285.568,229.319 286.063,229.319 286.559,229.319 287.054,229.319 287.549,229.319 288.045,229.319 288.540,229.320 289.035,229.320 289.530,229.320 290.026,229.320 290.521,229.320 291.016,229.320 291.512,229.320 292.007,229.320 292.502,229.320 292.997,229.320 293.493,229.321 293.988,229.321 294.483,229.321 294.979,229.321 295.474,229.321 295.969,229.321 296.464,229.321 296.960,229.321 297.455,229.321 297.950,229.321 298.446,229.322 298.941,229.322 299.436,229.322 299.931,229.322 300.427,229.322 300.922,229.322 301.417,229.322 301.913,229.322 302.408,229.322 302.903,229.322 303.398,229.323 303.894,229.323 304.389,229.323 304.884,229.323 305.380,229.323 305.875,229.323 306.370,229.323 306.865,229.323 307.361,229.323 307.856,229.323 308.351,229.324 308.847,229.324 309.342,229.324 309.837,229.324 310.332,229.324 310.828,229.324 311.323,229.324 311.818,229.324 312.314,229.324 312.809,229.324 313.304,229.325 313.799,229.325 314.295,229.325 314.790,229.325 315.285,229.325 315.781,229.325 316.276,229.325 316.771,229.325 317.266,229.325 317.762,229.325 318.257,229.326 318.752,229.326 319.248,229.326 319.743,229.326 320.238,229.326 320.733,229.326 321.229,229.326 321.724,229.326 322.219,229.326 322.714,229.327 323.210,229.327 323.705,229.327 324.200,229.327 324.696,229.327 325.191,229.327 325.686,229.327 326.181,229.327 326.677,229.327 327.172,229.327 327.667,229.328 328.163,229.328 328.658,229.328 329.153,229.328 329.648,229.328 330.144,229.328 330.639,229.328 331.134,229.328 331.630,229.328 332.125,229.328 332.620,229.329 333.115,229.329 333.611,229.329 334.106,229.329 334.601,229.329 335.097,229.329 335.592,229.329 336.087,229.329 336.582,229.329 337.078,229.329 337.573,229.330 338.068,229.330 338.564,229.330 339.059,229.330 339.554,229.330 340.049,229.330 340.545,229.330 341.040,229.330 341.535,229.330 342.031,229.330 342.526,229.331 343.021,229.331 343.516,229.331 344.012,229.331 344.507,229.331 345.002,229.331 345.498,229.331 345.993,229.331 346.488,229.331 346.983,229.331 347.479,229.332 347.974,229.332 348.469,229.332 348.965,229.332 349.460,229.332 349.955,229.332 350.450,229.332 350.946,229.332 351.441,229.332 351.936,229.332 352.432,229.333 352.927,229.333 353.422,229.333 353.917,229.333 354.413,229.333 354.908,229.333 355.403,229.333 355.899,229.333 356.394,229.333 356.889,229.334 357.384,229.334 357.880,229.334 358.375,229.334 358.870,229.334 359.366,229.334 359.861,229.334 360.356,229.334 360.851,229.334 361.347,229.334 361.842,229.335 362.337,229.335 362.833,229.335 363.328,229.335 363.823,229.335 364.318,229.335 364.814,229.335 365.309,229.335 365.804,229.335 366.300,229.335 366.795,229.336 367.290,229.336 367.785,229.336 368.281,229.336 368.776,229.336 369.271,229.336 369.767,229.336 370.262,229.336 370.757,229.336 371.252,229.336 371.748,229.337 372.243,229.337 372.738,229.337 373.234,229.337 373.729,229.337 374.224,229.337 374.719,229.337 375.215,229.337 375.710,229.337 376.205,229.337 376.700,229.338 377.196,229.338 377.691,229.338 378.186,229.338 378.682,229.338 379.177,229.338 379.672,229.338 380.167,229.338 380.663,229.338 381.158,229.338 381.653,229.339 382.149,229.339 382.644,229.339 383.139,229.339 383.634,229.339 384.130,229.339 384.625,229.339 385.120,229.339 385.616,229.339 386.111,229.340 386.606,229.340 387.101,229.340 387.597,229.340 388.092,229.340 388.587,229.340 389.083,229.340 389.578,229.340 390.073,229.340 390.568,229.340 391.064,229.341 391.559,229.341 392.054,229.341 392.550,229.341 393.045,229.341 393.540,229.341 394.035,229.341 394.531,229.341 395.026,229.341 395.521,229.341 396.017,229.342 396.512,229.342 397.007,229.342 397.502,229.342 397.998,229.342 398.493,229.342 398.988,229.342 399.484,229.342 399.979,229.342 400.474,229.342 400.969,229.343 401.465,229.343 401.960,229.343 402.455,229.343 402.951,229.343 403.446,229.343 403.941,229.343 404.436,229.343 404.932,229.343 405.427,229.343 405.922,229.344 406.418,229.344 406.913,229.344 407.408,229.344 407.903,229.344 408.399,229.344 408.894,229.344 409.389,229.344 409.885,229.344 410.380,229.344 410.875,229.345 411.370,229.345 411.866,229.345 412.361,229.345 412.856,229.345 413.352,229.345 413.847,229.345 414.342,229.345 414.837,229.345 415.333,229.345 415.828,229.346 416.323,229.346 416.819,229.346 417.314,229.346 417.809,229.346 418.304,229.346 418.800,229.346 419.295,229.346 419.790,229.346 420.286,229.347 420.781,229.347 421.276,229.347 421.771,229.347 422.267,229.347 422.762,229.347 423.257,229.347 423.753,229.347 424.248,229.347 424.743,229.347 425.238,229.348 425.734,229.348 426.229,229.348 426.724,229.348 427.219,229.348 427.715,229.348 428.210,229.348 428.705,229.348 429.201,229.348 429.696,229.348 430.191,229.349 430.686,229.349 431.182,229.349 431.677,229.349 432.172,229.349 432.668,229.349 433.163,229.349 433.658,229.349 434.153,229.349 434.649,229.349 435.144,229.350 435.639,229.350 436.135,229.350 436.630,229.350 437.125,229.350 437.620,229.350 438.116,229.350 438.611,229.350 439.106,229.350 439.602,229.350 440.097,229.351 440.592,229.351 441.087,229.351 441.583,229.351 442.078,229.351 442.573,229.351 443.069,229.351 443.564,229.351 444.059,229.351 444.554,229.351 445.050,229.352 445.545,229.352 446.040,229.352 446.536,229.352 447.031,229.352 447.526,229.352 448.021,229.352 448.517,229.352 449.012,229.352 449.507,229.352 450.003,229.353 450.498,229.353 450.993,229.353 451.488,229.353 451.984,229.353 452.479,229.353 452.974,229.353 453.470,229.353 453.965,229.353 454.460,229.354 454.955,229.354 455.451,229.354 455.946,229.354 456.441,229.354 456.937,229.354 457.432,229.354 457.927,229.354 458.422,229.354 458.918,229.354 459.413,229.355 459.908,229.355 460.404,229.355 460.899,229.355 461.394,229.355 461.889,229.355 462.385,229.355 462.880,229.355 463.375,229.355 463.871,229.355 464.366,229.356 464.861,229.356 465.356,229.356 465.852,229.356 466.347,229.356 466.842,229.356 467.338,229.356 467.833,229.356 468.328,229.356 468.823,229.356 469.319,229.357 469.814,229.357 470.309,229.357 470.805,229.357 471.300,229.357 471.795,229.357 472.290,229.357 472.786,229.357 473.281,229.357 473.776,229.357 474.272,229.358 474.767,229.358 475.262,229.358 475.757,229.358 476.253,229.358 476.748,229.358 477.243,229.358 477.738,229.358 478.234,229.358 478.729,229.358 479.224,229.359 479.720,229.359 480.215,229.359 480.710,229.359 481.205,229.359 481.701,229.359 482.196,229.359 482.691,229.359 483.187,229.359 483.682,229.360 484.177,229.360 484.672,229.360 485.168,229.360 485.663,229.360 486.158,229.360 486.654,229.360 487.149,229.360 487.644,229.360 488.139,229.360 488.635,229.361 489.130,229.361 489.625,229.361 490.121,229.361 490.616,229.361 491.111,229.361 491.606,229.361 492.102,229.361 492.597,229.361 493.092,229.361 493.588,229.362 494.083,229.362 494.578,229.362 495.073,229.362 495.569,229.362 496.064,229.362 496.559,229.362 497.055,229.362 497.550,229.362 498.045,229.362 498.540,229.363 499.036,229.363 499.531,229.363 500.026,229.363 500.522,229.363 501.017,229.363 501.512,229.363 502.007,229.363 502.503,229.363 502.998,229.363 503.493,229.364 503.989,229.364 504.484,229.364 504.979,229.364 505.474,229.364 505.970,229.364 506.465,229.364 506.960,229.364 507.456,229.364 507.951,229.364 508.446,229.365 508.941,229.365 509.437,229.365 509.932,229.365 510.427,229.365 510.923,229.365 511.418,229.365 511.913,229.365 512.408,229.365 512.904,229.365 513.399,229.366 513.894,229.366 514.390,229.366 514.885,229.366 515.380,229.366 515.875,229.366 516.371,229.366 516.866,229.366 517.361,229.366 517.857,229.367 518.352,229.367 518.847,229.367 519.342,229.367 519.838,229.367 520.333,229.367 520.828,229.367 521.324,229.367 521.819,229.367 522.314,229.367 522.809,229.368 523.305,229.368 523.800,229.368 524.295,229.368 524.791,229.368 525.286,229.368 525.781,229.368 526.276,229.368 526.772,229.368 527.267,229.368 527.762,229.369 528.258,229.369 528.753,229.369 529.248,229.369 529.743,229.369 530.239,229.369 530.734,229.369 531.229,229.369 531.724,229.369 532.220,229.369 532.715,229.370 533.210,229.370 533.706,229.370 534.201,229.370 534.696,229.370 535.191,229.370 535.687,229.370 536.182,229.370 536.677,229.370 537.173,229.370 537.668,229.371 538.163,229.371 538.658,229.371 539.154,229.371 539.649,229.371 540.144,229.371 540.640,229.371 541.135,229.371 541.630,229.371 542.125,229.371 542.621,229.372 543.116,229.372 543.611,229.372 544.107,229.372 544.602,229.372 545.097,229.372 545.592,229.372 546.088,229.372 546.583,229.372 547.078,229.372 547.574,229.373 548.069,229.373 548.564,229.373 549.059,229.373 549.555,229.373 550.050,229.373 550.545,229.373 551.041,229.373 551.536,229.373 552.031,229.374 552.526,229.374 553.022,229.374 553.517,229.374 554.012,229.374 554.508,229.374 555.003,229.374 555.498,229.374 555.993,229.374 556.489,229.374 556.984,229.375 557.479,229.375 557.975,229.375 558.470,229.375 558.965,229.375 559.460,229.375 559.956,229.375 560.451,229.375 560.946,229.375 561.442,229.375 561.937,229.376 562.432,229.376 562.927,229.376 563.423,229.376 563.918,229.376 564.413,229.376 564.909,229.376 565.404,229.376 565.899,229.376 566.394,229.376 566.890,229.377 567.385,229.377 567.880,229.377 568.376,229.377 568.871,229.377 569.366,229.377 569.861,229.377 570.357,229.377 570.852,229.377 571.347,229.377 571.843,229.378 572.338,229.378 572.833,229.378 573.328,229.378 573.824,229.378 574.319,229.378 574.814,229.378 575.310,229.378 575.805,229.378 576.300,229.378 576.795,229.379 577.291,229.379 577.786,229.379 "/>
<g>
</g>
</g>
<g id="ID000007" >
  <g transform="translate(330.391,15.469)">
    <g transform="rotate(-0.0)">
      <text x="0.000" y="0.000" font-family="Times New Roman" text-anchor="middle" font-size="11pt" fill="#000000" >$rho_{1} = -3.0\$ $</text>
    </g>
  </g>
</g>
<g id="ID000008" >
</g>
<g id="ID000009" >
</g>
    </g>
    <g>
      <polyline fill="none" stroke="#000000" stroke-width="0.5pt" stroke-dasharray="none" points="206.694,242.812 206.694,237.865 "/>
      <polyline fill="none" stroke="#000000" stroke-width="0.5pt" stroke-dasharray="none" points="330.391,242.812 330.391,237.865 "/>
      <polyline fill="none" stroke="#000000" stroke-width="0.5pt" stroke-dasharray="none" points="454.089,242.812 454.089,237.865 "/>
      <polyline fill="none" stroke="#000000" stroke-width="0.5pt" stroke-dasharray="none" points="82.997,242.812 577.786,242.812 "/>
      <polyline fill="none" stroke="#000000" stroke-width="0.5pt" stroke-dasharray="none" points="206.694,26.250 206.694,31.198 "/>
      <polyline fill="none" stroke="#000000" stroke-width="0.5pt" stroke-dasharray="none" points="330.391,26.250 330.391,31.198 "/>
      <polyline fill="none" stroke="#000000" stroke-width="0.5pt" stroke-dasharray="none" points="454.089,26.250 454.089,31.198 "/>
      <polyline fill="none" stroke="#000000" stroke-width="0.5pt" stroke-dasharray="none" points="82.997,26.250 577.786,26.250 "/>
  <g transform="translate(82.997,260.419)">
    <g transform="rotate(-0.0)">
      <text x="0.000" y="0.000" font-family="Times New Roman" text-anchor="middle" font-size="11pt" fill="#000000" >0</text>
    </g>
  </g>
  <g transform="translate(206.694,260.419)">
    <g transform="rotate(-0.0)">
      <text x="0.000" y="0.000" font-family="Times New Roman" text-anchor="middle" font-size="11pt" fill="#000000" >0.005</text>
    </g>
  </g>
  <g transform="translate(330.391,260.419)">
    <g transform="rotate(-0.0)">
      <text x="0.000" y="0.000" font-family="Times New Roman" text-anchor="middle" font-size="11pt" fill="#000000" >0.01</text>
    </g>
  </g>
  <g transform="translate(454.089,260.419)">
    <g transform="rotate(-0.0)">
      <text x="0.000" y="0.000" font-family="Times New Roman" text-anchor="middle" font-size="11pt" fill="#000000" >0.015</text>
    </g>
  </g>
  <g transform="translate(577.786,260.419)">
    <g transform="rotate(-0.0)">
      <text x="0.000" y="0.000" font-family="Times New Roman" text-anchor="middle" font-size="11pt" fill="#000000" >0.02</text>
    </g>
  </g>
      <polyline fill="none" stroke="#000000" stroke-width="0.5pt" stroke-dasharray="none" points="82.997,188.672 87.945,188.672 "/>
      <polyline fill="none" stroke="#000000" stroke-width="0.5pt" stroke-dasharray="none" points="82.997,134.531 87.945,134.531 "/>
      <polyline fill="none" stroke="#000000" stroke-width="0.5pt" stroke-dasharray="none" points="82.997,80.391 87.945,80.391 "/>
      <polyline fill="none" stroke="#000000" stroke-width="0.5pt" stroke-dasharray="none" points="82.997,242.812 82.997,26.250 "/>
      <polyline fill="none" stroke="#000000" stroke-width="0.5pt" stroke-dasharray="none" points="577.786,188.672 572.838,188.672 "/>
      <polyline fill="none" stroke="#000000" stroke-width="0.5pt" stroke-dasharray="none" points="577.786,134.531 572.838,134.531 "/>
      <polyline fill="none" stroke="#000000" stroke-width="0.5pt" stroke-dasharray="none" points="577.786,80.391 572.838,80.391 "/>
      <polyline fill="none" stroke="#000000" stroke-width="0.5pt" stroke-dasharray="none" points="577.786,242.812 577.786,26.250 "/>
  <g transform="translate(73.101,247.875)">
    <g transform="rotate(-0.0)">
      <text x="0.000" y="0.000" font-family="Times New Roman" text-anchor="end" font-size="11pt" fill="#000000" >0.2</text>
    </g>
  </g>
  <g transform="translate(73.101,193.734)">
    <g transform="rotate(-0.0)">
      <text x="0.000" y="0.000" font-family="Times New Roman" text-anchor="end" font-size="11pt" fill="#000000" >0.4</text>
    </g>
  </g>
  <g transform="translate(73.101,139.594)">
    <g transform="rotate(-0.0)">
      <text x="0.000" y="0.000" font-family="Times New Roman" text-anchor="end" font-size="11pt" fill="#000000" >0.6</text>
    </g>
  </g>
  <g transform="translate(73.101,85.453)">
    <g transform="rotate(-0.0)">
      <text x="0.000" y="0.000" font-family="Times New Roman" text-anchor="end" font-size="11pt" fill="#000000" >0.8</text>
    </g>
  </g>
  <g transform="translate(73.101,31.313)">
    <g transform="rotate(-0.0)">
      <text x="0.000" y="0.000" font-family="Times New Roman" text-anchor="end" font-size="11pt" fill="#000000" >1</text>
    </g>
  </g>
      <polyline fill="none" stroke="#000000" stroke-width="0.5pt" stroke-dasharray="none" points="82.997,242.812 82.997,240.647 "/>
      <polyline fill="none" stroke="#000000" stroke-width="0.5pt" stroke-dasharray="none" points="82.997,242.812 82.997,242.812 "/>
    </g>
  </g>
  <g id ="ID000010">
  <clipPath id="ID000011">
    <rect x="331.719" y="32.031" width="240.938" height="65.313"/>
  </clipPath>
      <polygon fill="#ffffff" fill-opacity="1.00" stroke="none" stroke-width="0.5pt" stroke-opacity="1.00" stroke-dasharray="none" points="331.719,97.344 572.656,97.344 572.656,32.031 331.719,32.031 "/>
      <polygon fill="#ffffff" fill-opacity="1.00" stroke="none" stroke-width="0.5pt" stroke-opacity="1.00" stroke-dasharray="none" points="331.719,32.031 572.656,32.031 572.656,32.031 331.719,32.031 "/>
      <polygon fill="#ffffff" fill-opacity="1.00" stroke="none" stroke-width="0.5pt" stroke-opacity="1.00" stroke-dasharray="none" points="331.719,97.344 331.719,97.344 331.719,32.031 331.719,32.031 "/>
    <g>
<g id="ID000012" >
  <g transform="translate(380.938,49.690)">
    <g transform="rotate(-0.0)">
      <text x="0.000" y="0.000" font-family="Times New Roman" text-anchor="start" font-size="11pt" fill="#000000" >$\Lambda=1\times 10^{-4}$</text>
    </g>
  </g>
</g>
<g id="ID000013" clip-path="url(#ID000011)" >
      <polyline fill="none" stroke="#000000" stroke-width="0.5pt" stroke-dasharray="none" points="339.219,44.375 376.719,44.375 "/>
<g>
</g>
</g>
<g id="ID000014" clip-path="url(#ID000011)" >
<g>
</g>
</g>
<g id="ID000015" >
  <g transform="translate(380.938,71.150)">
    <g transform="rotate(-0.0)">
      <text x="0.000" y="0.000" font-family="Times New Roman" text-anchor="start" font-size="11pt" fill="#000000" >$\Lambda=1\times 10^{-5}$</text>
    </g>
  </g>
</g>
<g id="ID000016" clip-path="url(#ID000011)" >
      <polyline fill="none" stroke="#000000" stroke-width="0.5pt" stroke-dasharray="8.0,2.0,2.0,2.0" points="339.219,64.688 376.719,64.688 "/>
<g>
</g>
</g>
<g id="ID000017" clip-path="url(#ID000011)" >
<g>
</g>
</g>
<g id="ID000018" >
  <g transform="translate(380.938,91.676)">
    <g transform="rotate(-0.0)">
      <text x="0.000" y="0.000" font-family="Times New Roman" text-anchor="start" font-size="11pt" fill="#000000" >$\Lambda=1\times 10^{-6}$</text>
    </g>
  </g>
</g>
<g id="ID000019" clip-path="url(#ID000011)" >
      <polyline fill="none" stroke="#000000" stroke-width="0.5pt" stroke-dasharray="2.0,2.0" points="339.219,85.000 376.719,85.000 "/>
<g>
</g>
</g>
<g id="ID000020" clip-path="url(#ID000011)" >
<g>
</g>
</g>
<g id="ID000021" >
</g>
<g id="ID000022" >
</g>
<g id="ID000023" >
</g>
    </g>
    <g>
      <polyline fill="none" stroke="#000000" stroke-width="0.5pt" stroke-dasharray="none" points="331.719,97.344 572.656,97.344 "/>
      <polyline fill="none" stroke="#000000" stroke-width="0.5pt" stroke-dasharray="none" points="331.719,32.031 572.656,32.031 "/>
      <polyline fill="none" stroke="#000000" stroke-width="0.5pt" stroke-dasharray="none" points="331.719,97.344 331.719,32.031 "/>
      <polyline fill="none" stroke="#000000" stroke-width="0.5pt" stroke-dasharray="none" points="572.656,97.344 572.656,32.031 "/>
      <polyline fill="none" stroke="#000000" stroke-width="0.5pt" stroke-dasharray="none" points="331.719,97.344 331.719,96.691 "/>
      <polyline fill="none" stroke="#000000" stroke-width="0.5pt" stroke-dasharray="none" points="331.719,97.344 331.719,97.344 "/>
    </g>
  </g>
  </g>
</svg>
