<?xml version="1.0" encoding="UTF-8" standalone="no"?>
<svg
   xmlns:dc="http://purl.org/dc/elements/1.1/"
   xmlns:cc="http://creativecommons.org/ns#"
   xmlns:rdf="http://www.w3.org/1999/02/22-rdf-syntax-ns#"
   xmlns:svg="http://www.w3.org/2000/svg"
   xmlns="http://www.w3.org/2000/svg"
   xmlns:sodipodi="http://sodipodi.sourceforge.net/DTD/sodipodi-0.dtd"
   xmlns:inkscape="http://www.inkscape.org/namespaces/inkscape"
   preserveAspectRatio="xMinYMin meet"
   width="100%"
   height="100%"
   viewBox="0 0 937.500 421.875"
   version="1.1"
   id="svg3086"
   inkscape:version="0.48.4 r9939"
   sodipodi:docname="Beta_Energy_Spectrum_Plot.svg">
  <metadata
     id="metadata3185">
    <rdf:RDF>
      <cc:Work
         rdf:about="">
        <dc:format>image/svg+xml</dc:format>
        <dc:type
           rdf:resource="http://purl.org/dc/dcmitype/StillImage" />
      </cc:Work>
    </rdf:RDF>
  </metadata>
  <defs
     id="defs3183" />
  <sodipodi:namedview
     pagecolor="#ffffff"
     bordercolor="#666666"
     borderopacity="1"
     objecttolerance="10"
     gridtolerance="10"
     guidetolerance="10"
     inkscape:pageopacity="0"
     inkscape:pageshadow="2"
     inkscape:window-width="1920"
     inkscape:window-height="1017"
     id="namedview3181"
     showgrid="false"
     inkscape:zoom="0.32746667"
     inkscape:cx="468.75"
     inkscape:cy="210.9375"
     inkscape:window-x="-8"
     inkscape:window-y="-8"
     inkscape:window-maximized="1"
     inkscape:current-layer="svg3086" />
  <desc
     id="desc3088">Matlab Figure Converted by PLOT2SVG written by Juerg Schwizer</desc>
  <g
     id="ID000000">
    <clipPath
       id="ID000001">
      <rect
         id="rect3095"
         height="343.828"
         width="726.56299"
         y="31.641001"
         x="121.875" />
    </clipPath>
    <polygon
       style="fill:#000000;fill-opacity:0;stroke:none"
       id="polygon3097"
       points="848.438,31.641 121.875,31.641 121.875,375.469 848.438,375.469 " />
    <polygon
       style="fill:#000000;fill-opacity:0;stroke:none"
       id="polygon3099"
       points="848.438,31.641 121.875,31.641 121.875,31.641 848.438,31.641 " />
    <polygon
       style="fill:#000000;fill-opacity:0;stroke:none"
       id="polygon3101"
       points="121.875,31.641 121.875,31.641 121.875,375.469 121.875,375.469 " />
    <g
       id="g3103">
      <g
         clip-path="url(#ID000001)"
         id="ID000002">
        <polyline
           style="fill:none;stroke:#000000;stroke-width:0.5pt;stroke-dasharray:none"
           id="polyline3106"
           points="121.875,375.469 122.457,375.453 123.039,375.407 123.620,375.331 124.202,375.224 124.784,375.086 125.366,374.917 125.948,374.719 126.530,374.489 127.111,374.229 127.693,373.939 128.275,373.619 128.857,373.268 129.439,372.887 130.021,372.476 130.602,372.035 131.184,371.564 131.766,371.063 132.348,370.533 132.930,369.972 133.512,369.383 134.093,368.764 134.675,368.116 135.257,367.439 135.839,366.733 136.421,365.998 137.003,365.235 137.584,364.443 138.166,363.623 138.748,362.775 139.330,361.899 139.912,360.995 140.494,360.064 141.075,359.105 141.657,358.119 142.239,357.106 142.821,356.067 143.403,355.001 143.985,353.909 144.566,352.791 145.148,351.647 145.730,350.477 146.312,349.283 146.894,348.063 147.476,346.818 148.057,345.549 148.639,344.256 149.221,342.939 149.803,341.598 150.385,340.234 150.967,338.846 151.548,337.436 152.130,336.004 152.712,334.549 153.294,333.072 153.876,331.573 154.458,330.054 155.039,328.513 155.621,326.952 156.203,325.370 156.785,323.769 157.367,322.147 157.949,320.507 158.530,318.847 159.112,317.169 159.694,315.473 160.276,313.759 160.858,312.027 161.440,310.278 162.021,308.512 162.603,306.730 163.185,304.931 163.767,303.117 164.349,301.288 164.931,299.443 165.512,297.584 166.094,295.711 166.676,293.824 167.258,291.924 167.840,290.010 168.422,288.084 169.003,286.145 169.585,284.195 170.167,282.233 170.749,280.260 171.331,278.276 171.913,276.282 172.494,274.278 173.076,272.265 173.658,270.243 174.240,268.212 174.822,266.172 175.404,264.125 175.985,262.070 176.567,260.009 177.149,257.940 177.731,255.866 178.313,253.785 178.895,251.700 179.476,249.609 180.058,247.513 180.640,245.414 181.222,243.310 181.804,241.204 182.386,239.094 182.967,236.982 183.549,234.868 184.131,232.752 184.713,230.634 185.295,228.516 185.877,226.397 186.458,224.278 187.040,222.160 187.622,220.042 188.204,217.925 188.786,215.810 189.367,213.697 189.949,211.586 190.531,209.477 191.113,207.372 191.695,205.270 192.277,203.172 192.858,201.079 193.440,198.990 194.022,196.906 194.604,194.827 195.186,192.754 195.768,190.688 196.349,188.627 196.931,186.574 197.513,184.528 198.095,182.490 198.677,180.460 199.259,178.438 199.840,176.425 200.422,174.421 201.004,172.426 201.586,170.441 202.168,168.466 202.750,166.502 203.331,164.549 203.913,162.606 204.495,160.675 205.077,158.756 205.659,156.849 206.241,154.955 206.822,153.073 207.404,151.204 207.986,149.349 208.568,147.507 209.150,145.680 209.732,143.867 210.313,142.068 210.895,140.284 211.477,138.515 212.059,136.762 212.641,135.024 213.223,133.303 213.804,131.598 214.386,129.909 214.968,128.237 215.550,126.582 216.132,124.944 216.714,123.324 217.295,121.722 217.877,120.138 218.459,118.572 219.041,117.024 219.623,115.495 220.205,113.985 220.786,112.494 221.368,111.023 221.950,109.571 222.532,108.139 223.114,106.726 223.696,105.334 224.277,103.963 224.859,102.611 225.441,101.281 226.023,99.971 226.605,98.682 227.187,97.414 227.768,96.168 228.350,94.943 228.932,93.740 229.514,92.559 230.096,91.399 230.678,90.261 231.259,89.146 231.841,88.053 232.423,86.982 233.005,85.934 233.587,84.908 234.169,83.905 234.750,82.925 235.332,81.968 235.914,81.034 236.496,80.123 237.078,79.235 237.660,78.370 238.241,77.528 238.823,76.710 239.405,75.915 239.987,75.144 240.569,74.396 241.151,73.671 241.732,72.970 242.314,72.293 242.896,71.639 243.478,71.009 244.060,70.403 244.642,69.821 245.223,69.262 245.805,68.726 246.387,68.215 246.969,67.727 247.551,67.263 248.133,66.822 248.714,66.405 249.296,66.012 249.878,65.642 250.460,65.296 251.042,64.974 251.623,64.675 252.205,64.399 252.787,64.147 253.369,63.918 253.951,63.712 254.533,63.530 255.114,63.371 255.696,63.235 256.278,63.122 256.860,63.031 257.442,62.964 258.024,62.920 258.605,62.898 259.187,62.898 259.769,62.922 260.351,62.967 260.933,63.035 261.515,63.125 262.096,63.238 262.678,63.372 263.260,63.528 263.842,63.706 264.424,63.905 265.006,64.126 265.587,64.368 266.169,64.631 266.751,64.916 267.333,65.221 267.915,65.548 268.497,65.894 269.078,66.262 269.660,66.649 270.242,67.057 270.824,67.485 271.406,67.933 271.988,68.401 272.569,68.888 273.151,69.394 273.733,69.920 274.315,70.465 274.897,71.029 275.479,71.611 276.060,72.212 276.642,72.831 277.224,73.469 277.806,74.124 278.388,74.797 278.970,75.488 279.551,76.197 280.133,76.922 280.715,77.665 281.297,78.424 281.879,79.200 282.461,79.992 283.042,80.801 283.624,81.626 284.206,82.466 284.788,83.323 285.370,84.194 285.952,85.081 286.533,85.983 287.115,86.900 287.697,87.831 288.279,88.777 288.861,89.737 289.443,90.711 290.024,91.698 290.606,92.699 291.188,93.714 291.770,94.742 292.352,95.782 292.934,96.835 293.515,97.901 294.097,98.979 294.679,100.069 295.261,101.171 295.843,102.284 296.425,103.409 297.006,104.545 297.588,105.692 298.170,106.849 298.752,108.018 299.334,109.196 299.916,110.384 300.497,111.583 301.079,112.791 301.661,114.008 302.243,115.235 302.825,116.470 303.407,117.715 303.988,118.967 304.570,120.229 305.152,121.498 305.734,122.775 306.316,124.060 306.898,125.352 307.479,126.652 308.061,127.959 308.643,129.272 309.225,130.592 309.807,131.919 310.389,133.251 310.970,134.590 311.552,135.934 312.134,137.284 312.716,138.640 313.298,140.000 313.880,141.366 314.461,142.736 315.043,144.111 315.625,145.490 316.207,146.873 316.789,148.261 317.370,149.652 317.952,151.046 318.534,152.444 319.116,153.845 319.698,155.249 320.280,156.656 320.861,158.065 321.443,159.477 322.025,160.891 322.607,162.307 323.189,163.725 323.771,165.145 324.352,166.566 324.934,167.988 325.516,169.412 326.098,170.837 326.680,172.262 327.262,173.688 327.843,175.114 328.425,176.541 329.007,177.967 329.589,179.394 330.171,180.820 330.753,182.246 331.334,183.672 331.916,185.097 332.498,186.520 333.080,187.943 333.662,189.365 334.244,190.785 334.825,192.204 335.407,193.621 335.989,195.037 336.571,196.450 337.153,197.862 337.735,199.271 338.316,200.678 338.898,202.083 339.480,203.485 340.062,204.884 340.644,206.280 341.226,207.673 341.807,209.063 342.389,210.450 342.971,211.834 343.553,213.214 344.135,214.590 344.717,215.963 345.298,217.332 345.880,218.696 346.462,220.057 347.044,221.414 347.626,222.766 348.208,224.114 348.789,225.457 349.371,226.796 349.953,228.130 350.535,229.459 351.117,230.784 351.699,232.103 352.280,233.417 352.862,234.727 353.444,236.030 354.026,237.329 354.608,238.622 355.190,239.909 355.771,241.191 356.353,242.468 356.935,243.738 357.517,245.003 358.099,246.262 358.681,247.514 359.262,248.761 359.844,250.002 360.426,251.236 361.008,252.464 361.590,253.686 362.172,254.902 362.753,256.111 363.335,257.314 363.917,258.510 364.499,259.699 365.081,260.882 365.663,262.058 366.244,263.227 366.826,264.390 367.408,265.546 367.990,266.695 368.572,267.837 369.154,268.972 369.735,270.100 370.317,271.221 370.899,272.334 371.481,273.441 372.063,274.541 372.645,275.633 373.226,276.719 373.808,277.797 374.390,278.867 374.972,279.931 375.554,280.987 376.136,282.036 376.717,283.078 377.299,284.112 377.881,285.139 378.463,286.158 379.045,287.170 379.627,288.175 380.208,289.172 380.790,290.161 381.372,291.144 381.954,292.118 382.536,293.086 383.117,294.045 383.699,294.998 384.281,295.943 384.863,296.880 385.445,297.810 386.027,298.732 386.608,299.647 387.190,300.555 387.772,301.455 388.354,302.347 388.936,303.232 389.518,304.110 390.099,304.980 390.681,305.842 391.263,306.698 391.845,307.545 392.427,308.386 393.009,309.219 393.590,310.044 394.172,310.863 394.754,311.673 395.336,312.477 395.918,313.273 396.500,314.062 397.081,314.844 397.663,315.618 398.245,316.386 398.827,317.146 399.409,317.898 399.991,318.644 400.572,319.382 401.154,320.114 401.736,320.838 402.318,321.555 402.900,322.265 403.482,322.969 404.063,323.665 404.645,324.354 405.227,325.036 405.809,325.712 406.391,326.380 406.973,327.042 407.554,327.697 408.136,328.345 408.718,328.986 409.300,329.621 409.882,330.249 410.464,330.870 411.045,331.485 411.627,332.094 412.209,332.695 412.791,333.291 413.373,333.879 413.955,334.462 414.536,335.038 415.118,335.607 415.700,336.171 416.282,336.728 416.864,337.279 417.446,337.823 418.027,338.362 418.609,338.894 419.191,339.421 419.773,339.941 420.355,340.456 420.937,340.964 421.518,341.467 422.100,341.963 422.682,342.454 423.264,342.939 423.846,343.419 424.428,343.892 425.009,344.360 425.591,344.823 426.173,345.280 426.755,345.731 427.337,346.177 427.919,346.617 428.500,347.052 429.082,347.482 429.664,347.906 430.246,348.326 430.828,348.739 431.410,349.148 431.991,349.552 432.573,349.950 433.155,350.344 433.737,350.732 434.319,351.116 434.901,351.494 435.482,351.868 436.064,352.237 436.646,352.601 437.228,352.960 437.810,353.315 438.392,353.665 438.973,354.010 439.555,354.351 440.137,354.688 440.719,355.019 441.301,355.347 441.883,355.670 442.464,355.988 443.046,356.303 443.628,356.613 444.210,356.919 444.792,357.220 445.373,357.518 445.955,357.811 446.537,358.101 447.119,358.386 447.701,358.667 448.283,358.945 448.864,359.218 449.446,359.488 450.028,359.754 450.610,360.016 451.192,360.274 451.774,360.529 452.355,360.780 452.937,361.027 453.519,361.271 454.101,361.512 454.683,361.749 455.265,361.982 455.846,362.212 456.428,362.439 457.010,362.662 457.592,362.882 458.174,363.099 458.756,363.312 459.337,363.522 459.919,363.730 460.501,363.934 461.083,364.135 461.665,364.333 462.247,364.528 462.828,364.720 463.410,364.909 463.992,365.095 464.574,365.278 465.156,365.459 465.738,365.636 466.319,365.811 466.901,365.984 467.483,366.153 468.065,366.320 468.647,366.484 469.229,366.646 469.810,366.805 470.392,366.962 470.974,367.116 471.556,367.268 472.138,367.417 472.720,367.564 473.301,367.709 473.883,367.851 474.465,367.991 475.047,368.128 475.629,368.264 476.211,368.397 476.792,368.528 477.374,368.657 477.956,368.784 478.538,368.908 479.120,369.031 479.702,369.152 480.283,369.270 480.865,369.387 481.447,369.502 482.029,369.614 482.611,369.725 483.193,369.834 483.774,369.941 484.356,370.047 484.938,370.150 485.520,370.252 486.102,370.352 486.684,370.450 487.265,370.547 487.847,370.642 488.429,370.735 489.011,370.827 489.593,370.917 490.175,371.006 490.756,371.093 491.338,371.178 491.920,371.262 492.502,371.345 493.084,371.426 493.666,371.506 494.247,371.584 494.829,371.661 495.411,371.736 495.993,371.810 496.575,371.883 497.157,371.955 497.738,372.025 498.320,372.094 498.902,372.162 499.484,372.228 500.066,372.293 500.648,372.358 501.229,372.420 501.811,372.482 502.393,372.543 502.975,372.602 503.557,372.661 504.139,372.718 504.720,372.774 505.302,372.830 505.884,372.884 506.466,372.937 507.048,372.989 507.630,373.041 508.211,373.091 508.793,373.140 509.375,373.189 509.957,373.236 510.539,373.283 511.120,373.328 511.702,373.373 512.284,373.417 512.866,373.460 513.448,373.502 514.030,373.544 514.611,373.585 515.193,373.625 515.775,373.664 516.357,373.702 516.939,373.740 517.521,373.777 518.102,373.813 518.684,373.848 519.266,373.883 519.848,373.917 520.430,373.950 521.012,373.983 521.593,374.015 522.175,374.047 522.757,374.078 523.339,374.108 523.921,374.138 524.503,374.167 525.084,374.195 525.666,374.223 526.248,374.250 526.830,374.277 527.412,374.303 527.994,374.329 528.575,374.354 529.157,374.379 529.739,374.403 530.321,374.427 530.903,374.450 531.485,374.472 532.066,374.495 532.648,374.516 533.230,374.538 533.812,374.559 534.394,374.579 534.976,374.599 535.557,374.619 536.139,374.638 536.721,374.657 537.303,374.675 537.885,374.693 538.467,374.711 539.048,374.728 539.630,374.745 540.212,374.762 540.794,374.778 541.376,374.794 541.958,374.809 542.539,374.824 543.121,374.839 543.703,374.854 544.285,374.868 544.867,374.882 545.449,374.896 546.030,374.909 546.612,374.922 547.194,374.935 547.776,374.947 548.358,374.959 548.940,374.971 549.521,374.983 550.103,374.994 550.685,375.006 551.267,375.017 551.849,375.027 552.431,375.038 553.012,375.048 553.594,375.058 554.176,375.068 554.758,375.077 555.340,375.087 555.922,375.096 556.503,375.105 557.085,375.113 557.667,375.122 558.249,375.130 558.831,375.138 559.413,375.146 559.994,375.154 560.576,375.162 561.158,375.169 561.740,375.177 562.322,375.184 562.904,375.191 563.485,375.197 564.067,375.204 564.649,375.211 565.231,375.217 565.813,375.223 566.395,375.229 566.976,375.235 567.558,375.241 568.140,375.246 568.722,375.252 569.304,375.257 569.886,375.263 570.467,375.268 571.049,375.273 571.631,375.278 572.213,375.282 572.795,375.287 573.377,375.292 573.958,375.296 574.540,375.300 575.122,375.305 575.704,375.309 576.286,375.313 576.867,375.317 577.449,375.321 578.031,375.324 578.613,375.328 579.195,375.332 579.777,375.335 580.358,375.339 580.940,375.342 581.522,375.345 582.104,375.348 582.686,375.351 583.268,375.354 583.849,375.357 584.431,375.360 585.013,375.363 585.595,375.366 586.177,375.368 586.759,375.371 587.340,375.374 587.922,375.376 588.504,375.378 589.086,375.381 589.668,375.383 590.250,375.385 590.831,375.388 591.413,375.390 591.995,375.392 592.577,375.394 593.159,375.396 593.741,375.398 594.322,375.400 594.904,375.401 595.486,375.403 596.068,375.405 596.650,375.407 597.232,375.408 597.813,375.410 598.395,375.411 598.977,375.413 599.559,375.415 600.141,375.416 600.723,375.417 601.304,375.419 601.886,375.420 602.468,375.421 603.050,375.423 603.632,375.424 604.214,375.425 604.795,375.426 605.377,375.427 605.959,375.429 606.541,375.430 607.123,375.431 607.705,375.432 608.286,375.433 608.868,375.434 609.450,375.435 610.032,375.436 610.614,375.437 611.196,375.437 611.777,375.438 612.359,375.439 612.941,375.440 613.523,375.441 614.105,375.442 614.687,375.442 615.268,375.443 615.850,375.444 616.432,375.444 617.014,375.445 617.596,375.446 618.178,375.446 618.759,375.447 619.341,375.448 619.923,375.448 620.505,375.449 621.087,375.449 621.669,375.450 622.250,375.451 622.832,375.451 623.414,375.452 623.996,375.452 624.578,375.452 625.160,375.453 625.741,375.453 626.323,375.454 626.905,375.454 627.487,375.455 628.069,375.455 628.651,375.455 629.232,375.456 629.814,375.456 630.396,375.457 630.978,375.457 631.560,375.457 632.142,375.458 632.723,375.458 633.305,375.458 633.887,375.459 634.469,375.459 635.051,375.459 635.633,375.459 636.214,375.460 636.796,375.460 637.378,375.460 637.960,375.460 638.542,375.461 639.123,375.461 639.705,375.461 640.287,375.461 640.869,375.462 641.451,375.462 642.033,375.462 642.614,375.462 643.196,375.462 643.778,375.463 644.360,375.463 644.942,375.463 645.524,375.463 646.105,375.463 646.687,375.463 647.269,375.464 647.851,375.464 648.433,375.464 649.015,375.464 649.596,375.464 650.178,375.464 650.760,375.464 651.342,375.465 651.924,375.465 652.506,375.465 653.087,375.465 653.669,375.465 654.251,375.465 654.833,375.465 655.415,375.465 655.997,375.466 656.578,375.466 657.160,375.466 657.742,375.466 658.324,375.466 658.906,375.466 659.488,375.466 660.069,375.466 660.651,375.466 661.233,375.466 661.815,375.466 662.397,375.466 662.979,375.467 663.560,375.467 664.142,375.467 664.724,375.467 665.306,375.467 665.888,375.467 666.470,375.467 667.051,375.467 667.633,375.467 668.215,375.467 668.797,375.467 669.379,375.467 669.961,375.467 670.542,375.467 671.124,375.467 671.706,375.467 672.288,375.467 672.870,375.467 673.452,375.467 674.033,375.468 674.615,375.468 675.197,375.468 675.779,375.468 676.361,375.468 676.943,375.468 677.524,375.468 678.106,375.468 678.688,375.468 679.270,375.468 679.852,375.468 680.434,375.468 681.015,375.468 681.597,375.468 682.179,375.468 682.761,375.468 683.343,375.468 683.925,375.468 684.506,375.468 685.088,375.468 685.670,375.468 686.252,375.468 686.834,375.468 687.416,375.468 687.997,375.468 688.579,375.468 689.161,375.468 689.743,375.468 690.325,375.468 690.907,375.468 691.488,375.468 692.070,375.468 692.652,375.468 693.234,375.468 693.816,375.468 694.398,375.468 694.979,375.468 695.561,375.468 696.143,375.468 696.725,375.468 697.307,375.468 697.889,375.468 698.470,375.468 699.052,375.468 699.634,375.468 700.216,375.468 700.798,375.468 701.380,375.468 701.961,375.469 702.543,375.469 703.125,375.469 " />
        <g
           id="g3108" />
      </g>
      <g
         clip-path="url(#ID000001)"
         id="ID000003">
        <polyline
           style="fill:none;stroke:#000000;stroke-width:0.5pt;stroke-dasharray:8, 2"
           id="polyline3111"
           points="315.625,375.469 315.625,-474.194 " />
        <g
           id="g3113" />
      </g>
      <g
         clip-path="url(#ID000001)"
         id="ID000004">
        <polyline
           style="fill:none;stroke:#000000;stroke-width:0.5pt;stroke-dasharray:8, 2"
           id="polyline3116"
           points="703.125,375.469 703.125,-474.194 " />
        <g
           id="g3118" />
      </g>
      <g
         id="ID000005">
        <g
           id="g3121"
           transform="translate(484.219,406.391)">
          <g
             id="g3123">
            <text
               style="font-size:11.25px;text-anchor:middle;fill:#000000;font-family:Times New Roman"
               id="text3125"
               font-size="9pt"
               y="0"
               x="0">Beta Energy</text>
          </g>
        </g>
      </g>
      <g
         id="ID000006">
        <g
           id="g3128"
           transform="translate(113.438,204.492)">
          <g
             id="g3130"
             transform="matrix(0,-1,1,0,0,0)">
            <text
               style="font-size:11.25px;text-anchor:middle;fill:#000000;font-family:Times New Roman"
               id="text3132"
               font-size="9pt"
               y="0"
               x="0">Probability</text>
          </g>
        </g>
      </g>
      <g
         id="ID000007" />
    </g>
    <g
       id="g3135">
      <polyline
         style="fill:none;stroke:#000000;stroke-width:0.5pt;stroke-dasharray:none"
         id="polyline3137"
         points="315.625,375.469 315.625,368.203 " />
      <polyline
         style="fill:none;stroke:#000000;stroke-width:0.5pt;stroke-dasharray:none"
         id="polyline3139"
         points="703.125,375.469 703.125,368.203 " />
      <polyline
         style="fill:none;stroke:#000000;stroke-width:0.5pt;stroke-dasharray:none"
         id="polyline3141"
         points="121.875,375.469 848.438,375.469 " />
      <polyline
         style="fill:none;stroke:#000000;stroke-width:0.5pt;stroke-dasharray:none"
         id="polyline3143"
         points="315.625,31.641 315.625,38.906 " />
      <polyline
         style="fill:none;stroke:#000000;stroke-width:0.5pt;stroke-dasharray:none"
         id="polyline3145"
         points="703.125,31.641 703.125,38.906 " />
      <polyline
         style="fill:none;stroke:#000000;stroke-width:0.5pt;stroke-dasharray:none"
         id="polyline3147"
         points="121.875,31.641 848.438,31.641 " />
      <g
         id="g3149"
         transform="translate(315.625,393.408)">
        <g
           id="g3151">
          <text
             style="font-size:11.25px;text-anchor:middle;fill:#000000;font-family:Times New Roman"
             id="text3153"
             font-size="9pt"
             y="0"
             x="0">
            <tspan
               id="tspan3155">E</tspan>
            <tspan
               style="font-size:8.75px"
               id="tspan3157"
               font-size="7pt"
               dy="4.75">a</tspan>
            <tspan
               style="font-size:11.25px"
               id="tspan3159"
               font-size="9pt"
               dy="-4.75">vg</tspan>
          </text>
        </g>
      </g>
      <g
         id="g3161"
         transform="translate(703.125,393.408)">
        <g
           id="g3163">
          <text
             style="font-size:11.25px;text-anchor:middle;fill:#000000;font-family:Times New Roman"
             id="text3165"
             font-size="9pt"
             y="0"
             x="0">
            <tspan
               id="tspan3167">E</tspan>
            <tspan
               style="font-size:8.75px"
               id="tspan3169"
               font-size="7pt"
               dy="4.75">m</tspan>
            <tspan
               style="font-size:11.25px"
               id="tspan3171"
               font-size="9pt"
               dy="-4.75">ax</tspan>
          </text>
        </g>
      </g>
      <polyline
         style="fill:none;stroke:#000000;stroke-width:0.5pt;stroke-dasharray:none"
         id="polyline3173"
         points="121.875,375.469 121.875,31.641 " />
      <polyline
         style="fill:none;stroke:#000000;stroke-width:0.5pt;stroke-dasharray:none"
         id="polyline3175"
         points="848.438,375.469 848.438,31.641 " />
      <polyline
         style="fill:none;stroke:#000000;stroke-width:0.5pt;stroke-dasharray:none"
         id="polyline3177"
         points="121.875,375.469 121.875,372.030 " />
      <polyline
         style="fill:none;stroke:#000000;stroke-width:0.5pt;stroke-dasharray:none"
         id="polyline3179"
         points="121.875,375.469 121.875,375.469 " />
    </g>
  </g>
</svg>
