<?xml version="1.0" encoding="UTF-8" standalone="no"?>
<svg
   xmlns:dc="http://purl.org/dc/elements/1.1/"
   xmlns:cc="http://creativecommons.org/ns#"
   xmlns:rdf="http://www.w3.org/1999/02/22-rdf-syntax-ns#"
   xmlns:svg="http://www.w3.org/2000/svg"
   xmlns="http://www.w3.org/2000/svg"
   xmlns:sodipodi="http://sodipodi.sourceforge.net/DTD/sodipodi-0.dtd"
   xmlns:inkscape="http://www.inkscape.org/namespaces/inkscape"
   preserveAspectRatio="xMinYMin meet"
   width="100%"
   height="100%"
   viewBox="0 0 937.500 421.875"
   version="1.1"
   id="svg3064"
   inkscape:version="0.48.4 r9939"
   sodipodi:docname="Photon_Interactions_Plot.svg">
  <metadata
     id="metadata3141">
    <rdf:RDF>
      <cc:Work
         rdf:about="">
        <dc:format>image/svg+xml</dc:format>
        <dc:type
           rdf:resource="http://purl.org/dc/dcmitype/StillImage" />
      </cc:Work>
    </rdf:RDF>
  </metadata>
  <defs
     id="defs3139" />
  <sodipodi:namedview
     pagecolor="#ffffff"
     bordercolor="#666666"
     borderopacity="1"
     objecttolerance="10"
     gridtolerance="10"
     guidetolerance="10"
     inkscape:pageopacity="0"
     inkscape:pageshadow="2"
     inkscape:window-width="1920"
     inkscape:window-height="1017"
     id="namedview3137"
     showgrid="false"
     inkscape:zoom="1.8773333"
     inkscape:cx="468.75"
     inkscape:cy="210.9375"
     inkscape:window-x="-8"
     inkscape:window-y="-8"
     inkscape:window-maximized="1"
     inkscape:current-layer="svg3064" />
  <desc
     id="desc3066">Matlab Figure Converted by PLOT2SVG written by Juerg Schwizer</desc>
  <g
     id="ID000000">
    <clipPath
       id="ID000001">
      <rect
         id="rect3073"
         height="343.828"
         width="726.56299"
         y="31.641001"
         x="121.875" />
    </clipPath>
    <polygon
       style="fill:#000000;fill-opacity:0;stroke:none"
       id="polygon3075"
       points="848.438,31.641 121.875,31.641 121.875,375.469 848.438,375.469 " />
    <polygon
       style="fill:#000000;fill-opacity:0;stroke:none"
       id="polygon3077"
       points="848.438,31.641 121.875,31.641 121.875,31.641 848.438,31.641 " />
    <polygon
       style="fill:#000000;fill-opacity:0;stroke:none"
       id="polygon3079"
       points="121.875,31.641 121.875,31.641 121.875,375.469 121.875,375.469 " />
    <g
       id="g3081">
      <g
         clip-path="url(#ID000001)"
         id="ID000002">
        <polyline
           style="fill:none;stroke:#000000;stroke-width:0.5pt;stroke-dasharray:none"
           id="polyline3084"
           points="121.875,318.164 122.602,318.161 123.330,318.153 124.057,318.138 124.784,318.118 125.511,318.092 126.239,318.061 126.966,318.023 127.693,317.980 128.421,317.932 129.148,317.877 129.875,317.817 130.602,317.751 131.330,317.679 132.057,317.601 132.784,317.518 133.512,317.429 134.239,317.334 134.966,317.234 135.694,317.128 136.421,317.016 137.148,316.898 137.875,316.775 138.603,316.645 139.330,316.510 140.057,316.370 140.785,316.223 141.512,316.071 142.239,315.913 142.966,315.750 143.694,315.580 144.421,315.405 145.148,315.224 145.876,315.038 146.603,314.845 147.330,314.647 148.057,314.443 148.785,314.234 149.512,314.018 150.239,313.797 150.967,313.571 151.694,313.338 152.421,313.100 153.148,312.856 153.876,312.606 154.603,312.350 155.330,312.089 156.058,311.822 156.785,311.549 157.512,311.271 158.239,310.987 158.967,310.697 159.694,310.401 160.421,310.099 161.149,309.792 161.876,309.479 162.603,309.161 163.331,308.836 164.058,308.506 164.785,308.170 165.512,307.829 166.240,307.481 166.967,307.128 167.694,306.769 168.422,306.405 169.149,306.034 169.876,305.658 170.603,305.276 171.331,304.889 172.058,304.495 172.785,304.096 173.513,303.691 174.240,303.281 174.967,302.865 175.694,302.443 176.422,302.015 177.149,301.581 177.876,301.142 178.604,300.697 179.331,300.246 180.058,299.790 180.785,299.328 181.513,298.860 182.240,298.386 182.967,297.906 183.695,297.421 184.422,296.930 185.149,296.434 185.877,295.931 186.604,295.423 187.331,294.909 188.058,294.390 188.786,293.864 189.513,293.333 190.240,292.796 190.968,292.254 191.695,291.705 192.422,291.151 193.149,290.591 193.877,290.026 194.604,289.454 195.331,288.877 196.059,288.294 196.786,287.706 197.513,287.112 198.240,286.512 198.968,285.906 199.695,285.294 200.422,284.677 201.150,284.054 201.877,283.425 202.604,282.791 203.331,282.151 204.059,281.505 204.786,280.853 205.513,280.195 206.241,279.532 206.968,278.863 207.695,278.189 208.422,277.508 209.150,276.822 209.877,276.130 210.604,275.432 211.332,274.729 212.059,274.020 212.786,273.305 213.514,272.584 214.241,271.858 214.968,271.126 215.695,270.388 216.423,269.645 217.150,268.895 217.877,268.140 218.605,267.379 219.332,266.613 220.059,265.841 220.786,265.063 221.514,264.279 222.241,263.489 222.968,262.694 223.696,261.893 224.423,261.086 225.150,260.274 225.877,259.456 226.605,258.632 227.332,257.802 228.059,256.966 228.787,256.125 229.514,255.278 230.241,254.426 230.968,253.567 231.696,252.703 232.423,251.833 233.150,250.957 233.878,250.076 234.605,249.189 235.332,248.296 236.059,247.397 236.787,246.493 237.514,245.583 238.241,244.667 238.969,243.746 239.696,242.818 240.423,241.885 241.151,240.946 241.878,240.002 242.605,239.052 243.332,238.095 244.060,237.134 244.787,236.166 245.514,235.193 246.242,234.214 246.969,233.229 247.696,232.239 248.423,231.242 249.151,230.241 249.878,229.233 250.605,228.219 251.333,227.200 252.060,226.175 252.787,225.145 253.514,224.108 254.242,223.066 254.969,222.018 255.696,220.964 256.424,219.905 257.151,218.840 257.878,217.769 258.605,216.692 259.333,215.610 260.060,214.522 260.787,213.428 261.515,212.328 262.242,211.223 262.969,210.112 263.697,208.995 264.424,207.873 265.151,206.744 265.878,205.610 266.606,204.471 267.333,203.325 268.060,202.174 268.788,201.017 269.515,199.854 270.242,198.686 270.969,197.511 271.697,196.331 272.424,195.146 273.151,193.954 273.879,192.757 274.606,191.554 275.333,190.345 276.060,189.131 276.788,187.911 277.515,186.685 278.242,185.453 278.970,184.216 279.697,182.973 280.424,181.724 281.151,180.469 281.879,179.209 282.606,177.943 283.333,176.671 284.061,175.393 284.788,174.110 285.515,172.821 286.242,171.526 286.970,170.226 287.697,168.919 288.424,167.607 289.152,166.290 289.879,164.966 290.606,163.637 291.334,162.302 292.061,160.961 292.788,159.615 293.515,158.262 294.243,156.904 294.970,155.541 295.697,154.171 296.425,152.796 297.152,151.415 297.879,150.028 298.606,148.636 299.334,147.238 300.061,145.834 300.788,144.424 301.516,143.009 302.243,141.588 302.970,140.161 303.697,138.728 304.425,137.290 305.152,135.846 305.879,134.396 306.607,132.940 307.334,131.479 308.061,130.012 308.788,128.539 309.516,127.061 310.243,125.576 310.970,124.086 311.698,122.590 312.425,121.089 313.152,119.582 313.880,118.069 314.607,116.550 315.334,115.025 316.061,113.495 316.789,111.959 317.516,110.418 318.243,108.870 318.971,107.317 319.698,105.758 320.425,104.193 321.152,102.623 321.880,101.047 322.607,99.465 323.334,97.877 324.062,96.284 324.789,94.685 325.516,93.080 326.243,91.469 326.971,89.853 327.698,88.231 328.425,86.603 329.153,84.969 329.880,83.330 330.607,81.685 331.334,80.034 332.062,78.377 332.789,76.715 333.516,75.047 334.244,73.373 334.971,71.694 335.698,70.009 336.425,68.318 337.153,66.621 337.880,64.918 338.607,63.210 339.335,61.496 340.062,59.776 340.789,58.051 341.517,56.320 342.244,54.583 342.971,52.840 343.698,51.092 344.426,49.338 345.153,47.578 345.880,45.812 346.608,44.041 347.335,42.264 348.062,40.481 348.789,38.692 349.517,36.898 350.244,35.098 350.971,33.292 351.699,31.480 352.426,29.663 353.153,27.840 353.880,26.011 354.608,24.176 355.335,22.336 356.062,20.490 356.790,18.638 357.517,16.781 358.244,14.917 358.971,13.048 359.699,11.174 360.426,9.293 361.153,7.407 361.881,5.515 362.608,3.617 363.335,1.714 364.063,-0.195 364.790,-2.110 365.517,-4.031 366.244,-5.957 366.972,-7.890 367.699,-9.827 368.426,-11.771 369.154,-13.720 369.881,-15.676 370.608,-17.636 371.335,-19.603 372.063,-21.575 372.790,-23.554 373.517,-25.537 374.245,-27.527 374.972,-29.522 375.699,-31.523 376.426,-33.530 377.154,-35.543 377.881,-37.561 378.608,-39.585 379.336,-41.615 380.063,-43.650 380.790,-45.692 381.517,-47.739 382.245,-49.791 382.972,-51.850 383.699,-53.914 384.427,-55.984 385.154,-58.060 385.881,-60.141 386.608,-62.228 387.336,-64.321 388.063,-66.420 388.790,-68.524 389.518,-70.635 390.245,-72.751 390.972,-74.872 391.700,-77.000 392.427,-79.133 393.154,-81.272 393.881,-83.416 394.609,-85.567 395.336,-87.723 396.063,-89.885 396.791,-92.052 397.518,-94.225 398.245,-96.405 398.972,-98.589 399.700,-100.780 400.427,-102.976 401.154,-105.178 401.882,-107.386 402.609,-109.599 403.336,-111.819 404.063,-114.044 404.791,-116.275 405.518,-118.511 406.245,-120.753 406.973,-123.001 407.700,-125.255 408.427,-127.514 409.154,-129.780 409.882,-132.051 410.609,-134.327 411.336,-136.610 412.064,-138.898 412.791,-141.192 413.518,-143.491 414.245,-145.797 414.973,-148.108 415.700,-150.425 416.427,-152.747 417.155,-155.076 417.882,-157.410 418.609,-159.750 419.337,-162.095 420.064,-164.447 420.791,-166.804 421.518,-169.166 422.246,-171.535 422.973,-173.909 423.700,-176.289 424.428,-178.675 425.155,-181.067 425.882,-183.464 426.609,-185.867 427.337,-188.276 428.064,-190.690 428.791,-193.110 429.519,-195.536 430.246,-197.968 430.973,-200.406 431.700,-202.849 432.428,-205.298 433.155,-207.752 433.882,-210.213 434.610,-212.679 435.337,-215.151 436.064,-217.628 436.791,-220.112 437.519,-222.601 438.246,-225.096 438.973,-227.597 439.701,-230.103 440.428,-232.615 441.155,-235.133 441.883,-237.656 442.610,-240.186 443.337,-242.721 444.064,-245.262 444.792,-247.808 445.519,-250.360 446.246,-252.918 446.974,-255.482 447.701,-258.052 448.428,-260.627 449.155,-263.208 449.883,-265.795 450.610,-268.387 451.337,-270.986 452.065,-273.590 452.792,-276.199 453.519,-278.815 454.246,-281.436 454.974,-284.063 455.701,-286.695 456.428,-289.334 457.156,-291.978 457.883,-294.628 458.610,-297.284 459.337,-299.945 460.065,-302.612 460.792,-305.285 461.519,-307.964 462.247,-310.648 462.974,-313.338 463.701,-316.034 464.428,-318.736 465.156,-321.443 465.883,-324.156 466.610,-326.875 467.338,-329.599 468.065,-332.330 468.792,-335.066 469.520,-337.807 470.247,-340.555 470.974,-343.308 471.701,-346.067 472.429,-348.832 473.156,-351.602 473.883,-354.379 474.611,-357.161 475.338,-359.948 476.065,-362.742 476.792,-365.541 477.520,-368.346 478.247,-371.157 478.974,-373.973 479.702,-376.795 480.429,-379.623 481.156,-382.457 481.883,-385.296 482.611,-388.141 483.338,-390.992 484.065,-393.849 484.793,-396.711 485.520,-399.579 486.247,-402.453 486.974,-405.333 487.702,-408.218 488.429,-411.109 489.156,-414.006 489.884,-416.908 490.611,-419.817 491.338,-422.731 492.066,-425.651 492.793,-428.576 493.520,-431.507 494.247,-434.444 494.975,-437.387 495.702,-440.336 496.429,-443.290 497.157,-446.250 497.884,-449.216 498.611,-452.187 499.338,-455.164 500.066,-458.147 500.793,-461.136 501.520,-464.130 502.248,-467.130 502.975,-470.136 503.702,-473.148 504.429,-476.165 505.157,-479.189 505.884,-482.217 506.611,-485.252 507.339,-488.292 508.066,-491.338 508.793,-494.390 509.520,-497.448 510.248,-500.511 510.975,-503.580 511.702,-506.655 512.430,-509.736 513.157,-512.822 513.884,-515.914 514.611,-519.012 515.339,-522.115 516.066,-525.225 516.793,-528.340 517.521,-531.460 518.248,-534.587 518.975,-537.719 519.703,-540.857 520.430,-544.001 521.157,-547.150 521.884,-550.305 522.612,-553.466 523.339,-556.633 524.066,-559.805 524.794,-562.984 525.521,-566.168 526.248,-569.357 526.975,-572.553 527.703,-575.754 528.430,-578.961 529.157,-582.173 529.885,-585.392 530.612,-588.616 531.339,-591.846 532.066,-595.081 532.794,-598.322 533.521,-601.570 534.248,-604.822 534.976,-608.081 535.703,-611.345 536.430,-614.615 537.157,-617.891 537.885,-621.173 538.612,-624.460 539.339,-627.753 540.067,-631.052 540.794,-634.356 541.521,-637.666 542.248,-640.982 542.976,-644.304 543.703,-647.631 544.430,-650.965 545.158,-654.304 545.885,-657.648 546.612,-660.999 547.340,-664.355 548.067,-667.717 548.794,-671.084 549.521,-674.458 550.249,-677.837 550.976,-681.222 551.703,-684.612 552.431,-688.009 553.158,-691.411 553.885,-694.819 554.612,-698.232 555.340,-701.652 556.067,-705.077 556.794,-708.508 557.522,-711.944 558.249,-715.386 558.976,-718.834 559.703,-722.288 560.431,-725.748 561.158,-729.213 561.885,-732.684 562.613,-736.161 563.340,-739.643 564.067,-743.131 564.794,-746.625 565.522,-750.125 566.249,-753.631 566.976,-757.142 567.704,-760.659 568.431,-764.181 569.158,-767.710 569.886,-771.244 570.613,-774.784 571.340,-778.330 572.067,-781.881 572.795,-785.438 573.522,-789.001 574.249,-792.570 574.977,-796.144 575.704,-799.724 576.431,-803.310 577.158,-806.902 577.886,-810.499 578.613,-814.102 579.340,-817.711 580.068,-821.325 580.795,-824.946 581.522,-828.572 582.249,-832.203 582.977,-835.841 583.704,-839.484 584.431,-843.133 585.159,-846.788 585.886,-850.448 586.613,-854.115 587.340,-857.787 588.068,-861.464 588.795,-865.148 589.522,-868.837 590.250,-872.532 590.977,-876.233 591.704,-879.939 592.431,-883.651 593.159,-887.369 593.886,-891.093 594.613,-894.822 595.341,-898.557 596.068,-902.298 596.795,-906.045 597.523,-909.797 598.250,-913.555 598.977,-917.319 599.704,-921.089 600.432,-924.864 601.159,-928.645 601.886,-932.432 602.614,-936.225 603.341,-940.023 604.068,-943.827 604.795,-947.637 605.523,-951.452 606.250,-955.273 606.977,-959.100 607.705,-962.933 608.432,-966.772 609.159,-970.616 609.886,-974.466 610.614,-978.322 611.341,-982.183 612.068,-986.050 612.796,-989.923 613.523,-993.802 614.250,-997.686 614.977,-1001.576 615.705,-1005.472 616.432,-1009.374 617.159,-1013.281 617.887,-1017.195 618.614,-1021.113 619.341,-1025.038 620.069,-1028.968 620.796,-1032.905 621.523,-1036.846 622.250,-1040.794 622.978,-1044.747 623.705,-1048.706 624.432,-1052.671 625.160,-1056.642 625.887,-1060.618 626.614,-1064.600 627.341,-1068.588 628.069,-1072.581 628.796,-1076.581 629.523,-1080.586 630.251,-1084.596 630.978,-1088.613 631.705,-1092.635 632.432,-1096.663 633.160,-1100.697 633.887,-1104.736 634.614,-1108.782 635.342,-1112.832 636.069,-1116.889 636.796,-1120.952 637.523,-1125.020 638.251,-1129.094 638.978,-1133.173 639.705,-1137.259 640.433,-1141.350 641.160,-1145.447 641.887,-1149.549 642.614,-1153.658 643.342,-1157.772 644.069,-1161.892 644.796,-1166.017 645.524,-1170.149 646.251,-1174.286 646.978,-1178.428 647.706,-1182.577 648.433,-1186.731 649.160,-1190.891 649.887,-1195.057 650.615,-1199.229 651.342,-1203.406 652.069,-1207.589 652.797,-1211.778 653.524,-1215.972 654.251,-1220.172 654.978,-1224.378 655.706,-1228.590 656.433,-1232.808 657.160,-1237.031 657.888,-1241.260 658.615,-1245.494 659.342,-1249.735 660.069,-1253.981 660.797,-1258.233 661.524,-1262.491 662.251,-1266.754 662.979,-1271.023 663.706,-1275.298 664.433,-1279.579 665.160,-1283.865 665.888,-1288.157 666.615,-1292.455 667.342,-1296.759 668.070,-1301.068 668.797,-1305.383 669.524,-1309.704 670.252,-1314.030 670.979,-1318.363 671.706,-1322.701 672.433,-1327.044 673.161,-1331.394 673.888,-1335.749 674.615,-1340.110 675.343,-1344.477 676.070,-1348.849 676.797,-1353.228 677.524,-1357.612 678.252,-1362.001 678.979,-1366.397 679.706,-1370.798 680.434,-1375.205 681.161,-1379.618 681.888,-1384.036 682.615,-1388.460 683.343,-1392.890 684.070,-1397.326 684.797,-1401.767 685.525,-1406.214 686.252,-1410.667 686.979,-1415.126 687.706,-1419.590 688.434,-1424.060 689.161,-1428.536 689.888,-1433.018 690.616,-1437.505 691.343,-1441.998 692.070,-1446.497 692.797,-1451.002 693.525,-1455.512 694.252,-1460.028 694.979,-1464.550 695.707,-1469.077 696.434,-1473.610 697.161,-1478.149 697.889,-1482.694 698.616,-1487.245 699.343,-1491.801 700.070,-1496.363 700.798,-1500.931 701.525,-1505.504 702.252,-1510.083 702.980,-1514.668 703.707,-1519.259 704.434,-1523.855 705.161,-1528.458 705.889,-1533.065 706.616,-1537.679 707.343,-1542.299 708.071,-1546.924 708.798,-1551.555 709.525,-1556.191 710.252,-1560.834 710.980,-1565.482 711.707,-1570.135 712.434,-1574.795 713.162,-1579.460 713.889,-1584.131 714.616,-1588.808 715.343,-1593.491 716.071,-1598.179 716.798,-1602.873 717.525,-1607.573 718.253,-1612.278 718.980,-1616.990 719.707,-1621.707 720.434,-1626.430 721.162,-1631.158 721.889,-1635.892 722.616,-1640.632 723.344,-1645.378 724.071,-1650.129 724.798,-1654.887 725.526,-1659.650 726.253,-1664.418 726.980,-1669.193 727.707,-1673.973 728.435,-1678.759 729.162,-1683.550 729.889,-1688.348 730.617,-1693.151 731.344,-1697.960 732.071,-1702.774 732.798,-1707.595 733.526,-1712.421 734.253,-1717.253 734.980,-1722.090 735.708,-1726.934 736.435,-1731.783 737.162,-1736.638 737.889,-1741.498 738.617,-1746.364 739.344,-1751.236 740.071,-1756.114 740.799,-1760.998 741.526,-1765.887 742.253,-1770.782 742.980,-1775.683 743.708,-1780.589 744.435,-1785.502 745.162,-1790.420 745.890,-1795.343 746.617,-1800.273 747.344,-1805.208 748.072,-1810.149 748.799,-1815.096 749.526,-1820.048 750.253,-1825.006 750.981,-1829.970 751.708,-1834.940 752.435,-1839.915 753.163,-1844.896 753.890,-1849.883 754.617,-1854.876 755.344,-1859.874 756.072,-1864.878 756.799,-1869.888 757.526,-1874.904 758.254,-1879.925 758.981,-1884.952 759.708,-1889.985 760.435,-1895.023 761.163,-1900.068 761.890,-1905.118 762.617,-1910.174 763.345,-1915.235 764.072,-1920.302 764.799,-1925.375 765.526,-1930.454 766.254,-1935.539 766.981,-1940.629 767.708,-1945.725 768.436,-1950.827 769.163,-1955.934 769.890,-1961.047 770.617,-1966.166 771.345,-1971.291 772.072,-1976.421 772.799,-1981.557 773.527,-1986.699 774.254,-1991.847 774.981,-1997.000 775.709,-2002.160 776.436,-2007.324 777.163,-2012.495 777.890,-2017.671 778.618,-2022.854 779.345,-2028.041 780.072,-2033.235 780.800,-2038.434 781.527,-2043.639 782.254,-2048.850 782.981,-2054.067 783.709,-2059.289 784.436,-2064.517 785.163,-2069.751 785.891,-2074.990 786.618,-2080.236 787.345,-2085.487 788.072,-2090.743 788.800,-2096.006 789.527,-2101.274 790.254,-2106.548 790.982,-2111.828 791.709,-2117.113 792.436,-2122.405 793.163,-2127.701 793.891,-2133.004 794.618,-2138.313 795.345,-2143.627 796.073,-2148.947 796.800,-2154.272 797.527,-2159.604 798.255,-2164.941 798.982,-2170.284 799.709,-2175.632 800.436,-2180.987 801.164,-2186.347 801.891,-2191.713 802.618,-2197.084 803.346,-2202.462 804.073,-2207.845 804.800,-2213.234 805.527,-2218.628 806.255,-2224.028 806.982,-2229.434 807.709,-2234.846 808.437,-2240.264 809.164,-2245.687 809.891,-2251.116 810.618,-2256.551 811.346,-2261.991 812.073,-2267.437 812.800,-2272.889 813.528,-2278.347 814.255,-2283.811 814.982,-2289.280 815.709,-2294.755 816.437,-2300.235 817.164,-2305.722 817.891,-2311.214 818.619,-2316.712 819.346,-2322.216 820.073,-2327.725 820.800,-2333.240 821.528,-2338.761 822.255,-2344.288 822.982,-2349.820 823.710,-2355.358 824.437,-2360.902 825.164,-2366.452 825.892,-2372.007 826.619,-2377.568 827.346,-2383.135 828.073,-2388.707 828.801,-2394.286 829.528,-2399.870 830.255,-2405.460 830.983,-2411.055 831.710,-2416.656 832.437,-2422.263 833.164,-2427.876 833.892,-2433.495 834.619,-2439.119 835.346,-2444.749 836.074,-2450.385 836.801,-2456.026 837.528,-2461.673 838.255,-2467.326 838.983,-2472.985 839.710,-2478.649 840.437,-2484.319 841.165,-2489.995 841.892,-2495.677 842.619,-2501.364 843.346,-2507.058 844.074,-2512.756 844.801,-2518.461 845.528,-2524.171 846.256,-2529.888 846.983,-2535.609 847.710,-2541.337 848.438,-2547.070 " />
        <g
           id="g3086" />
      </g>
      <g
         clip-path="url(#ID000001)"
         id="ID000003">
        <polyline
           style="fill:none;stroke:#000000;stroke-width:0.5pt;stroke-dasharray:none"
           id="polyline3089"
           points="121.875,-2547.070 122.602,-2541.337 123.330,-2535.609 124.057,-2529.888 124.784,-2524.171 125.511,-2518.461 126.239,-2512.756 126.966,-2507.058 127.693,-2501.364 128.421,-2495.677 129.148,-2489.995 129.875,-2484.319 130.602,-2478.649 131.330,-2472.985 132.057,-2467.326 132.784,-2461.673 133.512,-2456.026 134.239,-2450.385 134.966,-2444.749 135.694,-2439.119 136.421,-2433.495 137.148,-2427.876 137.875,-2422.263 138.603,-2416.656 139.330,-2411.055 140.057,-2405.460 140.785,-2399.870 141.512,-2394.286 142.239,-2388.707 142.966,-2383.135 143.694,-2377.568 144.421,-2372.007 145.148,-2366.452 145.876,-2360.902 146.603,-2355.358 147.330,-2349.820 148.057,-2344.288 148.785,-2338.761 149.512,-2333.240 150.239,-2327.725 150.967,-2322.216 151.694,-2316.712 152.421,-2311.214 153.148,-2305.722 153.876,-2300.235 154.603,-2294.755 155.330,-2289.280 156.058,-2283.811 156.785,-2278.347 157.512,-2272.889 158.239,-2267.437 158.967,-2261.991 159.694,-2256.551 160.421,-2251.116 161.149,-2245.687 161.876,-2240.264 162.603,-2234.846 163.331,-2229.434 164.058,-2224.028 164.785,-2218.628 165.512,-2213.234 166.240,-2207.845 166.967,-2202.462 167.694,-2197.084 168.422,-2191.713 169.149,-2186.347 169.876,-2180.987 170.603,-2175.632 171.331,-2170.284 172.058,-2164.941 172.785,-2159.604 173.513,-2154.272 174.240,-2148.947 174.967,-2143.627 175.694,-2138.313 176.422,-2133.004 177.149,-2127.701 177.876,-2122.405 178.604,-2117.113 179.331,-2111.828 180.058,-2106.548 180.785,-2101.274 181.513,-2096.006 182.240,-2090.743 182.967,-2085.487 183.695,-2080.236 184.422,-2074.990 185.149,-2069.751 185.877,-2064.517 186.604,-2059.289 187.331,-2054.067 188.058,-2048.850 188.786,-2043.639 189.513,-2038.434 190.240,-2033.235 190.968,-2028.041 191.695,-2022.854 192.422,-2017.671 193.149,-2012.495 193.877,-2007.324 194.604,-2002.160 195.331,-1997.000 196.059,-1991.847 196.786,-1986.699 197.513,-1981.557 198.240,-1976.421 198.968,-1971.291 199.695,-1966.166 200.422,-1961.047 201.150,-1955.934 201.877,-1950.827 202.604,-1945.725 203.331,-1940.629 204.059,-1935.539 204.786,-1930.454 205.513,-1925.375 206.241,-1920.302 206.968,-1915.235 207.695,-1910.174 208.422,-1905.118 209.150,-1900.068 209.877,-1895.023 210.604,-1889.985 211.332,-1884.952 212.059,-1879.925 212.786,-1874.904 213.514,-1869.888 214.241,-1864.878 214.968,-1859.874 215.695,-1854.876 216.423,-1849.883 217.150,-1844.896 217.877,-1839.915 218.605,-1834.940 219.332,-1829.970 220.059,-1825.006 220.786,-1820.048 221.514,-1815.096 222.241,-1810.149 222.968,-1805.208 223.696,-1800.273 224.423,-1795.343 225.150,-1790.420 225.877,-1785.502 226.605,-1780.589 227.332,-1775.683 228.059,-1770.782 228.787,-1765.887 229.514,-1760.998 230.241,-1756.114 230.968,-1751.236 231.696,-1746.364 232.423,-1741.498 233.150,-1736.638 233.878,-1731.783 234.605,-1726.934 235.332,-1722.090 236.059,-1717.253 236.787,-1712.421 237.514,-1707.595 238.241,-1702.774 238.969,-1697.960 239.696,-1693.151 240.423,-1688.348 241.151,-1683.550 241.878,-1678.759 242.605,-1673.973 243.332,-1669.193 244.060,-1664.418 244.787,-1659.650 245.514,-1654.887 246.242,-1650.129 246.969,-1645.378 247.696,-1640.632 248.423,-1635.892 249.151,-1631.158 249.878,-1626.430 250.605,-1621.707 251.333,-1616.990 252.060,-1612.278 252.787,-1607.573 253.514,-1602.873 254.242,-1598.179 254.969,-1593.491 255.696,-1588.808 256.424,-1584.131 257.151,-1579.460 257.878,-1574.795 258.605,-1570.135 259.333,-1565.482 260.060,-1560.834 260.787,-1556.191 261.515,-1551.555 262.242,-1546.924 262.969,-1542.299 263.697,-1537.679 264.424,-1533.065 265.151,-1528.458 265.878,-1523.855 266.606,-1519.259 267.333,-1514.668 268.060,-1510.083 268.788,-1505.504 269.515,-1500.931 270.242,-1496.363 270.969,-1491.801 271.697,-1487.245 272.424,-1482.694 273.151,-1478.149 273.879,-1473.610 274.606,-1469.077 275.333,-1464.550 276.060,-1460.028 276.788,-1455.512 277.515,-1451.002 278.242,-1446.497 278.970,-1441.998 279.697,-1437.505 280.424,-1433.018 281.151,-1428.536 281.879,-1424.060 282.606,-1419.590 283.333,-1415.126 284.061,-1410.667 284.788,-1406.214 285.515,-1401.767 286.242,-1397.326 286.970,-1392.890 287.697,-1388.460 288.424,-1384.036 289.152,-1379.618 289.879,-1375.205 290.606,-1370.798 291.334,-1366.397 292.061,-1362.001 292.788,-1357.612 293.515,-1353.228 294.243,-1348.849 294.970,-1344.477 295.697,-1340.110 296.425,-1335.749 297.152,-1331.394 297.879,-1327.044 298.606,-1322.701 299.334,-1318.363 300.061,-1314.030 300.788,-1309.704 301.516,-1305.383 302.243,-1301.068 302.970,-1296.759 303.697,-1292.455 304.425,-1288.157 305.152,-1283.865 305.879,-1279.579 306.607,-1275.298 307.334,-1271.023 308.061,-1266.754 308.788,-1262.491 309.516,-1258.233 310.243,-1253.981 310.970,-1249.735 311.698,-1245.494 312.425,-1241.260 313.152,-1237.031 313.880,-1232.808 314.607,-1228.590 315.334,-1224.378 316.061,-1220.172 316.789,-1215.972 317.516,-1211.778 318.243,-1207.589 318.971,-1203.406 319.698,-1199.229 320.425,-1195.057 321.152,-1190.891 321.880,-1186.731 322.607,-1182.577 323.334,-1178.428 324.062,-1174.286 324.789,-1170.149 325.516,-1166.017 326.243,-1161.892 326.971,-1157.772 327.698,-1153.658 328.425,-1149.549 329.153,-1145.447 329.880,-1141.350 330.607,-1137.259 331.334,-1133.173 332.062,-1129.094 332.789,-1125.020 333.516,-1120.952 334.244,-1116.889 334.971,-1112.832 335.698,-1108.782 336.425,-1104.736 337.153,-1100.697 337.880,-1096.663 338.607,-1092.635 339.335,-1088.613 340.062,-1084.596 340.789,-1080.586 341.517,-1076.581 342.244,-1072.581 342.971,-1068.588 343.698,-1064.600 344.426,-1060.618 345.153,-1056.642 345.880,-1052.671 346.608,-1048.706 347.335,-1044.747 348.062,-1040.794 348.789,-1036.846 349.517,-1032.905 350.244,-1028.968 350.971,-1025.038 351.699,-1021.113 352.426,-1017.195 353.153,-1013.281 353.880,-1009.374 354.608,-1005.472 355.335,-1001.576 356.062,-997.686 356.790,-993.802 357.517,-989.923 358.244,-986.050 358.971,-982.183 359.699,-978.322 360.426,-974.466 361.153,-970.616 361.881,-966.772 362.608,-962.933 363.335,-959.100 364.063,-955.273 364.790,-951.452 365.517,-947.637 366.244,-943.827 366.972,-940.023 367.699,-936.225 368.426,-932.432 369.154,-928.645 369.881,-924.864 370.608,-921.089 371.335,-917.319 372.063,-913.555 372.790,-909.797 373.517,-906.045 374.245,-902.298 374.972,-898.557 375.699,-894.822 376.426,-891.093 377.154,-887.369 377.881,-883.651 378.608,-879.939 379.336,-876.233 380.063,-872.532 380.790,-868.837 381.517,-865.148 382.245,-861.464 382.972,-857.787 383.699,-854.115 384.427,-850.448 385.154,-846.788 385.881,-843.133 386.608,-839.484 387.336,-835.841 388.063,-832.203 388.790,-828.572 389.518,-824.946 390.245,-821.325 390.972,-817.711 391.700,-814.102 392.427,-810.499 393.154,-806.902 393.881,-803.310 394.609,-799.724 395.336,-796.144 396.063,-792.570 396.791,-789.001 397.518,-785.438 398.245,-781.881 398.972,-778.330 399.700,-774.784 400.427,-771.244 401.154,-767.710 401.882,-764.181 402.609,-760.659 403.336,-757.142 404.063,-753.631 404.791,-750.125 405.518,-746.625 406.245,-743.131 406.973,-739.643 407.700,-736.161 408.427,-732.684 409.154,-729.213 409.882,-725.748 410.609,-722.288 411.336,-718.834 412.064,-715.386 412.791,-711.944 413.518,-708.508 414.245,-705.077 414.973,-701.652 415.700,-698.232 416.427,-694.819 417.155,-691.411 417.882,-688.009 418.609,-684.612 419.337,-681.222 420.064,-677.837 420.791,-674.458 421.518,-671.084 422.246,-667.717 422.973,-664.355 423.700,-660.999 424.428,-657.648 425.155,-654.304 425.882,-650.965 426.609,-647.631 427.337,-644.304 428.064,-640.982 428.791,-637.666 429.519,-634.356 430.246,-631.052 430.973,-627.753 431.700,-624.460 432.428,-621.173 433.155,-617.891 433.882,-614.615 434.610,-611.345 435.337,-608.081 436.064,-604.822 436.791,-601.570 437.519,-598.322 438.246,-595.081 438.973,-591.846 439.701,-588.616 440.428,-585.392 441.155,-582.173 441.883,-578.961 442.610,-575.754 443.337,-572.553 444.064,-569.357 444.792,-566.168 445.519,-562.984 446.246,-559.805 446.974,-556.633 447.701,-553.466 448.428,-550.305 449.155,-547.150 449.883,-544.001 450.610,-540.857 451.337,-537.719 452.065,-534.587 452.792,-531.460 453.519,-528.340 454.246,-525.225 454.974,-522.115 455.701,-519.012 456.428,-515.914 457.156,-512.822 457.883,-509.736 458.610,-506.655 459.337,-503.580 460.065,-500.511 460.792,-497.448 461.519,-494.390 462.247,-491.338 462.974,-488.292 463.701,-485.252 464.428,-482.217 465.156,-479.189 465.883,-476.165 466.610,-473.148 467.338,-470.136 468.065,-467.130 468.792,-464.130 469.520,-461.136 470.247,-458.147 470.974,-455.164 471.701,-452.187 472.429,-449.216 473.156,-446.250 473.883,-443.290 474.611,-440.336 475.338,-437.387 476.065,-434.444 476.792,-431.507 477.520,-428.576 478.247,-425.651 478.974,-422.731 479.702,-419.817 480.429,-416.908 481.156,-414.006 481.883,-411.109 482.611,-408.218 483.338,-405.333 484.065,-402.453 484.793,-399.579 485.520,-396.711 486.247,-393.849 486.974,-390.992 487.702,-388.141 488.429,-385.296 489.156,-382.457 489.884,-379.623 490.611,-376.795 491.338,-373.973 492.066,-371.157 492.793,-368.346 493.520,-365.541 494.247,-362.742 494.975,-359.948 495.702,-357.161 496.429,-354.379 497.157,-351.602 497.884,-348.832 498.611,-346.067 499.338,-343.308 500.066,-340.555 500.793,-337.807 501.520,-335.066 502.248,-332.330 502.975,-329.599 503.702,-326.875 504.429,-324.156 505.157,-321.443 505.884,-318.736 506.611,-316.034 507.339,-313.338 508.066,-310.648 508.793,-307.964 509.520,-305.285 510.248,-302.612 510.975,-299.945 511.702,-297.284 512.430,-294.628 513.157,-291.978 513.884,-289.334 514.611,-286.695 515.339,-284.063 516.066,-281.436 516.793,-278.815 517.521,-276.199 518.248,-273.590 518.975,-270.986 519.703,-268.387 520.430,-265.795 521.157,-263.208 521.884,-260.627 522.612,-258.052 523.339,-255.482 524.066,-252.918 524.794,-250.360 525.521,-247.808 526.248,-245.262 526.975,-242.721 527.703,-240.186 528.430,-237.656 529.157,-235.133 529.885,-232.615 530.612,-230.103 531.339,-227.597 532.066,-225.096 532.794,-222.601 533.521,-220.112 534.248,-217.628 534.976,-215.151 535.703,-212.679 536.430,-210.213 537.157,-207.752 537.885,-205.298 538.612,-202.849 539.339,-200.406 540.067,-197.968 540.794,-195.536 541.521,-193.110 542.248,-190.690 542.976,-188.276 543.703,-185.867 544.430,-183.464 545.158,-181.067 545.885,-178.675 546.612,-176.289 547.340,-173.909 548.067,-171.535 548.794,-169.166 549.521,-166.804 550.249,-164.447 550.976,-162.095 551.703,-159.750 552.431,-157.410 553.158,-155.076 553.885,-152.747 554.612,-150.425 555.340,-148.108 556.067,-145.797 556.794,-143.491 557.522,-141.192 558.249,-138.898 558.976,-136.610 559.703,-134.327 560.431,-132.051 561.158,-129.780 561.885,-127.514 562.613,-125.255 563.340,-123.001 564.067,-120.753 564.794,-118.511 565.522,-116.275 566.249,-114.044 566.976,-111.819 567.704,-109.599 568.431,-107.386 569.158,-105.178 569.886,-102.976 570.613,-100.780 571.340,-98.589 572.067,-96.405 572.795,-94.225 573.522,-92.052 574.249,-89.885 574.977,-87.723 575.704,-85.567 576.431,-83.416 577.158,-81.272 577.886,-79.133 578.613,-77.000 579.340,-74.872 580.068,-72.751 580.795,-70.635 581.522,-68.524 582.249,-66.420 582.977,-64.321 583.704,-62.228 584.431,-60.141 585.159,-58.060 585.886,-55.984 586.613,-53.914 587.340,-51.850 588.068,-49.791 588.795,-47.739 589.522,-45.692 590.250,-43.650 590.977,-41.615 591.704,-39.585 592.431,-37.561 593.159,-35.543 593.886,-33.530 594.613,-31.523 595.341,-29.522 596.068,-27.527 596.795,-25.537 597.523,-23.554 598.250,-21.575 598.977,-19.603 599.704,-17.636 600.432,-15.676 601.159,-13.720 601.886,-11.771 602.614,-9.827 603.341,-7.890 604.068,-5.957 604.795,-4.031 605.523,-2.110 606.250,-0.195 606.977,1.714 607.705,3.617 608.432,5.515 609.159,7.407 609.886,9.293 610.614,11.174 611.341,13.048 612.068,14.917 612.796,16.781 613.523,18.638 614.250,20.490 614.977,22.336 615.705,24.176 616.432,26.011 617.159,27.840 617.887,29.663 618.614,31.480 619.341,33.292 620.069,35.098 620.796,36.898 621.523,38.692 622.250,40.481 622.978,42.264 623.705,44.041 624.432,45.812 625.160,47.578 625.887,49.338 626.614,51.092 627.341,52.840 628.069,54.583 628.796,56.320 629.523,58.051 630.251,59.776 630.978,61.496 631.705,63.210 632.432,64.918 633.160,66.621 633.887,68.318 634.614,70.009 635.342,71.694 636.069,73.373 636.796,75.047 637.523,76.715 638.251,78.377 638.978,80.034 639.705,81.685 640.433,83.330 641.160,84.969 641.887,86.603 642.614,88.231 643.342,89.853 644.069,91.469 644.796,93.080 645.524,94.685 646.251,96.284 646.978,97.877 647.706,99.465 648.433,101.047 649.160,102.623 649.887,104.193 650.615,105.758 651.342,107.317 652.069,108.870 652.797,110.418 653.524,111.959 654.251,113.495 654.978,115.025 655.706,116.550 656.433,118.069 657.160,119.582 657.888,121.089 658.615,122.590 659.342,124.086 660.069,125.576 660.797,127.061 661.524,128.539 662.251,130.012 662.979,131.479 663.706,132.940 664.433,134.396 665.160,135.846 665.888,137.290 666.615,138.728 667.342,140.161 668.070,141.588 668.797,143.009 669.524,144.424 670.252,145.834 670.979,147.238 671.706,148.636 672.433,150.028 673.161,151.415 673.888,152.796 674.615,154.171 675.343,155.541 676.070,156.904 676.797,158.262 677.524,159.615 678.252,160.961 678.979,162.302 679.706,163.637 680.434,164.966 681.161,166.290 681.888,167.607 682.615,168.919 683.343,170.226 684.070,171.526 684.797,172.821 685.525,174.110 686.252,175.393 686.979,176.671 687.706,177.943 688.434,179.209 689.161,180.469 689.888,181.724 690.616,182.973 691.343,184.216 692.070,185.453 692.797,186.685 693.525,187.911 694.252,189.131 694.979,190.345 695.707,191.554 696.434,192.757 697.161,193.954 697.889,195.146 698.616,196.331 699.343,197.511 700.070,198.686 700.798,199.854 701.525,201.017 702.252,202.174 702.980,203.325 703.707,204.471 704.434,205.610 705.161,206.744 705.889,207.873 706.616,208.995 707.343,210.112 708.071,211.223 708.798,212.328 709.525,213.428 710.252,214.522 710.980,215.610 711.707,216.692 712.434,217.769 713.162,218.840 713.889,219.905 714.616,220.964 715.343,222.018 716.071,223.066 716.798,224.108 717.525,225.145 718.253,226.175 718.980,227.200 719.707,228.219 720.434,229.233 721.162,230.241 721.889,231.242 722.616,232.239 723.344,233.229 724.071,234.214 724.798,235.193 725.526,236.166 726.253,237.134 726.980,238.095 727.707,239.052 728.435,240.002 729.162,240.946 729.889,241.885 730.617,242.818 731.344,243.746 732.071,244.667 732.798,245.583 733.526,246.493 734.253,247.397 734.980,248.296 735.708,249.189 736.435,250.076 737.162,250.957 737.889,251.833 738.617,252.703 739.344,253.567 740.071,254.426 740.799,255.278 741.526,256.125 742.253,256.966 742.980,257.802 743.708,258.632 744.435,259.456 745.162,260.274 745.890,261.086 746.617,261.893 747.344,262.694 748.072,263.489 748.799,264.279 749.526,265.063 750.253,265.841 750.981,266.613 751.708,267.379 752.435,268.140 753.163,268.895 753.890,269.645 754.617,270.388 755.344,271.126 756.072,271.858 756.799,272.584 757.526,273.305 758.254,274.020 758.981,274.729 759.708,275.432 760.435,276.130 761.163,276.822 761.890,277.508 762.617,278.189 763.345,278.863 764.072,279.532 764.799,280.195 765.526,280.853 766.254,281.505 766.981,282.151 767.708,282.791 768.436,283.425 769.163,284.054 769.890,284.677 770.617,285.294 771.345,285.906 772.072,286.512 772.799,287.112 773.527,287.706 774.254,288.294 774.981,288.877 775.709,289.454 776.436,290.026 777.163,290.591 777.890,291.151 778.618,291.705 779.345,292.254 780.072,292.796 780.800,293.333 781.527,293.864 782.254,294.390 782.981,294.909 783.709,295.423 784.436,295.931 785.163,296.434 785.891,296.930 786.618,297.421 787.345,297.906 788.072,298.386 788.800,298.860 789.527,299.328 790.254,299.790 790.982,300.246 791.709,300.697 792.436,301.142 793.163,301.581 793.891,302.015 794.618,302.443 795.345,302.865 796.073,303.281 796.800,303.691 797.527,304.096 798.255,304.495 798.982,304.889 799.709,305.276 800.436,305.658 801.164,306.034 801.891,306.405 802.618,306.769 803.346,307.128 804.073,307.481 804.800,307.829 805.527,308.170 806.255,308.506 806.982,308.836 807.709,309.161 808.437,309.479 809.164,309.792 809.891,310.099 810.618,310.401 811.346,310.697 812.073,310.987 812.800,311.271 813.528,311.549 814.255,311.822 814.982,312.089 815.709,312.350 816.437,312.606 817.164,312.856 817.891,313.100 818.619,313.338 819.346,313.571 820.073,313.797 820.800,314.018 821.528,314.234 822.255,314.443 822.982,314.647 823.710,314.845 824.437,315.038 825.164,315.224 825.892,315.405 826.619,315.580 827.346,315.750 828.073,315.913 828.801,316.071 829.528,316.223 830.255,316.370 830.983,316.510 831.710,316.645 832.437,316.775 833.164,316.898 833.892,317.016 834.619,317.128 835.346,317.234 836.074,317.334 836.801,317.429 837.528,317.518 838.255,317.601 838.983,317.679 839.710,317.751 840.437,317.817 841.165,317.877 841.892,317.932 842.619,317.980 843.346,318.023 844.074,318.061 844.801,318.092 845.528,318.118 846.256,318.138 846.983,318.153 847.710,318.161 848.438,318.164 " />
        <g
           id="g3091" />
      </g>
      <g
         clip-path="url(#ID000001)"
         id="ID000004">
        <polyline
           style="fill:none;stroke:#000000;stroke-width:0.5pt;stroke-dasharray:8, 2"
           id="polyline3094"
           points="615.938,375.469 615.938,31.641 " />
        <g
           id="g3096" />
      </g>
      <g
         id="ID000005">
        <g
           id="g3099"
           transform="translate(484.219,406.391)">
          <g
             id="g3101">
            <text
               style="font-size:11.25px;text-anchor:middle;fill:#000000;font-family:Times New Roman"
               id="text3103"
               font-size="9pt"
               y="0"
               x="0">Gamma Energy</text>
          </g>
        </g>
      </g>
      <g
         id="ID000006">
        <g
           id="g3106"
           transform="translate(113.437,204.492)">
          <g
             id="g3108"
             transform="matrix(0,-1,1,0,0,0)">
            <text
               style="font-size:11.25px;text-anchor:middle;fill:#000000;font-family:Times New Roman"
               id="text3110"
               font-size="9pt"
               y="0"
               x="0">Probability</text>
          </g>
        </g>
      </g>
      <g
         id="ID000007" />
    </g>
    <g
       id="g3113">
      <polyline
         style="fill:none;stroke:#000000;stroke-width:0.5pt;stroke-dasharray:none"
         id="polyline3115"
         points="615.938,375.469 615.938,368.203 " />
      <polyline
         style="fill:none;stroke:#000000;stroke-width:0.5pt;stroke-dasharray:none"
         id="polyline3117"
         points="121.875,375.469 848.438,375.469 " />
      <polyline
         style="fill:none;stroke:#000000;stroke-width:0.5pt;stroke-dasharray:none"
         id="polyline3119"
         points="615.938,31.641 615.938,38.906 " />
      <polyline
         style="fill:none;stroke:#000000;stroke-width:0.5pt;stroke-dasharray:none"
         id="polyline3121"
         points="121.875,31.641 848.438,31.641 " />
      <g
         id="g3123"
         transform="translate(615.938,393.408)">
        <g
           id="g3125">
          <text
             style="font-size:11.25px;text-anchor:middle;fill:#000000;font-family:Times New Roman"
             id="text3127"
             font-size="9pt"
             y="0"
             x="0">1.02 MeV</text>
        </g>
      </g>
      <polyline
         style="fill:none;stroke:#000000;stroke-width:0.5pt;stroke-dasharray:none"
         id="polyline3129"
         points="121.875,375.469 121.875,31.641 " />
      <polyline
         style="fill:none;stroke:#000000;stroke-width:0.5pt;stroke-dasharray:none"
         id="polyline3131"
         points="848.438,375.469 848.438,31.641 " />
      <polyline
         style="fill:none;stroke:#000000;stroke-width:0.5pt;stroke-dasharray:none"
         id="polyline3133"
         points="121.875,375.469 121.875,372.030 " />
      <polyline
         style="fill:none;stroke:#000000;stroke-width:0.5pt;stroke-dasharray:none"
         id="polyline3135"
         points="121.875,375.469 121.875,375.469 " />
    </g>
  </g>
  <text
     xml:space="preserve"
     style="font-size:22px;font-style:normal;font-variant:normal;font-weight:normal;font-stretch:normal;line-height:125%;letter-spacing:0px;word-spacing:0px;fill:#000000;fill-opacity:1;stroke:none;font-family:Serif;-inkscape-font-specification:Serif"
     x="453.30255"
     y="250.3551"
     id="text3181"
     sodipodi:linespacing="125%"><tspan
       sodipodi:role="line"
       id="tspan3183"
       x="453.30255"
       y="250.3551">CS</tspan></text>
  <text
     xml:space="preserve"
     style="font-size:22px;font-style:normal;font-variant:normal;font-weight:normal;font-stretch:normal;line-height:125%;letter-spacing:0px;word-spacing:0px;fill:#000000;fill-opacity:1;stroke:none;font-family:Serif;-inkscape-font-specification:Serif"
     x="742.5426"
     y="128.90625"
     id="text3185"
     sodipodi:linespacing="125%"><tspan
       sodipodi:role="line"
       id="tspan3187"
       x="742.5426"
       y="128.90625">PP</tspan></text>
  <text
     xml:space="preserve"
     style="font-size:22px;font-style:normal;font-variant:normal;font-weight:normal;font-stretch:normal;line-height:125%;letter-spacing:0px;word-spacing:0px;fill:#000000;fill-opacity:1;stroke:none;font-family:Serif;-inkscape-font-specification:Serif"
     x="179.50993"
     y="141.69034"
     id="text3189"
     sodipodi:linespacing="125%"><tspan
       sodipodi:role="line"
       id="tspan3191"
       x="179.50993"
       y="141.69034">PE</tspan></text>
</svg>
