<?xml version="1.0" encoding="UTF-8" standalone="no"?>
<!-- Created with Inkscape (http://www.inkscape.org/) -->

<svg
   xmlns:dc="http://purl.org/dc/elements/1.1/"
   xmlns:cc="http://creativecommons.org/ns#"
   xmlns:rdf="http://www.w3.org/1999/02/22-rdf-syntax-ns#"
   xmlns:svg="http://www.w3.org/2000/svg"
   xmlns="http://www.w3.org/2000/svg"
   xmlns:sodipodi="http://sodipodi.sourceforge.net/DTD/sodipodi-0.dtd"
   xmlns:inkscape="http://www.inkscape.org/namespaces/inkscape"
   id="svg2"
   version="1.1"
   inkscape:version="0.48.4 r9939"
   width="637.79529"
   height="224.79843"
   xml:space="preserve"
   sodipodi:docname="511_Prototype.svg"><metadata
     id="metadata8"><rdf:RDF><cc:Work
         rdf:about=""><dc:format>image/svg+xml</dc:format><dc:type
           rdf:resource="http://purl.org/dc/dcmitype/StillImage" /><dc:title /></cc:Work></rdf:RDF></metadata><defs
     id="defs6"><clipPath
       clipPathUnits="userSpaceOnUse"
       id="clipPath312"><path
         d="m 320,385 c 2,0 5,-3 5,-5 0,-3 -3,-5 -5,-5 -3,0 -5,2 -5,5 0,2 2,5 5,5 z"
         id="path314"
         inkscape:connector-curvature="0" /></clipPath><clipPath
       clipPathUnits="userSpaceOnUse"
       id="clipPath332"><path
         d="m 360,385 c 2,0 5,-3 5,-5 0,-3 -3,-5 -5,-5 -3,0 -5,2 -5,5 0,2 2,5 5,5 z"
         id="path334"
         inkscape:connector-curvature="0" /></clipPath><clipPath
       clipPathUnits="userSpaceOnUse"
       id="clipPath862"><path
         d="m 520,385 c 2,0 5,-3 5,-5 0,-3 -3,-5 -5,-5 -3,0 -5,2 -5,5 0,2 2,5 5,5 z"
         id="path864"
         inkscape:connector-curvature="0" /></clipPath><clipPath
       clipPathUnits="userSpaceOnUse"
       id="clipPath882"><path
         d="m 560,385 c 2,0 5,-3 5,-5 0,-3 -3,-5 -5,-5 -3,0 -5,2 -5,5 0,2 2,5 5,5 z"
         id="path884"
         inkscape:connector-curvature="0" /></clipPath><clipPath
       clipPathUnits="userSpaceOnUse"
       id="clipPath1192"><path
         d="m 720,385 c 2,0 5,-3 5,-5 0,-3 -3,-5 -5,-5 -3,0 -5,2 -5,5 0,2 2,5 5,5 z"
         id="path1194"
         inkscape:connector-curvature="0" /></clipPath><clipPath
       clipPathUnits="userSpaceOnUse"
       id="clipPath1212"><path
         d="m 760,385 c 2,0 5,-3 5,-5 0,-3 -3,-5 -5,-5 -3,0 -5,2 -5,5 0,2 2,5 5,5 z"
         id="path1214"
         inkscape:connector-curvature="0" /></clipPath><clipPath
       clipPathUnits="userSpaceOnUse"
       id="clipPath1770"><path
         d="m 940,385 c 2,0 5,-3 5,-5 0,-3 -3,-5 -5,-5 -3,0 -5,2 -5,5 0,2 2,5 5,5 z"
         id="path1772"
         inkscape:connector-curvature="0" /></clipPath><clipPath
       clipPathUnits="userSpaceOnUse"
       id="clipPath1790"><path
         d="m 980,385 c 2,0 5,-3 5,-5 0,-3 -3,-5 -5,-5 -3,0 -5,2 -5,5 0,2 2,5 5,5 z"
         id="path1792"
         inkscape:connector-curvature="0" /></clipPath><clipPath
       clipPathUnits="userSpaceOnUse"
       id="clipPath2516"><path
         d="m 850,325 c 2,0 5,-3 5,-5 0,-3 -3,-5 -5,-5 -3,0 -5,2 -5,5 0,2 2,5 5,5 z"
         id="path2518"
         inkscape:connector-curvature="0" /></clipPath><clipPath
       clipPathUnits="userSpaceOnUse"
       id="clipPath2536"><path
         d="m 440,325 c 2,0 5,-3 5,-5 0,-3 -3,-5 -5,-5 -3,0 -5,2 -5,5 0,2 2,5 5,5 z"
         id="path2538"
         inkscape:connector-curvature="0" /></clipPath><clipPath
       clipPathUnits="userSpaceOnUse"
       id="clipPath2622"><path
         d="m 1070,325 c 2,0 5,-3 5,-5 0,-3 -3,-5 -5,-5 -3,0 -5,2 -5,5 0,2 2,5 5,5 z"
         id="path2624"
         inkscape:connector-curvature="0" /></clipPath><clipPath
       clipPathUnits="userSpaceOnUse"
       id="clipPath2642"><path
         d="m 440,325 c 2,0 5,-3 5,-5 0,-3 -3,-5 -5,-5 -3,0 -5,2 -5,5 0,2 2,5 5,5 z"
         id="path2644"
         inkscape:connector-curvature="0" /></clipPath></defs><sodipodi:namedview
     pagecolor="#ffffff"
     bordercolor="#666666"
     borderopacity="1"
     objecttolerance="10"
     gridtolerance="10"
     guidetolerance="10"
     inkscape:pageopacity="0"
     inkscape:pageshadow="2"
     inkscape:window-width="1920"
     inkscape:window-height="1138"
     id="namedview4"
     showgrid="false"
     units="mm"
     fit-margin-top="5"
     fit-margin-left="5"
     fit-margin-right="5"
     fit-margin-bottom="5"
     inkscape:zoom="1.2762716"
     inkscape:cx="63.962312"
     inkscape:cy="112.39922"
     inkscape:window-x="-8"
     inkscape:window-y="-8"
     inkscape:window-maximized="1"
     inkscape:current-layer="g10" /><g
     id="g10"
     inkscape:groupmode="layer"
     inkscape:label="511_Prototype"
     transform="matrix(0.5625,0,0,0.5625,-71.720966,-40.980602)"><path
   d="m 160.06873,317.02748 c 0,-3.20619 2.13746,-5.34365 5.34364,-5.34365 l 160.30931,0 c 2.13746,0 5.34364,2.13746 5.34364,5.34365 l 0,117.56015 c 0,2.13746 -3.20618,5.34365 -5.34364,5.34365 l -160.30931,0 c -3.20618,0 -5.34364,-3.20619 -5.34364,-5.34365 l 0,-117.56015 z"
   style="fill:#ffffff;fill-opacity:1;fill-rule:nonzero;stroke:none"
   id="path24"
   inkscape:connector-curvature="0" /><path
   inkscape:connector-curvature="0"
   id="path30"
   style="fill:none;stroke:#000000;stroke-width:2.13745737;stroke-linecap:butt;stroke-linejoin:miter;stroke-miterlimit:10;stroke-opacity:1;stroke-dasharray:none"
   d="m 160.06873,317.02748 c 0,-3.20619 2.13746,-5.34365 5.34364,-5.34365 l 160.30931,0 c 2.13746,0 5.34364,2.13746 5.34364,5.34365 l 0,117.56015 c 0,2.13746 -3.20618,5.34365 -5.34364,5.34365 l -160.30931,0 c -3.20618,0 -5.34364,-3.20619 -5.34364,-5.34365 l 0,-117.56015 z" /><path
   inkscape:connector-curvature="0"
   id="path290"
   style="fill:none;stroke:#000000;stroke-width:2.13745737;stroke-linecap:butt;stroke-linejoin:miter;stroke-miterlimit:10;stroke-opacity:1;stroke-dasharray:none"
   d="m 331.06532,375.80756 c 21.37458,0 21.37458,0 42.74915,0" /><path
   inkscape:connector-curvature="0"
   id="path296"
   style="fill:none;stroke:#000000;stroke-width:2.13745737;stroke-linecap:butt;stroke-linejoin:miter;stroke-miterlimit:10;stroke-opacity:1;stroke-dasharray:none"
   d="m 331.06532,375.80756 -3.20618,0" /><path
   d="m 373.81447,375.80756 -16.03093,4.27491 0,-9.61856 16.03093,5.34365 z"
   style="fill:#000000;fill-opacity:1;fill-rule:nonzero;stroke:none"
   id="path300"
   inkscape:connector-curvature="0" /><path
   inkscape:connector-curvature="0"
   id="path306"
   style="fill:none;stroke:#000000;stroke-width:2.13745737;stroke-linecap:butt;stroke-linejoin:miter;stroke-miterlimit:10;stroke-opacity:1;stroke-dasharray:none"
   d="m 373.81447,375.80756 -16.03093,4.27491 0,-9.61856 16.03093,5.34365 z" /><g
   id="g336"
   transform="matrix(1.0687287,0,0,1.0687287,-10.927861,-30.30935)"><g
     id="g338"><path
       inkscape:connector-curvature="0"
       id="path340"
       style="fill:#ffffff;fill-opacity:1;fill-rule:nonzero;stroke:none"
       d="m 360,325 c 0,-3 2,-5 5,-5 l 150,0 c 2,0 5,2 5,5 l 0,110 c 0,2 -3,5 -5,5 l -150,0 c -3,0 -5,-3 -5,-5 l 0,-110 z" /></g><g
     id="g342"><g
       id="g344"><path
         inkscape:connector-curvature="0"
         id="path346"
         style="fill:none;stroke:#000000;stroke-width:2;stroke-linecap:butt;stroke-linejoin:miter;stroke-miterlimit:10;stroke-opacity:1;stroke-dasharray:none"
         d="m 360,325 c 0,-3 2,-5 5,-5 l 150,0 c 2,0 5,2 5,5 l 0,110 c 0,2 -3,5 -5,5 l -150,0 c -3,0 -5,-3 -5,-5 l 0,-110 z" /></g></g></g><path
   inkscape:connector-curvature="0"
   id="path840"
   style="fill:none;stroke:#000000;stroke-width:2.13745737;stroke-linecap:butt;stroke-linejoin:miter;stroke-miterlimit:10;stroke-opacity:1;stroke-dasharray:none"
   d="m 544.81106,375.80756 c 21.37458,0 21.37458,0 42.74915,0" /><path
   inkscape:connector-curvature="0"
   id="path846"
   style="fill:none;stroke:#000000;stroke-width:2.13745737;stroke-linecap:butt;stroke-linejoin:miter;stroke-miterlimit:10;stroke-opacity:1;stroke-dasharray:none"
   d="m 544.81106,375.80756 -3.20618,0" /><path
   d="m 587.56021,375.80756 -16.03093,4.27491 0,-9.61856 16.03093,5.34365 z"
   style="fill:#000000;fill-opacity:1;fill-rule:nonzero;stroke:none"
   id="path850"
   inkscape:connector-curvature="0" /><path
   inkscape:connector-curvature="0"
   id="path856"
   style="fill:none;stroke:#000000;stroke-width:2.13745737;stroke-linecap:butt;stroke-linejoin:miter;stroke-miterlimit:10;stroke-opacity:1;stroke-dasharray:none"
   d="m 587.56021,375.80756 -16.03093,4.27491 0,-9.61856 16.03093,5.34365 z" /><g
   id="g886"
   transform="matrix(1.0687287,0,0,1.0687287,-10.927861,-30.30935)"><g
     id="g888"><path
       inkscape:connector-curvature="0"
       id="path890"
       style="fill:#ffffff;fill-opacity:1;fill-rule:nonzero;stroke:none"
       d="m 560,325 c 0,-3 2,-5 5,-5 l 150,0 c 2,0 5,2 5,5 l 0,110 c 0,2 -3,5 -5,5 l -150,0 c -3,0 -5,-3 -5,-5 l 0,-110 z" /></g><g
     id="g892"><g
       id="g894"><path
         inkscape:connector-curvature="0"
         id="path896"
         style="fill:none;stroke:#000000;stroke-width:2;stroke-linecap:butt;stroke-linejoin:miter;stroke-miterlimit:10;stroke-opacity:1;stroke-dasharray:none"
         d="m 560,325 c 0,-3 2,-5 5,-5 l 150,0 c 2,0 5,2 5,5 l 0,110 c 0,2 -3,5 -5,5 l -150,0 c -3,0 -5,-3 -5,-5 l 0,-110 z" /></g></g></g><path
   inkscape:connector-curvature="0"
   id="path1170"
   style="fill:none;stroke:#000000;stroke-width:2.13745737;stroke-linecap:butt;stroke-linejoin:miter;stroke-miterlimit:10;stroke-opacity:1;stroke-dasharray:none"
   d="m 758.5568,375.80756 c 21.37458,0 21.37458,0 42.74915,0" /><path
   inkscape:connector-curvature="0"
   id="path1176"
   style="fill:none;stroke:#000000;stroke-width:2.13745737;stroke-linecap:butt;stroke-linejoin:miter;stroke-miterlimit:10;stroke-opacity:1;stroke-dasharray:none"
   d="m 758.5568,375.80756 -3.20618,0" /><path
   d="m 801.30595,375.80756 -16.03093,4.27491 0,-9.61856 16.03093,5.34365 z"
   style="fill:#000000;fill-opacity:1;fill-rule:nonzero;stroke:none"
   id="path1180"
   inkscape:connector-curvature="0" /><path
   inkscape:connector-curvature="0"
   id="path1186"
   style="fill:none;stroke:#000000;stroke-width:2.13745737;stroke-linecap:butt;stroke-linejoin:miter;stroke-miterlimit:10;stroke-opacity:1;stroke-dasharray:none"
   d="m 801.30595,375.80756 -16.03093,4.27491 0,-9.61856 16.03093,5.34365 z" /><g
   id="g1216"
   transform="matrix(1.0687287,0,0,1.0687287,-10.927861,-30.30935)"><g
     id="g1218"><path
       inkscape:connector-curvature="0"
       id="path1220"
       style="fill:#ffffff;fill-opacity:1;fill-rule:nonzero;stroke:none"
       d="m 760,325 c 0,-3 2,-5 5,-5 l 170,0 c 2,0 5,2 5,5 l 0,110 c 0,2 -3,5 -5,5 l -170,0 c -3,0 -5,-3 -5,-5 l 0,-110 z" /></g><g
     id="g1222"><g
       id="g1224"><path
         inkscape:connector-curvature="0"
         id="path1226"
         style="fill:none;stroke:#000000;stroke-width:2;stroke-linecap:butt;stroke-linejoin:miter;stroke-miterlimit:10;stroke-opacity:1;stroke-dasharray:none"
         d="m 760,325 c 0,-3 2,-5 5,-5 l 170,0 c 2,0 5,2 5,5 l 0,110 c 0,2 -3,5 -5,5 l -170,0 c -3,0 -5,-3 -5,-5 l 0,-110 z" /></g></g></g><path
   inkscape:connector-curvature="0"
   id="path1748"
   style="fill:none;stroke:#000000;stroke-width:2.13745737;stroke-linecap:butt;stroke-linejoin:miter;stroke-miterlimit:10;stroke-opacity:1;stroke-dasharray:none"
   d="m 993.67712,375.80756 c 21.37458,0 21.37458,0 42.74918,0" /><path
   inkscape:connector-curvature="0"
   id="path1754"
   style="fill:none;stroke:#000000;stroke-width:2.13745737;stroke-linecap:butt;stroke-linejoin:miter;stroke-miterlimit:10;stroke-opacity:1;stroke-dasharray:none"
   d="m 993.67712,375.80756 -3.20619,0" /><path
   d="m 1036.4263,375.80756 -16.031,4.27491 0,-9.61856 16.031,5.34365 z"
   style="fill:#000000;fill-opacity:1;fill-rule:nonzero;stroke:none"
   id="path1758"
   inkscape:connector-curvature="0" /><path
   inkscape:connector-curvature="0"
   id="path1764"
   style="fill:none;stroke:#000000;stroke-width:2.13745737;stroke-linecap:butt;stroke-linejoin:miter;stroke-miterlimit:10;stroke-opacity:1;stroke-dasharray:none"
   d="m 1036.4263,375.80756 -16.031,4.27491 0,-9.61856 16.031,5.34365 z" /><g
   id="g1794"
   transform="matrix(1.0687287,0,0,1.0687287,-10.927861,-30.30935)"><g
     id="g1796"><path
       inkscape:connector-curvature="0"
       id="path1798"
       style="fill:#ffffff;fill-opacity:1;fill-rule:nonzero;stroke:none"
       d="m 980,325 c 0,-3 2,-5 5,-5 l 170,0 c 2,0 5,2 5,5 l 0,110 c 0,2 -3,5 -5,5 l -170,0 c -3,0 -5,-3 -5,-5 l 0,-110 z" /></g><g
     id="g1800"><g
       id="g1802"><path
         inkscape:connector-curvature="0"
         id="path1804"
         style="fill:none;stroke:#000000;stroke-width:2;stroke-linecap:butt;stroke-linejoin:miter;stroke-miterlimit:10;stroke-opacity:1;stroke-dasharray:none"
         d="m 980,325 c 0,-3 2,-5 5,-5 l 170,0 c 2,0 5,2 5,5 l 0,110 c 0,2 -3,5 -5,5 l -170,0 c -3,0 -5,-3 -5,-5 l 0,-110 z" /></g></g></g><path
   inkscape:connector-curvature="0"
   id="path2494"
   style="fill:none;stroke:#000000;stroke-width:2.13745737;stroke-linecap:butt;stroke-linejoin:miter;stroke-miterlimit:10;stroke-opacity:1;stroke-dasharray:none"
   d="m 897.49153,311.68383 c 0,-175.2715 -438.17876,-175.2715 -438.17876,0" /><path
   d="m 459.31277,311.68383 -4.27492,-16.03093 10.68729,1.06873 -6.41237,14.9622 z"
   style="fill:#000000;fill-opacity:1;fill-rule:nonzero;stroke:none"
   id="path2504"
   inkscape:connector-curvature="0" /><path
   inkscape:connector-curvature="0"
   id="path2510"
   style="fill:none;stroke:#000000;stroke-width:2.13745737;stroke-linecap:butt;stroke-linejoin:miter;stroke-miterlimit:10;stroke-opacity:1;stroke-dasharray:none"
   d="m 459.31277,311.68383 -4.27492,-16.03093 10.68729,1.06873 -6.41237,14.9622 z" /><path
   inkscape:connector-curvature="0"
   id="path2556"
   style="fill:#ffffff;fill-opacity:1;fill-rule:nonzero;stroke:none"
   d="m 662.37122,171.68037 30.99313,0 0,16.03093 -30.99313,0 0,-16.03093 z" /><path
   inkscape:connector-curvature="0"
   id="path2600"
   style="fill:none;stroke:#000000;stroke-width:2.13745737;stroke-linecap:butt;stroke-linejoin:miter;stroke-miterlimit:10;stroke-opacity:1;stroke-dasharray:none"
   d="m 1132.6118,311.68383 c 0,-269.319628 -673.29903,-269.319628 -673.29903,0" /><path
   d="m 459.31277,311.68383 -4.27492,-16.03093 9.61856,1.06873 -5.34364,14.9622 z"
   style="fill:#000000;fill-opacity:1;fill-rule:nonzero;stroke:none"
   id="path2610"
   inkscape:connector-curvature="0" /><path
   inkscape:connector-curvature="0"
   id="path2616"
   style="fill:none;stroke:#000000;stroke-width:2.13745737;stroke-linecap:butt;stroke-linejoin:miter;stroke-miterlimit:10;stroke-opacity:1;stroke-dasharray:none"
   d="m 459.31277,311.68383 -4.27492,-16.03093 9.61856,1.06873 -5.34364,14.9622 z" /><path
   inkscape:connector-curvature="0"
   id="path2662"
   style="fill:#ffffff;fill-opacity:1;fill-rule:nonzero;stroke:none"
   d="m 757.48807,104.35047 188.09626,0 0,16.03093 -188.09626,0 0,-16.03093 z" /><text
   xml:space="preserve"
   style="font-size:24.88888931px;font-style:normal;font-variant:normal;font-weight:normal;font-stretch:normal;text-align:center;line-height:125%;letter-spacing:0px;word-spacing:0px;writing-mode:lr-tb;text-anchor:middle;fill:#000000;fill-opacity:1;stroke:none;font-family:Times New Roman;-inkscape-font-specification:'Times New Roman,'"
   x="247.06181"
   y="381.76242"
   id="text12631"
   sodipodi:linespacing="125%"><tspan
     sodipodi:role="line"
     x="247.06181"
     y="381.76242"
     id="tspan12637">\parbox[c][2 cm][c]{2.5 cm}{\centering \small Apply Initial Conditions}</tspan></text>


<text
   xml:space="preserve"
   style="font-size:24.88888931px;font-style:normal;font-variant:normal;font-weight:normal;font-stretch:normal;text-align:center;line-height:125%;letter-spacing:0px;word-spacing:0px;writing-mode:lr-tb;text-anchor:middle;fill:#000000;fill-opacity:1;stroke:none;font-family:Times New Roman;-inkscape-font-specification:'Times New Roman,'"
   x="460.80756"
   y="381.76242"
   id="text12631-1"
   sodipodi:linespacing="125%"><tspan
     sodipodi:role="line"
     x="460.80756"
     y="381.76242"
     id="tspan12670">\parbox[c][2 cm][c]{2.5 cm}{\centering \small Apply Drift Flux Model to solve Heat Transfer}</tspan></text>


<text
   xml:space="preserve"
   style="font-size:24.88888931px;font-style:normal;font-variant:normal;font-weight:normal;font-stretch:normal;text-align:center;line-height:125%;letter-spacing:0px;word-spacing:0px;writing-mode:lr-tb;text-anchor:middle;fill:#000000;fill-opacity:1;stroke:none;font-family:Times New Roman;-inkscape-font-specification:'Times New Roman,'"
   x="674.55328"
   y="381.76242"
   id="text12631-18"
   sodipodi:linespacing="125%"><tspan
     sodipodi:role="line"
     x="674.55328"
     y="381.76242"
     id="tspan12637-5">\parbox[c][2 cm][c]{2.5 cm}{\centering \small Determine Cross Sections \footnotemark}</tspan></text>


<text
   xml:space="preserve"
   style="font-size:24.88888931px;font-style:normal;font-variant:normal;font-weight:normal;font-stretch:normal;text-align:center;line-height:125%;letter-spacing:0px;word-spacing:0px;writing-mode:lr-tb;text-anchor:middle;fill:#000000;fill-opacity:1;stroke:none;font-family:Times New Roman;-inkscape-font-specification:'Times New Roman,'"
   x="898.98633"
   y="382.05408"
   id="text12631-2"
   sodipodi:linespacing="125%"><tspan
     sodipodi:role="line"
     x="898.98633"
     y="382.05408"
     id="tspan12637-0">\parbox[c][2 cm][c]{2.5 cm}{\centering \small Solve Amplitude Function $\varphi\left( t \right)$ of Exact Point Kinetics}</tspan></text>
<text
   xml:space="preserve"
   style="font-size:24.88888931px;font-style:normal;font-variant:normal;font-weight:normal;font-stretch:normal;text-align:center;line-height:125%;letter-spacing:0px;word-spacing:0px;writing-mode:lr-tb;text-anchor:middle;fill:#000000;fill-opacity:1;stroke:none;font-family:Times New Roman;-inkscape-font-specification:'Times New Roman,'"
   x="1134.1067"
   y="382.05408"
   id="text12631-2-4"
   sodipodi:linespacing="125%"><tspan
     sodipodi:role="line"
     x="1134.1067"
     y="382.05408"
     id="tspan12637-0-0">\parbox[c][2 cm][c]{3 cm}{\centering \small Solve Shape Function $\phi\left( r,E,t \right)$ of Exact Point Kinetics with 2 group diffusion}</tspan></text>




<text
   xml:space="preserve"
   style="font-size:24.88888931px;font-style:normal;font-variant:normal;font-weight:normal;font-stretch:normal;text-align:start;line-height:125%;letter-spacing:0px;word-spacing:0px;writing-mode:lr-tb;text-anchor:start;fill:#000000;fill-opacity:1;stroke:none;font-family:Times New Roman;-inkscape-font-specification:'Times New Roman,'"
   x="759.96783"
   y="118.6877"
   id="text12755"
   sodipodi:linespacing="125%"><tspan
     sodipodi:role="line"
     id="tspan12757"
     x="759.96783"
     y="118.6877">{\scriptsize throughout time range}</tspan></text>


<text
   xml:space="preserve"
   style="font-size:24.88888931px;font-style:normal;font-variant:normal;font-weight:normal;font-stretch:normal;text-align:start;line-height:125%;letter-spacing:0px;word-spacing:0px;writing-mode:lr-tb;text-anchor:start;fill:#000000;fill-opacity:1;stroke:none;font-family:Times New Roman;-inkscape-font-specification:'Times New Roman,'"
   x="659.54401"
   y="183.1463"
   id="text12755-8"
   sodipodi:linespacing="125%"><tspan
     sodipodi:role="line"
     id="tspan12757-4"
     x="659.54401"
     y="183.1463">{\scriptsize $\times 10$}</tspan></text>


</g></svg>