<?xml version="1.0" encoding="UTF-8" standalone="no"?>
<!-- Created with Inkscape (http://www.inkscape.org/) -->

<svg
   xmlns:dc="http://purl.org/dc/elements/1.1/"
   xmlns:cc="http://creativecommons.org/ns#"
   xmlns:rdf="http://www.w3.org/1999/02/22-rdf-syntax-ns#"
   xmlns:svg="http://www.w3.org/2000/svg"
   xmlns="http://www.w3.org/2000/svg"
   xmlns:sodipodi="http://sodipodi.sourceforge.net/DTD/sodipodi-0.dtd"
   xmlns:inkscape="http://www.inkscape.org/namespaces/inkscape"
   width="270"
   height="270"
   id="svg5388"
   version="1.1"
   inkscape:version="0.48.4 r9939"
   sodipodi:docname="Flow_Boiling_Chart.svg">
  <sodipodi:namedview
     id="base"
     pagecolor="#ffffff"
     bordercolor="#666666"
     borderopacity="1.0"
     inkscape:pageopacity="0.0"
     inkscape:pageshadow="2"
     inkscape:zoom="2.3805928"
     inkscape:cx="166.73571"
     inkscape:cy="114.09184"
     inkscape:document-units="px"
     inkscape:current-layer="layer1"
     showgrid="false"
     units="in"
     inkscape:window-width="1877"
     inkscape:window-height="1056"
     inkscape:window-x="43"
     inkscape:window-y="24"
     inkscape:window-maximized="1" />
  <defs
     id="defs5390" />
  <metadata
     id="metadata5393">
    <rdf:RDF>
      <cc:Work
         rdf:about="">
        <dc:format>image/svg+xml</dc:format>
        <dc:type
           rdf:resource="http://purl.org/dc/dcmitype/StillImage" />
        <dc:title />
      </cc:Work>
    </rdf:RDF>
  </metadata>
  <g
     inkscape:label="Layer 1"
     inkscape:groupmode="layer"
     id="layer1"
     transform="translate(0,-782.35975)">
    <g
       id="text3967"
       style="font-size:16px;font-style:normal;font-variant:normal;font-weight:normal;font-stretch:normal;text-align:start;line-height:125%;letter-spacing:0px;word-spacing:0px;writing-mode:lr-tb;text-anchor:start;fill:#000000;fill-opacity:1;stroke:none;font-family:serif;-inkscape-font-specification:serif"
       transform="translate(0,774.35975)" />
    <path
       style="fill:#b3b3b3;stroke:none"
       d="m 262.64221,1011.1097 3.51319,6.0851 -3.44626,5.9691 z"
       id="path5197-1-8"
       inkscape:connector-curvature="0" />
    <text
       sodipodi:linespacing="125%"
       id="text3075-4-1"
       y="1050.4827"
       x="66.464462"
       style="font-size:11px;font-style:normal;font-variant:normal;font-weight:normal;font-stretch:normal;text-align:start;line-height:125%;letter-spacing:0px;word-spacing:0px;writing-mode:lr-tb;text-anchor:start;fill:#000000;fill-opacity:1;stroke:none;font-family:Sans;-inkscape-font-specification:Sans"
       xml:space="preserve"><tspan
         y="1050.4827"
         x="66.464462"
         id="tspan3077-0-5"
         sodipodi:role="line">Temperature ($T$) [$\,^{o}C$]</tspan></text>
    <path
       d="m 21.222891,783.89586 0,233.24094 m 242.389179,0 -242.389179,0"
       style="fill:none;stroke:#b3b3b3;stroke-width:2;stroke-linecap:butt;stroke-linejoin:miter;stroke-miterlimit:4;stroke-opacity:1;stroke-dasharray:none"
       id="path5746-9"
       inkscape:connector-curvature="0"
       sodipodi:nodetypes="cccc" />
    <path
       style="fill:#b3b3b3;stroke:none"
       d="m 15.195791,785.7175 6.0851,-3.51319 5.9691,3.44626 z"
       id="path5197-1-8-5"
       inkscape:connector-curvature="0" />
    <text
       transform="matrix(0,-1,1,0,0,0)"
       sodipodi:linespacing="125%"
       id="text3075-4-1-6"
       y="-5.6103458"
       x="-972.65125"
       style="font-size:11px;font-style:normal;font-variant:normal;font-weight:normal;font-stretch:normal;text-align:start;line-height:125%;letter-spacing:0px;word-spacing:0px;writing-mode:lr-tb;text-anchor:start;fill:#000000;fill-opacity:1;stroke:none;font-family:Sans;-inkscape-font-specification:Sans"
       xml:space="preserve"><tspan
         y="-5.6103458"
         x="-972.65125"
         id="tspan3077-0-5-01"
         sodipodi:role="line">\rotatebox{90}{Heat Flux ($\ln \left(q^{''}\right)$) [ ]}</tspan></text>
    <path
       style="font-size:medium;font-style:normal;font-variant:normal;font-weight:normal;font-stretch:normal;text-indent:0;text-align:start;text-decoration:none;line-height:normal;letter-spacing:normal;word-spacing:normal;text-transform:none;direction:ltr;block-progression:tb;writing-mode:lr-tb;text-anchor:start;baseline-shift:baseline;color:#000000;fill:#b3b3b3;fill-opacity:1;stroke:none;stroke-width:1;marker:none;visibility:visible;display:inline;overflow:visible;enable-background:accumulate;font-family:Sans;-inkscape-font-specification:Sans"
       d="m 63.65625,800.4535 1,0 0,-12 -1,0 z m 0,24 1,0 0,-12 -1,0 z m 0,24 1,0 0,-12 -1,0 z m 0,24 1,0 0,-12 -1,0 z m 0,24 1,0 0,-12 -1,0 z m 0,24 1,0 0,-12 -1,0 z m 0,24 1,0 0,-12 -1,0 z m 0,24 1,0 0,-12 -1,0 z m 0,24 1,0 0,-12 -1,0 z m 0,24 1,0 0,-12 -1,0 z"
       id="path3795"
       inkscape:connector-curvature="0"
       sodipodi:nodetypes="cccccccccccccccccccccccccccccccccccccccccccccccccc" />
    <path
       style="font-size:medium;font-style:normal;font-variant:normal;font-weight:normal;font-stretch:normal;text-indent:0;text-align:start;text-decoration:none;line-height:normal;letter-spacing:normal;word-spacing:normal;text-transform:none;direction:ltr;block-progression:tb;writing-mode:lr-tb;text-anchor:start;baseline-shift:baseline;color:#000000;fill:#b3b3b3;fill-opacity:1;stroke:none;stroke-width:1;marker:none;visibility:visible;display:inline;overflow:visible;enable-background:accumulate;font-family:Sans;-inkscape-font-specification:Sans"
       d="m 123.0625,800.4375 1,0 0,-12 -1,0 z m 0,24 1,0 0,-12 -1,0 z m 0,24 1,0 0,-12 -1,0 z m 0,24 1,0 0,-12 -1,0 z m 0,24 1,0 0,-12 -1,0 z m 0,24 1,0 0,-12 -1,0 z m 0,24 1,0 0,-12 -1,0 z m 0,24 1,0 0,-12 -1,0 z m 0,24 1,0 0,-12 -1,0 z m 0,24 1,0 0,-12 -1,0 z"
       id="path3795-5"
       inkscape:connector-curvature="0"
       sodipodi:nodetypes="cccccccccccccccccccccccccccccccccccccccccccccccccc" />
    <path
       style="font-size:medium;font-style:normal;font-variant:normal;font-weight:normal;font-stretch:normal;text-indent:0;text-align:start;text-decoration:none;line-height:normal;letter-spacing:normal;word-spacing:normal;text-transform:none;direction:ltr;block-progression:tb;writing-mode:lr-tb;text-anchor:start;baseline-shift:baseline;color:#000000;fill:#b3b3b3;fill-opacity:1;stroke:none;stroke-width:1;marker:none;visibility:visible;display:inline;overflow:visible;enable-background:accumulate;font-family:Sans;-inkscape-font-specification:Sans"
       d="m 198.8125,800.4375 1,0 0,-12 -1,0 z m 0,24 1,0 0,-12 -1,0 z m 0,24 1,0 0,-12 -1,0 z m 0,24 1,0 0,-12 -1,0 z m 0,24 1,0 0,-12 -1,0 z m 0,24 1,0 0,-12 -1,0 z m 0,24 1,0 0,-12 -1,0 z m 0,24 1,0 0,-12 -1,0 z m 0,24 1,0 0,-12 -1,0 z m 0,24 1,0 0,-12 -1,0 z"
       id="path3795-2"
       inkscape:connector-curvature="0"
       sodipodi:nodetypes="cccccccccccccccccccccccccccccccccccccccccccccccccc" />
    <path
       style="font-size:medium;font-style:normal;font-variant:normal;font-weight:normal;font-stretch:normal;text-indent:0;text-align:start;text-decoration:none;line-height:normal;letter-spacing:normal;word-spacing:normal;text-transform:none;direction:ltr;block-progression:tb;writing-mode:lr-tb;text-anchor:start;baseline-shift:baseline;color:#000000;fill:#b3b3b3;fill-opacity:1;stroke:none;stroke-width:1;marker:none;visibility:visible;display:inline;overflow:visible;enable-background:accumulate;font-family:Sans;-inkscape-font-specification:Sans"
       d="m 91.59375,800.4375 1,0 0,-12 -1,0 z m 0,24 1,0 0,-12 -1,0 z m 0,24 1,0 0,-12 -1,0 z m 0,14.45792 1,-1.44802 0,-1.0099 -1,0 z"
       id="path3795-8"
       inkscape:connector-curvature="0"
       sodipodi:nodetypes="cccccccccccccccccccc" />
    <path
       style="fill:none;stroke:#ff8080;stroke-width:1px;stroke-linecap:butt;stroke-linejoin:miter;stroke-opacity:1"
       d="m 21.683168,1016.736 c 20,-15.4456 36.732673,-26.73268 43.960396,-55.24754 10.594061,-52.67327 34.257428,-146.63366 57.623766,-145.54455 27.12871,0.39604 23.0693,79.20792 43.96039,103.66336"
       id="path3021"
       inkscape:connector-curvature="0"
       sodipodi:nodetypes="cccc" />
    <path
       style="fill:none;stroke:#ff8080;stroke-width:1;stroke-linecap:butt;stroke-linejoin:miter;stroke-miterlimit:4;stroke-opacity:1;stroke-dasharray:6, 2;stroke-dashoffset:0"
       d="m 166.90444,919.22324 c 13.9604,15.9406 22.30348,34.34443 33.59061,33.94839"
       id="path3025"
       inkscape:connector-curvature="0"
       sodipodi:nodetypes="cc" />
    <path
       style="fill:none;stroke:#ff8080;stroke-width:1px;stroke-linecap:butt;stroke-linejoin:miter;stroke-opacity:1"
       d="m 200.32479,953.19338 c 36.80765,-1.88083 53.83363,-95.46729 63.73462,-152.10096"
       id="path3023"
       inkscape:connector-curvature="0"
       sodipodi:nodetypes="cc" />
    <text
       transform="matrix(0,-1,1,0,0,0)"
       sodipodi:linespacing="125%"
       id="text3075-4-1-6-2"
       y="37.780823"
       x="-944.72919"
       style="font-size:11px;font-style:normal;font-variant:normal;font-weight:normal;font-stretch:normal;text-align:start;line-height:125%;letter-spacing:0px;word-spacing:0px;writing-mode:lr-tb;text-anchor:start;fill:#000000;fill-opacity:1;stroke:none;font-family:Sans;-inkscape-font-specification:Sans"
       xml:space="preserve"><tspan
         y="37.780823"
         x="-944.72919"
         id="tspan3077-0-5-01-9"
         sodipodi:role="line">\rotatebox{90}{subcooled boiling}</tspan></text>
    <text
       transform="matrix(0,-1,1,0,0,0)"
       sodipodi:linespacing="125%"
       id="text3075-4-1-6-3"
       y="73.486214"
       x="-859.87634"
       style="font-size:11px;font-style:normal;font-variant:normal;font-weight:normal;font-stretch:normal;text-align:start;line-height:125%;letter-spacing:0px;word-spacing:0px;writing-mode:lr-tb;text-anchor:start;fill:#000000;fill-opacity:1;stroke:none;font-family:Sans;-inkscape-font-specification:Sans"
       xml:space="preserve"><tspan
         y="73.486214"
         x="-859.87634"
         id="tspan3077-0-5-01-96"
         sodipodi:role="line">\rotatebox{90}{local}</tspan></text>
    <text
       transform="matrix(0,-1,1,0,0,0)"
       sodipodi:linespacing="125%"
       id="text3075-4-1-6-6"
       y="104.99097"
       x="-817.44995"
       style="font-size:11px;font-style:normal;font-variant:normal;font-weight:normal;font-stretch:normal;text-align:start;line-height:125%;letter-spacing:0px;word-spacing:0px;writing-mode:lr-tb;text-anchor:start;fill:#000000;fill-opacity:1;stroke:none;font-family:Sans;-inkscape-font-specification:Sans"
       xml:space="preserve"><tspan
         y="104.99097"
         x="-817.44995"
         id="tspan3077-0-5-01-2"
         sodipodi:role="line">\rotatebox{90}{bulk}</tspan></text>
    <text
       sodipodi:linespacing="125%"
       id="text3075-4-1-0"
       y="809.63855"
       x="130.05948"
       style="font-size:11px;font-style:normal;font-variant:normal;font-weight:normal;font-stretch:normal;text-align:start;line-height:125%;letter-spacing:0px;word-spacing:0px;writing-mode:lr-tb;text-anchor:start;fill:#000000;fill-opacity:1;stroke:none;font-family:Sans;-inkscape-font-specification:Sans"
       xml:space="preserve"><tspan
         y="809.63855"
         x="130.05948"
         id="tspan3077-0-5-3"
         sodipodi:role="line">partial film</tspan></text>
    <text
       sodipodi:linespacing="125%"
       id="text3075-4-1-7"
       y="824.7608"
       x="212.81197"
       style="font-size:11px;font-style:normal;font-variant:normal;font-weight:normal;font-stretch:normal;text-align:start;line-height:125%;letter-spacing:0px;word-spacing:0px;writing-mode:lr-tb;text-anchor:start;fill:#000000;fill-opacity:1;stroke:none;font-family:Sans;-inkscape-font-specification:Sans"
       xml:space="preserve"><tspan
         y="824.7608"
         x="212.81197"
         id="tspan3077-0-5-6"
         sodipodi:role="line">full film</tspan></text>
    <text
       sodipodi:linespacing="125%"
       id="text3075-4-1-0-0"
       y="953.30017"
       x="75.805504"
       style="font-size:11px;font-style:normal;font-variant:normal;font-weight:normal;font-stretch:normal;text-align:start;line-height:125%;letter-spacing:0px;word-spacing:0px;writing-mode:lr-tb;text-anchor:start;fill:#000000;fill-opacity:1;stroke:none;font-family:Sans;-inkscape-font-specification:Sans"
       xml:space="preserve"><tspan
         y="953.30017"
         x="75.805504"
         id="tspan3077-0-5-3-7"
         sodipodi:role="line">$\substack{\text{nucleate}\\ \text{boiling}}$</tspan></text>
    <text
       sodipodi:linespacing="125%"
       id="text3075-4-1-0-0-7"
       y="1009.4069"
       x="69.093346"
       style="font-size:11px;font-style:normal;font-variant:normal;font-weight:normal;font-stretch:normal;text-align:start;line-height:125%;letter-spacing:0px;word-spacing:0px;writing-mode:lr-tb;text-anchor:start;fill:#000000;fill-opacity:1;stroke:none;font-family:Sans;-inkscape-font-specification:Sans"
       xml:space="preserve"><tspan
         y="1009.4069"
         x="69.093346"
         sodipodi:role="line"
         id="tspan3976">$\left(T_{c}-T_{sat}\right)_{JL}=\frac{60\left(\nicefrac{q^{''}}{10^{6}}\right)^{\nicefrac{1}{4}}}{\exp\left(\nicefrac{p}{900}\right)}$</tspan></text>
    <g
       transform="matrix(0,-0.83686033,3.7196996,0,-155.81765,1270.6028)"
       style="font-size:40px;font-style:normal;font-variant:normal;font-weight:normal;font-stretch:normal;line-height:125%;letter-spacing:0px;word-spacing:0px;fill:#000000;fill-opacity:1;stroke:none;font-family:Serif;-inkscape-font-specification:Serif"
       id="text3980">
      <path
         d="m 356.0799,93.845383 0,2.050781 -1.21094,0 c -3.24221,-7e-6 -5.41668,-0.481777 -6.52344,-1.445313 -1.09376,-0.963545 -1.64064,-2.884116 -1.64062,-5.761718 l 0,-5.039063 c -2e-5,-1.953117 -0.35158,-3.307282 -1.05469,-4.0625 -0.70314,-0.755198 -1.97918,-1.132801 -3.82813,-1.132812 l -1.1914,0 0,-2.050782 1.1914,0 c 1.84895,1.3e-5 3.12499,-0.37759 3.82813,-1.132812 0.70311,-0.755194 1.05467,-2.109359 1.05469,-4.0625 l 0,-5.039063 c -2e-5,-2.877578 0.54686,-4.791638 1.64062,-5.742187 1.10676,-0.963512 3.28123,-1.445282 6.52344,-1.445313 l 1.21094,0 0,2.03125 -1.32813,0 c -1.83595,2.9e-5 -3.03387,0.286487 -3.59375,0.859375 -0.55991,0.572944 -0.83986,1.77737 -0.83984,3.613282 l 0,5.605468 c -2e-5,2.057308 -0.32554,3.528661 -0.97657,4.414063 -0.65105,0.88543 -1.82292,1.52345 -3.51562,1.914062 1.71874,0.44272 2.89712,1.100272 3.53516,1.972657 0.638,0.872405 0.95701,2.330737 0.95703,4.375 l 0,5.605468 c -2e-5,1.835936 0.27993,3.040362 0.83984,3.613282 0.55988,0.572912 1.7578,0.85937 3.59375,0.859375 l 1.32813,0"
         id="path3985"
         inkscape:connector-curvature="0" />
    </g>
    <text
       sodipodi:linespacing="125%"
       id="text3075-4-1-0-0-7-3"
       y="1032.9591"
       x="80.098885"
       style="font-size:11px;font-style:normal;font-variant:normal;font-weight:normal;font-stretch:normal;text-align:start;line-height:125%;letter-spacing:0px;word-spacing:0px;writing-mode:lr-tb;text-anchor:start;fill:#000000;fill-opacity:1;stroke:none;font-family:Sans;-inkscape-font-specification:Sans"
       xml:space="preserve"><tspan
         y="1032.9591"
         x="80.098885"
         sodipodi:role="line"
         id="tspan4008">$T_{LB}=T_{sat}+\left(T_{c}-T_{sat}\right)_{JL}-\frac{q^{''}}{h}$</tspan></text>
    <path
       style="font-size:medium;font-style:normal;font-variant:normal;font-weight:normal;font-stretch:normal;text-indent:0;text-align:start;text-decoration:none;line-height:normal;letter-spacing:normal;word-spacing:normal;text-transform:none;direction:ltr;block-progression:tb;writing-mode:lr-tb;text-anchor:start;baseline-shift:baseline;color:#000000;fill:#b3b3b3;fill-opacity:1;stroke:none;stroke-width:1;marker:none;visibility:visible;display:inline;overflow:visible;enable-background:accumulate;font-family:Sans;-inkscape-font-specification:Sans"
       d="m 91.59375,1018.1368 1,0 0,-12 -1,0 z"
       id="path3795-8-7"
       inkscape:connector-curvature="0"
       sodipodi:nodetypes="ccccc" />
  </g>
</svg>
