<?xml version="1.0" encoding="UTF-8" standalone="no"?>
<!-- Created with Inkscape (http://www.inkscape.org/) -->

<svg
   xmlns:dc="http://purl.org/dc/elements/1.1/"
   xmlns:cc="http://creativecommons.org/ns#"
   xmlns:rdf="http://www.w3.org/1999/02/22-rdf-syntax-ns#"
   xmlns:svg="http://www.w3.org/2000/svg"
   xmlns="http://www.w3.org/2000/svg"
   xmlns:sodipodi="http://sodipodi.sourceforge.net/DTD/sodipodi-0.dtd"
   xmlns:inkscape="http://www.inkscape.org/namespaces/inkscape"
   width="270"
   height="135"
   id="svg5388"
   version="1.1"
   inkscape:version="0.48.4 r9939"
   sodipodi:docname="LOCA_Timeline_Illustration.svg">
  <sodipodi:namedview
     id="base"
     pagecolor="#ffffff"
     bordercolor="#666666"
     borderopacity="1.0"
     inkscape:pageopacity="0.0"
     inkscape:pageshadow="2"
     inkscape:zoom="1.6833333"
     inkscape:cx="135"
     inkscape:cy="135"
     inkscape:document-units="px"
     inkscape:current-layer="layer1"
     showgrid="false"
     units="in"
     inkscape:window-width="1877"
     inkscape:window-height="1056"
     inkscape:window-x="43"
     inkscape:window-y="24"
     inkscape:window-maximized="1" />
  <defs
     id="defs5390" />
  <metadata
     id="metadata5393">
    <rdf:RDF>
      <cc:Work
         rdf:about="">
        <dc:format>image/svg+xml</dc:format>
        <dc:type
           rdf:resource="http://purl.org/dc/dcmitype/StillImage" />
        <dc:title></dc:title>
      </cc:Work>
    </rdf:RDF>
  </metadata>
  <g
     inkscape:label="Layer 1"
     inkscape:groupmode="layer"
     id="layer1"
     transform="translate(0,-917.35975)">
    <g
       id="text3967"
       style="font-size:16px;font-style:normal;font-variant:normal;font-weight:normal;font-stretch:normal;text-align:start;line-height:125%;letter-spacing:0px;word-spacing:0px;writing-mode:lr-tb;text-anchor:start;fill:#000000;fill-opacity:1;stroke:none;font-family:serif;-inkscape-font-specification:serif"
       transform="translate(0,782.35975)" />
    <text
       xml:space="preserve"
       style="font-size:16px;font-style:normal;font-variant:normal;font-weight:normal;font-stretch:normal;text-align:start;line-height:125%;letter-spacing:0px;word-spacing:0px;writing-mode:lr-tb;text-anchor:start;fill:#000000;fill-opacity:1;stroke:none;font-family:Sans;-inkscape-font-specification:Sans"
       x="250.93614"
       y="1034.8145"
       id="text5217"
       sodipodi:linespacing="125%"><tspan
         sodipodi:role="line"
         id="tspan5219"
         x="250.93614"
         y="1034.8145">$\hat{t}$</tspan></text>
    <path
       sodipodi:nodetypes="ccccccccc"
       style="fill:none;stroke:#000000;stroke-width:2;stroke-linecap:butt;stroke-linejoin:miter;stroke-miterlimit:4;stroke-opacity:1;stroke-dasharray:none"
       d="m 258.46385,1017.1368 -63.40462,0 -3.79537,-5.1755 -4.37043,5.1755 -4.60046,5.4055 -4.71546,-5.4055 -3.91039,-4.7155 -4.14041,4.7155 -144.303819,0"
       id="path5746"
       inkscape:connector-curvature="0" />
    <path
       style="fill:#000000;stroke:none"
       d="m 256.64221,1011.1097 3.51319,6.0851 -3.44626,5.9691 z"
       id="path5197-1-8"
       inkscape:connector-curvature="0" />
    <text
       sodipodi:linespacing="125%"
       id="text3075"
       y="963.29962"
       x="24.919212"
       style="font-size:11px;font-style:normal;font-variant:normal;font-weight:normal;font-stretch:normal;text-align:start;line-height:125%;letter-spacing:0px;word-spacing:0px;writing-mode:lr-tb;text-anchor:start;fill:#000000;fill-opacity:1;stroke:none;font-family:Sans;-inkscape-font-specification:Sans"
       xml:space="preserve"><tspan
         y="963.29962"
         x="24.919212"
         id="tspan3077"
         sodipodi:role="line">$p_{\text{sys}}$</tspan></text>
    <text
       sodipodi:linespacing="125%"
       id="text3075-4"
       y="1005.6445"
       x="80.21479"
       style="font-size:11px;font-style:normal;font-variant:normal;font-weight:normal;font-stretch:normal;text-align:start;line-height:125%;letter-spacing:0px;word-spacing:0px;writing-mode:lr-tb;text-anchor:start;fill:#000000;fill-opacity:1;stroke:none;font-family:Sans;-inkscape-font-specification:Sans"
       xml:space="preserve"><tspan
         y="1005.6445"
         x="80.21479"
         id="tspan3077-0"
         sodipodi:role="line">$p_{\text{sat}}$</tspan></text>
    <text
       sodipodi:linespacing="125%"
       id="text3075-4-9"
       y="931.1366"
       x="223.51569"
       style="font-size:11px;font-style:normal;font-variant:normal;font-weight:normal;font-stretch:normal;text-align:start;line-height:125%;letter-spacing:0px;word-spacing:0px;writing-mode:lr-tb;text-anchor:start;fill:#000000;fill-opacity:1;stroke:none;font-family:Sans;-inkscape-font-specification:Sans"
       xml:space="preserve"><tspan
         y="931.1366"
         x="223.51569"
         id="tspan3077-0-4"
         sodipodi:role="line">$p_{\text{design}}$</tspan></text>
    <path
       id="path3072"
       style="fill:none;stroke:#ff8080;stroke-width:1px;stroke-linecap:butt;stroke-linejoin:miter;stroke-opacity:1"
       d="M 98.294844,995.61336 222.40891,933.95608 m -181.662757,36.03341 43.896088,25.34342"
       inkscape:connector-curvature="0"
       sodipodi:nodetypes="cccc" />
    <g
       transform="matrix(0,-1,1.2151957,0,-46.23214,1048.4922)"
       style="font-size:40px;font-style:normal;font-variant:normal;font-weight:normal;font-stretch:normal;line-height:125%;letter-spacing:0px;word-spacing:0px;fill:#000000;fill-opacity:1;stroke:none;font-family:Serif;-inkscape-font-specification:Serif"
       id="text3076">
      <path
         d="m 24.229781,132.30453 0,4.33779 -0.74998,0 c -2.00803,-2e-5 -3.35477,-1.01906 -4.04023,-3.05711 -0.67741,-2.03809 -1.01611,-6.10046 -1.01611,-12.18714 l 0,-10.65857 c 0,-4.13122 -0.21774,-6.99555 -0.65321,-8.59296 -0.43548,-1.59739 -1.22578,-2.396086 -2.37091,-2.396126 l -0.73789,0 0,-4.33779 0.73789,0 c 1.14513,4e-5 1.93543,-0.79868 2.37091,-2.39611 0.43547,-1.59737 0.65321,-4.4617 0.65321,-8.59296 l 0,-10.65858 c 0,-6.08663 0.3387,-10.13523 1.01611,-12.14582 0.68546,-2.03801 2.0322,-3.05705 4.04023,-3.05711 l 0.74998,0 0,4.29648 -0.82256,0 c -1.13708,6e-5 -1.879,0.60596 -2.22575,1.81773 -0.34678,1.2119 -0.52016,3.75948 -0.52016,7.64278 l 0,11.85664 c 0,4.3516 -0.20161,7.46379 -0.60482,9.3366 -0.40322,1.87285 -1.12901,3.22238 -2.17737,4.0486 1.06448,0.93644 1.79431,2.32728 2.18947,4.172526 0.39514,1.84531 0.59272,4.92996 0.59272,9.25396 l 0,11.85664 c 0,3.88336 0.17338,6.43094 0.52016,7.64277 0.34675,1.21184 1.08867,1.81773 2.22575,1.81776 l 0.82256,0"
         id="path3081"
         inkscape:connector-curvature="0" />
    </g>
    <text
       sodipodi:linespacing="125%"
       id="text3075-4-1"
       y="1047.2224"
       x="44.62117"
       style="font-size:11px;font-style:normal;font-variant:normal;font-weight:normal;font-stretch:normal;text-align:start;line-height:125%;letter-spacing:0px;word-spacing:0px;writing-mode:lr-tb;text-anchor:start;fill:#000000;fill-opacity:1;stroke:none;font-family:Sans;-inkscape-font-specification:Sans"
       xml:space="preserve"><tspan
         y="1047.2224"
         x="44.62117"
         id="tspan3077-0-5"
         sodipodi:role="line">blowdown</tspan></text>
  </g>
</svg>
