<?xml version="1.0" encoding="UTF-8" standalone="no"?>
<svg
   xmlns:dc="http://purl.org/dc/elements/1.1/"
   xmlns:cc="http://creativecommons.org/ns#"
   xmlns:rdf="http://www.w3.org/1999/02/22-rdf-syntax-ns#"
   xmlns:svg="http://www.w3.org/2000/svg"
   xmlns="http://www.w3.org/2000/svg"
   xmlns:sodipodi="http://sodipodi.sourceforge.net/DTD/sodipodi-0.dtd"
   xmlns:inkscape="http://www.inkscape.org/namespaces/inkscape"
   preserveAspectRatio="xMinYMin meet"
   width="100%"
   height="100%"
   viewBox="0 0 638.438 284.063"
   version="1.1"
   id="svg2"
   inkscape:version="0.48.4 r9939"
   sodipodi:docname="NUCL_511_HWMK_3_PROB_1.svg">
  <metadata
     id="metadata624">
    <rdf:RDF>
      <cc:Work
         rdf:about="">
        <dc:format>image/svg+xml</dc:format>
        <dc:type
           rdf:resource="http://purl.org/dc/dcmitype/StillImage" />
      </cc:Work>
    </rdf:RDF>
  </metadata>
  <defs
     id="defs622">
    <clipPath
       id="ID000001">
      <rect
         x="82.997002"
         y="21.305"
         width="494.789"
         height="221.508"
         id="rect11" />
    </clipPath>
  </defs>
  <sodipodi:namedview
     pagecolor="#ffffff"
     bordercolor="#666666"
     borderopacity="1"
     objecttolerance="10"
     gridtolerance="10"
     guidetolerance="10"
     inkscape:pageopacity="0"
     inkscape:pageshadow="2"
     inkscape:window-width="1920"
     inkscape:window-height="1138"
     id="namedview620"
     showgrid="false"
     inkscape:zoom="2.8037178"
     inkscape:cx="319.219"
     inkscape:cy="142.0315"
     inkscape:window-x="-8"
     inkscape:window-y="-8"
     inkscape:window-maximized="1"
     inkscape:current-layer="svg2" />
  <desc
     id="desc4">Matlab Figure Converted by PLOT2SVG written by Juerg Schwizer</desc>
  <polygon
     points="82.997,242.813 577.786,242.813 577.786,21.305 82.997,21.305 "
     id="polygon13"
     style="fill:#ffffff;fill-opacity:1;stroke:none" />
  <polygon
     points="82.997,21.305 577.786,21.305 577.786,21.305 82.997,21.305 "
     id="polygon15"
     style="fill:#ffffff;fill-opacity:1;stroke:none" />
  <polygon
     points="82.997,242.813 82.997,242.813 82.997,21.305 82.997,21.305 "
     id="polygon17"
     style="fill:#ffffff;fill-opacity:1;stroke:none" />
  <g
     id="g19">
    <g
       id="ID000002"
       clip-path="url(#ID000001)">
      <polyline
         points="491.774,140.420 492.188,138.248 492.593,136.114 492.989,134.018 493.377,131.960 493.756,129.941 494.127,127.961 494.491,126.020 494.847,124.118 495.197,122.255 495.540,120.432 495.876,118.649 496.206,116.905 496.531,115.200 496.849,113.535 497.162,111.909 497.470,110.322 497.772,108.774 498.069,107.266 498.362,105.796 498.650,104.364 498.933,102.971 499.212,101.617 499.486,100.300 499.757,99.020 500.023,97.778 500.285,96.574 500.544,95.406 500.799,94.274 501.051,93.179 501.298,92.120 501.543,91.096 501.784,90.107 502.022,89.153 502.257,88.234 502.489,87.349 502.718,86.497 502.944,85.679 503.167,84.894 503.388,84.142 503.606,83.422 503.821,82.733 504.033,82.076 504.243,81.450 504.451,80.855 504.656,80.290 504.859,79.754 505.060,79.248 505.259,78.772 505.455,78.323 505.649,77.903 505.841,77.511 506.031,77.146 506.219,76.808 506.405,76.496 506.589,76.211 506.772,75.951 506.952,75.717 507.131,75.507 507.308,75.322 507.483,75.161 507.656,75.024 507.828,74.910 507.998,74.819 508.167,74.751 508.334,74.705 508.499,74.680 508.663,74.677 508.826,74.694 508.987,74.733 509.146,74.791 509.305,74.869 509.461,74.967 509.617,75.084 509.771,75.219 509.924,75.373 510.075,75.544 510.225,75.734 510.374,75.940 510.522,76.164 510.668,76.404 510.814,76.660 510.958,76.932 511.101,77.219 511.243,77.522 511.383,77.840 511.523,78.172 511.662,78.518 511.799,78.879 511.936,79.252 512.071,79.639 512.206,80.039 512.339,80.452 512.471,80.877 512.603,81.314 512.733,81.763 512.863,82.223 512.991,82.694 513.119,83.177 513.246,83.670 513.372,84.173 513.497,84.686 513.621,85.209 513.744,85.742 513.867,86.283 513.988,86.834 514.109,87.394 514.229,87.962 514.348,88.538 514.467,89.122 514.584,89.714 514.701,90.314 514.817,90.921 514.933,91.535 515.047,92.156 515.161,92.783 515.275,93.417 515.387,94.057 515.499,94.703 515.610,95.354 515.720,96.012 515.830,96.674 515.939,97.342 516.047,98.015 516.155,98.692 516.262,99.374 516.369,100.061 516.474,100.751 516.580,101.446 516.684,102.144 516.788,102.846 516.892,103.552 516.994,104.261 517.096,104.973 517.198,105.688 517.299,106.406 517.400,107.127 517.500,107.850 517.599,108.576 517.698,109.304 517.796,110.033 517.894,110.765 517.991,111.499 518.088,112.234 518.184,112.971 518.279,113.709 518.375,114.449 518.469,115.189 518.563,115.931 518.657,116.674 518.750,117.417 518.843,118.161 518.935,118.905 519.027,119.650 519.118,120.395 519.209,121.141 519.299,121.886 519.389,122.632 519.478,123.377 519.567,124.123 519.656,124.868 519.744,125.612 519.832,126.356 519.919,127.100 520.006,127.842 520.092,128.584 520.178,129.326 520.264,130.066 520.349,130.805 520.434,131.543 520.518,132.280 520.602,133.016 520.686,133.750 520.769,134.484 520.852,135.215 520.934,135.945 521.016,136.674 521.098,137.400 521.179,138.126 521.260,138.849 521.341,139.570 521.421,140.290 521.501,141.007 521.580,141.723 521.659,142.436 521.738,143.148 521.817,143.857 521.895,144.564 521.973,145.269 522.050,145.971 522.127,146.671 522.204,147.368 522.280,148.064 522.357,148.756 522.432,149.446 522.508,150.134 522.583,150.819 522.658,151.501 522.732,152.180 522.807,152.857 522.881,153.531 522.954,154.202 523.028,154.871 523.101,155.536 523.173,156.199 523.246,156.859 523.318,157.515 523.390,158.169 523.461,158.820 523.533,159.468 523.604,160.113 523.674,160.754 523.745,161.393 523.815,162.029 523.885,162.661 523.954,163.290 524.024,163.916 524.093,164.539 524.162,165.159 524.230,165.776 524.298,166.389 524.366,166.999 524.434,167.606 524.502,168.209 524.569,168.810 524.636,169.407 524.703,170.000 524.769,170.591 524.836,171.178 524.902,171.762 524.967,172.342 525.033,172.919 525.098,173.493 525.163,174.064 525.228,174.631 525.293,175.195 525.357,175.755 525.421,176.312 525.485,176.866 525.549,177.416 525.612,177.963 525.675,178.506 525.738,179.047 525.801,179.583 525.864,180.117 525.926,180.647 525.988,181.174 526.050,181.697 526.112,182.217 526.173,182.734 526.235,183.247 526.296,183.757 526.357,184.264 526.417,184.767 526.478,185.267 526.538,185.763 526.598,186.257 526.658,186.747 526.717,187.233 526.777,187.717 526.836,188.197 526.895,188.673 526.954,189.147 527.013,189.617 527.071,190.084 527.129,190.547 527.188,191.008 527.245,191.465 527.303,191.919 527.361,192.369 527.418,192.817 527.475,193.261 527.532,193.702 527.589,194.140 527.646,194.574 527.702,195.006 527.758,195.434 527.815,195.859 527.870,196.281 527.926,196.700 527.982,197.116 528.037,197.529 528.092,197.938 528.147,198.345 528.202,198.749 528.257,199.149 528.312,199.546 528.366,199.941 528.420,200.332 528.474,200.721 528.528,201.106 528.582,201.488 528.636,201.868 528.689,202.244 528.742,202.618 528.795,202.989 528.848,203.357 528.901,203.721 528.954,204.084 529.006,204.443 529.058,204.799 529.111,205.153 529.163,205.503 529.215,205.851 529.266,206.196 529.318,206.539 529.369,206.878 529.421,207.215 529.472,207.549 529.523,207.881 529.573,208.209 529.624,208.535 529.675,208.859 529.725,209.179 529.775,209.498 529.826,209.813 529.875,210.126 529.925,210.436 529.975,210.744 530.025,211.049 530.074,211.352 530.123,211.652 530.173,211.949 530.222,212.244 530.270,212.537 530.319,212.827 530.368,213.115 530.416,213.400 530.465,213.683 530.513,213.963 530.561,214.241 530.609,214.517 530.657,214.790 530.705,215.061 530.752,215.330 530.800,215.596 530.847,215.860 530.894,216.122 530.941,216.381 530.988,216.638 531.035,216.893 531.082,217.146 531.128,217.397 531.175,217.645 531.221,217.891 531.268,218.135 531.314,218.377 531.360,218.617 531.406,218.854 531.451,219.090 531.497,219.323 531.543,219.555 531.588,219.784 531.633,220.011 531.679,220.237 531.724,220.460 531.769,220.681 531.813,220.900 531.858,221.118 531.903,221.333 531.947,221.546 531.992,221.758 532.036,221.967 532.080,222.175 532.124,222.381 532.168,222.585 532.212,222.787 532.256,222.987 532.300,223.185 532.343,223.382 532.387,223.577 532.430,223.770 532.473,223.961 532.516,224.150 532.559,224.338 532.602,224.524 532.645,224.708 532.688,224.891 532.730,225.072 532.773,225.251 532.815,225.429 532.858,225.604 532.900,225.779 532.942,225.951 532.984,226.122 533.026,226.292 533.068,226.460 533.109,226.626 533.151,226.790 533.192,226.954 533.234,227.115 533.275,227.275 533.316,227.434 533.358,227.591 533.399,227.747 533.440,227.901 533.480,228.053 533.521,228.205 533.562,228.354 533.602,228.503 533.643,228.650 533.683,228.795 533.724,228.939 533.764,229.082 533.804,229.224 533.844,229.364 533.884,229.502 533.924,229.640 533.964,229.776 534.003,229.910 534.043,230.044 534.082,230.176 534.122,230.307 534.161,230.437 534.200,230.565 534.240,230.692 534.279,230.818 534.318,230.943 534.357,231.066 534.395,231.188 534.434,231.309 534.473,231.429 534.511,231.548 534.550,231.665 534.588,231.782 534.627,231.897 534.665,232.011 534.703,232.124 534.741,232.236 534.779,232.347 534.817,232.457 534.855,232.565 534.893,232.673 534.930,232.779 534.968,232.885 535.005,232.989 535.043,233.092 535.080,233.195 535.118,233.296 535.155,233.396 535.192,233.496 535.229,233.594 535.266,233.691 535.303,233.788 535.340,233.883 535.376,233.978 535.413,234.071 535.450,234.164 535.486,234.255 535.523,234.346 535.559,234.436 535.595,234.525 535.632,234.613 535.668,234.700 535.704,234.786 535.740,234.872 535.776,234.956 535.812,235.040 535.847,235.123 535.883,235.205 535.919,235.286 535.954,235.366 535.990,235.446 536.025,235.524 536.061,235.602 536.096,235.680 536.131,235.756 536.166,235.831 536.202,235.906 536.237,235.980 536.272,236.054 536.306,236.126 536.341,236.198 536.376,236.269 536.411,236.339 536.445,236.409 536.480,236.478 536.514,236.546 536.549,236.614 536.583,236.680 536.617,236.747 536.652,236.812 536.686,236.877 536.720,236.941 536.754,237.004 536.788,237.067 536.822,237.129 536.856,237.191 536.889,237.252 536.923,237.312 536.957,237.371 536.990,237.430 537.024,237.489 537.057,237.546 537.091,237.604 537.124,237.660 537.157,237.716 537.191,237.772 537.224,237.826 537.257,237.881 537.290,237.934 537.323,237.988 537.356,238.040 537.389,238.092 537.421,238.144 537.454,238.195 537.487,238.245 537.519,238.295 537.552,238.344 537.584,238.393 537.617,238.441 537.649,238.489 537.681,238.537 537.714,238.583 537.746,238.630 537.778,238.676 537.810,238.721 537.842,238.766 537.874,238.810 537.906,238.854 537.938,238.898 537.970,238.941 538.001,238.983 538.033,239.025 538.065,239.067 538.096,239.108 538.128,239.149 538.159,239.189 538.191,239.229 538.222,239.269 538.253,239.308 538.285,239.347 538.316,239.385 538.347,239.423 538.378,239.460 538.409,239.497 538.440,239.534 538.471,239.570 538.502,239.606 538.532,239.642 538.563,239.677 538.594,239.711 538.625,239.746 538.655,239.780 538.686,239.813 538.716,239.847 538.747,239.880 538.777,239.912 538.807,239.944 538.838,239.976 538.868,240.008 538.898,240.039 538.928,240.070 538.958,240.100 538.988,240.131 539.018,240.161 539.048,240.190 539.078,240.219 539.108,240.248 539.138,240.277 539.168,240.305 539.197,240.333 539.227,240.361 539.256,240.388 539.286,240.415 539.315,240.442 539.345,240.469 539.374,240.495 539.404,240.521 539.433,240.546 539.462,240.572 539.491,240.597 539.521,240.622 539.550,240.646 539.579,240.671 539.608,240.695 539.637,240.718 539.666,240.742 539.694,240.765 539.723,240.788 539.752,240.811 539.781,240.833 539.809,240.856 539.838,240.878 539.867,240.899 539.895,240.921 539.924,240.942 539.952,240.963 539.981,240.984 540.009,241.005 540.037,241.025 540.066,241.045 540.094,241.065 540.122,241.085 540.150,241.105 540.178,241.124 540.206,241.143 540.234,241.162 540.262,241.180 540.290,241.199 540.318,241.217 540.346,241.235 540.374,241.253 540.402,241.271 540.429,241.288 540.457,241.305 540.485,241.323 540.512,241.339 540.540,241.356 540.567,241.373 540.595,241.389 540.622,241.405 540.649,241.421 540.677,241.437 540.704,241.453 540.731,241.468 540.758,241.483 540.786,241.498 540.813,241.513 540.840,241.528 540.867,241.543 540.894,241.557 540.921,241.572 540.948,241.586 540.975,241.600 541.001,241.614 541.028,241.627 541.055,241.641 541.082,241.654 541.108,241.667 541.135,241.680 541.162,241.693 541.188,241.706 541.215,241.719 541.241,241.731 541.268,241.744 541.294,241.756 541.320,241.768 541.347,241.780 541.373,241.792 541.399,241.803 541.425,241.815 541.452,241.826 541.478,241.838 541.504,241.849 541.530,241.860 541.556,241.871 541.582,241.882 541.608,241.892 541.634,241.903 541.660,241.913 541.685,241.924 541.711,241.934 541.737,241.944 541.763,241.954 541.788,241.964 541.814,241.974 541.840,241.983 541.865,241.993 541.891,242.002 541.916,242.011 541.942,242.021 541.967,242.030 541.993,242.039 542.018,242.048 542.043,242.057 542.069,242.065 542.094,242.074 542.119,242.082 542.144,242.091 542.169,242.099 542.194,242.107 542.220,242.116 542.245,242.124 542.270,242.132 542.295,242.139 542.319,242.147 542.344,242.155 542.369,242.162 542.394,242.170 542.419,242.177 542.444,242.185 542.468,242.192 542.493,242.199 542.518,242.206 542.542,242.213 542.567,242.220 542.591,242.227 542.616,242.234 542.640,242.241 542.665,242.247 542.689,242.254 542.714,242.260 542.738,242.267 542.762,242.273 542.787,242.279 542.811,242.286 542.835,242.292 542.859,242.298 542.884,242.304 542.908,242.310 542.932,242.315 542.956,242.321 542.980,242.327 543.004,242.333 543.028,242.338 543.052,242.344 543.076,242.349 543.099,242.355 543.123,242.360 543.147,242.365 543.171,242.370 543.195,242.376 543.218,242.381 543.242,242.386 543.266,242.391 543.289,242.396 543.313,242.400 543.336,242.405 543.360,242.410 543.383,242.415 543.407,242.419 543.430,242.424 543.454,242.428 543.477,242.433 543.500,242.437 543.524,242.442 543.547,242.446 543.570,242.450 543.594,242.455 543.617,242.459 543.640,242.463 543.663,242.467 543.686,242.471 543.709,242.475 543.732,242.479 543.755,242.483 543.778,242.487 543.801,242.491 543.824,242.494 543.847,242.498 543.870,242.502 543.893,242.505 543.915,242.509 543.938,242.513 543.961,242.516 543.984,242.520 544.006,242.523 544.029,242.526 544.052,242.530 544.074,242.533 544.097,242.536 544.119,242.540 544.142,242.543 544.164,242.546 544.187,242.549 544.209,242.552 544.232,242.555 544.254,242.558 544.276,242.561 544.299,242.564 544.321,242.567 544.343,242.570 544.366,242.573 544.388,242.576 544.410,242.579 544.432,242.581 544.454,242.584 544.476,242.587 544.498,242.589 544.520,242.592 544.542,242.595 544.564,242.597 544.586,242.600 544.608,242.602 544.630,242.605 544.652,242.607 544.674,242.610 544.696,242.612 544.718,242.614 544.739,242.617 544.761,242.619 544.783,242.621 544.805,242.624 544.826,242.626 544.848,242.628 544.870,242.630 544.891,242.632 544.913,242.635 544.934,242.637 544.956,242.639 544.977,242.641 544.999,242.643 545.020,242.645 545.042,242.647 545.063,242.649 545.084,242.651 545.106,242.653 545.127,242.655 545.148,242.656 545.170,242.658 545.191,242.660 545.212,242.662 545.233,242.664 545.254,242.665 545.275,242.667 545.297,242.669 545.318,242.671 545.339,242.672 545.360,242.674 545.381,242.676 545.402,242.677 545.423,242.679 545.444,242.680 545.465,242.682 545.485,242.684 545.506,242.685 545.527,242.687 545.548,242.688 545.569,242.690 545.590,242.691 545.610,242.693 545.631,242.694 545.652,242.695 545.672,242.697 545.693,242.698 545.714,242.699 545.734,242.701 545.755,242.702 545.775,242.703 545.796,242.705 545.816,242.706 545.837,242.707 545.857,242.709 545.878,242.710 545.898,242.711 545.919,242.712 545.939,242.713 545.959,242.715 545.980,242.716 546.000,242.717 546.020,242.718 546.040,242.719 546.061,242.720 546.081,242.721 546.101,242.723 546.121,242.724 546.141,242.725 546.162,242.726 546.182,242.727 546.202,242.728 546.222,242.729 546.242,242.730 546.262,242.731 546.282,242.732 546.302,242.733 546.322,242.734 546.342,242.735 546.361,242.736 546.381,242.736 546.401,242.737 546.421,242.738 546.441,242.739 546.461,242.740 546.480,242.741 546.500,242.742 546.520,242.743 546.539,242.743 546.559,242.744 546.579,242.745 546.598,242.746 546.618,242.747 546.638,242.748 546.657,242.748 546.677,242.749 546.696,242.750 546.716,242.751 546.735,242.751 546.755,242.752 546.774,242.753 546.794,242.754 546.813,242.754 546.832,242.755 546.852,242.756 546.871,242.756 546.890,242.757 546.910,242.758 546.929,242.758 546.948,242.759 546.967,242.760 546.987,242.760 547.006,242.761 547.025,242.761 547.044,242.762 547.063,242.763 547.082,242.763 547.101,242.764 547.120,242.764 547.140,242.765 547.159,242.766 547.178,242.766 547.197,242.767 547.215,242.767 547.234,242.768 547.253,242.768 547.272,242.769 547.291,242.769 547.310,242.770 547.329,242.770 547.348,242.771 547.366,242.771 547.385,242.772 547.404,242.772 547.423,242.773 547.442,242.773 547.460,242.774 547.479,242.774 547.498,242.775 547.516,242.775 547.535,242.776 547.553,242.776 547.572,242.777 547.591,242.777 547.609,242.777 547.628,242.778 547.646,242.778 547.665,242.779 547.683,242.779 547.702,242.780 547.720,242.780 547.739,242.780 547.757,242.781 547.775,242.781 547.794,242.781 547.812,242.782 547.830,242.782 547.849,242.783 547.867,242.783 547.885,242.783 547.903,242.784 547.922,242.784 547.940,242.784 547.958,242.785 547.976,242.785 547.994,242.785 548.013,242.786 548.031,242.786 548.049,242.786 548.067,242.787 548.085,242.787 548.103,242.787 548.121,242.788 548.139,242.788 548.157,242.788 548.175,242.788 548.193,242.789 548.211,242.789 548.229,242.789 548.247,242.790 548.265,242.790 548.282,242.790 548.300,242.790 548.318,242.791 548.336,242.791 548.354,242.791 548.372,242.792 548.389,242.792 548.407,242.792 548.425,242.792 548.442,242.793 548.460,242.793 548.478,242.793 548.495,242.793 548.513,242.793 548.531,242.794 548.548,242.794 548.566,242.794 548.583,242.794 548.601,242.795 548.619,242.795 548.636,242.795 548.654,242.795 548.671,242.795 548.689,242.796 548.706,242.796 548.723,242.796 548.741,242.796 548.758,242.796 548.776,242.797 548.793,242.797 548.810,242.797 548.828,242.797 548.845,242.797 548.862,242.798 548.880,242.798 548.897,242.798 548.914,242.798 548.931,242.798 548.949,242.798 548.966,242.799 "
         id="polyline22"
         style="fill:none;stroke:#000000;stroke-width:0.5pt;stroke-dasharray:none" />
      <g
         id="g24" />
    </g>
    <g
       id="ID000003"
       clip-path="url(#ID000001)">
      <polyline
         points="206.694,140.420 368.097,140.420 380.508,140.420 387.768,140.420 392.920,140.420 396.915,140.420 400.180,140.420 402.940,140.420 405.331,140.420 407.441,140.420 409.327,140.420 411.034,140.420 412.592,140.420 414.025,140.420 415.352,140.420 416.588,140.420 417.744,140.420 418.829,140.420 419.853,140.420 420.821,140.420 421.739,140.420 422.613,140.420 423.446,140.420 424.242,140.420 425.004,140.420 425.735,140.420 426.437,140.420 427.113,140.420 427.765,140.420 428.393,140.420 429.000,140.420 429.587,140.420 430.156,140.420 430.707,140.420 431.241,140.420 431.760,140.420 432.265,140.420 432.755,140.420 433.233,140.420 433.698,140.420 434.151,140.420 434.594,140.420 435.025,140.420 435.447,140.420 435.858,140.420 436.261,140.420 436.654,140.420 437.039,140.420 437.416,140.420 437.786,140.420 438.147,140.420 438.502,140.420 438.850,140.420 439.191,140.420 439.525,140.420 439.854,140.420 440.177,140.420 440.494,140.420 440.805,140.420 441.111,140.420 441.412,140.420 441.708,140.420 441.999,140.420 442.286,140.420 442.568,140.420 442.845,140.420 443.119,140.420 443.388,140.420 443.653,140.420 443.915,140.420 444.173,140.420 444.427,140.420 444.677,140.420 444.924,140.420 445.168,140.420 445.408,140.420 445.645,140.420 445.879,140.420 446.110,140.420 446.338,140.420 446.564,140.420 446.786,140.420 447.006,140.420 447.223,140.420 447.437,140.420 447.649,140.420 447.859,140.420 448.066,140.420 448.270,140.420 448.473,140.420 448.673,140.420 448.871,140.420 449.066,140.420 449.260,140.420 449.451,140.420 449.641,140.420 449.828,140.420 450.014,140.420 450.198,140.420 450.380,140.420 450.559,140.420 450.738,140.420 450.914,140.420 451.089,140.420 451.262,140.420 451.433,140.420 451.603,140.420 451.771,140.420 451.938,140.420 452.103,140.420 452.266,140.420 452.428,140.420 452.589,140.420 452.748,140.420 452.906,140.420 453.062,140.420 453.217,140.420 453.371,140.420 453.523,140.420 453.674,140.420 453.824,140.420 453.973,140.420 454.120,140.420 454.266,140.420 454.411,140.420 454.555,140.420 454.698,140.420 454.840,140.420 454.980,140.420 455.119,140.420 455.258,140.420 455.395,140.420 455.531,140.420 455.666,140.420 455.800,140.420 455.933,140.420 456.066,140.420 456.197,140.420 456.327,140.420 456.456,140.420 456.585,140.420 456.712,140.420 456.839,140.420 456.964,140.420 457.089,140.420 457.213,140.420 457.336,140.420 457.458,140.420 457.580,140.420 457.700,140.420 457.820,140.420 457.939,140.420 458.057,140.420 458.175,140.420 458.291,140.420 458.407,140.420 458.522,140.420 458.637,140.420 458.751,140.420 458.864,140.420 458.976,140.420 459.087,140.420 459.198,140.420 459.308,140.420 459.418,140.420 459.527,140.420 459.635,140.420 459.743,140.420 459.850,140.420 459.956,140.420 460.061,140.420 460.166,140.420 460.271,140.420 460.375,140.420 460.478,140.420 460.581,140.420 460.683,140.420 460.784,140.420 460.885,140.420 460.985,140.420 461.085,140.420 461.184,140.420 461.283,140.420 461.381,140.420 461.479,140.420 461.576,140.420 461.672,140.420 461.768,140.420 461.864,140.420 461.959,140.420 462.053,140.420 462.147,140.420 462.241,140.420 462.334,140.420 462.426,140.420 462.518,140.420 462.610,140.420 462.701,140.420 462.792,140.420 462.882,140.420 462.972,140.420 463.061,140.420 463.150,140.420 463.238,140.420 463.326,140.420 463.414,140.420 463.501,140.420 463.588,140.420 463.674,140.420 463.760,140.420 463.845,140.420 463.930,140.420 464.015,140.420 464.099,140.420 464.183,140.420 464.267,140.420 464.350,140.420 464.433,140.420 464.515,140.420 464.597,140.420 464.678,140.420 464.760,140.420 464.840,140.420 464.921,140.420 465.001,140.420 465.081,140.420 465.160,140.420 465.239,140.420 465.318,140.420 465.396,140.420 465.474,140.420 465.552,140.420 465.629,140.420 465.706,140.420 465.783,140.420 465.860,140.420 465.936,140.420 466.011,140.420 466.087,140.420 466.162,140.420 466.237,140.420 466.311,140.420 466.385,140.420 466.459,140.420 466.533,140.420 466.606,140.420 466.679,140.420 466.751,140.420 466.824,140.420 466.896,140.420 466.968,140.420 467.039,140.420 467.110,140.420 467.181,140.420 467.252,140.420 467.322,140.420 467.392,140.420 467.462,140.420 467.532,140.420 467.601,140.420 467.670,140.420 467.739,140.420 467.807,140.420 467.875,140.420 467.943,140.420 468.011,140.420 468.078,140.420 468.146,140.420 468.213,140.420 468.279,140.420 468.346,140.420 468.412,140.420 468.478,140.420 468.544,140.420 468.609,140.420 468.674,140.420 468.739,140.420 468.804,140.420 468.869,140.420 468.933,140.420 468.997,140.420 469.061,140.420 469.124,140.420 469.188,140.420 469.251,140.420 469.314,140.420 469.377,140.420 469.439,140.420 469.501,140.420 469.563,140.420 469.625,140.420 469.687,140.420 469.748,140.420 469.810,140.420 469.871,140.420 469.931,140.420 469.992,140.420 470.052,140.420 470.113,140.420 470.173,140.420 470.232,140.420 470.292,140.420 470.351,140.420 470.411,140.420 470.470,140.420 470.528,140.420 470.587,140.420 470.645,140.420 470.704,140.420 470.762,140.420 470.820,140.420 470.877,140.420 470.935,140.420 470.992,140.420 471.049,140.420 471.106,140.420 471.163,140.420 471.219,140.420 471.276,140.420 471.332,140.420 471.388,140.420 471.444,140.420 471.500,140.420 471.555,140.420 471.610,140.420 471.666,140.420 471.721,140.420 471.776,140.420 471.830,140.420 471.885,140.420 471.939,140.420 471.993,140.420 472.047,140.420 472.101,140.420 472.155,140.420 472.208,140.420 472.262,140.420 472.315,140.420 472.368,140.420 472.421,140.420 472.474,140.420 472.526,140.420 472.579,140.420 472.631,140.420 472.683,140.420 472.735,140.420 472.787,140.420 472.839,140.420 472.890,140.420 472.941,140.420 472.993,140.420 473.044,140.420 473.095,140.420 473.146,140.420 473.196,140.420 473.247,140.420 473.297,140.420 473.347,140.420 473.397,140.420 473.447,140.420 473.497,140.420 473.547,140.420 473.596,140.420 473.646,140.420 473.695,140.420 473.744,140.420 473.793,140.420 473.842,140.420 473.891,140.420 473.939,140.420 473.988,140.420 474.036,140.420 474.084,140.420 474.132,140.420 474.180,140.420 474.228,140.420 474.276,140.420 474.323,140.420 474.371,140.420 474.418,140.420 474.465,140.420 474.512,140.420 474.559,140.420 474.606,140.420 474.653,140.420 474.699,140.420 474.746,140.420 474.792,140.420 474.838,140.420 474.885,140.420 474.931,140.420 474.976,140.420 475.022,140.420 475.068,140.420 475.113,140.420 475.159,140.420 475.204,140.420 475.249,140.420 475.294,140.420 475.339,140.420 475.384,140.420 475.429,140.420 475.473,140.420 475.518,140.420 475.562,140.420 475.606,140.420 475.650,140.420 475.695,140.420 475.738,140.420 475.782,140.420 475.826,140.420 475.870,140.420 475.913,140.420 475.957,140.420 476.000,140.420 476.043,140.420 476.086,140.420 476.129,140.420 476.172,140.420 476.215,140.420 476.258,140.420 476.300,140.420 476.343,140.420 476.385,140.420 476.427,140.420 476.469,140.420 476.512,140.420 476.554,140.420 476.595,140.420 476.637,140.420 476.679,140.420 476.721,140.420 476.762,140.420 476.803,140.420 476.845,140.420 476.886,140.420 476.927,140.420 476.968,140.420 477.009,140.420 477.050,140.420 477.091,140.420 477.131,140.420 477.172,140.420 477.212,140.420 477.253,140.420 477.293,140.420 477.333,140.420 477.373,140.420 477.413,140.420 477.453,140.420 477.493,140.420 477.533,140.420 477.572,140.420 477.612,140.420 477.651,140.420 477.691,140.420 477.730,140.420 477.769,140.420 477.809,140.420 477.848,140.420 477.887,140.420 477.925,140.420 477.964,140.420 478.003,140.420 478.042,140.420 478.080,140.420 478.119,140.420 478.157,140.420 478.195,140.420 478.234,140.420 478.272,140.420 478.310,140.420 478.348,140.420 478.386,140.420 478.423,140.420 478.461,140.420 478.499,140.420 478.536,140.420 478.574,140.420 478.611,140.420 478.649,140.420 478.686,140.420 478.723,140.420 478.760,140.420 478.797,140.420 478.834,140.420 478.871,140.420 478.908,140.420 478.945,140.420 478.981,140.420 479.018,140.420 479.054,140.420 479.091,140.420 479.127,140.420 479.164,140.420 479.200,140.420 479.236,140.420 479.272,140.420 479.308,140.420 479.344,140.420 479.380,140.420 479.415,140.420 479.451,140.420 479.487,140.420 479.522,140.420 479.558,140.420 479.593,140.420 479.629,140.420 479.664,140.420 479.699,140.420 479.734,140.420 479.769,140.420 479.804,140.420 479.839,140.420 479.874,140.420 479.909,140.420 479.944,140.420 479.978,140.420 480.013,140.420 480.048,140.420 480.082,140.420 480.116,140.420 480.151,140.420 480.185,140.420 480.219,140.420 480.253,140.420 480.287,140.420 480.321,140.420 480.355,140.420 480.389,140.420 480.423,140.420 480.457,140.420 480.491,140.420 480.524,140.420 480.558,140.420 480.591,140.420 480.625,140.420 480.658,140.420 480.691,140.420 480.725,140.420 480.758,140.420 480.791,140.420 480.824,140.420 480.857,140.420 480.890,140.420 480.923,140.420 480.956,140.420 480.988,140.420 481.021,140.420 481.054,140.420 481.086,140.420 481.119,140.420 481.151,140.420 481.184,140.420 481.216,140.420 481.248,140.420 481.281,140.420 481.313,140.420 481.345,140.420 481.377,140.420 481.409,140.420 481.441,140.420 481.473,140.420 481.505,140.420 481.537,140.420 481.568,140.420 481.600,140.420 481.632,140.420 481.663,140.420 481.695,140.420 481.726,140.420 481.757,140.420 481.789,140.420 481.820,140.420 481.851,140.420 481.882,140.420 481.914,140.420 481.945,140.420 481.976,140.420 482.007,140.420 482.037,140.420 482.068,140.420 482.099,140.420 482.130,140.420 482.161,140.420 482.191,140.420 482.222,140.420 482.252,140.420 482.283,140.420 482.313,140.420 482.344,140.420 482.374,140.420 482.404,140.420 482.434,140.420 482.465,140.420 482.495,140.420 482.525,140.420 482.555,140.420 482.585,140.420 482.615,140.420 482.645,140.420 482.674,140.420 482.704,140.420 482.734,140.420 482.764,140.420 482.793,140.420 482.823,140.420 482.852,140.420 482.882,140.420 482.911,140.420 482.941,140.420 482.970,140.420 482.999,140.420 483.028,140.420 483.058,140.420 483.087,140.420 483.116,140.420 483.145,140.420 483.174,140.420 483.203,140.420 483.232,140.420 483.261,140.420 483.289,140.420 483.318,140.420 483.347,140.420 483.376,140.420 483.404,140.420 483.433,140.420 483.461,140.420 483.490,140.420 483.518,140.420 483.547,140.420 483.575,140.420 483.603,140.420 483.632,140.420 483.660,140.420 483.688,140.420 483.716,140.420 483.744,140.420 483.772,140.420 483.800,140.420 483.828,140.420 483.856,140.420 483.884,140.420 483.912,140.420 483.940,140.420 483.967,140.420 483.995,140.420 484.023,140.420 484.050,140.420 484.078,140.420 484.105,140.420 484.133,140.420 484.160,140.420 484.188,140.420 484.215,140.420 484.242,140.420 484.270,140.420 484.297,140.420 484.324,140.420 484.351,140.420 484.378,140.420 484.405,140.420 484.432,140.420 484.459,140.420 484.486,140.420 484.513,140.420 484.540,140.420 484.567,140.420 484.594,140.420 484.621,140.420 484.647,140.420 484.674,140.420 484.701,140.420 484.727,140.420 484.754,140.420 484.780,140.420 484.807,140.420 484.833,140.420 484.859,140.420 484.886,140.420 484.912,140.420 484.938,140.420 484.965,140.420 484.991,140.420 485.017,140.420 485.043,140.420 485.069,140.420 485.095,140.420 485.121,140.420 485.147,140.420 485.173,140.420 485.199,140.420 485.225,140.420 485.251,140.420 485.277,140.420 485.302,140.420 485.328,140.420 485.354,140.420 485.379,140.420 485.405,140.420 485.430,140.420 485.456,140.420 485.481,140.420 485.507,140.420 485.532,140.420 485.558,140.420 485.583,140.420 485.608,140.420 485.634,140.420 485.659,140.420 485.684,140.420 485.709,140.420 485.734,140.420 485.760,140.420 485.785,140.420 485.810,140.420 485.835,140.420 485.860,140.420 485.884,140.420 485.909,140.420 485.934,140.420 485.959,140.420 485.984,140.420 486.009,140.420 486.033,140.420 486.058,140.420 486.083,140.420 486.107,140.420 486.132,140.420 486.156,140.420 486.181,140.420 486.205,140.420 486.230,140.420 486.254,140.420 486.279,140.420 486.303,140.420 486.327,140.420 486.352,140.420 486.376,140.420 486.400,140.420 486.424,140.420 486.448,140.420 486.472,140.420 486.497,140.420 486.521,140.420 486.545,140.420 486.569,140.420 486.593,140.420 486.616,140.420 486.640,140.420 486.664,140.420 486.688,140.420 486.712,140.420 486.736,140.420 486.759,140.420 486.783,140.420 486.807,140.420 486.830,140.420 486.854,140.420 486.878,140.420 486.901,140.420 486.925,140.420 486.948,140.420 486.972,140.420 486.995,140.420 487.018,140.420 487.042,140.420 487.065,140.420 487.088,140.420 487.112,140.420 487.135,140.420 487.158,140.420 487.181,140.420 487.204,140.420 487.228,140.420 487.251,140.420 487.274,140.420 487.297,140.420 487.320,140.420 487.343,140.420 487.366,140.420 487.389,140.420 487.411,140.420 487.434,140.420 487.457,140.420 487.480,140.420 487.503,140.420 487.525,140.420 487.548,140.420 487.571,140.420 487.593,140.420 487.616,140.420 487.639,140.420 487.661,140.420 487.684,140.420 487.706,140.420 487.729,140.420 487.751,140.420 487.774,140.420 487.796,140.420 487.818,140.420 487.841,140.420 487.863,140.420 487.885,140.420 487.908,140.420 487.930,140.420 487.952,140.420 487.974,140.420 487.996,140.420 488.019,140.420 488.041,140.420 488.063,140.420 488.085,140.420 488.107,140.420 488.129,140.420 488.151,140.420 488.173,140.420 488.195,140.420 488.216,140.420 488.238,140.420 488.260,140.420 488.282,140.420 488.304,140.420 488.325,140.420 488.347,140.420 488.369,140.420 488.390,140.420 488.412,140.420 488.434,140.420 488.455,140.420 488.477,140.420 488.498,140.420 488.520,140.420 488.541,140.420 488.563,140.420 488.584,140.420 488.606,140.420 488.627,140.420 488.648,140.420 488.670,140.420 488.691,140.420 488.712,140.420 488.734,140.420 488.755,140.420 488.776,140.420 488.797,140.420 488.818,140.420 488.839,140.420 488.861,140.420 488.882,140.420 488.903,140.420 488.924,140.420 488.945,140.420 488.966,140.420 488.987,140.420 489.008,140.420 489.029,140.420 489.049,140.420 489.070,140.420 489.091,140.420 489.112,140.420 489.133,140.420 489.153,140.420 489.174,140.420 489.195,140.420 489.216,140.420 489.236,140.420 489.257,140.420 489.278,140.420 489.298,140.420 489.319,140.420 489.339,140.420 489.360,140.420 489.380,140.420 489.401,140.420 489.421,140.420 489.442,140.420 489.462,140.420 489.482,140.420 489.503,140.420 489.523,140.420 489.543,140.420 489.564,140.420 489.584,140.420 489.604,140.420 489.624,140.420 489.645,140.420 489.665,140.420 489.685,140.420 489.705,140.420 489.725,140.420 489.745,140.420 489.765,140.420 489.785,140.420 489.805,140.420 489.825,140.420 489.845,140.420 489.865,140.420 489.885,140.420 489.905,140.420 489.925,140.420 489.945,140.420 489.965,140.420 489.985,140.420 490.004,140.420 490.024,140.420 490.044,140.420 490.064,140.420 490.083,140.420 490.103,140.420 490.123,140.420 490.142,140.420 490.162,140.420 490.182,140.420 490.201,140.420 490.221,140.420 490.240,140.420 490.260,140.420 490.279,140.420 490.299,140.420 490.318,140.420 490.338,140.420 490.357,140.420 490.376,140.420 490.396,140.420 490.415,140.420 490.435,140.420 490.454,140.420 490.473,140.420 490.492,140.420 490.512,140.420 490.531,140.420 490.550,140.420 490.569,140.420 490.588,140.420 490.608,140.420 490.627,140.420 490.646,140.420 490.665,140.420 490.684,140.420 490.703,140.420 490.722,140.420 490.741,140.420 490.760,140.420 490.779,140.420 490.798,140.420 490.817,140.420 490.836,140.420 490.855,140.420 490.873,140.420 490.892,140.420 490.911,140.420 490.930,140.420 490.949,140.420 490.967,140.420 490.986,140.420 491.005,140.420 491.024,140.420 491.042,140.420 491.061,140.420 491.080,140.420 491.098,140.420 491.117,140.420 491.135,140.420 491.154,140.420 491.172,140.420 491.191,140.420 491.210,140.420 491.228,140.420 491.246,140.420 491.265,140.420 491.283,140.420 491.302,140.420 491.320,140.420 491.339,140.420 491.357,140.420 491.375,140.420 491.394,140.420 491.412,140.420 491.430,140.420 491.448,140.420 491.467,140.420 491.485,140.420 491.503,140.420 491.521,140.420 491.539,140.420 491.558,140.420 491.576,140.420 491.594,140.420 491.612,140.420 491.630,140.420 491.648,140.420 491.666,140.420 491.684,140.420 491.702,140.420 491.720,140.420 491.738,140.420 491.756,140.420 491.774,140.420 "
         id="polyline27"
         style="fill:none;stroke:#000000;stroke-width:0.5pt;stroke-dasharray:none" />
      <g
         id="g29" />
    </g>
    <g
       id="ID000004"
       clip-path="url(#ID000001)">
      <polyline
         points="83.015,242.807 95.427,242.791 102.688,242.765 107.839,242.728 111.835,242.682 115.100,242.625 117.860,242.558 120.251,242.481 122.361,242.395 124.247,242.299 125.954,242.194 127.512,242.079 128.945,241.955 130.272,241.822 131.508,241.680 132.664,241.529 133.749,241.369 134.773,241.201 135.741,241.024 136.659,240.838 137.533,240.644 138.366,240.442 139.162,240.232 139.924,240.014 140.655,239.788 141.358,239.554 142.033,239.313 142.685,239.063 143.313,238.807 143.920,238.543 144.507,238.271 145.076,237.993 145.627,237.707 146.161,237.414 146.680,237.115 147.185,236.808 147.676,236.495 148.153,236.175 148.618,235.849 149.072,235.516 149.514,235.177 149.945,234.832 150.367,234.480 150.778,234.123 151.181,233.759 151.574,233.389 151.959,233.014 152.336,232.633 152.706,232.246 153.067,231.854 153.422,231.457 153.770,231.053 154.111,230.645 154.446,230.231 154.774,229.813 155.097,229.389 155.414,228.960 155.725,228.526 156.031,228.088 156.332,227.645 156.628,227.197 156.919,226.744 157.206,226.287 157.488,225.826 157.766,225.360 158.039,224.890 158.308,224.416 158.574,223.937 158.835,223.455 159.093,222.968 159.347,222.478 159.597,221.984 159.844,221.486 160.088,220.984 160.328,220.478 160.565,219.969 160.799,219.457 161.030,218.941 161.259,218.422 161.484,217.899 161.706,217.373 161.926,216.844 162.143,216.312 162.357,215.777 162.569,215.238 162.779,214.697 162.986,214.153 163.191,213.606 163.393,213.057 163.593,212.505 163.791,211.950 163.987,211.392 164.180,210.832 164.372,210.270 164.561,209.705 164.749,209.138 164.934,208.568 165.118,207.997 165.300,207.423 165.480,206.847 165.658,206.269 165.834,205.689 166.009,205.107 166.182,204.523 166.353,203.937 166.523,203.350 166.691,202.760 166.858,202.169 167.023,201.577 167.186,200.982 167.348,200.386 167.509,199.789 167.668,199.190 167.826,198.590 167.982,197.989 168.137,197.386 168.291,196.782 168.444,196.176 168.595,195.570 168.744,194.962 168.893,194.353 169.040,193.744 169.187,193.133 169.332,192.521 169.475,191.909 169.618,191.295 169.760,190.681 169.900,190.066 170.040,189.450 170.178,188.833 170.315,188.216 170.451,187.598 170.586,186.980 170.720,186.361 170.854,185.742 170.986,185.122 171.117,184.501 171.247,183.881 171.376,183.259 171.505,182.638 171.632,182.016 171.759,181.394 171.885,180.772 172.009,180.150 172.133,179.528 172.256,178.905 172.379,178.282 172.500,177.660 172.621,177.037 172.740,176.414 172.859,175.792 172.977,175.169 173.095,174.547 173.212,173.925 173.327,173.303 173.443,172.681 173.557,172.060 173.671,171.438 173.784,170.817 173.896,170.197 174.008,169.577 174.118,168.957 174.229,168.337 174.338,167.719 174.447,167.100 174.555,166.482 174.663,165.865 174.770,165.248 174.876,164.632 174.982,164.016 175.087,163.401 175.191,162.787 175.295,162.174 175.398,161.561 175.501,160.949 175.603,160.337 175.704,159.727 175.805,159.117 175.905,158.508 176.005,157.900 176.104,157.293 176.203,156.687 176.301,156.082 176.399,155.478 176.496,154.875 176.592,154.272 176.688,153.671 176.784,153.071 176.879,152.472 176.973,151.874 177.067,151.277 177.161,150.681 177.254,150.087 177.346,149.493 177.438,148.901 177.530,148.310 177.621,147.720 177.712,147.132 177.802,146.544 177.892,145.958 177.981,145.374 178.070,144.790 178.158,144.208 178.246,143.628 178.334,143.048 178.421,142.470 178.508,141.894 178.594,141.319 178.680,140.745 178.766,140.173 178.851,139.602 178.935,139.033 179.020,138.466 179.103,137.899 179.187,137.335 179.270,136.772 179.353,136.210 179.435,135.650 179.517,135.092 179.599,134.535 179.680,133.980 179.761,133.426 179.841,132.875 179.921,132.324 180.001,131.776 180.080,131.229 180.159,130.684 180.238,130.141 180.317,129.599 180.395,129.059 180.472,128.521 180.550,127.984 180.627,127.450 180.703,126.917 180.780,126.385 180.856,125.856 180.931,125.329 181.007,124.803 181.082,124.279 181.157,123.757 181.231,123.237 181.305,122.719 181.379,122.202 181.453,121.688 181.526,121.175 181.599,120.664 181.671,120.156 181.744,119.649 181.816,119.144 181.888,118.641 181.959,118.139 182.030,117.640 182.101,117.143 182.172,116.648 182.242,116.155 182.312,115.663 182.382,115.174 182.452,114.687 182.521,114.201 182.590,113.718 182.659,113.237 182.727,112.758 182.795,112.280 182.863,111.805 182.931,111.332 182.999,110.861 183.066,110.392 183.133,109.925 183.199,109.460 183.266,108.997 183.332,108.537 183.398,108.078 183.464,107.621 183.529,107.167 183.594,106.715 183.659,106.264 183.724,105.816 183.789,105.370 183.853,104.926 183.917,104.484 183.981,104.045 184.044,103.607 184.108,103.172 184.171,102.738 184.234,102.307 184.297,101.878 184.359,101.451 184.421,101.027 184.484,100.604 184.545,100.184 184.607,99.765 184.668,99.349 184.730,98.935 184.791,98.524 184.852,98.114 184.912,97.707 184.973,97.301 185.033,96.898 185.093,96.497 185.152,96.099 185.212,95.702 185.271,95.308 185.331,94.916 185.390,94.526 185.448,94.138 185.507,93.752 185.566,93.369 185.624,92.988 185.682,92.609 185.740,92.232 185.797,91.857 185.855,91.485 185.912,91.115 185.969,90.747 186.026,90.381 186.083,90.017 186.140,89.656 186.196,89.297 186.252,88.940 186.308,88.585 186.364,88.232 186.420,87.882 186.475,87.533 186.531,87.187 186.586,86.844 186.641,86.502 186.696,86.163 186.750,85.825 186.805,85.490 186.859,85.158 186.913,84.827 186.967,84.499 187.021,84.172 187.075,83.848 187.129,83.526 187.182,83.207 187.235,82.889 187.288,82.574 187.341,82.261 187.394,81.950 187.446,81.641 187.499,81.335 187.551,81.031 187.603,80.728 187.655,80.428 187.707,80.131 187.759,79.835 187.810,79.542 187.862,79.250 187.913,78.961 187.964,78.674 188.015,78.390 188.066,78.107 188.116,77.826 188.167,77.548 188.217,77.272 188.267,76.998 188.318,76.726 188.368,76.457 188.417,76.189 188.467,75.924 188.517,75.661 188.566,75.399 188.615,75.141 188.664,74.884 188.713,74.629 188.762,74.377 188.811,74.126 188.860,73.878 188.908,73.632 188.956,73.388 189.005,73.146 189.053,72.906 189.101,72.668 189.148,72.432 189.196,72.199 189.244,71.967 189.291,71.738 189.338,71.511 189.386,71.286 189.433,71.063 189.480,70.842 189.526,70.623 189.573,70.406 189.620,70.191 189.666,69.978 189.712,69.768 189.759,69.559 189.805,69.352 189.851,69.148 189.897,68.946 189.942,68.745 189.988,68.547 190.033,68.350 190.079,68.156 190.124,67.964 190.169,67.773 190.214,67.585 190.259,67.399 190.304,67.215 190.349,67.033 190.393,66.852 190.438,66.674 190.482,66.498 190.526,66.324 190.571,66.151 190.615,65.981 190.659,65.813 190.702,65.646 190.746,65.482 190.790,65.319 190.833,65.159 190.877,65.000 190.920,64.844 190.963,64.689 191.006,64.537 191.049,64.386 191.092,64.237 191.135,64.090 191.178,63.945 191.220,63.802 191.263,63.661 191.305,63.521 191.347,63.384 191.390,63.248 191.432,63.115 191.474,62.983 191.516,62.853 191.557,62.725 191.599,62.599 191.641,62.475 191.682,62.353 191.724,62.232 191.765,62.113 191.806,61.996 191.847,61.881 191.888,61.768 191.929,61.657 191.970,61.547 192.011,61.440 192.051,61.334 192.092,61.230 192.132,61.127 192.173,61.027 192.213,60.928 192.253,60.831 192.293,60.736 192.333,60.643 192.373,60.551 192.413,60.461 192.453,60.373 192.493,60.287 192.532,60.202 192.572,60.119 192.611,60.038 192.650,59.959 192.690,59.881 192.729,59.805 192.768,59.731 192.807,59.658 192.846,59.588 192.884,59.518 192.923,59.451 192.962,59.385 193.000,59.321 193.039,59.259 193.077,59.198 193.115,59.139 193.154,59.082 193.192,59.026 193.230,58.972 193.268,58.919 193.306,58.869 193.344,58.819 193.381,58.772 193.419,58.726 193.457,58.682 193.494,58.639 193.532,58.598 193.569,58.558 193.606,58.520 193.643,58.484 193.680,58.449 193.717,58.416 193.754,58.384 193.791,58.354 193.828,58.326 193.865,58.299 193.902,58.273 193.938,58.250 193.975,58.227 194.011,58.207 194.047,58.187 194.084,58.169 194.120,58.153 194.156,58.139 194.192,58.125 194.228,58.114 194.264,58.103 194.300,58.095 194.336,58.087 194.371,58.081 194.407,58.077 194.443,58.074 194.478,58.073 194.513,58.073 194.549,58.074 194.584,58.077 194.619,58.081 194.654,58.087 194.690,58.094 194.725,58.103 194.759,58.113 194.794,58.124 194.829,58.137 194.864,58.151 194.899,58.167 194.933,58.184 194.968,58.202 195.002,58.222 195.037,58.243 195.071,58.265 195.105,58.289 195.139,58.314 195.174,58.341 195.208,58.368 195.242,58.397 195.276,58.428 195.309,58.460 195.343,58.493 195.377,58.527 195.411,58.563 195.444,58.600 195.478,58.638 195.511,58.677 195.545,58.718 195.578,58.760 195.612,58.804 195.645,58.848 195.678,58.894 195.711,58.941 195.744,58.990 195.777,59.039 195.810,59.090 195.843,59.142 195.876,59.196 195.909,59.250 195.941,59.306 195.974,59.363 196.007,59.421 196.039,59.480 196.072,59.541 196.104,59.602 196.136,59.665 196.169,59.729 196.201,59.794 196.233,59.861 196.265,59.928 196.297,59.997 196.329,60.067 196.361,60.138 196.393,60.210 196.425,60.283 196.457,60.357 196.488,60.433 196.520,60.509 196.552,60.587 196.583,60.666 196.615,60.746 196.646,60.826 196.678,60.908 196.709,60.992 196.740,61.076 196.771,61.161 196.803,61.247 196.834,61.335 196.865,61.423 196.896,61.513 196.927,61.603 196.958,61.695 196.988,61.787 197.019,61.881 197.050,61.975 197.081,62.071 197.111,62.168 197.142,62.265 197.172,62.364 197.203,62.464 197.233,62.564 197.264,62.666 197.294,62.768 197.324,62.872 197.355,62.976 197.385,63.082 197.415,63.188 197.445,63.296 197.475,63.404 197.505,63.513 197.535,63.623 197.565,63.735 197.595,63.847 197.624,63.960 197.654,64.074 197.684,64.188 197.713,64.304 197.743,64.421 197.772,64.538 197.802,64.657 197.831,64.776 197.861,64.896 197.890,65.017 197.919,65.139 197.949,65.262 197.978,65.385 198.007,65.510 198.036,65.635 198.065,65.761 198.094,65.888 198.123,66.016 198.152,66.145 198.181,66.274 198.210,66.405 198.238,66.536 198.267,66.668 198.296,66.801 198.324,66.934 198.353,67.068 198.381,67.204 198.410,67.340 198.438,67.476 198.467,67.614 198.495,67.752 198.523,67.891 198.552,68.031 198.580,68.171 198.608,68.313 198.636,68.455 198.664,68.598 198.692,68.741 198.720,68.885 198.748,69.030 198.776,69.176 198.804,69.322 198.832,69.470 198.860,69.617 198.887,69.766 198.915,69.915 198.943,70.065 198.970,70.216 198.998,70.367 199.026,70.519 199.053,70.672 199.080,70.825 199.108,70.979 199.135,71.134 199.163,71.289 199.190,71.445 199.217,71.602 199.244,71.759 199.271,71.917 199.299,72.076 199.326,72.235 199.353,72.395 199.380,72.556 199.407,72.717 199.433,72.878 199.460,73.041 199.487,73.204 199.514,73.367 199.541,73.531 199.567,73.696 199.594,73.862 199.621,74.027 199.647,74.194 199.674,74.361 199.700,74.529 199.727,74.697 199.753,74.866 199.780,75.035 199.806,75.205 199.832,75.375 199.859,75.546 199.885,75.718 199.911,75.890 199.937,76.063 199.963,76.236 199.989,76.410 200.015,76.584 200.041,76.758 200.067,76.934 200.093,77.109 200.119,77.286 200.145,77.462 200.171,77.640 200.197,77.817 200.222,77.996 200.248,78.174 200.274,78.354 200.299,78.533 200.325,78.714 200.351,78.894 200.376,79.075 200.402,79.257 200.427,79.439 200.453,79.621 200.478,79.804 200.503,79.988 200.529,80.172 200.554,80.356 200.579,80.541 200.604,80.726 200.629,80.911 200.655,81.097 200.680,81.284 200.705,81.471 200.730,81.658 200.755,81.845 200.780,82.034 200.805,82.222 200.830,82.411 200.854,82.600 200.879,82.790 200.904,82.980 200.929,83.170 200.953,83.361 200.978,83.552 201.003,83.744 201.027,83.936 201.052,84.128 201.077,84.321 201.101,84.514 201.126,84.707 201.150,84.901 201.174,85.095 201.199,85.289 201.223,85.484 201.247,85.679 201.272,85.875 201.296,86.071 201.320,86.267 201.344,86.463 201.368,86.660 201.393,86.857 201.417,87.054 201.441,87.252 201.465,87.450 201.489,87.648 201.513,87.847 201.537,88.046 201.561,88.245 201.584,88.445 201.608,88.645 201.632,88.845 201.656,89.045 201.680,89.246 201.703,89.447 201.727,89.648 201.751,89.849 201.774,90.051 201.798,90.253 201.821,90.455 201.845,90.658 201.868,90.861 201.892,91.064 201.915,91.267 201.939,91.470 201.962,91.674 201.985,91.878 202.009,92.082 202.032,92.287 202.055,92.492 202.078,92.697 202.101,92.902 202.125,93.107 202.148,93.313 202.171,93.518 202.194,93.724 202.217,93.931 202.240,94.137 202.263,94.344 202.286,94.551 202.309,94.758 202.332,94.965 202.354,95.172 202.377,95.380 202.400,95.588 202.423,95.796 202.446,96.004 202.468,96.212 202.491,96.421 202.514,96.629 202.536,96.838 202.559,97.047 202.581,97.256 202.604,97.466 202.626,97.675 202.649,97.885 202.671,98.095 202.694,98.305 202.716,98.515 202.739,98.725 202.761,98.935 202.783,99.146 202.806,99.356 202.828,99.567 202.850,99.778 202.872,99.989 202.894,100.200 202.917,100.412 202.939,100.623 202.961,100.835 202.983,101.046 203.005,101.258 203.027,101.470 203.049,101.682 203.071,101.894 203.093,102.106 203.115,102.319 203.137,102.531 203.158,102.744 203.180,102.956 203.202,103.169 203.224,103.382 203.246,103.595 203.267,103.807 203.289,104.021 203.311,104.234 203.332,104.447 203.354,104.660 203.375,104.873 203.397,105.087 203.419,105.300 203.440,105.514 203.462,105.727 203.483,105.941 203.504,106.155 203.526,106.369 203.547,106.582 203.569,106.796 203.590,107.010 203.611,107.224 203.632,107.438 203.654,107.652 203.675,107.867 203.696,108.081 203.717,108.295 203.739,108.509 203.760,108.723 203.781,108.938 203.802,109.152 203.823,109.366 203.844,109.581 203.865,109.795 203.886,110.010 203.907,110.224 203.928,110.438 203.949,110.653 203.970,110.867 203.990,111.082 204.011,111.296 204.032,111.511 204.053,111.725 204.074,111.940 204.094,112.154 204.115,112.369 204.136,112.583 204.156,112.798 204.177,113.012 204.198,113.227 204.218,113.441 204.239,113.656 204.259,113.870 204.280,114.085 204.300,114.299 204.321,114.513 204.341,114.728 204.362,114.942 204.382,115.156 204.403,115.371 204.423,115.585 204.443,115.799 204.464,116.013 204.484,116.227 204.504,116.441 204.524,116.656 204.545,116.870 204.565,117.084 204.585,117.297 204.605,117.511 204.625,117.725 204.645,117.939 204.665,118.153 204.686,118.366 204.706,118.580 204.726,118.794 204.746,119.007 204.766,119.221 204.786,119.434 204.805,119.647 204.825,119.861 204.845,120.074 204.865,120.287 204.885,120.500 204.905,120.713 204.925,120.926 204.944,121.139 204.964,121.352 204.984,121.564 205.004,121.777 205.023,121.989 205.043,122.202 205.063,122.414 205.082,122.626 205.102,122.839 205.121,123.051 205.141,123.263 205.160,123.475 205.180,123.687 205.199,123.898 205.219,124.110 205.238,124.322 205.258,124.533 205.277,124.744 205.297,124.956 205.316,125.167 205.335,125.378 205.355,125.589 205.374,125.800 205.393,126.010 205.413,126.221 205.432,126.431 205.451,126.642 205.470,126.852 205.489,127.062 205.509,127.272 205.528,127.482 205.547,127.692 205.566,127.902 205.585,128.111 205.604,128.321 205.623,128.530 205.642,128.739 205.661,128.948 205.680,129.157 205.699,129.366 205.718,129.575 205.737,129.783 205.756,129.992 205.775,130.200 205.794,130.408 205.812,130.616 205.831,130.824 205.850,131.032 205.869,131.240 205.888,131.447 205.906,131.654 205.925,131.861 205.944,132.069 205.962,132.275 205.981,132.482 206.000,132.689 206.018,132.895 206.037,133.102 206.056,133.308 206.074,133.514 206.093,133.719 206.111,133.925 206.130,134.131 206.148,134.336 206.167,134.541 206.185,134.746 206.204,134.951 206.222,135.156 206.240,135.361 206.259,135.565 206.277,135.769 206.295,135.973 206.314,136.177 206.332,136.381 206.350,136.585 206.369,136.788 206.387,136.991 206.405,137.194 206.423,137.397 206.441,137.600 206.460,137.803 206.478,138.005 206.496,138.207 206.514,138.409 206.532,138.611 206.550,138.813 206.568,139.014 206.586,139.216 206.604,139.417 206.622,139.618 206.640,139.818 206.658,140.019 206.676,140.219 206.694,140.420 "
         id="polyline32"
         style="fill:none;stroke:#000000;stroke-width:0.5pt;stroke-dasharray:none" />
      <g
         id="g34" />
    </g>
    <g
       id="ID000005"
       clip-path="url(#ID000001)">
      <polyline
         points="512.562,242.813 512.562,43.455 "
         id="polyline37"
         style="fill:none;stroke:#000000;stroke-width:0.5pt;stroke-dasharray:8, 2" />
      <g
         id="g39" />
    </g>
    <g
       id="ID000006"
       clip-path="url(#ID000001)">
      <polyline
         points="442.215,242.813 442.215,43.455 "
         id="polyline42"
         style="fill:none;stroke:#000000;stroke-width:0.5pt;stroke-dasharray:8, 2" />
      <g
         id="g44" />
    </g>
    <g
       id="ID000007"
       clip-path="url(#ID000001)">
      <polyline
         points="191.250,242.813 191.250,43.455 "
         id="polyline47"
         style="fill:none;stroke:#000000;stroke-width:0.5pt;stroke-dasharray:8, 2" />
      <g
         id="g49" />
    </g>
    <g
       id="ID000008">
      <g
         transform="translate(329.453,277.434)"
         id="g52">
        <g
           id="g54">
          <text
             x="0"
             y="0"
             font-size="11pt"
             id="text56"
             style="font-size:13.75px;text-anchor:middle;fill:#000000;font-family:Times New Roman">Neutron Energy ($E$) [$eV$]</text>
        </g>
      </g>
    </g>
    <g
       id="ID000009">
      <g
         transform="translate(41.221,133.466)"
         id="g59">
        <g
           transform="matrix(0,-1,1,0,0,0)"
           id="g61">
          <text
             x="0"
             y="0"
             font-size="11pt"
             id="text63"
             style="font-size:13.75px;text-anchor:middle;fill:#000000;font-family:Times New Roman">Energy Times Flux ($E\cdot\varphi\left(E\right)$) [$\frac{eV\cdot n}{cm^{2}\cdot s}$]</text>
        </g>
      </g>
    </g>
    <g
       id="ID000010" />
  </g>
  <g
     id="g66">
    <polyline
       points="165.462,242.813 165.462,237.865 "
       id="polyline68"
       style="fill:none;stroke:#000000;stroke-width:0.5pt;stroke-dasharray:none" />
    <polyline
       points="247.927,242.813 247.927,237.865 "
       id="polyline70"
       style="fill:none;stroke:#000000;stroke-width:0.5pt;stroke-dasharray:none" />
    <polyline
       points="330.391,242.813 330.391,237.865 "
       id="polyline72"
       style="fill:none;stroke:#000000;stroke-width:0.5pt;stroke-dasharray:none" />
    <polyline
       points="412.856,242.813 412.856,237.865 "
       id="polyline74"
       style="fill:none;stroke:#000000;stroke-width:0.5pt;stroke-dasharray:none" />
    <polyline
       points="495.321,242.813 495.321,237.865 "
       id="polyline76"
       style="fill:none;stroke:#000000;stroke-width:0.5pt;stroke-dasharray:none" />
    <polyline
       points="82.997,242.813 577.786,242.813 "
       id="polyline78"
       style="fill:none;stroke:#000000;stroke-width:0.5pt;stroke-dasharray:none" />
    <polyline
       points="165.462,21.305 165.462,26.253 "
       id="polyline80"
       style="fill:none;stroke:#000000;stroke-width:0.5pt;stroke-dasharray:none" />
    <polyline
       points="247.927,21.305 247.927,26.253 "
       id="polyline82"
       style="fill:none;stroke:#000000;stroke-width:0.5pt;stroke-dasharray:none" />
    <polyline
       points="330.391,21.305 330.391,26.253 "
       id="polyline84"
       style="fill:none;stroke:#000000;stroke-width:0.5pt;stroke-dasharray:none" />
    <polyline
       points="412.856,21.305 412.856,26.253 "
       id="polyline86"
       style="fill:none;stroke:#000000;stroke-width:0.5pt;stroke-dasharray:none" />
    <polyline
       points="495.321,21.305 495.321,26.253 "
       id="polyline88"
       style="fill:none;stroke:#000000;stroke-width:0.5pt;stroke-dasharray:none" />
    <polyline
       points="82.997,21.305 577.786,21.305 "
       id="polyline90"
       style="fill:none;stroke:#000000;stroke-width:0.5pt;stroke-dasharray:none" />
    <polyline
       points="95.409,242.813 95.409,240.339 "
       id="polyline92"
       style="fill:none;stroke:#000000;stroke-width:0.5pt;stroke-dasharray:none" />
    <polyline
       points="102.670,242.813 102.670,240.339 "
       id="polyline94"
       style="fill:none;stroke:#000000;stroke-width:0.5pt;stroke-dasharray:none" />
    <polyline
       points="107.821,242.813 107.821,240.339 "
       id="polyline96"
       style="fill:none;stroke:#000000;stroke-width:0.5pt;stroke-dasharray:none" />
    <polyline
       points="111.817,242.813 111.817,240.339 "
       id="polyline98"
       style="fill:none;stroke:#000000;stroke-width:0.5pt;stroke-dasharray:none" />
    <polyline
       points="115.082,242.813 115.082,240.339 "
       id="polyline100"
       style="fill:none;stroke:#000000;stroke-width:0.5pt;stroke-dasharray:none" />
    <polyline
       points="117.842,242.813 117.842,240.339 "
       id="polyline102"
       style="fill:none;stroke:#000000;stroke-width:0.5pt;stroke-dasharray:none" />
    <polyline
       points="120.233,242.813 120.233,240.339 "
       id="polyline104"
       style="fill:none;stroke:#000000;stroke-width:0.5pt;stroke-dasharray:none" />
    <polyline
       points="122.343,242.813 122.343,240.339 "
       id="polyline106"
       style="fill:none;stroke:#000000;stroke-width:0.5pt;stroke-dasharray:none" />
    <polyline
       points="136.641,242.813 136.641,240.339 "
       id="polyline108"
       style="fill:none;stroke:#000000;stroke-width:0.5pt;stroke-dasharray:none" />
    <polyline
       points="143.902,242.813 143.902,240.339 "
       id="polyline110"
       style="fill:none;stroke:#000000;stroke-width:0.5pt;stroke-dasharray:none" />
    <polyline
       points="149.054,242.813 149.054,240.339 "
       id="polyline112"
       style="fill:none;stroke:#000000;stroke-width:0.5pt;stroke-dasharray:none" />
    <polyline
       points="153.050,242.813 153.050,240.339 "
       id="polyline114"
       style="fill:none;stroke:#000000;stroke-width:0.5pt;stroke-dasharray:none" />
    <polyline
       points="156.314,242.813 156.314,240.339 "
       id="polyline116"
       style="fill:none;stroke:#000000;stroke-width:0.5pt;stroke-dasharray:none" />
    <polyline
       points="159.075,242.813 159.075,240.339 "
       id="polyline118"
       style="fill:none;stroke:#000000;stroke-width:0.5pt;stroke-dasharray:none" />
    <polyline
       points="161.466,242.813 161.466,240.339 "
       id="polyline120"
       style="fill:none;stroke:#000000;stroke-width:0.5pt;stroke-dasharray:none" />
    <polyline
       points="163.575,242.813 163.575,240.339 "
       id="polyline122"
       style="fill:none;stroke:#000000;stroke-width:0.5pt;stroke-dasharray:none" />
    <polyline
       points="177.874,242.813 177.874,240.339 "
       id="polyline124"
       style="fill:none;stroke:#000000;stroke-width:0.5pt;stroke-dasharray:none" />
    <polyline
       points="185.135,242.813 185.135,240.339 "
       id="polyline126"
       style="fill:none;stroke:#000000;stroke-width:0.5pt;stroke-dasharray:none" />
    <polyline
       points="190.286,242.813 190.286,240.339 "
       id="polyline128"
       style="fill:none;stroke:#000000;stroke-width:0.5pt;stroke-dasharray:none" />
    <polyline
       points="194.282,242.813 194.282,240.339 "
       id="polyline130"
       style="fill:none;stroke:#000000;stroke-width:0.5pt;stroke-dasharray:none" />
    <polyline
       points="197.547,242.813 197.547,240.339 "
       id="polyline132"
       style="fill:none;stroke:#000000;stroke-width:0.5pt;stroke-dasharray:none" />
    <polyline
       points="200.307,242.813 200.307,240.339 "
       id="polyline134"
       style="fill:none;stroke:#000000;stroke-width:0.5pt;stroke-dasharray:none" />
    <polyline
       points="202.698,242.813 202.698,240.339 "
       id="polyline136"
       style="fill:none;stroke:#000000;stroke-width:0.5pt;stroke-dasharray:none" />
    <polyline
       points="204.807,242.813 204.807,240.339 "
       id="polyline138"
       style="fill:none;stroke:#000000;stroke-width:0.5pt;stroke-dasharray:none" />
    <polyline
       points="219.106,242.813 219.106,240.339 "
       id="polyline140"
       style="fill:none;stroke:#000000;stroke-width:0.5pt;stroke-dasharray:none" />
    <polyline
       points="226.367,242.813 226.367,240.339 "
       id="polyline142"
       style="fill:none;stroke:#000000;stroke-width:0.5pt;stroke-dasharray:none" />
    <polyline
       points="231.519,242.813 231.519,240.339 "
       id="polyline144"
       style="fill:none;stroke:#000000;stroke-width:0.5pt;stroke-dasharray:none" />
    <polyline
       points="235.514,242.813 235.514,240.339 "
       id="polyline146"
       style="fill:none;stroke:#000000;stroke-width:0.5pt;stroke-dasharray:none" />
    <polyline
       points="238.779,242.813 238.779,240.339 "
       id="polyline148"
       style="fill:none;stroke:#000000;stroke-width:0.5pt;stroke-dasharray:none" />
    <polyline
       points="241.540,242.813 241.540,240.339 "
       id="polyline150"
       style="fill:none;stroke:#000000;stroke-width:0.5pt;stroke-dasharray:none" />
    <polyline
       points="243.931,242.813 243.931,240.339 "
       id="polyline152"
       style="fill:none;stroke:#000000;stroke-width:0.5pt;stroke-dasharray:none" />
    <polyline
       points="246.040,242.813 246.040,240.339 "
       id="polyline154"
       style="fill:none;stroke:#000000;stroke-width:0.5pt;stroke-dasharray:none" />
    <polyline
       points="260.339,242.813 260.339,240.339 "
       id="polyline156"
       style="fill:none;stroke:#000000;stroke-width:0.5pt;stroke-dasharray:none" />
    <polyline
       points="267.599,242.813 267.599,240.339 "
       id="polyline158"
       style="fill:none;stroke:#000000;stroke-width:0.5pt;stroke-dasharray:none" />
    <polyline
       points="272.751,242.813 272.751,240.339 "
       id="polyline160"
       style="fill:none;stroke:#000000;stroke-width:0.5pt;stroke-dasharray:none" />
    <polyline
       points="276.747,242.813 276.747,240.339 "
       id="polyline162"
       style="fill:none;stroke:#000000;stroke-width:0.5pt;stroke-dasharray:none" />
    <polyline
       points="280.012,242.813 280.012,240.339 "
       id="polyline164"
       style="fill:none;stroke:#000000;stroke-width:0.5pt;stroke-dasharray:none" />
    <polyline
       points="282.772,242.813 282.772,240.339 "
       id="polyline166"
       style="fill:none;stroke:#000000;stroke-width:0.5pt;stroke-dasharray:none" />
    <polyline
       points="285.163,242.813 285.163,240.339 "
       id="polyline168"
       style="fill:none;stroke:#000000;stroke-width:0.5pt;stroke-dasharray:none" />
    <polyline
       points="287.272,242.813 287.272,240.339 "
       id="polyline170"
       style="fill:none;stroke:#000000;stroke-width:0.5pt;stroke-dasharray:none" />
    <polyline
       points="301.571,242.813 301.571,240.339 "
       id="polyline172"
       style="fill:none;stroke:#000000;stroke-width:0.5pt;stroke-dasharray:none" />
    <polyline
       points="308.832,242.813 308.832,240.339 "
       id="polyline174"
       style="fill:none;stroke:#000000;stroke-width:0.5pt;stroke-dasharray:none" />
    <polyline
       points="313.983,242.813 313.983,240.339 "
       id="polyline176"
       style="fill:none;stroke:#000000;stroke-width:0.5pt;stroke-dasharray:none" />
    <polyline
       points="317.979,242.813 317.979,240.339 "
       id="polyline178"
       style="fill:none;stroke:#000000;stroke-width:0.5pt;stroke-dasharray:none" />
    <polyline
       points="321.244,242.813 321.244,240.339 "
       id="polyline180"
       style="fill:none;stroke:#000000;stroke-width:0.5pt;stroke-dasharray:none" />
    <polyline
       points="324.004,242.813 324.004,240.339 "
       id="polyline182"
       style="fill:none;stroke:#000000;stroke-width:0.5pt;stroke-dasharray:none" />
    <polyline
       points="326.396,242.813 326.396,240.339 "
       id="polyline184"
       style="fill:none;stroke:#000000;stroke-width:0.5pt;stroke-dasharray:none" />
    <polyline
       points="328.505,242.813 328.505,240.339 "
       id="polyline186"
       style="fill:none;stroke:#000000;stroke-width:0.5pt;stroke-dasharray:none" />
    <polyline
       points="342.804,242.813 342.804,240.339 "
       id="polyline188"
       style="fill:none;stroke:#000000;stroke-width:0.5pt;stroke-dasharray:none" />
    <polyline
       points="350.064,242.813 350.064,240.339 "
       id="polyline190"
       style="fill:none;stroke:#000000;stroke-width:0.5pt;stroke-dasharray:none" />
    <polyline
       points="355.216,242.813 355.216,240.339 "
       id="polyline192"
       style="fill:none;stroke:#000000;stroke-width:0.5pt;stroke-dasharray:none" />
    <polyline
       points="359.212,242.813 359.212,240.339 "
       id="polyline194"
       style="fill:none;stroke:#000000;stroke-width:0.5pt;stroke-dasharray:none" />
    <polyline
       points="362.476,242.813 362.476,240.339 "
       id="polyline196"
       style="fill:none;stroke:#000000;stroke-width:0.5pt;stroke-dasharray:none" />
    <polyline
       points="365.237,242.813 365.237,240.339 "
       id="polyline198"
       style="fill:none;stroke:#000000;stroke-width:0.5pt;stroke-dasharray:none" />
    <polyline
       points="367.628,242.813 367.628,240.339 "
       id="polyline200"
       style="fill:none;stroke:#000000;stroke-width:0.5pt;stroke-dasharray:none" />
    <polyline
       points="369.737,242.813 369.737,240.339 "
       id="polyline202"
       style="fill:none;stroke:#000000;stroke-width:0.5pt;stroke-dasharray:none" />
    <polyline
       points="384.036,242.813 384.036,240.339 "
       id="polyline204"
       style="fill:none;stroke:#000000;stroke-width:0.5pt;stroke-dasharray:none" />
    <polyline
       points="391.297,242.813 391.297,240.339 "
       id="polyline206"
       style="fill:none;stroke:#000000;stroke-width:0.5pt;stroke-dasharray:none" />
    <polyline
       points="396.448,242.813 396.448,240.339 "
       id="polyline208"
       style="fill:none;stroke:#000000;stroke-width:0.5pt;stroke-dasharray:none" />
    <polyline
       points="400.444,242.813 400.444,240.339 "
       id="polyline210"
       style="fill:none;stroke:#000000;stroke-width:0.5pt;stroke-dasharray:none" />
    <polyline
       points="403.709,242.813 403.709,240.339 "
       id="polyline212"
       style="fill:none;stroke:#000000;stroke-width:0.5pt;stroke-dasharray:none" />
    <polyline
       points="406.469,242.813 406.469,240.339 "
       id="polyline214"
       style="fill:none;stroke:#000000;stroke-width:0.5pt;stroke-dasharray:none" />
    <polyline
       points="408.860,242.813 408.860,240.339 "
       id="polyline216"
       style="fill:none;stroke:#000000;stroke-width:0.5pt;stroke-dasharray:none" />
    <polyline
       points="410.970,242.813 410.970,240.339 "
       id="polyline218"
       style="fill:none;stroke:#000000;stroke-width:0.5pt;stroke-dasharray:none" />
    <polyline
       points="425.268,242.813 425.268,240.339 "
       id="polyline220"
       style="fill:none;stroke:#000000;stroke-width:0.5pt;stroke-dasharray:none" />
    <polyline
       points="432.529,242.813 432.529,240.339 "
       id="polyline222"
       style="fill:none;stroke:#000000;stroke-width:0.5pt;stroke-dasharray:none" />
    <polyline
       points="437.681,242.813 437.681,240.339 "
       id="polyline224"
       style="fill:none;stroke:#000000;stroke-width:0.5pt;stroke-dasharray:none" />
    <polyline
       points="441.676,242.813 441.676,240.339 "
       id="polyline226"
       style="fill:none;stroke:#000000;stroke-width:0.5pt;stroke-dasharray:none" />
    <polyline
       points="444.941,242.813 444.941,240.339 "
       id="polyline228"
       style="fill:none;stroke:#000000;stroke-width:0.5pt;stroke-dasharray:none" />
    <polyline
       points="447.702,242.813 447.702,240.339 "
       id="polyline230"
       style="fill:none;stroke:#000000;stroke-width:0.5pt;stroke-dasharray:none" />
    <polyline
       points="450.093,242.813 450.093,240.339 "
       id="polyline232"
       style="fill:none;stroke:#000000;stroke-width:0.5pt;stroke-dasharray:none" />
    <polyline
       points="452.202,242.813 452.202,240.339 "
       id="polyline234"
       style="fill:none;stroke:#000000;stroke-width:0.5pt;stroke-dasharray:none" />
    <polyline
       points="466.501,242.813 466.501,240.339 "
       id="polyline236"
       style="fill:none;stroke:#000000;stroke-width:0.5pt;stroke-dasharray:none" />
    <polyline
       points="473.762,242.813 473.762,240.339 "
       id="polyline238"
       style="fill:none;stroke:#000000;stroke-width:0.5pt;stroke-dasharray:none" />
    <polyline
       points="478.913,242.813 478.913,240.339 "
       id="polyline240"
       style="fill:none;stroke:#000000;stroke-width:0.5pt;stroke-dasharray:none" />
    <polyline
       points="482.909,242.813 482.909,240.339 "
       id="polyline242"
       style="fill:none;stroke:#000000;stroke-width:0.5pt;stroke-dasharray:none" />
    <polyline
       points="486.174,242.813 486.174,240.339 "
       id="polyline244"
       style="fill:none;stroke:#000000;stroke-width:0.5pt;stroke-dasharray:none" />
    <polyline
       points="488.934,242.813 488.934,240.339 "
       id="polyline246"
       style="fill:none;stroke:#000000;stroke-width:0.5pt;stroke-dasharray:none" />
    <polyline
       points="491.325,242.813 491.325,240.339 "
       id="polyline248"
       style="fill:none;stroke:#000000;stroke-width:0.5pt;stroke-dasharray:none" />
    <polyline
       points="493.434,242.813 493.434,240.339 "
       id="polyline250"
       style="fill:none;stroke:#000000;stroke-width:0.5pt;stroke-dasharray:none" />
    <polyline
       points="507.733,242.813 507.733,240.339 "
       id="polyline252"
       style="fill:none;stroke:#000000;stroke-width:0.5pt;stroke-dasharray:none" />
    <polyline
       points="514.994,242.813 514.994,240.339 "
       id="polyline254"
       style="fill:none;stroke:#000000;stroke-width:0.5pt;stroke-dasharray:none" />
    <polyline
       points="520.145,242.813 520.145,240.339 "
       id="polyline256"
       style="fill:none;stroke:#000000;stroke-width:0.5pt;stroke-dasharray:none" />
    <polyline
       points="524.141,242.813 524.141,240.339 "
       id="polyline258"
       style="fill:none;stroke:#000000;stroke-width:0.5pt;stroke-dasharray:none" />
    <polyline
       points="527.406,242.813 527.406,240.339 "
       id="polyline260"
       style="fill:none;stroke:#000000;stroke-width:0.5pt;stroke-dasharray:none" />
    <polyline
       points="530.167,242.813 530.167,240.339 "
       id="polyline262"
       style="fill:none;stroke:#000000;stroke-width:0.5pt;stroke-dasharray:none" />
    <polyline
       points="532.558,242.813 532.558,240.339 "
       id="polyline264"
       style="fill:none;stroke:#000000;stroke-width:0.5pt;stroke-dasharray:none" />
    <polyline
       points="534.667,242.813 534.667,240.339 "
       id="polyline266"
       style="fill:none;stroke:#000000;stroke-width:0.5pt;stroke-dasharray:none" />
    <polyline
       points="548.966,242.813 548.966,240.339 "
       id="polyline268"
       style="fill:none;stroke:#000000;stroke-width:0.5pt;stroke-dasharray:none" />
    <polyline
       points="556.226,242.813 556.226,240.339 "
       id="polyline270"
       style="fill:none;stroke:#000000;stroke-width:0.5pt;stroke-dasharray:none" />
    <polyline
       points="561.378,242.813 561.378,240.339 "
       id="polyline272"
       style="fill:none;stroke:#000000;stroke-width:0.5pt;stroke-dasharray:none" />
    <polyline
       points="565.374,242.813 565.374,240.339 "
       id="polyline274"
       style="fill:none;stroke:#000000;stroke-width:0.5pt;stroke-dasharray:none" />
    <polyline
       points="568.639,242.813 568.639,240.339 "
       id="polyline276"
       style="fill:none;stroke:#000000;stroke-width:0.5pt;stroke-dasharray:none" />
    <polyline
       points="571.399,242.813 571.399,240.339 "
       id="polyline278"
       style="fill:none;stroke:#000000;stroke-width:0.5pt;stroke-dasharray:none" />
    <polyline
       points="573.790,242.813 573.790,240.339 "
       id="polyline280"
       style="fill:none;stroke:#000000;stroke-width:0.5pt;stroke-dasharray:none" />
    <polyline
       points="575.899,242.813 575.899,240.339 "
       id="polyline282"
       style="fill:none;stroke:#000000;stroke-width:0.5pt;stroke-dasharray:none" />
    <polyline
       points="95.409,21.305 95.409,23.779 "
       id="polyline284"
       style="fill:none;stroke:#000000;stroke-width:0.5pt;stroke-dasharray:none" />
    <polyline
       points="102.670,21.305 102.670,23.779 "
       id="polyline286"
       style="fill:none;stroke:#000000;stroke-width:0.5pt;stroke-dasharray:none" />
    <polyline
       points="107.821,21.305 107.821,23.779 "
       id="polyline288"
       style="fill:none;stroke:#000000;stroke-width:0.5pt;stroke-dasharray:none" />
    <polyline
       points="111.817,21.305 111.817,23.779 "
       id="polyline290"
       style="fill:none;stroke:#000000;stroke-width:0.5pt;stroke-dasharray:none" />
    <polyline
       points="115.082,21.305 115.082,23.779 "
       id="polyline292"
       style="fill:none;stroke:#000000;stroke-width:0.5pt;stroke-dasharray:none" />
    <polyline
       points="117.842,21.305 117.842,23.779 "
       id="polyline294"
       style="fill:none;stroke:#000000;stroke-width:0.5pt;stroke-dasharray:none" />
    <polyline
       points="120.233,21.305 120.233,23.779 "
       id="polyline296"
       style="fill:none;stroke:#000000;stroke-width:0.5pt;stroke-dasharray:none" />
    <polyline
       points="122.343,21.305 122.343,23.779 "
       id="polyline298"
       style="fill:none;stroke:#000000;stroke-width:0.5pt;stroke-dasharray:none" />
    <polyline
       points="136.641,21.305 136.641,23.779 "
       id="polyline300"
       style="fill:none;stroke:#000000;stroke-width:0.5pt;stroke-dasharray:none" />
    <polyline
       points="143.902,21.305 143.902,23.779 "
       id="polyline302"
       style="fill:none;stroke:#000000;stroke-width:0.5pt;stroke-dasharray:none" />
    <polyline
       points="149.054,21.305 149.054,23.779 "
       id="polyline304"
       style="fill:none;stroke:#000000;stroke-width:0.5pt;stroke-dasharray:none" />
    <polyline
       points="153.050,21.305 153.050,23.779 "
       id="polyline306"
       style="fill:none;stroke:#000000;stroke-width:0.5pt;stroke-dasharray:none" />
    <polyline
       points="156.314,21.305 156.314,23.779 "
       id="polyline308"
       style="fill:none;stroke:#000000;stroke-width:0.5pt;stroke-dasharray:none" />
    <polyline
       points="159.075,21.305 159.075,23.779 "
       id="polyline310"
       style="fill:none;stroke:#000000;stroke-width:0.5pt;stroke-dasharray:none" />
    <polyline
       points="161.466,21.305 161.466,23.779 "
       id="polyline312"
       style="fill:none;stroke:#000000;stroke-width:0.5pt;stroke-dasharray:none" />
    <polyline
       points="163.575,21.305 163.575,23.779 "
       id="polyline314"
       style="fill:none;stroke:#000000;stroke-width:0.5pt;stroke-dasharray:none" />
    <polyline
       points="177.874,21.305 177.874,23.779 "
       id="polyline316"
       style="fill:none;stroke:#000000;stroke-width:0.5pt;stroke-dasharray:none" />
    <polyline
       points="185.135,21.305 185.135,23.779 "
       id="polyline318"
       style="fill:none;stroke:#000000;stroke-width:0.5pt;stroke-dasharray:none" />
    <polyline
       points="190.286,21.305 190.286,23.779 "
       id="polyline320"
       style="fill:none;stroke:#000000;stroke-width:0.5pt;stroke-dasharray:none" />
    <polyline
       points="194.282,21.305 194.282,23.779 "
       id="polyline322"
       style="fill:none;stroke:#000000;stroke-width:0.5pt;stroke-dasharray:none" />
    <polyline
       points="197.547,21.305 197.547,23.779 "
       id="polyline324"
       style="fill:none;stroke:#000000;stroke-width:0.5pt;stroke-dasharray:none" />
    <polyline
       points="200.307,21.305 200.307,23.779 "
       id="polyline326"
       style="fill:none;stroke:#000000;stroke-width:0.5pt;stroke-dasharray:none" />
    <polyline
       points="202.698,21.305 202.698,23.779 "
       id="polyline328"
       style="fill:none;stroke:#000000;stroke-width:0.5pt;stroke-dasharray:none" />
    <polyline
       points="204.807,21.305 204.807,23.779 "
       id="polyline330"
       style="fill:none;stroke:#000000;stroke-width:0.5pt;stroke-dasharray:none" />
    <polyline
       points="219.106,21.305 219.106,23.779 "
       id="polyline332"
       style="fill:none;stroke:#000000;stroke-width:0.5pt;stroke-dasharray:none" />
    <polyline
       points="226.367,21.305 226.367,23.779 "
       id="polyline334"
       style="fill:none;stroke:#000000;stroke-width:0.5pt;stroke-dasharray:none" />
    <polyline
       points="231.519,21.305 231.519,23.779 "
       id="polyline336"
       style="fill:none;stroke:#000000;stroke-width:0.5pt;stroke-dasharray:none" />
    <polyline
       points="235.514,21.305 235.514,23.779 "
       id="polyline338"
       style="fill:none;stroke:#000000;stroke-width:0.5pt;stroke-dasharray:none" />
    <polyline
       points="238.779,21.305 238.779,23.779 "
       id="polyline340"
       style="fill:none;stroke:#000000;stroke-width:0.5pt;stroke-dasharray:none" />
    <polyline
       points="241.540,21.305 241.540,23.779 "
       id="polyline342"
       style="fill:none;stroke:#000000;stroke-width:0.5pt;stroke-dasharray:none" />
    <polyline
       points="243.931,21.305 243.931,23.779 "
       id="polyline344"
       style="fill:none;stroke:#000000;stroke-width:0.5pt;stroke-dasharray:none" />
    <polyline
       points="246.040,21.305 246.040,23.779 "
       id="polyline346"
       style="fill:none;stroke:#000000;stroke-width:0.5pt;stroke-dasharray:none" />
    <polyline
       points="260.339,21.305 260.339,23.779 "
       id="polyline348"
       style="fill:none;stroke:#000000;stroke-width:0.5pt;stroke-dasharray:none" />
    <polyline
       points="267.599,21.305 267.599,23.779 "
       id="polyline350"
       style="fill:none;stroke:#000000;stroke-width:0.5pt;stroke-dasharray:none" />
    <polyline
       points="272.751,21.305 272.751,23.779 "
       id="polyline352"
       style="fill:none;stroke:#000000;stroke-width:0.5pt;stroke-dasharray:none" />
    <polyline
       points="276.747,21.305 276.747,23.779 "
       id="polyline354"
       style="fill:none;stroke:#000000;stroke-width:0.5pt;stroke-dasharray:none" />
    <polyline
       points="280.012,21.305 280.012,23.779 "
       id="polyline356"
       style="fill:none;stroke:#000000;stroke-width:0.5pt;stroke-dasharray:none" />
    <polyline
       points="282.772,21.305 282.772,23.779 "
       id="polyline358"
       style="fill:none;stroke:#000000;stroke-width:0.5pt;stroke-dasharray:none" />
    <polyline
       points="285.163,21.305 285.163,23.779 "
       id="polyline360"
       style="fill:none;stroke:#000000;stroke-width:0.5pt;stroke-dasharray:none" />
    <polyline
       points="287.272,21.305 287.272,23.779 "
       id="polyline362"
       style="fill:none;stroke:#000000;stroke-width:0.5pt;stroke-dasharray:none" />
    <polyline
       points="301.571,21.305 301.571,23.779 "
       id="polyline364"
       style="fill:none;stroke:#000000;stroke-width:0.5pt;stroke-dasharray:none" />
    <polyline
       points="308.832,21.305 308.832,23.779 "
       id="polyline366"
       style="fill:none;stroke:#000000;stroke-width:0.5pt;stroke-dasharray:none" />
    <polyline
       points="313.983,21.305 313.983,23.779 "
       id="polyline368"
       style="fill:none;stroke:#000000;stroke-width:0.5pt;stroke-dasharray:none" />
    <polyline
       points="317.979,21.305 317.979,23.779 "
       id="polyline370"
       style="fill:none;stroke:#000000;stroke-width:0.5pt;stroke-dasharray:none" />
    <polyline
       points="321.244,21.305 321.244,23.779 "
       id="polyline372"
       style="fill:none;stroke:#000000;stroke-width:0.5pt;stroke-dasharray:none" />
    <polyline
       points="324.004,21.305 324.004,23.779 "
       id="polyline374"
       style="fill:none;stroke:#000000;stroke-width:0.5pt;stroke-dasharray:none" />
    <polyline
       points="326.396,21.305 326.396,23.779 "
       id="polyline376"
       style="fill:none;stroke:#000000;stroke-width:0.5pt;stroke-dasharray:none" />
    <polyline
       points="328.505,21.305 328.505,23.779 "
       id="polyline378"
       style="fill:none;stroke:#000000;stroke-width:0.5pt;stroke-dasharray:none" />
    <polyline
       points="342.804,21.305 342.804,23.779 "
       id="polyline380"
       style="fill:none;stroke:#000000;stroke-width:0.5pt;stroke-dasharray:none" />
    <polyline
       points="350.064,21.305 350.064,23.779 "
       id="polyline382"
       style="fill:none;stroke:#000000;stroke-width:0.5pt;stroke-dasharray:none" />
    <polyline
       points="355.216,21.305 355.216,23.779 "
       id="polyline384"
       style="fill:none;stroke:#000000;stroke-width:0.5pt;stroke-dasharray:none" />
    <polyline
       points="359.212,21.305 359.212,23.779 "
       id="polyline386"
       style="fill:none;stroke:#000000;stroke-width:0.5pt;stroke-dasharray:none" />
    <polyline
       points="362.476,21.305 362.476,23.779 "
       id="polyline388"
       style="fill:none;stroke:#000000;stroke-width:0.5pt;stroke-dasharray:none" />
    <polyline
       points="365.237,21.305 365.237,23.779 "
       id="polyline390"
       style="fill:none;stroke:#000000;stroke-width:0.5pt;stroke-dasharray:none" />
    <polyline
       points="367.628,21.305 367.628,23.779 "
       id="polyline392"
       style="fill:none;stroke:#000000;stroke-width:0.5pt;stroke-dasharray:none" />
    <polyline
       points="369.737,21.305 369.737,23.779 "
       id="polyline394"
       style="fill:none;stroke:#000000;stroke-width:0.5pt;stroke-dasharray:none" />
    <polyline
       points="384.036,21.305 384.036,23.779 "
       id="polyline396"
       style="fill:none;stroke:#000000;stroke-width:0.5pt;stroke-dasharray:none" />
    <polyline
       points="391.297,21.305 391.297,23.779 "
       id="polyline398"
       style="fill:none;stroke:#000000;stroke-width:0.5pt;stroke-dasharray:none" />
    <polyline
       points="396.448,21.305 396.448,23.779 "
       id="polyline400"
       style="fill:none;stroke:#000000;stroke-width:0.5pt;stroke-dasharray:none" />
    <polyline
       points="400.444,21.305 400.444,23.779 "
       id="polyline402"
       style="fill:none;stroke:#000000;stroke-width:0.5pt;stroke-dasharray:none" />
    <polyline
       points="403.709,21.305 403.709,23.779 "
       id="polyline404"
       style="fill:none;stroke:#000000;stroke-width:0.5pt;stroke-dasharray:none" />
    <polyline
       points="406.469,21.305 406.469,23.779 "
       id="polyline406"
       style="fill:none;stroke:#000000;stroke-width:0.5pt;stroke-dasharray:none" />
    <polyline
       points="408.860,21.305 408.860,23.779 "
       id="polyline408"
       style="fill:none;stroke:#000000;stroke-width:0.5pt;stroke-dasharray:none" />
    <polyline
       points="410.970,21.305 410.970,23.779 "
       id="polyline410"
       style="fill:none;stroke:#000000;stroke-width:0.5pt;stroke-dasharray:none" />
    <polyline
       points="425.268,21.305 425.268,23.779 "
       id="polyline412"
       style="fill:none;stroke:#000000;stroke-width:0.5pt;stroke-dasharray:none" />
    <polyline
       points="432.529,21.305 432.529,23.779 "
       id="polyline414"
       style="fill:none;stroke:#000000;stroke-width:0.5pt;stroke-dasharray:none" />
    <polyline
       points="437.681,21.305 437.681,23.779 "
       id="polyline416"
       style="fill:none;stroke:#000000;stroke-width:0.5pt;stroke-dasharray:none" />
    <polyline
       points="441.676,21.305 441.676,23.779 "
       id="polyline418"
       style="fill:none;stroke:#000000;stroke-width:0.5pt;stroke-dasharray:none" />
    <polyline
       points="444.941,21.305 444.941,23.779 "
       id="polyline420"
       style="fill:none;stroke:#000000;stroke-width:0.5pt;stroke-dasharray:none" />
    <polyline
       points="447.702,21.305 447.702,23.779 "
       id="polyline422"
       style="fill:none;stroke:#000000;stroke-width:0.5pt;stroke-dasharray:none" />
    <polyline
       points="450.093,21.305 450.093,23.779 "
       id="polyline424"
       style="fill:none;stroke:#000000;stroke-width:0.5pt;stroke-dasharray:none" />
    <polyline
       points="452.202,21.305 452.202,23.779 "
       id="polyline426"
       style="fill:none;stroke:#000000;stroke-width:0.5pt;stroke-dasharray:none" />
    <polyline
       points="466.501,21.305 466.501,23.779 "
       id="polyline428"
       style="fill:none;stroke:#000000;stroke-width:0.5pt;stroke-dasharray:none" />
    <polyline
       points="473.762,21.305 473.762,23.779 "
       id="polyline430"
       style="fill:none;stroke:#000000;stroke-width:0.5pt;stroke-dasharray:none" />
    <polyline
       points="478.913,21.305 478.913,23.779 "
       id="polyline432"
       style="fill:none;stroke:#000000;stroke-width:0.5pt;stroke-dasharray:none" />
    <polyline
       points="482.909,21.305 482.909,23.779 "
       id="polyline434"
       style="fill:none;stroke:#000000;stroke-width:0.5pt;stroke-dasharray:none" />
    <polyline
       points="486.174,21.305 486.174,23.779 "
       id="polyline436"
       style="fill:none;stroke:#000000;stroke-width:0.5pt;stroke-dasharray:none" />
    <polyline
       points="488.934,21.305 488.934,23.779 "
       id="polyline438"
       style="fill:none;stroke:#000000;stroke-width:0.5pt;stroke-dasharray:none" />
    <polyline
       points="491.325,21.305 491.325,23.779 "
       id="polyline440"
       style="fill:none;stroke:#000000;stroke-width:0.5pt;stroke-dasharray:none" />
    <polyline
       points="493.434,21.305 493.434,23.779 "
       id="polyline442"
       style="fill:none;stroke:#000000;stroke-width:0.5pt;stroke-dasharray:none" />
    <polyline
       points="507.733,21.305 507.733,23.779 "
       id="polyline444"
       style="fill:none;stroke:#000000;stroke-width:0.5pt;stroke-dasharray:none" />
    <polyline
       points="514.994,21.305 514.994,23.779 "
       id="polyline446"
       style="fill:none;stroke:#000000;stroke-width:0.5pt;stroke-dasharray:none" />
    <polyline
       points="520.145,21.305 520.145,23.779 "
       id="polyline448"
       style="fill:none;stroke:#000000;stroke-width:0.5pt;stroke-dasharray:none" />
    <polyline
       points="524.141,21.305 524.141,23.779 "
       id="polyline450"
       style="fill:none;stroke:#000000;stroke-width:0.5pt;stroke-dasharray:none" />
    <polyline
       points="527.406,21.305 527.406,23.779 "
       id="polyline452"
       style="fill:none;stroke:#000000;stroke-width:0.5pt;stroke-dasharray:none" />
    <polyline
       points="530.167,21.305 530.167,23.779 "
       id="polyline454"
       style="fill:none;stroke:#000000;stroke-width:0.5pt;stroke-dasharray:none" />
    <polyline
       points="532.558,21.305 532.558,23.779 "
       id="polyline456"
       style="fill:none;stroke:#000000;stroke-width:0.5pt;stroke-dasharray:none" />
    <polyline
       points="534.667,21.305 534.667,23.779 "
       id="polyline458"
       style="fill:none;stroke:#000000;stroke-width:0.5pt;stroke-dasharray:none" />
    <polyline
       points="548.966,21.305 548.966,23.779 "
       id="polyline460"
       style="fill:none;stroke:#000000;stroke-width:0.5pt;stroke-dasharray:none" />
    <polyline
       points="556.226,21.305 556.226,23.779 "
       id="polyline462"
       style="fill:none;stroke:#000000;stroke-width:0.5pt;stroke-dasharray:none" />
    <polyline
       points="561.378,21.305 561.378,23.779 "
       id="polyline464"
       style="fill:none;stroke:#000000;stroke-width:0.5pt;stroke-dasharray:none" />
    <polyline
       points="565.374,21.305 565.374,23.779 "
       id="polyline466"
       style="fill:none;stroke:#000000;stroke-width:0.5pt;stroke-dasharray:none" />
    <polyline
       points="568.639,21.305 568.639,23.779 "
       id="polyline468"
       style="fill:none;stroke:#000000;stroke-width:0.5pt;stroke-dasharray:none" />
    <polyline
       points="571.399,21.305 571.399,23.779 "
       id="polyline470"
       style="fill:none;stroke:#000000;stroke-width:0.5pt;stroke-dasharray:none" />
    <polyline
       points="573.790,21.305 573.790,23.779 "
       id="polyline472"
       style="fill:none;stroke:#000000;stroke-width:0.5pt;stroke-dasharray:none" />
    <polyline
       points="575.899,21.305 575.899,23.779 "
       id="polyline474"
       style="fill:none;stroke:#000000;stroke-width:0.5pt;stroke-dasharray:none" />
    <g
       transform="translate(82.997,260.518)"
       id="g476">
      <g
         id="g478">
        <text
           x="0"
           y="0"
           font-size="11pt"
           id="text480"
           style="font-size:13.75px;text-anchor:middle;fill:#000000;font-family:Times New Roman">
          <tspan
             id="tspan482">10</tspan>
          <tspan
             dy="-7"
             font-size="8pt"
             id="tspan484"
             style="font-size:10px">-4</tspan>
          <tspan
             dy="7"
             font-size="11pt"
             id="tspan486"
             style="font-size:13.75px" />
        </text>
      </g>
    </g>
    <g
       transform="translate(165.462,260.518)"
       id="g488">
      <g
         id="g490">
        <text
           x="0"
           y="0"
           font-size="11pt"
           id="text492"
           style="font-size:13.75px;text-anchor:middle;fill:#000000;font-family:Times New Roman">
          <tspan
             id="tspan494">10</tspan>
          <tspan
             dy="-7"
             font-size="8pt"
             id="tspan496"
             style="font-size:10px">-2</tspan>
          <tspan
             dy="7"
             font-size="11pt"
             id="tspan498"
             style="font-size:13.75px" />
        </text>
      </g>
    </g>
    <g
       transform="translate(247.927,260.518)"
       id="g500">
      <g
         id="g502">
        <text
           x="0"
           y="0"
           font-size="11pt"
           id="text504"
           style="font-size:13.75px;text-anchor:middle;fill:#000000;font-family:Times New Roman">
          <tspan
             id="tspan506">10</tspan>
          <tspan
             dy="-7"
             font-size="8pt"
             id="tspan508"
             style="font-size:10px">0</tspan>
          <tspan
             dy="7"
             font-size="11pt"
             id="tspan510"
             style="font-size:13.75px" />
        </text>
      </g>
    </g>
    <g
       transform="translate(330.391,260.518)"
       id="g512">
      <g
         id="g514">
        <text
           x="0"
           y="0"
           font-size="11pt"
           id="text516"
           style="font-size:13.75px;text-anchor:middle;fill:#000000;font-family:Times New Roman">
          <tspan
             id="tspan518">10</tspan>
          <tspan
             dy="-7"
             font-size="8pt"
             id="tspan520"
             style="font-size:10px">2</tspan>
          <tspan
             dy="7"
             font-size="11pt"
             id="tspan522"
             style="font-size:13.75px" />
        </text>
      </g>
    </g>
    <g
       transform="translate(412.856,260.518)"
       id="g524">
      <g
         id="g526">
        <text
           x="0"
           y="0"
           font-size="11pt"
           id="text528"
           style="font-size:13.75px;text-anchor:middle;fill:#000000;font-family:Times New Roman">
          <tspan
             id="tspan530">10</tspan>
          <tspan
             dy="-7"
             font-size="8pt"
             id="tspan532"
             style="font-size:10px">4</tspan>
          <tspan
             dy="7"
             font-size="11pt"
             id="tspan534"
             style="font-size:13.75px" />
        </text>
      </g>
    </g>
    <g
       transform="translate(495.321,260.518)"
       id="g536">
      <g
         id="g538">
        <text
           x="0"
           y="0"
           font-size="11pt"
           id="text540"
           style="font-size:13.75px;text-anchor:middle;fill:#000000;font-family:Times New Roman">
          <tspan
             id="tspan542">10</tspan>
          <tspan
             dy="-7"
             font-size="8pt"
             id="tspan544"
             style="font-size:10px">6</tspan>
          <tspan
             dy="7"
             font-size="11pt"
             id="tspan546"
             style="font-size:13.75px" />
        </text>
      </g>
    </g>
    <g
       transform="translate(577.786,260.518)"
       id="g548">
      <g
         id="g550">
        <text
           x="0"
           y="0"
           font-size="11pt"
           id="text552"
           style="font-size:13.75px;text-anchor:middle;fill:#000000;font-family:Times New Roman">
          <tspan
             id="tspan554">10</tspan>
          <tspan
             dy="-7"
             font-size="8pt"
             id="tspan556"
             style="font-size:10px">8</tspan>
          <tspan
             dy="7"
             font-size="11pt"
             id="tspan558"
             style="font-size:13.75px" />
        </text>
      </g>
    </g>
    <polyline
       points="82.997,198.511 87.945,198.511 "
       id="polyline560"
       style="fill:none;stroke:#000000;stroke-width:0.5pt;stroke-dasharray:none" />
    <polyline
       points="82.997,154.209 87.945,154.209 "
       id="polyline562"
       style="fill:none;stroke:#000000;stroke-width:0.5pt;stroke-dasharray:none" />
    <polyline
       points="82.997,109.908 87.945,109.908 "
       id="polyline564"
       style="fill:none;stroke:#000000;stroke-width:0.5pt;stroke-dasharray:none" />
    <polyline
       points="82.997,65.606 87.945,65.606 "
       id="polyline566"
       style="fill:none;stroke:#000000;stroke-width:0.5pt;stroke-dasharray:none" />
    <polyline
       points="82.997,242.813 82.997,21.305 "
       id="polyline568"
       style="fill:none;stroke:#000000;stroke-width:0.5pt;stroke-dasharray:none" />
    <polyline
       points="577.786,198.511 572.838,198.511 "
       id="polyline570"
       style="fill:none;stroke:#000000;stroke-width:0.5pt;stroke-dasharray:none" />
    <polyline
       points="577.786,154.209 572.838,154.209 "
       id="polyline572"
       style="fill:none;stroke:#000000;stroke-width:0.5pt;stroke-dasharray:none" />
    <polyline
       points="577.786,109.908 572.838,109.908 "
       id="polyline574"
       style="fill:none;stroke:#000000;stroke-width:0.5pt;stroke-dasharray:none" />
    <polyline
       points="577.786,65.606 572.838,65.606 "
       id="polyline576"
       style="fill:none;stroke:#000000;stroke-width:0.5pt;stroke-dasharray:none" />
    <polyline
       points="577.786,242.813 577.786,21.305 "
       id="polyline578"
       style="fill:none;stroke:#000000;stroke-width:0.5pt;stroke-dasharray:none" />
    <g
       transform="translate(73.101,247.875)"
       id="g580">
      <g
         id="g582">
        <text
           x="0"
           y="0"
           font-size="11pt"
           id="text584"
           style="font-size:13.75px;text-anchor:end;fill:#000000;font-family:Times New Roman">0</text>
      </g>
    </g>
    <g
       transform="translate(73.101,203.573)"
       id="g586">
      <g
         id="g588">
        <text
           x="0"
           y="0"
           font-size="11pt"
           id="text590"
           style="font-size:13.75px;text-anchor:end;fill:#000000;font-family:Times New Roman">0.02</text>
      </g>
    </g>
    <g
       transform="translate(73.101,159.272)"
       id="g592">
      <g
         id="g594">
        <text
           x="0"
           y="0"
           font-size="11pt"
           id="text596"
           style="font-size:13.75px;text-anchor:end;fill:#000000;font-family:Times New Roman">0.04</text>
      </g>
    </g>
    <g
       transform="translate(73.101,114.97)"
       id="g598">
      <g
         id="g600">
        <text
           x="0"
           y="0"
           font-size="11pt"
           id="text602"
           style="font-size:13.75px;text-anchor:end;fill:#000000;font-family:Times New Roman">0.06</text>
      </g>
    </g>
    <g
       transform="translate(73.101,70.669)"
       id="g604">
      <g
         id="g606">
        <text
           x="0"
           y="0"
           font-size="11pt"
           id="text608"
           style="font-size:13.75px;text-anchor:end;fill:#000000;font-family:Times New Roman">0.08</text>
      </g>
    </g>
    <g
       transform="translate(73.101,26.367)"
       id="g610">
      <g
         id="g612">
        <text
           x="0"
           y="0"
           font-size="11pt"
           id="text614"
           style="font-size:13.75px;text-anchor:end;fill:#000000;font-family:Times New Roman">0.1</text>
      </g>
    </g>
    <polyline
       points="82.997,242.813 82.997,240.597 "
       id="polyline616"
       style="fill:none;stroke:#000000;stroke-width:0.5pt;stroke-dasharray:none" />
    <polyline
       points="82.997,242.813 82.997,242.813 "
       id="polyline618"
       style="fill:none;stroke:#000000;stroke-width:0.5pt;stroke-dasharray:none" />
  </g>
</svg>
