<?xml version="1.0" encoding="UTF-8" standalone="no"?>
<!-- Created with Inkscape (http://www.inkscape.org/) -->

<svg
   xmlns:dc="http://purl.org/dc/elements/1.1/"
   xmlns:cc="http://creativecommons.org/ns#"
   xmlns:rdf="http://www.w3.org/1999/02/22-rdf-syntax-ns#"
   xmlns:svg="http://www.w3.org/2000/svg"
   xmlns="http://www.w3.org/2000/svg"
   xmlns:sodipodi="http://sodipodi.sourceforge.net/DTD/sodipodi-0.dtd"
   xmlns:inkscape="http://www.inkscape.org/namespaces/inkscape"
   id="svg2"
   version="1.1"
   inkscape:version="0.48.4 r9939"
   width="383.6409"
   height="477.22482"
   xml:space="preserve"
   sodipodi:docname="Fuel_Pin_4_Assembly.pdf"><metadata
     id="metadata8"><rdf:RDF><cc:Work
         rdf:about=""><dc:format>image/svg+xml</dc:format><dc:type
           rdf:resource="http://purl.org/dc/dcmitype/StillImage" /><dc:title></dc:title></cc:Work></rdf:RDF></metadata><defs
     id="defs6" /><sodipodi:namedview
     pagecolor="#ffffff"
     bordercolor="#666666"
     borderopacity="1"
     objecttolerance="10"
     gridtolerance="10"
     guidetolerance="10"
     inkscape:pageopacity="0"
     inkscape:pageshadow="2"
     inkscape:window-width="1920"
     inkscape:window-height="1138"
     id="namedview4"
     showgrid="false"
     units="cm"
     fit-margin-top="0.5"
     fit-margin-left="0.5"
     fit-margin-right="0.5"
     fit-margin-bottom="0.5"
     inkscape:zoom="1.381297"
     inkscape:cx="201.51297"
     inkscape:cy="306.09579"
     inkscape:window-x="-8"
     inkscape:window-y="-8"
     inkscape:window-maximized="1"
     inkscape:current-layer="g5961" /><g
     id="g10"
     inkscape:groupmode="layer"
     inkscape:label="Fuel_Pin_4_Assembly"
     transform="matrix(1.25,0,0,-1.25,-583.88954,726.83909)"><path
   style="fill:none;stroke:#000000;stroke-width:0.50999999;stroke-linecap:round;stroke-linejoin:round;stroke-miterlimit:10;stroke-opacity:1;stroke-dasharray:none"
   d="m 673.3881,322.8963 59.506,0"
   id="path3858"
   inkscape:connector-curvature="0" /><path
   style="fill:#000000;stroke:#000000;stroke-width:0.50999999;stroke-linecap:round;stroke-linejoin:round;stroke-miterlimit:10;stroke-opacity:1;stroke-dasharray:none"
   d="m 673.3881,559.7983 59.506,0"
   id="path3856"
   inkscape:connector-curvature="0" /><path
   style="fill:none;stroke:#000000;stroke-width:0.50999999;stroke-linecap:round;stroke-linejoin:round;stroke-miterlimit:10;stroke-opacity:1;stroke-dasharray:none"
   d="m 723.8941,322.8963 0,122.043"
   id="path3854"
   inkscape:connector-curvature="0" /><path
   style="fill:#000000;stroke:#000000;stroke-width:0.50999999;stroke-linecap:round;stroke-linejoin:round;stroke-miterlimit:10;stroke-opacity:1;stroke-dasharray:none"
   d="m 723.8941,559.7983 0,-82.90744"
   id="path3852"
   inkscape:connector-curvature="0"
   sodipodi:nodetypes="cc" /><path
   style="fill:#000000;fill-opacity:1;fill-rule:nonzero;stroke:#000000"
   d="m 723.8941,322.8963 -1.44,9.36 2.88,0"
   id="path3973"
   inkscape:connector-curvature="0" /><path
   style="fill:#000000;fill-opacity:1;fill-rule:nonzero;stroke:#000000"
   d="m 723.8941,559.7983 1.44,-9.36 -2.88,0"
   id="path3971"
   inkscape:connector-curvature="0" /><path
   inkscape:connector-curvature="0"
   id="path126"
   style="fill:none;stroke:#000000;stroke-width:0.2;stroke-linecap:square;stroke-linejoin:round;stroke-miterlimit:10;stroke-opacity:1;stroke-dasharray:none"
   d="m 669.7883,322.8959 0,236.903 m -0.634,0 0,-236.903 m -0.175,0 0,236.903 m -0.634,0 0,-236.903 m 0.809,0 0,236.903 m 0,-236.903 -0.175,0 m 0,0 0,236.903 m 0.175,0 -0.175,0 m 0.175,0 0.006,0 0.024,0 0.043,0 0.058,0 0.069,0 0.077,0 0.08,0 0.077,0 0.069,0 0.058,0 0.043,0 0.024,0 0.006,0 m -0.634,-236.903 0.006,0 0.024,0 0.043,0 0.058,0 0.069,0 0.077,0 0.08,0 0.077,0 0.069,0 0.058,0 0.043,0 0.024,0 0.006,0 m -1.126,0 0.079,0 0.074,0 0.064,0 0.051,0 0.033,0 0.015,0 10e-4,0 m -0.634,0 0.001,0 0.015,0 0.034,0 0.05,0 0.064,0 0.074,0 0.079,0 m 0,236.903 0.079,0 0.074,0 0.064,0 0.051,0 0.033,0 0.015,0 10e-4,0 m -0.634,0 0.001,0 0.015,0 0.034,0 0.05,0 0.064,0 0.074,0 0.079,0" /><path
   sodipodi:type="arc"
   style="fill:none;stroke:#000000;stroke-width:0.5;stroke-linecap:butt;stroke-linejoin:round;stroke-miterlimit:4;stroke-opacity:1;stroke-dasharray:none;stroke-dashoffset:0"
   id="path5410"
   sodipodi:cx="228.06781"
   sodipodi:cy="18.56675"
   sodipodi:rx="4.8694448"
   sodipodi:ry="4.8694448"
   d="m 232.93725,18.56675 c 0,2.68932 -2.18012,4.869444 -4.86944,4.869444 -2.68932,0 -4.86944,-2.180124 -4.86944,-4.869444 0,-2.689321 2.18012,-4.869445 4.86944,-4.869445 2.68932,0 4.86944,2.180124 4.86944,4.869445 z"
   transform="matrix(0.88915567,0,0,-0.88915567,466.36106,572.67194)" /><text
   xml:space="preserve"
   style="font-size:11.19999981px;font-style:normal;font-variant:normal;font-weight:normal;font-stretch:normal;text-align:end;line-height:125%;letter-spacing:0px;word-spacing:0px;writing-mode:lr-tb;text-anchor:end;fill:#000000;fill-opacity:1;stroke:none;font-family:Times New Roman;-inkscape-font-specification:'Times New Roman,'"
   x="663.5473"
   y="-559.71289"
   id="text5920"
   sodipodi:linespacing="125%"
   transform="scale(1,-1)"><tspan
     sodipodi:role="line"
     id="tspan5922"
     x="663.5473"
     y="-559.71289">A</tspan></text>

<g
   id="g5961"
   transform="translate(0,17.109631)"><rect
   style="fill:#a7a9ac;fill-opacity:1;fill-rule:evenodd;stroke:none"
   id="rect4132-9"
   width="0.60369146"
   height="209.62042"
   x="550.01874"
   y="-535.70978"
   transform="scale(1,-1)" /><rect
   style="fill:#a7a9ac;fill-opacity:1;fill-rule:evenodd;stroke:none"
   id="rect4132-2"
   width="0.60369146"
   height="210.39058"
   x="535.06458"
   y="-535.51843"
   transform="scale(1,-1)" /><rect
   style="fill:#a7a9ac;fill-opacity:1;fill-rule:evenodd;stroke:none"
   id="rect4132-5"
   width="0.60369146"
   height="210.21667"
   x="529.82788"
   y="-535.53076"
   transform="scale(1,-1)" /><rect
   style="fill:#a7a9ac;fill-opacity:1;fill-rule:evenodd;stroke:none"
   id="rect4132"
   width="0.60369146"
   height="208.72606"
   x="514.90894"
   y="-535.66455"
   transform="scale(1,-1)" /><rect
   style="fill:#7299c6;fill-opacity:0.39215686;fill-rule:evenodd;stroke:none"
   id="rect4130"
   width="4.3050694"
   height="210.68806"
   x="530.54358"
   y="-535.71643"
   transform="scale(1,-1)" /><path
   style="fill:#e3ae24;fill-opacity:0.39215686;stroke:none"
   d="m 549.65432,325.90922 0,4.24888 -13.53496,0 0,-5.34996"
   id="rect3968-0-3"
   inkscape:connector-curvature="0"
   sodipodi:nodetypes="cccc" /><rect
   style="fill:#e3ae24;fill-opacity:0.39215686;stroke:none"
   id="rect3968-46-6"
   width="13.53496"
   height="14.188591"
   x="536.11932"
   y="-345.87717"
   transform="scale(1,-1)" /><rect
   style="fill:#e3ae24;fill-opacity:0.39215686;stroke:none"
   id="rect3968-9-2"
   width="13.53496"
   height="14.188591"
   x="536.10339"
   y="-361.70779"
   transform="scale(1,-1)" /><rect
   style="fill:#e3ae24;fill-opacity:0.39215686;stroke:none"
   id="rect3968-4-4"
   width="13.53496"
   height="14.188591"
   x="536.03967"
   y="-377.41092"
   transform="scale(1,-1)" /><rect
   style="fill:#e3ae24;fill-opacity:0.39215686;stroke:none"
   id="rect3968-60-5"
   width="13.53496"
   height="14.188591"
   x="536.07159"
   y="-393.35312"
   transform="scale(1,-1)" /><rect
   style="fill:#e3ae24;fill-opacity:0.39215686;stroke:none"
   id="rect3968-2-8"
   width="13.53496"
   height="14.188591"
   x="536.02374"
   y="-408.99246"
   transform="scale(1,-1)" /><rect
   style="fill:#e3ae24;fill-opacity:0.39215686;stroke:none"
   id="rect3968-71-8"
   width="13.53496"
   height="14.188591"
   x="536.07153"
   y="-424.9028"
   transform="scale(1,-1)" /><rect
   style="fill:#e3ae24;fill-opacity:0.39215686;stroke:none"
   id="rect3968-7-1"
   width="13.53496"
   height="14.188591"
   x="536.07153"
   y="-440.65375"
   transform="scale(1,-1)" /><rect
   style="fill:#e3ae24;fill-opacity:0.39215686;stroke:none"
   id="rect3968-82-2"
   width="13.53496"
   height="14.188591"
   x="536.07153"
   y="-456.40466"
   transform="scale(1,-1)" /><rect
   style="fill:#e3ae24;fill-opacity:0.39215686;stroke:none"
   id="rect3968-8-1"
   width="13.53496"
   height="14.188591"
   x="536.07153"
   y="-472.28314"
   transform="scale(1,-1)" /><rect
   style="fill:#e3ae24;fill-opacity:0.39215686;stroke:none"
   id="rect3968-6-4"
   width="13.53496"
   height="14.188591"
   x="536.00781"
   y="-488.09784"
   transform="scale(1,-1)" /><rect
   style="fill:#e3ae24;fill-opacity:0.39215686;stroke:none"
   id="rect3968-1-9"
   width="13.53496"
   height="14.188591"
   x="536.02374"
   y="-503.83282"
   transform="scale(1,-1)" /><rect
   style="fill:#e3ae24;fill-opacity:0.39215686;stroke:none"
   id="rect3968-3-8"
   width="13.53496"
   height="14.188591"
   x="535.99188"
   y="-519.47217"
   transform="scale(1,-1)" /><rect
   style="fill:#e3ae24;fill-opacity:0.39215686;stroke:none"
   id="rect3968-24"
   width="13.53496"
   height="14.188591"
   x="536.03168"
   y="-535.39844"
   transform="scale(1,-1)" /><path
   transform="scale(1,-1)"
   style="fill:#e3ae24;fill-opacity:0.39215686;stroke:none"
   d="m 515.96741,-326.58922 0,-3.60295 13.53496,0 0,5.10152"
   id="rect3968-0"
   inkscape:connector-curvature="0"
   sodipodi:nodetypes="cccc" /><rect
   style="fill:#e3ae24;fill-opacity:0.39215686;stroke:none"
   id="rect3968-46"
   width="13.53496"
   height="14.188591"
   x="515.96735"
   y="-345.91122"
   transform="scale(1,-1)" /><rect
   style="fill:#e3ae24;fill-opacity:0.39215686;stroke:none"
   id="rect3968-9"
   width="13.53496"
   height="14.188591"
   x="515.95142"
   y="-361.74185"
   transform="scale(1,-1)" /><rect
   style="fill:#e3ae24;fill-opacity:0.39215686;stroke:none"
   id="rect3968-4"
   width="13.53496"
   height="14.188591"
   x="515.8877"
   y="-377.44498"
   transform="scale(1,-1)" /><rect
   style="fill:#e3ae24;fill-opacity:0.39215686;stroke:none"
   id="rect3968-60"
   width="13.53496"
   height="14.188591"
   x="515.91962"
   y="-393.38718"
   transform="scale(1,-1)" /><rect
   style="fill:#e3ae24;fill-opacity:0.39215686;stroke:none"
   id="rect3968-2"
   width="13.53496"
   height="14.188591"
   x="515.87177"
   y="-409.02652"
   transform="scale(1,-1)" /><rect
   style="fill:#e3ae24;fill-opacity:0.39215686;stroke:none"
   id="rect3968-71"
   width="13.53496"
   height="14.188591"
   x="515.91956"
   y="-424.93686"
   transform="scale(1,-1)" /><rect
   style="fill:#e3ae24;fill-opacity:0.39215686;stroke:none"
   id="rect3968-7"
   width="13.53496"
   height="14.188591"
   x="515.91956"
   y="-440.68781"
   transform="scale(1,-1)" /><rect
   style="fill:#e3ae24;fill-opacity:0.39215686;stroke:none"
   id="rect3968-82"
   width="13.53496"
   height="14.188591"
   x="515.91956"
   y="-456.43875"
   transform="scale(1,-1)" /><rect
   style="fill:#e3ae24;fill-opacity:0.39215686;stroke:none"
   id="rect3968-8"
   width="13.53496"
   height="14.188591"
   x="515.91956"
   y="-472.3172"
   transform="scale(1,-1)" /><rect
   style="fill:#e3ae24;fill-opacity:0.39215686;stroke:none"
   id="rect3968-6"
   width="13.53496"
   height="14.188591"
   x="515.85583"
   y="-488.1319"
   transform="scale(1,-1)" /><rect
   style="fill:#e3ae24;fill-opacity:0.39215686;stroke:none"
   id="rect3968-1"
   width="13.53496"
   height="14.188591"
   x="515.87177"
   y="-503.86688"
   transform="scale(1,-1)" /><rect
   style="fill:#e3ae24;fill-opacity:0.39215686;stroke:none"
   id="rect3968-3"
   width="13.53496"
   height="14.188591"
   x="515.8399"
   y="-519.50623"
   transform="scale(1,-1)" /><rect
   style="fill:#e3ae24;fill-opacity:0.39215686;stroke:none"
   id="rect3968"
   width="16.918699"
   height="17.735739"
   x="41.868298"
   y="28.148275"
   transform="matrix(0.8,0,0,-0.8,482.38507,557.95114)" /><path
   inkscape:connector-curvature="0"
   id="path3850"
   d="m 553.2631,535.4223 51.909,0"
   style="fill:none;stroke:#000000;stroke-width:0.50999999;stroke-linecap:round;stroke-linejoin:round;stroke-miterlimit:10;stroke-opacity:1;stroke-dasharray:none" /><path
   inkscape:connector-curvature="0"
   id="path3846"
   d="m 596.1721,535.4223 0,-62.8"
   style="fill:none;stroke:#000000;stroke-width:0.50999999;stroke-linecap:round;stroke-linejoin:round;stroke-miterlimit:10;stroke-opacity:1;stroke-dasharray:none" /><path
   inkscape:connector-curvature="0"
   id="path110"
   d="m 596.1721,344.21987 0,85.53943"
   style="fill:none;stroke:#000000;stroke-width:0.50999999;stroke-linecap:round;stroke-linejoin:round;stroke-miterlimit:10;stroke-opacity:1;stroke-dasharray:none"
   sodipodi:nodetypes="cc" /><path
   inkscape:connector-curvature="0"
   id="path3969"
   d="m 596.1721,535.4223 1.44,-9.36 -2.88,0"
   style="fill:#000000;fill-opacity:1;fill-rule:nonzero;stroke:#000000" /><path
   d="m 514.7471,326.826 0.245,-0.046 0.244,-0.045 0.245,-0.045 0.245,-0.044 0.027,-0.005 0.149,-0.027 0.245,-0.042 0.245,-0.043 0.245,-0.042 0.246,-0.042 0.245,-0.041 0.246,-0.04 0.245,-0.04 0.246,-0.039 0.246,-0.039 0.245,-0.038 0.246,-0.038 0.246,-0.037 0.246,-0.036 0.247,-0.036 0.246,-0.035 0.246,-0.035 0.247,-0.034 0.246,-0.034 0.247,-0.033 0.246,-0.032 0.247,-0.033 0.247,-0.031 0.247,-0.031 0.247,-0.03 0.247,-0.03 0.247,-0.029 0.247,-0.029 0.122,-0.014 0.247,-0.027 0.247,-0.027 0.248,-0.027 0.247,-0.026 0.248,-0.026 0.247,-0.025 0.248,-0.024 0.247,-0.024 0.248,-0.023 0.248,-0.023 0.248,-0.022 0.247,-0.021 0.248,-0.021 0.248,-0.021 0.248,-0.02 0.248,-0.019 0.248,-0.019 0.249,-0.018 0.248,-0.017 0.248,-0.017 0.248,-0.017 0.248,-0.016 0.249,-0.015 0.248,-0.015 0.248,-0.014 0.249,-0.014 0.248,-0.013 0.075,-0.003 0.148,-0.008 0.249,-0.012 0.248,-0.011 0.249,-0.011 0.249,-0.01 0.012,-10e-4 0.248,-0.01 0.249,-0.009 0.249,-0.008 0.248,-0.008 0.249,-0.008 0.249,-0.007 0.248,-0.006 0.249,-0.006 0.249,-0.005 0.248,-0.004 0.249,-0.004 0.249,-0.004 0.249,-0.003 0.248,-0.002 0.249,-0.002 0.249,-10e-4 0.249,-0.001 0.151,0 0.249,0 0.249,0.001 0.249,0.002 0.248,0.002 0.012,0 0.148,0.001 0.249,0.003 0.249,0.004 0.249,0.004 0.248,0.004 0.249,0.005 0.249,0.006 0.249,0.007 0.248,0.006 0.249,0.008 0.248,0.008 0.249,0.009 0.249,0.009 0.248,0.009 0.249,0.011 0.248,0.011 0.249,0.011 0.248,0.012 0.249,0.012 0.248,0.014 0.249,0.013 0.248,0.015 0.248,0.014 0.249,0.016 0.248,0.016 0.248,0.016 0.249,0.017 0.248,0.018 0.057,0.004 0.248,0.018 0.248,0.019 0.248,0.02 0.248,0.02 0.248,0.02 0.248,0.022 0.248,0.021 0.248,0.022 0.247,0.023 0.248,0.024 0.248,0.024 0.247,0.024 0.248,0.025 0.247,0.026 0.248,0.026 0.247,0.027 0.247,0.028 0.247,0.028 0.248,0.028 0.247,0.029 0.247,0.03 0.247,0.03 0.246,0.031 0.247,0.031 0.247,0.032 0.247,0.032 0.246,0.033 0.088,0.012 0.149,0.02 0.246,0.035 0.246,0.034 0.247,0.035 0.40529,-0.0277"
   style="fill:none;stroke:#000000;stroke-width:0.50999999;stroke-linecap:round;stroke-linejoin:round;stroke-miterlimit:10;stroke-opacity:1;stroke-dasharray:4.07999992, 1.01999998, 0.50999999, 1.01999998;stroke-dashoffset:0"
   id="path130"
   inkscape:connector-curvature="0"
   sodipodi:nodetypes="cccccccccccccccccccccccccccccccccccccccccccccccccccccccccccccccccccccccccccccccccccccccccccccccccccccccccccccccccccccccccccccccccccccccccccccccccccccccccc" /><path
   d="m 550.8179,326.092 0,209.652 m -15.846,0 0,-210.808 m -4.379,0.088 0,210.72 m -15.846,0 0,-208.918 m 20.225,-1.89 0,210.808 m -4.379,-210.72 0,210.72 m 4.379,0 -4.379,0 m 4.379,0 0.141,0 0.613,0 1.065,0 1.447,0 1.741,0 1.923,0 1.986,0 1.924,0 1.74,0 1.448,0 1.064,0 0.614,0 0.14,0 m -28.148,0 1.97,0 1.847,0 1.607,0 1.265,0 0.846,0 0.372,0 0.016,0 m -15.846,0 0.016,0 0.372,0 0.845,0 1.266,0 1.607,0 1.847,0 1.97,0"
   style="fill:none;stroke:#000000;stroke-width:0.70899999;stroke-linecap:round;stroke-linejoin:round;stroke-miterlimit:10;stroke-opacity:1;stroke-dasharray:none"
   id="path134"
   inkscape:connector-curvature="0" /><path
   id="path482"
   style="fill:#000000;fill-opacity:1;stroke:#000000;stroke-width:0.50999999;stroke-linecap:round;stroke-linejoin:round;stroke-miterlimit:10;stroke-opacity:1;stroke-dasharray:4.07999992, 4.07999992;stroke-dashoffset:0.113"
   d="m 536.1274,519.6335 0,-14.173 m 13.5354,-2e-4 0,14.173 m -13.5354,2e-4 0.016,0 0.375,0 0.848,0 1.258,0 1.574,0 1.775,0 1.843,0 1.775,0 1.575,0 1.258,0 0.848,0 0.375,0 0.015,0 m -13.535,-14.1732 0.016,0 0.375,0 0.848,0 1.258,0 1.574,0 1.775,0 1.843,0 1.775,0 1.575,0 1.258,0 0.848,0 0.375,0 0.015,0"
   inkscape:connector-curvature="0" /><path
   id="path490"
   style="fill:#000000;fill-opacity:1;stroke:#000000;stroke-width:0.50999999;stroke-linecap:round;stroke-linejoin:round;stroke-miterlimit:10;stroke-opacity:1;stroke-dasharray:4.07999992, 4.07999992;stroke-dashoffset:0.113"
   d="m 536.1274,503.8444 0,-14.173 m 13.5354,-3e-4 0,14.173 m -13.5354,3e-4 0.016,0 0.375,0 0.848,0 1.258,0 1.574,0 1.775,0 1.843,0 1.775,0 1.575,0 1.258,0 0.848,0 0.375,0 0.015,0 m -13.535,-14.1733 0.016,0 0.375,0 0.848,0 1.258,0 1.574,0 1.775,0 1.843,0 1.775,0 1.575,0 1.258,0 0.848,0 0.375,0 0.015,0"
   inkscape:connector-curvature="0" /><path
   id="path498"
   style="fill:#000000;fill-opacity:1;stroke:#000000;stroke-width:0.50999999;stroke-linecap:round;stroke-linejoin:round;stroke-miterlimit:10;stroke-opacity:1;stroke-dasharray:4.07999992, 4.07999992;stroke-dashoffset:0.113"
   d="m 536.1274,488.0555 0,-14.173 m 13.5354,-10e-5 0,14.173 m -13.5354,10e-5 0.016,0 0.375,0 0.848,0 1.258,0 1.574,0 1.775,0 1.843,0 1.775,0 1.575,0 1.258,0 0.848,0 0.375,0 0.015,0 m -13.535,-14.1731 0.016,0 0.375,0 0.848,0 1.258,0 1.574,0 1.775,0 1.843,0 1.775,0 1.575,0 1.258,0 0.848,0 0.375,0 0.015,0"
   inkscape:connector-curvature="0" /><path
   id="path506"
   style="fill:#000000;fill-opacity:1;stroke:#000000;stroke-width:0.50999999;stroke-linecap:round;stroke-linejoin:round;stroke-miterlimit:10;stroke-opacity:1;stroke-dasharray:4.07999992, 4.07999992;stroke-dashoffset:0.113"
   d="m 536.1274,472.2664 0,-14.173 m 13.5354,-2e-4 0,14.173 m -13.5354,2e-4 0.016,0 0.375,0 0.848,0 1.258,0 1.574,0 1.775,0 1.843,0 1.775,0 1.575,0 1.258,0 0.848,0 0.375,0 0.015,0 m -13.535,-14.1732 0.016,0 0.375,0 0.848,0 1.258,0 1.574,0 1.775,0 1.843,0 1.775,0 1.575,0 1.258,0 0.848,0 0.375,0 0.015,0"
   inkscape:connector-curvature="0" /><path
   id="path514"
   style="fill:#000000;fill-opacity:1;stroke:#000000;stroke-width:0.50999999;stroke-linecap:round;stroke-linejoin:round;stroke-miterlimit:10;stroke-opacity:1;stroke-dasharray:4.07999992, 4.07999992;stroke-dashoffset:0.113"
   d="m 536.1274,456.4776 0,-14.174 m 13.5354,5e-4 0,14.174 m -13.5354,-5e-4 0.016,0 0.375,0 0.848,0 1.258,0 1.574,0 1.775,0 1.843,0 1.775,0 1.575,0 1.258,0 0.848,0 0.375,0 0.015,0 m -13.535,-14.1735 0.016,0 0.375,0 0.848,0 1.258,0 1.574,0 1.775,0 1.843,0 1.775,0 1.575,0 1.258,0 0.848,0 0.375,0 0.015,0"
   inkscape:connector-curvature="0" /><path
   id="path522"
   style="fill:#000000;fill-opacity:1;stroke:#000000;stroke-width:0.50999999;stroke-linecap:round;stroke-linejoin:round;stroke-miterlimit:10;stroke-opacity:1;stroke-dasharray:4.07999992, 4.07999992;stroke-dashoffset:0.113"
   d="m 536.1274,440.6885 0,-14.173 m 13.5354,-2e-4 0,14.173 m -13.5354,2e-4 0.016,0 0.375,0 0.848,0 1.258,0 1.574,0 1.775,0 1.843,0 1.775,0 1.575,0 1.258,0 0.848,0 0.375,0 0.015,0 m -13.535,-14.1732 0.016,0 0.375,0 0.848,0 1.258,0 1.574,0 1.775,0 1.843,0 1.775,0 1.575,0 1.258,0 0.848,0 0.375,0 0.015,0"
   inkscape:connector-curvature="0" /><path
   id="path530"
   style="fill:#000000;fill-opacity:1;stroke:#000000;stroke-width:0.50999999;stroke-linecap:round;stroke-linejoin:round;stroke-miterlimit:10;stroke-opacity:1;stroke-dasharray:4.07999992, 4.07999992;stroke-dashoffset:0.113"
   d="m 536.1274,424.8994 0,-14.173 m 13.5354,-2e-4 0,14.173 m -13.5354,2e-4 0.016,0 0.375,0 0.848,0 1.258,0 1.574,0 1.775,0 1.843,0 1.775,0 1.575,0 1.258,0 0.848,0 0.375,0 0.015,0 m -13.535,-14.1732 0.016,0 0.375,0 0.848,0 1.258,0 1.574,0 1.775,0 1.843,0 1.775,0 1.575,0 1.258,0 0.848,0 0.375,0 0.015,0"
   inkscape:connector-curvature="0" /><path
   id="path538"
   style="fill:#000000;fill-opacity:1;stroke:#000000;stroke-width:0.50999999;stroke-linecap:round;stroke-linejoin:round;stroke-miterlimit:10;stroke-opacity:1;stroke-dasharray:4.07999992, 4.07999992;stroke-dashoffset:0.113"
   d="m 536.1274,409.1106 0,-14.173 m 13.5354,-2e-4 0,14.173 m -13.5354,2e-4 0.016,0 0.375,0 0.848,0 1.258,0 1.574,0 1.775,0 1.843,0 1.775,0 1.575,0 1.258,0 0.848,0 0.375,0 0.015,0 m -13.535,-14.1732 0.016,0 0.375,0 0.848,0 1.258,0 1.574,0 1.775,0 1.843,0 1.775,0 1.575,0 1.258,0 0.848,0 0.375,0 0.015,0"
   inkscape:connector-curvature="0" /><path
   id="path546"
   style="fill:#000000;fill-opacity:1;stroke:#000000;stroke-width:0.50999999;stroke-linecap:round;stroke-linejoin:round;stroke-miterlimit:10;stroke-opacity:1;stroke-dasharray:4.07999992, 4.07999992;stroke-dashoffset:0.113"
   d="m 536.1274,393.3214 0,-14.173 m 13.5354,-2e-4 0,14.173 m -13.5354,2e-4 0.016,0 0.375,0 0.848,0 1.258,0 1.574,0 1.775,0 1.843,0 1.775,0 1.575,0 1.258,0 0.848,0 0.375,0 0.015,0 m -13.535,-14.1732 0.016,0 0.375,0 0.848,0 1.258,0 1.574,0 1.775,0 1.843,0 1.775,0 1.575,0 1.258,0 0.848,0 0.375,0 0.015,0"
   inkscape:connector-curvature="0" /><path
   id="path554"
   style="fill:#000000;fill-opacity:1;stroke:#000000;stroke-width:0.50999999;stroke-linecap:round;stroke-linejoin:round;stroke-miterlimit:10;stroke-opacity:1;stroke-dasharray:4.07999992, 4.07999992;stroke-dashoffset:0.113"
   d="m 536.1274,377.5327 0,-14.173 m 13.5354,-3e-4 0,14.173 m -13.5354,3e-4 0.016,0 0.375,0 0.848,0 1.258,0 1.574,0 1.775,0 1.843,0 1.775,0 1.575,0 1.258,0 0.848,0 0.375,0 0.015,0 m -13.535,-14.1733 0.016,0 0.375,0 0.848,0 1.258,0 1.574,0 1.775,0 1.843,0 1.775,0 1.575,0 1.258,0 0.848,0 0.375,0 0.015,0"
   inkscape:connector-curvature="0" /><path
   id="path562"
   style="fill:#000000;fill-opacity:1;stroke:#000000;stroke-width:0.50999999;stroke-linecap:round;stroke-linejoin:round;stroke-miterlimit:10;stroke-opacity:1;stroke-dasharray:4.07999992, 4.07999992;stroke-dashoffset:0.113"
   d="m 536.1274,361.7435 0,-14.173 m 13.5354,-2e-4 0,14.173 m -13.5354,2e-4 0.016,0 0.375,0 0.848,0 1.258,0 1.574,0 1.775,0 1.843,0 1.775,0 1.575,0 1.258,0 0.848,0 0.375,0 0.015,0 m -13.535,-14.1732 0.016,0 0.375,0 0.848,0 1.258,0 1.574,0 1.775,0 1.843,0 1.775,0 1.575,0 1.258,0 0.848,0 0.375,0 0.015,0"
   inkscape:connector-curvature="0" /><path
   id="path570"
   style="fill:#000000;fill-opacity:1;stroke:#000000;stroke-width:0.50999999;stroke-linecap:round;stroke-linejoin:round;stroke-miterlimit:10;stroke-opacity:1;stroke-dasharray:4.07999992, 4.07999992;stroke-dashoffset:0.113"
   d="m 536.1274,345.9547 0,-14.173 m 13.5354,-2e-4 0,14.173 m -13.5354,2e-4 0.016,0 0.375,0 0.848,0 1.258,0 1.574,0 1.775,0 1.843,0 1.775,0 1.575,0 1.258,0 0.848,0 0.375,0 0.015,0 m -13.535,-14.1732 0.016,0 0.375,0 0.848,0 1.258,0 1.574,0 1.775,0 1.843,0 1.775,0 1.575,0 1.258,0 0.848,0 0.375,0 0.015,0"
   inkscape:connector-curvature="0" /><path
   id="path578"
   style="fill:#000000;fill-opacity:1;stroke:#000000;stroke-width:0.50999999;stroke-linecap:round;stroke-linejoin:round;stroke-miterlimit:10;stroke-opacity:1;stroke-dasharray:4.07999992, 4.07999992;stroke-dashoffset:0.113"
   d="m 536.1274,330.1656 0,-5.224 m 13.5354,0.9876 0,4.236 m -13.5354,4e-4 0.016,0 0.375,0 0.848,0 1.258,0 1.574,0 1.775,0 1.843,0 1.775,0 1.575,0 1.258,0 0.848,0 0.375,0 0.015,0"
   inkscape:connector-curvature="0" /><path
   style="fill:#000000;fill-opacity:1;stroke:#000000;stroke-width:0.50959998;stroke-linecap:round;stroke-linejoin:round;stroke-miterlimit:10;stroke-opacity:1;stroke-dasharray:4.0768, 4.0768;stroke-dashoffset:0"
   d="m 515.9022,535.4222 c 0,-4.72433 0,-9.44867 0,-14.173 m 13.5354,-2e-4 c 0,4.72433 0,9.44867 0,14.173 m -13.5354,2e-4 c 2.256,0 4.512,0 6.768,0 m -3e-4,0 c 2.256,0 4.512,0 6.768,0 M 515.9022,521.249 c 2.256,0 4.512,0 6.768,0 m -3e-4,0 c 2.256,0 4.512,0 6.768,0"
   id="path586"
   inkscape:connector-curvature="0" /><path
   id="path594"
   style="fill:none;stroke:#000000;stroke-width:0.50959998;stroke-linecap:round;stroke-linejoin:round;stroke-miterlimit:10;stroke-opacity:1;stroke-dasharray:4.0768, 4.0768;stroke-dashoffset:0"
   d="m 515.9022,519.6335 0,-14.173 m 13.5354,-2e-4 0,14.173 m -13.5354,2e-4 0.142,0 0.617,0 1.063,0 1.429,0 1.691,0 1.826,0 m -3e-4,0 1.826,0 1.69,0 1.43,0 1.063,0 0.617,0 0.142,0 m -13.5357,-14.1732 0.142,0 0.617,0 1.063,0 1.429,0 1.691,0 1.826,0 m -3e-4,0 1.826,0 1.69,0 1.43,0 1.063,0 0.617,0 0.142,0"
   inkscape:connector-curvature="0" /><path
   id="path602"
   style="fill:none;stroke:#000000;stroke-width:0.50959998;stroke-linecap:round;stroke-linejoin:round;stroke-miterlimit:10;stroke-opacity:1;stroke-dasharray:4.0768, 4.0768;stroke-dashoffset:0"
   d="m 515.9022,503.8444 0,-14.173 m 13.5354,-3e-4 0,14.173 m -13.5354,3e-4 0.142,0 0.617,0 1.063,0 1.429,0 1.691,0 1.826,0 m -3e-4,0 1.826,0 1.69,0 1.43,0 1.063,0 0.617,0 0.142,0 m -13.5357,-14.1733 0.142,0 0.617,0 1.063,0 1.429,0 1.691,0 1.826,0 m -3e-4,0 1.826,0 1.69,0 1.43,0 1.063,0 0.617,0 0.142,0"
   inkscape:connector-curvature="0" /><path
   id="path610"
   style="fill:none;stroke:#000000;stroke-width:0.50959998;stroke-linecap:round;stroke-linejoin:round;stroke-miterlimit:10;stroke-opacity:1;stroke-dasharray:4.0768, 4.0768;stroke-dashoffset:0"
   d="m 515.9022,488.0555 0,-14.173 m 13.5354,-10e-5 0,14.173 m -13.5354,10e-5 0.142,0 0.617,0 1.063,0 1.429,0 1.691,0 1.826,0 m -3e-4,0 1.826,0 1.69,0 1.43,0 1.063,0 0.617,0 0.142,0 m -13.5357,-14.1731 0.142,0 0.617,0 1.063,0 1.429,0 1.691,0 1.826,0 m -3e-4,0 1.826,0 1.69,0 1.43,0 1.063,0 0.617,0 0.142,0"
   inkscape:connector-curvature="0" /><path
   id="path618"
   style="fill:none;stroke:#000000;stroke-width:0.50959998;stroke-linecap:round;stroke-linejoin:round;stroke-miterlimit:10;stroke-opacity:1;stroke-dasharray:4.0768, 4.0768;stroke-dashoffset:0"
   d="m 515.9022,472.2664 0,-14.173 m 13.5354,-2e-4 0,14.173 m -13.5354,2e-4 0.142,0 0.617,0 1.063,0 1.429,0 1.691,0 1.826,0 m -3e-4,0 1.826,0 1.69,0 1.43,0 1.063,0 0.617,0 0.142,0 m -13.5357,-14.1732 0.142,0 0.617,0 1.063,0 1.429,0 1.691,0 1.826,0 m -3e-4,0 1.826,0 1.69,0 1.43,0 1.063,0 0.617,0 0.142,0"
   inkscape:connector-curvature="0" /><path
   id="path626"
   style="fill:none;stroke:#000000;stroke-width:0.50959998;stroke-linecap:round;stroke-linejoin:round;stroke-miterlimit:10;stroke-opacity:1;stroke-dasharray:4.0768, 4.0768;stroke-dashoffset:0"
   d="m 515.9022,456.4776 0,-14.174 m 13.5354,5e-4 0,14.174 m -13.5354,-5e-4 0.142,0 0.617,0 1.063,0 1.429,0 1.691,0 1.826,0 m -3e-4,0 1.826,0 1.69,0 1.43,0 1.063,0 0.617,0 0.142,0 m -13.5357,-14.1735 0.142,0 0.617,0 1.063,0 1.429,0 1.691,0 1.826,0 m -3e-4,0 1.826,0 1.69,0 1.43,0 1.063,0 0.617,0 0.142,0"
   inkscape:connector-curvature="0" /><path
   id="path634"
   style="fill:none;stroke:#000000;stroke-width:0.50959998;stroke-linecap:round;stroke-linejoin:round;stroke-miterlimit:10;stroke-opacity:1;stroke-dasharray:4.0768, 4.0768;stroke-dashoffset:0"
   d="m 515.9022,440.6885 0,-14.173 m 13.5354,-2e-4 0,14.173 m -13.5354,2e-4 0.142,0 0.617,0 1.063,0 1.429,0 1.691,0 1.826,0 m -3e-4,0 1.826,0 1.69,0 1.43,0 1.063,0 0.617,0 0.142,0 m -13.5357,-14.1732 0.142,0 0.617,0 1.063,0 1.429,0 1.691,0 1.826,0 m -3e-4,0 1.826,0 1.69,0 1.43,0 1.063,0 0.617,0 0.142,0"
   inkscape:connector-curvature="0" /><path
   id="path642"
   style="fill:none;stroke:#000000;stroke-width:0.50959998;stroke-linecap:round;stroke-linejoin:round;stroke-miterlimit:10;stroke-opacity:1;stroke-dasharray:4.0768, 4.0768;stroke-dashoffset:0"
   d="m 515.9022,424.8994 0,-14.173 m 13.5354,-2e-4 0,14.173 m -13.5354,2e-4 0.142,0 0.617,0 1.063,0 1.429,0 1.691,0 1.826,0 m -3e-4,0 1.826,0 1.69,0 1.43,0 1.063,0 0.617,0 0.142,0 m -13.5357,-14.1732 0.142,0 0.617,0 1.063,0 1.429,0 1.691,0 1.826,0 m -3e-4,0 1.826,0 1.69,0 1.43,0 1.063,0 0.617,0 0.142,0"
   inkscape:connector-curvature="0" /><path
   id="path650"
   style="fill:none;stroke:#000000;stroke-width:0.50959998;stroke-linecap:round;stroke-linejoin:round;stroke-miterlimit:10;stroke-opacity:1;stroke-dasharray:4.0768, 4.0768;stroke-dashoffset:0"
   d="m 515.9022,409.1106 0,-14.173 m 13.5354,-2e-4 0,14.173 m -13.5354,2e-4 0.142,0 0.617,0 1.063,0 1.429,0 1.691,0 1.826,0 m -3e-4,0 1.826,0 1.69,0 1.43,0 1.063,0 0.617,0 0.142,0 m -13.5357,-14.1732 0.142,0 0.617,0 1.063,0 1.429,0 1.691,0 1.826,0 m -3e-4,0 1.826,0 1.69,0 1.43,0 1.063,0 0.617,0 0.142,0"
   inkscape:connector-curvature="0" /><path
   id="path658"
   style="fill:none;stroke:#000000;stroke-width:0.50959998;stroke-linecap:round;stroke-linejoin:round;stroke-miterlimit:10;stroke-opacity:1;stroke-dasharray:4.0768, 4.0768;stroke-dashoffset:0"
   d="m 515.9022,393.3214 0,-14.173 m 13.5354,-2e-4 0,14.173 m -13.5354,2e-4 0.142,0 0.617,0 1.063,0 1.429,0 1.691,0 1.826,0 m -3e-4,0 1.826,0 1.69,0 1.43,0 1.063,0 0.617,0 0.142,0 m -13.5357,-14.1732 0.142,0 0.617,0 1.063,0 1.429,0 1.691,0 1.826,0 m -3e-4,0 1.826,0 1.69,0 1.43,0 1.063,0 0.617,0 0.142,0"
   inkscape:connector-curvature="0" /><path
   id="path666"
   style="fill:none;stroke:#000000;stroke-width:0.50959998;stroke-linecap:round;stroke-linejoin:round;stroke-miterlimit:10;stroke-opacity:1;stroke-dasharray:4.0768, 4.0768;stroke-dashoffset:0"
   d="m 515.9022,377.5327 0,-14.173 m 13.5354,-3e-4 0,14.173 m -13.5354,3e-4 0.142,0 0.617,0 1.063,0 1.429,0 1.691,0 1.826,0 m -3e-4,0 1.826,0 1.69,0 1.43,0 1.063,0 0.617,0 0.142,0 m -13.5357,-14.1733 0.142,0 0.617,0 1.063,0 1.429,0 1.691,0 1.826,0 m -3e-4,0 1.826,0 1.69,0 1.43,0 1.063,0 0.617,0 0.142,0"
   inkscape:connector-curvature="0" /><path
   id="path674"
   style="fill:none;stroke:#000000;stroke-width:0.50959998;stroke-linecap:round;stroke-linejoin:round;stroke-miterlimit:10;stroke-opacity:1;stroke-dasharray:4.0768, 4.0768;stroke-dashoffset:0"
   d="m 515.9022,361.7435 0,-14.173 m 13.5354,-2e-4 0,14.173 m -13.5354,2e-4 0.142,0 0.617,0 1.063,0 1.429,0 1.691,0 1.826,0 m -3e-4,0 1.826,0 1.69,0 1.43,0 1.063,0 0.617,0 0.142,0 m -13.5357,-14.1732 0.142,0 0.617,0 1.063,0 1.429,0 1.691,0 1.826,0 m -3e-4,0 1.826,0 1.69,0 1.43,0 1.063,0 0.617,0 0.142,0"
   inkscape:connector-curvature="0" /><path
   id="path682"
   style="fill:none;stroke:#000000;stroke-width:0.50959998;stroke-linecap:round;stroke-linejoin:round;stroke-miterlimit:10;stroke-opacity:1;stroke-dasharray:4.0768, 4.0768;stroke-dashoffset:0"
   d="m 515.9022,345.9547 0,-14.173 m 13.5354,-2e-4 0,14.173 m -13.5354,2e-4 0.142,0 0.617,0 1.063,0 1.429,0 1.691,0 1.826,0 m -3e-4,0 1.826,0 1.69,0 1.43,0 1.063,0 0.617,0 0.142,0 m -13.5357,-14.1732 0.142,0 0.617,0 1.063,0 1.429,0 1.691,0 1.826,0 m -3e-4,0 1.826,0 1.69,0 1.43,0 1.063,0 0.617,0 0.142,0"
   inkscape:connector-curvature="0" /><path
   id="path690"
   style="fill:none;stroke:#000000;stroke-width:0.50959998;stroke-linecap:round;stroke-linejoin:round;stroke-miterlimit:10;stroke-opacity:1;stroke-dasharray:4.0768, 4.0768;stroke-dashoffset:0"
   d="m 515.9022,330.1656 0,-3.551 m 13.5354,-1.538 0,5.089 m -13.5354,0 0.142,0 0.617,0 1.063,0 1.429,0 1.691,0 1.826,0 m -3e-4,0 1.826,0 1.69,0 1.43,0 1.063,0 0.617,0 0.142,0"
   inkscape:connector-curvature="0" /><text
   transform="scale(1,-1)"
   sodipodi:linespacing="125%"
   id="text5406"
   y="-463.20877"
   x="596.11194"
   style="font-size:11.19999981px;font-style:normal;font-variant:normal;font-weight:normal;font-stretch:normal;text-align:center;line-height:125%;letter-spacing:0px;word-spacing:0px;writing-mode:lr-tb;text-anchor:middle;fill:#000000;fill-opacity:1;stroke:none;font-family:Times New Roman;-inkscape-font-specification:'Times New Roman,'"
   xml:space="preserve"><tspan
     y="-463.20877"
     x="596.11194"
     id="tspan5408"
     sodipodi:role="line">Heated Length</tspan></text>

<text
   transform="scale(1,-1)"
   sodipodi:linespacing="125%"
   id="text5924"
   y="-304.13406"
   x="533.91064"
   style="font-size:11.19999981px;font-style:normal;font-variant:normal;font-weight:normal;font-stretch:normal;text-align:center;line-height:125%;letter-spacing:0px;word-spacing:0px;writing-mode:lr-tb;text-anchor:middle;fill:#000000;fill-opacity:1;stroke:none;font-family:Times New Roman;-inkscape-font-specification:'Times New Roman,'"
   xml:space="preserve"><tspan
     y="-304.13406"
     x="533.91064"
     id="tspan5926"
     sodipodi:role="line">\Large{Detail View A}</tspan></text>

<text
   transform="scale(1,-1)"
   sodipodi:linespacing="125%"
   id="text5928"
   y="-449.2363"
   x="596.15845"
   style="font-size:11.19999981px;font-style:normal;font-variant:normal;font-weight:normal;font-stretch:normal;text-align:center;line-height:125%;letter-spacing:0px;word-spacing:0px;writing-mode:lr-tb;text-anchor:middle;fill:#000000;fill-opacity:1;stroke:none;font-family:Times New Roman;-inkscape-font-specification:'Times New Roman,'"
   xml:space="preserve"><tspan
     y="-449.2363"
     x="596.15845"
     id="tspan5930"
     sodipodi:role="line">$\frac{3707.9\,mm}{4178.7\,mm}$</tspan></text>

<text
   transform="scale(1,-1)"
   sodipodi:linespacing="125%"
   id="text5932"
   y="-434.61307"
   x="596.15845"
   style="font-size:11.19999981px;font-style:normal;font-variant:normal;font-weight:normal;font-stretch:normal;text-align:center;line-height:125%;letter-spacing:0px;word-spacing:0px;writing-mode:lr-tb;text-anchor:middle;fill:#000000;fill-opacity:1;stroke:none;font-family:Times New Roman;-inkscape-font-specification:'Times New Roman,'"
   xml:space="preserve"><tspan
     y="-434.61307"
     x="596.15845"
     id="tspan5934"
     sodipodi:role="line">$~90\%$</tspan></text>

<path
   id="path474"
   style="fill:#000000;fill-opacity:1;stroke:#000000;stroke-width:0.50999999;stroke-linecap:round;stroke-linejoin:round;stroke-miterlimit:10;stroke-opacity:1;stroke-dasharray:4.07999992, 4.07999992;stroke-dashoffset:0.113"
   d="m 536.1274,535.4222 0,-14.173 m 13.5354,-2e-4 0,14.173 m -13.5354,2e-4 0.016,0 0.375,0 0.848,0 1.258,0 1.574,0 1.775,0 1.843,0 1.775,0 1.575,0 1.258,0 0.848,0 0.375,0 0.015,0 m -13.535,-14.1732 0.016,0 0.375,0 0.848,0 1.258,0 1.574,0 1.775,0 1.843,0 1.775,0 1.575,0 1.258,0 0.848,0 0.375,0 0.015,0"
   inkscape:connector-curvature="0" /><g
   transform="matrix(0.8,0,0,-0.8,468.14268,409.70627)"
   id="g5119"><rect
     y="158.60385"
     x="33.788563"
     height="22.852598"
     width="45.705196"
     id="rect5025"
     style="fill:#a7a9ac;fill-opacity:1;fill-rule:evenodd;stroke:#000000;stroke-width:1;stroke-linecap:butt;stroke-linejoin:round;stroke-miterlimit:4;stroke-opacity:1;stroke-dasharray:none;stroke-dashoffset:0" /><rect
     y="186.6814"
     x="33.788563"
     height="22.852598"
     width="45.705196"
     id="rect5025-5"
     style="fill:#e3ae24;fill-opacity:0.39215686;fill-rule:evenodd;stroke:#000000;stroke-width:1;stroke-linecap:butt;stroke-linejoin:round;stroke-miterlimit:4;stroke-opacity:1;stroke-dasharray:none;stroke-dashoffset:0" /><rect
     y="214.75893"
     x="33.788563"
     height="22.852598"
     width="45.705196"
     id="rect5025-3"
     style="fill:#7299c6;fill-opacity:0.39215686;fill-rule:evenodd;stroke:#000000;stroke-width:1;stroke-linecap:butt;stroke-linejoin:round;stroke-miterlimit:4;stroke-opacity:1;stroke-dasharray:none;stroke-dashoffset:0" /><rect
     y="242.83647"
     x="33.788563"
     height="22.852598"
     width="45.705196"
     id="rect5025-35"
     style="fill:#ffffff;fill-opacity:1;fill-rule:evenodd;stroke:#000000;stroke-width:1;stroke-linecap:butt;stroke-linejoin:round;stroke-miterlimit:4;stroke-opacity:1;stroke-dasharray:none;stroke-dashoffset:0" /><text
     sodipodi:linespacing="125%"
     id="text5063"
     y="173.37976"
     x="92.713242"
     style="font-size:14px;font-style:normal;font-variant:normal;font-weight:normal;font-stretch:normal;text-align:start;line-height:125%;letter-spacing:0px;word-spacing:0px;writing-mode:lr-tb;text-anchor:start;fill:#000000;fill-opacity:1;stroke:none;font-family:Times New Roman;-inkscape-font-specification:'Times New Roman,'"
     xml:space="preserve"><tspan
       y="173.37976"
       x="92.713242"
       id="tspan5065"
       sodipodi:role="line">\textsc{Cladding}</tspan></text>
<text
     sodipodi:linespacing="125%"
     id="text5063-0"
     y="201.45731"
     x="92.713242"
     style="font-size:14px;font-style:normal;font-variant:normal;font-weight:normal;font-stretch:normal;text-align:start;line-height:125%;letter-spacing:0px;word-spacing:0px;writing-mode:lr-tb;text-anchor:start;fill:#000000;fill-opacity:1;stroke:none;font-family:Times New Roman;-inkscape-font-specification:'Times New Roman,'"
     xml:space="preserve"><tspan
       y="201.45731"
       x="92.713242"
       id="tspan5065-7"
       sodipodi:role="line">\textsc{Fuel}</tspan></text>
<text
     sodipodi:linespacing="125%"
     id="text5063-7"
     y="229.53484"
     x="92.713242"
     style="font-size:14px;font-style:normal;font-variant:normal;font-weight:normal;font-stretch:normal;text-align:start;line-height:125%;letter-spacing:0px;word-spacing:0px;writing-mode:lr-tb;text-anchor:start;fill:#000000;fill-opacity:1;stroke:none;font-family:Times New Roman;-inkscape-font-specification:'Times New Roman,'"
     xml:space="preserve"><tspan
       y="229.53484"
       x="92.713242"
       id="tspan5065-3"
       sodipodi:role="line">\textsc{Water Channel}</tspan></text>
<text
     sodipodi:linespacing="125%"
     id="text5063-01"
     y="257.61237"
     x="92.713242"
     style="font-size:14px;font-style:normal;font-variant:normal;font-weight:normal;font-stretch:normal;text-align:start;line-height:125%;letter-spacing:0px;word-spacing:0px;writing-mode:lr-tb;text-anchor:start;fill:#000000;fill-opacity:1;stroke:none;font-family:Times New Roman;-inkscape-font-specification:'Times New Roman,'"
     xml:space="preserve"><tspan
       y="257.61237"
       x="92.713242"
       id="tspan5065-1"
       sodipodi:role="line">\textsc{Air}</tspan></text>
</g></g><text
   xml:space="preserve"
   style="font-size:11.19999981px;font-style:normal;font-variant:normal;font-weight:normal;font-stretch:normal;text-align:center;line-height:125%;letter-spacing:0px;word-spacing:0px;writing-mode:lr-tb;text-anchor:middle;fill:#000000;fill-opacity:1;stroke:none;font-family:Times New Roman;-inkscape-font-specification:'Times New Roman,'"
   x="723.83942"
   y="-463.49789"
   id="text5406-1"
   sodipodi:linespacing="125%"
   transform="scale(1,-1)"><tspan
     sodipodi:role="line"
     id="tspan5408-6"
     x="723.83942"
     y="-463.49789">Fuel Pin Length</tspan></text>

<text
   xml:space="preserve"
   style="font-size:11.19999981px;font-style:normal;font-variant:normal;font-weight:normal;font-stretch:normal;text-align:center;line-height:125%;letter-spacing:0px;word-spacing:0px;writing-mode:lr-tb;text-anchor:middle;fill:#000000;fill-opacity:1;stroke:none;font-family:Times New Roman;-inkscape-font-specification:'Times New Roman,'"
   x="723.88043"
   y="-447.34012"
   id="text5957"
   sodipodi:linespacing="125%"
   transform="scale(1,-1)"><tspan
     sodipodi:role="line"
     id="tspan5959"
     x="723.88043"
     y="-447.34012">$4178.70\,mm$</tspan></text>

</g></svg>