<?xml version="1.0" encoding="utf-8" standalone="no"?><!DOCTYPE svg PUBLIC "-//W3C//DTD SVG 1.1//EN" "http://www.w3.org/Graphics/SVG/1.1/DTD/svg11.dtd">
<svg preserveAspectRatio="xMinYMin meet" width="100%" height="100%" viewBox="0 0 638.438 284.063"  version="1.1" xmlns="http://www.w3.org/2000/svg" xmlns:xlink="http://www.w3.org/1999/xlink">
  <desc>Matlab Figure Converted by PLOT2SVG written by Juerg Schwizer</desc>
  <g id="topgroup">
  <rect x="0" y="0" width="638.438" height="284.063" fill="#ffffff" stroke="none" />
  <g id ="ID000000">
  <clipPath id="ID000001">
    <rect x="82.997" y="21.305" width="494.789" height="221.508"/>
  </clipPath>
      <polygon fill="#ffffff" fill-opacity="1.00" stroke="none" stroke-width="0.5pt" stroke-opacity="1.00" stroke-dasharray="none" points="82.997,242.813 577.786,242.813 577.786,21.305 82.997,21.305 "/>
      <polygon fill="#ffffff" fill-opacity="1.00" stroke="none" stroke-width="0.5pt" stroke-opacity="1.00" stroke-dasharray="none" points="82.997,21.305 577.786,21.305 577.786,21.305 82.997,21.305 "/>
      <polygon fill="#ffffff" fill-opacity="1.00" stroke="none" stroke-width="0.5pt" stroke-opacity="1.00" stroke-dasharray="none" points="82.997,242.813 82.997,242.812 82.997,21.305 82.997,21.305 "/>
    <g>
<g id="ID000002" clip-path="url(#ID000001)" >
      <polyline fill="none" stroke="#000000" stroke-width="0.5pt" stroke-dasharray="none" points="82.997,242.813 83.492,242.636 83.987,242.460 84.483,242.283 84.978,242.107 85.473,241.930 85.969,241.754 86.464,241.577 86.959,241.401 87.454,241.224 87.950,241.048 88.445,240.871 88.940,240.695 89.436,240.518 89.931,240.342 90.426,240.165 90.921,239.989 91.417,239.812 91.912,239.636 92.407,239.459 92.903,239.283 93.398,239.106 93.893,238.930 94.388,238.753 94.884,238.576 95.379,238.400 95.874,238.223 96.370,238.047 96.865,237.870 97.360,237.694 97.855,237.517 98.351,237.341 98.846,237.164 99.341,236.988 99.837,236.811 100.332,236.635 100.827,236.458 101.322,236.282 101.818,236.105 102.313,235.929 102.808,235.752 103.304,235.576 103.799,235.399 104.294,235.223 104.789,235.046 105.285,234.870 105.780,234.693 106.275,234.517 106.771,234.340 107.266,234.164 107.761,233.987 108.256,233.811 108.752,233.634 109.247,233.457 109.742,233.281 110.238,233.104 110.733,232.928 111.228,232.751 111.723,232.575 112.219,232.398 112.714,232.222 113.209,232.045 113.705,231.869 114.200,231.692 114.695,231.515 115.190,231.339 115.686,231.162 116.181,230.986 116.676,230.809 117.171,230.633 117.667,230.456 118.162,230.279 118.657,230.103 119.153,229.926 119.648,229.750 120.143,229.573 120.638,229.397 121.134,229.220 121.629,229.043 122.124,228.867 122.620,228.690 123.115,228.514 123.610,228.337 124.105,228.161 124.601,227.984 125.096,227.807 125.591,227.631 126.087,227.454 126.582,227.278 127.077,227.101 127.572,226.924 128.068,226.748 128.563,226.571 129.058,226.394 129.554,226.218 130.049,226.041 130.544,225.865 131.039,225.688 131.535,225.511 132.030,225.335 132.525,225.158 133.021,224.981 133.516,224.805 134.011,224.628 134.506,224.451 135.002,224.275 135.497,224.098 135.992,223.921 136.488,223.745 136.983,223.568 137.478,223.391 137.973,223.215 138.469,223.038 138.964,222.861 139.459,222.685 139.955,222.508 140.450,222.331 140.945,222.155 141.440,221.978 141.936,221.801 142.431,221.625 142.926,221.448 143.422,221.271 143.917,221.095 144.412,220.918 144.907,220.741 145.403,220.564 145.898,220.388 146.393,220.211 146.889,220.034 147.384,219.857 147.879,219.681 148.374,219.504 148.870,219.327 149.365,219.150 149.860,218.974 150.356,218.797 150.851,218.620 151.346,218.443 151.841,218.267 152.337,218.090 152.832,217.913 153.327,217.736 153.823,217.560 154.318,217.383 154.813,217.206 155.308,217.029 155.804,216.852 156.299,216.676 156.794,216.499 157.290,216.322 157.785,216.145 158.280,215.968 158.775,215.791 159.271,215.615 159.766,215.438 160.261,215.261 160.757,215.084 161.252,214.907 161.747,214.730 162.242,214.554 162.738,214.377 163.233,214.200 163.728,214.023 164.224,213.846 164.719,213.669 165.214,213.492 165.709,213.315 166.205,213.139 166.700,212.962 167.195,212.785 167.690,212.608 168.186,212.431 168.681,212.254 169.176,212.077 169.672,211.900 170.167,211.723 170.662,211.546 171.157,211.369 171.653,211.192 172.148,211.015 172.643,210.838 173.139,210.661 173.634,210.485 174.129,210.308 174.624,210.131 175.120,209.954 175.615,209.777 176.110,209.600 176.606,209.423 177.101,209.246 177.596,209.069 178.091,208.892 178.587,208.715 179.082,208.538 179.577,208.360 180.073,208.183 180.568,208.006 181.063,207.829 181.558,207.652 182.054,207.475 182.549,207.298 183.044,207.121 183.540,206.944 184.035,206.767 184.530,206.590 185.025,206.413 185.521,206.236 186.016,206.059 186.511,205.881 187.007,205.704 187.502,205.527 187.997,205.350 188.492,205.173 188.988,204.996 189.483,204.819 189.978,204.641 190.474,204.464 190.969,204.287 191.464,204.110 191.959,203.933 192.455,203.756 192.950,203.578 193.445,203.401 193.941,203.224 194.436,203.047 194.931,202.870 195.426,202.692 195.922,202.515 196.417,202.338 196.912,202.161 197.408,201.983 197.903,201.806 198.398,201.629 198.893,201.452 199.389,201.274 199.884,201.097 200.379,200.920 200.875,200.742 201.370,200.565 201.865,200.388 202.360,200.210 202.856,200.033 203.351,199.856 203.846,199.678 204.342,199.501 204.837,199.324 205.332,199.146 205.827,198.969 206.323,198.792 206.818,198.614 207.313,198.437 207.809,198.259 208.304,198.082 208.799,197.905 209.294,197.727 209.790,197.550 210.285,197.372 210.780,197.195 211.276,197.018 211.771,196.840 212.266,196.663 212.761,196.485 213.257,196.308 213.752,196.130 214.247,195.953 214.743,195.775 215.238,195.598 215.733,195.420 216.228,195.243 216.724,195.065 217.219,194.888 217.714,194.710 218.210,194.532 218.705,194.355 219.200,194.177 219.695,194.000 220.191,193.822 220.686,193.645 221.181,193.467 221.676,193.289 222.172,193.112 222.667,192.934 223.162,192.756 223.658,192.579 224.153,192.401 224.648,192.224 225.143,192.046 225.639,191.868 226.134,191.691 226.629,191.513 227.125,191.335 227.620,191.157 228.115,190.980 228.610,190.802 229.106,190.624 229.601,190.447 230.096,190.269 230.592,190.091 231.087,189.913 231.582,189.735 232.077,189.558 232.573,189.380 233.068,189.202 233.563,189.024 234.059,188.846 234.554,188.669 235.049,188.491 235.544,188.313 236.040,188.135 236.535,187.957 237.030,187.779 237.526,187.602 238.021,187.424 238.516,187.246 239.011,187.068 239.507,186.890 240.002,186.712 240.497,186.534 240.993,186.356 241.488,186.178 241.983,186.000 242.478,185.822 242.974,185.644 243.469,185.466 243.964,185.288 244.460,185.110 244.955,184.932 245.450,184.754 245.945,184.576 246.441,184.398 246.936,184.220 247.431,184.042 247.927,183.864 248.422,183.686 248.917,183.508 249.412,183.330 249.908,183.152 250.403,182.973 250.898,182.795 251.394,182.617 251.889,182.439 252.384,182.261 252.879,182.083 253.375,181.904 253.870,181.726 254.365,181.548 254.861,181.370 255.356,181.192 255.851,181.013 256.346,180.835 256.842,180.657 257.337,180.479 257.832,180.300 258.328,180.122 258.823,179.944 259.318,179.766 259.813,179.587 260.309,179.409 260.804,179.231 261.299,179.052 261.795,178.874 262.290,178.696 262.785,178.517 263.280,178.339 263.776,178.160 264.271,177.982 264.766,177.804 265.262,177.625 265.757,177.447 266.252,177.268 266.747,177.090 267.243,176.911 267.738,176.733 268.233,176.554 268.729,176.376 269.224,176.197 269.719,176.019 270.214,175.840 270.710,175.662 271.205,175.483 271.700,175.305 272.195,175.126 272.691,174.947 273.186,174.769 273.681,174.590 274.177,174.412 274.672,174.233 275.167,174.054 275.662,173.876 276.158,173.697 276.653,173.518 277.148,173.340 277.644,173.161 278.139,172.982 278.634,172.804 279.129,172.625 279.625,172.446 280.120,172.267 280.615,172.089 281.111,171.910 281.606,171.731 282.101,171.552 282.596,171.373 283.092,171.195 283.587,171.016 284.082,170.837 284.578,170.658 285.073,170.479 285.568,170.300 286.063,170.121 286.559,169.942 287.054,169.763 287.549,169.585 288.045,169.406 288.540,169.227 289.035,169.048 289.530,168.869 290.026,168.690 290.521,168.511 291.016,168.332 291.512,168.153 292.007,167.974 292.502,167.795 292.997,167.615 293.493,167.436 293.988,167.257 294.483,167.078 294.979,166.899 295.474,166.720 295.969,166.541 296.464,166.362 296.960,166.183 297.455,166.003 297.950,165.824 298.446,165.645 298.941,165.466 299.436,165.287 299.931,165.107 300.427,164.928 300.922,164.749 301.417,164.569 301.913,164.390 302.408,164.211 302.903,164.032 303.398,163.852 303.894,163.673 304.389,163.494 304.884,163.314 305.380,163.135 305.875,162.955 306.370,162.776 306.865,162.597 307.361,162.417 307.856,162.238 308.351,162.058 308.847,161.879 309.342,161.699 309.837,161.520 310.332,161.340 310.828,161.161 311.323,160.981 311.818,160.802 312.314,160.622 312.809,160.442 313.304,160.263 313.799,160.083 314.295,159.904 314.790,159.724 315.285,159.544 315.781,159.365 316.276,159.185 316.771,159.005 317.266,158.826 317.762,158.646 318.257,158.466 318.752,158.286 319.248,158.107 319.743,157.927 320.238,157.747 320.733,157.567 321.229,157.387 321.724,157.208 322.219,157.028 322.714,156.848 323.210,156.668 323.705,156.488 324.200,156.308 324.696,156.128 325.191,155.948 325.686,155.769 326.181,155.589 326.677,155.409 327.172,155.229 327.667,155.049 328.163,154.869 328.658,154.689 329.153,154.509 329.648,154.328 330.144,154.148 330.639,153.968 331.134,153.788 331.630,153.608 332.125,153.428 332.620,153.248 333.115,153.068 333.611,152.887 334.106,152.707 334.601,152.527 335.097,152.347 335.592,152.167 336.087,151.986 336.582,151.806 337.078,151.626 337.573,151.446 338.068,151.265 338.564,151.085 339.059,150.905 339.554,150.724 340.049,150.544 340.545,150.363 341.040,150.183 341.535,150.003 342.031,149.822 342.526,149.642 343.021,149.461 343.516,149.281 344.012,149.100 344.507,148.920 345.002,148.739 345.498,148.559 345.993,148.378 346.488,148.198 346.983,148.017 347.479,147.836 347.974,147.656 348.469,147.475 348.965,147.295 349.460,147.114 349.955,146.933 350.450,146.752 350.946,146.572 351.441,146.391 351.936,146.210 352.432,146.030 352.927,145.849 353.422,145.668 353.917,145.487 354.413,145.306 354.908,145.125 355.403,144.945 355.899,144.764 356.394,144.583 356.889,144.402 357.384,144.221 357.880,144.040 358.375,143.859 358.870,143.678 359.366,143.497 359.861,143.316 360.356,143.135 360.851,142.954 361.347,142.773 361.842,142.592 362.337,142.411 362.833,142.230 363.328,142.049 363.823,141.868 364.318,141.686 364.814,141.505 365.309,141.324 365.804,141.143 366.300,140.962 366.795,140.780 367.290,140.599 367.785,140.418 368.281,140.237 368.776,140.055 369.271,139.874 369.767,139.693 370.262,139.511 370.757,139.330 371.252,139.148 371.748,138.967 372.243,138.786 372.738,138.604 373.234,138.423 373.729,138.241 374.224,138.060 374.719,137.878 375.215,137.697 375.710,137.515 376.205,137.334 376.700,137.152 377.196,136.970 377.691,136.789 378.186,136.607 378.682,136.425 379.177,136.244 379.672,136.062 380.167,135.880 380.663,135.699 381.158,135.517 381.653,135.335 382.149,135.153 382.644,134.972 383.139,134.790 383.634,134.608 384.130,134.426 384.625,134.244 385.120,134.062 385.616,133.880 386.111,133.699 386.606,133.517 387.101,133.335 387.597,133.153 388.092,132.971 388.587,132.789 389.083,132.607 389.578,132.425 390.073,132.242 390.568,132.060 391.064,131.878 391.559,131.696 392.054,131.514 392.550,131.332 393.045,131.150 393.540,130.967 394.035,130.785 394.531,130.603 395.026,130.421 395.521,130.238 396.017,130.056 396.512,129.874 397.007,129.692 397.502,129.509 397.998,129.327 398.493,129.144 398.988,128.962 399.484,128.780 399.979,128.597 400.474,128.415 400.969,128.232 401.465,128.050 401.960,127.867 402.455,127.685 402.951,127.502 403.446,127.320 403.941,127.137 404.436,126.954 404.932,126.772 405.427,126.589 405.922,126.406 406.418,126.224 406.913,126.041 407.408,125.858 407.903,125.675 408.399,125.493 408.894,125.310 409.389,125.127 409.885,124.944 410.380,124.761 410.875,124.578 411.370,124.396 411.866,124.213 412.361,124.030 412.856,123.847 413.352,123.664 413.847,123.481 414.342,123.298 414.837,123.115 415.333,122.932 415.828,122.749 416.323,122.566 416.819,122.382 417.314,122.199 417.809,122.016 418.304,121.833 418.800,121.650 419.295,121.467 419.790,121.283 420.286,121.100 420.781,120.917 421.276,120.733 421.771,120.550 422.267,120.367 422.762,120.183 423.257,120.000 423.753,119.817 424.248,119.633 424.743,119.450 425.238,119.266 425.734,119.083 426.229,118.899 426.724,118.716 427.219,118.532 427.715,118.349 428.210,118.165 428.705,117.981 429.201,117.798 429.696,117.614 430.191,117.430 430.686,117.247 431.182,117.063 431.677,116.879 432.172,116.696 432.668,116.512 433.163,116.328 433.658,116.144 434.153,115.960 434.649,115.776 435.144,115.593 435.639,115.409 436.135,115.225 436.630,115.041 437.125,114.857 437.620,114.673 438.116,114.489 438.611,114.305 439.106,114.121 439.602,113.937 440.097,113.752 440.592,113.568 441.087,113.384 441.583,113.200 442.078,113.016 442.573,112.832 443.069,112.647 443.564,112.463 444.059,112.279 444.554,112.095 445.050,111.910 445.545,111.726 446.040,111.542 446.536,111.357 447.031,111.173 447.526,110.988 448.021,110.804 448.517,110.619 449.012,110.435 449.507,110.250 450.003,110.066 450.498,109.881 450.993,109.697 451.488,109.512 451.984,109.327 452.479,109.143 452.974,108.958 453.470,108.773 453.965,108.589 454.460,108.404 454.955,108.219 455.451,108.034 455.946,107.849 456.441,107.665 456.937,107.480 457.432,107.295 457.927,107.110 458.422,106.925 458.918,106.740 459.413,106.555 459.908,106.370 460.404,106.185 460.899,106.000 461.394,105.815 461.889,105.630 462.385,105.445 462.880,105.259 463.375,105.074 463.871,104.889 464.366,104.704 464.861,104.519 465.356,104.333 465.852,104.148 466.347,103.963 466.842,103.777 467.338,103.592 467.833,103.407 468.328,103.221 468.823,103.036 469.319,102.850 469.814,102.665 470.309,102.479 470.805,102.294 471.300,102.108 471.795,101.923 472.290,101.737 472.786,101.551 473.281,101.366 473.776,101.180 474.272,100.994 474.767,100.809 475.262,100.623 475.757,100.437 476.253,100.251 476.748,100.066 477.243,99.880 477.738,99.694 478.234,99.508 478.729,99.322 479.224,99.136 479.720,98.950 480.215,98.764 480.710,98.578 481.205,98.392 481.701,98.206 482.196,98.020 482.691,97.834 483.187,97.648 483.682,97.461 484.177,97.275 484.672,97.089 485.168,96.903 485.663,96.717 486.158,96.530 486.654,96.344 487.149,96.158 487.644,95.971 488.139,95.785 488.635,95.598 489.130,95.412 489.625,95.226 490.121,95.039 490.616,94.852 491.111,94.666 491.606,94.479 492.102,94.293 492.597,94.106 493.092,93.919 493.588,93.733 494.083,93.546 494.578,93.359 495.073,93.173 495.569,92.986 496.064,92.799 496.559,92.612 497.055,92.425 497.550,92.238 498.045,92.052 498.540,91.865 499.036,91.678 499.531,91.491 500.026,91.304 500.522,91.117 501.017,90.930 501.512,90.742 502.007,90.555 502.503,90.368 502.998,90.181 503.493,89.994 503.989,89.807 504.484,89.619 504.979,89.432 505.474,89.245 505.970,89.057 506.465,88.870 506.960,88.683 507.456,88.495 507.951,88.308 508.446,88.120 508.941,87.933 509.437,87.745 509.932,87.558 510.427,87.370 510.923,87.183 511.418,86.995 511.913,86.807 512.408,86.620 512.904,86.432 513.399,86.244 513.894,86.057 514.390,85.869 514.885,85.681 515.380,85.493 515.875,85.305 516.371,85.117 516.866,84.929 517.361,84.741 517.857,84.553 518.352,84.365 518.847,84.177 519.342,83.989 519.838,83.801 520.333,83.613 520.828,83.425 521.324,83.237 521.819,83.049 522.314,82.860 522.809,82.672 523.305,82.484 523.800,82.296 524.295,82.107 524.791,81.919 525.286,81.730 525.781,81.542 526.276,81.354 526.772,81.165 527.267,80.977 527.762,80.788 528.258,80.599 528.753,80.411 529.248,80.222 529.743,80.034 530.239,79.845 530.734,79.656 531.229,79.467 531.724,79.279 532.220,79.090 532.715,78.901 533.210,78.712 533.706,78.523 534.201,78.334 534.696,78.145 535.191,77.956 535.687,77.767 536.182,77.578 536.677,77.389 537.173,77.200 537.668,77.011 538.163,76.822 538.658,76.633 539.154,76.444 539.649,76.254 540.144,76.065 540.640,75.876 541.135,75.687 541.630,75.497 542.125,75.308 542.621,75.118 543.116,74.929 543.611,74.739 544.107,74.550 544.602,74.360 545.097,74.171 545.592,73.981 546.088,73.792 546.583,73.602 547.078,73.412 547.574,73.223 548.069,73.033 548.564,72.843 549.059,72.653 549.555,72.464 550.050,72.274 550.545,72.084 551.041,71.894 551.536,71.704 552.031,71.514 552.526,71.324 553.022,71.134 553.517,70.944 554.012,70.754 554.508,70.564 555.003,70.373 555.498,70.183 555.993,69.993 556.489,69.803 556.984,69.612 557.479,69.422 557.975,69.232 558.470,69.041 558.965,68.851 559.460,68.661 559.956,68.470 560.451,68.280 560.946,68.089 561.442,67.899 561.937,67.708 562.432,67.517 562.927,67.327 563.423,67.136 563.918,66.945 564.413,66.755 564.909,66.564 565.404,66.373 565.899,66.182 566.394,65.991 566.890,65.800 567.385,65.609 567.880,65.418 568.376,65.227 568.871,65.036 569.366,64.845 569.861,64.654 570.357,64.463 570.852,64.272 571.347,64.081 571.843,63.890 572.338,63.698 572.833,63.507 573.328,63.316 573.824,63.124 574.319,62.933 574.814,62.742 575.310,62.550 575.805,62.359 576.300,62.167 576.795,61.976 577.291,61.784 577.786,61.592 "/>
<g>
</g>
</g>
<g id="ID000003" >
  <g transform="translate(44.976,133.466)">
    <g transform="rotate(-90.0)">
      <text x="0.000" y="0.000" font-family="Times New Roman" text-anchor="middle" font-size="11pt" fill="#000000" >Power Level ($p_{0}$) [$W$]</text>
    </g>
  </g>
</g>
<g id="ID000004" >
  <g transform="translate(329.453,277.434)">
    <g transform="rotate(-0.0)">
      <text x="0.000" y="0.000" font-family="Times New Roman" text-anchor="middle" font-size="11pt" fill="#000000" >Coordinate of Source ($z$) [$cm$]</text>
    </g>
  </g>
</g>
<g id="ID000005" >
</g>
    </g>
    <g>
      <polyline fill="none" stroke="#000000" stroke-width="0.5pt" stroke-dasharray="none" points="144.846,242.813 144.846,237.865 "/>
      <polyline fill="none" stroke="#000000" stroke-width="0.5pt" stroke-dasharray="none" points="206.694,242.813 206.694,237.865 "/>
      <polyline fill="none" stroke="#000000" stroke-width="0.5pt" stroke-dasharray="none" points="268.543,242.813 268.543,237.865 "/>
      <polyline fill="none" stroke="#000000" stroke-width="0.5pt" stroke-dasharray="none" points="330.391,242.813 330.391,237.865 "/>
      <polyline fill="none" stroke="#000000" stroke-width="0.5pt" stroke-dasharray="none" points="392.240,242.813 392.240,237.865 "/>
      <polyline fill="none" stroke="#000000" stroke-width="0.5pt" stroke-dasharray="none" points="454.089,242.813 454.089,237.865 "/>
      <polyline fill="none" stroke="#000000" stroke-width="0.5pt" stroke-dasharray="none" points="515.937,242.813 515.937,237.865 "/>
      <polyline fill="none" stroke="#000000" stroke-width="0.5pt" stroke-dasharray="none" points="82.997,242.813 577.786,242.813 "/>
      <polyline fill="none" stroke="#000000" stroke-width="0.5pt" stroke-dasharray="none" points="144.846,21.305 144.846,26.253 "/>
      <polyline fill="none" stroke="#000000" stroke-width="0.5pt" stroke-dasharray="none" points="206.694,21.305 206.694,26.253 "/>
      <polyline fill="none" stroke="#000000" stroke-width="0.5pt" stroke-dasharray="none" points="268.543,21.305 268.543,26.253 "/>
      <polyline fill="none" stroke="#000000" stroke-width="0.5pt" stroke-dasharray="none" points="330.391,21.305 330.391,26.253 "/>
      <polyline fill="none" stroke="#000000" stroke-width="0.5pt" stroke-dasharray="none" points="392.240,21.305 392.240,26.253 "/>
      <polyline fill="none" stroke="#000000" stroke-width="0.5pt" stroke-dasharray="none" points="454.089,21.305 454.089,26.253 "/>
      <polyline fill="none" stroke="#000000" stroke-width="0.5pt" stroke-dasharray="none" points="515.937,21.305 515.937,26.253 "/>
      <polyline fill="none" stroke="#000000" stroke-width="0.5pt" stroke-dasharray="none" points="82.997,21.305 577.786,21.305 "/>
  <g transform="translate(82.997,260.518)">
    <g transform="rotate(-0.0)">
      <text x="0.000" y="0.000" font-family="Times New Roman" text-anchor="middle" font-size="11pt" fill="#000000" >0</text>
    </g>
  </g>
  <g transform="translate(144.846,260.518)">
    <g transform="rotate(-0.0)">
      <text x="0.000" y="0.000" font-family="Times New Roman" text-anchor="middle" font-size="11pt" fill="#000000" >5</text>
    </g>
  </g>
  <g transform="translate(206.694,260.518)">
    <g transform="rotate(-0.0)">
      <text x="0.000" y="0.000" font-family="Times New Roman" text-anchor="middle" font-size="11pt" fill="#000000" >10</text>
    </g>
  </g>
  <g transform="translate(268.543,260.518)">
    <g transform="rotate(-0.0)">
      <text x="0.000" y="0.000" font-family="Times New Roman" text-anchor="middle" font-size="11pt" fill="#000000" >15</text>
    </g>
  </g>
  <g transform="translate(330.391,260.518)">
    <g transform="rotate(-0.0)">
      <text x="0.000" y="0.000" font-family="Times New Roman" text-anchor="middle" font-size="11pt" fill="#000000" >20</text>
    </g>
  </g>
  <g transform="translate(392.240,260.518)">
    <g transform="rotate(-0.0)">
      <text x="0.000" y="0.000" font-family="Times New Roman" text-anchor="middle" font-size="11pt" fill="#000000" >25</text>
    </g>
  </g>
  <g transform="translate(454.089,260.518)">
    <g transform="rotate(-0.0)">
      <text x="0.000" y="0.000" font-family="Times New Roman" text-anchor="middle" font-size="11pt" fill="#000000" >30</text>
    </g>
  </g>
  <g transform="translate(515.937,260.518)">
    <g transform="rotate(-0.0)">
      <text x="0.000" y="0.000" font-family="Times New Roman" text-anchor="middle" font-size="11pt" fill="#000000" >35</text>
    </g>
  </g>
  <g transform="translate(577.786,260.518)">
    <g transform="rotate(-0.0)">
      <text x="0.000" y="0.000" font-family="Times New Roman" text-anchor="middle" font-size="11pt" fill="#000000" >40</text>
    </g>
  </g>
      <polyline fill="none" stroke="#000000" stroke-width="0.5pt" stroke-dasharray="none" points="82.997,198.511 87.945,198.511 "/>
      <polyline fill="none" stroke="#000000" stroke-width="0.5pt" stroke-dasharray="none" points="82.997,154.209 87.945,154.209 "/>
      <polyline fill="none" stroke="#000000" stroke-width="0.5pt" stroke-dasharray="none" points="82.997,109.908 87.945,109.908 "/>
      <polyline fill="none" stroke="#000000" stroke-width="0.5pt" stroke-dasharray="none" points="82.997,65.606 87.945,65.606 "/>
      <polyline fill="none" stroke="#000000" stroke-width="0.5pt" stroke-dasharray="none" points="82.997,242.813 82.997,21.305 "/>
      <polyline fill="none" stroke="#000000" stroke-width="0.5pt" stroke-dasharray="none" points="577.786,198.511 572.838,198.511 "/>
      <polyline fill="none" stroke="#000000" stroke-width="0.5pt" stroke-dasharray="none" points="577.786,154.209 572.838,154.209 "/>
      <polyline fill="none" stroke="#000000" stroke-width="0.5pt" stroke-dasharray="none" points="577.786,109.908 572.838,109.908 "/>
      <polyline fill="none" stroke="#000000" stroke-width="0.5pt" stroke-dasharray="none" points="577.786,65.606 572.838,65.606 "/>
      <polyline fill="none" stroke="#000000" stroke-width="0.5pt" stroke-dasharray="none" points="577.786,242.813 577.786,21.305 "/>
  <g transform="translate(73.101,247.875)">
    <g transform="rotate(-0.0)">
      <text x="0.000" y="0.000" font-family="Times New Roman" text-anchor="end" font-size="11pt" fill="#000000" >0</text>
    </g>
  </g>
  <g transform="translate(73.101,203.573)">
    <g transform="rotate(-0.0)">
      <text x="0.000" y="0.000" font-family="Times New Roman" text-anchor="end" font-size="11pt" fill="#000000" >50</text>
    </g>
  </g>
  <g transform="translate(73.101,159.272)">
    <g transform="rotate(-0.0)">
      <text x="0.000" y="0.000" font-family="Times New Roman" text-anchor="end" font-size="11pt" fill="#000000" >100</text>
    </g>
  </g>
  <g transform="translate(73.101,114.970)">
    <g transform="rotate(-0.0)">
      <text x="0.000" y="0.000" font-family="Times New Roman" text-anchor="end" font-size="11pt" fill="#000000" >150</text>
    </g>
  </g>
  <g transform="translate(73.101,70.669)">
    <g transform="rotate(-0.0)">
      <text x="0.000" y="0.000" font-family="Times New Roman" text-anchor="end" font-size="11pt" fill="#000000" >200</text>
    </g>
  </g>
  <g transform="translate(73.101,26.367)">
    <g transform="rotate(-0.0)">
      <text x="0.000" y="0.000" font-family="Times New Roman" text-anchor="end" font-size="11pt" fill="#000000" >250</text>
    </g>
  </g>
      <polyline fill="none" stroke="#000000" stroke-width="0.5pt" stroke-dasharray="none" points="82.997,242.813 82.997,240.597 "/>
      <polyline fill="none" stroke="#000000" stroke-width="0.5pt" stroke-dasharray="none" points="82.997,242.813 82.997,242.812 "/>
    </g>
  </g>
  </g>
</svg>
