<?xml version="1.0" encoding="UTF-8" standalone="no"?>
<svg
   xmlns:dc="http://purl.org/dc/elements/1.1/"
   xmlns:cc="http://creativecommons.org/ns#"
   xmlns:rdf="http://www.w3.org/1999/02/22-rdf-syntax-ns#"
   xmlns:svg="http://www.w3.org/2000/svg"
   xmlns="http://www.w3.org/2000/svg"
   xmlns:sodipodi="http://sodipodi.sourceforge.net/DTD/sodipodi-0.dtd"
   xmlns:inkscape="http://www.inkscape.org/namespaces/inkscape"
   preserveAspectRatio="xMinYMin meet"
   width="100%"
   height="100%"
   viewBox="0 0 638.438 284.063"
   version="1.1"
   id="svg2"
   inkscape:version="0.48.4 r9939"
   sodipodi:docname="NUCL_511_HWMK_5_PROB_2.svg">
  <metadata
     id="metadata181">
    <rdf:RDF>
      <cc:Work
         rdf:about="">
        <dc:format>image/svg+xml</dc:format>
        <dc:type
           rdf:resource="http://purl.org/dc/dcmitype/StillImage" />
      </cc:Work>
    </rdf:RDF>
  </metadata>
  <defs
     id="defs179" />
  <sodipodi:namedview
     pagecolor="#ffffff"
     bordercolor="#666666"
     borderopacity="1"
     objecttolerance="10"
     gridtolerance="10"
     guidetolerance="10"
     inkscape:pageopacity="0"
     inkscape:pageshadow="2"
     inkscape:window-width="1920"
     inkscape:window-height="1138"
     id="namedview177"
     showgrid="false"
     inkscape:zoom="2.8037178"
     inkscape:cx="319.219"
     inkscape:cy="142.0315"
     inkscape:window-x="-8"
     inkscape:window-y="-8"
     inkscape:window-maximized="1"
     inkscape:current-layer="ID000000" />
  <desc
     id="desc4">Matlab Figure Converted by PLOT2SVG written by Juerg Schwizer</desc>
  <g
     id="ID000000">
    <clipPath
       id="ID000001">
      <rect
         id="rect11"
         height="215.625"
         width="494.789"
         y="27.188"
         x="82.997002" />
    </clipPath>
    <polygon
       style="fill:#ffffff;fill-opacity:1;stroke:none"
       id="polygon13"
       points="577.786,27.188 82.997,27.188 82.997,242.812 577.786,242.812 " />
    <polygon
       style="fill:#ffffff;fill-opacity:1;stroke:none"
       id="polygon15"
       points="577.786,27.188 82.997,27.188 82.997,27.188 577.786,27.188 " />
    <polygon
       style="fill:#ffffff;fill-opacity:1;stroke:none"
       id="polygon17"
       points="82.997,27.188 82.997,27.188 82.997,242.812 82.997,242.812 " />
    <g
       id="g19">
      <g
         clip-path="url(#ID000001)"
         id="ID000002">
        <polyline
           style="fill:none;stroke:#000000;stroke-width:0.5pt;stroke-dasharray:none"
           id="polyline22"
           points="82.997,39.794 83.492,39.970 83.987,40.146 84.483,40.322 84.978,40.498 85.473,40.674 85.969,40.850 86.464,41.026 86.959,41.202 87.454,41.378 87.950,41.554 88.445,41.730 88.940,41.907 89.436,42.083 89.931,42.259 90.426,42.435 90.921,42.611 91.417,42.787 91.912,42.963 92.407,43.139 92.903,43.315 93.398,43.491 93.893,43.667 94.388,43.843 94.884,44.019 95.379,44.196 95.874,44.372 96.370,44.548 96.865,44.724 97.360,44.900 97.855,45.076 98.351,45.252 98.846,45.428 99.341,45.604 99.837,45.780 100.332,45.956 100.827,46.132 101.322,46.308 101.818,46.485 102.313,46.661 102.808,46.837 103.304,47.013 103.799,47.189 104.294,47.365 104.789,47.541 105.285,47.717 105.780,47.893 106.275,48.069 106.771,48.245 107.266,48.421 107.761,48.597 108.256,48.774 108.752,48.950 109.247,49.126 109.742,49.302 110.238,49.478 110.733,49.654 111.228,49.830 111.723,50.006 112.219,50.182 112.714,50.358 113.209,50.534 113.705,50.710 114.200,50.886 114.695,51.063 115.190,51.239 115.686,51.415 116.181,51.591 116.676,51.767 117.171,51.943 117.667,52.119 118.162,52.295 118.657,52.471 119.153,52.647 119.648,52.823 120.143,52.999 120.638,53.175 121.134,53.351 121.629,53.528 122.124,53.704 122.620,53.880 123.115,54.056 123.610,54.232 124.105,54.408 124.601,54.584 125.096,54.760 125.591,54.936 126.087,55.112 126.582,55.288 127.077,55.464 127.572,55.640 128.068,55.817 128.563,55.993 129.058,56.169 129.554,56.345 130.049,56.521 130.544,56.697 131.039,56.873 131.535,57.049 132.030,57.225 132.525,57.401 133.021,57.577 133.516,57.753 134.011,57.929 134.506,58.106 135.002,58.282 135.497,58.458 135.992,58.634 136.488,58.810 136.983,58.986 137.478,59.162 137.973,59.338 138.469,59.514 138.964,59.690 139.459,59.866 139.955,60.042 140.450,60.218 140.945,60.395 141.440,60.571 141.936,60.747 142.431,60.923 142.926,61.099 143.422,61.275 143.917,61.451 144.412,61.627 144.907,61.803 145.403,61.979 145.898,62.155 146.393,62.331 146.889,62.507 147.384,62.684 147.879,62.860 148.374,63.036 148.870,63.212 149.365,63.388 149.860,63.564 150.356,63.740 150.851,63.916 151.346,64.092 151.841,64.268 152.337,64.444 152.832,64.620 153.327,64.796 153.823,64.973 154.318,65.149 154.813,65.325 155.308,65.501 155.804,65.677 156.299,65.853 156.794,66.029 157.290,66.205 157.785,66.381 158.280,66.557 158.775,66.733 159.271,66.909 159.766,67.085 160.261,67.262 160.757,67.438 161.252,67.614 161.747,67.790 162.242,67.966 162.738,68.142 163.233,68.318 163.728,68.494 164.224,68.670 164.719,68.846 165.214,69.022 165.709,69.198 166.205,69.374 166.700,69.550 167.195,69.727 167.690,69.903 168.186,70.079 168.681,70.255 169.176,70.431 169.672,70.607 170.167,70.783 170.662,70.959 171.157,71.135 171.653,71.311 172.148,71.487 172.643,71.663 173.139,71.839 173.634,72.016 174.129,72.192 174.624,72.368 175.120,72.544 175.615,72.720 176.110,72.896 176.606,73.072 177.101,73.248 177.596,73.424 178.091,73.600 178.587,73.776 179.082,73.952 179.577,74.128 180.073,74.305 180.568,74.481 181.063,74.657 181.558,74.833 182.054,75.009 182.549,75.185 183.044,75.361 183.540,75.537 184.035,75.713 184.530,75.889 185.025,76.065 185.521,76.241 186.016,76.417 186.511,76.594 187.007,76.770 187.502,76.946 187.997,77.122 188.492,77.298 188.988,77.474 189.483,77.650 189.978,77.826 190.474,78.002 190.969,78.178 191.464,78.354 191.959,78.530 192.455,78.706 192.950,78.883 193.445,79.059 193.941,79.235 194.436,79.411 194.931,79.587 195.426,79.763 195.922,79.939 196.417,80.115 196.912,80.291 197.408,80.467 197.903,80.643 198.398,80.819 198.893,80.995 199.389,81.172 199.884,81.348 200.379,81.524 200.875,81.700 201.370,81.876 201.865,82.052 202.360,82.228 202.856,82.404 203.351,82.580 203.846,82.756 204.342,82.932 204.837,83.108 205.332,83.284 205.827,83.461 206.323,83.637 206.818,83.813 207.313,83.989 207.809,84.165 208.304,84.341 208.799,84.517 209.294,84.693 209.790,84.869 210.285,85.045 210.780,85.221 211.276,85.397 211.771,85.573 212.266,85.750 212.761,85.926 213.257,86.102 213.752,86.278 214.247,86.454 214.743,86.630 215.238,86.806 215.733,86.982 216.228,87.158 216.724,87.334 217.219,87.510 217.714,87.686 218.210,87.862 218.705,88.038 219.200,88.215 219.695,88.391 220.191,88.567 220.686,88.743 221.181,88.919 221.676,89.095 222.172,89.271 222.667,89.447 223.162,89.623 223.658,89.799 224.153,89.975 224.648,90.151 225.143,90.327 225.639,90.504 226.134,90.680 226.629,90.856 227.125,91.032 227.620,91.208 228.115,91.384 228.610,91.560 229.106,91.736 229.601,91.912 230.096,92.088 230.592,92.264 231.087,92.440 231.582,92.616 232.077,92.793 232.573,92.969 233.068,93.145 233.563,93.321 234.059,93.497 234.554,93.673 235.049,93.849 235.544,94.025 236.040,94.201 236.535,94.377 237.030,94.553 237.526,94.729 238.021,94.905 238.516,95.082 239.011,95.258 239.507,95.434 240.002,95.610 240.497,95.786 240.993,95.962 241.488,96.138 241.983,96.314 242.478,96.490 242.974,96.666 243.469,96.842 243.964,97.018 244.460,97.194 244.955,97.371 245.450,97.547 245.945,97.723 246.441,97.899 246.936,98.075 247.431,98.251 247.927,98.427 248.422,98.603 248.917,98.779 249.412,98.955 249.908,99.131 250.403,99.307 250.898,99.483 251.394,99.660 251.889,99.836 252.384,100.012 252.879,100.188 253.375,100.364 253.870,100.540 254.365,100.716 254.861,100.892 255.356,101.068 255.851,101.244 256.346,101.420 256.842,101.596 257.337,101.772 257.832,101.949 258.328,102.125 258.823,102.301 259.318,102.477 259.813,102.653 260.309,102.829 260.804,103.005 261.299,103.181 261.795,103.357 262.290,103.533 262.785,103.709 263.280,103.885 263.776,104.061 264.271,104.237 264.766,104.414 265.262,104.590 265.757,104.766 266.252,104.942 266.747,105.118 267.243,105.294 267.738,105.470 268.233,105.646 268.729,105.822 269.224,105.998 269.719,106.174 270.214,106.350 270.710,106.526 271.205,106.703 271.700,106.879 272.195,107.055 272.691,107.231 273.186,107.407 273.681,107.583 274.177,107.759 274.672,107.935 275.167,108.111 275.662,108.287 276.158,108.463 276.653,108.639 277.148,108.815 277.644,108.992 278.139,109.168 278.634,109.344 279.129,109.520 279.625,109.696 280.120,109.872 280.615,110.048 281.111,110.224 281.606,110.400 282.101,110.576 282.596,110.752 283.092,110.928 283.587,111.104 284.082,111.281 284.578,111.457 285.073,111.633 285.568,111.809 286.063,111.985 286.559,112.161 287.054,112.337 287.549,112.513 288.045,112.689 288.540,112.865 289.035,113.041 289.530,113.217 290.026,113.393 290.521,113.570 291.016,113.746 291.512,113.922 292.007,114.098 292.502,114.274 292.997,114.450 293.493,114.626 293.988,114.802 294.483,114.978 294.979,115.154 295.474,115.330 295.969,115.506 296.464,115.682 296.960,115.859 297.455,116.035 297.950,116.211 298.446,116.387 298.941,116.563 299.436,116.739 299.931,116.915 300.427,117.091 300.922,117.267 301.417,117.443 301.913,117.619 302.408,117.795 302.903,117.971 303.398,118.148 303.894,118.324 304.389,118.500 304.884,118.676 305.380,118.852 305.875,119.028 306.370,119.204 306.865,119.380 307.361,119.556 307.856,119.732 308.351,119.908 308.847,120.084 309.342,120.260 309.837,120.437 310.332,120.613 310.828,120.789 311.323,120.965 311.818,121.141 312.314,121.317 312.809,121.493 313.304,121.669 313.799,121.845 314.295,122.021 314.790,122.197 315.285,122.373 315.781,122.549 316.276,122.725 316.771,122.902 317.266,123.078 317.762,123.254 318.257,123.430 318.752,123.606 319.248,123.782 319.743,123.958 320.238,124.134 320.733,124.310 321.229,124.486 321.724,124.662 322.219,124.838 322.714,125.014 323.210,125.191 323.705,125.367 324.200,125.543 324.696,125.719 325.191,125.895 325.686,126.071 326.181,126.247 326.677,126.423 327.172,126.599 327.667,126.775 328.163,126.951 328.658,127.127 329.153,127.303 329.648,127.480 330.144,127.656 330.639,127.832 331.134,128.008 331.630,128.184 332.125,128.360 332.620,128.536 333.115,128.712 333.611,128.888 334.106,129.064 334.601,129.240 335.097,129.416 335.592,129.592 336.087,129.769 336.582,129.945 337.078,130.121 337.573,130.297 338.068,130.473 338.564,130.649 339.059,130.825 339.554,131.001 340.049,131.177 340.545,131.353 341.040,131.529 341.535,131.705 342.031,131.881 342.526,132.058 343.021,132.234 343.516,132.410 344.012,132.586 344.507,132.762 345.002,132.938 345.498,133.114 345.993,133.290 346.488,133.466 346.983,133.642 347.479,133.818 347.974,133.994 348.469,134.170 348.965,134.347 349.460,134.523 349.955,134.699 350.450,134.875 350.946,135.051 351.441,135.227 351.936,135.403 352.432,135.579 352.927,135.755 353.422,135.931 353.917,136.107 354.413,136.283 354.908,136.459 355.403,136.636 355.899,136.812 356.394,136.988 356.889,137.164 357.384,137.340 357.880,137.516 358.375,137.692 358.870,137.868 359.366,138.044 359.861,138.220 360.356,138.396 360.851,138.572 361.347,138.748 361.842,138.924 362.337,139.101 362.833,139.277 363.328,139.453 363.823,139.629 364.318,139.805 364.814,139.981 365.309,140.157 365.804,140.333 366.300,140.509 366.795,140.685 367.290,140.861 367.785,141.037 368.281,141.213 368.776,141.390 369.271,141.566 369.767,141.742 370.262,141.918 370.757,142.094 371.252,142.270 371.748,142.446 372.243,142.622 372.738,142.798 373.234,142.974 373.729,143.150 374.224,143.326 374.719,143.502 375.215,143.679 375.710,143.855 376.205,144.031 376.700,144.207 377.196,144.383 377.691,144.559 378.186,144.735 378.682,144.911 379.177,145.087 379.672,145.263 380.167,145.439 380.663,145.615 381.158,145.791 381.653,145.968 382.149,146.144 382.644,146.320 383.139,146.496 383.634,146.672 384.130,146.848 384.625,147.024 385.120,147.200 385.616,147.376 386.111,147.552 386.606,147.728 387.101,147.904 387.597,148.080 388.092,148.257 388.587,148.433 389.083,148.609 389.578,148.785 390.073,148.961 390.568,149.137 391.064,149.313 391.559,149.489 392.054,149.665 392.550,149.841 393.045,150.017 393.540,150.193 394.035,150.369 394.531,150.546 395.026,150.722 395.521,150.898 396.017,151.074 396.512,151.250 397.007,151.426 397.502,151.602 397.998,151.778 398.493,151.954 398.988,152.130 399.484,152.306 399.979,152.482 400.474,152.658 400.969,152.835 401.465,153.011 401.960,153.187 402.455,153.363 402.951,153.539 403.446,153.715 403.941,153.891 404.436,154.067 404.932,154.243 405.427,154.419 405.922,154.595 406.418,154.771 406.913,154.947 407.408,155.123 407.903,155.300 408.399,155.476 408.894,155.652 409.389,155.828 409.885,156.004 410.380,156.180 410.875,156.356 411.370,156.532 411.866,156.708 412.361,156.884 412.856,157.060 413.352,157.236 413.847,157.412 414.342,157.589 414.837,157.765 415.333,157.941 415.828,158.117 416.323,158.293 416.819,158.469 417.314,158.645 417.809,158.821 418.304,158.997 418.800,159.173 419.295,159.349 419.790,159.525 420.286,159.701 420.781,159.878 421.276,160.054 421.771,160.230 422.267,160.406 422.762,160.582 423.257,160.758 423.753,160.934 424.248,161.110 424.743,161.286 425.238,161.462 425.734,161.638 426.229,161.814 426.724,161.990 427.219,162.167 427.715,162.343 428.210,162.519 428.705,162.695 429.201,162.871 429.696,163.047 430.191,163.223 430.686,163.399 431.182,163.575 431.677,163.751 432.172,163.927 432.668,164.103 433.163,164.279 433.658,164.456 434.153,164.632 434.649,164.808 435.144,164.984 435.639,165.160 436.135,165.336 436.630,165.512 437.125,165.688 437.620,165.864 438.116,166.040 438.611,166.216 439.106,166.392 439.602,166.568 440.097,166.745 440.592,166.921 441.087,167.097 441.583,167.273 442.078,167.449 442.573,167.625 443.069,167.801 443.564,167.977 444.059,168.153 444.554,168.329 445.050,168.505 445.545,168.681 446.040,168.857 446.536,169.034 447.031,169.210 447.526,169.386 448.021,169.562 448.517,169.738 449.012,169.914 449.507,170.090 450.003,170.266 450.498,170.442 450.993,170.618 451.488,170.794 451.984,170.970 452.479,171.146 452.974,171.323 453.470,171.499 453.965,171.675 454.460,171.851 454.955,172.027 455.451,172.203 455.946,172.379 456.441,172.555 456.937,172.731 457.432,172.907 457.927,173.083 458.422,173.259 458.918,173.435 459.413,173.611 459.908,173.788 460.404,173.964 460.899,174.140 461.394,174.316 461.889,174.492 462.385,174.668 462.880,174.844 463.375,175.020 463.871,175.196 464.366,175.372 464.861,175.548 465.356,175.724 465.852,175.900 466.347,176.077 466.842,176.253 467.338,176.429 467.833,176.605 468.328,176.781 468.823,176.957 469.319,177.133 469.814,177.309 470.309,177.485 470.805,177.661 471.300,177.837 471.795,178.013 472.290,178.189 472.786,178.366 473.281,178.542 473.776,178.718 474.272,178.894 474.767,179.070 475.262,179.246 475.757,179.422 476.253,179.598 476.748,179.774 477.243,179.950 477.738,180.126 478.234,180.302 478.729,180.478 479.224,180.655 479.720,180.831 480.215,181.007 480.710,181.183 481.205,181.359 481.701,181.535 482.196,181.711 482.691,181.887 483.187,182.063 483.682,182.239 484.177,182.415 484.672,182.591 485.168,182.767 485.663,182.944 486.158,183.120 486.654,183.296 487.149,183.472 487.644,183.648 488.139,183.824 488.635,184.000 489.130,184.176 489.625,184.352 490.121,184.528 490.616,184.704 491.111,184.880 491.606,185.056 492.102,185.233 492.597,185.409 493.092,185.585 493.588,185.761 494.083,185.937 494.578,186.113 495.073,186.289 495.569,186.465 496.064,186.641 496.559,186.817 497.055,186.993 497.550,187.169 498.045,187.345 498.540,187.522 499.036,187.698 499.531,187.874 500.026,188.050 500.522,188.226 501.017,188.402 501.512,188.578 502.007,188.754 502.503,188.930 502.998,189.106 503.493,189.282 503.989,189.458 504.484,189.634 504.979,189.810 505.474,189.987 505.970,190.163 506.465,190.339 506.960,190.515 507.456,190.691 507.951,190.867 508.446,191.043 508.941,191.219 509.437,191.395 509.932,191.571 510.427,191.747 510.923,191.923 511.418,192.099 511.913,192.276 512.408,192.452 512.904,192.628 513.399,192.804 513.894,192.980 514.390,193.156 514.885,193.332 515.380,193.508 515.875,193.684 516.371,193.860 516.866,194.036 517.361,194.212 517.857,194.388 518.352,194.565 518.847,194.741 519.342,194.917 519.838,195.093 520.333,195.269 520.828,195.445 521.324,195.621 521.819,195.797 522.314,195.973 522.809,196.149 523.305,196.325 523.800,196.501 524.295,196.677 524.791,196.854 525.286,197.030 525.781,197.206 526.276,197.382 526.772,197.558 527.267,197.734 527.762,197.910 528.258,198.086 528.753,198.262 529.248,198.438 529.743,198.614 530.239,198.790 530.734,198.966 531.229,199.143 531.724,199.319 532.220,199.495 532.715,199.671 533.210,199.847 533.706,200.023 534.201,200.199 534.696,200.375 535.191,200.551 535.687,200.727 536.182,200.903 536.677,201.079 537.173,201.255 537.668,201.432 538.163,201.608 538.658,201.784 539.154,201.960 539.649,202.136 540.144,202.312 540.640,202.488 541.135,202.664 541.630,202.840 542.125,203.016 542.621,203.192 543.116,203.368 543.611,203.544 544.107,203.721 544.602,203.897 545.097,204.073 545.592,204.249 546.088,204.425 546.583,204.601 547.078,204.777 547.574,204.953 548.069,205.129 548.564,205.305 549.059,205.481 549.555,205.657 550.050,205.833 550.545,206.010 551.041,206.186 551.536,206.362 552.031,206.538 552.526,206.714 553.022,206.890 553.517,207.066 554.012,207.242 554.508,207.418 555.003,207.594 555.498,207.770 555.993,207.946 556.489,208.122 556.984,208.298 557.479,208.475 557.975,208.651 558.470,208.827 558.965,209.003 559.460,209.179 559.956,209.355 560.451,209.531 560.946,209.707 561.442,209.883 561.937,210.059 562.432,210.235 562.927,210.411 563.423,210.587 563.918,210.764 564.413,210.940 564.909,211.116 565.404,211.292 565.899,211.468 566.394,211.644 566.890,211.820 567.385,211.996 567.880,212.172 568.376,212.348 568.871,212.524 569.366,212.700 569.861,212.876 570.357,213.053 570.852,213.229 571.347,213.405 571.843,213.581 572.338,213.757 572.833,213.933 573.328,214.109 573.824,214.285 574.319,214.461 574.814,214.637 575.310,214.813 575.805,214.989 576.300,215.165 576.795,215.342 577.291,215.518 577.786,215.694 " />
        <g
           id="g24" />
      </g>
      <g
         id="ID000003">
        <g
           id="g27"
           transform="translate(49.671,135.469)">
          <g
             id="g29"
             transform="matrix(0,-1,1,0,0,0)">
            <text
               style="font-size:13.75px;text-anchor:middle;fill:#000000;font-family:Times New Roman"
               id="text31"
               font-size="11pt"
               y="0"
               x="0">Delayed Neutron Fraction ($\beta$) [ ]</text>
          </g>
        </g>
      </g>
      <g
         id="ID000004">
        <g
           id="g34"
           transform="translate(329.453,277.406)">
          <g
             id="g36">
            <text
               style="font-size:13.75px;text-anchor:middle;fill:#000000;font-family:Times New Roman"
               id="text38"
               font-size="11pt"
               y="0"
               x="0">Amount of Pu-239 ($f_{239}$) [ ]</text>
          </g>
        </g>
      </g>
      <g
         id="ID000005" />
    </g>
    <g
       id="g41">
      <polyline
         style="fill:none;stroke:#000000;stroke-width:0.5pt;stroke-dasharray:none"
         id="polyline43"
         points="181.955,242.812 181.955,237.865 " />
      <polyline
         style="fill:none;stroke:#000000;stroke-width:0.5pt;stroke-dasharray:none"
         id="polyline45"
         points="280.913,242.812 280.913,237.865 " />
      <polyline
         style="fill:none;stroke:#000000;stroke-width:0.5pt;stroke-dasharray:none"
         id="polyline47"
         points="379.870,242.812 379.870,237.865 " />
      <polyline
         style="fill:none;stroke:#000000;stroke-width:0.5pt;stroke-dasharray:none"
         id="polyline49"
         points="478.828,242.812 478.828,237.865 " />
      <polyline
         style="fill:none;stroke:#000000;stroke-width:0.5pt;stroke-dasharray:none"
         id="polyline51"
         points="82.997,242.812 577.786,242.812 " />
      <polyline
         style="fill:none;stroke:#000000;stroke-width:0.5pt;stroke-dasharray:none"
         id="polyline53"
         points="181.955,27.188 181.955,32.135 " />
      <polyline
         style="fill:none;stroke:#000000;stroke-width:0.5pt;stroke-dasharray:none"
         id="polyline55"
         points="280.913,27.188 280.913,32.135 " />
      <polyline
         style="fill:none;stroke:#000000;stroke-width:0.5pt;stroke-dasharray:none"
         id="polyline57"
         points="379.870,27.188 379.870,32.135 " />
      <polyline
         style="fill:none;stroke:#000000;stroke-width:0.5pt;stroke-dasharray:none"
         id="polyline59"
         points="478.828,27.188 478.828,32.135 " />
      <polyline
         style="fill:none;stroke:#000000;stroke-width:0.5pt;stroke-dasharray:none"
         id="polyline61"
         points="82.997,27.188 577.786,27.188 " />
      <g
         id="g63"
         transform="translate(82.997,260.4)">
        <g
           id="g65">
          <text
             style="font-size:13.75px;text-anchor:middle;fill:#000000;font-family:Times New Roman"
             id="text67"
             font-size="11pt"
             y="0"
             x="0">0</text>
        </g>
      </g>
      <g
         id="g69"
         transform="translate(181.955,260.4)">
        <g
           id="g71">
          <text
             style="font-size:13.75px;text-anchor:middle;fill:#000000;font-family:Times New Roman"
             id="text73"
             font-size="11pt"
             y="0"
             x="0">0.1</text>
        </g>
      </g>
      <g
         id="g75"
         transform="translate(280.913,260.4)">
        <g
           id="g77">
          <text
             style="font-size:13.75px;text-anchor:middle;fill:#000000;font-family:Times New Roman"
             id="text79"
             font-size="11pt"
             y="0"
             x="0">0.2</text>
        </g>
      </g>
      <g
         id="g81"
         transform="translate(379.87,260.4)">
        <g
           id="g83">
          <text
             style="font-size:13.75px;text-anchor:middle;fill:#000000;font-family:Times New Roman"
             id="text85"
             font-size="11pt"
             y="0"
             x="0">0.3</text>
        </g>
      </g>
      <g
         id="g87"
         transform="translate(478.828,260.4)">
        <g
           id="g89">
          <text
             style="font-size:13.75px;text-anchor:middle;fill:#000000;font-family:Times New Roman"
             id="text91"
             font-size="11pt"
             y="0"
             x="0">0.4</text>
        </g>
      </g>
      <g
         id="g93"
         transform="translate(577.786,260.4)">
        <g
           id="g95">
          <text
             style="font-size:13.75px;text-anchor:middle;fill:#000000;font-family:Times New Roman"
             id="text97"
             font-size="11pt"
             y="0"
             x="0">0.5</text>
        </g>
      </g>
      <polyline
         style="fill:none;stroke:#000000;stroke-width:0.5pt;stroke-dasharray:none"
         id="polyline99"
         points="82.997,206.875 87.945,206.875 " />
      <polyline
         style="fill:none;stroke:#000000;stroke-width:0.5pt;stroke-dasharray:none"
         id="polyline101"
         points="82.997,170.937 87.945,170.937 " />
      <polyline
         style="fill:none;stroke:#000000;stroke-width:0.5pt;stroke-dasharray:none"
         id="polyline103"
         points="82.997,135.000 87.945,135.000 " />
      <polyline
         style="fill:none;stroke:#000000;stroke-width:0.5pt;stroke-dasharray:none"
         id="polyline105"
         points="82.997,99.063 87.945,99.063 " />
      <polyline
         style="fill:none;stroke:#000000;stroke-width:0.5pt;stroke-dasharray:none"
         id="polyline107"
         points="82.997,63.125 87.945,63.125 " />
      <polyline
         style="fill:none;stroke:#000000;stroke-width:0.5pt;stroke-dasharray:none"
         id="polyline109"
         points="82.997,242.812 82.997,27.188 " />
      <polyline
         style="fill:none;stroke:#000000;stroke-width:0.5pt;stroke-dasharray:none"
         id="polyline111"
         points="577.786,206.875 572.838,206.875 " />
      <polyline
         style="fill:none;stroke:#000000;stroke-width:0.5pt;stroke-dasharray:none"
         id="polyline113"
         points="577.786,170.937 572.838,170.937 " />
      <polyline
         style="fill:none;stroke:#000000;stroke-width:0.5pt;stroke-dasharray:none"
         id="polyline115"
         points="577.786,135.000 572.838,135.000 " />
      <polyline
         style="fill:none;stroke:#000000;stroke-width:0.5pt;stroke-dasharray:none"
         id="polyline117"
         points="577.786,99.063 572.838,99.063 " />
      <polyline
         style="fill:none;stroke:#000000;stroke-width:0.5pt;stroke-dasharray:none"
         id="polyline119"
         points="577.786,63.125 572.838,63.125 " />
      <polyline
         style="fill:none;stroke:#000000;stroke-width:0.5pt;stroke-dasharray:none"
         id="polyline121"
         points="577.786,242.812 577.786,27.188 " />
      <g
         id="g123"
         transform="translate(73.101,247.875)">
        <g
           id="g125">
          <text
             style="font-size:13.75px;text-anchor:end;fill:#000000;font-family:Times New Roman"
             id="text127"
             font-size="11pt"
             y="0"
             x="0">4.5</text>
        </g>
      </g>
      <g
         id="g129"
         transform="translate(73.101,211.937)">
        <g
           id="g131">
          <text
             style="font-size:13.75px;text-anchor:end;fill:#000000;font-family:Times New Roman"
             id="text133"
             font-size="11pt"
             y="0"
             x="0">5</text>
        </g>
      </g>
      <g
         id="g135"
         transform="translate(73.101,176)">
        <g
           id="g137">
          <text
             style="font-size:13.75px;text-anchor:end;fill:#000000;font-family:Times New Roman"
             id="text139"
             font-size="11pt"
             y="0"
             x="0">5.5</text>
        </g>
      </g>
      <g
         id="g141"
         transform="translate(73.101,140.063)">
        <g
           id="g143">
          <text
             style="font-size:13.75px;text-anchor:end;fill:#000000;font-family:Times New Roman"
             id="text145"
             font-size="11pt"
             y="0"
             x="0">6</text>
        </g>
      </g>
      <g
         id="g147"
         transform="translate(73.101,104.125)">
        <g
           id="g149">
          <text
             style="font-size:13.75px;text-anchor:end;fill:#000000;font-family:Times New Roman"
             id="text151"
             font-size="11pt"
             y="0"
             x="0">6.5</text>
        </g>
      </g>
      <g
         id="g153"
         transform="translate(73.101,68.187)">
        <g
           id="g155">
          <text
             style="font-size:13.75px;text-anchor:end;fill:#000000;font-family:Times New Roman"
             id="text157"
             font-size="11pt"
             y="0"
             x="0">7</text>
        </g>
      </g>
      <g
         id="g159"
         transform="translate(73.101,32.25)">
        <g
           id="g161">
          <text
             style="font-size:13.75px;text-anchor:end;fill:#000000;font-family:Times New Roman"
             id="text163"
             font-size="11pt"
             y="0"
             x="0">7.5</text>
        </g>
      </g>
      <polyline
         style="fill:none;stroke:#000000;stroke-width:0.5pt;stroke-dasharray:none"
         id="polyline165"
         points="82.997,242.812 82.997,240.656 " />
      <polyline
         style="fill:none;stroke:#000000;stroke-width:0.5pt;stroke-dasharray:none"
         id="polyline167"
         points="82.997,242.812 82.997,242.812 " />
      <g
         id="g169"
         transform="translate(82.997,18.375)">
        <g
           id="g171">
          <text
             style="font-size:13.75px;text-anchor:start;fill:#000000;font-family:Times New Roman"
             id="text173"
             font-size="11pt"
             y="0"
             x="0">$x 10^{3}$</text>
        </g>
      </g>
    </g>
  </g>
</svg>
