<?xml version="1.0" encoding="utf-8" standalone="no"?><!DOCTYPE svg PUBLIC "-//W3C//DTD SVG 1.1//EN" "http://www.w3.org/Graphics/SVG/1.1/DTD/svg11.dtd">
<svg preserveAspectRatio="xMinYMin meet" width="100%" height="100%" viewBox="0 0 937.500 421.875"  version="1.1" xmlns="http://www.w3.org/2000/svg" xmlns:xlink="http://www.w3.org/1999/xlink">
  <desc>Matlab Figure Converted by PLOT2SVG written by Juerg Schwizer</desc>
  <g id="topgroup">
  <rect x="0" y="0" width="937.500" height="421.875" fill="#ffffff" stroke="none" />
  <g id ="ID000000">
  <clipPath id="ID000001">
    <rect x="121.875" y="31.641" width="313.743" height="343.828"/>
  </clipPath>
      <polygon fill="#000000" fill-opacity="0.00" stroke="none" stroke-width="0.5pt" stroke-opacity="1.00" stroke-dasharray="none" points="121.875,375.469 435.618,375.469 435.618,31.641 121.875,31.641 "/>
      <polygon fill="#000000" fill-opacity="0.00" stroke="none" stroke-width="0.5pt" stroke-opacity="1.00" stroke-dasharray="none" points="121.875,31.641 435.618,31.641 435.618,31.641 121.875,31.641 "/>
      <polygon fill="#000000" fill-opacity="0.00" stroke="none" stroke-width="0.5pt" stroke-opacity="1.00" stroke-dasharray="none" points="121.875,375.469 121.875,375.469 121.875,31.641 121.875,31.641 "/>
    <g>
<g id="ID000002" clip-path="url(#ID000001)" >
      <polyline fill="none" stroke="#000000" stroke-width="0.5pt" stroke-dasharray="none" points="121.875,375.468 122.189,375.468 122.503,375.467 122.817,375.467 123.131,375.467 123.445,375.467 123.759,375.467 124.073,375.467 124.387,375.467 124.702,375.467 125.016,375.467 125.330,375.467 125.644,375.467 125.958,375.467 126.272,375.466 126.586,375.466 126.900,375.466 127.214,375.466 127.528,375.466 127.842,375.466 128.156,375.466 128.470,375.465 128.784,375.465 129.098,375.465 129.412,375.465 129.726,375.465 130.040,375.465 130.355,375.464 130.669,375.464 130.983,375.464 131.297,375.464 131.611,375.464 131.925,375.463 132.239,375.463 132.553,375.463 132.867,375.462 133.181,375.462 133.495,375.462 133.809,375.461 134.123,375.461 134.437,375.461 134.751,375.460 135.065,375.460 135.379,375.460 135.694,375.459 136.008,375.459 136.322,375.458 136.636,375.458 136.950,375.457 137.264,375.457 137.578,375.456 137.892,375.456 138.206,375.455 138.520,375.454 138.834,375.454 139.148,375.453 139.462,375.452 139.776,375.452 140.090,375.451 140.404,375.450 140.718,375.449 141.032,375.448 141.347,375.447 141.661,375.446 141.975,375.445 142.289,375.444 142.603,375.443 142.917,375.442 143.231,375.441 143.545,375.440 143.859,375.438 144.173,375.437 144.487,375.436 144.801,375.434 145.115,375.433 145.429,375.431 145.743,375.430 146.057,375.428 146.371,375.426 146.685,375.424 147.000,375.422 147.314,375.420 147.628,375.418 147.942,375.416 148.256,375.414 148.570,375.412 148.884,375.409 149.198,375.407 149.512,375.404 149.826,375.401 150.140,375.399 150.454,375.396 150.768,375.393 151.082,375.389 151.396,375.386 151.710,375.383 152.024,375.379 152.339,375.375 152.653,375.372 152.967,375.368 153.281,375.363 153.595,375.359 153.909,375.355 154.223,375.350 154.537,375.345 154.851,375.340 155.165,375.335 155.479,375.330 155.793,375.324 156.107,375.318 156.421,375.312 156.735,375.306 157.049,375.300 157.363,375.293 157.677,375.286 157.992,375.279 158.306,375.272 158.620,375.264 158.934,375.256 159.248,375.248 159.562,375.239 159.876,375.230 160.190,375.221 160.504,375.211 160.818,375.201 161.132,375.191 161.446,375.181 161.760,375.170 162.074,375.158 162.388,375.147 162.702,375.134 163.016,375.122 163.331,375.109 163.645,375.095 163.959,375.081 164.273,375.067 164.587,375.052 164.901,375.036 165.215,375.020 165.529,375.004 165.843,374.987 166.157,374.969 166.471,374.951 166.785,374.932 167.099,374.913 167.413,374.893 167.727,374.872 168.041,374.850 168.355,374.828 168.669,374.805 168.984,374.781 169.298,374.757 169.612,374.732 169.926,374.706 170.240,374.679 170.554,374.651 170.868,374.622 171.182,374.593 171.496,374.562 171.810,374.531 172.124,374.498 172.438,374.464 172.752,374.430 173.066,374.394 173.380,374.357 173.694,374.319 174.008,374.280 174.323,374.240 174.637,374.199 174.951,374.156 175.265,374.112 175.579,374.066 175.893,374.019 176.207,373.971 176.521,373.921 176.835,373.870 177.149,373.817 177.463,373.763 177.777,373.707 178.091,373.649 178.405,373.590 178.719,373.529 179.033,373.466 179.347,373.402 179.661,373.335 179.976,373.267 180.290,373.196 180.604,373.124 180.918,373.049 181.232,372.973 181.546,372.894 181.860,372.813 182.174,372.730 182.488,372.644 182.802,372.556 183.116,372.466 183.430,372.373 183.744,372.278 184.058,372.180 184.372,372.079 184.686,371.975 185.000,371.869 185.315,371.760 185.629,371.648 185.943,371.533 186.257,371.415 186.571,371.294 186.885,371.169 187.199,371.042 187.513,370.911 187.827,370.776 188.141,370.639 188.455,370.497 188.769,370.352 189.083,370.203 189.397,370.051 189.711,369.894 190.025,369.734 190.339,369.570 190.653,369.401 190.968,369.229 191.282,369.052 191.596,368.870 191.910,368.685 192.224,368.495 192.538,368.300 192.852,368.100 193.166,367.896 193.480,367.687 193.794,367.472 194.108,367.253 194.422,367.029 194.736,366.799 195.050,366.564 195.364,366.323 195.678,366.077 195.992,365.825 196.306,365.568 196.621,365.305 196.935,365.035 197.249,364.760 197.563,364.478 197.877,364.190 198.191,363.896 198.505,363.596 198.819,363.288 199.133,362.974 199.447,362.654 199.761,362.326 200.075,361.991 200.389,361.649 200.703,361.300 201.017,360.944 201.331,360.580 201.645,360.208 201.960,359.829 202.274,359.442 202.588,359.047 202.902,358.644 203.216,358.232 203.530,357.813 203.844,357.385 204.158,356.948 204.472,356.503 204.786,356.049 205.100,355.587 205.414,355.115 205.728,354.634 206.042,354.144 206.356,353.645 206.670,353.136 206.984,352.618 207.298,352.090 207.613,351.552 207.927,351.004 208.241,350.446 208.555,349.878 208.869,349.300 209.183,348.711 209.497,348.112 209.811,347.503 210.125,346.882 210.439,346.251 210.753,345.609 211.067,344.955 211.381,344.291 211.695,343.615 212.009,342.928 212.323,342.229 212.637,341.519 212.952,340.797 213.266,340.063 213.580,339.318 213.894,338.560 214.208,337.790 214.522,337.008 214.836,336.214 215.150,335.407 215.464,334.588 215.778,333.757 216.092,332.912 216.406,332.055 216.720,331.185 217.034,330.302 217.348,329.407 217.662,328.498 217.976,327.576 218.290,326.641 218.605,325.692 218.919,324.730 219.233,323.755 219.547,322.766 219.861,321.764 220.175,320.748 220.489,319.719 220.803,318.676 221.117,317.619 221.431,316.549 221.745,315.464 222.059,314.366 222.373,313.254 222.687,312.128 223.001,310.988 223.315,309.834 223.629,308.667 223.944,307.485 224.258,306.289 224.572,305.080 224.886,303.856 225.200,302.618 225.514,301.367 225.828,300.101 226.142,298.822 226.456,297.528 226.770,296.221 227.084,294.900 227.398,293.565 227.712,292.217 228.026,290.854 228.340,289.478 228.654,288.088 228.968,286.685 229.282,285.268 229.597,283.838 229.911,282.395 230.225,280.938 230.539,279.468 230.853,277.985 231.167,276.488 231.481,274.979 231.795,273.458 232.109,271.923 232.423,270.376 232.737,268.817 233.051,267.245 233.365,265.661 233.679,264.065 233.993,262.458 234.307,260.838 234.621,259.207 234.936,257.565 235.250,255.911 235.564,254.246 235.878,252.571 236.192,250.885 236.506,249.188 236.820,247.481 237.134,245.764 237.448,244.037 237.762,242.300 238.076,240.554 238.390,238.799 238.704,237.035 239.018,235.262 239.332,233.481 239.646,231.691 239.960,229.894 240.274,228.088 240.589,226.276 240.903,224.456 241.217,222.629 241.531,220.796 241.845,218.956 242.159,217.110 242.473,215.259 242.787,213.402 243.101,211.540 243.415,209.674 243.729,207.803 244.043,205.927 244.357,204.048 244.671,202.166 244.985,200.280 245.299,198.392 245.613,196.501 245.927,194.608 246.242,192.714 246.556,190.818 246.870,188.921 247.184,187.023 247.498,185.126 247.812,183.228 248.126,181.331 248.440,179.435 248.754,177.540 249.068,175.647 249.382,173.756 249.696,171.868 250.010,169.982 250.324,168.100 250.638,166.221 250.952,164.347 251.266,162.477 251.581,160.612 251.895,158.753 252.209,156.899 252.523,155.052 252.837,153.211 253.151,151.377 253.465,149.551 253.779,147.733 254.093,145.923 254.407,144.122 254.721,142.330 255.035,140.548 255.349,138.776 255.663,137.014 255.977,135.264 256.291,133.525 256.605,131.797 256.919,130.082 257.234,128.380 257.548,126.690 257.862,125.014 258.176,123.353 258.490,121.705 258.804,120.073 259.118,118.455 259.432,116.854 259.746,115.268 260.060,113.699 260.374,112.147 260.688,110.612 261.002,109.095 261.316,107.596 261.630,106.116 261.944,104.655 262.258,103.213 262.573,101.790 262.887,100.388 263.201,99.007 263.515,97.646 263.829,96.306 264.143,94.989 264.457,93.693 264.771,92.420 265.085,91.169 265.399,89.941 265.713,88.737 266.027,87.557 266.341,86.400 266.655,85.269 266.969,84.162 267.283,83.080 267.597,82.023 267.911,80.992 268.226,79.987 268.540,79.008 268.854,78.056 269.168,77.131 269.482,76.233 269.796,75.362 270.110,74.519 270.424,73.704 270.738,72.916 271.052,72.158 271.366,71.427 271.680,70.726 271.994,70.053 272.308,69.410 272.622,68.796 272.936,68.212 273.250,67.657 273.565,67.132 273.879,66.637 274.193,66.173 274.507,65.739 274.821,65.335 275.135,64.962 275.449,64.619 275.763,64.308 276.077,64.027 276.391,63.777 276.705,63.559 277.019,63.371 277.333,63.215 277.647,63.090 277.961,62.996 278.275,62.933 278.589,62.902 278.903,62.902 279.218,62.933 279.532,62.996 279.846,63.090 280.160,63.215 280.474,63.371 280.788,63.559 281.102,63.777 281.416,64.027 281.730,64.308 282.044,64.619 282.358,64.962 282.672,65.335 282.986,65.739 283.300,66.173 283.614,66.637 283.928,67.132 284.242,67.657 284.557,68.212 284.871,68.796 285.185,69.410 285.499,70.053 285.813,70.726 286.127,71.427 286.441,72.158 286.755,72.916 287.069,73.704 287.383,74.519 287.697,75.362 288.011,76.233 288.325,77.131 288.639,78.056 288.953,79.008 289.267,79.987 289.581,80.992 289.895,82.023 290.210,83.080 290.524,84.162 290.838,85.269 291.152,86.400 291.466,87.557 291.780,88.737 292.094,89.941 292.408,91.169 292.722,92.420 293.036,93.693 293.350,94.989 293.664,96.306 293.978,97.646 294.292,99.007 294.606,100.388 294.920,101.790 295.234,103.213 295.548,104.655 295.863,106.116 296.177,107.596 296.491,109.095 296.805,110.612 297.119,112.147 297.433,113.699 297.747,115.268 298.061,116.854 298.375,118.455 298.689,120.073 299.003,121.705 299.317,123.353 299.631,125.014 299.945,126.690 300.259,128.380 300.573,130.082 300.887,131.797 301.202,133.525 301.516,135.264 301.830,137.014 302.144,138.776 302.458,140.548 302.772,142.330 303.086,144.122 303.400,145.923 303.714,147.733 304.028,149.551 304.342,151.377 304.656,153.211 304.970,155.052 305.284,156.899 305.598,158.753 305.912,160.612 306.226,162.477 306.540,164.347 306.855,166.221 307.169,168.100 307.483,169.982 307.797,171.868 308.111,173.756 308.425,175.647 308.739,177.540 309.053,179.435 309.367,181.331 309.681,183.228 309.995,185.126 310.309,187.023 310.623,188.921 310.937,190.818 311.251,192.714 311.565,194.608 311.879,196.501 312.194,198.392 312.508,200.280 312.822,202.166 313.136,204.048 313.450,205.927 313.764,207.803 314.078,209.674 314.392,211.540 314.706,213.402 315.020,215.259 315.334,217.110 315.648,218.956 315.962,220.796 316.276,222.629 316.590,224.456 316.904,226.276 317.218,228.088 317.532,229.894 317.847,231.691 318.161,233.481 318.475,235.262 318.789,237.035 319.103,238.799 319.417,240.554 319.731,242.300 320.045,244.037 320.359,245.764 320.673,247.481 320.987,249.188 321.301,250.885 321.615,252.571 321.929,254.246 322.243,255.911 322.557,257.565 322.871,259.207 323.186,260.838 323.500,262.458 323.814,264.065 324.128,265.661 324.442,267.245 324.756,268.817 325.070,270.376 325.384,271.923 325.698,273.458 326.012,274.979 326.326,276.488 326.640,277.985 326.954,279.468 327.268,280.938 327.582,282.395 327.896,283.838 328.210,285.268 328.524,286.685 328.839,288.088 329.153,289.478 329.467,290.854 329.781,292.217 330.095,293.565 330.409,294.900 330.723,296.221 331.037,297.528 331.351,298.822 331.665,300.101 331.979,301.367 332.293,302.618 332.607,303.856 332.921,305.080 333.235,306.289 333.549,307.485 333.863,308.667 334.178,309.834 334.492,310.988 334.806,312.128 335.120,313.254 335.434,314.366 335.748,315.464 336.062,316.549 336.376,317.619 336.690,318.676 337.004,319.719 337.318,320.748 337.632,321.764 337.946,322.766 338.260,323.755 338.574,324.730 338.888,325.692 339.202,326.641 339.516,327.576 339.831,328.498 340.145,329.407 340.459,330.302 340.773,331.185 341.087,332.055 341.401,332.912 341.715,333.757 342.029,334.588 342.343,335.407 342.657,336.214 342.971,337.008 343.285,337.790 343.599,338.560 343.913,339.318 344.227,340.063 344.541,340.797 344.855,341.519 345.169,342.229 345.484,342.928 345.798,343.615 346.112,344.291 346.426,344.955 346.740,345.609 347.054,346.251 347.368,346.882 347.682,347.503 347.996,348.112 348.310,348.711 348.624,349.300 348.938,349.878 349.252,350.446 349.566,351.004 349.880,351.552 350.194,352.090 350.508,352.618 350.823,353.136 351.137,353.645 351.451,354.144 351.765,354.634 352.079,355.115 352.393,355.587 352.707,356.049 353.021,356.503 353.335,356.948 353.649,357.385 353.963,357.813 354.277,358.232 354.591,358.644 354.905,359.047 355.219,359.442 355.533,359.829 355.847,360.208 356.161,360.580 356.476,360.944 356.790,361.300 357.104,361.649 357.418,361.991 357.732,362.326 358.046,362.654 358.360,362.974 358.674,363.288 358.988,363.596 359.302,363.896 359.616,364.190 359.930,364.478 360.244,364.760 360.558,365.035 360.872,365.305 361.186,365.568 361.500,365.825 361.815,366.077 362.129,366.323 362.443,366.564 362.757,366.799 363.071,367.029 363.385,367.253 363.699,367.472 364.013,367.687 364.327,367.896 364.641,368.100 364.955,368.300 365.269,368.495 365.583,368.685 365.897,368.870 366.211,369.052 366.525,369.229 366.839,369.401 367.153,369.570 367.468,369.734 367.782,369.894 368.096,370.051 368.410,370.203 368.724,370.352 369.038,370.497 369.352,370.639 369.666,370.776 369.980,370.911 370.294,371.042 370.608,371.169 370.922,371.294 371.236,371.415 371.550,371.533 371.864,371.648 372.178,371.760 372.492,371.869 372.807,371.975 373.121,372.079 373.435,372.180 373.749,372.278 374.063,372.373 374.377,372.466 374.691,372.556 375.005,372.644 375.319,372.730 375.633,372.813 375.947,372.894 376.261,372.973 376.575,373.049 376.889,373.124 377.203,373.196 377.517,373.267 377.831,373.335 378.145,373.402 378.460,373.466 378.774,373.529 379.088,373.590 379.402,373.649 379.716,373.707 380.030,373.763 380.344,373.817 380.658,373.870 380.972,373.921 381.286,373.971 381.600,374.019 381.914,374.066 382.228,374.112 382.542,374.156 382.856,374.199 383.170,374.240 383.484,374.280 383.799,374.319 384.113,374.357 384.427,374.394 384.741,374.430 385.055,374.464 385.369,374.498 385.683,374.531 385.997,374.562 386.311,374.593 386.625,374.622 386.939,374.651 387.253,374.679 387.567,374.706 387.881,374.732 388.195,374.757 388.509,374.781 388.823,374.805 389.137,374.828 389.452,374.850 389.766,374.872 390.080,374.893 390.394,374.913 390.708,374.932 391.022,374.951 391.336,374.969 391.650,374.987 391.964,375.004 392.278,375.020 392.592,375.036 392.906,375.052 393.220,375.067 393.534,375.081 393.848,375.095 394.162,375.109 394.476,375.122 394.790,375.134 395.105,375.147 395.419,375.158 395.733,375.170 396.047,375.181 396.361,375.191 396.675,375.201 396.989,375.211 397.303,375.221 397.617,375.230 397.931,375.239 398.245,375.248 398.559,375.256 398.873,375.264 399.187,375.272 399.501,375.279 399.815,375.286 400.129,375.293 400.444,375.300 400.758,375.306 401.072,375.312 401.386,375.318 401.700,375.324 402.014,375.330 402.328,375.335 402.642,375.340 402.956,375.345 403.270,375.350 403.584,375.355 403.898,375.359 404.212,375.363 404.526,375.368 404.840,375.372 405.154,375.375 405.468,375.379 405.782,375.383 406.097,375.386 406.411,375.389 406.725,375.393 407.039,375.396 407.353,375.399 407.667,375.401 407.981,375.404 408.295,375.407 408.609,375.409 408.923,375.412 409.237,375.414 409.551,375.416 409.865,375.418 410.179,375.420 410.493,375.422 410.807,375.424 411.121,375.426 411.436,375.428 411.750,375.430 412.064,375.431 412.378,375.433 412.692,375.434 413.006,375.436 413.320,375.437 413.634,375.438 413.948,375.440 414.262,375.441 414.576,375.442 414.890,375.443 415.204,375.444 415.518,375.445 415.832,375.446 416.146,375.447 416.460,375.448 416.774,375.449 417.089,375.450 417.403,375.451 417.717,375.452 418.031,375.452 418.345,375.453 418.659,375.454 418.973,375.454 419.287,375.455 419.601,375.456 419.915,375.456 420.229,375.457 420.543,375.457 420.857,375.458 421.171,375.458 421.485,375.459 421.799,375.459 422.113,375.460 422.428,375.460 422.742,375.460 423.056,375.461 423.370,375.461 423.684,375.461 423.998,375.462 424.312,375.462 424.626,375.462 424.940,375.463 425.254,375.463 425.568,375.463 425.882,375.464 426.196,375.464 426.510,375.464 426.824,375.464 427.138,375.464 427.452,375.465 427.766,375.465 428.081,375.465 428.395,375.465 428.709,375.465 429.023,375.465 429.337,375.466 429.651,375.466 429.965,375.466 430.279,375.466 430.593,375.466 430.907,375.466 431.221,375.466 431.535,375.467 431.849,375.467 432.163,375.467 432.477,375.467 432.791,375.467 433.105,375.467 433.419,375.467 433.734,375.467 434.048,375.467 434.362,375.467 434.676,375.467 434.990,375.467 435.304,375.468 435.618,375.468 "/>
<g>
</g>
</g>
<g id="ID000003" >
  <g transform="translate(277.810,392.338)">
    <g transform="rotate(-0.0)">
      <text x="0.000" y="0.000" font-family="Times New Roman" text-anchor="middle" font-size="9pt" fill="#000000" >T</text>
    </g>
  </g>
</g>
<g id="ID000004" >
  <g transform="translate(113.444,204.492)">
    <g transform="rotate(-90.0)">
      <text x="0.000" y="0.000" font-family="Times New Roman" text-anchor="middle" font-size="9pt" fill="#000000" ><tspan>&#916;</tspan><tspan> V/V</tspan></text>
    </g>
  </g>
</g>
<g id="ID000005" >
</g>
    </g>
    <g>
      <polyline fill="none" stroke="#000000" stroke-width="0.5pt" stroke-dasharray="none" points="121.875,375.469 435.618,375.469 "/>
      <polyline fill="none" stroke="#000000" stroke-width="0.5pt" stroke-dasharray="none" points="121.875,31.641 435.618,31.641 "/>
      <polyline fill="none" stroke="#000000" stroke-width="0.5pt" stroke-dasharray="none" points="121.875,375.469 121.875,31.641 "/>
      <polyline fill="none" stroke="#000000" stroke-width="0.5pt" stroke-dasharray="none" points="435.618,375.469 435.618,31.641 "/>
      <polyline fill="none" stroke="#000000" stroke-width="0.5pt" stroke-dasharray="none" points="121.875,375.469 121.875,372.030 "/>
      <polyline fill="none" stroke="#000000" stroke-width="0.5pt" stroke-dasharray="none" points="121.875,375.469 121.875,375.469 "/>
    </g>
  </g>
  <g id ="ID000006">
  <clipPath id="ID000007">
    <rect x="534.695" y="31.641" width="313.743" height="343.828"/>
  </clipPath>
      <polygon fill="#000000" fill-opacity="0.00" stroke="none" stroke-width="0.5pt" stroke-opacity="1.00" stroke-dasharray="none" points="534.695,375.469 848.438,375.469 848.438,31.641 534.695,31.641 "/>
      <polygon fill="#000000" fill-opacity="0.00" stroke="none" stroke-width="0.5pt" stroke-opacity="1.00" stroke-dasharray="none" points="534.695,31.641 848.438,31.641 848.438,31.641 534.695,31.641 "/>
      <polygon fill="#000000" fill-opacity="0.00" stroke="none" stroke-width="0.5pt" stroke-opacity="1.00" stroke-dasharray="none" points="534.695,375.469 534.695,375.469 534.695,31.641 534.695,31.641 "/>
    <g>
<g id="ID000008" clip-path="url(#ID000007)" >
      <polyline fill="none" stroke="#000000" stroke-width="0.5pt" stroke-dasharray="none" points="534.695,461.426 535.009,461.082 535.323,460.737 535.637,460.393 535.951,460.049 536.265,459.705 536.579,459.361 536.893,459.017 537.207,458.672 537.521,458.328 537.835,457.984 538.149,457.640 538.463,457.296 538.777,456.952 539.091,456.607 539.405,456.263 539.720,455.919 540.034,455.575 540.348,455.231 540.662,454.887 540.976,454.542 541.290,454.198 541.604,453.854 541.918,453.510 542.232,453.166 542.546,452.821 542.860,452.477 543.174,452.133 543.488,451.789 543.802,451.445 544.116,451.101 544.430,450.756 544.744,450.412 545.058,450.068 545.373,449.724 545.687,449.380 546.001,449.036 546.315,448.691 546.629,448.347 546.943,448.003 547.257,447.659 547.571,447.315 547.885,446.971 548.199,446.626 548.513,446.282 548.827,445.938 549.141,445.594 549.455,445.250 549.769,444.906 550.083,444.561 550.397,444.217 550.712,443.873 551.026,443.529 551.340,443.185 551.654,442.840 551.968,442.496 552.282,442.152 552.596,441.808 552.910,441.464 553.224,441.120 553.538,440.775 553.852,440.431 554.166,440.087 554.480,439.743 554.794,439.399 555.108,439.055 555.422,438.710 555.736,438.366 556.050,438.022 556.365,437.678 556.679,437.334 556.993,436.990 557.307,436.645 557.621,436.301 557.935,435.957 558.249,435.613 558.563,435.269 558.877,434.925 559.191,434.580 559.505,434.236 559.819,433.892 560.133,433.548 560.447,433.204 560.761,432.859 561.075,432.515 561.389,432.171 561.704,431.827 562.018,431.483 562.332,431.139 562.646,430.794 562.960,430.450 563.274,430.106 563.588,429.762 563.902,429.418 564.216,429.074 564.530,428.729 564.844,428.385 565.158,428.041 565.472,427.697 565.786,427.353 566.100,427.009 566.414,426.664 566.728,426.320 567.042,425.976 567.357,425.632 567.671,425.288 567.985,424.944 568.299,424.599 568.613,424.255 568.927,423.911 569.241,423.567 569.555,423.223 569.869,422.878 570.183,422.534 570.497,422.190 570.811,421.846 571.125,421.502 571.439,421.158 571.753,420.813 572.067,420.469 572.381,420.125 572.695,419.781 573.010,419.437 573.324,419.093 573.638,418.748 573.952,418.404 574.266,418.060 574.580,417.716 574.894,417.372 575.208,417.028 575.522,416.683 575.836,416.339 576.150,415.995 576.464,415.651 576.778,415.307 577.092,414.963 577.406,414.618 577.720,414.274 578.034,413.930 578.349,413.586 578.663,413.242 578.977,412.897 579.291,412.553 579.605,412.209 579.919,411.865 580.233,411.521 580.547,411.177 580.861,410.832 581.175,410.488 581.489,410.144 581.803,409.800 582.117,409.456 582.431,409.112 582.745,408.767 583.059,408.423 583.373,408.079 583.687,407.735 584.002,407.391 584.316,407.047 584.630,406.702 584.944,406.358 585.258,406.014 585.572,405.670 585.886,405.326 586.200,404.982 586.514,404.637 586.828,404.293 587.142,403.949 587.456,403.605 587.770,403.261 588.084,402.916 588.398,402.572 588.712,402.228 589.026,401.884 589.341,401.540 589.655,401.196 589.969,400.851 590.283,400.507 590.597,400.163 590.911,399.819 591.225,399.475 591.539,399.131 591.853,398.786 592.167,398.442 592.481,398.098 592.795,397.754 593.109,397.410 593.423,397.066 593.737,396.721 594.051,396.377 594.365,396.033 594.679,395.689 594.994,395.345 595.308,395.001 595.622,394.656 595.936,394.312 596.250,393.968 596.564,393.624 596.878,393.280 597.192,392.935 597.506,392.591 597.820,392.247 598.134,391.903 598.448,391.559 598.762,391.215 599.076,390.870 599.390,390.526 599.704,390.182 600.018,389.838 600.333,389.494 600.647,389.150 600.961,388.805 601.275,388.461 601.589,388.117 601.903,387.773 602.217,387.429 602.531,387.085 602.845,386.740 603.159,386.396 603.473,386.052 603.787,385.708 604.101,385.364 604.415,385.020 604.729,384.675 605.043,384.331 605.357,383.987 605.671,383.643 605.986,383.299 606.300,382.954 606.614,382.610 606.928,382.266 607.242,381.922 607.556,381.578 607.870,381.234 608.184,380.889 608.498,380.545 608.812,380.201 609.126,379.857 609.440,379.513 609.754,379.169 610.068,378.824 610.382,378.480 610.696,378.136 611.010,377.792 611.324,377.448 611.639,377.104 611.953,376.759 612.267,376.415 612.581,376.071 612.895,375.727 613.209,375.383 613.523,375.039 613.837,374.694 614.151,374.350 614.465,374.006 614.779,373.662 615.093,373.318 615.407,372.974 615.721,372.629 616.035,372.285 616.349,371.941 616.663,371.597 616.978,371.253 617.292,370.908 617.606,370.564 617.920,370.220 618.234,369.876 618.548,369.532 618.862,369.188 619.176,368.843 619.490,368.499 619.804,368.155 620.118,367.811 620.432,367.467 620.746,367.123 621.060,366.778 621.374,366.434 621.688,366.090 622.002,365.746 622.316,365.402 622.631,365.058 622.945,364.713 623.259,364.369 623.573,364.025 623.887,363.681 624.201,363.337 624.515,362.993 624.829,362.648 625.143,362.304 625.457,361.960 625.771,361.616 626.085,361.272 626.399,360.927 626.713,360.583 627.027,360.239 627.341,359.895 627.655,359.551 627.970,359.207 628.284,358.862 628.598,358.518 628.912,358.174 629.226,357.830 629.540,357.486 629.854,357.142 630.168,356.797 630.482,356.453 630.796,356.109 631.110,355.765 631.424,355.421 631.738,355.077 632.052,354.732 632.366,354.388 632.680,354.044 632.994,353.700 633.308,353.356 633.623,353.012 633.937,352.667 634.251,352.323 634.565,351.979 634.879,351.635 635.193,351.291 635.507,350.946 635.821,350.602 636.135,350.258 636.449,349.914 636.763,349.570 637.077,349.226 637.391,348.881 637.705,348.537 638.019,348.193 638.333,347.849 638.647,347.505 638.962,347.161 639.276,346.816 639.590,346.472 639.904,346.128 640.218,345.784 640.532,345.440 640.846,345.096 641.160,344.751 641.474,344.407 641.788,344.063 642.102,343.719 642.416,343.375 642.730,343.031 643.044,342.686 643.358,342.342 643.672,341.998 643.986,341.654 644.300,341.310 644.615,340.965 644.929,340.621 645.243,340.277 645.557,339.933 645.871,339.589 646.185,339.245 646.499,338.900 646.813,338.556 647.127,338.212 647.441,337.868 647.755,337.524 648.069,337.180 648.383,336.835 648.697,336.491 649.011,336.147 649.325,335.803 649.639,335.459 649.954,335.115 650.268,334.770 650.582,334.426 650.896,334.082 651.210,333.738 651.524,333.394 651.838,333.050 652.152,332.705 652.466,332.361 652.780,332.017 653.094,331.673 653.408,331.329 653.722,330.984 654.036,330.640 654.350,330.296 654.664,329.952 654.978,329.608 655.292,329.264 655.607,328.919 655.921,328.575 656.235,328.231 656.549,327.887 656.863,327.543 657.177,327.199 657.491,326.854 657.805,326.510 658.119,326.166 658.433,325.822 658.747,325.478 659.061,325.134 659.375,324.789 659.689,324.445 660.003,324.101 660.317,323.757 660.631,323.413 660.945,323.069 661.260,322.724 661.574,322.380 661.888,322.036 662.202,321.692 662.516,321.348 662.830,321.003 663.144,320.659 663.458,320.315 663.772,319.971 664.086,319.627 664.400,319.283 664.714,318.938 665.028,318.594 665.342,318.250 665.656,317.906 665.970,317.562 666.284,317.218 666.599,316.873 666.913,316.529 667.227,316.185 667.541,315.841 667.855,315.497 668.169,315.153 668.483,314.808 668.797,314.464 669.111,314.120 669.425,313.776 669.739,313.432 670.053,313.088 670.367,312.743 670.681,312.399 670.995,312.055 671.309,311.711 671.623,311.367 671.937,311.022 672.252,310.678 672.566,310.334 672.880,309.990 673.194,309.646 673.508,309.302 673.822,308.957 674.136,308.613 674.450,308.269 674.764,307.925 675.078,307.581 675.392,307.237 675.706,306.892 676.020,306.548 676.334,306.204 676.648,305.860 676.962,305.516 677.276,305.172 677.591,304.827 677.905,304.483 678.219,304.139 678.533,303.795 678.847,303.451 679.161,303.107 679.475,302.762 679.789,302.418 680.103,302.074 680.417,301.730 680.731,301.386 681.045,301.041 681.359,300.697 681.673,300.353 681.987,300.009 682.301,299.665 682.615,299.321 682.929,298.976 683.244,298.632 683.558,298.288 683.872,297.944 684.186,297.600 684.500,297.256 684.814,296.911 685.128,296.567 685.442,296.223 685.756,295.879 686.070,295.535 686.384,295.191 686.698,294.846 687.012,294.502 687.326,294.158 687.640,293.814 687.954,293.470 688.268,293.126 688.583,292.781 688.897,292.437 689.211,292.093 689.525,291.749 689.839,291.405 690.153,291.060 690.467,290.716 690.781,290.372 691.095,290.028 691.409,289.684 691.723,289.340 692.037,288.995 692.351,288.651 692.665,288.307 692.979,287.963 693.293,287.619 693.607,287.275 693.921,286.930 694.236,286.586 694.550,286.242 694.864,285.898 695.178,285.554 695.492,285.210 695.806,284.865 696.120,284.521 696.434,284.177 696.748,283.833 697.062,283.489 697.376,283.145 697.690,282.800 698.004,282.456 698.318,282.112 698.632,281.768 698.946,281.424 699.260,281.079 699.575,280.735 699.889,280.391 700.203,280.047 700.517,279.703 700.831,279.359 701.145,279.014 701.459,278.670 701.773,278.326 702.087,277.982 702.401,277.638 702.715,277.294 703.029,276.949 703.343,276.605 703.657,276.261 703.971,275.917 704.285,275.573 704.599,275.229 704.913,274.884 705.228,274.540 705.542,274.196 705.856,273.852 706.170,273.508 706.484,273.164 706.798,272.819 707.112,272.475 707.426,272.131 707.740,271.787 708.054,271.443 708.368,271.099 708.682,270.754 708.996,270.410 709.310,270.066 709.624,269.722 709.938,269.378 710.252,269.033 710.566,268.689 710.881,268.345 711.195,268.001 711.509,267.657 711.823,267.313 712.137,266.968 712.451,266.624 712.765,266.280 713.079,265.936 713.393,265.592 713.707,265.248 714.021,264.903 714.335,264.559 714.649,264.215 714.963,263.871 715.277,263.527 715.591,263.183 715.905,262.838 716.220,262.494 716.534,262.150 716.848,261.806 717.162,261.462 717.476,261.118 717.790,260.773 718.104,260.429 718.418,260.085 718.732,259.741 719.046,259.397 719.360,259.052 719.674,258.708 719.988,258.364 720.302,258.020 720.616,257.676 720.930,257.332 721.244,256.987 721.558,256.643 721.873,256.299 722.187,255.955 722.501,255.611 722.815,255.267 723.129,254.922 723.443,254.578 723.757,254.234 724.071,253.890 724.385,253.546 724.699,253.202 725.013,252.857 725.327,252.513 725.641,252.169 725.955,251.825 726.269,251.481 726.583,251.137 726.897,250.792 727.212,250.448 727.526,250.104 727.840,249.760 728.154,249.416 728.468,249.071 728.782,248.727 729.096,248.383 729.410,248.039 729.724,247.695 730.038,247.351 730.352,247.006 730.666,246.662 730.980,246.318 731.294,245.974 731.608,245.630 731.922,245.286 732.236,244.941 732.550,244.597 732.865,244.253 733.179,243.909 733.493,243.565 733.807,243.221 734.121,242.876 734.435,242.532 734.749,242.188 735.063,241.844 735.377,241.500 735.691,241.156 736.005,240.811 736.319,240.467 736.633,240.123 736.947,239.779 737.261,239.435 737.575,239.090 737.889,238.746 738.204,238.402 738.518,238.058 738.832,237.714 739.146,237.370 739.460,237.025 739.774,236.681 740.088,236.337 740.402,235.993 740.716,235.649 741.030,235.305 741.344,234.960 741.658,234.616 741.972,234.272 742.286,233.928 742.600,233.584 742.914,233.240 743.228,232.895 743.542,232.551 743.857,232.207 744.171,231.863 744.485,231.519 744.799,231.175 745.113,230.830 745.427,230.486 745.741,230.142 746.055,229.798 746.369,229.454 746.683,229.109 746.997,228.765 747.311,228.421 747.625,228.077 747.939,227.733 748.253,227.389 748.567,227.044 748.881,226.700 749.196,226.356 749.510,226.012 749.824,225.668 750.138,225.324 750.452,224.979 750.766,224.635 751.080,224.291 751.394,223.947 751.708,223.603 752.022,223.259 752.336,222.914 752.650,222.570 752.964,222.226 753.278,221.882 753.592,221.538 753.906,221.194 754.220,220.849 754.534,220.505 754.849,220.161 755.163,219.817 755.477,219.473 755.791,219.128 756.105,218.784 756.419,218.440 756.733,218.096 757.047,217.752 757.361,217.408 757.675,217.063 757.989,216.719 758.303,216.375 758.617,216.031 758.931,215.687 759.245,215.343 759.559,214.998 759.873,214.654 760.187,214.310 760.502,213.966 760.816,213.622 761.130,213.278 761.444,212.933 761.758,212.589 762.072,212.245 762.386,211.901 762.700,211.557 763.014,211.213 763.328,210.868 763.642,210.524 763.956,210.180 764.270,209.836 764.584,209.492 764.898,209.147 765.212,208.803 765.526,208.459 765.841,208.115 766.155,207.771 766.469,207.427 766.783,207.082 767.097,206.738 767.411,206.394 767.725,206.050 768.039,205.706 768.353,205.362 768.667,205.017 768.981,204.673 769.295,204.329 769.609,203.985 769.923,203.641 770.237,203.297 770.551,202.952 770.865,202.608 771.179,202.264 771.494,201.920 771.808,201.576 772.122,201.232 772.436,200.887 772.750,200.543 773.064,200.199 773.378,199.855 773.692,199.511 774.006,199.166 774.320,198.822 774.634,198.478 774.948,198.134 775.262,197.790 775.576,197.446 775.890,197.101 776.204,196.757 776.518,196.413 776.833,196.069 777.147,195.725 777.461,195.381 777.775,195.036 778.089,194.692 778.403,194.348 778.717,194.004 779.031,193.660 779.345,193.316 779.659,192.971 779.973,192.627 780.287,192.283 780.601,191.939 780.915,191.595 781.229,191.251 781.543,190.906 781.857,190.562 782.171,190.218 782.486,189.874 782.800,189.530 783.114,189.185 783.428,188.841 783.742,188.497 784.056,188.153 784.370,187.809 784.684,187.465 784.998,187.120 785.312,186.776 785.626,186.432 785.940,186.088 786.254,185.744 786.568,185.400 786.882,185.055 787.196,184.711 787.510,184.367 787.825,184.023 788.139,183.679 788.453,183.335 788.767,182.990 789.081,182.646 789.395,182.302 789.709,181.958 790.023,181.614 790.337,181.270 790.651,180.925 790.965,180.581 791.279,180.237 791.593,179.893 791.907,179.549 792.221,179.204 792.535,178.860 792.849,178.516 793.163,178.172 793.478,177.828 793.792,177.484 794.106,177.139 794.420,176.795 794.734,176.451 795.048,176.107 795.362,175.763 795.676,175.419 795.990,175.074 796.304,174.730 796.618,174.386 796.932,174.042 797.246,173.698 797.560,173.354 797.874,173.009 798.188,172.665 798.502,172.321 798.817,171.977 799.131,171.633 799.445,171.289 799.759,170.944 800.073,170.600 800.387,170.256 800.701,169.912 801.015,169.568 801.329,169.224 801.643,168.879 801.957,168.535 802.271,168.191 802.585,167.847 802.899,167.503 803.213,167.158 803.527,166.814 803.841,166.470 804.155,166.126 804.470,165.782 804.784,165.438 805.098,165.093 805.412,164.749 805.726,164.405 806.040,164.061 806.354,163.717 806.668,163.373 806.982,163.028 807.296,162.684 807.610,162.340 807.924,161.996 808.238,161.652 808.552,161.308 808.866,160.963 809.180,160.619 809.494,160.275 809.808,159.931 810.123,159.587 810.437,159.243 810.751,158.898 811.065,158.554 811.379,158.210 811.693,157.866 812.007,157.522 812.321,157.177 812.635,156.833 812.949,156.489 813.263,156.145 813.577,155.801 813.891,155.457 814.205,155.112 814.519,154.768 814.833,154.424 815.147,154.080 815.462,153.736 815.776,153.392 816.090,153.047 816.404,152.703 816.718,152.359 817.032,152.015 817.346,151.671 817.660,151.327 817.974,150.982 818.288,150.638 818.602,150.294 818.916,149.950 819.230,149.606 819.544,149.262 819.858,148.917 820.172,148.573 820.486,148.229 820.800,147.885 821.115,147.541 821.429,147.196 821.743,146.852 822.057,146.508 822.371,146.164 822.685,145.820 822.999,145.476 823.313,145.131 823.627,144.787 823.941,144.443 824.255,144.099 824.569,143.755 824.883,143.411 825.197,143.066 825.511,142.722 825.825,142.378 826.139,142.034 826.454,141.690 826.768,141.346 827.082,141.001 827.396,140.657 827.710,140.313 828.024,139.969 828.338,139.625 828.652,139.281 828.966,138.936 829.280,138.592 829.594,138.248 829.908,137.904 830.222,137.560 830.536,137.215 830.850,136.871 831.164,136.527 831.478,136.183 831.792,135.839 832.107,135.495 832.421,135.150 832.735,134.806 833.049,134.462 833.363,134.118 833.677,133.774 833.991,133.430 834.305,133.085 834.619,132.741 834.933,132.397 835.247,132.053 835.561,131.709 835.875,131.365 836.189,131.020 836.503,130.676 836.817,130.332 837.131,129.988 837.446,129.644 837.760,129.300 838.074,128.955 838.388,128.611 838.702,128.267 839.016,127.923 839.330,127.579 839.644,127.234 839.958,126.890 840.272,126.546 840.586,126.202 840.900,125.858 841.214,125.514 841.528,125.169 841.842,124.825 842.156,124.481 842.470,124.137 842.784,123.793 843.099,123.449 843.413,123.104 843.727,122.760 844.041,122.416 844.355,122.072 844.669,121.728 844.983,121.384 845.297,121.039 845.611,120.695 845.925,120.351 846.239,120.007 846.553,119.663 846.867,119.319 847.181,118.974 847.495,118.630 847.809,118.286 848.123,117.942 848.438,117.598 "/>
<g>
</g>
</g>
<g id="ID000009" >
  <g transform="translate(690.630,406.391)">
    <g transform="rotate(-0.0)">
      <text x="0.000" y="0.000" font-family="Times New Roman" text-anchor="middle" font-size="9pt" fill="#000000" >dpa</text>
    </g>
  </g>
</g>
<g id="ID000010" >
  <g transform="translate(526.263,204.492)">
    <g transform="rotate(-90.0)">
      <text x="0.000" y="0.000" font-family="Times New Roman" text-anchor="middle" font-size="9pt" fill="#000000" ><tspan>&#916;</tspan><tspan> V/V</tspan></text>
    </g>
  </g>
</g>
<g id="ID000011" >
</g>
    </g>
    <g>
      <polyline fill="none" stroke="#000000" stroke-width="0.5pt" stroke-dasharray="none" points="613.130,375.469 613.130,372.030 "/>
      <polyline fill="none" stroke="#000000" stroke-width="0.5pt" stroke-dasharray="none" points="534.695,375.469 848.438,375.469 "/>
      <polyline fill="none" stroke="#000000" stroke-width="0.5pt" stroke-dasharray="none" points="613.130,31.641 613.130,35.079 "/>
      <polyline fill="none" stroke="#000000" stroke-width="0.5pt" stroke-dasharray="none" points="534.695,31.641 848.438,31.641 "/>
  <g transform="translate(613.130,393.408)">
    <g transform="rotate(-0.0)">
      <text x="0.000" y="0.000" font-family="Times New Roman" text-anchor="middle" font-size="9pt" fill="#000000" >incubation period</text>
    </g>
  </g>
      <polyline fill="none" stroke="#000000" stroke-width="0.5pt" stroke-dasharray="none" points="534.695,375.469 534.695,31.641 "/>
      <polyline fill="none" stroke="#000000" stroke-width="0.5pt" stroke-dasharray="none" points="848.438,375.469 848.438,31.641 "/>
      <polyline fill="none" stroke="#000000" stroke-width="0.5pt" stroke-dasharray="none" points="534.695,375.469 534.695,372.030 "/>
      <polyline fill="none" stroke="#000000" stroke-width="0.5pt" stroke-dasharray="none" points="534.695,375.469 534.695,375.469 "/>
    </g>
  </g>
  </g>
</svg>
