<?xml version="1.0" encoding="UTF-8" standalone="no"?>
<!-- Created with Inkscape (http://www.inkscape.org/) -->

<svg
   xmlns:dc="http://purl.org/dc/elements/1.1/"
   xmlns:cc="http://creativecommons.org/ns#"
   xmlns:rdf="http://www.w3.org/1999/02/22-rdf-syntax-ns#"
   xmlns:svg="http://www.w3.org/2000/svg"
   xmlns="http://www.w3.org/2000/svg"
   xmlns:sodipodi="http://sodipodi.sourceforge.net/DTD/sodipodi-0.dtd"
   xmlns:inkscape="http://www.inkscape.org/namespaces/inkscape"
   width="585"
   height="590"
   id="svg2"
   version="1.1"
   inkscape:version="0.48.4 r9939"
   sodipodi:docname="New document 1">
  <defs
     id="defs4" />
  <sodipodi:namedview
     id="base"
     pagecolor="#ffffff"
     bordercolor="#666666"
     borderopacity="1.0"
     inkscape:pageopacity="0.0"
     inkscape:pageshadow="2"
     inkscape:zoom="1.0823529"
     inkscape:cx="350.86957"
     inkscape:cy="382.5"
     inkscape:document-units="px"
     inkscape:current-layer="layer1"
     showgrid="false"
     width="585px"
     inkscape:window-width="1920"
     inkscape:window-height="1017"
     inkscape:window-x="1912"
     inkscape:window-y="-8"
     inkscape:window-maximized="1" />
  <metadata
     id="metadata7">
    <rdf:RDF>
      <cc:Work
         rdf:about="">
        <dc:format>image/svg+xml</dc:format>
        <dc:type
           rdf:resource="http://purl.org/dc/dcmitype/StillImage" />
        <dc:title></dc:title>
      </cc:Work>
    </rdf:RDF>
  </metadata>
  <g
     inkscape:label="Layer 1"
     inkscape:groupmode="layer"
     id="layer1"
     transform="translate(0,-462.36218)">
    <g
       id="g3865"
       transform="translate(0.92391318,56.76543)">
      <g
         transform="matrix(1,0,0,1.0899958,3.9606353,8.14421)"
         id="g3797">
        <path
           style="fill:none;stroke:#000000;stroke-width:3;stroke-linecap:butt;stroke-linejoin:miter;stroke-miterlimit:4;stroke-opacity:1;stroke-dasharray:none"
           d="m 1.6732339,370.74806 149.6739061,0 c 0,0 8.31522,13.85869 -4.61957,70.21739 -12.93478,56.35869 -78.532596,156.1413 -78.532596,156.1413 0,0 -36.03261,-82.22826 -52.66305,-112.71739 C -1.0985061,453.90023 1.6732339,370.74806 1.6732339,370.74806 z"
           id="path2985"
           inkscape:connector-curvature="0" />
        <path
           style="fill:none;stroke:#000000;stroke-width:3;stroke-linecap:butt;stroke-linejoin:miter;stroke-miterlimit:4;stroke-opacity:1;stroke-dasharray:none"
           d="m 1.6732339,826.46544 149.6738961,0 c 0,0 8.31522,-13.85869 -4.61957,-70.21739 -12.93478,-56.35869 -78.532586,-156.1413 -78.532586,-156.1413 0,0 -36.03261,82.22826 -52.66305,112.71739 -16.6304301,30.48913 -13.8586901,113.6413 -13.8586901,113.6413 z"
           id="path2985-1"
           inkscape:connector-curvature="0" />
      </g>
      <g
         transform="matrix(1,0,0,1.0357561,3.9606353,101.37871)"
         id="g3793">
        <path
           style="fill:none;stroke:#000000;stroke-width:3;stroke-linecap:butt;stroke-linejoin:miter;stroke-miterlimit:4;stroke-opacity:1;stroke-dasharray:none"
           d="m 216.19566,300.06869 164.45651,0 c 0,0 4.61957,162.6087 -2.77174,188.47826 -7.3913,25.86957 -28.6413,49.89131 -28.6413,49.89131 l -8.31522,-23.09783 -12.01087,23.09783 -30.48913,-24.02174 -0.92391,21.25 -18.47826,-22.17392 -18.47826,20.32609 -1.84783,-24.02174 -19.40217,24.02174 -7.39131,-20.32609 -10.16304,18.47826 c 0,0 -8.31522,-25.86956 -7.3913,-79.45652 0.92391,-53.58695 1.84783,-152.44565 1.84783,-152.44565 z"
           id="path3773"
           inkscape:connector-curvature="0"
           sodipodi:nodetypes="ccscccccccccccsc" />
        <path
           style="fill:none;stroke:#000000;stroke-width:3;stroke-linecap:butt;stroke-linejoin:miter;stroke-miterlimit:4;stroke-opacity:1;stroke-dasharray:none"
           d="m 216.19566,779.80783 164.45651,0 c 0,0 4.61957,-162.6087 -2.77174,-188.47826 -7.3913,-25.86957 -28.6413,-49.89131 -28.6413,-49.89131 L 340.92391,564.53609 328.91304,541.43826 298.42391,565.46 297.5,544.21 l -18.47826,22.17392 -18.47826,-20.32609 -1.84783,24.02174 -19.40217,-24.02174 -7.39131,20.32609 -10.16304,-18.47826 c 0,0 -8.31522,25.86956 -7.3913,79.45652 0.92391,53.58695 1.84783,152.44565 1.84783,152.44565 z"
           id="path3773-7"
           inkscape:connector-curvature="0"
           sodipodi:nodetypes="ccscccccccccccsc" />
      </g>
      <g
         transform="matrix(1,0,0,1.0635838,-37.615452,338.73496)"
         id="g3823">
        <rect
           style="fill:none;stroke:#000000;stroke-width:3;stroke-linecap:butt;stroke-linejoin:bevel;stroke-miterlimit:4;stroke-opacity:1;stroke-dasharray:none;stroke-dashoffset:0"
           id="rect3801"
           width="120.1087"
           height="230.05435"
           x="495.21738"
           y="306.14478" />
        <rect
           style="fill:none;stroke:#000000;stroke-width:3;stroke-linecap:butt;stroke-linejoin:bevel;stroke-miterlimit:4;stroke-opacity:1;stroke-dasharray:none;stroke-dashoffset:0"
           id="rect3801-4"
           width="120.1087"
           height="230.05435"
           x="495.21738"
           y="69.090439" />
      </g>
      <text
         sodipodi:linespacing="125%"
         id="text3847"
         y="962.74261"
         x="49.462395"
         style="font-size:40px;font-style:normal;font-variant:normal;font-weight:normal;font-stretch:normal;line-height:125%;letter-spacing:0px;word-spacing:0px;fill:#000000;fill-opacity:1;stroke:none;font-family:Serif;-inkscape-font-specification:Serif"
         xml:space="preserve"><tspan
           style="font-size:22px"
           y="962.74261"
           x="49.462395"
           id="tspan3849"
           sodipodi:role="line">Highly</tspan><tspan
           style="font-size:22px"
           id="tspan3851"
           y="990.24261"
           x="49.462395"
           sodipodi:role="line">Ductile</tspan></text>
      <text
         sodipodi:linespacing="125%"
         id="text3853"
         y="962.74261"
         x="251.33789"
         style="font-size:40px;font-style:normal;font-variant:normal;font-weight:normal;font-stretch:normal;line-height:125%;letter-spacing:0px;word-spacing:0px;fill:#000000;fill-opacity:1;stroke:none;font-family:Serif;-inkscape-font-specification:Serif"
         xml:space="preserve"><tspan
           style="font-size:22px"
           y="962.74261"
           x="251.33789"
           id="tspan3855"
           sodipodi:role="line">Moderately</tspan><tspan
           style="font-size:22px"
           id="tspan3857"
           y="990.24261"
           x="251.33789"
           sodipodi:role="line">Ductile</tspan><tspan
           id="tspan3859"
           y="1017.7426"
           x="251.33789"
           sodipodi:role="line" /></text>
      <text
         sodipodi:linespacing="125%"
         id="text3861"
         y="962.74261"
         x="489.67825"
         style="font-size:40px;font-style:normal;font-variant:normal;font-weight:normal;font-stretch:normal;line-height:125%;letter-spacing:0px;word-spacing:0px;fill:#000000;fill-opacity:1;stroke:none;font-family:Serif;-inkscape-font-specification:Serif"
         xml:space="preserve"><tspan
           style="font-size:22px"
           y="962.74261"
           x="489.67825"
           id="tspan3863"
           sodipodi:role="line">Brittle</tspan></text>
    </g>
  </g>
</svg>
