<?xml version="1.0" encoding="UTF-8" standalone="no"?>
<!-- Created with Inkscape (http://www.inkscape.org/) -->

<svg
   xmlns:dc="http://purl.org/dc/elements/1.1/"
   xmlns:cc="http://creativecommons.org/ns#"
   xmlns:rdf="http://www.w3.org/1999/02/22-rdf-syntax-ns#"
   xmlns:svg="http://www.w3.org/2000/svg"
   xmlns="http://www.w3.org/2000/svg"
   xmlns:xlink="http://www.w3.org/1999/xlink"
   xmlns:sodipodi="http://sodipodi.sourceforge.net/DTD/sodipodi-0.dtd"
   xmlns:inkscape="http://www.inkscape.org/namespaces/inkscape"
   inkscape:version="0.91 r13725"
   version="1.1"
   id="svg2"
   viewBox="0 0 57.647101 60.814584"
   height="17.163227mm"
   width="16.269293mm"
   sodipodi:docname="q.svg">
  <sodipodi:namedview
     inkscape:window-maximized="1"
     inkscape:window-y="1"
     inkscape:window-x="0"
     inkscape:window-height="956"
     inkscape:window-width="1680"
     showgrid="false"
     inkscape:current-layer="layer1"
     inkscape:document-units="px"
     inkscape:cy="23.420588"
     inkscape:cx="25.784748"
     inkscape:zoom="5.0619288"
     inkscape:pageshadow="2"
     inkscape:pageopacity="0.0"
     borderopacity="1.0"
     bordercolor="#666666"
     pagecolor="#ffffff"
     id="base"
     fit-margin-top="0"
     fit-margin-left="0"
     fit-margin-right="0"
     fit-margin-bottom="0" />
  <defs
     id="defs4">
    <linearGradient
       id="linearGradient7265"
       inkscape:collect="always">
      <stop
         id="stop7267"
         offset="0"
         style="stop-color:#00005f;stop-opacity:1" />
      <stop
         id="stop7269"
         offset="1"
         style="stop-color:#c8c8c8;stop-opacity:1" />
    </linearGradient>
    <radialGradient
       gradientUnits="userSpaceOnUse"
       gradientTransform="matrix(1.5379544,0.87600263,-0.69674316,1.2232375,167.47803,-183.4107)"
       r="28.823551"
       fy="335.65848"
       fx="123.41142"
       cy="335.65848"
       cx="123.41142"
       id="radialGradient7271"
       xlink:href="#linearGradient7265"
       inkscape:collect="always" />
  </defs>
  <metadata
     id="metadata7">
    <rdf:RDF>
      <cc:Work
         rdf:about="">
        <dc:format>image/svg+xml</dc:format>
        <dc:type
           rdf:resource="http://purl.org/dc/dcmitype/StillImage" />
        <dc:title></dc:title>
      </cc:Work>
    </rdf:RDF>
  </metadata>
  <g
     transform="translate(-109.40435,-311.99266)"
     inkscape:label="Layer 1"
     inkscape:groupmode="layer"
     id="layer1">
    <path
       inkscape:connector-curvature="0"
       id="path7191"
       d="m 143.69922,311.99414 a 0.1250125,0.1250125 0 0 0 -0.004,0.002 0.1250125,0.1250125 0 0 0 -0.002,0 0.1250125,0.1250125 0 0 0 -0.002,0 0.1250125,0.1250125 0 0 0 -0.006,0 0.1250125,0.1250125 0 0 0 -0.006,0.002 0.1250125,0.1250125 0 0 0 -0.006,0.002 l -7.38477,1.08203 -0.004,0 a 0.1250125,0.1250125 0 0 0 -0.002,0 0.1250125,0.1250125 0 0 0 -0.002,0 0.1250125,0.1250125 0 0 0 -0.004,0.002 0.1250125,0.1250125 0 0 0 -0.006,0 0.1250125,0.1250125 0 0 0 -0.006,0.002 0.1250125,0.1250125 0 0 0 -0.006,0.002 l -0.002,0 -5.3164,1.57617 -0.008,0.002 a 0.1250125,0.1250125 0 0 0 -0.006,0.002 0.1250125,0.1250125 0 0 0 -0.006,0.002 0.1250125,0.1250125 0 0 0 -0.006,0.002 0.1250125,0.1250125 0 0 0 -0.006,0.004 l -4.51758,2.06445 a 0.1250125,0.1250125 0 0 0 -0.004,0.002 l -0.0156,0.006 a 0.1250125,0.1250125 0 0 0 -0.004,0.002 0.1250125,0.1250125 0 0 0 -0.004,0 0.1250125,0.1250125 0 0 0 -0.004,0.002 0.1250125,0.1250125 0 0 0 -0.004,0.004 0.1250125,0.1250125 0 0 0 -0.006,0.004 0.1250125,0.1250125 0 0 0 -0.004,0.002 l -4.41993,2.65234 a 0.1250125,0.1250125 0 0 0 -0.004,0.002 0.1250125,0.1250125 0 0 0 -0.004,0.002 l -0.004,0.002 a 0.1250125,0.1250125 0 0 0 -0.004,0.002 0.1250125,0.1250125 0 0 0 -0.002,0.002 0.1250125,0.1250125 0 0 0 -0.002,0.002 0.1250125,0.1250125 0 0 0 -0.002,0 0.1250125,0.1250125 0 0 0 -0.006,0.006 0.1250125,0.1250125 0 0 0 -0.004,0.002 l 0,0.002 a 0.1250125,0.1250125 0 0 0 -0.004,0.002 l -4.125,3.43945 a 0.1250125,0.1250125 0 0 0 -0.01,0.008 l -0.006,0.004 a 0.1250125,0.1250125 0 0 0 -0.004,0.004 0.1250125,0.1250125 0 0 0 -0.006,0.006 0.1250125,0.1250125 0 0 0 -0.008,0.006 0.1250125,0.1250125 0 0 0 0,0.002 l -3.35157,4.04102 a 0.1250125,0.1250125 0 0 0 -0.002,0.002 l -0.004,0.006 a 0.1250125,0.1250125 0 0 0 -0.006,0.008 0.1250125,0.1250125 0 0 0 -0.002,0.002 0.1250125,0.1250125 0 0 0 -0.002,0.004 0.1250125,0.1250125 0 0 0 -0.002,0.002 0.1250125,0.1250125 0 0 0 -0.002,0.006 l -0.006,0.01 -2.85742,4.82422 a 0.1250125,0.1250125 0 0 0 0,0.002 0.1250125,0.1250125 0 0 0 0,0.002 0.1250125,0.1250125 0 0 0 -0.002,0 0.1250125,0.1250125 0 0 0 -0.002,0.008 0.1250125,0.1250125 0 0 0 -0.002,0.004 0.1250125,0.1250125 0 0 0 -0.004,0.008 0.1250125,0.1250125 0 0 0 -0.002,0.004 0.1250125,0.1250125 0 0 0 0,0.002 0.1250125,0.1250125 0 0 0 0,0.002 0.1250125,0.1250125 0 0 0 -0.002,0.006 0.1250125,0.1250125 0 0 0 -0.002,0.01 l -2.06641,7.17969 a 0.1250125,0.1250125 0 0 0 0,0.004 0.1250125,0.1250125 0 0 0 -0.004,0.008 l 0,0.002 a 0.1250125,0.1250125 0 0 0 0,0.002 0.1250125,0.1250125 0 0 0 0,0.002 0.1250125,0.1250125 0 0 0 -0.002,0.006 0.1250125,0.1250125 0 0 0 0,0.002 0.1250125,0.1250125 0 0 0 -0.002,0.0117 0.1250125,0.1250125 0 0 0 0,0.002 0.1250125,0.1250125 0 0 0 0,0.002 0.1250125,0.1250125 0 0 0 0,0.01 0.1250125,0.1250125 0 0 0 0,0.002 0.1250125,0.1250125 0 0 0 0,0.0137 l 0.0977,7.3789 a 0.1250125,0.1250125 0 0 0 0,0.008 0.1250125,0.1250125 0 0 0 0,0.004 l 0,0.002 a 0.1250125,0.1250125 0 0 0 0,0.008 0.1250125,0.1250125 0 0 0 0,0.002 0.1250125,0.1250125 0 0 0 0.002,0.01 0.1250125,0.1250125 0 0 0 0.002,0.008 0.1250125,0.1250125 0 0 0 0,0.004 0.1250125,0.1250125 0 0 0 0.002,0.002 0.1250125,0.1250125 0 0 0 0,0.002 0.1250125,0.1250125 0 0 0 0,0.002 0.1250125,0.1250125 0 0 0 0.004,0.01 0.1250125,0.1250125 0 0 0 0,0.002 0.1250125,0.1250125 0 0 0 0,0.002 l 1.37695,4.41992 0.002,0.01 a 0.1250125,0.1250125 0 0 0 0.002,0.002 0.1250125,0.1250125 0 0 0 0.002,0.01 0.1250125,0.1250125 0 0 0 0.002,0.002 0.1250125,0.1250125 0 0 0 0.004,0.008 0.1250125,0.1250125 0 0 0 0,0.002 0.1250125,0.1250125 0 0 0 0.006,0.01 l 2.65039,4.80664 0.006,0.0117 0.002,0.004 a 0.1250125,0.1250125 0 0 0 0.002,0.004 0.1250125,0.1250125 0 0 0 0,0.002 l 0.002,0.002 a 0.1250125,0.1250125 0 0 0 0.002,0.004 0.1250125,0.1250125 0 0 0 0.004,0.006 0.1250125,0.1250125 0 0 0 0.004,0.006 0.1250125,0.1250125 0 0 0 0.004,0.004 0.1250125,0.1250125 0 0 0 0.004,0.006 0.1250125,0.1250125 0 0 0 0.004,0.004 l 3.2461,3.44141 a 0.1250125,0.1250125 0 0 0 0.002,0.002 0.1250125,0.1250125 0 0 0 0.002,0.002 0.1250125,0.1250125 0 0 0 0.006,0.008 0.1250125,0.1250125 0 0 0 0.002,0.002 0.1250125,0.1250125 0 0 0 0.008,0.006 0.1250125,0.1250125 0 0 0 0,0.002 0.1250125,0.1250125 0 0 0 0.002,0 0.1250125,0.1250125 0 0 0 0.008,0.008 0.1250125,0.1250125 0 0 0 0.004,0.002 0.1250125,0.1250125 0 0 0 0.002,0.002 0.1250125,0.1250125 0 0 0 0.004,0.002 l 6.01367,3.64649 0.008,0.006 a 0.1250125,0.1250125 0 0 0 0.004,0.002 0.1250125,0.1250125 0 0 0 0.008,0.004 0.1250125,0.1250125 0 0 0 0.002,0.002 0.1250125,0.1250125 0 0 0 0.01,0.002 0.1250125,0.1250125 0 0 0 0.0137,0.004 0.1250125,0.1250125 0 0 0 0.01,0.002 l 6.99023,1.67578 0.008,0 0.004,0.002 a 0.1250125,0.1250125 0 0 0 0.0274,0.004 0.1250125,0.1250125 0 0 0 0.004,0 l 0.008,0 6.31446,-0.0996 a 0.1250125,0.1250125 0 0 0 0.10156,-0.0547 l 0.0195,0.082 a 0.1250125,0.1250125 0 0 0 0.14649,0.0918 l 3.91211,-0.76757 -0.0313,-0.16211 3.0254,-0.75782 4.2832,3.79297 a 0.1250125,0.1250125 0 0 0 0,0.002 l 0.002,0.002 a 0.1250125,0.1250125 0 0 0 0.002,0.002 0.1250125,0.1250125 0 0 0 0.004,0.004 0.1250125,0.1250125 0 0 0 0.004,0.004 0.1250125,0.1250125 0 0 0 0.002,0.002 0.1250125,0.1250125 0 0 0 0.002,0.002 0.1250125,0.1250125 0 0 0 0.002,0 0.1250125,0.1250125 0 0 0 0.002,0.002 0.1250125,0.1250125 0 0 0 0.004,0.004 0.1250125,0.1250125 0 0 0 0.008,0.004 0.1250125,0.1250125 0 0 0 0.002,0.002 0.1250125,0.1250125 0 0 0 0.002,0.002 l 3.13476,2.64649 a 0.1250125,0.1250125 0 0 0 0.006,0.006 l 0.002,0.002 0.002,0 a 0.1250125,0.1250125 0 0 0 0.008,0.008 l 3.64258,3.25 a 0.1250125,0.1250125 0 0 0 0.006,0.004 0.1250125,0.1250125 0 0 0 0.004,0.004 0.1250125,0.1250125 0 0 0 0.006,0.002 0.1250125,0.1250125 0 0 0 0.006,0.006 0.1250125,0.1250125 0 0 0 0.004,0.002 0.1250125,0.1250125 0 0 0 0.006,0.002 0.1250125,0.1250125 0 0 0 0.006,0.002 0.1250125,0.1250125 0 0 0 0.006,0.002 0.1250125,0.1250125 0 0 0 0.006,0.002 0.1250125,0.1250125 0 0 0 0.006,0.002 0.1250125,0.1250125 0 0 0 0.006,0.002 0.1250125,0.1250125 0 0 0 0.006,0 0.1250125,0.1250125 0 0 0 0.008,0.002 0.1250125,0.1250125 0 0 0 0.006,0 0.1250125,0.1250125 0 0 0 0.0312,-0.004 0.1250125,0.1250125 0 0 0 0.0117,-0.004 0.1250125,0.1250125 0 0 0 0.0234,-0.01 0.1250125,0.1250125 0 0 0 0.0273,-0.0215 l 0.004,-0.004 7.10742,-7.30468 a 0.1250125,0.1250125 0 0 0 0.004,-0.004 0.1250125,0.1250125 0 0 0 0.004,-0.006 0.1250125,0.1250125 0 0 0 0.004,-0.004 0.1250125,0.1250125 0 0 0 0.004,-0.006 0.1250125,0.1250125 0 0 0 0.002,-0.006 0.1250125,0.1250125 0 0 0 0.004,-0.006 0.1250125,0.1250125 0 0 0 0.002,-0.004 0.1250125,0.1250125 0 0 0 0.004,-0.006 0.1250125,0.1250125 0 0 0 0.002,-0.006 0.1250125,0.1250125 0 0 0 0.002,-0.006 0.1250125,0.1250125 0 0 0 0,-0.006 0.1250125,0.1250125 0 0 0 0.002,-0.008 0.1250125,0.1250125 0 0 0 0,-0.006 0.1250125,0.1250125 0 0 0 0.002,-0.006 0.1250125,0.1250125 0 0 0 0,-0.006 0.1250125,0.1250125 0 0 0 0,-0.006 0.1250125,0.1250125 0 0 0 0,-0.008 0.1250125,0.1250125 0 0 0 -0.002,-0.006 0.1250125,0.1250125 0 0 0 0,-0.006 0.1250125,0.1250125 0 0 0 -0.002,-0.006 0.1250125,0.1250125 0 0 0 -0.004,-0.0117 0.1250125,0.1250125 0 0 0 -0.002,-0.006 0.1250125,0.1250125 0 0 0 -0.002,-0.006 0.1250125,0.1250125 0 0 0 -0.002,-0.006 0.1250125,0.1250125 0 0 0 -0.004,-0.006 0.1250125,0.1250125 0 0 0 -0.002,-0.004 0.1250125,0.1250125 0 0 0 -0.0137,-0.0156 0.1250125,0.1250125 0 0 0 -0.002,-0.004 0.1250125,0.1250125 0 0 0 -0.002,-0.002 l -0.004,-0.004 a 0.1250125,0.1250125 0 0 0 -0.01,-0.008 l -3.82422,-3.82422 a 0.1250125,0.1250125 0 0 0 -0.002,-0.002 0.1250125,0.1250125 0 0 0 -0.002,-0.004 l -0.004,-0.004 a 0.1250125,0.1250125 0 0 0 -0.006,-0.006 l -0.008,-0.008 a 0.1250125,0.1250125 0 0 0 -0.002,0 0.1250125,0.1250125 0 0 0 0,-0.002 0.1250125,0.1250125 0 0 0 -0.008,-0.006 l -3.44531,-3.44727 4.23633,-3.85351 a 0.1250125,0.1250125 0 0 0 0.002,-0.002 0.1250125,0.1250125 0 0 0 0.002,-0.002 0.1250125,0.1250125 0 0 0 0.008,-0.006 0.1250125,0.1250125 0 0 0 0.002,-0.002 0.1250125,0.1250125 0 0 0 0.006,-0.006 0.1250125,0.1250125 0 0 0 0.002,-0.002 0.1250125,0.1250125 0 0 0 0,-0.002 0.1250125,0.1250125 0 0 0 0.002,0 0.1250125,0.1250125 0 0 0 0.006,-0.008 l 4.13086,-4.91797 a 0.1250125,0.1250125 0 0 0 0.002,-0.004 0.1250125,0.1250125 0 0 0 0.004,-0.002 0.1250125,0.1250125 0 0 0 0,-0.002 l 0.002,-0.002 0.004,-0.002 a 0.1250125,0.1250125 0 0 0 0,-0.002 0.1250125,0.1250125 0 0 0 0.008,-0.008 0.1250125,0.1250125 0 0 0 0,-0.002 0.1250125,0.1250125 0 0 0 0.004,-0.006 0.1250125,0.1250125 0 0 0 0.002,-0.004 0.1250125,0.1250125 0 0 0 0,-0.002 0.1250125,0.1250125 0 0 0 0.004,-0.006 0.1250125,0.1250125 0 0 0 0.002,-0.002 0.1250125,0.1250125 0 0 0 0,-0.002 0.1250125,0.1250125 0 0 0 0.004,-0.01 l 3.64843,-8.18359 a 0.1250125,0.1250125 0 0 0 0.002,-0.004 0.1250125,0.1250125 0 0 0 0,-0.002 0.1250125,0.1250125 0 0 0 0.002,-0.004 0.1250125,0.1250125 0 0 0 0.002,-0.002 0.1250125,0.1250125 0 0 0 0.002,-0.006 0.1250125,0.1250125 0 0 0 0.002,-0.01 0.1250125,0.1250125 0 0 0 0,-0.002 0.1250125,0.1250125 0 0 0 0.002,-0.008 0.1250125,0.1250125 0 0 0 0,-0.002 0.1250125,0.1250125 0 0 0 0,-0.002 0.1250125,0.1250125 0 0 0 0,-0.006 l 0,-0.002 a 0.1250125,0.1250125 0 0 0 0,-0.004 0.1250125,0.1250125 0 0 0 0,-0.01 0.1250125,0.1250125 0 0 0 0,-0.002 l 0.39454,-6.97852 0.002,-0.0137 0,-0.002 a 0.1250125,0.1250125 0 0 0 0,-0.002 0.1250125,0.1250125 0 0 0 0,-0.008 0.1250125,0.1250125 0 0 0 0,-0.002 0.1250125,0.1250125 0 0 0 0,-0.002 0.1250125,0.1250125 0 0 0 -0.002,-0.008 0.1250125,0.1250125 0 0 0 0,-0.004 0.1250125,0.1250125 0 0 0 0,-0.002 0.1250125,0.1250125 0 0 0 -0.002,-0.006 0.1250125,0.1250125 0 0 0 0,-0.002 l 0,-0.002 a 0.1250125,0.1250125 0 0 0 0,-0.002 0.1250125,0.1250125 0 0 0 -0.002,-0.002 0.1250125,0.1250125 0 0 0 0,-0.006 0.1250125,0.1250125 0 0 0 -0.002,-0.002 0.1250125,0.1250125 0 0 0 0,-0.002 l -1.27735,-5.80273 0,-0.004 a 0.1250125,0.1250125 0 0 0 -0.002,-0.002 0.1250125,0.1250125 0 0 0 0,-0.004 0.1250125,0.1250125 0 0 0 -0.002,-0.004 0.1250125,0.1250125 0 0 0 0,-0.004 0.1250125,0.1250125 0 0 0 -0.002,-0.004 0.1250125,0.1250125 0 0 0 -0.002,-0.006 0.1250125,0.1250125 0 0 0 0,-0.002 0.1250125,0.1250125 0 0 0 -0.002,-0.004 0.1250125,0.1250125 0 0 0 0,-0.002 l -0.004,-0.006 a 0.1250125,0.1250125 0 0 0 -0.002,-0.004 l -2.45899,-5.40821 0,-0.004 a 0.1250125,0.1250125 0 0 0 -0.006,-0.01 0.1250125,0.1250125 0 0 0 0,-0.002 0.1250125,0.1250125 0 0 0 -0.006,-0.01 0.1250125,0.1250125 0 0 0 -0.006,-0.0117 0.1250125,0.1250125 0 0 0 -0.002,-0.002 l -0.006,-0.008 -3.33984,-4.31836 -0.002,-0.004 a 0.1250125,0.1250125 0 0 0 -0.004,-0.004 l 0,-0.002 a 0.1250125,0.1250125 0 0 0 -0.004,-0.004 0.1250125,0.1250125 0 0 0 -0.004,-0.006 0.1250125,0.1250125 0 0 0 0,-0.002 0.1250125,0.1250125 0 0 0 -0.004,-0.004 0.1250125,0.1250125 0 0 0 -0.004,-0.004 0.1250125,0.1250125 0 0 0 -0.004,-0.004 0.1250125,0.1250125 0 0 0 -0.006,-0.006 0.1250125,0.1250125 0 0 0 -0.002,-0.002 l -0.008,-0.006 -3.83398,-3.14648 -0.002,0 a 0.1250125,0.1250125 0 0 0 -0.008,-0.008 0.1250125,0.1250125 0 0 0 -0.002,0 0.1250125,0.1250125 0 0 0 -0.008,-0.008 0.1250125,0.1250125 0 0 0 -0.002,0 0.1250125,0.1250125 0 0 0 -0.0332,-0.0156 l -5.51172,-2.26367 a 0.1250125,0.1250125 0 0 0 -0.008,-0.004 0.1250125,0.1250125 0 0 0 -0.004,-0.002 0.1250125,0.1250125 0 0 0 -0.008,-0.002 0.1250125,0.1250125 0 0 0 -0.004,-0.002 0.1250125,0.1250125 0 0 0 -0.008,-0.002 0.1250125,0.1250125 0 0 0 -0.004,0 0.1250125,0.1250125 0 0 0 -0.0215,-0.002 0.1250125,0.1250125 0 0 0 -0.002,0 l -6.68164,-0.6875 -0.0117,-0.002 a 0.1250125,0.1250125 0 0 0 -0.0137,-0.002 0.1250125,0.1250125 0 0 0 -0.006,0 0.1250125,0.1250125 0 0 0 -0.006,0 0.1250125,0.1250125 0 0 0 -0.006,0 z m 0.37109,0.28906 6.14063,0.63086 -2.08008,3.16211 -4.06055,-3.79297 z m -0.63867,0.004 -3.38867,4.57812 -3.48047,-3.57031 6.86914,-1.00781 z m 0.29492,0.0195 4.14258,3.86524 -7.54492,0.73437 3.40234,-4.59961 z m 6.75,0.6582 5.01758,2.0625 -7.08008,1.07422 2.0625,-3.13672 z m -14.17383,0.41993 3.45704,3.54882 -6.91407,0 3.45703,-3.54882 z m -0.42382,0.0781 -3.3125,3.39844 -1.39453,-2.00391 4.70703,-1.39453 z m -4.95313,1.48047 1.38086,1.98242 -5.3457,-0.17187 3.96484,-1.81055 z m 24.89258,0.28711 -0.55469,5.08008 -6.74023,-3.97071 7.29492,-1.10937 z m 0.24023,0.0957 3.52735,2.89258 -4.07032,2.08008 0.54297,-4.97266 z m -8.04687,1.08203 -0.45313,3.53516 -6.98242,-2.80859 7.43555,-0.72657 z m 0.24414,0.0625 6.60742,3.89453 -7.06055,-0.36132 0.45313,-3.53321 z m -21.72266,0.51953 5.44336,0.17579 -5.79297,2.45703 0.34961,-2.63282 z m -0.26758,0.11329 -0.34374,2.58789 -3.53711,-0.25977 3.88085,-2.32812 z m 6.3086,0.0801 7.45898,0 7.56055,3.04493 5.00781,4.71289 3.33789,5.5957 1.47461,7.06836 0,0.004 -0.0977,7.3789 0,0.006 -1.07813,3.72656 -0.002,0.002 -2.16211,4.42382 -2.55078,3.03907 -3.1211,2.24218 -6.38086,1.47266 -6.67187,-0.6875 -5.70117,-2.35937 -4.71289,-3.82813 -0.002,-0.002 -3.04297,-3.92578 -1.96289,-4.41602 a 0.1250125,0.1250125 0 0 0 0,-0.004 l -1.18164,-5.99804 0.29493,-7.26758 2.94726,-6.7793 0,-0.002 4.11524,-4.70117 6.4707,-2.7461 z m 27.10547,1.26953 -0.27539,7.51954 -3.85157,-5.41211 4.12696,-2.10743 z m 0.24414,0.13868 3.08008,3.98828 -3.35157,3.44336 0.27149,-7.43164 z m -37.82031,1.07031 3.66601,0.26953 -3.75781,4.29297 0.0918,-4.5625 z m -0.25391,0.13672 -0.0898,4.58398 -3.68555,-1.43554 3.77539,-3.14844 z m 26.14648,0.46484 7.15235,0.36524 -2.47461,4.03711 -4.67774,-4.40235 z m 7.37891,0.47656 3.85156,5.41211 -6.32812,-1.375 2.47656,-4.03711 z m 7.75781,2.06836 2.28321,5.02344 -5.66407,-1.55273 3.38086,-3.47071 z m -45.26367,0.32618 3.64453,1.42187 -6.66601,2.2207 3.02148,-3.64257 z m 3.78711,1.63671 -2.78125,6.39258 -4.16797,-4.07422 6.94922,-2.31836 z m 31.29883,0.27344 6.33398,1.37696 -3.21289,3.85546 -3.12109,-5.23242 z m 6.77734,1.48828 5.67969,1.55664 -3.39063,3.84961 -2.28906,-5.40625 z m -0.25195,0.0488 2.28711,5.39649 -5.49024,-1.55469 3.20313,-3.8418 z m -44.98242,0.6543 4.13086,4.03906 -6.79102,0.45899 2.66016,-4.49805 z m 51.07226,1.05273 1.1836,5.3711 -4.55079,-1.54688 3.36719,-3.82422 z m -9.34961,2.37891 5.54688,1.57031 -4.1582,5.08399 -1.38868,-6.6543 z m -37.62109,0.85937 -3.3418,3.4336 -0.002,0 -3.3418,-2.98047 6.68555,-0.45313 z m 0.17969,0.17578 -0.27149,6.68555 -3.07031,-3.25195 3.3418,-3.4336 z m -7.10547,0.39844 3.38672,3.01953 -5.3086,3.66211 1.92188,-6.68164 z m 50.4375,0.24414 4.58398,1.5586 -4.49023,4.58203 -0.0937,-6.14063 z m -0.2461,0.16992 0.0918,6.11133 -4.19726,-1.0957 4.10546,-5.01563 z m 4.91407,1.66016 -0.36524,6.4961 -4.11718,-1.92188 4.48242,-4.57422 z m -51.66992,1.2168 -0.73633,7.02344 -4.6211,-3.32813 5.35743,-3.69531 z m 0.24804,0.0254 3.08789,3.26758 -3.8125,3.63086 0.72461,-6.89844 z m 42.30469,2.34765 4.20898,1.09766 -4.29882,5.76367 0.0898,-6.86133 z m -39.11914,1.17188 1.09765,5.58008 -4.93945,-1.91992 3.8418,-3.66016 z m 43.63672,0.0352 4.10351,1.91406 -5.01562,3.64648 0.91211,-5.56054 z m -0.30078,0.29882 -0.89063,5.42383 -3.28711,0.17774 4.17774,-5.60157 z m -52.21485,0.0625 4.60156,3.31055 -4.51171,3.59375 -0.0898,-6.9043 z m 56.56055,1.90625 -3.34766,7.50782 -1.62695,-3.89063 4.97461,-3.61719 z m -51.5625,1.60938 4.91211,1.91016 -3.45508,3.18359 -1.45703,-5.09375 z m -0.25781,0.006 1.46875,5.14258 -5.9668,-1.5625 4.49805,-3.58008 z m 5.36132,2.07031 1.80665,4.07227 -5.24805,-0.9043 3.4414,-3.16797 z m 40.96094,0.0332 -4.13867,3.44922 0.94922,-3.27539 3.18945,-0.17383 z m 0.31836,0.0605 1.63672,3.9082 -6,-0.27343 4.36328,-3.63477 z m -51.22656,1.65235 5.90039,1.54101 -4.62891,2.54297 -1.27148,-4.08398 z m 6.47461,1.66992 5.30078,0.91211 -2.28516,4.38671 -3.01562,-5.29882 z m -0.45117,0.0898 -2.18946,7.03125 -2.46679,-4.47461 4.65625,-2.55664 z m 0.24609,0.0508 3.04297,5.34766 -5.25586,1.75195 2.21289,-7.09961 z m 40.46484,0.41797 6.0625,0.27539 -3.85937,4.5918 -2.20313,-4.86719 z m -0.20312,0.1582 2.16406,4.77735 -4.14844,-0.72071 1.98438,-4.05664 z m -34.54688,0.33399 2.8125,3.625 -5.07812,0.72461 2.26562,-4.34961 z m 2.89649,3.86719 -0.63867,4.73632 -4.46485,-4.00781 5.10352,-0.72851 z m 0.24023,0.0898 4.3711,3.55078 -5.00977,1.18555 0.63867,-4.73633 z m 29.37305,0.0117 4.14062,0.71875 -3.96093,3.59961 -0.17969,-4.31836 z m -0.24219,0.17773 0.17383,4.18555 -2.44141,-1.48242 2.26758,-2.70313 z m -34.71093,0.57032 4.50976,4.05273 -6.7207,0.91797 2.21094,-4.9707 z m -0.2754,0.002 -2.17968,4.90234 -2.99805,-3.17773 5.17773,-1.72461 z m 32.53516,2.31055 2.37695,1.44335 -5.09179,0.50782 2.71484,-1.95117 z m -22.10547,0.6875 1.80274,3.96484 -6.75782,-2.79297 0,-0.002 4.95508,-1.16992 z m 0.31641,0.0918 5.18945,2.14844 -3.39844,1.78711 -1.79101,-3.93555 z m 24.28125,0.90235 -6.09571,8.2207 0.55274,-7.66602 5.54297,-0.55468 z m 0.28125,0.0391 3.33203,3.33203 -9.44336,4.91016 6.11133,-8.24219 z m -30.40625,0.2539 -1.09766,4.29883 -5.58008,-3.38476 6.67774,-0.91407 z m 0.23047,0.10547 5.39453,5.85157 -6.49024,-1.55469 1.09571,-4.29688 z m 0.41015,0.0762 6.76367,2.79688 -1.4414,2.97656 -5.32227,-5.77344 z m 23.3711,0.19922 -4.44727,3.91407 -1.33398,-2.57813 5.78125,-1.33594 z m 0.30859,0.0625 -0.55469,7.64063 -4.05078,-3.58985 4.60547,-4.05078 z m -13.00976,0.64454 0.006,0.006 -0.0312,0.008 0.0254,-0.0137 z m 0.40039,0.0156 6.14843,0.63281 -1.53711,3.34375 -4.61132,-3.97656 z m -0.52149,0.0488 1.18555,4.8125 -4.55664,-3.03906 3.37109,-1.77344 z m 0.27344,0.0684 4.7832,4.125 -3.5918,0.70508 -1.1914,-4.83008 z m 6.58789,0.69336 1.29297,2.49804 -2.75586,0.68946 1.46289,-3.1875 z m -10.42578,1.18359 4.28711,2.85742 -5.7168,0.0899 1.42969,-2.94727 z m 26.4414,0.30859 3.55274,3.55274 -3.73633,3.46484 0.18359,-7.01758 z m -0.25195,0.0469 -0.18555,7.14453 -6.30664,0.27734 6.49219,-7.42187 z m -0.39844,0.0762 -6.39453,7.3086 -2.92578,-2.4668 9.32031,-4.8418 z m 0.91211,6.82422 -0.85156,0.87695 0.36523,-0.42578 0.48633,-0.45117 z m -0.86133,0.50195 -2.79101,3.24024 -3.32813,-2.97071 6.11914,-0.26953 z"
       style="color:#000000;font-style:normal;font-variant:normal;font-weight:normal;font-stretch:normal;font-size:medium;line-height:normal;font-family:sans-serif;text-indent:0;text-align:start;text-decoration:none;text-decoration-line:none;text-decoration-style:solid;text-decoration-color:#000000;letter-spacing:normal;word-spacing:normal;text-transform:none;direction:ltr;block-progression:tb;writing-mode:lr-tb;baseline-shift:baseline;text-anchor:start;white-space:normal;clip-rule:nonzero;display:inline;overflow:visible;visibility:visible;opacity:1;isolation:auto;mix-blend-mode:normal;color-interpolation:sRGB;color-interpolation-filters:linearRGB;solid-color:#000000;solid-opacity:1;fill:url(#radialGradient7271);fill-opacity:1;fill-rule:evenodd;stroke:none;stroke-width:0.25;stroke-linecap:butt;stroke-linejoin:round;stroke-miterlimit:4;stroke-dasharray:none;stroke-dashoffset:0;stroke-opacity:1;color-rendering:auto;image-rendering:auto;shape-rendering:auto;text-rendering:auto;enable-background:accumulate" />
  </g>
</svg>
