<?xml version="1.0" encoding="UTF-8" standalone="no"?>
<!-- Created with Inkscape (http://www.inkscape.org/) -->

<svg
   xmlns:dc="http://purl.org/dc/elements/1.1/"
   xmlns:cc="http://creativecommons.org/ns#"
   xmlns:rdf="http://www.w3.org/1999/02/22-rdf-syntax-ns#"
   xmlns:svg="http://www.w3.org/2000/svg"
   xmlns="http://www.w3.org/2000/svg"
   xmlns:sodipodi="http://sodipodi.sourceforge.net/DTD/sodipodi-0.dtd"
   xmlns:inkscape="http://www.inkscape.org/namespaces/inkscape"
   sodipodi:docname="Line_Void_Fraction_Measurement.svg"
   inkscape:version="0.48.4 r9939"
   version="1.1"
   id="svg5388"
   height="90"
   width="180">
  <sodipodi:namedview
     id="base"
     pagecolor="#ffffff"
     bordercolor="#666666"
     borderopacity="1.0"
     inkscape:pageopacity="0.0"
     inkscape:pageshadow="2"
     inkscape:zoom="5.05"
     inkscape:cx="64.257426"
     inkscape:cy="30.360165"
     inkscape:document-units="px"
     inkscape:current-layer="svg5388"
     showgrid="false"
     units="in"
     inkscape:window-width="1877"
     inkscape:window-height="1056"
     inkscape:window-x="1963"
     inkscape:window-y="24"
     inkscape:window-maximized="1" />
  <defs
     id="defs5390">
    <marker
       inkscape:stockid="Arrow1Mstart"
       orient="auto"
       refY="0"
       refX="0"
       id="Arrow1Mstart"
       style="overflow:visible">
      <path
         id="path4754"
         d="M 0,0 5,-5 -12.5,0 5,5 0,0 z"
         style="fill-rule:evenodd;stroke:#000000;stroke-width:1pt"
         transform="matrix(0.4,0,0,0.4,4,0)"
         inkscape:connector-curvature="0" />
    </marker>
    <marker
       inkscape:stockid="Arrow1Mend"
       orient="auto"
       refY="0"
       refX="0"
       id="Arrow1Mend"
       style="overflow:visible">
      <path
         id="path4757"
         d="M 0,0 5,-5 -12.5,0 5,5 0,0 z"
         style="fill-rule:evenodd;stroke:#000000;stroke-width:1pt"
         transform="matrix(-0.4,0,0,-0.4,-4,0)"
         inkscape:connector-curvature="0" />
    </marker>
  </defs>
  <metadata
     id="metadata5393">
    <rdf:RDF>
      <cc:Work
         rdf:about="">
        <dc:format>image/svg+xml</dc:format>
        <dc:type
           rdf:resource="http://purl.org/dc/dcmitype/StillImage" />
        <dc:title />
      </cc:Work>
    </rdf:RDF>
  </metadata>
  <g
     transform="translate(0,-962.35975)"
     id="layer1"
     inkscape:groupmode="layer"
     inkscape:label="Layer 1">
    <g
       transform="translate(0,774.35975)"
       style="font-size:16px;font-style:normal;font-variant:normal;font-weight:normal;font-stretch:normal;text-align:start;line-height:125%;letter-spacing:0px;word-spacing:0px;writing-mode:lr-tb;text-anchor:start;fill:#000000;fill-opacity:1;stroke:none;font-family:serif;-inkscape-font-specification:serif"
       id="text3967" />
  </g>
  <path
     id="path3866-7-5"
     style="fill:none;stroke:#000000;stroke-width:1.41210568px;stroke-linecap:butt;stroke-linejoin:miter;stroke-opacity:1"
     d="m 163.2783,57.395123 0,-53.666846 m -16.86335,53.666846 0,-53.666846 m -115.728245,53.666846 0,-53.666846 m -16.863353,53.666846 0,-53.666846"
     inkscape:connector-curvature="0"
     sodipodi:nodetypes="cccccccc" />
  <path
     inkscape:connector-curvature="0"
     id="path3866-7-6"
     style="fill:none;stroke:#000000;stroke-width:1.41210568;stroke-linecap:butt;stroke-linejoin:miter;stroke-miterlimit:4;stroke-opacity:1;stroke-dasharray:11.29684496, 2.82421124, 1.41210562, 2.82421124;stroke-dashoffset:0"
     d="m 88.550826,55.805856 0,-54.861086"
     sodipodi:nodetypes="cc" />
  <path
     sodipodi:type="arc"
     style="fill:none;stroke:#003380"
     id="path3112"
     sodipodi:cx="86.138611"
     sodipodi:cy="445.84158"
     sodipodi:rx="3.5643563"
     sodipodi:ry="5.0495048"
     d="m 89.702967,445.84158 a 3.5643563,5.0495048 0 1 1 -7.128712,0 3.5643563,5.0495048 0 1 1 7.128712,0 z"
     transform="matrix(1.995682,0,0,0.99917838,-126.61048,-410.98051)" />
  <path
     sodipodi:type="arc"
     style="fill:none;stroke:#003380;stroke-width:1;stroke-linecap:butt;stroke-miterlimit:4;stroke-dasharray:none;stroke-dashoffset:0"
     id="path3114"
     sodipodi:cx="101.28713"
     sodipodi:cy="452.07919"
     sodipodi:rx="3.2673268"
     sodipodi:ry="7.1287127"
     d="m 104.55446,452.07919 a 3.2673268,7.1287127 0 1 1 -6.534655,0 3.2673268,7.1287127 0 1 1 6.534655,0 z"
     transform="matrix(1.995682,0,0,0.99917838,-74.446122,-431.95336)" />
  <path
     sodipodi:type="arc"
     style="fill:none;stroke:#003380;stroke-width:1;stroke-linecap:butt;stroke-miterlimit:4;stroke-dasharray:none;stroke-dashoffset:0"
     id="path3896"
     sodipodi:cx="98.019798"
     sodipodi:cy="431.58417"
     sodipodi:rx="2.3762376"
     sodipodi:ry="3.2673268"
     d="m 100.39604,431.58417 a 2.3762376,3.2673268 0 1 1 -4.752479,0 2.3762376,3.2673268 0 1 1 4.752479,0 z"
     transform="matrix(1.995682,0,0,0.99917838,-61.800217,-398.31765)" />
  <path
     sodipodi:type="arc"
     style="fill:none;stroke:#003380;stroke-width:1;stroke-linecap:butt;stroke-miterlimit:4;stroke-dasharray:none;stroke-dashoffset:0"
     id="path3898"
     sodipodi:cx="87.920792"
     sodipodi:cy="434.25742"
     sodipodi:rx="1.7821782"
     sodipodi:ry="2.9702971"
     d="m 89.70297,434.25742 a 1.7821782,2.9702971 0 1 1 -3.564357,0 1.7821782,2.9702971 0 1 1 3.564357,0 z"
     transform="matrix(1.995682,0,0,0.99917838,-130.56233,-412.95907)" />
  <path
     sodipodi:type="arc"
     style="fill:none;stroke:#003380;stroke-width:1;stroke-linecap:butt;stroke-miterlimit:4;stroke-dasharray:none;stroke-dashoffset:0"
     id="path3900"
     sodipodi:cx="83.762375"
     sodipodi:cy="424.45544"
     sodipodi:rx="3.5643563"
     sodipodi:ry="2.6732674"
     d="m 87.326731,424.45544 a 3.5643563,2.6732674 0 1 1 -7.128712,0 3.5643563,2.6732674 0 1 1 7.128712,0 z"
     transform="matrix(1.995682,0,0,0.99917838,-94.995718,-367.84766)" />
  <path
     sodipodi:type="arc"
     style="fill:none;stroke:#003380;stroke-width:1;stroke-linecap:butt;stroke-miterlimit:4;stroke-dasharray:none;stroke-dashoffset:0"
     id="path3902"
     sodipodi:cx="100.39604"
     sodipodi:cy="420.89108"
     sodipodi:rx="4.1584158"
     sodipodi:ry="3.2673268"
     d="m 104.55446,420.89108 a 4.1584158,3.2673268 0 1 1 -8.316834,0 4.1584158,3.2673268 0 1 1 8.316834,0 z"
     transform="matrix(1.995682,0,0,0.99917838,-94.995718,-367.84766)" />
  <path
     sodipodi:type="arc"
     style="fill:none;stroke:#003380;stroke-width:1;stroke-linecap:butt;stroke-miterlimit:4;stroke-dasharray:none;stroke-dashoffset:0"
     id="path3904"
     sodipodi:cx="106.33663"
     sodipodi:cy="410.79208"
     sodipodi:rx="5.3465347"
     sodipodi:ry="5.0495048"
     d="m 111.68317,410.79208 a 5.3465347,5.0495048 0 1 1 -10.69307,0 5.3465347,5.0495048 0 1 1 10.69307,0 z"
     transform="matrix(1.995682,0,0,0.99917838,-94.995718,-367.84766)" />
  <path
     sodipodi:type="arc"
     style="fill:none;stroke:#003380;stroke-width:1;stroke-linecap:butt;stroke-miterlimit:4;stroke-dasharray:none;stroke-dashoffset:0"
     id="path3906"
     sodipodi:cx="81.386139"
     sodipodi:cy="410.49506"
     sodipodi:rx="4.7524753"
     sodipodi:ry="5.9405942"
     d="m 86.138614,410.49506 a 4.7524753,5.9405942 0 1 1 -9.50495,0 4.7524753,5.9405942 0 1 1 9.50495,0 z"
     transform="matrix(1.995682,0,0,0.99917838,-94.995718,-367.84766)" />
  <path
     sodipodi:type="arc"
     style="fill:none;stroke:#003380;stroke-width:1;stroke-linecap:butt;stroke-miterlimit:4;stroke-dasharray:none;stroke-dashoffset:0"
     id="path3908"
     sodipodi:cx="80.198021"
     sodipodi:cy="394.15842"
     sodipodi:rx="5.3465347"
     sodipodi:ry="5.0495048"
     d="m 85.544556,394.15842 a 5.3465347,5.0495048 0 1 1 -10.69307,0 5.3465347,5.0495048 0 1 1 10.69307,0 z"
     transform="matrix(1.995682,0,0,0.99917838,-94.995718,-367.84766)" />
  <path
     style="fill:none;stroke:#003380;stroke-width:1.41210568px;stroke-linecap:butt;stroke-linejoin:miter;stroke-opacity:1"
     d="m 36.995922,7.962118 c -1.7776,2.860838 2.747535,4.582732 8.803624,4.770538 3.895246,-0.34062 9.787241,1.713391 7.828208,-1.65425 C 55.905095,9.058297 57.906255,5.277816 50.366375,6.20854 45.324362,5.804333 40.933708,6.309298 36.995922,7.962118 z"
     id="path3922"
     inkscape:connector-curvature="0" />
  <path
     style="fill:none;stroke:#003380;stroke-width:1.41210568px;stroke-linecap:butt;stroke-linejoin:miter;stroke-opacity:1"
     d="m 102.99174,4.004984 c 0.39427,2.277408 -0.18574,2.572395 -1.89118,4.264074 -1.67098,2.452024 8.55001,1.547837 12.29449,1.672605 7.62955,0.77775 4.34323,-4.486801 6.61074,-6.558817 -5.67546,0.102326 -11.49318,-0.223336 -17.01405,0.622138 z"
     id="path3924"
     inkscape:connector-curvature="0" />
  <path
     sodipodi:type="arc"
     style="fill:none;stroke:#003380;stroke-width:1;stroke-linecap:butt;stroke-miterlimit:4;stroke-dasharray:none;stroke-dashoffset:0"
     id="path3926"
     sodipodi:cx="96.83168"
     sodipodi:cy="396.8317"
     sodipodi:rx="6.5346537"
     sodipodi:ry="6.5346537"
     d="m 103.36633,396.8317 a 6.5346537,6.5346537 0 1 1 -13.069303,0 6.5346537,6.5346537 0 1 1 13.069303,0 z"
     transform="matrix(1.995682,0,0,0.99917838,-94.995718,-367.84766)" />
  <path
     sodipodi:type="arc"
     style="fill:none;stroke:#003380;stroke-width:1;stroke-linecap:butt;stroke-miterlimit:4;stroke-dasharray:none;stroke-dashoffset:0"
     id="path3928"
     sodipodi:cx="83.16832"
     sodipodi:cy="370.099"
     sodipodi:rx="4.1584158"
     sodipodi:ry="4.1584158"
     d="m 87.326735,370.099 a 4.1584158,4.1584158 0 1 1 -8.316831,0 4.1584158,4.1584158 0 1 1 8.316831,0 z"
     transform="matrix(1.995682,0,0,0.99917838,-94.995718,-359.85423)" />
  <path
     sodipodi:type="arc"
     style="fill:none;stroke:#003380;stroke-width:1;stroke-linecap:butt;stroke-miterlimit:4;stroke-dasharray:none;stroke-dashoffset:0"
     id="path3930"
     sodipodi:cx="93.861389"
     sodipodi:cy="376.03961"
     sodipodi:rx="4.1584158"
     sodipodi:ry="4.1584158"
     d="m 98.019805,376.03961 a 4.1584158,4.1584158 0 1 1 -8.316832,0 4.1584158,4.1584158 0 1 1 8.316832,0 z"
     transform="matrix(1.995682,0,0,0.99917838,-94.995718,-359.85423)" />
  <path
     sodipodi:type="arc"
     style="fill:none;stroke:#003380;stroke-width:1;stroke-linecap:butt;stroke-miterlimit:4;stroke-dasharray:none;stroke-dashoffset:0"
     id="path3936"
     sodipodi:cx="87.326736"
     sodipodi:cy="464.55444"
     sodipodi:rx="2.3762376"
     sodipodi:ry="2.3762376"
     d="m 89.702974,464.55444 a 2.3762376,2.3762376 0 1 1 -4.752475,0 2.3762376,2.3762376 0 1 1 4.752475,0 z"
     transform="matrix(1.995682,0,0,0.99917838,-127.40085,-412.95907)" />
  <path
     sodipodi:type="arc"
     style="fill:none;stroke:#003380;stroke-width:1;stroke-linecap:butt;stroke-miterlimit:4;stroke-dasharray:none;stroke-dashoffset:0"
     id="path3938"
     sodipodi:cx="96.83168"
     sodipodi:cy="463.36633"
     sodipodi:rx="2.9702971"
     sodipodi:ry="2.9702971"
     d="m 99.801977,463.36633 a 2.9702971,2.9702971 0 1 1 -5.940594,0 2.9702971,2.9702971 0 1 1 5.940594,0 z"
     transform="matrix(1.995682,0,0,0.99917838,-59.429109,-409.79337)" />
  <path
     inkscape:connector-curvature="0"
     id="path4269"
     d="m 29.902834,9.591976 -16.589106,8.30567 1.434396,0.71816 16.589107,-8.305671 -1.434397,-0.718159 z m 0,16.954808 -16.589106,8.30567 1.434396,0.71816 16.589107,-8.30567 -1.434397,-0.71816 z m 0,16.954808 -16.589106,8.305671 1.434396,0.718159 16.589107,-8.30567 -1.434397,-0.71816 z"
     style="font-size:medium;font-style:normal;font-variant:normal;font-weight:normal;font-stretch:normal;text-indent:0;text-align:start;text-decoration:none;line-height:normal;letter-spacing:normal;word-spacing:normal;text-transform:none;direction:ltr;block-progression:tb;writing-mode:lr-tb;text-anchor:start;baseline-shift:baseline;color:#000000;fill:#000000;fill-opacity:1;stroke:none;stroke-width:1;marker:none;visibility:visible;display:inline;overflow:visible;enable-background:accumulate;font-family:Sans;-inkscape-font-specification:Sans" />
  <path
     inkscape:connector-curvature="0"
     id="path4269-0"
     d="m 162.28623,9.591976 -16.5891,8.30567 1.43439,0.71816 16.58911,-8.305671 -1.4344,-0.718159 z m 0,16.954808 -16.5891,8.30567 1.43439,0.71816 16.58911,-8.30567 -1.4344,-0.71816 z m 0,16.954808 -16.5891,8.305671 1.43439,0.718159 16.58911,-8.30567 -1.4344,-0.71816 z"
     style="font-size:medium;font-style:normal;font-variant:normal;font-weight:normal;font-stretch:normal;text-indent:0;text-align:start;text-decoration:none;line-height:normal;letter-spacing:normal;word-spacing:normal;text-transform:none;direction:ltr;block-progression:tb;writing-mode:lr-tb;text-anchor:start;baseline-shift:baseline;color:#000000;fill:#000000;fill-opacity:1;stroke:none;stroke-width:1;marker:none;visibility:visible;display:inline;overflow:visible;enable-background:accumulate;font-family:Sans;-inkscape-font-specification:Sans" />
  <g
     style="fill:#cccccc"
     id="g4582"
     transform="matrix(0,1,-1,0,197.51253,7.846433)">
    <path
       id="path4396"
       d="m 21.96875,17.59375 -4,14 3,-3 0,159.34003 2,0 0,-159.34003 3,3 z"
       style="font-size:medium;font-style:normal;font-variant:normal;font-weight:normal;font-stretch:normal;text-indent:0;text-align:start;text-decoration:none;line-height:normal;letter-spacing:normal;word-spacing:normal;text-transform:none;direction:ltr;block-progression:tb;writing-mode:lr-tb;text-anchor:start;baseline-shift:baseline;color:#000000;fill:#cccccc;fill-opacity:1;stroke:none;stroke-width:2;marker:none;visibility:visible;display:inline;overflow:visible;enable-background:accumulate;font-family:Sans;-inkscape-font-specification:Sans"
       inkscape:connector-curvature="0"
       sodipodi:nodetypes="cccccccc" />
  </g>
  <path
     style="fill:none;stroke:#000000;stroke-width:1.41210568px;stroke-linecap:butt;stroke-linejoin:miter;stroke-opacity:1"
     d="m 13.823352,65.635555 0,8.705712"
     id="path6016"
     inkscape:connector-curvature="0" />
  <path
     style="fill:none;stroke:#000000;stroke-width:1.41210568px;stroke-linecap:butt;stroke-linejoin:miter;stroke-opacity:1"
     d="m 30.380887,65.635555 0,8.705712"
     id="path6016-4"
     inkscape:connector-curvature="0" />
  <path
     style="fill:none;stroke:#000000;stroke-width:1.41210568px;stroke-linecap:butt;stroke-linejoin:miter;stroke-opacity:1"
     d="m 145.81429,65.635555 0,8.705712"
     id="path6016-3"
     inkscape:connector-curvature="0" />
  <path
     style="fill:none;stroke:#000000;stroke-width:1.41210568px;stroke-linecap:butt;stroke-linejoin:miter;stroke-opacity:1"
     d="m 163.51487,65.635555 0,8.705712"
     id="path6016-31"
     inkscape:connector-curvature="0" />
  <path
     style="fill:none;stroke:#000000;stroke-width:1.41210568px;stroke-linecap:butt;stroke-linejoin:miter;stroke-opacity:1"
     d="m 13.822654,69.988411 149.379756,0"
     id="path6052"
     inkscape:connector-curvature="0" />
  <text
     xml:space="preserve"
     style="font-size:11px;font-style:normal;font-variant:normal;font-weight:normal;font-stretch:normal;text-align:start;line-height:125%;letter-spacing:0px;word-spacing:0px;writing-mode:lr-tb;text-anchor:start;fill:#000000;fill-opacity:1;stroke:none;font-family:Serif;-inkscape-font-specification:Serif"
     x="79.738853"
     y="83.390152"
     id="text6054"
     sodipodi:linespacing="125%"><tspan
       sodipodi:role="line"
       id="tspan6056"
       x="79.738853"
       y="83.390152">$l$</tspan></text>
  <text
     xml:space="preserve"
     style="font-size:11px;font-style:normal;font-variant:normal;font-weight:normal;font-stretch:normal;text-align:start;line-height:125%;letter-spacing:0px;word-spacing:0px;writing-mode:lr-tb;text-anchor:start;fill:#000000;fill-opacity:1;stroke:none;font-family:Serif;-inkscape-font-specification:Serif"
     x="148.1188"
     y="83.301529"
     id="text6058"
     sodipodi:linespacing="125%"><tspan
       sodipodi:role="line"
       id="tspan6060"
       x="148.1188"
       y="83.301529">$\nicefrac{\delta}{2}$</tspan></text>
  <text
     xml:space="preserve"
     style="font-size:11px;font-style:normal;font-variant:normal;font-weight:normal;font-stretch:normal;text-align:start;line-height:125%;letter-spacing:0px;word-spacing:0px;writing-mode:lr-tb;text-anchor:start;fill:#000000;fill-opacity:1;stroke:none;font-family:Serif;-inkscape-font-specification:Serif"
     x="17.035616"
     y="83.301529"
     id="text6058-8"
     sodipodi:linespacing="125%"><tspan
       sodipodi:role="line"
       id="tspan6060-8"
       x="17.035616"
       y="83.301529">$\nicefrac{\delta}{2}$</tspan></text>
</svg>
