<?xml version="1.0" encoding="UTF-8" standalone="no"?>
<!-- Created with Inkscape (http://www.inkscape.org/) -->

<svg
   xmlns:dc="http://purl.org/dc/elements/1.1/"
   xmlns:cc="http://creativecommons.org/ns#"
   xmlns:rdf="http://www.w3.org/1999/02/22-rdf-syntax-ns#"
   xmlns:svg="http://www.w3.org/2000/svg"
   xmlns="http://www.w3.org/2000/svg"
   xmlns:sodipodi="http://sodipodi.sourceforge.net/DTD/sodipodi-0.dtd"
   xmlns:inkscape="http://www.inkscape.org/namespaces/inkscape"
   width="270"
   height="270"
   id="svg5388"
   version="1.1"
   inkscape:version="0.48.4 r9939"
   sodipodi:docname="LOCA_Temperature_Chart.svg">
  <sodipodi:namedview
     id="base"
     pagecolor="#ffffff"
     bordercolor="#666666"
     borderopacity="1.0"
     inkscape:pageopacity="0.0"
     inkscape:pageshadow="2"
     inkscape:zoom="1.1902964"
     inkscape:cx="323.50021"
     inkscape:cy="11.438301"
     inkscape:document-units="px"
     inkscape:current-layer="layer1"
     showgrid="false"
     units="in"
     inkscape:window-width="1877"
     inkscape:window-height="1056"
     inkscape:window-x="43"
     inkscape:window-y="24"
     inkscape:window-maximized="1" />
  <defs
     id="defs5390" />
  <metadata
     id="metadata5393">
    <rdf:RDF>
      <cc:Work
         rdf:about="">
        <dc:format>image/svg+xml</dc:format>
        <dc:type
           rdf:resource="http://purl.org/dc/dcmitype/StillImage" />
        <dc:title />
      </cc:Work>
    </rdf:RDF>
  </metadata>
  <g
     inkscape:label="Layer 1"
     inkscape:groupmode="layer"
     id="layer1"
     transform="translate(0,-782.35975)">
    <g
       id="text3967"
       style="font-size:16px;font-style:normal;font-variant:normal;font-weight:normal;font-stretch:normal;text-align:start;line-height:125%;letter-spacing:0px;word-spacing:0px;writing-mode:lr-tb;text-anchor:start;fill:#000000;fill-opacity:1;stroke:none;font-family:serif;-inkscape-font-specification:serif"
       transform="translate(0,782.35975)" />
    <path
       style="fill:#b3b3b3;stroke:none"
       d="m 258.64221,1019.1097 3.51319,6.0851 -3.44626,5.9691 z"
       id="path5197-1-8"
       inkscape:connector-curvature="0" />
    <text
       sodipodi:linespacing="125%"
       id="text3075-4-1"
       y="1051.3228"
       x="107.63068"
       style="font-size:11px;font-style:normal;font-variant:normal;font-weight:normal;font-stretch:normal;text-align:start;line-height:125%;letter-spacing:0px;word-spacing:0px;writing-mode:lr-tb;text-anchor:start;fill:#000000;fill-opacity:1;stroke:none;font-family:Sans;-inkscape-font-specification:Sans"
       xml:space="preserve"><tspan
         y="1051.3228"
         x="107.63068"
         id="tspan3077-0-5"
         sodipodi:role="line">Time ($t$) [$s$]</tspan></text>
    <path
       d="m 57.222891,791.89586 0,233.24094 m 203.836519,0 -203.836519,0"
       style="fill:none;stroke:#b3b3b3;stroke-width:2;stroke-linecap:butt;stroke-linejoin:miter;stroke-miterlimit:4;stroke-opacity:1;stroke-dasharray:none"
       id="path5746-9" />
    <path
       style="fill:#b3b3b3;stroke:none"
       d="m 51.195791,793.7175 6.0851,-3.51319 5.9691,3.44626 z"
       id="path5197-1-8-5"
       inkscape:connector-curvature="0" />
    <text
       sodipodi:linespacing="125%"
       id="text3075-4-1-9"
       y="1035.5671"
       x="175.17375"
       style="font-size:11px;font-style:normal;font-variant:normal;font-weight:normal;font-stretch:normal;text-align:start;line-height:125%;letter-spacing:0px;word-spacing:0px;writing-mode:lr-tb;text-anchor:start;fill:#000000;fill-opacity:1;stroke:none;font-family:Sans;-inkscape-font-specification:Sans"
       xml:space="preserve"><tspan
         y="1035.5671"
         x="175.17375"
         id="tspan3077-0-5-0"
         sodipodi:role="line">$60$</tspan></text>
    <text
       transform="matrix(0,-1,1,0,0,0)"
       sodipodi:linespacing="125%"
       id="text3075-4-1-6"
       y="10.389654"
       x="-980.65125"
       style="font-size:11px;font-style:normal;font-variant:normal;font-weight:normal;font-stretch:normal;text-align:start;line-height:125%;letter-spacing:0px;word-spacing:0px;writing-mode:lr-tb;text-anchor:start;fill:#000000;fill-opacity:1;stroke:none;font-family:Sans;-inkscape-font-specification:Sans"
       xml:space="preserve"><tspan
         y="10.389654"
         x="-980.65125"
         id="tspan3077-0-5-01"
         sodipodi:role="line">\rotatebox{90}{Temperature ($T$) [$\,^{o}C$]}</tspan></text>
    <text
       sodipodi:linespacing="125%"
       id="text3075-4-1-9-4"
       y="823.01501"
       x="27.856964"
       style="font-size:11px;font-style:normal;font-variant:normal;font-weight:normal;font-stretch:normal;text-align:start;line-height:125%;letter-spacing:0px;word-spacing:0px;writing-mode:lr-tb;text-anchor:start;fill:#000000;fill-opacity:1;stroke:none;font-family:Sans;-inkscape-font-specification:Sans"
       xml:space="preserve"><tspan
         y="823.01501"
         x="27.856964"
         id="tspan3077-0-5-0-1"
         sodipodi:role="line">$1300$</tspan></text>
    <text
       sodipodi:linespacing="125%"
       id="text3075-4-1-9-1"
       y="1028.8461"
       x="31.856968"
       style="font-size:11px;font-style:normal;font-variant:normal;font-weight:normal;font-stretch:normal;text-align:start;line-height:125%;letter-spacing:0px;word-spacing:0px;writing-mode:lr-tb;text-anchor:start;fill:#000000;fill-opacity:1;stroke:none;font-family:Sans;-inkscape-font-specification:Sans"
       xml:space="preserve"><tspan
         y="1028.8461"
         x="31.856968"
         id="tspan3077-0-5-0-9"
         sodipodi:role="line">$500$</tspan></text>
    <path
       transform="translate(0,782.35975)"
       inkscape:connector-curvature="0"
       id="path3176"
       d="m 57.548692,242.27581 c 0,0 12.601903,-138.62093 17.642664,-135.26043 5.040762,3.36051 3.360508,31.92483 8.401269,23.52356 5.040761,-8.40127 2.520381,-32.344888 7.141079,-26.464 4.620698,5.88089 -1.680254,9.2414 3.360507,19.32292 5.040762,10.08152 6.721019,-4.6207 5.880888,-10.92165 -0.840126,-6.30095 2.940441,-17.642666 6.721011,-13.442031 3.78058,4.200631 4.20064,1.680251 5.04077,11.761781 0.84012,10.08152 0.42006,22.26336 4.62069,21.00317 4.20064,-1.26019 6.30096,4.6207 7.98121,-7.98121 1.68025,-12.6019 -2.52038,-9.24139 7.14108,-24.363678 9.66146,-15.122284 11.76177,-24.363679 18.48279,-30.664631 6.72101,-6.300952 5.88089,-17.222601 21.42323,-15.542347 15.54235,1.680253 68.05028,188.188426 68.05028,188.188426"
       style="fill:none;stroke:#ff8080;stroke-width:1px;stroke-linecap:butt;stroke-linejoin:miter;stroke-opacity:1" />
    <g
       id="text3178"
       style="font-size:40px;font-style:normal;font-variant:normal;font-weight:normal;font-stretch:normal;line-height:125%;letter-spacing:0px;word-spacing:0px;fill:#000000;fill-opacity:1;stroke:none;font-family:Serif;-inkscape-font-specification:Serif"
       transform="matrix(-0.92828625,0.43306725,-2.0020657,-5.5658173,395.55454,1558.4797)">
      <path
         style="fill:#000000"
         inkscape:connector-curvature="0"
         id="path3183"
         d="m -38.779728,127.87051 0,2.05079 -1.210937,0 c -3.242204,-1e-5 -5.416681,-0.48178 -6.523438,-1.44532 -1.093762,-0.96354 -1.640636,-2.88411 -1.640625,-5.76172 l 0,-5.03906 c -1.1e-5,-1.95312 -0.351573,-3.30728 -1.054687,-4.0625 -0.703135,-0.7552 -1.979175,-1.1328 -3.828125,-1.13281 l -1.191407,0 0,-2.05078 1.191407,0 c 1.84895,1e-5 3.12499,-0.37759 3.828125,-1.13281 0.703114,-0.7552 1.054676,-2.10936 1.054687,-4.0625 l 0,-5.03907 c -1.1e-5,-2.877575 0.546863,-4.791636 1.640625,-5.742185 1.106757,-0.963512 3.281234,-1.445282 6.523438,-1.445312 l 1.210937,0 0,2.03125 -1.328125,0 c -1.835955,2.8e-5 -3.03387,0.286486 -3.59375,0.859375 -0.559911,0.572943 -0.839858,1.777369 -0.839844,3.613281 l 0,5.605471 c -1.4e-5,2.05731 -0.325535,3.52866 -0.976562,4.41406 -0.651055,0.88543 -1.822929,1.52345 -3.515625,1.91406 1.718738,0.44272 2.897122,1.10027 3.535156,1.97266 0.638007,0.8724 0.957017,2.33074 0.957031,4.375 l 0,5.60547 c -1.4e-5,1.83593 0.279933,3.04036 0.839844,3.61328 0.55988,0.57291 1.757795,0.85937 3.59375,0.85937 l 1.328125,0" />
    </g>
    <text
       sodipodi:linespacing="125%"
       id="text3075-4-1-8"
       y="100.28999"
       x="1008.9458"
       style="font-size:11px;font-style:normal;font-variant:normal;font-weight:normal;font-stretch:normal;text-align:start;line-height:125%;letter-spacing:0px;word-spacing:0px;writing-mode:lr-tb;text-anchor:start;fill:#000000;fill-opacity:1;stroke:none;font-family:Sans;-inkscape-font-specification:Sans"
       xml:space="preserve"
       transform="matrix(0.30901699,0.95105652,-0.95105652,0.30901699,0,0)"><tspan
         y="100.28999"
         x="1008.9458"
         id="tspan3077-0-5-5"
         sodipodi:role="line">\rotatebox{-72}{$\substack{\text{Cooldown due to ECCS and}</tspan><tspan
         id="tspan3411"
         y="114.03999"
         x="1008.9458"
         sodipodi:role="line">\\ \text{negative void coefficient}}$}</tspan></text>
  </g>
</svg>
