<?xml version="1.0" encoding="UTF-8" standalone="no"?>
<!-- Created with Inkscape (http://www.inkscape.org/) -->

<svg
   xmlns:dc="http://purl.org/dc/elements/1.1/"
   xmlns:cc="http://creativecommons.org/ns#"
   xmlns:rdf="http://www.w3.org/1999/02/22-rdf-syntax-ns#"
   xmlns:svg="http://www.w3.org/2000/svg"
   xmlns="http://www.w3.org/2000/svg"
   xmlns:sodipodi="http://sodipodi.sourceforge.net/DTD/sodipodi-0.dtd"
   xmlns:inkscape="http://www.inkscape.org/namespaces/inkscape"
   width="360"
   height="270"
   id="svg2"
   version="1.1"
   inkscape:version="0.48.5 r10040"
   sodipodi:docname="Pump_Coast_Down_Velocity_Chart.svg">
  <sodipodi:namedview
     id="base"
     pagecolor="#ffffff"
     bordercolor="#666666"
     borderopacity="1.0"
     inkscape:pageopacity="0.0"
     inkscape:pageshadow="2"
     inkscape:zoom="3.0740741"
     inkscape:cx="199.05934"
     inkscape:cy="161.10586"
     inkscape:document-units="px"
     inkscape:current-layer="layer1"
     showgrid="false"
     units="in"
     inkscape:window-width="1920"
     inkscape:window-height="1017"
     inkscape:window-x="1912"
     inkscape:window-y="-8"
     inkscape:window-maximized="1" />
  <defs
     id="defs4">
    <marker
       style="overflow:visible"
       id="Arrow2Mstart"
       refX="0.0"
       refY="0.0"
       orient="auto"
       inkscape:stockid="Arrow2Mstart">
      <path
         transform="scale(0.6) translate(0,0)"
         d="M 8.7185878,4.0337352 L -2.2072895,0.016013256 L 8.7185884,-4.0017078 C 6.9730900,-1.6296469 6.9831476,1.6157441 8.7185878,4.0337352 z "
         style="fill-rule:evenodd;stroke-width:0.62500000;stroke-linejoin:round"
         id="path3882" />
    </marker>
    <marker
       style="overflow:visible;"
       id="Arrow2Mend"
       refX="0.0"
       refY="0.0"
       orient="auto"
       inkscape:stockid="Arrow2Mend">
      <path
         transform="scale(0.6) rotate(180) translate(0,0)"
         d="M 8.7185878,4.0337352 L -2.2072895,0.016013256 L 8.7185884,-4.0017078 C 6.9730900,-1.6296469 6.9831476,1.6157441 8.7185878,4.0337352 z "
         style="fill-rule:evenodd;stroke-width:0.62500000;stroke-linejoin:round;"
         id="path3885" />
    </marker>
    <marker
       style="overflow:visible"
       id="Arrow1Send"
       refX="0"
       refY="0"
       orient="auto"
       inkscape:stockid="Arrow1Send">
      <path
         inkscape:connector-curvature="0"
         transform="matrix(-0.2,0,0,-0.2,-1.2,0)"
         style="fill-rule:evenodd;stroke:#000000;stroke-width:1pt"
         d="M 0,0 5,-5 -12.5,0 5,5 0,0 z"
         id="path4355" />
    </marker>
    <marker
       style="overflow:visible"
       id="Arrow1Mend"
       refX="0"
       refY="0"
       orient="auto"
       inkscape:stockid="Arrow1Mend">
      <path
         inkscape:connector-curvature="0"
         transform="matrix(-0.4,0,0,-0.4,-4,0)"
         style="fill-rule:evenodd;stroke:#000000;stroke-width:1pt"
         d="M 0,0 5,-5 -12.5,0 5,5 0,0 z"
         id="path4349" />
    </marker>
  </defs>
  <metadata
     id="metadata7">
    <rdf:RDF>
      <cc:Work
         rdf:about="">
        <dc:format>image/svg+xml</dc:format>
        <dc:type
           rdf:resource="http://purl.org/dc/dcmitype/StillImage" />
        <dc:title />
      </cc:Work>
    </rdf:RDF>
  </metadata>
  <g
     inkscape:label="Layer 1"
     inkscape:groupmode="layer"
     id="layer1"
     transform="translate(0,-782.35975)">
    <path
       style="font-size:medium;font-style:normal;font-variant:normal;font-weight:normal;font-stretch:normal;text-indent:0;text-align:start;text-decoration:none;line-height:normal;letter-spacing:normal;word-spacing:normal;text-transform:none;direction:ltr;block-progression:tb;writing-mode:lr-tb;text-anchor:start;baseline-shift:baseline;color:#000000;fill:#cccccc;fill-opacity:1;stroke:none;stroke-width:2;marker:none;visibility:visible;display:inline;overflow:visible;enable-background:accumulate;font-family:Sans;-inkscape-font-specification:Sans"
       d="m 155.03125,811.90625 2,0 0,-16.8125 -2,0 z m 0,48 2,0 0,-24 -2,0 z m 0,48 2,0 0,-24 -2,0 z m 0,48 2,0 0,-24 -2,0 z m 0,47.99995 2,0 0,-23.99995 -2,0 z"
       id="path3755-1-7-9"
       inkscape:connector-curvature="0" />
    <text
       xml:space="preserve"
       style="font-size:12px;font-style:normal;font-variant:normal;font-weight:normal;font-stretch:normal;text-align:center;line-height:125%;letter-spacing:0px;word-spacing:0px;writing-mode:lr-tb;text-anchor:middle;fill:#cccccc;fill-opacity:1;stroke:none;font-family:Sans;-inkscape-font-specification:Sans"
       x="199.85852"
       y="1044.8153"
       id="text3932"
       sodipodi:linespacing="125%"><tspan
         sodipodi:role="line"
         id="tspan3934"
         x="199.85852"
         y="1044.8153">Time ($t$) [s]</tspan></text>
    <text
       xml:space="preserve"
       style="font-size:12px;font-style:normal;font-variant:normal;font-weight:normal;font-stretch:normal;text-align:start;line-height:125%;letter-spacing:0px;word-spacing:0px;writing-mode:lr-tb;text-anchor:start;fill:#cccccc;fill-opacity:1;stroke:none;font-family:Sans;-inkscape-font-specification:Sans"
       x="-977.02356"
       y="19.215298"
       id="text3932-1"
       sodipodi:linespacing="125%"
       transform="matrix(0,-1,1,0,0,0)"><tspan
         sodipodi:role="line"
         id="tspan3934-4"
         x="-977.02356"
         y="19.215298">\rotatebox{90}{Coolant Velocity ($v$) [$\mathrm{m}{s}$]}</tspan></text>
    <text
       xml:space="preserve"
       style="font-size:11px;font-style:normal;font-variant:normal;font-weight:normal;font-stretch:normal;text-align:start;line-height:125%;letter-spacing:0px;word-spacing:0px;writing-mode:lr-tb;text-anchor:start;fill:#cccccc;fill-opacity:1;stroke:none;font-family:Sans;-inkscape-font-specification:Sans"
       x="36.135246"
       y="903.2829"
       id="text3847-2-5-2-1"
       sodipodi:linespacing="125%"><tspan
         sodipodi:role="line"
         id="tspan3849-4-5-76-7"
         x="36.135246"
         y="903.2829">$0$</tspan></text>
    <path
       sodipodi:nodetypes="ccccccc"
       inkscape:connector-curvature="0"
       d="m 46.562131,899.35974 307.792909,0 M 46.459412,794.82599 l 308.081178,0 0,209.06751 -308.081178,0 z"
       style="fill:none;stroke:#cccccc;stroke-width:2;stroke-linecap:butt;stroke-linejoin:miter;stroke-miterlimit:4;stroke-opacity:1;stroke-dasharray:none"
       id="path3043" />
    <path
       sodipodi:nodetypes="cccc"
       transform="translate(0,782.35975)"
       inkscape:connector-curvature="0"
       id="path3829"
       d="m 46.295859,35.68047 110.059171,0 c 0,15.600813 43.15372,23.21302 115.35504,23.21302 l 16.1815,0"
       style="fill:none;stroke:#000000;stroke-width:1px;stroke-linecap:butt;stroke-linejoin:miter;stroke-opacity:1" />
    <text
       xml:space="preserve"
       style="font-size:11px;font-style:normal;font-variant:normal;font-weight:normal;font-stretch:normal;text-align:start;line-height:125%;letter-spacing:0px;word-spacing:0px;writing-mode:lr-tb;text-anchor:start;fill:#cccccc;fill-opacity:1;stroke:none;font-family:Sans;-inkscape-font-specification:Sans"
       x="149.74971"
       y="1020.1519"
       id="text3847-2-5-2-1-4"
       sodipodi:linespacing="125%"><tspan
         sodipodi:role="line"
         id="tspan3849-4-5-76-7-0"
         x="149.74971"
         y="1020.1519">$t_{\text{trip}}$</tspan></text>
    <text
       xml:space="preserve"
       style="font-size:11px;font-style:normal;font-variant:normal;font-weight:normal;font-stretch:normal;text-align:start;line-height:125%;letter-spacing:0px;word-spacing:0px;writing-mode:lr-tb;text-anchor:start;fill:#cccccc;fill-opacity:1;stroke:none;font-family:Sans;-inkscape-font-specification:Sans"
       x="291.37622"
       y="878.32654"
       id="text3847-2-5-2-1-4-8"
       sodipodi:linespacing="125%"><tspan
         sodipodi:role="line"
         id="tspan3849-4-5-76-7-0-8"
         x="291.37622"
         y="878.32654">\parbox[b]{0.65in}{if flywheel has inertia}</tspan></text>
    <path
       sodipodi:nodetypes="cccccccccccccccccccccccccccccccccccccccccccccccccccccccccccccccccccccccccccccccccccccccccccccccccccc"
       inkscape:connector-curvature="0"
       id="path4766"
       d="m 155.3125,818.17225 0.0625,1.75 0,0.0312 0.21875,1.71875 0,0.0312 0.3125,1.65625 0,0.0312 0.46875,1.625 0,0.0312 0.5625,1.5625 0,0.0312 0.6875,1.53125 0,0.0312 0.78125,1.46875 0.0312,0.0312 0.0937,0.15625 0.84375,-0.53125 -0.0625,-0.125 -0.0312,-0.0312 -0.75,-1.40625 0,-0.0312 -0.65625,-1.4375 -0.0312,-0.0625 -0.53125,-1.53125 -0.4375,-1.53125 0.0312,0 -0.34375,-1.625 0,-0.0312 -0.1875,-1.625 0,-0.0312 -0.0625,-1.75 z m 11.3125,20.65625 0.125,0.0937 1.53125,1.15625 1.59375,1.09375 0.0312,0 1.65625,1.0625 1.71875,1.03125 0.0312,0 1.78125,0.96875 1.8125,0.9375 0.46875,-0.90625 -1.8125,-0.90625 -1.75,-0.96875 -0.0312,0 -1.6875,-1 -0.0312,0 -1.625,-1.0625 0,0.0312 -1.5625,-1.09375 -1.5,-1.125 -0.125,-0.0937 z m 21.4375,10.9375 1,0.34375 0.0312,0 4.3125,1.375 4.40625,1.25 1.78125,0.46875 0.25,-0.96875 -1.78125,-0.46875 0,0.0312 -4.375,-1.25 -4.28125,-1.375 -1,-0.375 z m 23.28125,6.0625 4.34375,0.8125 0.0312,0 4.34375,0.71875 0.0312,0 3.09375,0.46875 0.15625,-1 -3.09375,-0.46875 -0.0312,0 -4.34375,-0.71875 -4.34375,-0.78125 z m 23.78125,3.4375 1.125,0.125 6.84375,0.59375 0.0312,0 3.96875,0.28125 0.0625,-1 -3.96875,-0.28125 -6.8125,-0.59375 -0.0312,0 -1.125,-0.0937 z m 24,1.34375 12,0 0,-1 -12,0 z m 24,0 5.16867,0 0,-1 -5.16867,0 z"
       style="font-size:medium;font-style:normal;font-variant:normal;font-weight:normal;font-stretch:normal;text-indent:0;text-align:start;text-decoration:none;line-height:normal;letter-spacing:normal;word-spacing:normal;text-transform:none;direction:ltr;block-progression:tb;writing-mode:lr-tb;text-anchor:start;baseline-shift:baseline;color:#000000;fill:#000000;fill-opacity:1;stroke:none;stroke-width:1;marker:none;visibility:visible;display:inline;overflow:visible;enable-background:accumulate;font-family:Sans;-inkscape-font-specification:Sans" />
    <text
       xml:space="preserve"
       style="font-size:11px;font-style:normal;font-variant:normal;font-weight:normal;font-stretch:normal;text-align:start;line-height:125%;letter-spacing:0px;word-spacing:0px;writing-mode:lr-tb;text-anchor:start;fill:#cccccc;fill-opacity:1;stroke:none;font-family:Sans;-inkscape-font-specification:Sans"
       x="291.79199"
       y="843.84497"
       id="text3847-2-5-2-1-4-8-2"
       sodipodi:linespacing="125%"><tspan
         sodipodi:role="line"
         id="tspan3849-4-5-76-7-0-8-4"
         x="291.79199"
         y="843.84497">ideal</tspan></text>
  </g>
</svg>
