<?xml version="1.0" encoding="UTF-8" standalone="no"?>
<!-- Created with Inkscape (http://www.inkscape.org/) -->

<svg
   xmlns:dc="http://purl.org/dc/elements/1.1/"
   xmlns:cc="http://creativecommons.org/ns#"
   xmlns:rdf="http://www.w3.org/1999/02/22-rdf-syntax-ns#"
   xmlns:svg="http://www.w3.org/2000/svg"
   xmlns="http://www.w3.org/2000/svg"
   xmlns:sodipodi="http://sodipodi.sourceforge.net/DTD/sodipodi-0.dtd"
   xmlns:inkscape="http://www.inkscape.org/namespaces/inkscape"
   sodipodi:docname="Sudden_Heat_Problem_Illustration.svg"
   inkscape:version="0.48.5 r10040"
   version="1.1"
   id="svg5388"
   height="270"
   width="270">
  <sodipodi:namedview
     id="base"
     pagecolor="#ffffff"
     bordercolor="#666666"
     borderopacity="1.0"
     inkscape:pageopacity="0.0"
     inkscape:pageshadow="2"
     inkscape:zoom="1.0868494"
     inkscape:cx="118.76381"
     inkscape:cy="109.40696"
     inkscape:document-units="px"
     inkscape:current-layer="layer1"
     showgrid="false"
     units="in"
     inkscape:window-width="1920"
     inkscape:window-height="1017"
     inkscape:window-x="1912"
     inkscape:window-y="-8"
     inkscape:window-maximized="1" />
  <defs
     id="defs5390" />
  <metadata
     id="metadata5393">
    <rdf:RDF>
      <cc:Work
         rdf:about="">
        <dc:format>image/svg+xml</dc:format>
        <dc:type
           rdf:resource="http://purl.org/dc/dcmitype/StillImage" />
        <dc:title />
      </cc:Work>
    </rdf:RDF>
  </metadata>
  <g
     transform="translate(0,-782.35975)"
     id="layer1"
     inkscape:groupmode="layer"
     inkscape:label="Layer 1">
    <path
       style="font-size:medium;font-style:normal;font-variant:normal;font-weight:normal;font-stretch:normal;text-indent:0;text-align:start;text-decoration:none;line-height:normal;letter-spacing:normal;word-spacing:normal;text-transform:none;direction:ltr;block-progression:tb;writing-mode:lr-tb;text-anchor:start;baseline-shift:baseline;color:#000000;fill:#b3b3b3;fill-opacity:1;stroke:none;stroke-width:1;marker:none;visibility:visible;display:inline;overflow:visible;enable-background:accumulate;font-family:Sans;-inkscape-font-specification:Sans"
       d="M 12.21875 115.4375 L 12 115.65625 L 12.71875 116.375 L 12.9375 116.15625 L 12.21875 115.4375 z M 16.96875 115.4375 L 16.28125 116.15625 L 20.71875 120.59375 L 21.4375 119.875 L 16.96875 115.4375 z M 25.46875 115.4375 L 24.75 116.15625 L 26.625 118 L 18.84375 125.78125 L 12.71875 119.65625 L 12 120.375 L 18.125 126.5 L 14.59375 130.03125 L 12.9375 128.375 L 12.21875 129.0625 L 13.875 130.75 L 12 132.625 L 12.71875 133.34375 L 14.625 131.4375 L 20.71875 137.5625 L 21.4375 136.84375 L 15.3125 130.75 L 18.84375 127.21875 L 20.5 128.84375 L 26.625 135 L 18.84375 142.75 L 12.71875 136.625 L 12 137.34375 L 18.125 143.46875 L 14.59375 147 L 12.9375 145.34375 L 12.21875 146.03125 L 13.875 147.6875 L 12 149.59375 L 12.71875 150.3125 L 14.625 148.4375 L 20.71875 154.53125 L 21.4375 153.8125 L 15.3125 147.71875 L 18.84375 144.1875 L 20.5 145.8125 L 26.625 151.96875 L 24.75 153.8125 L 25.46875 154.53125 L 27.3125 152.6875 L 28.96875 154.3125 L 29.1875 154.53125 L 29.90625 153.8125 L 29.6875 153.59375 L 28.0625 151.9375 L 31.5625 148.4375 L 37.6875 154.53125 L 38.40625 153.8125 L 32.28125 147.71875 L 35.8125 144.1875 L 37.46875 145.8125 L 43.59375 151.9375 L 41.71875 153.8125 L 42.4375 154.53125 L 44.3125 152.65625 L 45.9375 154.3125 L 46.1875 154.53125 L 46.875 153.8125 L 46.65625 153.59375 L 45 151.9375 L 48.5625 148.40625 L 54.65625 154.53125 L 55.375 153.8125 L 49.25 147.71875 L 52.78125 144.1875 L 58.6875 150.09375 L 60.5625 151.9375 L 58.6875 153.8125 L 59.40625 154.53125 L 61.28125 152.65625 L 63.15625 154.53125 L 63.84375 153.8125 L 62 151.9375 L 65.53125 148.40625 L 71.625 154.53125 L 72.34375 153.8125 L 66.21875 147.71875 L 69.75 144.1875 L 75.65625 150.09375 L 77.53125 151.9375 L 75.65625 153.8125 L 76.375 154.53125 L 78.25 152.65625 L 80.125 154.53125 L 80.8125 153.8125 L 78.9375 151.9375 L 82.5 148.40625 L 88.59375 154.53125 L 89.3125 153.8125 L 83.1875 147.71875 L 86.71875 144.1875 L 92.625 150.09375 L 94.5 151.9375 L 92.625 153.8125 L 93.34375 154.53125 L 95.21875 152.65625 L 97.09375 154.53125 L 97.78125 153.8125 L 95.9375 151.9375 L 99.46875 148.40625 L 105.5625 154.53125 L 106.28125 153.8125 L 100.15625 147.71875 L 103.6875 144.1875 L 109.625 150.09375 L 111.46875 151.96875 L 109.625 153.8125 L 110.3125 154.53125 L 112.1875 152.65625 L 114.0625 154.53125 L 114.75 153.8125 L 112.90625 151.96875 L 116.4375 148.4375 L 122.53125 154.53125 L 123.25 153.8125 L 117.15625 147.71875 L 120.6875 144.1875 L 126.59375 150.09375 L 128.4375 151.96875 L 126.59375 153.8125 L 127.28125 154.53125 L 129.15625 152.65625 L 131.03125 154.53125 L 131.71875 153.8125 L 129.875 151.96875 L 133.40625 148.4375 L 139.5 154.53125 L 140.21875 153.8125 L 134.125 147.71875 L 137.65625 144.1875 L 143.5625 150.09375 L 145.4375 151.9375 L 143.5625 153.8125 L 144.25 154.53125 L 146.125 152.65625 L 148 154.53125 L 148.71875 153.8125 L 146.84375 151.9375 L 150.375 148.40625 L 156.46875 154.53125 L 157.1875 153.8125 L 151.09375 147.71875 L 154.625 144.1875 L 160.53125 150.09375 L 162.375 151.9375 L 160.53125 153.8125 L 161.21875 154.53125 L 163.09375 152.65625 L 164.96875 154.53125 L 165.6875 153.8125 L 163.8125 151.9375 L 167.34375 148.40625 L 173.4375 154.53125 L 174.15625 153.8125 L 168.0625 147.71875 L 171.59375 144.1875 L 177.5 150.09375 L 179.375 151.9375 L 177.5 153.8125 L 178.1875 154.53125 L 180.0625 152.65625 L 181.9375 154.53125 L 182.65625 153.8125 L 180.78125 151.9375 L 184.3125 148.40625 L 190.4375 154.53125 L 191.125 153.8125 L 185.03125 147.71875 L 188.5625 144.1875 L 194.46875 150.09375 L 196.3125 151.9375 L 194.46875 153.8125 L 195.15625 154.53125 L 197.03125 152.65625 L 198.90625 154.53125 L 199.625 153.8125 L 197.75 151.9375 L 201.28125 148.40625 L 207.40625 154.53125 L 208.09375 153.8125 L 202 147.71875 L 205.53125 144.1875 L 211.4375 150.09375 L 213.3125 151.9375 L 211.4375 153.8125 L 212.15625 154.53125 L 214 152.6875 L 215.875 154.53125 L 216.59375 153.8125 L 214.71875 151.96875 L 214.75 151.9375 L 218.25 148.4375 L 224.375 154.53125 L 225.0625 153.8125 L 218.96875 147.71875 L 222.5 144.1875 L 228.40625 150.09375 L 230.25 151.9375 L 228.40625 153.8125 L 229.125 154.53125 L 231 152.6875 L 232.84375 154.53125 L 233.5625 153.8125 L 231.6875 151.96875 L 231.6875 151.9375 L 235.25 148.4375 L 241.34375 154.53125 L 242.03125 153.8125 L 235.9375 147.71875 L 239.46875 144.1875 L 245.375 150.09375 L 247.25 151.9375 L 245.375 153.8125 L 246.09375 154.53125 L 247.9375 152.6875 L 249.8125 154.53125 L 250.53125 153.8125 L 248.6875 151.9375 L 249.3125 151.3125 C 249.00634 151.14289 248.70286 150.95706 248.40625 150.78125 L 247.9375 151.25 L 246.09375 149.375 L 245.71875 149 C 245.67665 148.96902 245.63558 148.93737 245.59375 148.90625 C 243.39121 147.26773 241.56581 145.44975 240.1875 143.46875 C 239.98918 143.18372 239.80437 142.88472 239.625 142.59375 L 239.46875 142.75 L 237.59375 140.90625 L 234.53125 137.8125 L 231.6875 135 L 235.25 131.4375 L 237.3125 133.5 C 237.34681 133.0953 237.39989 132.67998 237.46875 132.28125 L 235.9375 130.75 L 239.1875 127.5 C 240.96436 124.27633 243.89067 121.37674 247.6875 119 L 247.9375 118.75 L 248 118.8125 C 248.30439 118.62646 248.62262 118.42939 248.9375 118.25 L 248.6875 118 L 250.53125 116.15625 L 249.8125 115.4375 L 247.9375 117.3125 L 246.09375 115.4375 L 245.375 116.15625 L 247.25 118 L 239.46875 125.78125 L 237.59375 123.9375 L 231.6875 118 L 233.5625 116.15625 L 232.84375 115.4375 L 231 117.3125 L 229.125 115.4375 L 228.40625 116.15625 L 230.25 118 L 222.5 125.78125 L 220.625 123.9375 L 214.71875 118 L 216.59375 116.15625 L 215.875 115.4375 L 214 117.3125 L 212.15625 115.4375 L 211.4375 116.15625 L 213.3125 118 L 205.53125 125.78125 L 203.65625 123.9375 L 197.75 118.03125 L 199.625 116.15625 L 198.90625 115.4375 L 197.03125 117.3125 L 195.15625 115.4375 L 194.46875 116.15625 L 196.3125 118 L 188.5625 125.78125 L 186.6875 123.9375 L 180.78125 118.03125 L 182.65625 116.15625 L 181.9375 115.4375 L 180.0625 117.3125 L 178.1875 115.4375 L 177.5 116.15625 L 179.375 118 L 171.59375 125.78125 L 169.71875 123.9375 L 163.8125 118.03125 L 165.6875 116.15625 L 164.96875 115.4375 L 163.09375 117.3125 L 161.21875 115.4375 L 160.53125 116.15625 L 162.375 118 L 154.625 125.78125 L 152.75 123.9375 L 146.84375 118.03125 L 148.71875 116.15625 L 148 115.4375 L 146.125 117.3125 L 144.25 115.4375 L 143.5625 116.15625 L 145.4375 118 L 137.65625 125.78125 L 135.78125 123.9375 L 129.875 118 L 131.71875 116.15625 L 131.03125 115.4375 L 129.15625 117.3125 L 127.28125 115.4375 L 126.59375 116.15625 L 128.4375 118 L 120.6875 125.78125 L 118.8125 123.9375 L 112.90625 118 L 114.75 116.15625 L 114.0625 115.4375 L 112.1875 117.3125 L 110.3125 115.4375 L 109.625 116.15625 L 111.46875 118 L 103.6875 125.78125 L 101.84375 123.9375 L 95.9375 118 L 97.78125 116.15625 L 97.09375 115.4375 L 95.21875 117.3125 L 93.34375 115.4375 L 92.625 116.15625 L 94.5 118.03125 L 86.71875 125.78125 L 84.875 123.9375 L 78.9375 118 L 80.8125 116.15625 L 80.125 115.4375 L 78.25 117.3125 L 76.375 115.4375 L 75.65625 116.15625 L 77.53125 118.03125 L 69.75 125.78125 L 67.90625 123.9375 L 62 118 L 63.84375 116.15625 L 63.15625 115.4375 L 61.28125 117.3125 L 59.40625 115.4375 L 58.6875 116.15625 L 60.5625 118.03125 L 52.78125 125.78125 L 50.90625 123.9375 L 45 118 L 46.875 116.15625 L 46.1875 115.4375 L 44.3125 117.3125 L 42.4375 115.4375 L 41.71875 116.15625 L 43.59375 118.03125 L 35.8125 125.78125 L 28.0625 118 L 29.90625 116.15625 L 29.1875 115.4375 L 27.3125 117.3125 L 25.46875 115.4375 z M 33.9375 115.4375 L 33.25 116.15625 L 37.6875 120.59375 L 38.40625 119.875 L 33.9375 115.4375 z M 50.90625 115.4375 L 50.21875 116.15625 L 54.65625 120.59375 L 55.375 119.875 L 50.90625 115.4375 z M 67.90625 115.4375 L 67.1875 116.15625 L 71.625 120.59375 L 72.34375 119.875 L 67.90625 115.4375 z M 84.875 115.4375 L 84.15625 116.15625 L 88.59375 120.59375 L 89.3125 119.875 L 84.875 115.4375 z M 101.84375 115.4375 L 101.125 116.15625 L 105.5625 120.59375 L 106.28125 119.875 L 101.84375 115.4375 z M 118.8125 115.4375 L 118.09375 116.15625 L 122.53125 120.59375 L 123.25 119.875 L 118.8125 115.4375 z M 135.78125 115.4375 L 135.0625 116.15625 L 139.5 120.59375 L 140.21875 119.875 L 135.78125 115.4375 z M 152.75 115.4375 L 152.03125 116.15625 L 156.46875 120.59375 L 157.1875 119.875 L 152.75 115.4375 z M 169.71875 115.4375 L 169 116.15625 L 173.4375 120.59375 L 174.15625 119.875 L 169.71875 115.4375 z M 186.6875 115.4375 L 185.96875 116.15625 L 190.4375 120.59375 L 191.125 119.875 L 186.6875 115.4375 z M 203.65625 115.4375 L 202.9375 116.15625 L 207.40625 120.59375 L 208.09375 119.875 L 203.65625 115.4375 z M 220.625 115.4375 L 219.90625 116.15625 L 223.34375 119.5625 L 224.0625 118.875 L 220.625 115.4375 z M 237.59375 115.4375 L 236.875 116.15625 L 240.3125 119.5625 L 241.03125 118.875 L 237.59375 115.4375 z M 254.5625 115.4375 L 254.25 115.75 C 254.39873 115.69219 254.53732 115.61902 254.6875 115.5625 L 254.5625 115.4375 z M 27.34375 118.71875 L 33.25 124.625 L 35.09375 126.5 L 31.5625 130.03125 L 29.90625 128.375 L 29.1875 129.0625 L 30.875 130.75 L 27.34375 134.28125 L 21.1875 128.15625 L 19.5625 126.5 L 27.34375 118.71875 z M 44.3125 118.71875 L 50.21875 124.625 L 52.0625 126.5 L 48.53125 130.03125 L 46.875 128.375 L 46.1875 129.0625 L 47.84375 130.71875 L 44.3125 134.28125 L 42.4375 132.40625 L 36.53125 126.5 L 44.3125 118.71875 z M 61.28125 118.71875 L 67.1875 124.625 L 69.03125 126.5 L 65.5 130.03125 L 63.84375 128.375 L 63.15625 129.0625 L 64.8125 130.71875 L 61.28125 134.28125 L 59.40625 132.40625 L 53.5 126.5 L 61.28125 118.71875 z M 78.25 118.71875 L 84.15625 124.625 L 86 126.5 L 82.46875 130.03125 L 80.8125 128.375 L 80.125 129.0625 L 81.78125 130.71875 L 78.25 134.28125 L 76.375 132.40625 L 70.46875 126.5 L 78.25 118.71875 z M 95.21875 118.71875 L 101.125 124.625 L 102.96875 126.5 L 99.4375 130.03125 L 97.78125 128.375 L 97.09375 129.0625 L 98.75 130.71875 L 95.21875 134.28125 L 93.34375 132.40625 L 87.4375 126.5 L 95.21875 118.71875 z M 112.1875 118.71875 L 118.09375 124.625 L 119.96875 126.5 L 116.4375 130.03125 L 114.75 128.375 L 114.0625 129.0625 L 115.71875 130.75 L 112.1875 134.28125 L 110.3125 132.40625 L 104.40625 126.5 L 112.1875 118.71875 z M 129.15625 118.71875 L 135.0625 124.625 L 136.9375 126.5 L 133.40625 130.03125 L 131.71875 128.375 L 131.03125 129.0625 L 132.6875 130.75 L 129.15625 134.28125 L 127.28125 132.40625 L 121.375 126.5 L 129.15625 118.71875 z M 146.125 118.71875 L 152.03125 124.625 L 153.90625 126.5 L 150.375 130.03125 L 148.71875 128.375 L 148 129.0625 L 149.65625 130.75 L 146.125 134.28125 L 144.25 132.40625 L 138.375 126.5 L 146.125 118.71875 z M 163.09375 118.71875 L 169 124.625 L 170.875 126.5 L 167.34375 130.03125 L 165.6875 128.375 L 164.96875 129.0625 L 166.625 130.75 L 163.09375 134.28125 L 161.21875 132.40625 L 155.34375 126.5 L 163.09375 118.71875 z M 180.0625 118.71875 L 185.96875 124.625 L 187.84375 126.5 L 184.3125 130.03125 L 182.65625 128.375 L 181.9375 129.0625 L 183.625 130.75 L 180.0625 134.28125 L 178.1875 132.40625 L 172.3125 126.5 L 180.0625 118.71875 z M 197.03125 118.71875 L 202.9375 124.625 L 204.8125 126.5 L 201.28125 130.03125 L 199.625 128.375 L 198.90625 129.0625 L 200.5625 130.75 L 197.03125 134.28125 L 195.15625 132.40625 L 189.28125 126.5 L 197.03125 118.71875 z M 214 118.71875 L 219.90625 124.625 L 221.78125 126.5 L 218.25 130.03125 L 216.59375 128.375 L 215.875 129.0625 L 217.5625 130.75 L 214 134.28125 L 212.15625 132.40625 L 206.25 126.5 L 214 118.71875 z M 230.96875 118.71875 L 236.875 124.625 L 238.75 126.5 L 235.21875 130.03125 L 232.53125 127.34375 L 231.84375 128.0625 L 234.5 130.75 L 231 134.25 L 229.125 132.40625 L 223.21875 126.5 L 230.96875 118.71875 z M 120.6875 127.1875 L 126.59375 133.125 L 128.4375 135 L 120.6875 142.75 L 118.8125 140.90625 L 116.78125 138.875 L 112.875 135 L 116.4375 131.4375 L 122.53125 137.5625 L 123.25 136.84375 L 117.125 130.75 L 120.6875 127.1875 z M 35.8125 127.21875 L 41.71875 133.125 L 43.59375 135 L 35.8125 142.75 L 29.6875 136.625 L 28.0625 135 L 31.59375 131.46875 L 37.6875 137.5625 L 38.40625 136.84375 L 32.28125 130.75 L 35.8125 127.21875 z M 52.78125 127.21875 L 58.6875 133.125 L 60.5625 135 L 52.78125 142.75 L 50.90625 140.90625 L 47.84375 137.8125 L 45 135 L 48.5625 131.4375 L 54.65625 137.5625 L 55.375 136.84375 L 49.25 130.75 L 52.78125 127.21875 z M 69.75 127.21875 L 75.65625 133.125 L 77.53125 135 L 69.75 142.75 L 67.90625 140.90625 L 62 135 L 65.53125 131.4375 L 71.625 137.5625 L 72.34375 136.84375 L 66.21875 130.75 L 69.75 127.21875 z M 86.71875 127.21875 L 92.625 133.125 L 94.5 135 L 86.71875 142.75 L 84.875 140.90625 L 78.9375 135 L 82.5 131.4375 L 88.59375 137.5625 L 89.3125 136.84375 L 83.1875 130.75 L 86.71875 127.21875 z M 103.6875 127.21875 L 109.625 133.125 L 111.46875 135 L 103.6875 142.75 L 101.84375 140.90625 L 95.9375 135 L 99.46875 131.4375 L 105.5625 137.5625 L 106.28125 136.84375 L 100.15625 130.75 L 103.6875 127.21875 z M 137.65625 127.21875 L 143.5625 133.125 L 145.4375 135 L 137.65625 142.75 L 135.78125 140.90625 L 129.875 135 L 133.40625 131.46875 L 139.5 137.5625 L 140.21875 136.84375 L 134.125 130.75 L 137.65625 127.21875 z M 154.625 127.21875 L 160.53125 133.125 L 162.375 135 L 154.625 142.75 L 152.75 140.90625 L 146.84375 135 L 150.375 131.46875 L 156.46875 137.5625 L 157.1875 136.84375 L 151.09375 130.75 L 154.625 127.21875 z M 171.59375 127.21875 L 177.5 133.125 L 179.375 135 L 171.59375 142.75 L 169.71875 140.90625 L 163.8125 135 L 167.34375 131.46875 L 173.4375 137.5625 L 174.15625 136.84375 L 168.0625 130.75 L 171.59375 127.21875 z M 188.5625 127.21875 L 194.46875 133.125 L 196.3125 135 L 188.5625 142.75 L 186.6875 140.90625 L 180.78125 135 L 184.3125 131.4375 L 190.4375 137.5625 L 191.125 136.84375 L 185.03125 130.75 L 188.5625 127.21875 z M 205.53125 127.21875 L 211.4375 133.125 L 213.3125 135 L 205.53125 142.75 L 203.65625 140.90625 L 197.75 135 L 201.3125 131.4375 L 207.40625 137.5625 L 208.09375 136.84375 L 202 130.75 L 205.53125 127.21875 z M 222.5 127.21875 L 228.40625 133.125 L 230.25 135 L 222.5 142.75 L 220.625 140.90625 L 217.5625 137.8125 L 214.71875 135 L 218.25 131.4375 L 224.375 137.5625 L 225.0625 136.84375 L 218.96875 130.75 L 222.5 127.21875 z M 27.34375 135.6875 L 28.96875 137.34375 L 35.09375 143.46875 L 31.5625 147 L 29.90625 145.34375 L 29.1875 146.03125 L 30.875 147.71875 L 27.34375 151.25 L 21.1875 145.125 L 19.5625 143.46875 L 27.34375 135.6875 z M 44.3125 135.6875 L 50.21875 141.59375 L 52.0625 143.46875 L 48.53125 147 L 46.875 145.34375 L 46.1875 146.03125 L 47.84375 147.6875 L 44.3125 151.25 L 38.15625 145.125 L 36.53125 143.46875 L 44.3125 135.6875 z M 61.28125 135.6875 L 67.1875 141.59375 L 69.03125 143.46875 L 65.5 147 L 63.84375 145.34375 L 63.15625 146.03125 L 64.8125 147.6875 L 61.28125 151.25 L 59.40625 149.375 L 53.5 143.46875 L 61.28125 135.6875 z M 78.25 135.6875 L 84.15625 141.59375 L 86 143.46875 L 82.46875 147 L 80.8125 145.34375 L 80.125 146.03125 L 81.78125 147.6875 L 78.25 151.25 L 76.375 149.375 L 70.46875 143.46875 L 78.25 135.6875 z M 95.21875 135.6875 L 101.125 141.59375 L 102.96875 143.46875 L 99.4375 147 L 97.78125 145.34375 L 97.09375 146.03125 L 98.75 147.6875 L 95.21875 151.25 L 93.34375 149.375 L 87.4375 143.46875 L 95.21875 135.6875 z M 112.1875 135.6875 L 118.09375 141.59375 L 119.96875 143.46875 L 116.4375 147 L 114.75 145.34375 L 114.0625 146.03125 L 115.71875 147.71875 L 112.1875 151.25 L 110.3125 149.375 L 104.40625 143.46875 L 112.1875 135.6875 z M 129.15625 135.6875 L 135.0625 141.59375 L 136.9375 143.46875 L 133.40625 147 L 131.71875 145.34375 L 131.03125 146.03125 L 132.6875 147.71875 L 129.15625 151.25 L 127.28125 149.375 L 121.375 143.46875 L 129.15625 135.6875 z M 146.125 135.6875 L 152.03125 141.59375 L 153.90625 143.46875 L 150.375 147 L 148.71875 145.34375 L 148 146.03125 L 149.65625 147.71875 L 146.125 151.25 L 144.25 149.375 L 138.375 143.46875 L 146.125 135.6875 z M 163.09375 135.6875 L 169 141.59375 L 170.875 143.46875 L 167.34375 147 L 165.6875 145.34375 L 164.96875 146.03125 L 166.625 147.71875 L 163.09375 151.25 L 161.21875 149.375 L 155.34375 143.46875 L 163.09375 135.6875 z M 180.0625 135.6875 L 185.96875 141.59375 L 187.84375 143.46875 L 184.3125 147 L 182.65625 145.34375 L 181.9375 146.03125 L 183.625 147.6875 L 180.0625 151.25 L 178.1875 149.375 L 172.3125 143.46875 L 180.0625 135.6875 z M 197.03125 135.6875 L 202.9375 141.59375 L 204.8125 143.46875 L 201.28125 147 L 199.625 145.34375 L 198.90625 146.03125 L 200.5625 147.6875 L 197.03125 151.25 L 195.15625 149.375 L 189.28125 143.46875 L 197.03125 135.6875 z M 214 135.6875 L 219.90625 141.59375 L 221.78125 143.46875 L 218.25 147 L 216.59375 145.34375 L 215.875 146.03125 L 217.5625 147.6875 L 214 151.25 L 212.15625 149.375 L 206.25 143.46875 L 214 135.6875 z M 231 135.6875 L 236.875 141.59375 L 238.75 143.46875 L 235.21875 147 L 233.5625 145.34375 L 232.84375 146.03125 L 234.5 147.6875 L 231 151.25 L 229.125 149.375 L 223.21875 143.46875 L 231 135.6875 z M 12.71875 153.59375 L 12 154.3125 L 12.21875 154.53125 L 12.9375 153.8125 L 12.71875 153.59375 z "
       transform="translate(0,782.35975)"
       id="path3198" />
    <path
       transform="translate(0,782.35975)"
       id="path4499"
       d="M 257.63855 225.91325 L 13.361567 225.91325 "
       style="fill:none;stroke:#b3b3b3;stroke-width:1" />
    <path
       transform="translate(0,782.35975)"
       id="path4497"
       d="M 14.205405 213.91324 L 257.63855 213.91324 "
       style="fill:none;stroke:#b3b3b3;stroke-width:1" />
    <path
       transform="translate(0,782.35975)"
       id="path4491"
       d="M 255.26329 201.91328 L 12.361451 201.91328 "
       style="fill:none;stroke:#b3b3b3;stroke-width:1" />
    <path
       transform="translate(0,782.35975)"
       id="path4485"
       d="M 12.361451 189.91328 L 249.26263 189.91328 "
       style="fill:none;stroke:#b3b3b3;stroke-width:1" />
    <path
       transform="translate(0,782.35975)"
       id="path4483"
       d="M 244.73087 177.91328 L 12.361451 177.91328 "
       style="fill:none;stroke:#b3b3b3;stroke-width:1" />
    <path
       transform="translate(0,782.35975)"
       id="path4477"
       d="M 12.361451 165.91328 L 249.38764 165.91328 "
       style="fill:none;stroke:#b3b3b3;stroke-width:1" />
    <path
       transform="translate(0,782.35975)"
       id="path4475"
       d="M 257.201 153.91328 L 12.361451 153.91328 "
       style="fill:none;stroke:#b3b3b3;stroke-width:1" />
    <path
       transform="translate(0,782.35975)"
       id="path4467"
       d="M 205.60633 250.31895 L 254.85725 201.06801 "
       style="fill:none;stroke:#b3b3b3;stroke-width:1" />
    <path
       transform="translate(0,782.35975)"
       id="path4463"
       d="M 251.50595 153.50763 L 164.66327 240.35032 "
       style="fill:none;stroke:#b3b3b3;stroke-width:1" />
    <path
       transform="translate(0,782.35975)"
       id="path4461"
       d="M 114.34533 239.75658 L 200.59426 153.50763 "
       style="fill:none;stroke:#b3b3b3;stroke-width:1" />
    <path
       transform="translate(0,782.35975)"
       id="path4457"
       d="M 149.68257 153.50763 L 52.871281 250.31895 "
       style="fill:none;stroke:#b3b3b3;stroke-width:1" />
    <path
       transform="translate(0,782.35975)"
       id="path4455"
       d="M 13.42399 238.85451 L 98.770885 153.50763 "
       style="fill:none;stroke:#b3b3b3;stroke-width:1" />
    <path
       transform="translate(0,782.35975)"
       id="path4451"
       d="M 47.859191 153.50763 L 12.361451 189.00537 "
       style="fill:none;stroke:#b3b3b3;stroke-width:1" />
    <path
       transform="translate(0,782.35975)"
       id="path4449"
       d="M 257.63855 115.75749 L 12.361448 115.75749 "
       style="fill:none;stroke:#b3b3b3;stroke-width:1" />
    <path
       transform="translate(0,782.35975)"
       id="path4447"
       d="M 12.736489 103.75749 L 257.63855 103.75749 "
       style="fill:none;stroke:#b3b3b3;stroke-width:1" />
    <path
       transform="translate(0,782.35975)"
       id="path4441"
       d="M 254.63822 91.75749 L 17.205722 91.75749 "
       style="fill:none;stroke:#b3b3b3;stroke-width:1" />
    <path
       transform="translate(0,782.35975)"
       id="path4435"
       d="M 22.706341 79.75749 L 249.79393 79.75749 "
       style="fill:none;stroke:#b3b3b3;stroke-width:1" />
    <path
       transform="translate(0,782.35975)"
       id="path4431"
       d="M 27.175588 67.75749 L 12.361448 67.75749 "
       style="fill:none;stroke:#b3b3b3;stroke-width:1" />
    <path
       transform="translate(0,782.35975)"
       id="path4429"
       d="M 248.1375 67.75749 L 27.175588 67.75749 "
       style="fill:none;stroke:#b3b3b3;stroke-width:1" />
    <path
       transform="translate(0,782.35975)"
       id="path4423"
       d="M 29.394581 55.75749 L 248.76256 55.75749 "
       style="fill:none;stroke:#b3b3b3;stroke-width:1" />
    <path
       transform="translate(0,782.35975)"
       id="path4421"
       d="M 12.361448 55.75749 L 29.394581 55.75749 "
       style="fill:none;stroke:#b3b3b3;stroke-width:1" />
    <path
       transform="translate(0,782.35975)"
       id="path4419"
       d="M 29.019532 43.75749 L 12.361448 43.75749 "
       style="fill:none;stroke:#b3b3b3;stroke-width:1" />
    <path
       transform="translate(0,782.35975)"
       id="path4417"
       d="M 250.57527 43.75749 L 29.019532 43.75749 "
       style="fill:none;stroke:#b3b3b3;stroke-width:1" />
    <path
       transform="translate(0,782.35975)"
       id="path4411"
       d="M 26.081714 31.75749 L 253.88814 31.75749 "
       style="fill:none;stroke:#b3b3b3;stroke-width:1" />
    <path
       transform="translate(0,782.35975)"
       id="path4409"
       d="M 12.361448 31.75749 L 26.081714 31.75749 "
       style="fill:none;stroke:#b3b3b3;stroke-width:1" />
    <path
       transform="translate(0,782.35975)"
       id="path4385"
       d="M 205.60633 116.16314 L 248.48213 73.287341 "
       style="fill:none;stroke:#b3b3b3;stroke-width:1" />
    <path
       transform="translate(0,782.35975)"
       id="path4383"
       d="M 251.50595 19.35184 L 154.69464 116.16314 "
       style="fill:none;stroke:#b3b3b3;stroke-width:1" />
    <path
       transform="translate(0,782.35975)"
       id="path4381"
       d="M 190.53188 29.414217 L 200.59426 19.35184 "
       style="fill:none;stroke:#b3b3b3;stroke-width:1" />
    <path
       transform="translate(0,782.35975)"
       id="path4379"
       d="M 103.78296 116.16314 L 190.53188 29.414217 "
       style="fill:none;stroke:#b3b3b3;stroke-width:1" />
    <path
       transform="translate(0,782.35975)"
       id="path4377"
       d="M 149.68257 19.35184 L 52.871278 116.16314 "
       style="fill:none;stroke:#b3b3b3;stroke-width:1" />
    <path
       transform="translate(0,782.35975)"
       id="path4373"
       d="M 12.361448 105.76127 L 90.676833 27.445889 "
       style="fill:none;stroke:#b3b3b3;stroke-width:1" />
    <path
       transform="translate(0,782.35975)"
       id="path4371"
       d="M 28.195538 39.01549 L 12.361448 54.84958 "
       style="fill:none;stroke:#b3b3b3;stroke-width:1" />
    <path
       transform="translate(0,782.35975)"
       id="path4220"
       d="M 47.859188 19.35184 L 28.195538 39.01549 "
       style="fill:none;stroke:#b3b3b3;stroke-width:1" />
    <g
       transform="translate(0,782.35975)"
       style="font-size:16px;font-style:normal;font-variant:normal;font-weight:normal;font-stretch:normal;text-align:start;line-height:125%;letter-spacing:0px;word-spacing:0px;writing-mode:lr-tb;text-anchor:start;fill:#000000;fill-opacity:1;stroke:none;font-family:serif;-inkscape-font-specification:serif"
       id="text3967" />
    <text
       sodipodi:linespacing="125%"
       id="text5217"
       y="922.6828"
       x="248.76981"
       style="font-size:16px;font-style:normal;font-variant:normal;font-weight:normal;font-stretch:normal;text-align:start;line-height:125%;letter-spacing:0px;word-spacing:0px;writing-mode:lr-tb;text-anchor:start;fill:#000000;fill-opacity:1;stroke:none;font-family:Sans;-inkscape-font-specification:Sans"
       xml:space="preserve"><tspan
         y="922.6828"
         x="248.76981"
         id="tspan5219"
         sodipodi:role="line">$\hat{x}$</tspan></text>
    <g
       id="g4272"
       transform="matrix(0,-1,1,0,-602.99708,602.04762)">
      <path
         sodipodi:nodetypes="cc"
         style="fill:none;stroke:#000000;stroke-width:2;stroke-linecap:butt;stroke-linejoin:miter;stroke-miterlimit:4;stroke-opacity:1;stroke-dasharray:none"
         d="m -315.31213,845.14289 0,-230.46619"
         id="path5746"
         inkscape:connector-curvature="0" />
      <path
         style="fill:#000000;stroke:none"
         d="m -309.5151,844.6875 -6.08501,3.51319 -5.9691,-3.44626 z"
         id="path5197-1-8"
         inkscape:connector-curvature="0" />
    </g>
    <text
       sodipodi:linespacing="125%"
       id="text5766"
       y="1000.7047"
       x="78.36409"
       style="font-size:16px;font-style:normal;font-variant:normal;font-weight:normal;font-stretch:normal;text-align:start;line-height:125%;letter-spacing:0px;word-spacing:0px;writing-mode:lr-tb;text-anchor:start;fill:#000000;fill-opacity:1;stroke:none;font-family:Sans;-inkscape-font-specification:Sans"
       xml:space="preserve"><tspan
         id="tspan5776"
         y="1000.7047"
         x="78.36409"
         sodipodi:role="line">$T=\begin{cases}</tspan><tspan
         y="1020.7047"
         x="78.36409"
         sodipodi:role="line"
         id="tspan4310">T_{\infty} &amp; t=0\\</tspan><tspan
         y="1040.7046"
         x="78.36409"
         sodipodi:role="line"
         id="tspan4312">T_{0} &amp; t\geq0,\; x=0\\</tspan><tspan
         y="1060.7046"
         x="78.36409"
         sodipodi:role="line"
         id="tspan4314">T_{\infty} &amp; t\geq0,\; x=\infty</tspan><tspan
         y="1080.7046"
         x="78.36409"
         sodipodi:role="line"
         id="tspan4318">\end{cases}$</tspan></text>
    <path
       id="path3040-1"
       style="fill:none;stroke:#000000;stroke-width:1px;stroke-linecap:butt;stroke-linejoin:miter;stroke-opacity:1"
       d="m 15.28916,936.22723 239.42168,0 m -239.421677,-37.73495 239.421677,0"
       inkscape:connector-curvature="0" />
  </g>
</svg>
