<?xml version="1.0" encoding="UTF-8" standalone="no"?>
<svg
   xmlns:dc="http://purl.org/dc/elements/1.1/"
   xmlns:cc="http://creativecommons.org/ns#"
   xmlns:rdf="http://www.w3.org/1999/02/22-rdf-syntax-ns#"
   xmlns:svg="http://www.w3.org/2000/svg"
   xmlns="http://www.w3.org/2000/svg"
   xmlns:sodipodi="http://sodipodi.sourceforge.net/DTD/sodipodi-0.dtd"
   xmlns:inkscape="http://www.inkscape.org/namespaces/inkscape"
   preserveAspectRatio="xMinYMin meet"
   width="100%"
   height="100%"
   viewBox="0 0 475.96797 308.70273"
   version="1.1"
   id="svg2"
   inkscape:version="0.48.4 r9939"
   sodipodi:docname="NUCL_511_HMWK_4_PROB_1.pdf">
  <metadata
     id="metadata227">
    <rdf:RDF>
      <cc:Work
         rdf:about="">
        <dc:format>image/svg+xml</dc:format>
        <dc:type
           rdf:resource="http://purl.org/dc/dcmitype/StillImage" />
        <dc:title></dc:title>
      </cc:Work>
    </rdf:RDF>
  </metadata>
  <defs
     id="defs225">
    <clipPath
       id="ID000008">
      <rect
         x="55.331001"
         y="21.305"
         width="329.85901"
         height="231.511"
         id="rect110" />
    </clipPath>
    <clipPath
       id="ID000001">
      <rect
         x="55.331001"
         y="21.305"
         width="329.85901"
         height="231.511"
         id="rect11" />
    </clipPath>
  </defs>
  <sodipodi:namedview
     pagecolor="#ffffff"
     bordercolor="#666666"
     borderopacity="1"
     objecttolerance="10"
     gridtolerance="10"
     guidetolerance="10"
     inkscape:pageopacity="0"
     inkscape:pageshadow="2"
     inkscape:window-width="1920"
     inkscape:window-height="1138"
     id="namedview223"
     showgrid="false"
     units="mm"
     fit-margin-top="5"
     fit-margin-left="5"
     fit-margin-right="5"
     fit-margin-bottom="5"
     inkscape:zoom="1.6211193"
     inkscape:cx="122.10561"
     inkscape:cy="166.02975"
     inkscape:window-x="-8"
     inkscape:window-y="-8"
     inkscape:window-maximized="1"
     inkscape:current-layer="svg2" />
  <desc
     id="desc4">Matlab Figure Converted by PLOT2SVG written by Juerg Schwizer</desc>
  <polygon
     points="385.191,21.305 385.191,21.305 55.331,21.305 55.331,21.305 "
     id="polygon15"
     style="fill:#ffffff;fill-opacity:1;stroke:none"
     transform="translate(5.5229209,0.64152835)" />
  <polygon
     points="55.331,252.816 55.331,21.305 55.331,21.305 55.331,252.816 "
     id="polygon17"
     style="fill:#ffffff;fill-opacity:1;stroke:#000000"
     transform="translate(5.5229209,0.64152835)" />
  <g
     clip-path="url(#ID000001)"
     id="ID000002"
     transform="translate(5.5229209,0.64152835)"
     style="stroke:#000000">
    <polyline
       style="fill:none;stroke:#000000;stroke-width:0.50000000000000000pt;stroke-dasharray:none"
       id="polyline22"
       points="55.331,252.815 55.661,252.199 55.992,251.582 56.322,250.966 56.652,250.350 56.982,249.733 57.312,249.117 57.643,248.500 57.973,247.884 58.303,247.268 58.633,246.652 58.963,246.035 59.294,245.419 59.624,244.803 59.954,244.188 60.284,243.572 60.614,242.956 60.944,242.340 61.275,241.725 61.605,241.109 61.935,240.494 62.265,239.879 62.595,239.264 62.926,238.649 63.256,238.034 63.586,237.419 63.916,236.805 64.246,236.191 64.577,235.576 64.907,234.962 65.237,234.349 65.567,233.735 65.897,233.121 66.228,232.508 66.558,231.895 66.888,231.282 67.218,230.670 67.548,230.057 67.878,229.445 68.209,228.833 68.539,228.221 68.869,227.610 69.199,226.999 69.529,226.388 69.860,225.777 70.190,225.166 70.520,224.556 70.850,223.946 71.180,223.337 71.511,222.727 71.841,222.118 72.171,221.510 72.501,220.901 72.831,220.293 73.161,219.685 73.492,219.078 73.822,218.471 74.152,217.864 74.482,217.258 74.812,216.652 75.143,216.046 75.473,215.441 75.803,214.836 76.133,214.231 76.463,213.627 76.794,213.023 77.124,212.420 77.454,211.816 77.784,211.214 78.114,210.612 78.445,210.010 78.775,209.408 79.105,208.807 79.435,208.207 79.765,207.607 80.095,207.007 80.426,206.408 80.756,205.809 81.086,205.211 81.416,204.613 81.746,204.016 82.077,203.419 82.407,202.823 82.737,202.227 83.067,201.632 83.397,201.037 83.728,200.442 84.058,199.849 84.388,199.255 84.718,198.663 85.048,198.070 85.379,197.479 85.709,196.888 86.039,196.297 86.369,195.707 86.699,195.118 87.029,194.529 87.360,193.940 87.690,193.353 88.020,192.765 88.350,192.179 88.680,191.593 89.011,191.008 89.341,190.423 89.671,189.839 90.001,189.255 90.331,188.672 90.662,188.090 90.992,187.509 91.322,186.928 91.652,186.347 91.982,185.768 92.312,185.189 92.643,184.611 92.973,184.033 93.303,183.456 93.633,182.880 93.963,182.304 94.294,181.729 94.624,181.155 94.954,180.582 95.284,180.009 95.614,179.437 95.945,178.866 96.275,178.295 96.605,177.725 96.935,177.156 97.265,176.588 97.596,176.020 97.926,175.453 98.256,174.887 98.586,174.322 98.916,173.758 99.246,173.194 99.577,172.631 99.907,172.069 100.237,171.507 100.567,170.947 100.897,170.387 101.228,169.828 101.558,169.270 101.888,168.713 102.218,168.156 102.548,167.601 102.879,167.046 103.209,166.492 103.539,165.939 103.869,165.387 104.199,164.836 104.529,164.285 104.860,163.735 105.190,163.187 105.520,162.639 105.850,162.092 106.180,161.546 106.511,161.001 106.841,160.457 107.171,159.913 107.501,159.371 107.831,158.829 108.162,158.289 108.492,157.749 108.822,157.211 109.152,156.673 109.482,156.136 109.813,155.600 110.143,155.065 110.473,154.532 110.803,153.999 111.133,153.467 111.463,152.936 111.794,152.406 112.124,151.877 112.454,151.349 112.784,150.822 113.114,150.296 113.445,149.771 113.775,149.247 114.105,148.724 114.435,148.202 114.765,147.681 115.096,147.162 115.426,146.643 115.756,146.125 116.086,145.609 116.416,145.093 116.747,144.578 117.077,144.065 117.407,143.553 117.737,143.041 118.067,142.531 118.397,142.022 118.728,141.514 119.058,141.007 119.388,140.501 119.718,139.997 120.048,139.493 120.379,138.990 120.709,138.489 121.039,137.989 121.369,137.490 121.699,136.992 122.030,136.495 122.360,135.999 122.690,135.505 123.020,135.012 123.350,134.519 123.680,134.028 124.011,133.539 124.341,133.050 124.671,132.563 125.001,132.076 125.331,131.591 125.662,131.107 125.992,130.625 126.322,130.143 126.652,129.663 126.982,129.184 127.313,128.706 127.643,128.230 127.973,127.754 128.303,127.280 128.633,126.807 128.964,126.336 129.294,125.865 129.624,125.396 129.954,124.928 130.284,124.462 130.614,123.996 130.945,123.532 131.275,123.070 131.605,122.608 131.935,122.148 132.265,121.689 132.596,121.231 132.926,120.775 133.256,120.320 133.586,119.866 133.916,119.414 134.247,118.963 134.577,118.513 134.907,118.065 135.237,117.618 135.567,117.172 135.898,116.728 136.228,116.284 136.558,115.843 136.888,115.402 137.218,114.963 137.548,114.526 137.879,114.090 138.209,113.655 138.539,113.221 138.869,112.789 139.199,112.358 139.530,111.929 139.860,111.501 140.190,111.074 140.520,110.649 140.850,110.226 141.181,109.803 141.511,109.382 141.841,108.963 142.171,108.545 142.501,108.128 142.831,107.713 143.162,107.299 143.492,106.887 143.822,106.476 144.152,106.066 144.482,105.658 144.813,105.252 145.143,104.847 145.473,104.443 145.803,104.041 146.133,103.640 146.464,103.241 146.794,102.843 147.124,102.447 147.454,102.052 147.784,101.659 148.115,101.267 148.445,100.877 148.775,100.488 149.105,100.101 149.435,99.715 149.765,99.331 150.096,98.948 150.426,98.567 150.756,98.187 151.086,97.809 151.416,97.432 151.747,97.057 152.077,96.683 152.407,96.311 152.737,95.941 153.067,95.572 153.398,95.205 153.728,94.839 154.058,94.475 154.388,94.112 154.718,93.751 155.048,93.391 155.379,93.033 155.709,92.677 156.039,92.322 156.369,91.969 156.699,91.617 157.030,91.267 157.360,90.919 157.690,90.572 158.020,90.227 158.350,89.883 158.681,89.541 159.011,89.201 159.341,88.862 159.671,88.525 160.001,88.190 160.332,87.856 160.662,87.524 160.992,87.193 161.322,86.864 161.652,86.537 161.982,86.211 162.313,85.887 162.643,85.564 162.973,85.244 163.303,84.925 163.633,84.607 163.964,84.291 164.294,83.977 164.624,83.665 164.954,83.354 165.284,83.045 165.615,82.738 165.945,82.432 166.275,82.128 166.605,81.826 166.935,81.525 167.266,81.226 167.596,80.929 167.926,80.633 168.256,80.339 168.586,80.047 168.916,79.757 169.247,79.468 169.577,79.181 169.907,78.896 170.237,78.612 170.567,78.330 170.898,78.050 171.228,77.772 171.558,77.495 171.888,77.220 172.218,76.947 172.549,76.675 172.879,76.406 173.209,76.138 173.539,75.871 173.869,75.607 174.199,75.344 174.530,75.083 174.860,74.824 175.190,74.567 175.520,74.311 175.850,74.057 176.181,73.805 176.511,73.554 176.841,73.306 177.171,73.059 177.501,72.814 177.832,72.571 178.162,72.329 178.492,72.089 178.822,71.852 179.152,71.615 179.483,71.381 179.813,71.148 180.143,70.918 180.473,70.689 180.803,70.462 181.133,70.236 181.464,70.013 181.794,69.791 182.124,69.571 182.454,69.353 182.784,69.137 183.115,68.922 183.445,68.709 183.775,68.499 184.105,68.290 184.435,68.082 184.766,67.877 185.096,67.673 185.426,67.472 185.756,67.272 186.086,67.074 186.417,66.878 186.747,66.683 187.077,66.491 187.407,66.300 187.737,66.111 188.067,65.924 188.398,65.739 188.728,65.556 189.058,65.374 189.388,65.195 189.718,65.017 190.049,64.841 190.379,64.667 190.709,64.495 191.039,64.325 191.369,64.156 191.700,63.990 192.030,63.825 192.360,63.662 192.690,63.501 193.020,63.342 193.350,63.185 193.681,63.030 194.011,62.876 194.341,62.724 194.671,62.575 195.001,62.427 195.332,62.281 195.662,62.137 195.992,61.995 196.322,61.855 196.652,61.716 196.983,61.580 197.313,61.445 197.643,61.312 197.973,61.181 198.303,61.053 198.634,60.926 198.964,60.800 199.294,60.677 199.624,60.556 199.954,60.436 200.284,60.319 200.615,60.203 200.945,60.089 201.275,59.978 201.605,59.868 201.935,59.760 202.266,59.654 202.596,59.549 202.926,59.447 203.256,59.347 203.586,59.248 203.917,59.152 204.247,59.057 204.577,58.965 204.907,58.874 205.237,58.785 205.568,58.698 205.898,58.613 206.228,58.530 206.558,58.449 206.888,58.369 207.218,58.292 207.549,58.217 207.879,58.143 208.209,58.072 208.539,58.002 208.869,57.934 209.200,57.868 209.530,57.805 209.860,57.743 210.190,57.683 210.520,57.624 210.851,57.568 211.181,57.514 211.511,57.462 211.841,57.412 212.171,57.363 212.501,57.317 212.832,57.272 213.162,57.229 213.492,57.189 213.822,57.150 214.152,57.113 214.483,57.078 214.813,57.045 215.143,57.014 215.473,56.985 215.803,56.958 216.134,56.933 216.464,56.910 216.794,56.888 217.124,56.869 217.454,56.852 217.785,56.836 218.115,56.822 218.445,56.811 218.775,56.801 219.105,56.793 219.435,56.788 219.766,56.784 220.096,56.782 220.426,56.782 220.756,56.784 221.086,56.788 221.417,56.793 221.747,56.801 222.077,56.811 222.407,56.822 222.737,56.836 223.068,56.852 223.398,56.869 223.728,56.888 224.058,56.910 224.388,56.933 224.718,56.958 225.049,56.985 225.379,57.014 225.709,57.045 226.039,57.078 226.369,57.113 226.700,57.150 227.030,57.189 227.360,57.229 227.690,57.272 228.020,57.317 228.351,57.363 228.681,57.412 229.011,57.462 229.341,57.514 229.671,57.568 230.002,57.624 230.332,57.683 230.662,57.743 230.992,57.805 231.322,57.868 231.652,57.934 231.983,58.002 232.313,58.072 232.643,58.143 232.973,58.217 233.303,58.292 233.634,58.369 233.964,58.449 234.294,58.530 234.624,58.613 234.954,58.698 235.285,58.785 235.615,58.874 235.945,58.965 236.275,59.057 236.605,59.152 236.936,59.248 237.266,59.347 237.596,59.447 237.926,59.549 238.256,59.654 238.586,59.760 238.917,59.868 239.247,59.978 239.577,60.089 239.907,60.203 240.237,60.319 240.568,60.436 240.898,60.556 241.228,60.677 241.558,60.800 241.888,60.926 242.219,61.053 242.549,61.181 242.879,61.312 243.209,61.445 243.539,61.580 243.869,61.716 244.200,61.855 244.530,61.995 244.860,62.137 245.190,62.281 245.520,62.427 245.851,62.575 246.181,62.724 246.511,62.876 246.841,63.030 247.171,63.185 247.502,63.342 247.832,63.501 248.162,63.662 248.492,63.825 248.822,63.990 249.153,64.156 249.483,64.325 249.813,64.495 250.143,64.667 250.473,64.841 250.803,65.017 251.134,65.195 251.464,65.374 251.794,65.556 252.124,65.739 252.454,65.924 252.785,66.111 253.115,66.300 253.445,66.491 253.775,66.683 254.105,66.878 254.436,67.074 254.766,67.272 255.096,67.472 255.426,67.673 255.756,67.877 256.087,68.082 256.417,68.290 256.747,68.499 257.077,68.709 257.407,68.922 257.737,69.137 258.068,69.353 258.398,69.571 258.728,69.791 259.058,70.013 259.388,70.236 259.719,70.462 260.049,70.689 260.379,70.918 260.709,71.148 261.039,71.381 261.370,71.615 261.700,71.852 262.030,72.089 262.360,72.329 262.690,72.571 263.020,72.814 263.351,73.059 263.681,73.306 264.011,73.554 264.341,73.805 264.671,74.057 265.002,74.311 265.332,74.567 265.662,74.824 265.992,75.083 266.322,75.344 266.653,75.607 266.983,75.871 267.313,76.138 267.643,76.406 267.973,76.675 268.304,76.947 268.634,77.220 268.964,77.495 269.294,77.772 269.624,78.050 269.954,78.330 270.285,78.612 270.615,78.896 270.945,79.181 271.275,79.468 271.605,79.757 271.936,80.047 272.266,80.339 272.596,80.633 272.926,80.929 273.256,81.226 273.587,81.525 273.917,81.826 274.247,82.128 274.577,82.432 274.907,82.738 275.238,83.045 275.568,83.354 275.898,83.665 276.228,83.977 276.558,84.291 276.888,84.607 277.219,84.925 277.549,85.244 277.879,85.564 278.209,85.887 278.539,86.211 278.870,86.537 279.200,86.864 279.530,87.193 279.860,87.524 280.190,87.856 280.521,88.190 280.851,88.525 281.181,88.862 281.511,89.201 281.841,89.541 282.171,89.883 282.502,90.227 282.832,90.572 283.162,90.919 283.492,91.267 283.822,91.617 284.153,91.969 284.483,92.322 284.813,92.677 285.143,93.033 285.473,93.391 285.804,93.751 286.134,94.112 286.464,94.475 286.794,94.839 287.124,95.205 287.455,95.572 287.785,95.941 288.115,96.311 288.445,96.683 288.775,97.057 289.105,97.432 289.436,97.809 289.766,98.187 290.096,98.567 290.426,98.948 290.756,99.331 291.087,99.715 291.417,100.101 291.747,100.488 292.077,100.877 292.407,101.267 292.738,101.659 293.068,102.052 293.398,102.447 293.728,102.843 294.058,103.241 294.388,103.640 294.719,104.041 295.049,104.443 295.379,104.847 295.709,105.252 296.039,105.658 296.370,106.066 296.700,106.476 297.030,106.887 297.360,107.299 297.690,107.713 298.021,108.128 298.351,108.545 298.681,108.963 299.011,109.382 299.341,109.803 299.672,110.226 300.002,110.649 300.332,111.074 300.662,111.501 300.992,111.929 301.322,112.358 301.653,112.789 301.983,113.221 302.313,113.655 302.643,114.090 302.973,114.526 303.304,114.963 303.634,115.402 303.964,115.843 304.294,116.284 304.624,116.728 304.955,117.172 305.285,117.618 305.615,118.065 305.945,118.513 306.275,118.963 306.606,119.414 306.936,119.866 307.266,120.320 307.596,120.775 307.926,121.231 308.256,121.689 308.587,122.148 308.917,122.608 309.247,123.070 309.577,123.532 309.907,123.996 310.238,124.462 310.568,124.928 310.898,125.396 311.228,125.865 311.558,126.336 311.889,126.807 312.219,127.280 312.549,127.754 312.879,128.230 313.209,128.706 313.539,129.184 313.870,129.663 314.200,130.143 314.530,130.625 314.860,131.107 315.190,131.591 315.521,132.076 315.851,132.563 316.181,133.050 316.511,133.539 316.841,134.028 317.172,134.519 317.502,135.012 317.832,135.505 318.162,135.999 318.492,136.495 318.823,136.992 319.153,137.490 319.483,137.989 319.813,138.489 320.143,138.990 320.473,139.493 320.804,139.997 321.134,140.501 321.464,141.007 321.794,141.514 322.124,142.022 322.455,142.531 322.785,143.041 323.115,143.553 323.445,144.065 323.775,144.578 324.106,145.093 324.436,145.609 324.766,146.125 325.096,146.643 325.426,147.162 325.757,147.681 326.087,148.202 326.417,148.724 326.747,149.247 327.077,149.771 327.407,150.296 327.738,150.822 328.068,151.349 328.398,151.877 328.728,152.406 329.058,152.936 329.389,153.467 329.719,153.999 330.049,154.532 330.379,155.065 330.709,155.600 331.040,156.136 331.370,156.673 331.700,157.211 332.030,157.749 332.360,158.289 332.690,158.829 333.021,159.371 333.351,159.913 333.681,160.457 334.011,161.001 334.341,161.546 334.672,162.092 335.002,162.639 335.332,163.187 335.662,163.735 335.992,164.285 336.323,164.836 336.653,165.387 336.983,165.939 337.313,166.492 337.643,167.046 337.974,167.601 338.304,168.156 338.634,168.713 338.964,169.270 339.294,169.828 339.624,170.387 339.955,170.947 340.285,171.507 340.615,172.069 340.945,172.631 341.275,173.194 341.606,173.758 341.936,174.322 342.266,174.887 342.596,175.453 342.926,176.020 343.257,176.588 343.587,177.156 343.917,177.725 344.247,178.295 344.577,178.866 344.907,179.437 345.238,180.009 345.568,180.582 345.898,181.155 346.228,181.729 346.558,182.304 346.889,182.880 347.219,183.456 347.549,184.033 347.879,184.611 348.209,185.189 348.540,185.768 348.870,186.347 349.200,186.928 349.530,187.509 349.860,188.090 350.191,188.672 350.521,189.255 350.851,189.839 351.181,190.423 351.511,191.008 351.841,191.593 352.172,192.179 352.502,192.765 352.832,193.353 353.162,193.940 353.492,194.529 353.823,195.118 354.153,195.707 354.483,196.297 354.813,196.888 355.143,197.479 355.474,198.070 355.804,198.663 356.134,199.255 356.464,199.849 356.794,200.442 357.125,201.037 357.455,201.632 357.785,202.227 358.115,202.823 358.445,203.419 358.775,204.016 359.106,204.613 359.436,205.211 359.766,205.809 360.096,206.408 360.426,207.007 360.757,207.607 361.087,208.207 361.417,208.807 361.747,209.408 362.077,210.010 362.408,210.612 362.738,211.214 363.068,211.816 363.398,212.420 363.728,213.023 364.058,213.627 364.389,214.231 364.719,214.836 365.049,215.441 365.379,216.046 365.709,216.652 366.040,217.258 366.370,217.864 366.700,218.471 367.030,219.078 367.360,219.685 367.691,220.293 368.021,220.901 368.351,221.510 368.681,222.118 369.011,222.727 369.342,223.337 369.672,223.946 370.002,224.556 370.332,225.166 370.662,225.777 370.992,226.388 371.323,226.999 371.653,227.610 371.983,228.221 372.313,228.833 372.643,229.445 372.974,230.057 373.304,230.670 373.634,231.282 373.964,231.895 374.294,232.508 374.625,233.121 374.955,233.735 375.285,234.349 375.615,234.962 375.945,235.576 376.276,236.191 376.606,236.805 376.936,237.419 377.266,238.034 377.596,238.649 377.926,239.264 378.257,239.879 378.587,240.494 378.917,241.109 379.247,241.725 379.577,242.340 379.908,242.956 380.238,243.572 380.568,244.188 380.898,244.803 381.228,245.419 381.559,246.035 381.889,246.652 382.219,247.268 382.549,247.884 382.879,248.500 383.209,249.117 383.540,249.733 383.870,250.350 384.200,250.966 384.530,251.582 384.860,252.199 385.191,252.815 " />
    <g
       id="g24"
       style="stroke:#000000" />
  </g>
  <g
     clip-path="url(#ID000001)"
     id="ID000003"
     transform="translate(5.5229209,0.64152835)"
     style="stroke:#000000">
    <polyline
       style="fill:none;stroke:#000000;stroke-width:0.50000000000000000pt;stroke-dasharray:8, 2"
       id="polyline27"
       points="55.331,252.816 55.661,252.732 55.992,252.648 56.322,252.565 56.652,252.481 56.982,252.398 57.312,252.314 57.643,252.230 57.973,252.147 58.303,252.063 58.633,251.980 58.963,251.896 59.294,251.813 59.624,251.729 59.954,251.646 60.284,251.562 60.614,251.479 60.944,251.395 61.275,251.312 61.605,251.228 61.935,251.145 62.265,251.061 62.595,250.978 62.926,250.894 63.256,250.811 63.586,250.728 63.916,250.644 64.246,250.561 64.577,250.478 64.907,250.395 65.237,250.311 65.567,250.228 65.897,250.145 66.228,250.062 66.558,249.979 66.888,249.896 67.218,249.812 67.548,249.729 67.878,249.646 68.209,249.563 68.539,249.480 68.869,249.398 69.199,249.315 69.529,249.232 69.860,249.149 70.190,249.066 70.520,248.983 70.850,248.901 71.180,248.818 71.511,248.735 71.841,248.653 72.171,248.570 72.501,248.488 72.831,248.405 73.161,248.323 73.492,248.241 73.822,248.158 74.152,248.076 74.482,247.994 74.812,247.911 75.143,247.829 75.473,247.747 75.803,247.665 76.133,247.583 76.463,247.501 76.794,247.419 77.124,247.338 77.454,247.256 77.784,247.174 78.114,247.092 78.445,247.011 78.775,246.929 79.105,246.848 79.435,246.766 79.765,246.685 80.095,246.604 80.426,246.522 80.756,246.441 81.086,246.360 81.416,246.279 81.746,246.198 82.077,246.117 82.407,246.036 82.737,245.955 83.067,245.875 83.397,245.794 83.728,245.713 84.058,245.633 84.388,245.552 84.718,245.472 85.048,245.392 85.379,245.311 85.709,245.231 86.039,245.151 86.369,245.071 86.699,244.991 87.029,244.911 87.360,244.832 87.690,244.752 88.020,244.672 88.350,244.593 88.680,244.513 89.011,244.434 89.341,244.355 89.671,244.275 90.001,244.196 90.331,244.117 90.662,244.038 90.992,243.959 91.322,243.881 91.652,243.802 91.982,243.723 92.312,243.645 92.643,243.566 92.973,243.488 93.303,243.410 93.633,243.332 93.963,243.254 94.294,243.176 94.624,243.098 94.954,243.020 95.284,242.942 95.614,242.865 95.945,242.787 96.275,242.710 96.605,242.633 96.935,242.556 97.265,242.479 97.596,242.402 97.926,242.325 98.256,242.248 98.586,242.171 98.916,242.095 99.246,242.018 99.577,241.942 99.907,241.866 100.237,241.790 100.567,241.714 100.897,241.638 101.228,241.562 101.558,241.486 101.888,241.411 102.218,241.335 102.548,241.260 102.879,241.185 103.209,241.109 103.539,241.034 103.869,240.960 104.199,240.885 104.529,240.810 104.860,240.736 105.190,240.661 105.520,240.587 105.850,240.513 106.180,240.439 106.511,240.365 106.841,240.291 107.171,240.217 107.501,240.144 107.831,240.070 108.162,239.997 108.492,239.924 108.822,239.851 109.152,239.778 109.482,239.705 109.813,239.632 110.143,239.560 110.473,239.488 110.803,239.415 111.133,239.343 111.463,239.271 111.794,239.199 112.124,239.128 112.454,239.056 112.784,238.984 113.114,238.913 113.445,238.842 113.775,238.771 114.105,238.700 114.435,238.629 114.765,238.559 115.096,238.488 115.426,238.418 115.756,238.348 116.086,238.277 116.416,238.208 116.747,238.138 117.077,238.068 117.407,237.999 117.737,237.929 118.067,237.860 118.397,237.791 118.728,237.722 119.058,237.653 119.388,237.585 119.718,237.516 120.048,237.448 120.379,237.380 120.709,237.312 121.039,237.244 121.369,237.177 121.699,237.109 122.030,237.042 122.360,236.974 122.690,236.907 123.020,236.840 123.350,236.774 123.680,236.707 124.011,236.641 124.341,236.574 124.671,236.508 125.001,236.442 125.331,236.377 125.662,236.311 125.992,236.246 126.322,236.180 126.652,236.115 126.982,236.050 127.313,235.985 127.643,235.921 127.973,235.856 128.303,235.792 128.633,235.728 128.964,235.664 129.294,235.600 129.624,235.537 129.954,235.473 130.284,235.410 130.614,235.347 130.945,235.284 131.275,235.221 131.605,235.158 131.935,235.096 132.265,235.034 132.596,234.972 132.926,234.910 133.256,234.848 133.586,234.787 133.916,234.725 134.247,234.664 134.577,234.603 134.907,234.542 135.237,234.482 135.567,234.421 135.898,234.361 136.228,234.301 136.558,234.241 136.888,234.181 137.218,234.122 137.548,234.062 137.879,234.003 138.209,233.944 138.539,233.885 138.869,233.827 139.199,233.768 139.530,233.710 139.860,233.652 140.190,233.594 140.520,233.537 140.850,233.479 141.181,233.422 141.511,233.365 141.841,233.308 142.171,233.251 142.501,233.195 142.831,233.138 143.162,233.082 143.492,233.026 143.822,232.971 144.152,232.915 144.482,232.860 144.813,232.805 145.143,232.750 145.473,232.695 145.803,232.641 146.133,232.586 146.464,232.532 146.794,232.478 147.124,232.424 147.454,232.371 147.784,232.318 148.115,232.264 148.445,232.211 148.775,232.159 149.105,232.106 149.435,232.054 149.765,232.002 150.096,231.950 150.426,231.898 150.756,231.847 151.086,231.795 151.416,231.744 151.747,231.693 152.077,231.643 152.407,231.592 152.737,231.542 153.067,231.492 153.398,231.442 153.728,231.393 154.058,231.343 154.388,231.294 154.718,231.245 155.048,231.196 155.379,231.148 155.709,231.100 156.039,231.051 156.369,231.004 156.699,230.956 157.030,230.908 157.360,230.861 157.690,230.814 158.020,230.767 158.350,230.721 158.681,230.674 159.011,230.628 159.341,230.582 159.671,230.537 160.001,230.491 160.332,230.446 160.662,230.401 160.992,230.356 161.322,230.311 161.652,230.267 161.982,230.223 162.313,230.179 162.643,230.135 162.973,230.092 163.303,230.048 163.633,230.005 163.964,229.962 164.294,229.920 164.624,229.877 164.954,229.835 165.284,229.793 165.615,229.752 165.945,229.710 166.275,229.669 166.605,229.628 166.935,229.587 167.266,229.547 167.596,229.506 167.926,229.466 168.256,229.426 168.586,229.387 168.916,229.347 169.247,229.308 169.577,229.269 169.907,229.231 170.237,229.192 170.567,229.154 170.898,229.116 171.228,229.078 171.558,229.041 171.888,229.003 172.218,228.966 172.549,228.930 172.879,228.893 173.209,228.857 173.539,228.821 173.869,228.785 174.199,228.749 174.530,228.714 174.860,228.679 175.190,228.644 175.520,228.609 175.850,228.575 176.181,228.540 176.511,228.506 176.841,228.473 177.171,228.439 177.501,228.406 177.832,228.373 178.162,228.340 178.492,228.308 178.822,228.275 179.152,228.243 179.483,228.212 179.813,228.180 180.143,228.149 180.473,228.118 180.803,228.087 181.133,228.056 181.464,228.026 181.794,227.996 182.124,227.966 182.454,227.937 182.784,227.907 183.115,227.878 183.445,227.849 183.775,227.821 184.105,227.792 184.435,227.764 184.766,227.736 185.096,227.709 185.426,227.681 185.756,227.654 186.086,227.628 186.417,227.601 186.747,227.575 187.077,227.548 187.407,227.523 187.737,227.497 188.067,227.472 188.398,227.447 188.728,227.422 189.058,227.397 189.388,227.373 189.718,227.349 190.049,227.325 190.379,227.301 190.709,227.278 191.039,227.255 191.369,227.232 191.700,227.209 192.030,227.187 192.360,227.165 192.690,227.143 193.020,227.121 193.350,227.100 193.681,227.079 194.011,227.058 194.341,227.038 194.671,227.017 195.001,226.997 195.332,226.978 195.662,226.958 195.992,226.939 196.322,226.920 196.652,226.901 196.983,226.882 197.313,226.864 197.643,226.846 197.973,226.828 198.303,226.811 198.634,226.794 198.964,226.777 199.294,226.760 199.624,226.744 199.954,226.727 200.284,226.711 200.615,226.696 200.945,226.680 201.275,226.665 201.605,226.650 201.935,226.636 202.266,226.621 202.596,226.607 202.926,226.593 203.256,226.580 203.586,226.566 203.917,226.553 204.247,226.540 204.577,226.528 204.907,226.516 205.237,226.503 205.568,226.492 205.898,226.480 206.228,226.469 206.558,226.458 206.888,226.447 207.218,226.437 207.549,226.426 207.879,226.416 208.209,226.407 208.539,226.397 208.869,226.388 209.200,226.379 209.530,226.371 209.860,226.362 210.190,226.354 210.520,226.346 210.851,226.339 211.181,226.331 211.511,226.324 211.841,226.317 212.171,226.311 212.501,226.304 212.832,226.298 213.162,226.293 213.492,226.287 213.822,226.282 214.152,226.277 214.483,226.272 214.813,226.268 215.143,226.263 215.473,226.259 215.803,226.256 216.134,226.252 216.464,226.249 216.794,226.246 217.124,226.244 217.454,226.241 217.785,226.239 218.115,226.237 218.445,226.236 218.775,226.234 219.105,226.233 219.435,226.233 219.766,226.232 220.096,226.232 220.426,226.232 220.756,226.232 221.086,226.233 221.417,226.233 221.747,226.234 222.077,226.236 222.407,226.237 222.737,226.239 223.068,226.241 223.398,226.244 223.728,226.246 224.058,226.249 224.388,226.252 224.718,226.256 225.049,226.259 225.379,226.263 225.709,226.268 226.039,226.272 226.369,226.277 226.700,226.282 227.030,226.287 227.360,226.293 227.690,226.298 228.020,226.304 228.351,226.311 228.681,226.317 229.011,226.324 229.341,226.331 229.671,226.339 230.002,226.346 230.332,226.354 230.662,226.362 230.992,226.371 231.322,226.379 231.652,226.388 231.983,226.397 232.313,226.407 232.643,226.416 232.973,226.426 233.303,226.437 233.634,226.447 233.964,226.458 234.294,226.469 234.624,226.480 234.954,226.492 235.285,226.503 235.615,226.516 235.945,226.528 236.275,226.540 236.605,226.553 236.936,226.566 237.266,226.580 237.596,226.593 237.926,226.607 238.256,226.621 238.586,226.636 238.917,226.650 239.247,226.665 239.577,226.680 239.907,226.696 240.237,226.711 240.568,226.727 240.898,226.744 241.228,226.760 241.558,226.777 241.888,226.794 242.219,226.811 242.549,226.828 242.879,226.846 243.209,226.864 243.539,226.882 243.869,226.901 244.200,226.920 244.530,226.939 244.860,226.958 245.190,226.978 245.520,226.997 245.851,227.017 246.181,227.038 246.511,227.058 246.841,227.079 247.171,227.100 247.502,227.121 247.832,227.143 248.162,227.165 248.492,227.187 248.822,227.209 249.153,227.232 249.483,227.255 249.813,227.278 250.143,227.301 250.473,227.325 250.803,227.349 251.134,227.373 251.464,227.397 251.794,227.422 252.124,227.447 252.454,227.472 252.785,227.497 253.115,227.523 253.445,227.548 253.775,227.575 254.105,227.601 254.436,227.628 254.766,227.654 255.096,227.681 255.426,227.709 255.756,227.736 256.087,227.764 256.417,227.792 256.747,227.821 257.077,227.849 257.407,227.878 257.737,227.907 258.068,227.937 258.398,227.966 258.728,227.996 259.058,228.026 259.388,228.056 259.719,228.087 260.049,228.118 260.379,228.149 260.709,228.180 261.039,228.212 261.370,228.243 261.700,228.275 262.030,228.308 262.360,228.340 262.690,228.373 263.020,228.406 263.351,228.439 263.681,228.473 264.011,228.506 264.341,228.540 264.671,228.575 265.002,228.609 265.332,228.644 265.662,228.679 265.992,228.714 266.322,228.749 266.653,228.785 266.983,228.821 267.313,228.857 267.643,228.893 267.973,228.930 268.304,228.966 268.634,229.003 268.964,229.041 269.294,229.078 269.624,229.116 269.954,229.154 270.285,229.192 270.615,229.231 270.945,229.269 271.275,229.308 271.605,229.347 271.936,229.387 272.266,229.426 272.596,229.466 272.926,229.506 273.256,229.547 273.587,229.587 273.917,229.628 274.247,229.669 274.577,229.710 274.907,229.752 275.238,229.793 275.568,229.835 275.898,229.877 276.228,229.920 276.558,229.962 276.888,230.005 277.219,230.048 277.549,230.092 277.879,230.135 278.209,230.179 278.539,230.223 278.870,230.267 279.200,230.311 279.530,230.356 279.860,230.401 280.190,230.446 280.521,230.491 280.851,230.537 281.181,230.582 281.511,230.628 281.841,230.674 282.171,230.721 282.502,230.767 282.832,230.814 283.162,230.861 283.492,230.908 283.822,230.956 284.153,231.004 284.483,231.051 284.813,231.100 285.143,231.148 285.473,231.196 285.804,231.245 286.134,231.294 286.464,231.343 286.794,231.393 287.124,231.442 287.455,231.492 287.785,231.542 288.115,231.592 288.445,231.643 288.775,231.693 289.105,231.744 289.436,231.795 289.766,231.847 290.096,231.898 290.426,231.950 290.756,232.002 291.087,232.054 291.417,232.106 291.747,232.159 292.077,232.211 292.407,232.264 292.738,232.318 293.068,232.371 293.398,232.424 293.728,232.478 294.058,232.532 294.388,232.586 294.719,232.641 295.049,232.695 295.379,232.750 295.709,232.805 296.039,232.860 296.370,232.915 296.700,232.971 297.030,233.026 297.360,233.082 297.690,233.138 298.021,233.195 298.351,233.251 298.681,233.308 299.011,233.365 299.341,233.422 299.672,233.479 300.002,233.537 300.332,233.594 300.662,233.652 300.992,233.710 301.322,233.768 301.653,233.827 301.983,233.885 302.313,233.944 302.643,234.003 302.973,234.062 303.304,234.122 303.634,234.181 303.964,234.241 304.294,234.301 304.624,234.361 304.955,234.421 305.285,234.482 305.615,234.542 305.945,234.603 306.275,234.664 306.606,234.725 306.936,234.787 307.266,234.848 307.596,234.910 307.926,234.972 308.256,235.034 308.587,235.096 308.917,235.158 309.247,235.221 309.577,235.284 309.907,235.347 310.238,235.410 310.568,235.473 310.898,235.537 311.228,235.600 311.558,235.664 311.889,235.728 312.219,235.792 312.549,235.856 312.879,235.921 313.209,235.985 313.539,236.050 313.870,236.115 314.200,236.180 314.530,236.246 314.860,236.311 315.190,236.377 315.521,236.442 315.851,236.508 316.181,236.574 316.511,236.641 316.841,236.707 317.172,236.774 317.502,236.840 317.832,236.907 318.162,236.974 318.492,237.042 318.823,237.109 319.153,237.177 319.483,237.244 319.813,237.312 320.143,237.380 320.473,237.448 320.804,237.516 321.134,237.585 321.464,237.653 321.794,237.722 322.124,237.791 322.455,237.860 322.785,237.929 323.115,237.999 323.445,238.068 323.775,238.138 324.106,238.208 324.436,238.277 324.766,238.348 325.096,238.418 325.426,238.488 325.757,238.559 326.087,238.629 326.417,238.700 326.747,238.771 327.077,238.842 327.407,238.913 327.738,238.984 328.068,239.056 328.398,239.128 328.728,239.199 329.058,239.271 329.389,239.343 329.719,239.415 330.049,239.488 330.379,239.560 330.709,239.632 331.040,239.705 331.370,239.778 331.700,239.851 332.030,239.924 332.360,239.997 332.690,240.070 333.021,240.144 333.351,240.217 333.681,240.291 334.011,240.365 334.341,240.439 334.672,240.513 335.002,240.587 335.332,240.661 335.662,240.736 335.992,240.810 336.323,240.885 336.653,240.960 336.983,241.034 337.313,241.109 337.643,241.185 337.974,241.260 338.304,241.335 338.634,241.411 338.964,241.486 339.294,241.562 339.624,241.638 339.955,241.714 340.285,241.790 340.615,241.866 340.945,241.942 341.275,242.018 341.606,242.095 341.936,242.171 342.266,242.248 342.596,242.325 342.926,242.402 343.257,242.479 343.587,242.556 343.917,242.633 344.247,242.710 344.577,242.787 344.907,242.865 345.238,242.942 345.568,243.020 345.898,243.098 346.228,243.176 346.558,243.254 346.889,243.332 347.219,243.410 347.549,243.488 347.879,243.566 348.209,243.645 348.540,243.723 348.870,243.802 349.200,243.881 349.530,243.959 349.860,244.038 350.191,244.117 350.521,244.196 350.851,244.275 351.181,244.355 351.511,244.434 351.841,244.513 352.172,244.593 352.502,244.672 352.832,244.752 353.162,244.832 353.492,244.911 353.823,244.991 354.153,245.071 354.483,245.151 354.813,245.231 355.143,245.311 355.474,245.392 355.804,245.472 356.134,245.552 356.464,245.633 356.794,245.713 357.125,245.794 357.455,245.875 357.785,245.955 358.115,246.036 358.445,246.117 358.775,246.198 359.106,246.279 359.436,246.360 359.766,246.441 360.096,246.522 360.426,246.604 360.757,246.685 361.087,246.766 361.417,246.848 361.747,246.929 362.077,247.011 362.408,247.092 362.738,247.174 363.068,247.256 363.398,247.338 363.728,247.419 364.058,247.501 364.389,247.583 364.719,247.665 365.049,247.747 365.379,247.829 365.709,247.911 366.040,247.994 366.370,248.076 366.700,248.158 367.030,248.241 367.360,248.323 367.691,248.405 368.021,248.488 368.351,248.570 368.681,248.653 369.011,248.735 369.342,248.818 369.672,248.901 370.002,248.983 370.332,249.066 370.662,249.149 370.992,249.232 371.323,249.315 371.653,249.398 371.983,249.480 372.313,249.563 372.643,249.646 372.974,249.729 373.304,249.812 373.634,249.896 373.964,249.979 374.294,250.062 374.625,250.145 374.955,250.228 375.285,250.311 375.615,250.395 375.945,250.478 376.276,250.561 376.606,250.644 376.936,250.728 377.266,250.811 377.596,250.894 377.926,250.978 378.257,251.061 378.587,251.145 378.917,251.228 379.247,251.312 379.577,251.395 379.908,251.479 380.238,251.562 380.568,251.646 380.898,251.729 381.228,251.813 381.559,251.896 381.889,251.980 382.219,252.063 382.549,252.147 382.879,252.230 383.209,252.314 383.540,252.398 383.870,252.481 384.200,252.565 384.530,252.648 384.860,252.732 385.191,252.816 " />
    <g
       id="g29"
       style="stroke:#000000" />
  </g>
  <g
     id="ID000004"
     transform="translate(5.5229209,0.64152835)"
     style="fill:#000000">
    <g
       id="g32"
       transform="translate(22.063,137.997)"
       style="fill:#000000">
      <g
         id="g34"
         transform="matrix(0,-1,1,0,0,0)"
         style="fill:#000000">
        <text
           style="font-size:13.75000000000000000px;text-anchor:middle;fill:#000000;font-family:Times New Roman"
           id="text36"
           font-size="11pt"
           y="0"
           x="0">Flux ($\varphi$) [ ]</text>
      </g>
    </g>
  </g>
  <g
     id="ID000005"
     transform="translate(5.5229209,0.64152835)" />
  <g
     id="ID000006"
     transform="translate(5.5229209,0.64152835)" />
  <polyline
     style="fill:none;stroke:#000000;stroke-width:0.5pt;stroke-dasharray:none"
     id="polyline42"
     points="220.261,252.816 220.261,249.517 "
     transform="translate(5.5229209,0.64152835)" />
  <polyline
     style="fill:none;stroke:#000000;stroke-width:0.5pt;stroke-dasharray:none"
     id="polyline44"
     points="55.331,252.816 385.191,252.816 "
     transform="translate(5.5229209,0.64152835)" />
  <polyline
     style="fill:none;stroke:#000000;stroke-width:0.5pt;stroke-dasharray:none"
     id="polyline46"
     points="220.261,21.305 220.261,24.603 "
     transform="translate(5.5229209,0.64152835)" />
  <polyline
     style="fill:none;stroke:#000000;stroke-width:0.5pt;stroke-dasharray:none"
     id="polyline48"
     points="55.331,21.305 385.191,21.305 "
     transform="translate(5.5229209,0.64152835)" />
  <g
     id="g50"
     transform="translate(60.853921,271.36253)">
    <g
       id="g52">
      <text
         style="font-size:13.75px;text-anchor:middle;fill:#000000;font-family:Times New Roman"
         id="text54"
         font-size="11pt"
         y="0"
         x="0">-50</text>
    </g>
  </g>
  <g
     id="g56"
     transform="translate(225.78392,271.36253)">
    <g
       id="g58">
      <text
         style="font-size:13.75px;text-anchor:middle;fill:#000000;font-family:Times New Roman"
         id="text60"
         font-size="11pt"
         y="0"
         x="0">0</text>
    </g>
  </g>
  <g
     id="g62"
     transform="translate(390.71392,271.36253)">
    <g
       id="g64">
      <text
         style="font-size:13.75px;text-anchor:middle;fill:#000000;font-family:Times New Roman"
         id="text66"
         font-size="11pt"
         y="0"
         x="0">50</text>
    </g>
  </g>
  <polyline
     style="fill:none;stroke:#000000;stroke-width:0.50000000000000000pt;stroke-dasharray:none"
     id="polyline68"
     points="55.331,175.645 58.630,175.645 "
     transform="translate(5.5229209,0.64152835)" />
  <polyline
     style="fill:none;stroke:#000000;stroke-width:0.50000000000000000pt;stroke-dasharray:none"
     id="polyline70"
     points="55.331,98.475 58.630,98.475 "
     transform="translate(5.5229209,0.64152835)" />
  <polyline
     style="fill:none;stroke:#000000;stroke-width:0.50000000000000000pt;stroke-dasharray:none"
     id="polyline72"
     points="55.331,252.816 55.331,21.305 "
     transform="translate(5.5229209,0.64152835)" />
  <polyline
     style="fill:none;stroke:#000000;stroke-width:0.50000000000000000pt;stroke-dasharray:none"
     id="polyline78"
     points="385.191,252.816 385.191,21.305 "
     transform="translate(5.5229209,0.64152835)" />
  <g
     id="g80"
     transform="translate(54.256921,258.51953)"
     style="fill:#000000">
    <g
       id="g82"
       style="fill:#000000">
      <text
         style="font-size:13.75000000000000000px;text-anchor:end;fill:#000000;font-family:Times New Roman"
         id="text84"
         font-size="11pt"
         y="0"
         x="0">0</text>
    </g>
  </g>
  <g
     id="g86"
     transform="translate(54.256921,181.34953)"
     style="fill:#000000">
    <g
       id="g88"
       style="fill:#000000">
      <text
         style="font-size:13.75000000000000000px;text-anchor:end;fill:#000000;font-family:Times New Roman"
         id="text90"
         font-size="11pt"
         y="0"
         x="0">0.2</text>
    </g>
  </g>
  <g
     id="g92"
     transform="translate(54.256921,104.17853)"
     style="fill:#000000">
    <g
       id="g94"
       style="fill:#000000">
      <text
         style="font-size:13.75000000000000000px;text-anchor:end;fill:#000000;font-family:Times New Roman"
         id="text96"
         font-size="11pt"
         y="0"
         x="0">0.4</text>
    </g>
  </g>
  <g
     id="g98"
     transform="translate(54.256921,27.008528)"
     style="fill:#000000">
    <g
       id="g100"
       style="fill:#000000">
      <text
         style="font-size:13.75000000000000000px;text-anchor:end;fill:#000000;font-family:Times New Roman"
         id="text102"
         font-size="11pt"
         y="0"
         x="0">0.6</text>
    </g>
  </g>
  <polyline
     style="fill:none;stroke:#000000;stroke-width:0.50000000000000000pt;stroke-dasharray:none"
     id="polyline104"
     points="55.331,252.816 55.331,250.501 "
     transform="translate(5.5229209,0.64152835)" />
  <polyline
     style="fill:none;stroke:#000000;stroke-width:0.50000000000000000pt;stroke-dasharray:none"
     id="polyline106"
     points="55.331,252.816 55.331,252.816 "
     transform="translate(5.5229209,0.64152835)" />
  <polygon
     points="385.191,252.816 385.191,21.305 55.331,21.305 55.331,252.816 "
     id="polygon112"
     style="fill:#000000;fill-opacity:0;stroke:none"
     transform="translate(5.5229209,0.64152835)" />
  <polygon
     points="385.191,21.305 385.191,21.305 55.331,21.305 55.331,21.305 "
     id="polygon114"
     style="fill:#000000;fill-opacity:0;stroke:none"
     transform="translate(5.5229209,0.64152835)" />
  <g
     clip-path="url(#ID000008)"
     id="ID000009"
     transform="translate(5.5229209,0.64152835)"
     style="stroke:#e3ae24;stroke-opacity:1">
    <polyline
       style="fill:none;stroke:#e3ae24;stroke-width:0.50000000000000000pt;stroke-dasharray:none;stroke-opacity:1"
       id="polyline121"
       points="55.331,252.815 55.661,252.121 55.992,251.427 56.322,250.733 56.652,250.039 56.982,249.345 57.312,248.651 57.643,247.958 57.973,247.264 58.303,246.570 58.633,245.876 58.963,245.183 59.294,244.489 59.624,243.796 59.954,243.102 60.284,242.409 60.614,241.716 60.944,241.023 61.275,240.330 61.605,239.637 61.935,238.944 62.265,238.252 62.595,237.559 62.926,236.867 63.256,236.175 63.586,235.483 63.916,234.791 64.246,234.099 64.577,233.408 64.907,232.717 65.237,232.026 65.567,231.335 65.897,230.644 66.228,229.954 66.558,229.264 66.888,228.574 67.218,227.884 67.548,227.195 67.878,226.505 68.209,225.816 68.539,225.128 68.869,224.439 69.199,223.751 69.529,223.063 69.860,222.376 70.190,221.689 70.520,221.002 70.850,220.315 71.180,219.629 71.511,218.943 71.841,218.257 72.171,217.572 72.501,216.887 72.831,216.202 73.161,215.518 73.492,214.834 73.822,214.151 74.152,213.468 74.482,212.785 74.812,212.103 75.143,211.421 75.473,210.739 75.803,210.058 76.133,209.378 76.463,208.697 76.794,208.018 77.124,207.338 77.454,206.659 77.784,205.981 78.114,205.303 78.445,204.625 78.775,203.948 79.105,203.272 79.435,202.596 79.765,201.920 80.095,201.245 80.426,200.571 80.756,199.897 81.086,199.223 81.416,198.550 81.746,197.878 82.077,197.206 82.407,196.534 82.737,195.864 83.067,195.193 83.397,194.524 83.728,193.855 84.058,193.186 84.388,192.518 84.718,191.851 85.048,191.184 85.379,190.518 85.709,189.853 86.039,189.188 86.369,188.524 86.699,187.860 87.029,187.197 87.360,186.535 87.690,185.873 88.020,185.212 88.350,184.552 88.680,183.892 89.011,183.233 89.341,182.575 89.671,181.917 90.001,181.260 90.331,180.604 90.662,179.949 90.992,179.294 91.322,178.640 91.652,177.987 91.982,177.334 92.312,176.682 92.643,176.031 92.973,175.381 93.303,174.732 93.633,174.083 93.963,173.435 94.294,172.788 94.624,172.141 94.954,171.496 95.284,170.851 95.614,170.207 95.945,169.564 96.275,168.922 96.605,168.280 96.935,167.639 97.265,167.000 97.596,166.361 97.926,165.722 98.256,165.085 98.586,164.449 98.916,163.813 99.246,163.179 99.577,162.545 99.907,161.912 100.237,161.280 100.567,160.649 100.897,160.019 101.228,159.390 101.558,158.761 101.888,158.134 102.218,157.508 102.548,156.882 102.879,156.258 103.209,155.634 103.539,155.011 103.869,154.390 104.199,153.769 104.529,153.149 104.860,152.531 105.190,151.913 105.520,151.296 105.850,150.680 106.180,150.066 106.511,149.452 106.841,148.839 107.171,148.228 107.501,147.617 107.831,147.007 108.162,146.399 108.492,145.791 108.822,145.185 109.152,144.580 109.482,143.975 109.813,143.372 110.143,142.770 110.473,142.169 110.803,141.569 111.133,140.970 111.463,140.372 111.794,139.776 112.124,139.180 112.454,138.586 112.784,137.993 113.114,137.401 113.445,136.810 113.775,136.220 114.105,135.631 114.435,135.044 114.765,134.457 115.096,133.872 115.426,133.288 115.756,132.705 116.086,132.124 116.416,131.543 116.747,130.964 117.077,130.386 117.407,129.809 117.737,129.233 118.067,128.659 118.397,128.086 118.728,127.514 119.058,126.943 119.388,126.374 119.718,125.806 120.048,125.239 120.379,124.673 120.709,124.109 121.039,123.545 121.369,122.984 121.699,122.423 122.030,121.864 122.360,121.306 122.690,120.749 123.020,120.194 123.350,119.640 123.680,119.087 124.011,118.535 124.341,117.985 124.671,117.437 125.001,116.889 125.331,116.343 125.662,115.798 125.992,115.255 126.322,114.713 126.652,114.172 126.982,113.633 127.313,113.095 127.643,112.559 127.973,112.023 128.303,111.490 128.633,110.957 128.964,110.426 129.294,109.897 129.624,109.369 129.954,108.842 130.284,108.317 130.614,107.793 130.945,107.270 131.275,106.749 131.605,106.230 131.935,105.712 132.265,105.195 132.596,104.680 132.926,104.166 133.256,103.654 133.586,103.143 133.916,102.634 134.247,102.126 134.577,101.620 134.907,101.115 135.237,100.612 135.567,100.110 135.898,99.610 136.228,99.111 136.558,98.614 136.888,98.118 137.218,97.624 137.548,97.131 137.879,96.640 138.209,96.150 138.539,95.662 138.869,95.176 139.199,94.691 139.530,94.208 139.860,93.726 140.190,93.246 140.520,92.767 140.850,92.290 141.181,91.814 141.511,91.340 141.841,90.868 142.171,90.398 142.501,89.928 142.831,89.461 143.162,88.995 143.492,88.531 143.822,88.068 144.152,87.607 144.482,87.148 144.813,86.690 145.143,86.234 145.473,85.780 145.803,85.327 146.133,84.876 146.464,84.427 146.794,83.979 147.124,83.533 147.454,83.088 147.784,82.645 148.115,82.204 148.445,81.765 148.775,81.327 149.105,80.891 149.435,80.457 149.765,80.024 150.096,79.594 150.426,79.164 150.756,78.737 151.086,78.311 151.416,77.887 151.747,77.465 152.077,77.044 152.407,76.626 152.737,76.209 153.067,75.793 153.398,75.380 153.728,74.968 154.058,74.558 154.388,74.149 154.718,73.743 155.048,73.338 155.379,72.935 155.709,72.534 156.039,72.135 156.369,71.737 156.699,71.341 157.030,70.947 157.360,70.555 157.690,70.164 158.020,69.776 158.350,69.389 158.681,69.004 159.011,68.621 159.341,68.239 159.671,67.860 160.001,67.482 160.332,67.106 160.662,66.732 160.992,66.360 161.322,65.990 161.652,65.621 161.982,65.255 162.313,64.890 162.643,64.527 162.973,64.166 163.303,63.806 163.633,63.449 163.964,63.094 164.294,62.740 164.624,62.388 164.954,62.038 165.284,61.691 165.615,61.344 165.945,61.000 166.275,60.658 166.605,60.318 166.935,59.979 167.266,59.643 167.596,59.308 167.926,58.975 168.256,58.644 168.586,58.315 168.916,57.989 169.247,57.663 169.577,57.340 169.907,57.019 170.237,56.700 170.567,56.383 170.898,56.067 171.228,55.754 171.558,55.442 171.888,55.133 172.218,54.825 172.549,54.520 172.879,54.216 173.209,53.914 173.539,53.615 173.869,53.317 174.199,53.021 174.530,52.727 174.860,52.435 175.190,52.146 175.520,51.858 175.850,51.572 176.181,51.288 176.511,51.006 176.841,50.726 177.171,50.448 177.501,50.172 177.832,49.899 178.162,49.627 178.492,49.357 178.822,49.089 179.152,48.823 179.483,48.559 179.813,48.297 180.143,48.038 180.473,47.780 180.803,47.524 181.133,47.271 181.464,47.019 181.794,46.769 182.124,46.522 182.454,46.276 182.784,46.033 183.115,45.791 183.445,45.552 183.775,45.314 184.105,45.079 184.435,44.846 184.766,44.615 185.096,44.385 185.426,44.158 185.756,43.933 186.086,43.710 186.417,43.489 186.747,43.271 187.077,43.054 187.407,42.839 187.737,42.627 188.067,42.416 188.398,42.208 188.728,42.001 189.058,41.797 189.388,41.595 189.718,41.395 190.049,41.197 190.379,41.001 190.709,40.807 191.039,40.615 191.369,40.426 191.700,40.238 192.030,40.053 192.360,39.869 192.690,39.688 193.020,39.509 193.350,39.332 193.681,39.157 194.011,38.985 194.341,38.814 194.671,38.645 195.001,38.479 195.332,38.315 195.662,38.152 195.992,37.992 196.322,37.834 196.652,37.679 196.983,37.525 197.313,37.373 197.643,37.224 197.973,37.077 198.303,36.932 198.634,36.789 198.964,36.648 199.294,36.509 199.624,36.372 199.954,36.238 200.284,36.106 200.615,35.975 200.945,35.847 201.275,35.722 201.605,35.598 201.935,35.476 202.266,35.357 202.596,35.239 202.926,35.124 203.256,35.011 203.586,34.901 203.917,34.792 204.247,34.685 204.577,34.581 204.907,34.479 205.237,34.379 205.568,34.281 205.898,34.185 206.228,34.092 206.558,34.000 206.888,33.911 207.218,33.824 207.549,33.739 207.879,33.656 208.209,33.576 208.539,33.497 208.869,33.421 209.200,33.347 209.530,33.275 209.860,33.205 210.190,33.138 210.520,33.072 210.851,33.009 211.181,32.948 211.511,32.889 211.841,32.833 212.171,32.778 212.501,32.726 212.832,32.676 213.162,32.628 213.492,32.582 213.822,32.538 214.152,32.497 214.483,32.458 214.813,32.420 215.143,32.386 215.473,32.353 215.803,32.322 216.134,32.294 216.464,32.268 216.794,32.244 217.124,32.222 217.454,32.202 217.785,32.185 218.115,32.170 218.445,32.156 218.775,32.145 219.105,32.137 219.435,32.130 219.766,32.126 220.096,32.124 220.426,32.124 220.756,32.126 221.086,32.130 221.417,32.137 221.747,32.145 222.077,32.156 222.407,32.170 222.737,32.185 223.068,32.202 223.398,32.222 223.728,32.244 224.058,32.268 224.388,32.294 224.718,32.322 225.049,32.353 225.379,32.386 225.709,32.420 226.039,32.458 226.369,32.497 226.700,32.538 227.030,32.582 227.360,32.628 227.690,32.676 228.020,32.726 228.351,32.778 228.681,32.833 229.011,32.889 229.341,32.948 229.671,33.009 230.002,33.072 230.332,33.138 230.662,33.205 230.992,33.275 231.322,33.347 231.652,33.421 231.983,33.497 232.313,33.576 232.643,33.656 232.973,33.739 233.303,33.824 233.634,33.911 233.964,34.000 234.294,34.092 234.624,34.185 234.954,34.281 235.285,34.379 235.615,34.479 235.945,34.581 236.275,34.685 236.605,34.792 236.936,34.901 237.266,35.011 237.596,35.124 237.926,35.239 238.256,35.357 238.586,35.476 238.917,35.598 239.247,35.722 239.577,35.847 239.907,35.975 240.237,36.106 240.568,36.238 240.898,36.372 241.228,36.509 241.558,36.648 241.888,36.789 242.219,36.932 242.549,37.077 242.879,37.224 243.209,37.373 243.539,37.525 243.869,37.679 244.200,37.834 244.530,37.992 244.860,38.152 245.190,38.315 245.520,38.479 245.851,38.645 246.181,38.814 246.511,38.985 246.841,39.157 247.171,39.332 247.502,39.509 247.832,39.688 248.162,39.869 248.492,40.053 248.822,40.238 249.153,40.426 249.483,40.615 249.813,40.807 250.143,41.001 250.473,41.197 250.803,41.395 251.134,41.595 251.464,41.797 251.794,42.001 252.124,42.208 252.454,42.416 252.785,42.627 253.115,42.839 253.445,43.054 253.775,43.271 254.105,43.489 254.436,43.710 254.766,43.933 255.096,44.158 255.426,44.385 255.756,44.615 256.087,44.846 256.417,45.079 256.747,45.314 257.077,45.552 257.407,45.791 257.737,46.033 258.068,46.276 258.398,46.522 258.728,46.769 259.058,47.019 259.388,47.271 259.719,47.524 260.049,47.780 260.379,48.038 260.709,48.297 261.039,48.559 261.370,48.823 261.700,49.089 262.030,49.357 262.360,49.627 262.690,49.899 263.020,50.172 263.351,50.448 263.681,50.726 264.011,51.006 264.341,51.288 264.671,51.572 265.002,51.858 265.332,52.146 265.662,52.435 265.992,52.727 266.322,53.021 266.653,53.317 266.983,53.615 267.313,53.914 267.643,54.216 267.973,54.520 268.304,54.825 268.634,55.133 268.964,55.442 269.294,55.754 269.624,56.067 269.954,56.383 270.285,56.700 270.615,57.019 270.945,57.340 271.275,57.663 271.605,57.989 271.936,58.315 272.266,58.644 272.596,58.975 272.926,59.308 273.256,59.643 273.587,59.979 273.917,60.318 274.247,60.658 274.577,61.000 274.907,61.344 275.238,61.691 275.568,62.038 275.898,62.388 276.228,62.740 276.558,63.094 276.888,63.449 277.219,63.806 277.549,64.166 277.879,64.527 278.209,64.890 278.539,65.255 278.870,65.621 279.200,65.990 279.530,66.360 279.860,66.732 280.190,67.106 280.521,67.482 280.851,67.860 281.181,68.239 281.511,68.621 281.841,69.004 282.171,69.389 282.502,69.776 282.832,70.164 283.162,70.555 283.492,70.947 283.822,71.341 284.153,71.737 284.483,72.135 284.813,72.534 285.143,72.935 285.473,73.338 285.804,73.743 286.134,74.149 286.464,74.558 286.794,74.968 287.124,75.380 287.455,75.793 287.785,76.209 288.115,76.626 288.445,77.044 288.775,77.465 289.105,77.887 289.436,78.311 289.766,78.737 290.096,79.164 290.426,79.594 290.756,80.024 291.087,80.457 291.417,80.891 291.747,81.327 292.077,81.765 292.407,82.204 292.738,82.645 293.068,83.088 293.398,83.533 293.728,83.979 294.058,84.427 294.388,84.876 294.719,85.327 295.049,85.780 295.379,86.234 295.709,86.690 296.039,87.148 296.370,87.607 296.700,88.068 297.030,88.531 297.360,88.995 297.690,89.461 298.021,89.928 298.351,90.398 298.681,90.868 299.011,91.340 299.341,91.814 299.672,92.290 300.002,92.767 300.332,93.246 300.662,93.726 300.992,94.208 301.322,94.691 301.653,95.176 301.983,95.662 302.313,96.150 302.643,96.640 302.973,97.131 303.304,97.624 303.634,98.118 303.964,98.614 304.294,99.111 304.624,99.610 304.955,100.110 305.285,100.612 305.615,101.115 305.945,101.620 306.275,102.126 306.606,102.634 306.936,103.143 307.266,103.654 307.596,104.166 307.926,104.680 308.256,105.195 308.587,105.712 308.917,106.230 309.247,106.749 309.577,107.270 309.907,107.793 310.238,108.317 310.568,108.842 310.898,109.369 311.228,109.897 311.558,110.426 311.889,110.957 312.219,111.490 312.549,112.023 312.879,112.559 313.209,113.095 313.539,113.633 313.870,114.172 314.200,114.713 314.530,115.255 314.860,115.798 315.190,116.343 315.521,116.889 315.851,117.437 316.181,117.985 316.511,118.535 316.841,119.087 317.172,119.640 317.502,120.194 317.832,120.749 318.162,121.306 318.492,121.864 318.823,122.423 319.153,122.984 319.483,123.545 319.813,124.109 320.143,124.673 320.473,125.239 320.804,125.806 321.134,126.374 321.464,126.943 321.794,127.514 322.124,128.086 322.455,128.659 322.785,129.233 323.115,129.809 323.445,130.386 323.775,130.964 324.106,131.543 324.436,132.124 324.766,132.705 325.096,133.288 325.426,133.872 325.757,134.457 326.087,135.044 326.417,135.631 326.747,136.220 327.077,136.810 327.407,137.401 327.738,137.993 328.068,138.586 328.398,139.180 328.728,139.776 329.058,140.372 329.389,140.970 329.719,141.569 330.049,142.169 330.379,142.770 330.709,143.372 331.040,143.975 331.370,144.580 331.700,145.185 332.030,145.791 332.360,146.399 332.690,147.007 333.021,147.617 333.351,148.228 333.681,148.839 334.011,149.452 334.341,150.066 334.672,150.680 335.002,151.296 335.332,151.913 335.662,152.531 335.992,153.149 336.323,153.769 336.653,154.390 336.983,155.011 337.313,155.634 337.643,156.258 337.974,156.882 338.304,157.508 338.634,158.134 338.964,158.761 339.294,159.390 339.624,160.019 339.955,160.649 340.285,161.280 340.615,161.912 340.945,162.545 341.275,163.179 341.606,163.813 341.936,164.449 342.266,165.085 342.596,165.722 342.926,166.361 343.257,167.000 343.587,167.639 343.917,168.280 344.247,168.922 344.577,169.564 344.907,170.207 345.238,170.851 345.568,171.496 345.898,172.141 346.228,172.788 346.558,173.435 346.889,174.083 347.219,174.732 347.549,175.381 347.879,176.031 348.209,176.682 348.540,177.334 348.870,177.987 349.200,178.640 349.530,179.294 349.860,179.949 350.191,180.604 350.521,181.260 350.851,181.917 351.181,182.575 351.511,183.233 351.841,183.892 352.172,184.552 352.502,185.212 352.832,185.873 353.162,186.535 353.492,187.197 353.823,187.860 354.153,188.524 354.483,189.188 354.813,189.853 355.143,190.518 355.474,191.184 355.804,191.851 356.134,192.518 356.464,193.186 356.794,193.855 357.125,194.524 357.455,195.193 357.785,195.864 358.115,196.534 358.445,197.206 358.775,197.878 359.106,198.550 359.436,199.223 359.766,199.897 360.096,200.571 360.426,201.245 360.757,201.920 361.087,202.596 361.417,203.272 361.747,203.948 362.077,204.625 362.408,205.303 362.738,205.981 363.068,206.659 363.398,207.338 363.728,208.018 364.058,208.697 364.389,209.378 364.719,210.058 365.049,210.739 365.379,211.421 365.709,212.103 366.040,212.785 366.370,213.468 366.700,214.151 367.030,214.834 367.360,215.518 367.691,216.202 368.021,216.887 368.351,217.572 368.681,218.257 369.011,218.943 369.342,219.629 369.672,220.315 370.002,221.002 370.332,221.689 370.662,222.376 370.992,223.063 371.323,223.751 371.653,224.439 371.983,225.128 372.313,225.816 372.643,226.505 372.974,227.195 373.304,227.884 373.634,228.574 373.964,229.264 374.294,229.954 374.625,230.644 374.955,231.335 375.285,232.026 375.615,232.717 375.945,233.408 376.276,234.099 376.606,234.791 376.936,235.483 377.266,236.175 377.596,236.867 377.926,237.559 378.257,238.252 378.587,238.944 378.917,239.637 379.247,240.330 379.577,241.023 379.908,241.716 380.238,242.409 380.568,243.102 380.898,243.796 381.228,244.489 381.559,245.183 381.889,245.876 382.219,246.570 382.549,247.264 382.879,247.958 383.209,248.651 383.540,249.345 383.870,250.039 384.200,250.733 384.530,251.427 384.860,252.121 385.191,252.815 " />
    <g
       id="g123"
       style="stroke:#e3ae24;stroke-opacity:1" />
  </g>
  <g
     clip-path="url(#ID000008)"
     id="ID000010"
     transform="translate(5.5229209,0.64152835)"
     style="stroke:#e3ae24;stroke-opacity:1">
    <polyline
       style="fill:none;stroke:#e3ae24;stroke-width:0.50000000000000000pt;stroke-dasharray:8, 2;stroke-opacity:1"
       id="polyline126"
       points="55.331,252.815 55.661,252.470 55.992,252.124 56.322,251.779 56.652,251.433 56.982,251.087 57.312,250.742 57.643,250.396 57.973,250.051 58.303,249.705 58.633,249.360 58.963,249.014 59.294,248.669 59.624,248.324 59.954,247.978 60.284,247.633 60.614,247.288 60.944,246.943 61.275,246.598 61.605,246.253 61.935,245.908 62.265,245.563 62.595,245.218 62.926,244.873 63.256,244.528 63.586,244.184 63.916,243.839 64.246,243.495 64.577,243.151 64.907,242.806 65.237,242.462 65.567,242.118 65.897,241.774 66.228,241.430 66.558,241.087 66.888,240.743 67.218,240.400 67.548,240.056 67.878,239.713 68.209,239.370 68.539,239.027 68.869,238.684 69.199,238.342 69.529,237.999 69.860,237.657 70.190,237.314 70.520,236.972 70.850,236.630 71.180,236.289 71.511,235.947 71.841,235.606 72.171,235.264 72.501,234.923 72.831,234.582 73.161,234.242 73.492,233.901 73.822,233.561 74.152,233.220 74.482,232.880 74.812,232.541 75.143,232.201 75.473,231.862 75.803,231.523 76.133,231.184 76.463,230.845 76.794,230.506 77.124,230.168 77.454,229.830 77.784,229.492 78.114,229.154 78.445,228.817 78.775,228.480 79.105,228.143 79.435,227.806 79.765,227.470 80.095,227.134 80.426,226.798 80.756,226.462 81.086,226.127 81.416,225.792 81.746,225.457 82.077,225.122 82.407,224.788 82.737,224.454 83.067,224.120 83.397,223.786 83.728,223.453 84.058,223.120 84.388,222.788 84.718,222.455 85.048,222.123 85.379,221.792 85.709,221.460 86.039,221.129 86.369,220.798 86.699,220.468 87.029,220.138 87.360,219.808 87.690,219.478 88.020,219.149 88.350,218.820 88.680,218.492 89.011,218.164 89.341,217.836 89.671,217.508 90.001,217.181 90.331,216.854 90.662,216.528 90.992,216.202 91.322,215.876 91.652,215.551 91.982,215.226 92.312,214.901 92.643,214.577 92.973,214.253 93.303,213.930 93.633,213.607 93.963,213.284 94.294,212.962 94.624,212.640 94.954,212.318 95.284,211.997 95.614,211.677 95.945,211.356 96.275,211.037 96.605,210.717 96.935,210.398 97.265,210.079 97.596,209.761 97.926,209.443 98.256,209.126 98.586,208.809 98.916,208.493 99.246,208.177 99.577,207.861 99.907,207.546 100.237,207.231 100.567,206.917 100.897,206.603 101.228,206.290 101.558,205.977 101.888,205.664 102.218,205.352 102.548,205.041 102.879,204.730 103.209,204.419 103.539,204.109 103.869,203.800 104.199,203.491 104.529,203.182 104.860,202.874 105.190,202.566 105.520,202.259 105.850,201.952 106.180,201.646 106.511,201.341 106.841,201.036 107.171,200.731 107.501,200.427 107.831,200.123 108.162,199.820 108.492,199.518 108.822,199.216 109.152,198.914 109.482,198.613 109.813,198.313 110.143,198.013 110.473,197.714 110.803,197.415 111.133,197.117 111.463,196.819 111.794,196.522 112.124,196.225 112.454,195.929 112.784,195.634 113.114,195.339 113.445,195.045 113.775,194.751 114.105,194.458 114.435,194.165 114.765,193.873 115.096,193.582 115.426,193.291 115.756,193.001 116.086,192.711 116.416,192.422 116.747,192.134 117.077,191.846 117.407,191.559 117.737,191.272 118.067,190.986 118.397,190.700 118.728,190.416 119.058,190.131 119.388,189.848 119.718,189.565 120.048,189.283 120.379,189.001 120.709,188.720 121.039,188.439 121.369,188.159 121.699,187.880 122.030,187.602 122.360,187.324 122.690,187.047 123.020,186.770 123.350,186.494 123.680,186.219 124.011,185.944 124.341,185.670 124.671,185.397 125.001,185.124 125.331,184.853 125.662,184.581 125.992,184.311 126.322,184.041 126.652,183.771 126.982,183.503 127.313,183.235 127.643,182.968 127.973,182.701 128.303,182.436 128.633,182.170 128.964,181.906 129.294,181.642 129.624,181.379 129.954,181.117 130.284,180.855 130.614,180.595 130.945,180.334 131.275,180.075 131.605,179.816 131.935,179.558 132.265,179.301 132.596,179.044 132.926,178.789 133.256,178.533 133.586,178.279 133.916,178.025 134.247,177.773 134.577,177.520 134.907,177.269 135.237,177.018 135.567,176.768 135.898,176.519 136.228,176.271 136.558,176.023 136.888,175.776 137.218,175.530 137.548,175.285 137.879,175.040 138.209,174.797 138.539,174.554 138.869,174.311 139.199,174.070 139.530,173.829 139.860,173.589 140.190,173.350 140.520,173.112 140.850,172.874 141.181,172.637 141.511,172.401 141.841,172.166 142.171,171.932 142.501,171.698 142.831,171.465 143.162,171.233 143.492,171.002 143.822,170.772 144.152,170.542 144.482,170.313 144.813,170.086 145.143,169.858 145.473,169.632 145.803,169.407 146.133,169.182 146.464,168.958 146.794,168.735 147.124,168.513 147.454,168.292 147.784,168.071 148.115,167.852 148.445,167.633 148.775,167.415 149.105,167.198 149.435,166.981 149.765,166.766 150.096,166.551 150.426,166.338 150.756,166.125 151.086,165.913 151.416,165.702 151.747,165.491 152.077,165.282 152.407,165.073 152.737,164.866 153.067,164.659 153.398,164.453 153.728,164.248 154.058,164.044 154.388,163.840 154.718,163.638 155.048,163.436 155.379,163.236 155.709,163.036 156.039,162.837 156.369,162.639 156.699,162.442 157.030,162.245 157.360,162.050 157.690,161.856 158.020,161.662 158.350,161.469 158.681,161.278 159.011,161.087 159.341,160.897 159.671,160.708 160.001,160.520 160.332,160.333 160.662,160.146 160.992,159.961 161.322,159.777 161.652,159.593 161.982,159.411 162.313,159.229 162.643,159.048 162.973,158.868 163.303,158.689 163.633,158.511 163.964,158.334 164.294,158.158 164.624,157.983 164.954,157.809 165.284,157.636 165.615,157.463 165.945,157.292 166.275,157.121 166.605,156.952 166.935,156.783 167.266,156.616 167.596,156.449 167.926,156.283 168.256,156.119 168.586,155.955 168.916,155.792 169.247,155.630 169.577,155.469 169.907,155.309 170.237,155.150 170.567,154.992 170.898,154.835 171.228,154.679 171.558,154.524 171.888,154.370 172.218,154.217 172.549,154.065 172.879,153.913 173.209,153.763 173.539,153.614 173.869,153.466 174.199,153.318 174.530,153.172 174.860,153.027 175.190,152.882 175.520,152.739 175.850,152.597 176.181,152.455 176.511,152.315 176.841,152.175 177.171,152.037 177.501,151.900 177.832,151.763 178.162,151.628 178.492,151.493 178.822,151.360 179.152,151.228 179.483,151.096 179.813,150.966 180.143,150.837 180.473,150.708 180.803,150.581 181.133,150.455 181.464,150.329 181.794,150.205 182.124,150.082 182.454,149.959 182.784,149.838 183.115,149.718 183.445,149.599 183.775,149.480 184.105,149.363 184.435,149.247 184.766,149.132 185.096,149.018 185.426,148.905 185.756,148.793 186.086,148.682 186.417,148.572 186.747,148.463 187.077,148.355 187.407,148.248 187.737,148.142 188.067,148.037 188.398,147.933 188.728,147.830 189.058,147.729 189.388,147.628 189.718,147.528 190.049,147.430 190.379,147.332 190.709,147.236 191.039,147.140 191.369,147.046 191.700,146.952 192.030,146.860 192.360,146.769 192.690,146.679 193.020,146.589 193.350,146.501 193.681,146.414 194.011,146.328 194.341,146.243 194.671,146.159 195.001,146.076 195.332,145.995 195.662,145.914 195.992,145.834 196.322,145.755 196.652,145.678 196.983,145.601 197.313,145.526 197.643,145.451 197.973,145.378 198.303,145.306 198.634,145.235 198.964,145.164 199.294,145.095 199.624,145.027 199.954,144.960 200.284,144.894 200.615,144.830 200.945,144.766 201.275,144.703 201.605,144.642 201.935,144.581 202.266,144.521 202.596,144.463 202.926,144.406 203.256,144.349 203.586,144.294 203.917,144.240 204.247,144.187 204.577,144.135 204.907,144.084 205.237,144.034 205.568,143.986 205.898,143.938 206.228,143.891 206.558,143.846 206.888,143.801 207.218,143.758 207.549,143.716 207.879,143.675 208.209,143.634 208.539,143.595 208.869,143.557 209.200,143.521 209.530,143.485 209.860,143.450 210.190,143.416 210.520,143.384 210.851,143.352 211.181,143.322 211.511,143.293 211.841,143.264 212.171,143.237 212.501,143.211 212.832,143.186 213.162,143.162 213.492,143.140 213.822,143.118 214.152,143.097 214.483,143.078 214.813,143.059 215.143,143.042 215.473,143.026 215.803,143.010 216.134,142.996 216.464,142.983 216.794,142.971 217.124,142.960 217.454,142.951 217.785,142.942 218.115,142.934 218.445,142.928 218.775,142.922 219.105,142.918 219.435,142.915 219.766,142.913 220.096,142.911 220.426,142.911 220.756,142.913 221.086,142.915 221.417,142.918 221.747,142.922 222.077,142.928 222.407,142.934 222.737,142.942 223.068,142.951 223.398,142.960 223.728,142.971 224.058,142.983 224.388,142.996 224.718,143.010 225.049,143.026 225.379,143.042 225.709,143.059 226.039,143.078 226.369,143.097 226.700,143.118 227.030,143.140 227.360,143.162 227.690,143.186 228.020,143.211 228.351,143.237 228.681,143.264 229.011,143.293 229.341,143.322 229.671,143.352 230.002,143.384 230.332,143.416 230.662,143.450 230.992,143.485 231.322,143.521 231.652,143.557 231.983,143.595 232.313,143.634 232.643,143.675 232.973,143.716 233.303,143.758 233.634,143.801 233.964,143.846 234.294,143.891 234.624,143.938 234.954,143.986 235.285,144.034 235.615,144.084 235.945,144.135 236.275,144.187 236.605,144.240 236.936,144.294 237.266,144.349 237.596,144.406 237.926,144.463 238.256,144.521 238.586,144.581 238.917,144.642 239.247,144.703 239.577,144.766 239.907,144.830 240.237,144.894 240.568,144.960 240.898,145.027 241.228,145.095 241.558,145.164 241.888,145.235 242.219,145.306 242.549,145.378 242.879,145.451 243.209,145.526 243.539,145.601 243.869,145.678 244.200,145.755 244.530,145.834 244.860,145.914 245.190,145.995 245.520,146.076 245.851,146.159 246.181,146.243 246.511,146.328 246.841,146.414 247.171,146.501 247.502,146.589 247.832,146.679 248.162,146.769 248.492,146.860 248.822,146.952 249.153,147.046 249.483,147.140 249.813,147.236 250.143,147.332 250.473,147.430 250.803,147.528 251.134,147.628 251.464,147.729 251.794,147.830 252.124,147.933 252.454,148.037 252.785,148.142 253.115,148.248 253.445,148.355 253.775,148.463 254.105,148.572 254.436,148.682 254.766,148.793 255.096,148.905 255.426,149.018 255.756,149.132 256.087,149.247 256.417,149.363 256.747,149.480 257.077,149.599 257.407,149.718 257.737,149.838 258.068,149.959 258.398,150.082 258.728,150.205 259.058,150.329 259.388,150.455 259.719,150.581 260.049,150.708 260.379,150.837 260.709,150.966 261.039,151.096 261.370,151.228 261.700,151.360 262.030,151.493 262.360,151.628 262.690,151.763 263.020,151.900 263.351,152.037 263.681,152.175 264.011,152.315 264.341,152.455 264.671,152.597 265.002,152.739 265.332,152.882 265.662,153.027 265.992,153.172 266.322,153.318 266.653,153.466 266.983,153.614 267.313,153.763 267.643,153.913 267.973,154.065 268.304,154.217 268.634,154.370 268.964,154.524 269.294,154.679 269.624,154.835 269.954,154.992 270.285,155.150 270.615,155.309 270.945,155.469 271.275,155.630 271.605,155.792 271.936,155.955 272.266,156.119 272.596,156.283 272.926,156.449 273.256,156.616 273.587,156.783 273.917,156.952 274.247,157.121 274.577,157.292 274.907,157.463 275.238,157.636 275.568,157.809 275.898,157.983 276.228,158.158 276.558,158.334 276.888,158.511 277.219,158.689 277.549,158.868 277.879,159.048 278.209,159.229 278.539,159.411 278.870,159.593 279.200,159.777 279.530,159.961 279.860,160.146 280.190,160.333 280.521,160.520 280.851,160.708 281.181,160.897 281.511,161.087 281.841,161.278 282.171,161.469 282.502,161.662 282.832,161.856 283.162,162.050 283.492,162.245 283.822,162.442 284.153,162.639 284.483,162.837 284.813,163.036 285.143,163.236 285.473,163.436 285.804,163.638 286.134,163.840 286.464,164.044 286.794,164.248 287.124,164.453 287.455,164.659 287.785,164.866 288.115,165.073 288.445,165.282 288.775,165.491 289.105,165.702 289.436,165.913 289.766,166.125 290.096,166.338 290.426,166.551 290.756,166.766 291.087,166.981 291.417,167.198 291.747,167.415 292.077,167.633 292.407,167.852 292.738,168.071 293.068,168.292 293.398,168.513 293.728,168.735 294.058,168.958 294.388,169.182 294.719,169.407 295.049,169.632 295.379,169.858 295.709,170.086 296.039,170.313 296.370,170.542 296.700,170.772 297.030,171.002 297.360,171.233 297.690,171.465 298.021,171.698 298.351,171.932 298.681,172.166 299.011,172.401 299.341,172.637 299.672,172.874 300.002,173.112 300.332,173.350 300.662,173.589 300.992,173.829 301.322,174.070 301.653,174.311 301.983,174.554 302.313,174.797 302.643,175.040 302.973,175.285 303.304,175.530 303.634,175.776 303.964,176.023 304.294,176.271 304.624,176.519 304.955,176.768 305.285,177.018 305.615,177.269 305.945,177.520 306.275,177.773 306.606,178.025 306.936,178.279 307.266,178.533 307.596,178.789 307.926,179.044 308.256,179.301 308.587,179.558 308.917,179.816 309.247,180.075 309.577,180.334 309.907,180.595 310.238,180.855 310.568,181.117 310.898,181.379 311.228,181.642 311.558,181.906 311.889,182.170 312.219,182.436 312.549,182.701 312.879,182.968 313.209,183.235 313.539,183.503 313.870,183.771 314.200,184.041 314.530,184.311 314.860,184.581 315.190,184.853 315.521,185.124 315.851,185.397 316.181,185.670 316.511,185.944 316.841,186.219 317.172,186.494 317.502,186.770 317.832,187.047 318.162,187.324 318.492,187.602 318.823,187.880 319.153,188.159 319.483,188.439 319.813,188.720 320.143,189.001 320.473,189.283 320.804,189.565 321.134,189.848 321.464,190.131 321.794,190.416 322.124,190.700 322.455,190.986 322.785,191.272 323.115,191.559 323.445,191.846 323.775,192.134 324.106,192.422 324.436,192.711 324.766,193.001 325.096,193.291 325.426,193.582 325.757,193.873 326.087,194.165 326.417,194.458 326.747,194.751 327.077,195.045 327.407,195.339 327.738,195.634 328.068,195.929 328.398,196.225 328.728,196.522 329.058,196.819 329.389,197.117 329.719,197.415 330.049,197.714 330.379,198.013 330.709,198.313 331.040,198.613 331.370,198.914 331.700,199.216 332.030,199.518 332.360,199.820 332.690,200.123 333.021,200.427 333.351,200.731 333.681,201.036 334.011,201.341 334.341,201.646 334.672,201.952 335.002,202.259 335.332,202.566 335.662,202.874 335.992,203.182 336.323,203.491 336.653,203.800 336.983,204.109 337.313,204.419 337.643,204.730 337.974,205.041 338.304,205.352 338.634,205.664 338.964,205.977 339.294,206.290 339.624,206.603 339.955,206.917 340.285,207.231 340.615,207.546 340.945,207.861 341.275,208.177 341.606,208.493 341.936,208.809 342.266,209.126 342.596,209.443 342.926,209.761 343.257,210.079 343.587,210.398 343.917,210.717 344.247,211.037 344.577,211.356 344.907,211.677 345.238,211.997 345.568,212.318 345.898,212.640 346.228,212.962 346.558,213.284 346.889,213.607 347.219,213.930 347.549,214.253 347.879,214.577 348.209,214.901 348.540,215.226 348.870,215.551 349.200,215.876 349.530,216.202 349.860,216.528 350.191,216.854 350.521,217.181 350.851,217.508 351.181,217.836 351.511,218.164 351.841,218.492 352.172,218.820 352.502,219.149 352.832,219.478 353.162,219.808 353.492,220.138 353.823,220.468 354.153,220.798 354.483,221.129 354.813,221.460 355.143,221.792 355.474,222.123 355.804,222.455 356.134,222.788 356.464,223.120 356.794,223.453 357.125,223.786 357.455,224.120 357.785,224.454 358.115,224.788 358.445,225.122 358.775,225.457 359.106,225.792 359.436,226.127 359.766,226.462 360.096,226.798 360.426,227.134 360.757,227.470 361.087,227.806 361.417,228.143 361.747,228.480 362.077,228.817 362.408,229.154 362.738,229.492 363.068,229.830 363.398,230.168 363.728,230.506 364.058,230.845 364.389,231.184 364.719,231.523 365.049,231.862 365.379,232.201 365.709,232.541 366.040,232.880 366.370,233.220 366.700,233.561 367.030,233.901 367.360,234.242 367.691,234.582 368.021,234.923 368.351,235.264 368.681,235.606 369.011,235.947 369.342,236.289 369.672,236.630 370.002,236.972 370.332,237.314 370.662,237.657 370.992,237.999 371.323,238.342 371.653,238.684 371.983,239.027 372.313,239.370 372.643,239.713 372.974,240.056 373.304,240.400 373.634,240.743 373.964,241.087 374.294,241.430 374.625,241.774 374.955,242.118 375.285,242.462 375.615,242.806 375.945,243.151 376.276,243.495 376.606,243.839 376.936,244.184 377.266,244.528 377.596,244.873 377.926,245.218 378.257,245.563 378.587,245.908 378.917,246.253 379.247,246.598 379.577,246.943 379.908,247.288 380.238,247.633 380.568,247.978 380.898,248.324 381.228,248.669 381.559,249.014 381.889,249.360 382.219,249.705 382.549,250.051 382.879,250.396 383.209,250.742 383.540,251.087 383.870,251.433 384.200,251.779 384.530,252.124 384.860,252.470 385.191,252.815 " />
    <g
       id="g128"
       style="stroke:#e3ae24;stroke-opacity:1" />
  </g>
  <g
     id="ID000011"
     transform="translate(5.5229209,0.64152835)">
    <g
       id="g131"
       transform="translate(219.792,287.404)">
      <g
         id="g133">
        <text
           style="font-size:13.75px;text-anchor:middle;fill:#000000;font-family:Times New Roman"
           id="text135"
           font-size="11pt"
           y="0"
           x="0">X Coordinate ($x$) [$cm$]</text>
      </g>
    </g>
  </g>
  <g
     id="ID000012"
     transform="translate(5.5229209,0.64152835)"
     style="fill:#000000">
    <g
       id="g138"
       transform="translate(449.761,137.997)"
       style="fill:#000000">
      <g
         id="g140"
         transform="matrix(0,-1,1,0,0,0)"
         style="fill:#000000">
        <text
           style="font-size:13.75000000000000000px;text-anchor:middle;fill:#000000;font-family:Times New Roman"
           id="text142"
           font-size="11pt"
           y="0"
           x="0">Adjoint Flux ($\varphi^{*}$) [ ]</text>
      </g>
    </g>
  </g>
  <g
     id="ID000013"
     transform="translate(5.5229209,0.64152835)" />
  <polyline
     style="fill:none;stroke:#000000;stroke-width:0.50000000000000000pt;stroke-dasharray:none"
     id="polyline147"
     points="55.331,252.816 55.331,249.517 "
     transform="translate(5.5229209,0.64152835)" />
  <polyline
     style="fill:none;stroke:#000000;stroke-width:0.5pt;stroke-dasharray:none"
     id="polyline149"
     points="220.261,252.816 220.261,249.517 "
     transform="translate(5.5229209,0.64152835)" />
  <polyline
     style="fill:none;stroke:#000000;stroke-width:0.50000000000000000pt;stroke-dasharray:none"
     id="polyline151"
     points="385.191,252.816 385.191,249.517 "
     transform="translate(5.5229209,0.64152835)" />
  <polyline
     style="fill:none;stroke:#000000;stroke-width:0.5pt;stroke-dasharray:none"
     id="polyline153"
     points="55.331,252.816 385.191,252.816 "
     transform="translate(5.5229209,0.64152835)" />
  <g
     id="g155"
     transform="translate(60.853921,271.36253)">
    <g
       id="g157">
      <text
         style="font-size:13.75px;text-anchor:middle;fill:#000000;font-family:Times New Roman"
         id="text159"
         font-size="11pt"
         y="0"
         x="0">-50</text>
    </g>
  </g>
  <g
     id="g161"
     transform="translate(225.78392,271.36253)">
    <g
       id="g163">
      <text
         style="font-size:13.75px;text-anchor:middle;fill:#000000;font-family:Times New Roman"
         id="text165"
         font-size="11pt"
         y="0"
         x="0">0</text>
    </g>
  </g>
  <g
     id="g167"
     transform="translate(390.71392,271.36253)">
    <g
       id="g169">
      <text
         style="font-size:13.75px;text-anchor:middle;fill:#000000;font-family:Times New Roman"
         id="text171"
         font-size="11pt"
         y="0"
         x="0">50</text>
    </g>
  </g>
  <polyline
     style="fill:none;stroke:#000000;stroke-width:0.50000000000000000pt;stroke-dasharray:none"
     id="polyline173"
     points="385.191,252.816 381.892,252.816 "
     transform="translate(5.5229209,0.64152835)" />
  <polyline
     style="fill:none;stroke:#000000;stroke-width:0.50000000000000000pt;stroke-dasharray:none"
     id="polyline175"
     points="385.191,200.200 381.892,200.200 "
     transform="translate(5.5229209,0.64152835)" />
  <polyline
     style="fill:none;stroke:#000000;stroke-width:0.50000000000000000pt;stroke-dasharray:none"
     id="polyline177"
     points="385.191,147.583 381.892,147.583 "
     transform="translate(5.5229209,0.64152835)" />
  <polyline
     style="fill:none;stroke:#000000;stroke-width:0.50000000000000000pt;stroke-dasharray:none"
     id="polyline179"
     points="385.191,94.967 381.892,94.967 "
     transform="translate(5.5229209,0.64152835)" />
  <polyline
     style="fill:none;stroke:#000000;stroke-width:0.50000000000000000pt;stroke-dasharray:none"
     id="polyline181"
     points="385.191,42.351 381.892,42.351 "
     transform="translate(5.5229209,0.64152835)" />
  <g
     id="g185"
     transform="translate(397.31092,258.51953)"
     style="fill:#000000">
    <g
       id="g187"
       style="fill:#000000">
      <text
         style="font-size:13.75000000000000000px;text-anchor:start;fill:#000000;font-family:Times New Roman"
         id="text189"
         font-size="11pt"
         y="0"
         x="0">0</text>
    </g>
  </g>
  <g
     id="g191"
     transform="translate(397.31092,205.90353)"
     style="fill:#000000">
    <g
       id="g193"
       style="fill:#000000">
      <text
         style="font-size:13.75000000000000000px;text-anchor:start;fill:#000000;font-family:Times New Roman"
         id="text195"
         font-size="11pt"
         y="0"
         x="0">0.0025</text>
    </g>
  </g>
  <g
     id="g197"
     transform="translate(397.31092,153.28753)"
     style="fill:#000000">
    <g
       id="g199"
       style="fill:#000000">
      <text
         style="font-size:13.75000000000000000px;text-anchor:start;fill:#000000;font-family:Times New Roman"
         id="text201"
         font-size="11pt"
         y="0"
         x="0">0.005</text>
    </g>
  </g>
  <g
     id="g203"
     transform="translate(397.31092,100.67153)"
     style="fill:#000000">
    <g
       id="g205"
       style="fill:#000000">
      <text
         style="font-size:13.75000000000000000px;text-anchor:start;fill:#000000;font-family:Times New Roman"
         id="text207"
         font-size="11pt"
         y="0"
         x="0">0.0075</text>
    </g>
  </g>
  <g
     id="g209"
     transform="translate(397.31092,48.055528)"
     style="fill:#000000">
    <g
       id="g211"
       style="fill:#000000">
      <text
         style="font-size:13.75000000000000000px;text-anchor:start;fill:#000000;font-family:Times New Roman"
         id="text213"
         font-size="11pt"
         y="0"
         x="0">0.01</text>
    </g>
  </g>
  <polyline
     style="fill:none;stroke:#000000;stroke-width:0.50000000000000000pt;stroke-dasharray:none"
     id="polyline215"
     points="55.331,252.816 55.331,250.501 "
     transform="translate(5.5229209,0.64152835)" />
  <polyline
     style="fill:none;stroke:#000000;stroke-width:0.50000000000000000pt;stroke-dasharray:none"
     id="polyline217"
     points="55.331,252.816 55.331,250.501 "
     transform="translate(5.5229209,0.64152835)" />
  <polyline
     style="fill:none;stroke:#000000;stroke-width:0.50000000000000000pt;stroke-dasharray:none"
     id="polyline219"
     points="55.331,252.816 55.331,250.501 "
     transform="translate(5.5229209,0.64152835)" />
  <polyline
     style="fill:none;stroke:#000000;stroke-width:0.50000000000000000pt;stroke-dasharray:none"
     id="polyline221"
     points="55.331,252.816 55.331,252.816 "
     transform="translate(5.5229209,0.64152835)" />
  <rect
     style="fill:#e3ae24;fill-opacity:1;fill-rule:evenodd;stroke:#000000;stroke-width:1;stroke-linecap:butt;stroke-linejoin:round;stroke-miterlimit:4;stroke-opacity:1;stroke-dasharray:none;stroke-dashoffset:0"
     id="rect4297"
     width="24.674311"
     height="12.337155"
     x="299.28714"
     y="28.032448" />
  <text
     xml:space="preserve"
     style="font-size:14px;font-style:normal;font-variant:normal;font-weight:normal;font-stretch:normal;text-align:start;line-height:125%;letter-spacing:0px;word-spacing:0px;writing-mode:lr-tb;text-anchor:start;fill:#000000;fill-opacity:1;stroke:none;font-family:Times New Roman;-inkscape-font-specification:'Times New Roman,'"
     x="327.76022"
     y="37.554054"
     id="text4299"
     sodipodi:linespacing="125%"><tspan
       sodipodi:role="line"
       id="tspan4301"
       x="327.76022"
       y="37.554054">\scriptsize{Adjoint}</tspan></text>
  <rect
     style="fill:#000000;fill-opacity:1;fill-rule:evenodd;stroke:#000000;stroke-width:1;stroke-linecap:butt;stroke-linejoin:round;stroke-miterlimit:4;stroke-opacity:1;stroke-dasharray:none;stroke-dashoffset:0"
     id="rect4297-1"
     width="24.674311"
     height="12.337155"
     x="299.28714"
     y="47.155041" />
  <text
     xml:space="preserve"
     style="font-size:14px;font-style:normal;font-variant:normal;font-weight:normal;font-stretch:normal;text-align:start;line-height:125%;letter-spacing:0px;word-spacing:0px;writing-mode:lr-tb;text-anchor:start;fill:#000000;fill-opacity:1;stroke:none;font-family:Times New Roman;-inkscape-font-specification:'Times New Roman,'"
     x="327.76022"
     y="56.676651"
     id="text4299-7"
     sodipodi:linespacing="125%"><tspan
       sodipodi:role="line"
       id="tspan4301-4"
       x="327.76022"
       y="56.676651">\scriptsize{Forward}</tspan></text>
</svg>
