<?xml version="1.0" encoding="UTF-8" standalone="no"?>
<!-- Created with Inkscape (http://www.inkscape.org/) -->

<svg
   xmlns:dc="http://purl.org/dc/elements/1.1/"
   xmlns:cc="http://creativecommons.org/ns#"
   xmlns:rdf="http://www.w3.org/1999/02/22-rdf-syntax-ns#"
   xmlns:svg="http://www.w3.org/2000/svg"
   xmlns="http://www.w3.org/2000/svg"
   xmlns:sodipodi="http://sodipodi.sourceforge.net/DTD/sodipodi-0.dtd"
   xmlns:inkscape="http://www.inkscape.org/namespaces/inkscape"
   sodipodi:docname="Turbulent_Velocity_and_Stress_Profiles.svg"
   inkscape:version="0.48.4 r9939"
   version="1.1"
   id="svg5388"
   height="270"
   width="585">
  <sodipodi:namedview
     id="base"
     pagecolor="#ffffff"
     bordercolor="#666666"
     borderopacity="1.0"
     inkscape:pageopacity="0.0"
     inkscape:pageshadow="2"
     inkscape:zoom="2.0118519"
     inkscape:cx="467.89725"
     inkscape:cy="79.329897"
     inkscape:document-units="px"
     inkscape:current-layer="layer1"
     showgrid="false"
     units="in"
     inkscape:window-width="1877"
     inkscape:window-height="1056"
     inkscape:window-x="43"
     inkscape:window-y="24"
     inkscape:window-maximized="1" />
  <defs
     id="defs5390">
    <marker
       inkscape:stockid="Arrow1Mstart"
       orient="auto"
       refY="0"
       refX="0"
       id="Arrow1Mstart"
       style="overflow:visible">
      <path
         id="path4754"
         d="M 0,0 5,-5 -12.5,0 5,5 0,0 z"
         style="fill-rule:evenodd;stroke:#000000;stroke-width:1pt"
         transform="matrix(0.4,0,0,0.4,4,0)"
         inkscape:connector-curvature="0" />
    </marker>
    <marker
       inkscape:stockid="Arrow1Mend"
       orient="auto"
       refY="0"
       refX="0"
       id="Arrow1Mend"
       style="overflow:visible">
      <path
         id="path4757"
         d="M 0,0 5,-5 -12.5,0 5,5 0,0 z"
         style="fill-rule:evenodd;stroke:#000000;stroke-width:1pt"
         transform="matrix(-0.4,0,0,-0.4,-4,0)"
         inkscape:connector-curvature="0" />
    </marker>
  </defs>
  <metadata
     id="metadata5393">
    <rdf:RDF>
      <cc:Work
         rdf:about="">
        <dc:format>image/svg+xml</dc:format>
        <dc:type
           rdf:resource="http://purl.org/dc/dcmitype/StillImage" />
        <dc:title />
      </cc:Work>
    </rdf:RDF>
  </metadata>
  <g
     transform="translate(0,-782.35975)"
     id="layer1"
     inkscape:groupmode="layer"
     inkscape:label="Layer 1">
    <g
       transform="translate(0,774.35975)"
       style="font-size:16px;font-style:normal;font-variant:normal;font-weight:normal;font-stretch:normal;text-align:start;line-height:125%;letter-spacing:0px;word-spacing:0px;writing-mode:lr-tb;text-anchor:start;fill:#000000;fill-opacity:1;stroke:none;font-family:serif;-inkscape-font-specification:serif"
       id="text3967" />
    <path
       inkscape:connector-curvature="0"
       id="path5197-1-8-8"
       d="m 551.6854,1030.9418 3.51319,6.0851 -3.44626,5.9691 z"
       style="fill:#b3b3b3;stroke:none" />
    <path
       sodipodi:nodetypes="cccc"
       inkscape:connector-curvature="0"
       id="path5746-9-6"
       style="fill:none;stroke:#b3b3b3;stroke-width:2;stroke-linecap:butt;stroke-linejoin:miter;stroke-miterlimit:4;stroke-opacity:1;stroke-dasharray:none"
       d="m 310.26608,803.72807 0,233.24083 m 242.38918,0 -242.38918,0" />
    <path
       inkscape:connector-curvature="0"
       id="path5197-1-8-5-9"
       d="m 304.23898,807.71751 6.0851,-3.51319 5.9691,3.44626 z"
       style="fill:#b3b3b3;stroke:none" />
    <path
       sodipodi:nodetypes="cccccccccccccccccccccccccccccccccccccccccccccccccc"
       inkscape:connector-curvature="0"
       id="path3795-2-3"
       d="m 499.85569,820.26971 1,0 0,-12 -1,0 z m 0,24 1,0 0,-12 -1,0 z m 0,24 1,0 0,-12 -1,0 z m 0,24 1,0 0,-12 -1,0 z m 0,24 1,0 0,-12 -1,0 z m 0,24 1,0 0,-12 -1,0 z m 0,24 1,0 0,-12 -1,0 z m 0,24 1,0 0,-12 -1,0 z m 0,24.00009 1,0 0,-12.0001 -1,0 z m 0,23.9998 1,0 0,-12 -1,0 z"
       style="font-size:medium;font-style:normal;font-variant:normal;font-weight:normal;font-stretch:normal;text-indent:0;text-align:start;text-decoration:none;line-height:normal;letter-spacing:normal;word-spacing:normal;text-transform:none;direction:ltr;block-progression:tb;writing-mode:lr-tb;text-anchor:start;baseline-shift:baseline;color:#000000;fill:#b3b3b3;fill-opacity:1;stroke:none;stroke-width:1;marker:none;visibility:visible;display:inline;overflow:visible;enable-background:accumulate;font-family:Sans;-inkscape-font-specification:Sans" />
    <path
       inkscape:connector-curvature="0"
       id="path5197-1-8-8-1"
       d="m 254.64221,1030.9418 3.51319,6.0851 -3.44626,5.9691 z"
       style="fill:#b3b3b3;stroke:none" />
    <path
       sodipodi:nodetypes="cccc"
       inkscape:connector-curvature="0"
       id="path5746-9-6-8"
       style="fill:none;stroke:#b3b3b3;stroke-width:2;stroke-linecap:butt;stroke-linejoin:miter;stroke-miterlimit:4;stroke-opacity:1;stroke-dasharray:none"
       d="m 13.22289,803.72814 0,233.24076 m 242.38918,0 -242.38918,0" />
    <path
       inkscape:connector-curvature="0"
       id="path5197-1-8-5-9-9"
       d="m 7.19579,805.54974 6.0851,-3.5132 5.9691,3.4463 z"
       style="fill:#b3b3b3;stroke:none" />
    <path
       sodipodi:nodetypes="cccccccccccccccccccccccccccccccccccccccccccccccccc"
       inkscape:connector-curvature="0"
       id="path3795-2-3-6"
       d="m 202.8125,820.26974 1,0 0,-12 -1,0 z m 0,24 1,0 0,-12 -1,0 z m 0,24 1,0 0,-12 -1,0 z m 0,24 1,0 0,-12 -1,0 z m 0,24 1,0 0,-12 -1,0 z m 0,24 1,0 0,-12 -1,0 z m 0,24 1,0 0,-12 -1,0 z m 0,24 1,0 0,-12 -1,0 z m 0,24.00006 1,0 0,-12.0001 -1,0 z m 0,23.9998 1,0 0,-12 -1,0 z"
       style="font-size:medium;font-style:normal;font-variant:normal;font-weight:normal;font-stretch:normal;text-indent:0;text-align:start;text-decoration:none;line-height:normal;letter-spacing:normal;word-spacing:normal;text-transform:none;direction:ltr;block-progression:tb;writing-mode:lr-tb;text-anchor:start;baseline-shift:baseline;color:#000000;fill:#b3b3b3;fill-opacity:1;stroke:none;stroke-width:1;marker:none;visibility:visible;display:inline;overflow:visible;enable-background:accumulate;font-family:Sans;-inkscape-font-specification:Sans" />
    <text
       xml:space="preserve"
       style="font-size:11px;font-style:normal;font-variant:normal;font-weight:normal;font-stretch:normal;text-align:start;line-height:125%;letter-spacing:0px;word-spacing:0px;writing-mode:lr-tb;text-anchor:start;fill:#000000;fill-opacity:1;stroke:none;font-family:Sans;-inkscape-font-specification:Sans"
       x="195.51093"
       y="1048.4893"
       id="text3075-4-1-2-9"
       sodipodi:linespacing="125%"><tspan
         sodipodi:role="line"
         id="tspan3077-0-5-0-7"
         x="195.51093"
         y="1048.4893">$0.0$</tspan></text>
    <text
       xml:space="preserve"
       style="font-size:11px;font-style:normal;font-variant:normal;font-weight:normal;font-stretch:normal;text-align:start;line-height:125%;letter-spacing:0px;word-spacing:0px;writing-mode:lr-tb;text-anchor:start;fill:#000000;fill-opacity:1;stroke:none;font-family:Sans;-inkscape-font-specification:Sans"
       x="260.02991"
       y="1040.9917"
       id="text3075-4-1-2-9-9"
       sodipodi:linespacing="125%"><tspan
         sodipodi:role="line"
         id="tspan3077-0-5-0-7-7"
         x="260.02991"
         y="1040.9917">$\frac{r}{R}$</tspan></text>
    <text
       xml:space="preserve"
       style="font-size:11px;font-style:normal;font-variant:normal;font-weight:normal;font-stretch:normal;text-align:start;line-height:125%;letter-spacing:0px;word-spacing:0px;writing-mode:lr-tb;text-anchor:start;fill:#000000;fill-opacity:1;stroke:none;font-family:Sans;-inkscape-font-specification:Sans"
       x="7.1002321"
       y="798.70367"
       id="text3075-4-1-2-9-9-7"
       sodipodi:linespacing="125%"><tspan
         sodipodi:role="line"
         id="tspan3077-0-5-0-7-7-6"
         x="7.1002321"
         y="798.70367">$v$</tspan></text>
    <text
       xml:space="preserve"
       style="font-size:11px;font-style:normal;font-variant:normal;font-weight:normal;font-stretch:normal;text-align:start;line-height:125%;letter-spacing:0px;word-spacing:0px;writing-mode:lr-tb;text-anchor:start;fill:#000000;fill-opacity:1;stroke:none;font-family:Sans;-inkscape-font-specification:Sans"
       x="300.88107"
       y="801.44177"
       id="text3075-4-1-2-9-9-7-1"
       sodipodi:linespacing="125%"><tspan
         sodipodi:role="line"
         id="tspan3077-0-5-0-7-7-6-0"
         x="300.88107"
         y="801.44177">$\tau$</tspan></text>
    <text
       xml:space="preserve"
       style="font-size:11px;font-style:normal;font-variant:normal;font-weight:normal;font-stretch:normal;text-align:start;line-height:125%;letter-spacing:0px;word-spacing:0px;writing-mode:lr-tb;text-anchor:start;fill:#000000;fill-opacity:1;stroke:none;font-family:Sans;-inkscape-font-specification:Sans"
       x="487.5376"
       y="1048.4893"
       id="text3075-4-1-2-9-70"
       sodipodi:linespacing="125%"><tspan
         sodipodi:role="line"
         id="tspan3077-0-5-0-7-79"
         x="487.5376"
         y="1048.4893">$0.0$</tspan></text>
    <text
       xml:space="preserve"
       style="font-size:11px;font-style:normal;font-variant:normal;font-weight:normal;font-stretch:normal;text-align:start;line-height:125%;letter-spacing:0px;word-spacing:0px;writing-mode:lr-tb;text-anchor:start;fill:#000000;fill-opacity:1;stroke:none;font-family:Sans;-inkscape-font-specification:Sans"
       x="558.79633"
       y="1040.6738"
       id="text3075-4-1-2-9-9-5"
       sodipodi:linespacing="125%"><tspan
         sodipodi:role="line"
         id="tspan3077-0-5-0-7-7-3"
         x="558.79633"
         y="1040.6738">$\frac{r}{R}$</tspan></text>
    <text
       xml:space="preserve"
       style="font-size:11px;font-style:normal;font-variant:normal;font-weight:normal;font-stretch:normal;text-align:start;line-height:125%;letter-spacing:0px;word-spacing:0px;writing-mode:lr-tb;text-anchor:start;fill:#000000;fill-opacity:1;stroke:none;font-family:Sans;-inkscape-font-specification:Sans"
       x="1.7341394"
       y="1048.0874"
       id="text3075-4-1-2-9-91"
       sodipodi:linespacing="125%"><tspan
         sodipodi:role="line"
         id="tspan3077-0-5-0-7-3"
         x="1.7341394"
         y="1048.0874">$1.0$</tspan></text>
    <text
       xml:space="preserve"
       style="font-size:11px;font-style:normal;font-variant:normal;font-weight:normal;font-stretch:normal;text-align:start;line-height:125%;letter-spacing:0px;word-spacing:0px;writing-mode:lr-tb;text-anchor:start;fill:#000000;fill-opacity:1;stroke:none;font-family:Sans;-inkscape-font-specification:Sans"
       x="293.76083"
       y="1048.0874"
       id="text3075-4-1-2-9-70-9"
       sodipodi:linespacing="125%"><tspan
         sodipodi:role="line"
         id="tspan3077-0-5-0-7-79-9"
         x="293.76083"
         y="1048.0874">$1.0$</tspan></text>
    <path
       style="fill:none;stroke:#214478;stroke-width:1px;stroke-linecap:butt;stroke-linejoin:miter;stroke-opacity:1"
       d="M 13.175472,254.62862 C 60.38758,127.99769 91.130347,26.253765 203.12186,26.253764"
       id="path3128"
       inkscape:connector-curvature="0"
       transform="translate(0,782.35975)"
       sodipodi:nodetypes="cc" />
    <path
       style="fill:none;stroke:#214478;stroke-width:1;stroke-linecap:butt;stroke-linejoin:miter;stroke-miterlimit:4;stroke-opacity:1;stroke-dasharray:4, 2;stroke-dashoffset:0"
       d="m 13.175472,254.26263 c 0,-228.381238 -0.123401,-228.374851 190.312378,-228.374851"
       id="path3130"
       inkscape:connector-curvature="0"
       transform="translate(0,782.35975)"
       sodipodi:nodetypes="cc" />
    <text
       xml:space="preserve"
       style="font-size:11px;font-style:normal;font-variant:normal;font-weight:normal;font-stretch:normal;text-align:start;line-height:125%;letter-spacing:0px;word-spacing:0px;writing-mode:lr-tb;text-anchor:start;fill:#000000;fill-opacity:1;stroke:none;font-family:Serif;-inkscape-font-specification:Serif"
       x="52.701889"
       y="186.92133"
       id="text3912"
       sodipodi:linespacing="125%"
       transform="translate(0,782.35975)"><tspan
         sodipodi:role="line"
         id="tspan3914"
         x="52.701889"
         y="186.92133">$v=v_{max}\left[1-\left(\frac{r}{R}\right)^{2}\right]\;\;\&amp;\;\;\frac{\left\langle v\right\rangle }{v_{max}}=\frac{1}{2}$</tspan></text>
    <text
       xml:space="preserve"
       style="font-size:11px;font-style:normal;font-variant:normal;font-weight:normal;font-stretch:normal;text-align:start;line-height:125%;letter-spacing:0px;word-spacing:0px;writing-mode:lr-tb;text-anchor:start;fill:#000000;fill-opacity:1;stroke:none;font-family:Serif;-inkscape-font-specification:Serif"
       x="28.805967"
       y="872.54803"
       id="text3916"
       sodipodi:linespacing="125%"><tspan
         sodipodi:role="line"
         x="28.805967"
         y="872.54803"
         id="tspan3920">$v=v_{max}\left[1-\frac{r}{R}\right]^{\frac{1}{7}}\;\;\&amp;\;\;\frac{\left\langle v\right\rangle }{v_{max}}=\frac{4}{5}$</tspan></text>
    <path
       sodipodi:nodetypes="cccccccccccccccccccccccccccccccccccccccccccccccccc"
       inkscape:connector-curvature="0"
       id="path3795-2-3-1"
       d="m 435.33652,820.26972 1,0 0,-12 -1,0 z m 0,24 1,0 0,-12 -1,0 z m 0,24 1,0 0,-12 -1,0 z m 0,24 1,0 0,-12 -1,0 z m 0,24 1,0 0,-12 -1,0 z m 0,24 1,0 0,-12 -1,0 z m 0,24 1,0 0,-12 -1,0 z m 0,24 1,0 0,-12 -1,0 z m 0,24.00008 1,0 0,-12.0001 -1,0 z m 0,23.9998 1,0 0,-12 -1,0 z"
       style="font-size:medium;font-style:normal;font-variant:normal;font-weight:normal;font-stretch:normal;text-indent:0;text-align:start;text-decoration:none;line-height:normal;letter-spacing:normal;word-spacing:normal;text-transform:none;direction:ltr;block-progression:tb;writing-mode:lr-tb;text-anchor:start;baseline-shift:baseline;color:#000000;fill:#b3b3b3;fill-opacity:1;stroke:none;stroke-width:1;marker:none;visibility:visible;display:inline;overflow:visible;enable-background:accumulate;font-family:Sans;-inkscape-font-specification:Sans" />
    <path
       sodipodi:nodetypes="cccccccccccccccccccccccccccccccccccccccccccccccccc"
       inkscape:connector-curvature="0"
       id="path3795-2-3-0"
       d="m 368.8137,818.77856 1,0 0,-12 -1,0 z m 0,24 1,0 0,-12 -1,0 z m 0,24 1,0 0,-12 -1,0 z m 0,24 1,0 0,-12 -1,0 z m 0,24 1,0 0,-12 -1,0 z m 0,24 1,0 0,-12 -1,0 z m 0,24 1,0 0,-12 -1,0 z m 0,24 1,0 0,-12 -1,0 z m 0,24.00014 1,0 0,-12.0001 -1,0 z m 0,23.9997 1,0 0,-11.9999 -1,0 z"
       style="font-size:medium;font-style:normal;font-variant:normal;font-weight:normal;font-stretch:normal;text-indent:0;text-align:start;text-decoration:none;line-height:normal;letter-spacing:normal;word-spacing:normal;text-transform:none;direction:ltr;block-progression:tb;writing-mode:lr-tb;text-anchor:start;baseline-shift:baseline;color:#000000;fill:#b3b3b3;fill-opacity:1;stroke:none;stroke-width:1;marker:none;visibility:visible;display:inline;overflow:visible;enable-background:accumulate;font-family:Sans;-inkscape-font-specification:Sans" />
    <text
       xml:space="preserve"
       style="font-size:11px;font-style:normal;font-variant:normal;font-weight:normal;font-stretch:normal;text-align:start;line-height:125%;letter-spacing:0px;word-spacing:0px;writing-mode:lr-tb;text-anchor:start;fill:#000000;fill-opacity:1;stroke:none;font-family:Serif;-inkscape-font-specification:Serif"
       x="391.24301"
       y="905.7287"
       id="text4282"
       sodipodi:linespacing="125%"><tspan
         sodipodi:role="line"
         id="tspan4284"
         x="391.24301"
         y="905.7287">$\substack{\text{buffer}\\ </tspan><tspan
         sodipodi:role="line"
         x="391.24301"
         y="919.4787"
         id="tspan4286">\tau^{\mu}\approx\tau^{t}}$</tspan></text>
    <text
       xml:space="preserve"
       style="font-size:11px;font-style:normal;font-variant:normal;font-weight:normal;font-stretch:normal;text-align:start;line-height:125%;letter-spacing:0px;word-spacing:0px;writing-mode:lr-tb;text-anchor:start;fill:#000000;fill-opacity:1;stroke:none;font-family:Serif;-inkscape-font-specification:Serif"
       x="324.52493"
       y="1006.7668"
       id="text4282-9"
       sodipodi:linespacing="125%"><tspan
         sodipodi:role="line"
         id="tspan4284-0"
         x="324.52493"
         y="1006.7668">$\substack{\text{laminar}\\ </tspan><tspan
         sodipodi:role="line"
         x="324.52493"
         y="1020.5168"
         id="tspan4312">\text{sublayer}\\ </tspan><tspan
         sodipodi:role="line"
         x="324.52493"
         y="1034.2668"
         id="tspan4286-9">\tau^{\mu}\gg\tau^{t}}$</tspan></text>
    <text
       xml:space="preserve"
       style="font-size:11px;font-style:normal;font-variant:normal;font-weight:normal;font-stretch:normal;text-align:start;line-height:125%;letter-spacing:0px;word-spacing:0px;writing-mode:lr-tb;text-anchor:start;fill:#000000;fill-opacity:1;stroke:none;font-family:Serif;-inkscape-font-specification:Serif"
       x="448.60583"
       y="852.25946"
       id="text4282-9-0"
       sodipodi:linespacing="125%"><tspan
         sodipodi:role="line"
         id="tspan4284-0-4"
         x="448.60583"
         y="852.25946">$\substack{\text{turbulent}\\ </tspan><tspan
         sodipodi:role="line"
         x="448.60583"
         y="866.00946"
         id="tspan4312-5">\text{core}\\ </tspan><tspan
         sodipodi:role="line"
         x="448.60583"
         y="879.75946"
         id="tspan4286-9-3">\tau^{\mu}\ll\tau^{t}}$</tspan></text>
    <path
       style="fill:none;stroke:#214478;stroke-width:1px;stroke-linecap:butt;stroke-linejoin:miter;stroke-opacity:1"
       d="M 310.16421,1036.454 C 320.93372,886.34355 441.6611,808.30599 500.53608,808.30599"
       id="path4255"
       inkscape:connector-curvature="0"
       sodipodi:nodetypes="cc" />
  </g>
</svg>
