<?xml version="1.0" encoding="UTF-8" standalone="no"?>
<svg
   xmlns:dc="http://purl.org/dc/elements/1.1/"
   xmlns:cc="http://creativecommons.org/ns#"
   xmlns:rdf="http://www.w3.org/1999/02/22-rdf-syntax-ns#"
   xmlns:svg="http://www.w3.org/2000/svg"
   xmlns="http://www.w3.org/2000/svg"
   xmlns:sodipodi="http://sodipodi.sourceforge.net/DTD/sodipodi-0.dtd"
   xmlns:inkscape="http://www.inkscape.org/namespaces/inkscape"
   preserveAspectRatio="xMinYMin meet"
   width="100%"
   height="100%"
   viewBox="0 0 461.25 132.87401"
   version="1.1"
   id="svg2"
   inkscape:version="0.48.4 r9939"
   sodipodi:docname="nucl511hmwk8prob2plot4.svg">
  <metadata
     id="metadata233">
    <rdf:RDF>
      <cc:Work
         rdf:about="">
        <dc:format>image/svg+xml</dc:format>
        <dc:type
           rdf:resource="http://purl.org/dc/dcmitype/StillImage" />
      </cc:Work>
    </rdf:RDF>
  </metadata>
  <defs
     id="defs231" />
  <sodipodi:namedview
     pagecolor="#ffffff"
     bordercolor="#666666"
     borderopacity="1"
     objecttolerance="10"
     gridtolerance="10"
     guidetolerance="10"
     inkscape:pageopacity="0"
     inkscape:pageshadow="2"
     inkscape:window-width="640"
     inkscape:window-height="480"
     id="namedview229"
     showgrid="false"
     units="cm"
     inkscape:zoom="0.68509485"
     inkscape:cx="230.625"
     inkscape:cy="57.6565"
     inkscape:window-x="0"
     inkscape:window-y="0"
     inkscape:window-maximized="0"
     inkscape:current-layer="svg2" />
  <desc
     id="desc4">Matlab Figure Converted by PLOT2SVG written by Juerg Schwizer</desc>
  <g
     id="topgroup"
     transform="translate(0,-2.4390321)">
    <rect
       x="0"
       y="0"
       width="461.25"
       height="115.313"
       id="rect7"
       style="fill:#ffffff;stroke:none" />
    <g
       id="ID000000">
      <clipPath
         id="ID000001">
        <rect
           x="59.962002"
           y="8.6479998"
           width="357.46899"
           height="88.851997"
           id="rect11" />
      </clipPath>
      <polygon
         points="59.962,8.648 59.962,97.5 417.431,97.5 417.431,8.648 "
         id="polygon13"
         style="fill:#ffffff;fill-opacity:1;stroke:none" />
      <polygon
         points="59.962,8.648 59.962,8.648 417.431,8.648 417.431,8.648 "
         id="polygon15"
         style="fill:#ffffff;fill-opacity:1;stroke:none" />
      <polygon
         points="59.962,8.648 59.962,97.5 59.962,97.5 59.962,8.648 "
         id="polygon17"
         style="fill:#ffffff;fill-opacity:1;stroke:none" />
      <g
         id="g19">
        <g
           id="ID000002"
           clip-path="url(#ID000001)">
          <polyline
             points="59.962,96.852 61.154,82.967 62.346,78.570 63.537,77.077 64.729,76.474 65.920,76.145 67.112,75.897 68.303,75.674 69.495,75.456 70.687,75.238 71.878,75.017 73.070,74.795 74.261,74.569 75.453,74.341 76.644,74.109 77.836,73.875 79.027,73.638 80.219,73.397 81.411,73.153 82.602,72.906 83.794,72.656 84.985,72.403 86.177,72.146 87.368,71.885 88.560,71.622 89.752,71.354 90.943,71.083 92.135,70.809 93.326,70.530 94.518,70.248 95.709,69.962 96.901,69.672 98.093,69.378 99.284,69.080 100.476,68.777 101.667,68.471 102.859,68.160 104.050,67.845 105.242,67.525 106.433,67.201 107.625,66.872 108.817,66.539 110.008,66.200 111.200,65.857 112.391,65.509 113.583,65.155 114.774,64.797 115.966,64.433 117.158,64.064 118.349,63.689 119.541,63.309 120.732,62.923 121.924,62.531 123.115,62.133 124.307,61.729 125.498,61.319 126.690,60.902 127.882,60.479 129.073,60.050 130.265,59.613 131.456,59.170 132.648,58.720 133.839,58.262 135.031,57.798 136.223,57.325 137.414,56.845 138.606,56.357 139.797,55.861 140.989,55.357 142.180,54.845 143.372,54.324 144.563,53.794 145.755,53.255 146.947,52.707 148.138,52.149 149.330,51.582 150.521,51.005 151.713,50.418 152.904,49.820 154.096,49.212 155.288,48.593 156.479,47.963 157.671,47.321 158.862,46.667 160.054,46.002 161.245,45.324 162.437,44.633 163.628,43.930 164.820,43.213 166.012,42.482 167.203,41.737 168.395,40.978 169.586,40.204 170.778,39.414 171.969,38.609 173.161,37.787 174.352,36.949 175.544,36.094 176.736,35.221 177.927,34.330 179.119,33.420 180.310,33.218 181.502,33.345 182.693,33.627 183.885,33.980 185.077,34.365 186.268,34.763 187.460,35.167 188.651,35.572 189.843,35.976 191.034,36.379 192.226,36.780 193.417,37.179 194.609,37.576 195.801,37.971 196.992,38.364 198.184,38.755 199.375,39.144 200.567,39.531 201.758,39.915 202.950,40.298 204.142,40.679 205.333,41.057 206.525,41.434 207.716,41.809 208.908,42.181 210.099,42.552 211.291,42.921 212.483,43.288 213.674,43.653 214.866,44.016 216.057,44.377 217.249,44.736 218.440,45.094 219.632,45.450 220.823,45.803 222.015,46.156 223.207,46.506 224.398,46.854 225.590,47.201 226.781,47.546 227.973,47.889 229.164,48.230 230.356,48.570 231.548,48.908 232.739,49.244 233.931,49.578 235.122,49.911 236.314,50.242 237.505,50.572 238.697,50.899 239.888,51.226 241.080,51.550 242.272,51.873 243.463,52.194 244.655,52.514 245.846,52.832 247.038,53.148 248.229,53.463 249.421,53.777 250.612,54.088 251.804,54.399 252.996,54.707 254.187,55.015 255.379,55.320 256.570,55.625 257.762,55.927 258.953,56.228 260.145,56.528 261.337,56.826 262.528,57.123 263.720,57.419 264.911,57.712 266.103,58.005 267.294,58.296 268.486,58.586 269.678,58.874 270.869,59.161 272.061,59.446 273.252,59.730 274.444,60.013 275.635,60.294 276.827,60.575 278.018,60.853 279.210,61.131 280.402,61.407 281.593,61.681 282.785,61.955 283.976,62.227 285.168,62.498 286.359,62.767 287.551,63.035 288.743,63.302 289.934,63.568 291.126,63.832 292.317,64.096 293.509,64.358 294.700,64.618 295.892,64.878 297.083,65.136 298.275,65.393 299.467,65.649 300.658,65.904 301.850,66.157 303.041,66.409 304.233,66.661 305.424,66.911 306.616,67.159 307.808,67.407 308.999,67.654 310.191,67.899 311.382,68.143 312.574,68.386 313.765,68.628 314.957,68.869 316.148,69.109 317.340,69.348 318.532,69.585 319.723,69.822 320.915,70.057 322.106,70.291 323.298,70.525 324.489,70.757 325.681,70.988 326.873,71.218 328.064,71.447 329.256,71.675 330.447,71.902 331.639,72.128 332.830,72.353 334.022,72.577 335.213,72.800 336.405,73.022 337.597,73.243 338.788,73.463 339.980,73.682 341.171,73.900 342.363,74.117 343.554,74.333 344.746,74.548 345.938,74.762 347.129,74.975 348.321,75.187 349.512,75.399 350.704,75.609 351.895,75.818 353.087,76.027 354.278,76.234 355.470,76.441 356.662,76.647 357.853,76.852 359.045,77.056 360.236,77.259 361.428,77.461 362.619,77.662 363.811,77.862 365.003,78.062 366.194,78.261 367.386,78.458 368.577,78.655 369.769,78.851 370.960,79.047 372.152,79.241 373.343,79.434 374.535,79.627 375.727,79.819 376.918,80.010 378.110,80.200 379.301,80.390 380.493,80.578 381.684,80.766 382.876,80.953 384.067,81.139 385.259,81.324 386.451,81.509 387.642,81.693 388.834,81.876 390.025,82.058 391.217,82.240 392.408,82.420 393.600,82.600 394.792,82.779 395.983,82.958 397.175,83.135 398.366,83.312 399.558,83.488 400.749,83.664 401.941,83.838 403.132,84.012 404.324,84.185 405.516,84.358 406.707,84.530 407.899,84.701 409.090,84.871 410.282,85.041 411.473,85.210 412.665,85.378 413.857,85.545 415.048,85.712 416.240,85.878 417.431,86.044 "
             id="polyline22"
             style="fill:none;stroke:#000000;stroke-width:0.5pt;stroke-dasharray:none" />
          <g
             id="g24" />
        </g>
        <g
           id="ID000003">
          <g
             transform="translate(237.759,132.037)"
             id="g27">
            <g
               id="g29">
              <text
                 x="0"
                 y="0"
                 font-size="11pt"
                 id="text31"
                 style="font-size:13.75px;text-anchor:middle;fill:#000000;font-family:Times New Roman">Time ($t$) [$s$]</text>
            </g>
          </g>
        </g>
        <g
           id="ID000004">
          <g
             transform="translate(13.522,54.009)"
             id="g34">
            <g
               transform="matrix(0,-1,1,0,0,0)"
               id="g36">
              <text
                 x="0"
                 y="0"
                 font-size="11pt"
                 id="text38"
                 style="font-size:13.75px;text-anchor:middle;fill:#000000;font-family:Times New Roman">Power Amplitude ($p$) [ ]</text>
            </g>
          </g>
        </g>
        <g
           id="ID000005" />
      </g>
      <g
         id="g41">
        <polyline
           points="119.541,97.500 119.541,93.925 "
           id="polyline43"
           style="fill:none;stroke:#000000;stroke-width:0.5pt;stroke-dasharray:none" />
        <polyline
           points="179.119,97.500 179.119,93.925 "
           id="polyline45"
           style="fill:none;stroke:#000000;stroke-width:0.5pt;stroke-dasharray:none" />
        <polyline
           points="238.697,97.500 238.697,93.925 "
           id="polyline47"
           style="fill:none;stroke:#000000;stroke-width:0.5pt;stroke-dasharray:none" />
        <polyline
           points="298.275,97.500 298.275,93.925 "
           id="polyline49"
           style="fill:none;stroke:#000000;stroke-width:0.5pt;stroke-dasharray:none" />
        <polyline
           points="357.853,97.500 357.853,93.925 "
           id="polyline51"
           style="fill:none;stroke:#000000;stroke-width:0.5pt;stroke-dasharray:none" />
        <polyline
           points="59.962,97.500 417.431,97.500 "
           id="polyline53"
           style="fill:none;stroke:#000000;stroke-width:0.5pt;stroke-dasharray:none" />
        <polyline
           points="119.541,8.648 119.541,12.223 "
           id="polyline55"
           style="fill:none;stroke:#000000;stroke-width:0.5pt;stroke-dasharray:none" />
        <polyline
           points="179.119,8.648 179.119,12.223 "
           id="polyline57"
           style="fill:none;stroke:#000000;stroke-width:0.5pt;stroke-dasharray:none" />
        <polyline
           points="238.697,8.648 238.697,12.223 "
           id="polyline59"
           style="fill:none;stroke:#000000;stroke-width:0.5pt;stroke-dasharray:none" />
        <polyline
           points="298.275,8.648 298.275,12.223 "
           id="polyline61"
           style="fill:none;stroke:#000000;stroke-width:0.5pt;stroke-dasharray:none" />
        <polyline
           points="357.853,8.648 357.853,12.223 "
           id="polyline63"
           style="fill:none;stroke:#000000;stroke-width:0.5pt;stroke-dasharray:none" />
        <polyline
           points="59.962,8.648 417.431,8.648 "
           id="polyline65"
           style="fill:none;stroke:#000000;stroke-width:0.5pt;stroke-dasharray:none" />
        <g
           transform="translate(59.962,112.552)"
           id="g67">
          <g
             id="g69">
            <text
               x="0"
               y="0"
               font-size="11pt"
               id="text71"
               style="font-size:13.75px;text-anchor:middle;fill:#000000;font-family:Times New Roman">0</text>
          </g>
        </g>
        <g
           transform="translate(119.541,112.552)"
           id="g73">
          <g
             id="g75">
            <text
               x="0"
               y="0"
               font-size="11pt"
               id="text77"
               style="font-size:13.75px;text-anchor:middle;fill:#000000;font-family:Times New Roman">0.05</text>
          </g>
        </g>
        <g
           transform="translate(179.119,112.552)"
           id="g79">
          <g
             id="g81">
            <text
               x="0"
               y="0"
               font-size="11pt"
               id="text83"
               style="font-size:13.75px;text-anchor:middle;fill:#000000;font-family:Times New Roman">0.1</text>
          </g>
        </g>
        <g
           transform="translate(238.697,112.552)"
           id="g85">
          <g
             id="g87">
            <text
               x="0"
               y="0"
               font-size="11pt"
               id="text89"
               style="font-size:13.75px;text-anchor:middle;fill:#000000;font-family:Times New Roman">0.15</text>
          </g>
        </g>
        <g
           transform="translate(298.275,112.552)"
           id="g91">
          <g
             id="g93">
            <text
               x="0"
               y="0"
               font-size="11pt"
               id="text95"
               style="font-size:13.75px;text-anchor:middle;fill:#000000;font-family:Times New Roman">0.2</text>
          </g>
        </g>
        <g
           transform="translate(357.853,112.552)"
           id="g97">
          <g
             id="g99">
            <text
               x="0"
               y="0"
               font-size="11pt"
               id="text101"
               style="font-size:13.75px;text-anchor:middle;fill:#000000;font-family:Times New Roman">0.25</text>
          </g>
        </g>
        <polyline
           points="59.962,53.074 63.537,53.074 "
           id="polyline103"
           style="fill:none;stroke:#000000;stroke-width:0.5pt;stroke-dasharray:none" />
        <polyline
           points="59.962,97.500 59.962,8.648 "
           id="polyline105"
           style="fill:none;stroke:#000000;stroke-width:0.5pt;stroke-dasharray:none" />
        <polyline
           points="417.431,53.074 413.857,53.074 "
           id="polyline107"
           style="fill:none;stroke:#000000;stroke-width:0.5pt;stroke-dasharray:none" />
        <polyline
           points="417.431,97.500 417.431,8.648 "
           id="polyline109"
           style="fill:none;stroke:#000000;stroke-width:0.5pt;stroke-dasharray:none" />
        <g
           transform="translate(52.813,102.563)"
           id="g111">
          <g
             id="g113">
            <text
               x="0"
               y="0"
               font-size="11pt"
               id="text115"
               style="font-size:13.75px;text-anchor:end;fill:#000000;font-family:Times New Roman">500</text>
          </g>
        </g>
        <g
           transform="translate(52.813,58.137)"
           id="g117">
          <g
             id="g119">
            <text
               x="0"
               y="0"
               font-size="11pt"
               id="text121"
               style="font-size:13.75px;text-anchor:end;fill:#000000;font-family:Times New Roman">1000</text>
          </g>
        </g>
        <g
           transform="translate(52.813,13.711)"
           id="g123">
          <g
             id="g125">
            <text
               x="0"
               y="0"
               font-size="11pt"
               id="text127"
               style="font-size:13.75px;text-anchor:end;fill:#000000;font-family:Times New Roman">1500</text>
          </g>
        </g>
        <polyline
           points="59.962,97.500 59.962,96.611 "
           id="polyline129"
           style="fill:none;stroke:#000000;stroke-width:0.5pt;stroke-dasharray:none" />
        <polyline
           points="59.962,97.500 59.962,97.500 "
           id="polyline131"
           style="fill:none;stroke:#000000;stroke-width:0.5pt;stroke-dasharray:none" />
      </g>
    </g>
    <g
       id="ID000006">
      <clipPath
         id="ID000007">
        <rect
           x="59.962002"
           y="8.6479998"
           width="357.46899"
           height="88.851997"
           id="rect135" />
      </clipPath>
      <polygon
         points="59.962,8.648 59.962,97.5 417.431,97.5 417.431,8.648 "
         id="polygon137"
         style="fill:#000000;fill-opacity:0;stroke:none" />
      <polygon
         points="59.962,97.5 59.962,97.5 417.431,97.5 417.431,97.5 "
         id="polygon139"
         style="fill:#000000;fill-opacity:0;stroke:none" />
      <polygon
         points="59.962,8.648 59.962,97.5 59.962,97.5 59.962,8.648 "
         id="polygon141"
         style="fill:#000000;fill-opacity:0;stroke:none" />
      <g
         id="g143">
        <g
           id="ID000008"
           clip-path="url(#ID000007)">
          <polyline
             points="59.962,-2196.191 61.154,-641.175 62.346,-166.755 63.537,-21.576 64.729,22.943 65.920,36.580 67.112,40.708 68.303,41.897 69.495,42.174 70.687,42.166 71.878,42.067 73.070,41.938 74.261,41.799 75.453,41.654 76.644,41.506 77.836,41.355 79.027,41.202 80.219,41.047 81.411,40.888 82.602,40.728 83.794,40.564 84.985,40.398 86.177,40.229 87.368,40.058 88.560,39.883 89.752,39.705 90.943,39.525 92.135,39.341 93.326,39.154 94.518,38.964 95.709,38.770 96.901,38.573 98.093,38.373 99.284,38.169 100.476,37.961 101.667,37.750 102.859,37.534 104.050,37.315 105.242,37.092 106.433,36.864 107.625,36.633 108.817,36.397 110.008,36.156 111.200,35.911 112.391,35.661 113.583,35.407 114.774,35.147 115.966,34.882 117.158,34.613 118.349,34.337 119.541,34.057 120.732,33.770 121.924,33.478 123.115,33.180 124.307,32.876 125.498,32.566 126.690,32.249 127.882,31.925 129.073,31.595 130.265,31.257 131.456,30.913 132.648,30.561 133.839,30.201 135.031,29.833 136.223,29.458 137.414,29.074 138.606,28.681 139.797,28.279 140.989,27.869 142.180,27.449 143.372,27.019 144.563,26.580 145.755,26.130 146.947,25.669 148.138,25.198 149.330,24.715 150.521,24.221 151.713,23.714 152.904,23.195 154.096,22.664 155.288,22.119 156.479,21.560 157.671,20.987 158.862,20.400 160.054,19.797 161.245,19.179 162.437,18.544 163.628,17.893 164.820,17.224 166.012,16.537 167.203,15.832 168.395,15.107 169.586,14.363 170.778,13.597 171.969,12.811 173.161,12.001 174.352,11.169 175.544,10.312 176.736,9.431 177.927,8.523 179.119,7.589 180.310,42.931 181.502,59.468 182.693,67.165 183.885,70.710 185.077,72.308 186.268,72.996 187.460,73.258 188.651,73.321 189.843,73.293 191.034,73.221 192.226,73.131 193.417,73.032 194.609,72.929 195.801,72.825 196.992,72.720 198.184,72.617 199.375,72.513 200.567,72.410 201.758,72.308 202.950,72.207 204.142,72.106 205.333,72.006 206.525,71.907 207.716,71.808 208.908,71.710 210.099,71.613 211.291,71.516 212.483,71.420 213.674,71.325 214.866,71.230 216.057,71.136 217.249,71.042 218.440,70.950 219.632,70.857 220.823,70.766 222.015,70.675 223.207,70.585 224.398,70.495 225.590,70.406 226.781,70.317 227.973,70.229 229.164,70.142 230.356,70.055 231.548,69.969 232.739,69.883 233.931,69.798 235.122,69.714 236.314,69.630 237.505,69.546 238.697,69.464 239.888,69.381 241.080,69.299 242.272,69.218 243.463,69.138 244.655,69.057 245.846,68.978 247.038,68.898 248.229,68.820 249.421,68.742 250.612,68.664 251.804,68.587 252.996,68.510 254.187,68.434 255.379,68.358 256.570,68.283 257.762,68.209 258.953,68.134 260.145,68.061 261.337,67.987 262.528,67.914 263.720,67.842 264.911,67.770 266.103,67.699 267.294,67.628 268.486,67.557 269.678,67.487 270.869,67.417 272.061,67.348 273.252,67.279 274.444,67.211 275.635,67.143 276.827,67.075 278.018,67.008 279.210,66.942 280.402,66.875 281.593,66.809 282.785,66.744 283.976,66.679 285.168,66.614 286.359,66.550 287.551,66.486 288.743,66.422 289.934,66.359 291.126,66.297 292.317,66.234 293.509,66.172 294.700,66.111 295.892,66.049 297.083,65.989 298.275,65.928 299.467,65.868 300.658,65.808 301.850,65.749 303.041,65.690 304.233,65.631 305.424,65.573 306.616,65.515 307.808,65.457 308.999,65.400 310.191,65.343 311.382,65.286 312.574,65.230 313.765,65.174 314.957,65.118 316.148,65.063 317.340,65.008 318.532,64.953 319.723,64.899 320.915,64.845 322.106,64.791 323.298,64.738 324.489,64.685 325.681,64.632 326.873,64.579 328.064,64.527 329.256,64.475 330.447,64.424 331.639,64.373 332.830,64.322 334.022,64.271 335.213,64.221 336.405,64.170 337.597,64.121 338.788,64.071 339.980,64.022 341.171,63.973 342.363,63.924 343.554,63.876 344.746,63.828 345.938,63.780 347.129,63.732 348.321,63.685 349.512,63.638 350.704,63.591 351.895,63.545 353.087,63.498 354.278,63.452 355.470,63.407 356.662,63.361 357.853,63.316 359.045,63.271 360.236,63.226 361.428,63.182 362.619,63.138 363.811,63.094 365.003,63.050 366.194,63.007 367.386,62.963 368.577,62.920 369.769,62.878 370.960,62.835 372.152,62.793 373.343,62.751 374.535,62.709 375.727,62.667 376.918,62.626 378.110,62.585 379.301,62.544 380.493,62.503 381.684,62.463 382.876,62.422 384.067,62.382 385.259,62.343 386.451,62.303 387.642,62.264 388.834,62.224 390.025,62.185 391.217,62.147 392.408,62.108 393.600,62.070 394.792,62.032 395.983,61.994 397.175,61.956 398.366,61.919 399.558,61.881 400.749,61.844 401.941,61.807 403.132,61.771 404.324,61.734 405.516,61.698 406.707,61.662 407.899,61.626 409.090,61.590 410.282,61.554 411.473,61.519 412.665,61.484 413.857,61.449 415.048,61.414 416.240,61.379 417.431,61.345 "
             id="polyline146"
             style="fill:none;stroke:#000000;stroke-width:0.5pt;stroke-dasharray:8, 2" />
          <g
             id="g148" />
        </g>
        <g
           id="ID000009">
          <g
             transform="translate(444.538,54.009)"
             id="g151">
            <g
               transform="matrix(0,-1,1,0,0,0)"
               id="g153">
              <text
                 x="0"
                 y="0"
                 font-size="11pt"
                 id="text155"
                 style="font-size:13.75px;text-anchor:middle;fill:#000000;font-family:Times New Roman">Derivative of Power ($\dot{p}$) [ ]</text>
            </g>
          </g>
        </g>
        <g
           id="ID000010" />
        <g
           id="ID000011" />
      </g>
      <g
         id="g159">
        <polyline
           points="59.962,97.500 59.962,93.925 "
           id="polyline161"
           style="fill:none;stroke:#000000;stroke-width:0.5pt;stroke-dasharray:none" />
        <polyline
           points="119.541,97.500 119.541,93.925 "
           id="polyline163"
           style="fill:none;stroke:#000000;stroke-width:0.5pt;stroke-dasharray:none" />
        <polyline
           points="179.119,97.500 179.119,93.925 "
           id="polyline165"
           style="fill:none;stroke:#000000;stroke-width:0.5pt;stroke-dasharray:none" />
        <polyline
           points="238.697,97.500 238.697,93.925 "
           id="polyline167"
           style="fill:none;stroke:#000000;stroke-width:0.5pt;stroke-dasharray:none" />
        <polyline
           points="298.275,97.500 298.275,93.925 "
           id="polyline169"
           style="fill:none;stroke:#000000;stroke-width:0.5pt;stroke-dasharray:none" />
        <polyline
           points="357.853,97.500 357.853,93.925 "
           id="polyline171"
           style="fill:none;stroke:#000000;stroke-width:0.5pt;stroke-dasharray:none" />
        <polyline
           points="59.962,97.500 417.431,97.500 "
           id="polyline173"
           style="fill:none;stroke:#000000;stroke-width:0.5pt;stroke-dasharray:none" />
        <g
           transform="translate(59.962,112.552)"
           id="g175">
          <g
             id="g177">
            <text
               x="0"
               y="0"
               font-size="11pt"
               id="text179"
               style="font-size:13.75px;text-anchor:middle;fill:#000000;font-family:Times New Roman">0</text>
          </g>
        </g>
        <g
           transform="translate(119.541,112.552)"
           id="g181">
          <g
             id="g183">
            <text
               x="0"
               y="0"
               font-size="11pt"
               id="text185"
               style="font-size:13.75px;text-anchor:middle;fill:#000000;font-family:Times New Roman">0.05</text>
          </g>
        </g>
        <g
           transform="translate(179.119,112.552)"
           id="g187">
          <g
             id="g189">
            <text
               x="0"
               y="0"
               font-size="11pt"
               id="text191"
               style="font-size:13.75px;text-anchor:middle;fill:#000000;font-family:Times New Roman">0.1</text>
          </g>
        </g>
        <g
           transform="translate(238.697,112.552)"
           id="g193">
          <g
             id="g195">
            <text
               x="0"
               y="0"
               font-size="11pt"
               id="text197"
               style="font-size:13.75px;text-anchor:middle;fill:#000000;font-family:Times New Roman">0.15</text>
          </g>
        </g>
        <g
           transform="translate(298.275,112.552)"
           id="g199">
          <g
             id="g201">
            <text
               x="0"
               y="0"
               font-size="11pt"
               id="text203"
               style="font-size:13.75px;text-anchor:middle;fill:#000000;font-family:Times New Roman">0.2</text>
          </g>
        </g>
        <g
           transform="translate(357.853,112.552)"
           id="g205">
          <g
             id="g207">
            <text
               x="0"
               y="0"
               font-size="11pt"
               id="text209"
               style="font-size:13.75px;text-anchor:middle;fill:#000000;font-family:Times New Roman">0.25</text>
          </g>
        </g>
        <polyline
           points="417.431,53.074 413.857,53.074 "
           id="polyline211"
           style="fill:none;stroke:#000000;stroke-width:0.5pt;stroke-dasharray:none" />
        <polyline
           points="417.431,97.500 417.431,8.648 "
           id="polyline213"
           style="fill:none;stroke:#000000;stroke-width:0.5pt;stroke-dasharray:none" />
        <g
           transform="translate(424.581,58.137)"
           id="g215">
          <g
             id="g217">
            <text
               x="0"
               y="0"
               font-size="11pt"
               id="text219"
               style="font-size:13.75px;text-anchor:start;fill:#000000;font-family:Times New Roman">0</text>
          </g>
        </g>
        <polyline
           points="59.962,97.500 59.962,96.611 "
           id="polyline221"
           style="fill:none;stroke:#000000;stroke-width:0.5pt;stroke-dasharray:none" />
        <polyline
           points="59.962,97.500 59.962,96.611 "
           id="polyline223"
           style="fill:none;stroke:#000000;stroke-width:0.5pt;stroke-dasharray:none" />
        <polyline
           points="59.962,97.500 59.962,96.611 "
           id="polyline225"
           style="fill:none;stroke:#000000;stroke-width:0.5pt;stroke-dasharray:none" />
        <polyline
           points="59.962,97.500 59.962,97.500 "
           id="polyline227"
           style="fill:none;stroke:#000000;stroke-width:0.5pt;stroke-dasharray:none" />
      </g>
    </g>
  </g>
</svg>
