<?xml version="1.0" encoding="UTF-8" standalone="no"?>
<svg
   xmlns:dc="http://purl.org/dc/elements/1.1/"
   xmlns:cc="http://creativecommons.org/ns#"
   xmlns:rdf="http://www.w3.org/1999/02/22-rdf-syntax-ns#"
   xmlns:svg="http://www.w3.org/2000/svg"
   xmlns="http://www.w3.org/2000/svg"
   xmlns:sodipodi="http://sodipodi.sourceforge.net/DTD/sodipodi-0.dtd"
   xmlns:inkscape="http://www.inkscape.org/namespaces/inkscape"
   preserveAspectRatio="xMinYMin meet"
   width="100%"
   height="100%"
   viewBox="0 0 461.25 132.87401"
   version="1.1"
   id="svg2"
   inkscape:version="0.48.4 r9939"
   sodipodi:docname="nucl511hmwk8prob2plot3.svg">
  <metadata
     id="metadata253">
    <rdf:RDF>
      <cc:Work
         rdf:about="">
        <dc:format>image/svg+xml</dc:format>
        <dc:type
           rdf:resource="http://purl.org/dc/dcmitype/StillImage" />
      </cc:Work>
    </rdf:RDF>
  </metadata>
  <defs
     id="defs251" />
  <sodipodi:namedview
     pagecolor="#ffffff"
     bordercolor="#666666"
     borderopacity="1"
     objecttolerance="10"
     gridtolerance="10"
     guidetolerance="10"
     inkscape:pageopacity="0"
     inkscape:pageshadow="2"
     inkscape:window-width="640"
     inkscape:window-height="480"
     id="namedview249"
     showgrid="false"
     units="cm"
     inkscape:zoom="0.68509485"
     inkscape:cx="230.625"
     inkscape:cy="57.6565"
     inkscape:window-x="0"
     inkscape:window-y="0"
     inkscape:window-maximized="0"
     inkscape:current-layer="svg2" />
  <desc
     id="desc4">Matlab Figure Converted by PLOT2SVG written by Juerg Schwizer</desc>
  <g
     id="ID000000"
     transform="translate(0,-2.4390321)">
    <clipPath
       id="ID000001">
      <rect
         id="rect11"
         height="88.851997"
         width="357.46899"
         y="8.6479998"
         x="59.962002" />
    </clipPath>
    <polygon
       style="fill:#ffffff;fill-opacity:1;stroke:none"
       id="polygon13"
       points="417.431,97.5 417.431,8.648 59.962,8.648 59.962,97.5 " />
    <polygon
       style="fill:#ffffff;fill-opacity:1;stroke:none"
       id="polygon15"
       points="417.431,8.648 417.431,8.648 59.962,8.648 59.962,8.648 " />
    <polygon
       style="fill:#ffffff;fill-opacity:1;stroke:none"
       id="polygon17"
       points="59.962,97.5 59.962,8.648 59.962,8.648 59.962,97.5 " />
    <g
       id="g19">
      <g
         clip-path="url(#ID000001)"
         id="ID000002">
        <polyline
           style="fill:none;stroke:#000000;stroke-width:0.5pt;stroke-dasharray:none"
           id="polyline22"
           points="59.962,74.963 61.154,68.020 62.346,65.822 63.537,65.076 64.729,64.774 65.920,64.609 67.112,64.486 68.303,64.374 69.495,64.265 70.687,64.156 71.878,64.046 73.070,63.934 74.261,63.822 75.453,63.707 76.644,63.592 77.836,63.475 79.027,63.356 80.219,63.236 81.411,63.114 82.602,62.990 83.794,62.865 84.985,62.738 86.177,62.610 87.368,62.480 88.560,62.348 89.752,62.214 90.943,62.079 92.135,61.941 93.326,61.802 94.518,61.661 95.709,61.518 96.901,61.373 98.093,61.226 99.284,61.077 100.476,60.926 101.667,60.773 102.859,60.617 104.050,60.460 105.242,60.300 106.433,60.138 107.625,59.973 108.817,59.806 110.008,59.637 111.200,59.466 112.391,59.292 113.583,59.115 114.774,58.936 115.966,58.754 117.158,58.569 118.349,58.382 119.541,58.192 120.732,57.998 121.924,57.803 123.115,57.604 124.307,57.402 125.498,57.196 126.690,56.988 127.882,56.777 129.073,56.562 130.265,56.344 131.456,56.122 132.648,55.897 133.839,55.668 135.031,55.436 136.223,55.200 137.414,54.960 138.606,54.716 139.797,54.468 140.989,54.216 142.180,53.960 143.372,53.699 144.563,53.434 145.755,53.165 146.947,52.891 148.138,52.612 149.330,52.328 150.521,52.040 151.713,51.746 152.904,51.447 154.096,51.143 155.288,50.834 156.479,50.518 157.671,50.198 158.862,49.871 160.054,49.538 161.245,49.199 162.437,48.854 163.628,48.502 164.820,48.143 166.012,47.778 167.203,47.406 168.395,47.026 169.586,46.639 170.778,46.244 171.969,45.841 173.161,45.431 174.352,45.012 175.544,44.584 176.736,44.148 177.927,43.702 179.119,43.247 180.310,43.218 181.502,43.387 182.693,43.647 183.885,43.949 185.077,44.268 186.268,44.593 187.460,44.919 188.651,45.245 189.843,45.568 191.034,45.888 192.226,46.206 193.417,46.520 194.609,46.832 195.801,47.141 196.992,47.447 198.184,47.750 199.375,48.050 200.567,48.347 201.758,48.642 202.950,48.934 204.142,49.223 205.333,49.510 206.525,49.794 207.716,50.075 208.908,50.354 210.099,50.630 211.291,50.904 212.483,51.175 213.674,51.444 214.866,51.711 216.057,51.975 217.249,52.237 218.440,52.497 219.632,52.754 220.823,53.009 222.015,53.262 223.207,53.513 224.398,53.761 225.590,54.007 226.781,54.252 227.973,54.494 229.164,54.734 230.356,54.972 231.548,55.208 232.739,55.442 233.931,55.675 235.122,55.905 236.314,56.133 237.505,56.359 238.697,56.584 239.888,56.807 241.080,57.027 242.272,57.246 243.463,57.464 244.655,57.679 245.846,57.893 247.038,58.105 248.229,58.315 249.421,58.524 250.612,58.731 251.804,58.936 252.996,59.140 254.187,59.342 255.379,59.542 256.570,59.741 257.762,59.938 258.953,60.134 260.145,60.328 261.337,60.521 262.528,60.712 263.720,60.902 264.911,61.090 266.103,61.277 267.294,61.463 268.486,61.647 269.678,61.829 270.869,62.011 272.061,62.190 273.252,62.369 274.444,62.546 275.635,62.722 276.827,62.896 278.018,63.069 279.210,63.241 280.402,63.412 281.593,63.581 282.785,63.750 283.976,63.916 285.168,64.082 286.359,64.247 287.551,64.410 288.743,64.572 289.934,64.733 291.126,64.893 292.317,65.051 293.509,65.209 294.700,65.365 295.892,65.520 297.083,65.674 298.275,65.827 299.467,65.979 300.658,66.130 301.850,66.280 303.041,66.428 304.233,66.576 305.424,66.723 306.616,66.868 307.808,67.013 308.999,67.156 310.191,67.299 311.382,67.441 312.574,67.581 313.765,67.721 314.957,67.860 316.148,67.997 317.340,68.134 318.532,68.270 319.723,68.405 320.915,68.539 322.106,68.672 323.298,68.805 324.489,68.936 325.681,69.066 326.873,69.196 328.064,69.325 329.256,69.453 330.447,69.580 331.639,69.706 332.830,69.831 334.022,69.956 335.213,70.080 336.405,70.202 337.597,70.325 338.788,70.446 339.980,70.566 341.171,70.686 342.363,70.805 343.554,70.923 344.746,71.041 345.938,71.157 347.129,71.273 348.321,71.389 349.512,71.503 350.704,71.617 351.895,71.730 353.087,71.842 354.278,71.953 355.470,72.064 356.662,72.174 357.853,72.284 359.045,72.393 360.236,72.501 361.428,72.608 362.619,72.715 363.811,72.821 365.003,72.926 366.194,73.031 367.386,73.135 368.577,73.239 369.769,73.342 370.960,73.444 372.152,73.546 373.343,73.646 374.535,73.747 375.727,73.847 376.918,73.946 378.110,74.044 379.301,74.142 380.493,74.239 381.684,74.336 382.876,74.432 384.067,74.528 385.259,74.623 386.451,74.717 387.642,74.811 388.834,74.905 390.025,74.997 391.217,75.090 392.408,75.181 393.600,75.273 394.792,75.363 395.983,75.453 397.175,75.543 398.366,75.632 399.558,75.720 400.749,75.808 401.941,75.896 403.132,75.983 404.324,76.069 405.516,76.155 406.707,76.240 407.899,76.325 409.090,76.410 410.282,76.494 411.473,76.577 412.665,76.660 413.857,76.743 415.048,76.825 416.240,76.907 417.431,76.988 " />
        <g
           id="g24" />
      </g>
      <g
         id="ID000003">
        <g
           id="g27"
           transform="translate(237.759,132.037)">
          <g
             id="g29">
            <text
               style="font-size:13.75px;text-anchor:middle;fill:#000000;font-family:Times New Roman"
               id="text31"
               font-size="11pt"
               y="0"
               x="0">Time ($t$) [$s$]</text>
          </g>
        </g>
      </g>
      <g
         id="ID000004">
        <g
           id="g34"
           transform="translate(13.522,54.009)">
          <g
             id="g36"
             transform="matrix(0,-1,1,0,0,0)">
            <text
               style="font-size:13.75px;text-anchor:middle;fill:#000000;font-family:Times New Roman"
               id="text38"
               font-size="11pt"
               y="0"
               x="0">Power Amplitude ($p$) [ ]</text>
          </g>
        </g>
      </g>
      <g
         id="ID000005" />
    </g>
    <g
       id="g41">
      <polyline
         style="fill:none;stroke:#000000;stroke-width:0.5pt;stroke-dasharray:none"
         id="polyline43"
         points="119.541,97.500 119.541,93.925 " />
      <polyline
         style="fill:none;stroke:#000000;stroke-width:0.5pt;stroke-dasharray:none"
         id="polyline45"
         points="179.119,97.500 179.119,93.925 " />
      <polyline
         style="fill:none;stroke:#000000;stroke-width:0.5pt;stroke-dasharray:none"
         id="polyline47"
         points="238.697,97.500 238.697,93.925 " />
      <polyline
         style="fill:none;stroke:#000000;stroke-width:0.5pt;stroke-dasharray:none"
         id="polyline49"
         points="298.275,97.500 298.275,93.925 " />
      <polyline
         style="fill:none;stroke:#000000;stroke-width:0.5pt;stroke-dasharray:none"
         id="polyline51"
         points="357.853,97.500 357.853,93.925 " />
      <polyline
         style="fill:none;stroke:#000000;stroke-width:0.5pt;stroke-dasharray:none"
         id="polyline53"
         points="59.962,97.500 417.431,97.500 " />
      <polyline
         style="fill:none;stroke:#000000;stroke-width:0.5pt;stroke-dasharray:none"
         id="polyline55"
         points="119.541,8.648 119.541,12.223 " />
      <polyline
         style="fill:none;stroke:#000000;stroke-width:0.5pt;stroke-dasharray:none"
         id="polyline57"
         points="179.119,8.648 179.119,12.223 " />
      <polyline
         style="fill:none;stroke:#000000;stroke-width:0.5pt;stroke-dasharray:none"
         id="polyline59"
         points="238.697,8.648 238.697,12.223 " />
      <polyline
         style="fill:none;stroke:#000000;stroke-width:0.5pt;stroke-dasharray:none"
         id="polyline61"
         points="298.275,8.648 298.275,12.223 " />
      <polyline
         style="fill:none;stroke:#000000;stroke-width:0.5pt;stroke-dasharray:none"
         id="polyline63"
         points="357.853,8.648 357.853,12.223 " />
      <polyline
         style="fill:none;stroke:#000000;stroke-width:0.5pt;stroke-dasharray:none"
         id="polyline65"
         points="59.962,8.648 417.431,8.648 " />
      <g
         id="g67"
         transform="translate(59.962,112.552)">
        <g
           id="g69">
          <text
             style="font-size:13.75px;text-anchor:middle;fill:#000000;font-family:Times New Roman"
             id="text71"
             font-size="11pt"
             y="0"
             x="0">0</text>
        </g>
      </g>
      <g
         id="g73"
         transform="translate(119.541,112.552)">
        <g
           id="g75">
          <text
             style="font-size:13.75px;text-anchor:middle;fill:#000000;font-family:Times New Roman"
             id="text77"
             font-size="11pt"
             y="0"
             x="0">0.05</text>
        </g>
      </g>
      <g
         id="g79"
         transform="translate(179.119,112.552)">
        <g
           id="g81">
          <text
             style="font-size:13.75px;text-anchor:middle;fill:#000000;font-family:Times New Roman"
             id="text83"
             font-size="11pt"
             y="0"
             x="0">0.1</text>
        </g>
      </g>
      <g
         id="g85"
         transform="translate(238.697,112.552)">
        <g
           id="g87">
          <text
             style="font-size:13.75px;text-anchor:middle;fill:#000000;font-family:Times New Roman"
             id="text89"
             font-size="11pt"
             y="0"
             x="0">0.15</text>
        </g>
      </g>
      <g
         id="g91"
         transform="translate(298.275,112.552)">
        <g
           id="g93">
          <text
             style="font-size:13.75px;text-anchor:middle;fill:#000000;font-family:Times New Roman"
             id="text95"
             font-size="11pt"
             y="0"
             x="0">0.2</text>
        </g>
      </g>
      <g
         id="g97"
         transform="translate(357.853,112.552)">
        <g
           id="g99">
          <text
             style="font-size:13.75px;text-anchor:middle;fill:#000000;font-family:Times New Roman"
             id="text101"
             font-size="11pt"
             y="0"
             x="0">0.25</text>
        </g>
      </g>
      <polyline
         style="fill:none;stroke:#000000;stroke-width:0.5pt;stroke-dasharray:none"
         id="polyline103"
         points="59.962,75.287 63.537,75.287 " />
      <polyline
         style="fill:none;stroke:#000000;stroke-width:0.5pt;stroke-dasharray:none"
         id="polyline105"
         points="59.962,53.074 63.537,53.074 " />
      <polyline
         style="fill:none;stroke:#000000;stroke-width:0.5pt;stroke-dasharray:none"
         id="polyline107"
         points="59.962,30.861 63.537,30.861 " />
      <polyline
         style="fill:none;stroke:#000000;stroke-width:0.5pt;stroke-dasharray:none"
         id="polyline109"
         points="59.962,97.500 59.962,8.648 " />
      <polyline
         style="fill:none;stroke:#000000;stroke-width:0.5pt;stroke-dasharray:none"
         id="polyline111"
         points="417.431,75.287 413.857,75.287 " />
      <polyline
         style="fill:none;stroke:#000000;stroke-width:0.5pt;stroke-dasharray:none"
         id="polyline113"
         points="417.431,53.074 413.857,53.074 " />
      <polyline
         style="fill:none;stroke:#000000;stroke-width:0.5pt;stroke-dasharray:none"
         id="polyline115"
         points="417.431,30.861 413.857,30.861 " />
      <polyline
         style="fill:none;stroke:#000000;stroke-width:0.5pt;stroke-dasharray:none"
         id="polyline117"
         points="417.431,97.500 417.431,8.648 " />
      <g
         id="g119"
         transform="translate(52.813,102.562)">
        <g
           id="g121">
          <text
             style="font-size:13.75px;text-anchor:end;fill:#000000;font-family:Times New Roman"
             id="text123"
             font-size="11pt"
             y="0"
             x="0">0</text>
        </g>
      </g>
      <g
         id="g125"
         transform="translate(52.813,80.35)">
        <g
           id="g127">
          <text
             style="font-size:13.75px;text-anchor:end;fill:#000000;font-family:Times New Roman"
             id="text129"
             font-size="11pt"
             y="0"
             x="0">500</text>
        </g>
      </g>
      <g
         id="g131"
         transform="translate(52.813,58.137)">
        <g
           id="g133">
          <text
             style="font-size:13.75px;text-anchor:end;fill:#000000;font-family:Times New Roman"
             id="text135"
             font-size="11pt"
             y="0"
             x="0">1000</text>
        </g>
      </g>
      <g
         id="g137"
         transform="translate(52.813,35.924)">
        <g
           id="g139">
          <text
             style="font-size:13.75px;text-anchor:end;fill:#000000;font-family:Times New Roman"
             id="text141"
             font-size="11pt"
             y="0"
             x="0">1500</text>
        </g>
      </g>
      <g
         id="g143"
         transform="translate(52.813,13.711)">
        <g
           id="g145">
          <text
             style="font-size:13.75px;text-anchor:end;fill:#000000;font-family:Times New Roman"
             id="text147"
             font-size="11pt"
             y="0"
             x="0">2000</text>
        </g>
      </g>
      <polyline
         style="fill:none;stroke:#000000;stroke-width:0.5pt;stroke-dasharray:none"
         id="polyline149"
         points="59.962,97.500 59.962,96.611 " />
      <polyline
         style="fill:none;stroke:#000000;stroke-width:0.5pt;stroke-dasharray:none"
         id="polyline151"
         points="59.962,97.500 59.962,97.500 " />
    </g>
  </g>
  <g
     id="ID000006"
     transform="translate(0,-2.4390321)">
    <clipPath
       id="ID000007">
      <rect
         id="rect155"
         height="88.851997"
         width="357.46899"
         y="8.6479998"
         x="59.962002" />
    </clipPath>
    <polygon
       style="fill:#000000;fill-opacity:0;stroke:none"
       id="polygon157"
       points="417.431,97.5 417.431,8.648 59.962,8.648 59.962,97.5 " />
    <polygon
       style="fill:#000000;fill-opacity:0;stroke:none"
       id="polygon159"
       points="417.431,97.5 417.431,97.5 59.962,97.5 59.962,97.5 " />
    <polygon
       style="fill:#000000;fill-opacity:0;stroke:none"
       id="polygon161"
       points="59.962,97.5 59.962,8.648 59.962,8.648 59.962,97.5 " />
    <g
       id="g163">
      <g
         clip-path="url(#ID000007)"
         id="ID000008">
        <polyline
           style="fill:none;stroke:#000000;stroke-width:0.5pt;stroke-dasharray:8, 2"
           id="polyline166"
           points="59.962,-2196.191 61.154,-641.175 62.346,-166.755 63.537,-21.576 64.729,22.943 65.920,36.580 67.112,40.708 68.303,41.897 69.495,42.174 70.687,42.166 71.878,42.067 73.070,41.938 74.261,41.799 75.453,41.654 76.644,41.506 77.836,41.355 79.027,41.202 80.219,41.047 81.411,40.888 82.602,40.728 83.794,40.564 84.985,40.398 86.177,40.229 87.368,40.058 88.560,39.883 89.752,39.705 90.943,39.525 92.135,39.341 93.326,39.154 94.518,38.964 95.709,38.770 96.901,38.573 98.093,38.373 99.284,38.169 100.476,37.961 101.667,37.750 102.859,37.534 104.050,37.315 105.242,37.092 106.433,36.864 107.625,36.633 108.817,36.397 110.008,36.156 111.200,35.911 112.391,35.661 113.583,35.407 114.774,35.147 115.966,34.882 117.158,34.613 118.349,34.337 119.541,34.057 120.732,33.770 121.924,33.478 123.115,33.180 124.307,32.876 125.498,32.566 126.690,32.249 127.882,31.925 129.073,31.595 130.265,31.257 131.456,30.913 132.648,30.561 133.839,30.201 135.031,29.833 136.223,29.458 137.414,29.074 138.606,28.681 139.797,28.279 140.989,27.869 142.180,27.449 143.372,27.019 144.563,26.580 145.755,26.130 146.947,25.669 148.138,25.198 149.330,24.715 150.521,24.221 151.713,23.714 152.904,23.195 154.096,22.664 155.288,22.119 156.479,21.560 157.671,20.987 158.862,20.400 160.054,19.797 161.245,19.179 162.437,18.544 163.628,17.893 164.820,17.224 166.012,16.537 167.203,15.832 168.395,15.107 169.586,14.363 170.778,13.597 171.969,12.811 173.161,12.001 174.352,11.169 175.544,10.312 176.736,9.431 177.927,8.523 179.119,7.589 180.310,50.134 181.502,69.980 182.693,79.118 183.885,83.218 185.077,84.958 186.268,85.594 187.460,85.718 188.651,85.605 189.843,85.386 191.034,85.118 192.226,84.832 193.417,84.538 194.609,84.244 195.801,83.951 196.992,83.661 198.184,83.374 199.375,83.092 200.567,82.812 201.758,82.537 202.950,82.265 204.142,81.997 205.333,81.732 206.525,81.471 207.716,81.213 208.908,80.958 210.099,80.707 211.291,80.458 212.483,80.213 213.674,79.972 214.866,79.733 216.057,79.497 217.249,79.264 218.440,79.034 219.632,78.807 220.823,78.583 222.015,78.361 223.207,78.142 224.398,77.926 225.590,77.713 226.781,77.502 227.973,77.293 229.164,77.087 230.356,76.884 231.548,76.683 232.739,76.485 233.931,76.288 235.122,76.094 236.314,75.903 237.505,75.713 238.697,75.526 239.888,75.341 241.080,75.158 242.272,74.977 243.463,74.799 244.655,74.622 245.846,74.447 247.038,74.275 248.229,74.104 249.421,73.935 250.612,73.768 251.804,73.603 252.996,73.440 254.187,73.279 255.379,73.119 256.570,72.961 257.762,72.805 258.953,72.651 260.145,72.498 261.337,72.347 262.528,72.198 263.720,72.050 264.911,71.904 266.103,71.759 267.294,71.616 268.486,71.474 269.678,71.334 270.869,71.196 272.061,71.059 273.252,70.923 274.444,70.789 275.635,70.656 276.827,70.524 278.018,70.394 279.210,70.265 280.402,70.138 281.593,70.012 282.785,69.887 283.976,69.763 285.168,69.641 286.359,69.520 287.551,69.400 288.743,69.281 289.934,69.164 291.126,69.047 292.317,68.932 293.509,68.818 294.700,68.705 295.892,68.594 297.083,68.483 298.275,68.373 299.467,68.265 300.658,68.157 301.850,68.051 303.041,67.945 304.233,67.841 305.424,67.738 306.616,67.635 307.808,67.534 308.999,67.434 310.191,67.334 311.382,67.236 312.574,67.138 313.765,67.041 314.957,66.946 316.148,66.851 317.340,66.757 318.532,66.664 319.723,66.571 320.915,66.480 322.106,66.389 323.298,66.300 324.489,66.211 325.681,66.123 326.873,66.036 328.064,65.949 329.256,65.863 330.447,65.779 331.639,65.694 332.830,65.611 334.022,65.528 335.213,65.446 336.405,65.365 337.597,65.285 338.788,65.205 339.980,65.126 341.171,65.048 342.363,64.970 343.554,64.893 344.746,64.817 345.938,64.741 347.129,64.666 348.321,64.592 349.512,64.519 350.704,64.446 351.895,64.373 353.087,64.301 354.278,64.230 355.470,64.160 356.662,64.090 357.853,64.020 359.045,63.952 360.236,63.884 361.428,63.816 362.619,63.749 363.811,63.683 365.003,63.617 366.194,63.551 367.386,63.487 368.577,63.422 369.769,63.359 370.960,63.295 372.152,63.233 373.343,63.171 374.535,63.109 375.727,63.048 376.918,62.987 378.110,62.927 379.301,62.867 380.493,62.808 381.684,62.749 382.876,62.691 384.067,62.634 385.259,62.576 386.451,62.519 387.642,62.463 388.834,62.407 390.025,62.352 391.217,62.297 392.408,62.242 393.600,62.188 394.792,62.134 395.983,62.081 397.175,62.028 398.366,61.976 399.558,61.923 400.749,61.872 401.941,61.821 403.132,61.770 404.324,61.719 405.516,61.669 406.707,61.620 407.899,61.570 409.090,61.521 410.282,61.473 411.473,61.425 412.665,61.377 413.857,61.329 415.048,61.282 416.240,61.236 417.431,61.189 " />
        <g
           id="g168" />
      </g>
      <g
         id="ID000009">
        <g
           id="g171"
           transform="translate(444.538,54.009)">
          <g
             id="g173"
             transform="matrix(0,-1,1,0,0,0)">
            <text
               style="font-size:13.75px;text-anchor:middle;fill:#000000;font-family:Times New Roman"
               id="text175"
               font-size="11pt"
               y="0"
               x="0">Derivative of Power ($\dot{p}$) [ ]</text>
          </g>
        </g>
      </g>
      <g
         id="ID000010" />
      <g
         id="ID000011" />
    </g>
    <g
       id="g179">
      <polyline
         style="fill:none;stroke:#000000;stroke-width:0.5pt;stroke-dasharray:none"
         id="polyline181"
         points="59.962,97.500 59.962,93.925 " />
      <polyline
         style="fill:none;stroke:#000000;stroke-width:0.5pt;stroke-dasharray:none"
         id="polyline183"
         points="119.541,97.500 119.541,93.925 " />
      <polyline
         style="fill:none;stroke:#000000;stroke-width:0.5pt;stroke-dasharray:none"
         id="polyline185"
         points="179.119,97.500 179.119,93.925 " />
      <polyline
         style="fill:none;stroke:#000000;stroke-width:0.5pt;stroke-dasharray:none"
         id="polyline187"
         points="238.697,97.500 238.697,93.925 " />
      <polyline
         style="fill:none;stroke:#000000;stroke-width:0.5pt;stroke-dasharray:none"
         id="polyline189"
         points="298.275,97.500 298.275,93.925 " />
      <polyline
         style="fill:none;stroke:#000000;stroke-width:0.5pt;stroke-dasharray:none"
         id="polyline191"
         points="357.853,97.500 357.853,93.925 " />
      <polyline
         style="fill:none;stroke:#000000;stroke-width:0.5pt;stroke-dasharray:none"
         id="polyline193"
         points="59.962,97.500 417.431,97.500 " />
      <g
         id="g195"
         transform="translate(59.962,112.552)">
        <g
           id="g197">
          <text
             style="font-size:13.75px;text-anchor:middle;fill:#000000;font-family:Times New Roman"
             id="text199"
             font-size="11pt"
             y="0"
             x="0">0</text>
        </g>
      </g>
      <g
         id="g201"
         transform="translate(119.541,112.552)">
        <g
           id="g203">
          <text
             style="font-size:13.75px;text-anchor:middle;fill:#000000;font-family:Times New Roman"
             id="text205"
             font-size="11pt"
             y="0"
             x="0">0.05</text>
        </g>
      </g>
      <g
         id="g207"
         transform="translate(179.119,112.552)">
        <g
           id="g209">
          <text
             style="font-size:13.75px;text-anchor:middle;fill:#000000;font-family:Times New Roman"
             id="text211"
             font-size="11pt"
             y="0"
             x="0">0.1</text>
        </g>
      </g>
      <g
         id="g213"
         transform="translate(238.697,112.552)">
        <g
           id="g215">
          <text
             style="font-size:13.75px;text-anchor:middle;fill:#000000;font-family:Times New Roman"
             id="text217"
             font-size="11pt"
             y="0"
             x="0">0.15</text>
        </g>
      </g>
      <g
         id="g219"
         transform="translate(298.275,112.552)">
        <g
           id="g221">
          <text
             style="font-size:13.75px;text-anchor:middle;fill:#000000;font-family:Times New Roman"
             id="text223"
             font-size="11pt"
             y="0"
             x="0">0.2</text>
        </g>
      </g>
      <g
         id="g225"
         transform="translate(357.853,112.552)">
        <g
           id="g227">
          <text
             style="font-size:13.75px;text-anchor:middle;fill:#000000;font-family:Times New Roman"
             id="text229"
             font-size="11pt"
             y="0"
             x="0">0.25</text>
        </g>
      </g>
      <polyline
         style="fill:none;stroke:#000000;stroke-width:0.5pt;stroke-dasharray:none"
         id="polyline231"
         points="417.431,53.074 413.857,53.074 " />
      <polyline
         style="fill:none;stroke:#000000;stroke-width:0.5pt;stroke-dasharray:none"
         id="polyline233"
         points="417.431,97.500 417.431,8.648 " />
      <g
         id="g235"
         transform="translate(424.581,58.137)">
        <g
           id="g237">
          <text
             style="font-size:13.75px;text-anchor:start;fill:#000000;font-family:Times New Roman"
             id="text239"
             font-size="11pt"
             y="0"
             x="0">0</text>
        </g>
      </g>
      <polyline
         style="fill:none;stroke:#000000;stroke-width:0.5pt;stroke-dasharray:none"
         id="polyline241"
         points="59.962,97.500 59.962,96.611 " />
      <polyline
         style="fill:none;stroke:#000000;stroke-width:0.5pt;stroke-dasharray:none"
         id="polyline243"
         points="59.962,97.500 59.962,96.611 " />
      <polyline
         style="fill:none;stroke:#000000;stroke-width:0.5pt;stroke-dasharray:none"
         id="polyline245"
         points="59.962,97.500 59.962,96.611 " />
      <polyline
         style="fill:none;stroke:#000000;stroke-width:0.5pt;stroke-dasharray:none"
         id="polyline247"
         points="59.962,97.500 59.962,97.500 " />
    </g>
  </g>
</svg>
