<?xml version="1.0" encoding="UTF-8" standalone="no"?>
<svg
   xmlns:dc="http://purl.org/dc/elements/1.1/"
   xmlns:cc="http://creativecommons.org/ns#"
   xmlns:rdf="http://www.w3.org/1999/02/22-rdf-syntax-ns#"
   xmlns:svg="http://www.w3.org/2000/svg"
   xmlns="http://www.w3.org/2000/svg"
   xmlns:sodipodi="http://sodipodi.sourceforge.net/DTD/sodipodi-0.dtd"
   xmlns:inkscape="http://www.inkscape.org/namespaces/inkscape"
   preserveAspectRatio="xMinYMin meet"
   width="100%"
   height="100%"
   viewBox="0 0 461.33857 132.87401"
   version="1.1"
   id="svg2"
   inkscape:version="0.48.4 r9939"
   sodipodi:docname="nucl511hmwk8prob2plot5.svg">
  <metadata
     id="metadata233">
    <rdf:RDF>
      <cc:Work
         rdf:about="">
        <dc:format>image/svg+xml</dc:format>
        <dc:type
           rdf:resource="http://purl.org/dc/dcmitype/StillImage" />
      </cc:Work>
    </rdf:RDF>
  </metadata>
  <defs
     id="defs231" />
  <sodipodi:namedview
     pagecolor="#ffffff"
     bordercolor="#666666"
     borderopacity="1"
     objecttolerance="10"
     gridtolerance="10"
     guidetolerance="10"
     inkscape:pageopacity="0"
     inkscape:pageshadow="2"
     inkscape:window-width="640"
     inkscape:window-height="480"
     id="namedview229"
     showgrid="false"
     units="cm"
     inkscape:zoom="0.68509485"
     inkscape:cx="230.625"
     inkscape:cy="57.6565"
     inkscape:window-x="0"
     inkscape:window-y="0"
     inkscape:window-maximized="0"
     inkscape:current-layer="svg2" />
  <desc
     id="desc4">Matlab Figure Converted by PLOT2SVG written by Juerg Schwizer</desc>
  <g
     id="topgroup"
     transform="translate(0,-2.439029)">
    <rect
       x="0"
       y="0"
       width="461.25"
       height="115.313"
       id="rect7"
       style="fill:#ffffff;stroke:none" />
    <g
       id="ID000000">
      <clipPath
         id="ID000001">
        <rect
           x="59.962002"
           y="8.6479998"
           width="357.46899"
           height="88.851997"
           id="rect11" />
      </clipPath>
      <polygon
         points="417.431,8.648 59.962,8.648 59.962,97.5 417.431,97.5 "
         id="polygon13"
         style="fill:#ffffff;fill-opacity:1;stroke:none" />
      <polygon
         points="417.431,8.648 59.962,8.648 59.962,8.648 417.431,8.648 "
         id="polygon15"
         style="fill:#ffffff;fill-opacity:1;stroke:none" />
      <polygon
         points="59.962,8.648 59.962,8.648 59.962,97.5 59.962,97.5 "
         id="polygon17"
         style="fill:#ffffff;fill-opacity:1;stroke:none" />
      <g
         id="g19">
        <g
           id="ID000002"
           clip-path="url(#ID000001)">
          <polyline
             points="59.962,96.852 61.154,82.967 62.346,78.570 63.537,77.077 64.729,76.474 65.920,76.145 67.112,75.897 68.303,75.674 69.495,75.456 70.687,75.238 71.878,75.017 73.070,74.795 74.261,74.569 75.453,74.341 76.644,74.109 77.836,73.875 79.027,73.638 80.219,73.397 81.411,73.153 82.602,72.906 83.794,72.656 84.985,72.403 86.177,72.146 87.368,71.885 88.560,71.622 89.752,71.354 90.943,71.083 92.135,70.809 93.326,70.530 94.518,70.248 95.709,69.962 96.901,69.672 98.093,69.378 99.284,69.080 100.476,68.777 101.667,68.471 102.859,68.160 104.050,67.845 105.242,67.525 106.433,67.201 107.625,66.872 108.817,66.539 110.008,66.200 111.200,65.857 112.391,65.509 113.583,65.155 114.774,64.797 115.966,64.433 117.158,64.064 118.349,63.689 119.541,63.309 120.732,62.923 121.924,62.531 123.115,62.133 124.307,61.729 125.498,61.319 126.690,60.902 127.882,60.479 129.073,60.050 130.265,59.613 131.456,59.170 132.648,58.720 133.839,58.262 135.031,57.798 136.223,57.325 137.414,56.845 138.606,56.357 139.797,55.861 140.989,55.357 142.180,54.845 143.372,54.324 144.563,53.794 145.755,53.255 146.947,52.707 148.138,52.149 149.330,51.582 150.521,51.005 151.713,50.418 152.904,49.820 154.096,49.212 155.288,48.593 156.479,47.963 157.671,47.321 158.862,46.667 160.054,46.002 161.245,45.324 162.437,44.633 163.628,43.930 164.820,43.213 166.012,42.482 167.203,41.737 168.395,40.978 169.586,40.204 170.778,39.414 171.969,38.609 173.161,37.787 174.352,36.949 175.544,36.094 176.736,35.221 177.927,34.330 179.119,33.420 180.310,33.073 181.502,32.989 182.693,33.028 183.885,33.125 185.077,33.248 186.268,33.384 187.460,33.525 188.651,33.668 189.843,33.813 191.034,33.957 192.226,34.102 193.417,34.246 194.609,34.390 195.801,34.533 196.992,34.677 198.184,34.819 199.375,34.962 200.567,35.103 201.758,35.245 202.950,35.386 204.142,35.527 205.333,35.667 206.525,35.807 207.716,35.947 208.908,36.086 210.099,36.224 211.291,36.363 212.483,36.501 213.674,36.638 214.866,36.775 216.057,36.912 217.249,37.049 218.440,37.185 219.632,37.320 220.823,37.456 222.015,37.590 223.207,37.725 224.398,37.859 225.590,37.993 226.781,38.126 227.973,38.259 229.164,38.392 230.356,38.524 231.548,38.656 232.739,38.787 233.931,38.918 235.122,39.049 236.314,39.179 237.505,39.309 238.697,39.439 239.888,39.568 241.080,39.697 242.272,39.826 243.463,39.954 244.655,40.082 245.846,40.209 247.038,40.336 248.229,40.463 249.421,40.590 250.612,40.716 251.804,40.841 252.996,40.967 254.187,41.092 255.379,41.216 256.570,41.340 257.762,41.464 258.953,41.588 260.145,41.711 261.337,41.834 262.528,41.957 263.720,42.079 264.911,42.201 266.103,42.322 267.294,42.443 268.486,42.564 269.678,42.684 270.869,42.805 272.061,42.924 273.252,43.044 274.444,43.163 275.635,43.282 276.827,43.400 278.018,43.518 279.210,43.636 280.402,43.753 281.593,43.871 282.785,43.987 283.976,44.104 285.168,44.220 286.359,44.336 287.551,44.451 288.743,44.566 289.934,44.681 291.126,44.796 292.317,44.910 293.509,45.024 294.700,45.137 295.892,45.250 297.083,45.363 298.275,45.476 299.467,45.588 300.658,45.700 301.850,45.812 303.041,45.923 304.233,46.034 305.424,46.145 306.616,46.255 307.808,46.365 308.999,46.475 310.191,46.584 311.382,46.693 312.574,46.802 313.765,46.911 314.957,47.019 316.148,47.127 317.340,47.235 318.532,47.342 319.723,47.449 320.915,47.556 322.106,47.662 323.298,47.768 324.489,47.874 325.681,47.979 326.873,48.085 328.064,48.189 329.256,48.294 330.447,48.398 331.639,48.502 332.830,48.606 334.022,48.710 335.213,48.813 336.405,48.916 337.597,49.018 338.788,49.120 339.980,49.222 341.171,49.324 342.363,49.426 343.554,49.527 344.746,49.627 345.938,49.728 347.129,49.828 348.321,49.928 349.512,50.028 350.704,50.127 351.895,50.227 353.087,50.326 354.278,50.424 355.470,50.522 356.662,50.620 357.853,50.718 359.045,50.816 360.236,50.913 361.428,51.010 362.619,51.107 363.811,51.203 365.003,51.299 366.194,51.395 367.386,51.491 368.577,51.586 369.769,51.681 370.960,51.776 372.152,51.870 373.343,51.964 374.535,52.058 375.727,52.152 376.918,52.246 378.110,52.339 379.301,52.432 380.493,52.524 381.684,52.617 382.876,52.709 384.067,52.801 385.259,52.892 386.451,52.984 387.642,53.075 388.834,53.166 390.025,53.256 391.217,53.347 392.408,53.437 393.600,53.527 394.792,53.616 395.983,53.705 397.175,53.795 398.366,53.883 399.558,53.972 400.749,54.060 401.941,54.148 403.132,54.236 404.324,54.324 405.516,54.411 406.707,54.498 407.899,54.585 409.090,54.672 410.282,54.758 411.473,54.844 412.665,54.930 413.857,55.016 415.048,55.101 416.240,55.186 417.431,55.271 "
             id="polyline22"
             style="fill:none;stroke:#000000;stroke-width:0.5pt;stroke-dasharray:none" />
          <g
             id="g24" />
        </g>
        <g
           id="ID000003">
          <g
             transform="translate(237.759,132.037)"
             id="g27">
            <g
               id="g29">
              <text
                 x="0"
                 y="0"
                 font-size="11pt"
                 id="text31"
                 style="font-size:13.75px;text-anchor:middle;fill:#000000;font-family:Times New Roman">Time ($t$) [$s$]</text>
            </g>
          </g>
        </g>
        <g
           id="ID000004">
          <g
             transform="translate(13.522,54.009)"
             id="g34">
            <g
               transform="matrix(0,-1,1,0,0,0)"
               id="g36">
              <text
                 x="0"
                 y="0"
                 font-size="11pt"
                 id="text38"
                 style="font-size:13.75px;text-anchor:middle;fill:#000000;font-family:Times New Roman">Power Amplitude ($p$) [ ]</text>
            </g>
          </g>
        </g>
        <g
           id="ID000005" />
      </g>
      <g
         id="g41">
        <polyline
           points="119.541,97.500 119.541,93.925 "
           id="polyline43"
           style="fill:none;stroke:#000000;stroke-width:0.5pt;stroke-dasharray:none" />
        <polyline
           points="179.119,97.500 179.119,93.925 "
           id="polyline45"
           style="fill:none;stroke:#000000;stroke-width:0.5pt;stroke-dasharray:none" />
        <polyline
           points="238.697,97.500 238.697,93.925 "
           id="polyline47"
           style="fill:none;stroke:#000000;stroke-width:0.5pt;stroke-dasharray:none" />
        <polyline
           points="298.275,97.500 298.275,93.925 "
           id="polyline49"
           style="fill:none;stroke:#000000;stroke-width:0.5pt;stroke-dasharray:none" />
        <polyline
           points="357.853,97.500 357.853,93.925 "
           id="polyline51"
           style="fill:none;stroke:#000000;stroke-width:0.5pt;stroke-dasharray:none" />
        <polyline
           points="59.962,97.500 417.431,97.500 "
           id="polyline53"
           style="fill:none;stroke:#000000;stroke-width:0.5pt;stroke-dasharray:none" />
        <polyline
           points="119.541,8.648 119.541,12.223 "
           id="polyline55"
           style="fill:none;stroke:#000000;stroke-width:0.5pt;stroke-dasharray:none" />
        <polyline
           points="179.119,8.648 179.119,12.223 "
           id="polyline57"
           style="fill:none;stroke:#000000;stroke-width:0.5pt;stroke-dasharray:none" />
        <polyline
           points="238.697,8.648 238.697,12.223 "
           id="polyline59"
           style="fill:none;stroke:#000000;stroke-width:0.5pt;stroke-dasharray:none" />
        <polyline
           points="298.275,8.648 298.275,12.223 "
           id="polyline61"
           style="fill:none;stroke:#000000;stroke-width:0.5pt;stroke-dasharray:none" />
        <polyline
           points="357.853,8.648 357.853,12.223 "
           id="polyline63"
           style="fill:none;stroke:#000000;stroke-width:0.5pt;stroke-dasharray:none" />
        <polyline
           points="59.962,8.648 417.431,8.648 "
           id="polyline65"
           style="fill:none;stroke:#000000;stroke-width:0.5pt;stroke-dasharray:none" />
        <g
           transform="translate(59.962,112.552)"
           id="g67">
          <g
             id="g69">
            <text
               x="0"
               y="0"
               font-size="11pt"
               id="text71"
               style="font-size:13.75px;text-anchor:middle;fill:#000000;font-family:Times New Roman">0</text>
          </g>
        </g>
        <g
           transform="translate(119.541,112.552)"
           id="g73">
          <g
             id="g75">
            <text
               x="0"
               y="0"
               font-size="11pt"
               id="text77"
               style="font-size:13.75px;text-anchor:middle;fill:#000000;font-family:Times New Roman">0.05</text>
          </g>
        </g>
        <g
           transform="translate(179.119,112.552)"
           id="g79">
          <g
             id="g81">
            <text
               x="0"
               y="0"
               font-size="11pt"
               id="text83"
               style="font-size:13.75px;text-anchor:middle;fill:#000000;font-family:Times New Roman">0.1</text>
          </g>
        </g>
        <g
           transform="translate(238.697,112.552)"
           id="g85">
          <g
             id="g87">
            <text
               x="0"
               y="0"
               font-size="11pt"
               id="text89"
               style="font-size:13.75px;text-anchor:middle;fill:#000000;font-family:Times New Roman">0.15</text>
          </g>
        </g>
        <g
           transform="translate(298.275,112.552)"
           id="g91">
          <g
             id="g93">
            <text
               x="0"
               y="0"
               font-size="11pt"
               id="text95"
               style="font-size:13.75px;text-anchor:middle;fill:#000000;font-family:Times New Roman">0.2</text>
          </g>
        </g>
        <g
           transform="translate(357.853,112.552)"
           id="g97">
          <g
             id="g99">
            <text
               x="0"
               y="0"
               font-size="11pt"
               id="text101"
               style="font-size:13.75px;text-anchor:middle;fill:#000000;font-family:Times New Roman">0.25</text>
          </g>
        </g>
        <polyline
           points="59.962,53.074 63.537,53.074 "
           id="polyline103"
           style="fill:none;stroke:#000000;stroke-width:0.5pt;stroke-dasharray:none" />
        <polyline
           points="59.962,97.500 59.962,8.648 "
           id="polyline105"
           style="fill:none;stroke:#000000;stroke-width:0.5pt;stroke-dasharray:none" />
        <polyline
           points="417.431,53.074 413.857,53.074 "
           id="polyline107"
           style="fill:none;stroke:#000000;stroke-width:0.5pt;stroke-dasharray:none" />
        <polyline
           points="417.431,97.500 417.431,8.648 "
           id="polyline109"
           style="fill:none;stroke:#000000;stroke-width:0.5pt;stroke-dasharray:none" />
        <g
           transform="translate(52.813,102.563)"
           id="g111">
          <g
             id="g113">
            <text
               x="0"
               y="0"
               font-size="11pt"
               id="text115"
               style="font-size:13.75px;text-anchor:end;fill:#000000;font-family:Times New Roman">500</text>
          </g>
        </g>
        <g
           transform="translate(52.813,58.137)"
           id="g117">
          <g
             id="g119">
            <text
               x="0"
               y="0"
               font-size="11pt"
               id="text121"
               style="font-size:13.75px;text-anchor:end;fill:#000000;font-family:Times New Roman">1000</text>
          </g>
        </g>
        <g
           transform="translate(52.813,13.711)"
           id="g123">
          <g
             id="g125">
            <text
               x="0"
               y="0"
               font-size="11pt"
               id="text127"
               style="font-size:13.75px;text-anchor:end;fill:#000000;font-family:Times New Roman">1500</text>
          </g>
        </g>
        <polyline
           points="59.962,97.500 59.962,96.611 "
           id="polyline129"
           style="fill:none;stroke:#000000;stroke-width:0.5pt;stroke-dasharray:none" />
        <polyline
           points="59.962,97.500 59.962,97.500 "
           id="polyline131"
           style="fill:none;stroke:#000000;stroke-width:0.5pt;stroke-dasharray:none" />
      </g>
    </g>
    <g
       id="ID000006">
      <clipPath
         id="ID000007">
        <rect
           x="59.962002"
           y="8.6479998"
           width="357.46899"
           height="88.851997"
           id="rect135" />
      </clipPath>
      <polygon
         points="417.431,8.648 59.962,8.648 59.962,97.5 417.431,97.5 "
         id="polygon137"
         style="fill:#000000;fill-opacity:0;stroke:none" />
      <polygon
         points="417.431,97.5 59.962,97.5 59.962,97.5 417.431,97.5 "
         id="polygon139"
         style="fill:#000000;fill-opacity:0;stroke:none" />
      <polygon
         points="59.962,8.648 59.962,8.648 59.962,97.5 59.962,97.5 "
         id="polygon141"
         style="fill:#000000;fill-opacity:0;stroke:none" />
      <g
         id="g143">
        <g
           id="ID000008"
           clip-path="url(#ID000007)">
          <polyline
             points="59.962,-2196.191 61.154,-641.175 62.346,-166.755 63.537,-21.576 64.729,22.943 65.920,36.580 67.112,40.708 68.303,41.897 69.495,42.174 70.687,42.166 71.878,42.067 73.070,41.938 74.261,41.799 75.453,41.654 76.644,41.506 77.836,41.355 79.027,41.202 80.219,41.047 81.411,40.888 82.602,40.728 83.794,40.564 84.985,40.398 86.177,40.229 87.368,40.058 88.560,39.883 89.752,39.705 90.943,39.525 92.135,39.341 93.326,39.154 94.518,38.964 95.709,38.770 96.901,38.573 98.093,38.373 99.284,38.169 100.476,37.961 101.667,37.750 102.859,37.534 104.050,37.315 105.242,37.092 106.433,36.864 107.625,36.633 108.817,36.397 110.008,36.156 111.200,35.911 112.391,35.661 113.583,35.407 114.774,35.147 115.966,34.882 117.158,34.613 118.349,34.337 119.541,34.057 120.732,33.770 121.924,33.478 123.115,33.180 124.307,32.876 125.498,32.566 126.690,32.249 127.882,31.925 129.073,31.595 130.265,31.257 131.456,30.913 132.648,30.561 133.839,30.201 135.031,29.833 136.223,29.458 137.414,29.074 138.606,28.681 139.797,28.279 140.989,27.869 142.180,27.449 143.372,27.019 144.563,26.580 145.755,26.130 146.947,25.669 148.138,25.198 149.330,24.715 150.521,24.221 151.713,23.714 152.904,23.195 154.096,22.664 155.288,22.119 156.479,21.560 157.671,20.987 158.862,20.400 160.054,19.797 161.245,19.179 162.437,18.544 163.628,17.893 164.820,17.224 166.012,16.537 167.203,15.832 168.395,15.107 169.586,14.363 170.778,13.597 171.969,12.811 173.161,12.001 174.352,11.169 175.544,10.312 176.736,9.431 177.927,8.523 179.119,7.589 180.310,35.708 181.502,48.873 182.693,55.030 183.885,57.904 185.077,59.239 186.268,59.854 187.460,60.131 188.651,60.250 189.843,60.295 191.034,60.305 192.226,60.299 193.417,60.285 194.609,60.268 195.801,60.249 196.992,60.230 198.184,60.210 199.375,60.190 200.567,60.170 201.758,60.150 202.950,60.130 204.142,60.110 205.333,60.090 206.525,60.070 207.716,60.050 208.908,60.031 210.099,60.011 211.291,59.991 212.483,59.972 213.674,59.952 214.866,59.933 216.057,59.914 217.249,59.894 218.440,59.875 219.632,59.856 220.823,59.837 222.015,59.818 223.207,59.799 224.398,59.780 225.590,59.761 226.781,59.742 227.973,59.723 229.164,59.704 230.356,59.686 231.548,59.667 232.739,59.648 233.931,59.630 235.122,59.611 236.314,59.593 237.505,59.575 238.697,59.556 239.888,59.538 241.080,59.520 242.272,59.502 243.463,59.483 244.655,59.465 245.846,59.447 247.038,59.429 248.229,59.411 249.421,59.394 250.612,59.376 251.804,59.358 252.996,59.340 254.187,59.323 255.379,59.305 256.570,59.287 257.762,59.270 258.953,59.252 260.145,59.235 261.337,59.218 262.528,59.200 263.720,59.183 264.911,59.166 266.103,59.149 267.294,59.132 268.486,59.114 269.678,59.097 270.869,59.080 272.061,59.063 273.252,59.047 274.444,59.030 275.635,59.013 276.827,58.996 278.018,58.980 279.210,58.963 280.402,58.946 281.593,58.930 282.785,58.913 283.976,58.897 285.168,58.880 286.359,58.864 287.551,58.848 288.743,58.831 289.934,58.815 291.126,58.799 292.317,58.783 293.509,58.767 294.700,58.751 295.892,58.735 297.083,58.719 298.275,58.703 299.467,58.687 300.658,58.671 301.850,58.656 303.041,58.640 304.233,58.624 305.424,58.608 306.616,58.593 307.808,58.577 308.999,58.562 310.191,58.546 311.382,58.531 312.574,58.516 313.765,58.500 314.957,58.485 316.148,58.470 317.340,58.455 318.532,58.439 319.723,58.424 320.915,58.409 322.106,58.394 323.298,58.379 324.489,58.364 325.681,58.349 326.873,58.334 328.064,58.320 329.256,58.305 330.447,58.290 331.639,58.275 332.830,58.261 334.022,58.246 335.213,58.232 336.405,58.217 337.597,58.203 338.788,58.188 339.980,58.174 341.171,58.159 342.363,58.145 343.554,58.131 344.746,58.117 345.938,58.102 347.129,58.088 348.321,58.074 349.512,58.060 350.704,58.046 351.895,58.032 353.087,58.018 354.278,58.004 355.470,57.990 356.662,57.976 357.853,57.962 359.045,57.949 360.236,57.935 361.428,57.921 362.619,57.908 363.811,57.894 365.003,57.880 366.194,57.867 367.386,57.853 368.577,57.840 369.769,57.827 370.960,57.813 372.152,57.800 373.343,57.787 374.535,57.773 375.727,57.760 376.918,57.747 378.110,57.734 379.301,57.721 380.493,57.707 381.684,57.694 382.876,57.681 384.067,57.668 385.259,57.655 386.451,57.643 387.642,57.630 388.834,57.617 390.025,57.604 391.217,57.591 392.408,57.579 393.600,57.566 394.792,57.553 395.983,57.541 397.175,57.528 398.366,57.515 399.558,57.503 400.749,57.490 401.941,57.478 403.132,57.466 404.324,57.453 405.516,57.441 406.707,57.429 407.899,57.416 409.090,57.404 410.282,57.392 411.473,57.380 412.665,57.368 413.857,57.356 415.048,57.343 416.240,57.331 417.431,57.319 "
             id="polyline146"
             style="fill:none;stroke:#000000;stroke-width:0.5pt;stroke-dasharray:8, 2" />
          <g
             id="g148" />
        </g>
        <g
           id="ID000009">
          <g
             transform="translate(444.538,54.009)"
             id="g151">
            <g
               transform="matrix(0,-1,1,0,0,0)"
               id="g153">
              <text
                 x="0"
                 y="0"
                 font-size="11pt"
                 id="text155"
                 style="font-size:13.75px;text-anchor:middle;fill:#000000;font-family:Times New Roman">Derivative of Power ($\dot{p}$) [ ]</text>
            </g>
          </g>
        </g>
        <g
           id="ID000010" />
        <g
           id="ID000011" />
      </g>
      <g
         id="g159">
        <polyline
           points="59.962,97.500 59.962,93.925 "
           id="polyline161"
           style="fill:none;stroke:#000000;stroke-width:0.5pt;stroke-dasharray:none" />
        <polyline
           points="119.541,97.500 119.541,93.925 "
           id="polyline163"
           style="fill:none;stroke:#000000;stroke-width:0.5pt;stroke-dasharray:none" />
        <polyline
           points="179.119,97.500 179.119,93.925 "
           id="polyline165"
           style="fill:none;stroke:#000000;stroke-width:0.5pt;stroke-dasharray:none" />
        <polyline
           points="238.697,97.500 238.697,93.925 "
           id="polyline167"
           style="fill:none;stroke:#000000;stroke-width:0.5pt;stroke-dasharray:none" />
        <polyline
           points="298.275,97.500 298.275,93.925 "
           id="polyline169"
           style="fill:none;stroke:#000000;stroke-width:0.5pt;stroke-dasharray:none" />
        <polyline
           points="357.853,97.500 357.853,93.925 "
           id="polyline171"
           style="fill:none;stroke:#000000;stroke-width:0.5pt;stroke-dasharray:none" />
        <polyline
           points="59.962,97.500 417.431,97.500 "
           id="polyline173"
           style="fill:none;stroke:#000000;stroke-width:0.5pt;stroke-dasharray:none" />
        <g
           transform="translate(59.962,112.552)"
           id="g175">
          <g
             id="g177">
            <text
               x="0"
               y="0"
               font-size="11pt"
               id="text179"
               style="font-size:13.75px;text-anchor:middle;fill:#000000;font-family:Times New Roman">0</text>
          </g>
        </g>
        <g
           transform="translate(119.541,112.552)"
           id="g181">
          <g
             id="g183">
            <text
               x="0"
               y="0"
               font-size="11pt"
               id="text185"
               style="font-size:13.75px;text-anchor:middle;fill:#000000;font-family:Times New Roman">0.05</text>
          </g>
        </g>
        <g
           transform="translate(179.119,112.552)"
           id="g187">
          <g
             id="g189">
            <text
               x="0"
               y="0"
               font-size="11pt"
               id="text191"
               style="font-size:13.75px;text-anchor:middle;fill:#000000;font-family:Times New Roman">0.1</text>
          </g>
        </g>
        <g
           transform="translate(238.697,112.552)"
           id="g193">
          <g
             id="g195">
            <text
               x="0"
               y="0"
               font-size="11pt"
               id="text197"
               style="font-size:13.75px;text-anchor:middle;fill:#000000;font-family:Times New Roman">0.15</text>
          </g>
        </g>
        <g
           transform="translate(298.275,112.552)"
           id="g199">
          <g
             id="g201">
            <text
               x="0"
               y="0"
               font-size="11pt"
               id="text203"
               style="font-size:13.75px;text-anchor:middle;fill:#000000;font-family:Times New Roman">0.2</text>
          </g>
        </g>
        <g
           transform="translate(357.853,112.552)"
           id="g205">
          <g
             id="g207">
            <text
               x="0"
               y="0"
               font-size="11pt"
               id="text209"
               style="font-size:13.75px;text-anchor:middle;fill:#000000;font-family:Times New Roman">0.25</text>
          </g>
        </g>
        <polyline
           points="417.431,53.074 413.857,53.074 "
           id="polyline211"
           style="fill:none;stroke:#000000;stroke-width:0.5pt;stroke-dasharray:none" />
        <polyline
           points="417.431,97.500 417.431,8.648 "
           id="polyline213"
           style="fill:none;stroke:#000000;stroke-width:0.5pt;stroke-dasharray:none" />
        <g
           transform="translate(424.581,58.137)"
           id="g215">
          <g
             id="g217">
            <text
               x="0"
               y="0"
               font-size="11pt"
               id="text219"
               style="font-size:13.75px;text-anchor:start;fill:#000000;font-family:Times New Roman">0</text>
          </g>
        </g>
        <polyline
           points="59.962,97.500 59.962,96.611 "
           id="polyline221"
           style="fill:none;stroke:#000000;stroke-width:0.5pt;stroke-dasharray:none" />
        <polyline
           points="59.962,97.500 59.962,96.611 "
           id="polyline223"
           style="fill:none;stroke:#000000;stroke-width:0.5pt;stroke-dasharray:none" />
        <polyline
           points="59.962,97.500 59.962,96.611 "
           id="polyline225"
           style="fill:none;stroke:#000000;stroke-width:0.5pt;stroke-dasharray:none" />
        <polyline
           points="59.962,97.500 59.962,97.500 "
           id="polyline227"
           style="fill:none;stroke:#000000;stroke-width:0.5pt;stroke-dasharray:none" />
      </g>
    </g>
  </g>
</svg>
