<?xml version="1.0" encoding="UTF-8" standalone="no"?>
<svg
   xmlns:dc="http://purl.org/dc/elements/1.1/"
   xmlns:cc="http://creativecommons.org/ns#"
   xmlns:rdf="http://www.w3.org/1999/02/22-rdf-syntax-ns#"
   xmlns:svg="http://www.w3.org/2000/svg"
   xmlns="http://www.w3.org/2000/svg"
   xmlns:sodipodi="http://sodipodi.sourceforge.net/DTD/sodipodi-0.dtd"
   xmlns:inkscape="http://www.inkscape.org/namespaces/inkscape"
   preserveAspectRatio="xMinYMin meet"
   width="100%"
   height="100%"
   viewBox="0 0 461.25 132.87401"
   version="1.1"
   id="svg2"
   inkscape:version="0.48.4 r9939"
   sodipodi:docname="nucl511hmwk8prob2plot2.svg">
  <metadata
     id="metadata253">
    <rdf:RDF>
      <cc:Work
         rdf:about="">
        <dc:format>image/svg+xml</dc:format>
        <dc:type
           rdf:resource="http://purl.org/dc/dcmitype/StillImage" />
      </cc:Work>
    </rdf:RDF>
  </metadata>
  <defs
     id="defs251">
    <clipPath
       id="ID000007">
      <rect
         x="59.962002"
         y="8.6479998"
         width="357.46899"
         height="88.851997"
         id="rect155" />
    </clipPath>
    <clipPath
       id="ID000001">
      <rect
         x="59.962002"
         y="8.6479998"
         width="357.46899"
         height="88.851997"
         id="rect11" />
    </clipPath>
  </defs>
  <sodipodi:namedview
     pagecolor="#ffffff"
     bordercolor="#666666"
     borderopacity="1"
     objecttolerance="10"
     gridtolerance="10"
     guidetolerance="10"
     inkscape:pageopacity="0"
     inkscape:pageshadow="2"
     inkscape:window-width="640"
     inkscape:window-height="480"
     id="namedview249"
     showgrid="false"
     units="cm"
     inkscape:zoom="0.68509485"
     inkscape:cx="230.625"
     inkscape:cy="57.6565"
     inkscape:window-x="0"
     inkscape:window-y="0"
     inkscape:window-maximized="0"
     inkscape:current-layer="svg2" />
  <desc
     id="desc4">Matlab Figure Converted by PLOT2SVG written by Juerg Schwizer</desc>
  <polygon
     points="59.962,8.648 59.962,97.5 417.431,97.5 417.431,8.648 "
     id="polygon13"
     style="fill:#ffffff;fill-opacity:1;stroke:none"
     transform="translate(0,-2.4390321)" />
  <polygon
     points="59.962,8.648 59.962,8.648 417.431,8.648 417.431,8.648 "
     id="polygon15"
     style="fill:#ffffff;fill-opacity:1;stroke:none"
     transform="translate(0,-2.4390321)" />
  <polygon
     points="59.962,8.648 59.962,97.5 59.962,97.5 59.962,8.648 "
     id="polygon17"
     style="fill:#ffffff;fill-opacity:1;stroke:none"
     transform="translate(0,-2.4390321)" />
  <g
     id="g19"
     transform="translate(0,-2.4390321)">
    <g
       id="ID000002"
       clip-path="url(#ID000001)">
      <polyline
         points="59.962,74.963 61.154,68.020 62.346,65.822 63.537,65.076 64.729,64.774 65.920,64.609 67.112,64.486 68.303,64.374 69.495,64.265 70.687,64.156 71.878,64.046 73.070,63.934 74.261,63.822 75.453,63.707 76.644,63.592 77.836,63.475 79.027,63.356 80.219,63.236 81.411,63.114 82.602,62.990 83.794,62.865 84.985,62.738 86.177,62.610 87.368,62.480 88.560,62.348 89.752,62.214 90.943,62.079 92.135,61.941 93.326,61.802 94.518,61.661 95.709,61.518 96.901,61.373 98.093,61.226 99.284,61.077 100.476,60.926 101.667,60.773 102.859,60.617 104.050,60.460 105.242,60.300 106.433,60.138 107.625,59.973 108.817,59.806 110.008,59.637 111.200,59.466 112.391,59.292 113.583,59.115 114.774,58.936 115.966,58.754 117.158,58.569 118.349,58.382 119.541,58.192 120.732,57.998 121.924,57.803 123.115,57.604 124.307,57.402 125.498,57.196 126.690,56.988 127.882,56.777 129.073,56.562 130.265,56.344 131.456,56.122 132.648,55.897 133.839,55.668 135.031,55.436 136.223,55.200 137.414,54.960 138.606,54.716 139.797,54.468 140.989,54.216 142.180,53.960 143.372,53.699 144.563,53.434 145.755,53.165 146.947,52.891 148.138,52.612 149.330,52.328 150.521,52.040 151.713,51.746 152.904,51.447 154.096,51.143 155.288,50.834 156.479,50.518 157.671,50.198 158.862,49.871 160.054,49.538 161.245,49.199 162.437,48.854 163.628,48.502 164.820,48.143 166.012,47.778 167.203,47.406 168.395,47.026 169.586,46.639 170.778,46.244 171.969,45.841 173.161,45.431 174.352,45.012 175.544,44.584 176.736,44.148 177.927,43.702 179.119,43.247 180.310,43.290 181.502,43.563 182.693,43.941 183.885,44.365 185.077,44.806 186.268,45.252 187.460,45.697 188.651,46.138 189.843,46.573 191.034,47.003 192.226,47.428 193.417,47.846 194.609,48.259 195.801,48.666 196.992,49.068 198.184,49.464 199.375,49.855 200.567,50.241 201.758,50.622 202.950,50.998 204.142,51.369 205.333,51.735 206.525,52.096 207.716,52.453 208.908,52.805 210.099,53.153 211.291,53.496 212.483,53.836 213.674,54.170 214.866,54.501 216.057,54.828 217.249,55.151 218.440,55.469 219.632,55.784 220.823,56.095 222.015,56.403 223.207,56.707 224.398,57.007 225.590,57.304 226.781,57.597 227.973,57.886 229.164,58.173 230.356,58.456 231.548,58.736 232.739,59.013 233.931,59.286 235.122,59.557 236.314,59.824 237.505,60.089 238.697,60.350 239.888,60.609 241.080,60.865 242.272,61.118 243.463,61.368 244.655,61.615 245.846,61.860 247.038,62.102 248.229,62.342 249.421,62.579 250.612,62.814 251.804,63.046 252.996,63.276 254.187,63.503 255.379,63.728 256.570,63.950 257.762,64.171 258.953,64.389 260.145,64.605 261.337,64.818 262.528,65.030 263.720,65.239 264.911,65.446 266.103,65.651 267.294,65.855 268.486,66.056 269.678,66.255 270.869,66.452 272.061,66.647 273.252,66.841 274.444,67.032 275.635,67.222 276.827,67.410 278.018,67.596 279.210,67.780 280.402,67.962 281.593,68.143 282.785,68.322 283.976,68.500 285.168,68.675 286.359,68.849 287.551,69.022 288.743,69.193 289.934,69.362 291.126,69.530 292.317,69.696 293.509,69.861 294.700,70.024 295.892,70.186 297.083,70.346 298.275,70.505 299.467,70.662 300.658,70.818 301.850,70.973 303.041,71.126 304.233,71.278 305.424,71.429 306.616,71.578 307.808,71.726 308.999,71.873 310.191,72.018 311.382,72.162 312.574,72.305 313.765,72.447 314.957,72.587 316.148,72.727 317.340,72.865 318.532,73.002 319.723,73.138 320.915,73.272 322.106,73.406 323.298,73.538 324.489,73.670 325.681,73.800 326.873,73.929 328.064,74.057 329.256,74.184 330.447,74.310 331.639,74.435 332.830,74.559 334.022,74.682 335.213,74.804 336.405,74.926 337.597,75.046 338.788,75.165 339.980,75.283 341.171,75.400 342.363,75.516 343.554,75.632 344.746,75.746 345.938,75.860 347.129,75.972 348.321,76.084 349.512,76.195 350.704,76.305 351.895,76.415 353.087,76.523 354.278,76.630 355.470,76.737 356.662,76.843 357.853,76.948 359.045,77.053 360.236,77.156 361.428,77.259 362.619,77.361 363.811,77.462 365.003,77.563 366.194,77.662 367.386,77.761 368.577,77.859 369.769,77.957 370.960,78.054 372.152,78.150 373.343,78.245 374.535,78.340 375.727,78.434 376.918,78.527 378.110,78.620 379.301,78.712 380.493,78.803 381.684,78.894 382.876,78.984 384.067,79.073 385.259,79.162 386.451,79.250 387.642,79.337 388.834,79.424 390.025,79.510 391.217,79.596 392.408,79.681 393.600,79.765 394.792,79.849 395.983,79.933 397.175,80.015 398.366,80.097 399.558,80.179 400.749,80.260 401.941,80.340 403.132,80.420 404.324,80.499 405.516,80.578 406.707,80.656 407.899,80.734 409.090,80.811 410.282,80.888 411.473,80.964 412.665,81.040 413.857,81.115 415.048,81.189 416.240,81.264 417.431,81.337 "
         id="polyline22"
         style="fill:none;stroke:#000000;stroke-width:0.5pt;stroke-dasharray:none" />
      <g
         id="g24" />
    </g>
    <g
       id="ID000003">
      <g
         transform="translate(237.759,132.037)"
         id="g27">
        <g
           id="g29">
          <text
             x="0"
             y="0"
             font-size="11pt"
             id="text31"
             style="font-size:13.75px;text-anchor:middle;fill:#000000;font-family:Times New Roman">Time ($t$) [$s$]</text>
        </g>
      </g>
    </g>
    <g
       id="ID000004">
      <g
         transform="translate(13.522,54.009)"
         id="g34">
        <g
           transform="matrix(0,-1,1,0,0,0)"
           id="g36">
          <text
             x="0"
             y="0"
             font-size="11pt"
             id="text38"
             style="font-size:13.75px;text-anchor:middle;fill:#000000;font-family:Times New Roman">Power Amplitude ($p$) [ ]</text>
        </g>
      </g>
    </g>
    <g
       id="ID000005" />
  </g>
  <g
     id="g41"
     transform="translate(0,-2.4390321)">
    <polyline
       points="119.541,97.500 119.541,93.925 "
       id="polyline43"
       style="fill:none;stroke:#000000;stroke-width:0.5pt;stroke-dasharray:none" />
    <polyline
       points="179.119,97.500 179.119,93.925 "
       id="polyline45"
       style="fill:none;stroke:#000000;stroke-width:0.5pt;stroke-dasharray:none" />
    <polyline
       points="238.697,97.500 238.697,93.925 "
       id="polyline47"
       style="fill:none;stroke:#000000;stroke-width:0.5pt;stroke-dasharray:none" />
    <polyline
       points="298.275,97.500 298.275,93.925 "
       id="polyline49"
       style="fill:none;stroke:#000000;stroke-width:0.5pt;stroke-dasharray:none" />
    <polyline
       points="357.853,97.500 357.853,93.925 "
       id="polyline51"
       style="fill:none;stroke:#000000;stroke-width:0.5pt;stroke-dasharray:none" />
    <polyline
       points="59.962,97.500 417.431,97.500 "
       id="polyline53"
       style="fill:none;stroke:#000000;stroke-width:0.5pt;stroke-dasharray:none" />
    <polyline
       points="119.541,8.648 119.541,12.223 "
       id="polyline55"
       style="fill:none;stroke:#000000;stroke-width:0.5pt;stroke-dasharray:none" />
    <polyline
       points="179.119,8.648 179.119,12.223 "
       id="polyline57"
       style="fill:none;stroke:#000000;stroke-width:0.5pt;stroke-dasharray:none" />
    <polyline
       points="238.697,8.648 238.697,12.223 "
       id="polyline59"
       style="fill:none;stroke:#000000;stroke-width:0.5pt;stroke-dasharray:none" />
    <polyline
       points="298.275,8.648 298.275,12.223 "
       id="polyline61"
       style="fill:none;stroke:#000000;stroke-width:0.5pt;stroke-dasharray:none" />
    <polyline
       points="357.853,8.648 357.853,12.223 "
       id="polyline63"
       style="fill:none;stroke:#000000;stroke-width:0.5pt;stroke-dasharray:none" />
    <polyline
       points="59.962,8.648 417.431,8.648 "
       id="polyline65"
       style="fill:none;stroke:#000000;stroke-width:0.5pt;stroke-dasharray:none" />
    <g
       transform="translate(59.962,112.552)"
       id="g67">
      <g
         id="g69">
        <text
           x="0"
           y="0"
           font-size="11pt"
           id="text71"
           style="font-size:13.75px;text-anchor:middle;fill:#000000;font-family:Times New Roman">0</text>
      </g>
    </g>
    <g
       transform="translate(119.541,112.552)"
       id="g73">
      <g
         id="g75">
        <text
           x="0"
           y="0"
           font-size="11pt"
           id="text77"
           style="font-size:13.75px;text-anchor:middle;fill:#000000;font-family:Times New Roman">0.05</text>
      </g>
    </g>
    <g
       transform="translate(179.119,112.552)"
       id="g79">
      <g
         id="g81">
        <text
           x="0"
           y="0"
           font-size="11pt"
           id="text83"
           style="font-size:13.75px;text-anchor:middle;fill:#000000;font-family:Times New Roman">0.1</text>
      </g>
    </g>
    <g
       transform="translate(238.697,112.552)"
       id="g85">
      <g
         id="g87">
        <text
           x="0"
           y="0"
           font-size="11pt"
           id="text89"
           style="font-size:13.75px;text-anchor:middle;fill:#000000;font-family:Times New Roman">0.15</text>
      </g>
    </g>
    <g
       transform="translate(298.275,112.552)"
       id="g91">
      <g
         id="g93">
        <text
           x="0"
           y="0"
           font-size="11pt"
           id="text95"
           style="font-size:13.75px;text-anchor:middle;fill:#000000;font-family:Times New Roman">0.2</text>
      </g>
    </g>
    <g
       transform="translate(357.853,112.552)"
       id="g97">
      <g
         id="g99">
        <text
           x="0"
           y="0"
           font-size="11pt"
           id="text101"
           style="font-size:13.75px;text-anchor:middle;fill:#000000;font-family:Times New Roman">0.25</text>
      </g>
    </g>
    <polyline
       points="59.962,75.287 63.537,75.287 "
       id="polyline103"
       style="fill:none;stroke:#000000;stroke-width:0.5pt;stroke-dasharray:none" />
    <polyline
       points="59.962,53.074 63.537,53.074 "
       id="polyline105"
       style="fill:none;stroke:#000000;stroke-width:0.5pt;stroke-dasharray:none" />
    <polyline
       points="59.962,30.861 63.537,30.861 "
       id="polyline107"
       style="fill:none;stroke:#000000;stroke-width:0.5pt;stroke-dasharray:none" />
    <polyline
       points="59.962,97.500 59.962,8.648 "
       id="polyline109"
       style="fill:none;stroke:#000000;stroke-width:0.5pt;stroke-dasharray:none" />
    <polyline
       points="417.431,75.287 413.857,75.287 "
       id="polyline111"
       style="fill:none;stroke:#000000;stroke-width:0.5pt;stroke-dasharray:none" />
    <polyline
       points="417.431,53.074 413.857,53.074 "
       id="polyline113"
       style="fill:none;stroke:#000000;stroke-width:0.5pt;stroke-dasharray:none" />
    <polyline
       points="417.431,30.861 413.857,30.861 "
       id="polyline115"
       style="fill:none;stroke:#000000;stroke-width:0.5pt;stroke-dasharray:none" />
    <polyline
       points="417.431,97.500 417.431,8.648 "
       id="polyline117"
       style="fill:none;stroke:#000000;stroke-width:0.5pt;stroke-dasharray:none" />
    <g
       transform="translate(52.813,102.562)"
       id="g119">
      <g
         id="g121">
        <text
           x="0"
           y="0"
           font-size="11pt"
           id="text123"
           style="font-size:13.75px;text-anchor:end;fill:#000000;font-family:Times New Roman">0</text>
      </g>
    </g>
    <g
       transform="translate(52.813,80.35)"
       id="g125">
      <g
         id="g127">
        <text
           x="0"
           y="0"
           font-size="11pt"
           id="text129"
           style="font-size:13.75px;text-anchor:end;fill:#000000;font-family:Times New Roman">500</text>
      </g>
    </g>
    <g
       transform="translate(52.813,58.137)"
       id="g131">
      <g
         id="g133">
        <text
           x="0"
           y="0"
           font-size="11pt"
           id="text135"
           style="font-size:13.75px;text-anchor:end;fill:#000000;font-family:Times New Roman">1000</text>
      </g>
    </g>
    <g
       transform="translate(52.813,35.924)"
       id="g137">
      <g
         id="g139">
        <text
           x="0"
           y="0"
           font-size="11pt"
           id="text141"
           style="font-size:13.75px;text-anchor:end;fill:#000000;font-family:Times New Roman">1500</text>
      </g>
    </g>
    <g
       transform="translate(52.813,13.711)"
       id="g143">
      <g
         id="g145">
        <text
           x="0"
           y="0"
           font-size="11pt"
           id="text147"
           style="font-size:13.75px;text-anchor:end;fill:#000000;font-family:Times New Roman">2000</text>
      </g>
    </g>
    <polyline
       points="59.962,97.500 59.962,96.611 "
       id="polyline149"
       style="fill:none;stroke:#000000;stroke-width:0.5pt;stroke-dasharray:none" />
    <polyline
       points="59.962,97.500 59.962,97.500 "
       id="polyline151"
       style="fill:none;stroke:#000000;stroke-width:0.5pt;stroke-dasharray:none" />
  </g>
  <polygon
     points="59.962,8.648 59.962,97.5 417.431,97.5 417.431,8.648 "
     id="polygon157"
     style="fill:#000000;fill-opacity:0;stroke:none"
     transform="translate(0,-2.4390321)" />
  <polygon
     points="59.962,97.5 59.962,97.5 417.431,97.5 417.431,97.5 "
     id="polygon159"
     style="fill:#000000;fill-opacity:0;stroke:none"
     transform="translate(0,-2.4390321)" />
  <polygon
     points="59.962,8.648 59.962,97.5 59.962,97.5 59.962,8.648 "
     id="polygon161"
     style="fill:#000000;fill-opacity:0;stroke:none"
     transform="translate(0,-2.4390321)" />
  <g
     id="g163"
     transform="translate(0,-2.4390321)">
    <g
       id="ID000008"
       clip-path="url(#ID000007)">
      <polyline
         points="59.962,-2196.191 61.154,-641.175 62.346,-166.755 63.537,-21.576 64.729,22.943 65.920,36.580 67.112,40.708 68.303,41.897 69.495,42.174 70.687,42.166 71.878,42.067 73.070,41.938 74.261,41.799 75.453,41.654 76.644,41.506 77.836,41.355 79.027,41.202 80.219,41.047 81.411,40.888 82.602,40.728 83.794,40.564 84.985,40.398 86.177,40.229 87.368,40.058 88.560,39.883 89.752,39.705 90.943,39.525 92.135,39.341 93.326,39.154 94.518,38.964 95.709,38.770 96.901,38.573 98.093,38.373 99.284,38.169 100.476,37.961 101.667,37.750 102.859,37.534 104.050,37.315 105.242,37.092 106.433,36.864 107.625,36.633 108.817,36.397 110.008,36.156 111.200,35.911 112.391,35.661 113.583,35.407 114.774,35.147 115.966,34.882 117.158,34.613 118.349,34.337 119.541,34.057 120.732,33.770 121.924,33.478 123.115,33.180 124.307,32.876 125.498,32.566 126.690,32.249 127.882,31.925 129.073,31.595 130.265,31.257 131.456,30.913 132.648,30.561 133.839,30.201 135.031,29.833 136.223,29.458 137.414,29.074 138.606,28.681 139.797,28.279 140.989,27.869 142.180,27.449 143.372,27.019 144.563,26.580 145.755,26.130 146.947,25.669 148.138,25.198 149.330,24.715 150.521,24.221 151.713,23.714 152.904,23.195 154.096,22.664 155.288,22.119 156.479,21.560 157.671,20.987 158.862,20.400 160.054,19.797 161.245,19.179 162.437,18.544 163.628,17.893 164.820,17.224 166.012,16.537 167.203,15.832 168.395,15.107 169.586,14.363 170.778,13.597 171.969,12.811 173.161,12.001 174.352,11.169 175.544,10.312 176.736,9.431 177.927,8.523 179.119,7.589 180.310,57.318 181.502,80.408 182.693,90.892 183.885,95.437 185.077,97.201 186.268,97.671 187.460,97.545 188.651,97.150 189.843,96.638 191.034,96.079 192.226,95.504 193.417,94.929 194.609,94.360 195.801,93.800 196.992,93.250 198.184,92.710 199.375,92.181 200.567,91.662 201.758,91.153 202.950,90.654 204.142,90.164 205.333,89.684 206.525,89.213 207.716,88.750 208.908,88.297 210.099,87.851 211.291,87.414 212.483,86.985 213.674,86.564 214.866,86.150 216.057,85.744 217.249,85.345 218.440,84.953 219.632,84.568 220.823,84.189 222.015,83.818 223.207,83.452 224.398,83.093 225.590,82.741 226.781,82.394 227.973,82.053 229.164,81.718 230.356,81.388 231.548,81.064 232.739,80.745 233.931,80.431 235.122,80.123 236.314,79.820 237.505,79.521 238.697,79.227 239.888,78.938 241.080,78.654 242.272,78.374 243.463,78.099 244.655,77.827 245.846,77.560 247.038,77.298 248.229,77.039 249.421,76.784 250.612,76.533 251.804,76.286 252.996,76.043 254.187,75.803 255.379,75.567 256.570,75.334 257.762,75.105 258.953,74.879 260.145,74.657 261.337,74.437 262.528,74.221 263.720,74.008 264.911,73.798 266.103,73.591 267.294,73.387 268.486,73.186 269.678,72.988 270.869,72.793 272.061,72.600 273.252,72.410 274.444,72.222 275.635,72.038 276.827,71.855 278.018,71.675 279.210,71.498 280.402,71.323 281.593,71.151 282.785,70.980 283.976,70.812 285.168,70.646 286.359,70.483 287.551,70.321 288.743,70.162 289.934,70.005 291.126,69.849 292.317,69.696 293.509,69.545 294.700,69.396 295.892,69.248 297.083,69.103 298.275,68.959 299.467,68.817 300.658,68.677 301.850,68.539 303.041,68.402 304.233,68.268 305.424,68.134 306.616,68.003 307.808,67.873 308.999,67.744 310.191,67.618 311.382,67.492 312.574,67.369 313.765,67.246 314.957,67.126 316.148,67.006 317.340,66.888 318.532,66.772 319.723,66.656 320.915,66.543 322.106,66.430 323.298,66.319 324.489,66.209 325.681,66.101 326.873,65.993 328.064,65.887 329.256,65.782 330.447,65.678 331.639,65.576 332.830,65.475 334.022,65.374 335.213,65.275 336.405,65.177 337.597,65.080 338.788,64.984 339.980,64.890 341.171,64.796 342.363,64.703 343.554,64.612 344.746,64.521 345.938,64.431 347.129,64.343 348.321,64.255 349.512,64.168 350.704,64.082 351.895,63.997 353.087,63.913 354.278,63.830 355.470,63.748 356.662,63.667 357.853,63.586 359.045,63.506 360.236,63.427 361.428,63.349 362.619,63.272 363.811,63.196 365.003,63.120 366.194,63.045 367.386,62.971 368.577,62.898 369.769,62.825 370.960,62.754 372.152,62.682 373.343,62.612 374.535,62.542 375.727,62.473 376.918,62.405 378.110,62.337 379.301,62.271 380.493,62.204 381.684,62.139 382.876,62.074 384.067,62.009 385.259,61.946 386.451,61.883 387.642,61.820 388.834,61.758 390.025,61.697 391.217,61.636 392.408,61.576 393.600,61.517 394.792,61.458 395.983,61.399 397.175,61.341 398.366,61.284 399.558,61.227 400.749,61.171 401.941,61.116 403.132,61.060 404.324,61.006 405.516,60.952 406.707,60.898 407.899,60.845 409.090,60.792 410.282,60.740 411.473,60.688 412.665,60.637 413.857,60.587 415.048,60.536 416.240,60.486 417.431,60.437 "
         id="polyline166"
         style="fill:none;stroke:#000000;stroke-width:0.5pt;stroke-dasharray:8, 2" />
      <g
         id="g168" />
    </g>
    <g
       id="ID000009">
      <g
         transform="translate(444.538,54.009)"
         id="g171">
        <g
           transform="matrix(0,-1,1,0,0,0)"
           id="g173">
          <text
             x="0"
             y="0"
             font-size="11pt"
             id="text175"
             style="font-size:13.75px;text-anchor:middle;fill:#000000;font-family:Times New Roman">Derivative of Power ($\dot{p}$) [ ]</text>
        </g>
      </g>
    </g>
    <g
       id="ID000010" />
    <g
       id="ID000011" />
  </g>
  <g
     id="g179"
     transform="translate(0,-2.4390321)">
    <polyline
       points="59.962,97.500 59.962,93.925 "
       id="polyline181"
       style="fill:none;stroke:#000000;stroke-width:0.5pt;stroke-dasharray:none" />
    <polyline
       points="119.541,97.500 119.541,93.925 "
       id="polyline183"
       style="fill:none;stroke:#000000;stroke-width:0.5pt;stroke-dasharray:none" />
    <polyline
       points="179.119,97.500 179.119,93.925 "
       id="polyline185"
       style="fill:none;stroke:#000000;stroke-width:0.5pt;stroke-dasharray:none" />
    <polyline
       points="238.697,97.500 238.697,93.925 "
       id="polyline187"
       style="fill:none;stroke:#000000;stroke-width:0.5pt;stroke-dasharray:none" />
    <polyline
       points="298.275,97.500 298.275,93.925 "
       id="polyline189"
       style="fill:none;stroke:#000000;stroke-width:0.5pt;stroke-dasharray:none" />
    <polyline
       points="357.853,97.500 357.853,93.925 "
       id="polyline191"
       style="fill:none;stroke:#000000;stroke-width:0.5pt;stroke-dasharray:none" />
    <polyline
       points="59.962,97.500 417.431,97.500 "
       id="polyline193"
       style="fill:none;stroke:#000000;stroke-width:0.5pt;stroke-dasharray:none" />
    <g
       transform="translate(59.962,112.552)"
       id="g195">
      <g
         id="g197">
        <text
           x="0"
           y="0"
           font-size="11pt"
           id="text199"
           style="font-size:13.75px;text-anchor:middle;fill:#000000;font-family:Times New Roman">0</text>
      </g>
    </g>
    <g
       transform="translate(119.541,112.552)"
       id="g201">
      <g
         id="g203">
        <text
           x="0"
           y="0"
           font-size="11pt"
           id="text205"
           style="font-size:13.75px;text-anchor:middle;fill:#000000;font-family:Times New Roman">0.05</text>
      </g>
    </g>
    <g
       transform="translate(179.119,112.552)"
       id="g207">
      <g
         id="g209">
        <text
           x="0"
           y="0"
           font-size="11pt"
           id="text211"
           style="font-size:13.75px;text-anchor:middle;fill:#000000;font-family:Times New Roman">0.1</text>
      </g>
    </g>
    <g
       transform="translate(238.697,112.552)"
       id="g213">
      <g
         id="g215">
        <text
           x="0"
           y="0"
           font-size="11pt"
           id="text217"
           style="font-size:13.75px;text-anchor:middle;fill:#000000;font-family:Times New Roman">0.15</text>
      </g>
    </g>
    <g
       transform="translate(298.275,112.552)"
       id="g219">
      <g
         id="g221">
        <text
           x="0"
           y="0"
           font-size="11pt"
           id="text223"
           style="font-size:13.75px;text-anchor:middle;fill:#000000;font-family:Times New Roman">0.2</text>
      </g>
    </g>
    <g
       transform="translate(357.853,112.552)"
       id="g225">
      <g
         id="g227">
        <text
           x="0"
           y="0"
           font-size="11pt"
           id="text229"
           style="font-size:13.75px;text-anchor:middle;fill:#000000;font-family:Times New Roman">0.25</text>
      </g>
    </g>
    <polyline
       points="417.431,53.074 413.857,53.074 "
       id="polyline231"
       style="fill:none;stroke:#000000;stroke-width:0.5pt;stroke-dasharray:none" />
    <polyline
       points="417.431,97.500 417.431,8.648 "
       id="polyline233"
       style="fill:none;stroke:#000000;stroke-width:0.5pt;stroke-dasharray:none" />
    <g
       transform="translate(424.581,58.137)"
       id="g235">
      <g
         id="g237">
        <text
           x="0"
           y="0"
           font-size="11pt"
           id="text239"
           style="font-size:13.75px;text-anchor:start;fill:#000000;font-family:Times New Roman">0</text>
      </g>
    </g>
    <polyline
       points="59.962,97.500 59.962,96.611 "
       id="polyline241"
       style="fill:none;stroke:#000000;stroke-width:0.5pt;stroke-dasharray:none" />
    <polyline
       points="59.962,97.500 59.962,96.611 "
       id="polyline243"
       style="fill:none;stroke:#000000;stroke-width:0.5pt;stroke-dasharray:none" />
    <polyline
       points="59.962,97.500 59.962,96.611 "
       id="polyline245"
       style="fill:none;stroke:#000000;stroke-width:0.5pt;stroke-dasharray:none" />
    <polyline
       points="59.962,97.500 59.962,97.500 "
       id="polyline247"
       style="fill:none;stroke:#000000;stroke-width:0.5pt;stroke-dasharray:none" />
  </g>
</svg>
