<?xml version="1.0" encoding="UTF-8" standalone="no"?>
<svg
   xmlns:dc="http://purl.org/dc/elements/1.1/"
   xmlns:cc="http://creativecommons.org/ns#"
   xmlns:rdf="http://www.w3.org/1999/02/22-rdf-syntax-ns#"
   xmlns:svg="http://www.w3.org/2000/svg"
   xmlns="http://www.w3.org/2000/svg"
   width="16.269293mm"
   height="17.163227mm"
   viewBox="0 0 57.647101 60.814584"
   id="svg2"
   version="1.1">
  <defs
     id="defs4" />
  <metadata
     id="metadata7">
    <rdf:RDF>
      <cc:Work
         rdf:about="">
        <dc:format>image/svg+xml</dc:format>
        <dc:type
           rdf:resource="http://purl.org/dc/dcmitype/StillImage" />
        <dc:title></dc:title>
      </cc:Work>
    </rdf:RDF>
  </metadata>
  <g
     id="layer1"
     transform="translate(-109.40435,-311.99266)">
    <path
       id="path7767"
       d="m 137.28814,311.91438 a 0.750075,0.750075 0 0 0 -0.01,0.002 0.750075,0.750075 0 0 0 -0.0195,0.002 0.750075,0.750075 0 0 0 -0.0547,0.008 0.750075,0.750075 0 0 0 -0.004,0 0.750075,0.750075 0 0 0 -0.0273,0.008 0.750075,0.750075 0 0 0 -0.0195,0.004 0.750075,0.750075 0 0 0 -0.0215,0.006 0.750075,0.750075 0 0 0 -0.0312,0.01 0.750075,0.750075 0 0 0 -0.006,0.002 0.750075,0.750075 0 0 0 -0.0117,0.004 0.750075,0.750075 0 0 0 -0.002,0 0.750075,0.750075 0 0 0 -0.0117,0.006 0.750075,0.750075 0 0 0 -0.0469,0.0195 0.750075,0.750075 0 0 0 -0.01,0.004 0.750075,0.750075 0 0 0 -0.008,0.004 0.750075,0.750075 0 0 0 -0.004,0.002 0.750075,0.750075 0 0 0 -0.002,0.002 0.750075,0.750075 0 0 0 -0.006,0.002 0.750075,0.750075 0 0 0 -0.002,0.002 0.750075,0.750075 0 0 0 -0.0137,0.006 0.750075,0.750075 0 0 0 0,0.002 0.750075,0.750075 0 0 0 -0.043,0.0234 l -19.10742,10.04297 a 0.750075,0.750075 0 0 0 -0.004,0.002 0.750075,0.750075 0 0 0 -0.0215,0.0137 0.750075,0.750075 0 0 0 -0.006,0.002 0.750075,0.750075 0 0 0 -0.0137,0.01 0.750075,0.750075 0 0 0 -0.0195,0.0117 0.750075,0.750075 0 0 0 -0.004,0.002 0.750075,0.750075 0 0 0 -0.006,0.004 0.750075,0.750075 0 0 0 -0.0117,0.01 0.750075,0.750075 0 0 0 -0.0195,0.0137 0.750075,0.750075 0 0 0 -0.0449,0.0371 0.750075,0.750075 0 0 0 -0.002,0.002 0.750075,0.750075 0 0 0 -0.0137,0.0137 0.750075,0.750075 0 0 0 -0.01,0.008 0.750075,0.750075 0 0 0 -0.006,0.006 0.750075,0.750075 0 0 0 -0.0137,0.0156 0.750075,0.750075 0 0 0 -0.002,0.002 0.750075,0.750075 0 0 0 -0.0234,0.0254 0.750075,0.750075 0 0 0 -0.01,0.0117 0.750075,0.750075 0 0 0 -0.002,0.004 0.750075,0.750075 0 0 0 -0.002,0.004 0.750075,0.750075 0 0 0 -0.0391,0.0527 0.750075,0.750075 0 0 0 -0.006,0.008 0.750075,0.750075 0 0 0 -0.0273,0.0469 0.750075,0.750075 0 0 0 -0.008,0.0117 0.750075,0.750075 0 0 0 0,0.002 0.750075,0.750075 0 0 0 -0.004,0.004 l -0.0117,0.0254 -8.28515,16.17382 a 0.750075,0.750075 0 0 0 -0.0215,0.0449 0.750075,0.750075 0 0 0 -0.002,0.008 0.750075,0.750075 0 0 0 -0.008,0.0176 0.750075,0.750075 0 0 0 -0.01,0.0273 0.750075,0.750075 0 0 0 -0.01,0.0312 0.750075,0.750075 0 0 0 -0.006,0.0156 0.750075,0.750075 0 0 0 0,0.002 0.750075,0.750075 0 0 0 -0.008,0.041 0.750075,0.750075 0 0 0 -0.002,0.01 0.750075,0.750075 0 0 0 -0.004,0.0156 0.750075,0.750075 0 0 0 -0.002,0.008 0.750075,0.750075 0 0 0 -0.002,0.0234 0.750075,0.750075 0 0 0 -0.002,0.0117 0.750075,0.750075 0 0 0 -0.002,0.0195 0.750075,0.750075 0 0 0 -0.002,0.0117 0.750075,0.750075 0 0 0 0,0.0293 0.750075,0.750075 0 0 0 -0.002,0.01 0.750075,0.750075 0 0 0 0,0.0176 0.750075,0.750075 0 0 0 0,0.008 0.750075,0.750075 0 0 0 0,0.0117 0.750075,0.750075 0 0 0 0.002,0.0273 0.750075,0.750075 0 0 0 0,0.004 0.750075,0.750075 0 0 0 0,0.004 0.750075,0.750075 0 0 0 0.002,0.0254 0.750075,0.750075 0 0 0 0.002,0.0137 0.750075,0.750075 0 0 0 0.002,0.006 0.750075,0.750075 0 0 0 0,0.004 0.750075,0.750075 0 0 0 0.006,0.0254 0.750075,0.750075 0 0 0 0.004,0.0312 0.750075,0.750075 0 0 0 0.002,0.006 0.750075,0.750075 0 0 0 0,0.002 0.750075,0.750075 0 0 0 0.002,0.004 0.750075,0.750075 0 0 0 0,0.002 0.750075,0.750075 0 0 0 0.002,0.006 0.750075,0.750075 0 0 0 0.002,0.008 0.750075,0.750075 0 0 0 0.002,0.006 0.750075,0.750075 0 0 0 0.006,0.0273 0.750075,0.750075 0 0 0 0.004,0.01 0.750075,0.750075 0 0 0 0.002,0.008 l 4.33203,16.54493 a 0.750075,0.750075 0 0 0 0.004,0.0117 0.750075,0.750075 0 0 0 0.0234,0.0703 0.750075,0.750075 0 0 0 0.0254,0.0586 0.750075,0.750075 0 0 0 0.0234,0.043 0.750075,0.750075 0 0 0 0.0176,0.0312 0.750075,0.750075 0 0 0 0.01,0.0137 0.750075,0.750075 0 0 0 0.0332,0.0449 0.750075,0.750075 0 0 0 0.002,0.004 0.750075,0.750075 0 0 0 0.041,0.0469 0.750075,0.750075 0 0 0 0.041,0.0391 0.750075,0.750075 0 0 0 0.0215,0.0195 0.750075,0.750075 0 0 0 0.002,0.002 0.750075,0.750075 0 0 0 0.0488,0.0371 0.750075,0.750075 0 0 0 0.0371,0.0254 0.750075,0.750075 0 0 0 0.0371,0.0215 0.750075,0.750075 0 0 0 0.002,0.002 l 15.79102,8.48633 0.0137,0.008 a 0.750075,0.750075 0 0 0 0.01,0.004 0.750075,0.750075 0 0 0 0.006,0.004 0.750075,0.750075 0 0 0 0.0156,0.008 0.750075,0.750075 0 0 0 0.0117,0.006 0.750075,0.750075 0 0 0 0.01,0.004 0.750075,0.750075 0 0 0 0.0117,0.004 0.750075,0.750075 0 0 0 0.006,0.004 0.750075,0.750075 0 0 0 0.0117,0.004 0.750075,0.750075 0 0 0 0.0254,0.01 0.750075,0.750075 0 0 0 0.0156,0.006 0.750075,0.750075 0 0 0 0.01,0.002 0.750075,0.750075 0 0 0 0.006,0.002 0.750075,0.750075 0 0 0 0.0195,0.006 0.750075,0.750075 0 0 0 0.0215,0.006 0.750075,0.750075 0 0 0 0.0156,0.004 0.750075,0.750075 0 0 0 0.002,0 0.750075,0.750075 0 0 0 0.0332,0.006 0.750075,0.750075 0 0 0 0.0352,0.006 0.750075,0.750075 0 0 0 0.0586,0.004 0.750075,0.750075 0 0 0 0.0371,0.002 0.750075,0.750075 0 0 0 0.0351,-0.002 0.750075,0.750075 0 0 0 0.0234,-0.002 0.750075,0.750075 0 0 0 0.01,0 0.750075,0.750075 0 0 0 0.006,0 l 0.01,-0.002 13.42969,-1.3418 2.68359,3.03711 0.0195,0.0215 a 0.750075,0.750075 0 0 0 0.002,0.004 0.750075,0.750075 0 0 0 0.004,0.004 l 0.002,0.002 a 0.750075,0.750075 0 0 0 0.0352,0.0371 0.750075,0.750075 0 0 0 0.002,0.002 0.750075,0.750075 0 0 0 0.01,0.0117 0.750075,0.750075 0 0 0 0.002,0.002 0.750075,0.750075 0 0 0 0.0176,0.0156 0.750075,0.750075 0 0 0 0.008,0.006 0.750075,0.750075 0 0 0 0.002,0.002 0.750075,0.750075 0 0 0 0.002,0 0.750075,0.750075 0 0 0 0.0176,0.0156 0.750075,0.750075 0 0 0 0.0137,0.0117 l 8.08789,6.11524 a 0.750075,0.750075 0 0 0 0.006,0.004 l 0.006,0.004 a 0.750075,0.750075 0 0 0 0.0566,0.0391 0.750075,0.750075 0 0 0 0.006,0.004 0.750075,0.750075 0 0 0 0.0645,0.0351 0.750075,0.750075 0 0 0 0.0469,0.0195 0.750075,0.750075 0 0 0 0.0234,0.01 0.750075,0.750075 0 0 0 0.0195,0.006 0.750075,0.750075 0 0 0 0.0449,0.0137 0.750075,0.750075 0 0 0 0.008,0.002 0.750075,0.750075 0 0 0 0.0664,0.0137 0.750075,0.750075 0 0 0 0.0566,0.006 0.750075,0.750075 0 0 0 0.0176,0.002 0.750075,0.750075 0 0 0 0.006,0 0.750075,0.750075 0 0 0 0.0977,-0.002 0.750075,0.750075 0 0 0 0.0527,-0.006 0.750075,0.750075 0 0 0 0.0215,-0.004 0.750075,0.750075 0 0 0 0.11719,-0.0312 0.750075,0.750075 0 0 0 0.0293,-0.0117 0.750075,0.750075 0 0 0 0.0391,-0.0156 0.750075,0.750075 0 0 0 0.008,-0.004 0.750075,0.750075 0 0 0 0.0586,-0.0332 0.750075,0.750075 0 0 0 0.0625,-0.041 0.750075,0.750075 0 0 0 0.006,-0.004 0.750075,0.750075 0 0 0 0.0508,-0.043 l 0.006,-0.006 7.30469,-6.71094 a 0.750075,0.750075 0 0 0 0.0156,-1.08984 l -6.97461,-6.79102 7.96289,-8.33398 0.01,-0.01 a 0.750075,0.750075 0 0 0 0,-0.002 0.750075,0.750075 0 0 0 0.008,-0.008 0.750075,0.750075 0 0 0 0.0352,-0.041 0.750075,0.750075 0 0 0 0.008,-0.008 0.750075,0.750075 0 0 0 0.002,-0.004 0.750075,0.750075 0 0 0 0.002,-0.002 0.750075,0.750075 0 0 0 0.002,-0.002 0.750075,0.750075 0 0 0 0.006,-0.008 0.750075,0.750075 0 0 0 0.0312,-0.043 0.750075,0.750075 0 0 0 0.0234,-0.0391 0.750075,0.750075 0 0 0 0.006,-0.0117 0.750075,0.750075 0 0 0 0.008,-0.0137 0.750075,0.750075 0 0 0 0.002,-0.002 0.750075,0.750075 0 0 0 0,-0.002 0.750075,0.750075 0 0 0 0.004,-0.008 0.750075,0.750075 0 0 0 0.0254,-0.0527 l 0.006,-0.0156 3.35157,-8.28125 a 0.750075,0.750075 0 0 0 0.0137,-0.0352 0.750075,0.750075 0 0 0 0.0117,-0.0371 0.750075,0.750075 0 0 0 0.01,-0.0352 0.750075,0.750075 0 0 0 0.008,-0.0371 0.750075,0.750075 0 0 0 0.002,-0.0137 0.750075,0.750075 0 0 0 0.006,-0.0449 0.750075,0.750075 0 0 0 0.002,-0.0156 0.750075,0.750075 0 0 0 0,-0.0156 0.750075,0.750075 0 0 0 0.002,-0.0391 0.750075,0.750075 0 0 0 0,-0.0195 0.750075,0.750075 0 0 0 -0.002,-0.0371 0.750075,0.750075 0 0 0 -0.004,-0.0488 l 0,-0.002 -2.36523,-18.125 -0.006,-0.0449 0,-0.004 a 0.750075,0.750075 0 0 0 -0.002,-0.01 0.750075,0.750075 0 0 0 -0.002,-0.0156 0.750075,0.750075 0 0 0 -0.01,-0.0469 0.750075,0.750075 0 0 0 -0.002,-0.008 0.750075,0.750075 0 0 0 -0.002,-0.0137 0.750075,0.750075 0 0 0 -0.002,-0.004 0.750075,0.750075 0 0 0 -0.01,-0.0312 0.750075,0.750075 0 0 0 -0.004,-0.0156 0.750075,0.750075 0 0 0 -0.006,-0.0137 0.750075,0.750075 0 0 0 -0.002,-0.008 0.750075,0.750075 0 0 0 -0.002,-0.002 0.750075,0.750075 0 0 0 0,-0.002 0.750075,0.750075 0 0 0 -0.004,-0.01 0.750075,0.750075 0 0 0 -0.0137,-0.0352 0.750075,0.750075 0 0 0 -0.008,-0.0137 0.750075,0.750075 0 0 0 -0.002,-0.006 0.750075,0.750075 0 0 0 -0.002,-0.004 0.750075,0.750075 0 0 0 -0.006,-0.008 0.750075,0.750075 0 0 0 -0.002,-0.008 0.750075,0.750075 0 0 0 -0.0156,-0.0273 0.750075,0.750075 0 0 0 -0.01,-0.0156 0.750075,0.750075 0 0 0 -0.002,-0.002 0.750075,0.750075 0 0 0 -0.002,-0.004 0.750075,0.750075 0 0 0 -0.0273,-0.041 0.750075,0.750075 0 0 0 -0.0137,-0.0176 0.750075,0.750075 0 0 0 -0.002,-0.004 0.750075,0.750075 0 0 0 -0.0215,-0.0254 0.750075,0.750075 0 0 0 -0.01,-0.0117 0.750075,0.750075 0 0 0 -0.006,-0.006 0.750075,0.750075 0 0 0 -0.01,-0.01 0.750075,0.750075 0 0 0 -0.002,-0.004 0.750075,0.750075 0 0 0 -0.004,-0.004 l -7.31055,-7.50585 a 0.750075,0.750075 0 0 0 -0.0156,-0.0156 0.750075,0.750075 0 0 0 -0.008,-0.008 0.750075,0.750075 0 0 0 -0.0449,-0.0391 0.750075,0.750075 0 0 0 -0.004,-0.004 0.750075,0.750075 0 0 0 -0.043,-0.0312 0.750075,0.750075 0 0 0 -0.0176,-0.0117 0.750075,0.750075 0 0 0 -0.0449,-0.0273 0.750075,0.750075 0 0 0 -0.0684,-0.0312 0.750075,0.750075 0 0 0 -0.0469,-0.0176 0.750075,0.750075 0 0 0 -0.0234,-0.01 0.750075,0.750075 0 0 0 -0.0215,-0.006 0.750075,0.750075 0 0 0 -0.0625,-0.0137 0.750075,0.750075 0 0 0 -0.01,-0.002 0.750075,0.750075 0 0 0 -0.0293,-0.004 l -0.0234,-0.004 a 0.750075,0.750075 0 0 0 -0.01,0 l -19.4961,-2.56055 a 0.750075,0.750075 0 0 0 -0.0117,-0.002 l -0.0176,-0.002 a 0.750075,0.750075 0 0 0 -0.0352,-0.004 0.750075,0.750075 0 0 0 -0.0391,-0.002 0.750075,0.750075 0 0 0 -0.008,0 0.750075,0.750075 0 0 0 -0.0527,0 0.750075,0.750075 0 0 0 -0.0137,0 z m 0.0371,1.66016 7.9082,5.625 -16.11914,-0.15039 8.21094,-5.47461 z m 2.90234,0.22461 14.17969,1.86133 -6.73047,3.4375 -7.44922,-5.29883 z m 16.51758,2.35156 5.32617,5.4707 -12.09179,-2.01562 6.76562,-3.45508 z m -29.6582,4.37891 20.08398,0.18945 9.31055,16.72266 -5.3125,17.26367 -14.99219,3.56055 -14.90234,-13.94532 -0.94922,-12.89648 6.76172,-10.89453 z m 21.93945,0.43945 14.07813,2.3457 -5.86524,12.40235 -8.21289,-14.74805 z m -24.11133,0.21289 -4.9375,7.95508 -0.95898,-5.89649 5.89648,-2.05859 z m -7.11133,3.93164 0.94532,5.80664 -6.61719,5.26758 5.67187,-11.07422 z m 45.99024,0.25391 1.87695,14.39453 -7.35547,-2.81641 5.47852,-11.57812 z m -44.87891,7.33789 0.78516,10.6543 -8.46289,-4.54297 7.67773,-6.11133 z m 39.91211,6.04297 6.76758,2.59179 -2.44726,6.05079 -4.32032,-8.64258 z m -1.36914,0.61914 4.76367,9.52539 -9.20898,4.92383 4.44531,-14.44922 z m -46.41797,1.04492 8.46875,4.54883 -5.01758,8.62305 -3.45116,-13.17188 z m 9.45117,5.84375 7.83985,16.00586 -13.06641,-7.02344 5.22656,-8.98242 z m 2.5293,1.75195 11.80274,11.04883 -4.53907,3.7832 -7.26367,-14.83203 z m 36.41797,4.07422 -4.74414,4.96485 -1.65625,-1.54493 6.40039,-3.41992 z m -7.43164,4.50781 1.63867,1.5293 -4.36914,4.36914 2.73047,-5.89844 z m -2.85547,0.13477 -5.4375,5.03125 -5.43945,-2.44727 10.87695,-2.58398 z m 0.33789,1.73242 -2.86523,6.1875 -1.71875,-1.94726 4.58398,-4.24024 z m 4.50977,1.42969 0.15234,10.71875 -6.18945,-4.68164 6.03711,-6.03711 z m 1.5,0.0137 5.64062,5.49414 -5.49023,5.04492 -0.15039,-10.53906 z m -19.42188,0.0645 4.91797,2.21289 -8.60547,0.85938 3.6875,-3.07227 z"
       style="color:#000000;font-style:normal;font-variant:normal;font-weight:normal;font-stretch:normal;font-size:medium;line-height:normal;font-family:sans-serif;text-indent:0;text-align:start;text-decoration:none;text-decoration-line:none;text-decoration-style:solid;text-decoration-color:#000000;letter-spacing:normal;word-spacing:normal;text-transform:none;direction:ltr;block-progression:tb;writing-mode:lr-tb;baseline-shift:baseline;text-anchor:start;white-space:normal;clip-rule:nonzero;display:inline;overflow:visible;visibility:visible;opacity:1;isolation:auto;mix-blend-mode:normal;color-interpolation:sRGB;color-interpolation-filters:linearRGB;solid-color:#000000;solid-opacity:1;fill:#ffffff;fill-opacity:1;fill-rule:nonzero;stroke:none;stroke-width:1.5;stroke-linecap:butt;stroke-linejoin:round;stroke-miterlimit:4;stroke-dasharray:none;stroke-dashoffset:0;stroke-opacity:1;color-rendering:auto;image-rendering:auto;shape-rendering:auto;text-rendering:auto;enable-background:accumulate" />
  </g>
</svg>
